<svg width="30" height="28" viewBox="0 0 30 28" fill="none" xmlns="http://www.w3.org/2000/svg">
<path d="M3.78159 19.0037C4.5943 20.4113 6.39425 20.8936 7.8019 20.0809L9.3609 19.172C13.8561 16.6529 18.8327 15.6089 22.7409 16.238L19.1987 10.1025L15.6564 3.9671C14.2471 7.66625 10.8546 11.4541 6.42541 14.0875L4.85883 14.9834C3.45118 15.7961 2.96889 17.596 3.78159 19.0037Z" stroke="black" stroke-width="2.5" stroke-linecap="round" stroke-linejoin="round"/>
<path d="M21.2949 5.56299C21.2949 5.56299 22.7177 6.37075 23.4378 7.58866C24.1579 8.80657 24.1864 10.4148 24.1864 10.4148" stroke="black" stroke-width="2.5" stroke-linecap="round" stroke-linejoin="round"/>
<path d="M22.3633 1.66553C22.3633 1.66553 25.1408 3.24243 26.5466 5.62004C27.9524 7.99765 28.0081 11.6527 28.0081 11.6527" stroke="black" stroke-width="2.5" stroke-linecap="round" stroke-linejoin="round"/>
<path d="M10.9284 18.2521L9.45689 15.7033L7.98535 13.1545" stroke="black" stroke-width="2.5" stroke-linecap="round" stroke-linejoin="round"/>
<path d="M10.9368 18.3035L7.47266 20.3035L10.9135 26.2632L14.3776 24.2632L10.9368 18.3035Z" stroke="black" stroke-width="2.5" stroke-miterlimit="10" stroke-linejoin="round"/>
</svg>
