<svg width="29" height="29" viewBox="0 0 29 29" fill="none" xmlns="http://www.w3.org/2000/svg">
<g clip-path="url(#clip0_0_1952)">
<path d="M21.9764 6.97119L17.3027 10.1814" stroke="black" stroke-width="2.5"/>
<path d="M17.3174 19.74L21.9619 22.9922" stroke="black" stroke-width="2.5"/>
<path d="M24.3112 8.11734C25.9366 8.11734 27.2543 6.79968 27.2543 5.17427C27.2543 3.54886 25.9366 2.2312 24.3112 2.2312C22.6858 2.2312 21.3682 3.54886 21.3682 5.17427C21.3682 6.79968 22.6858 8.11734 24.3112 8.11734Z" stroke="black" stroke-width="2.5" stroke-linecap="round" stroke-linejoin="round"/>
<path d="M24.3112 27.714C25.9366 27.714 27.2543 26.3964 27.2543 24.7709C27.2543 23.1455 25.9366 21.8279 24.3112 21.8279C22.6858 21.8279 21.3682 23.1455 21.3682 24.7709C21.3682 26.3964 22.6858 27.714 24.3112 27.714Z" stroke="black" stroke-width="2.5" stroke-linecap="round" stroke-linejoin="round"/>
<path d="M10.2891 23.4712C14.9835 23.4712 18.7891 19.6656 18.7891 14.9712C18.7891 10.2768 14.9835 6.47119 10.2891 6.47119C5.59464 6.47119 1.78906 10.2768 1.78906 14.9712C1.78906 19.6656 5.59464 23.4712 10.2891 23.4712Z" stroke="black" stroke-width="2.5" stroke-miterlimit="10"/>
<path d="M12.4918 16.9119L8.24911 12.6692" stroke="black" stroke-width="2.5" stroke-linecap="round"/>
<path d="M12.4918 12.6692L8.24911 16.9118" stroke="black" stroke-width="2.5" stroke-linecap="round"/>
</g>
<defs>
<clipPath id="clip0_0_1952">
<rect width="28" height="28" fill="white" transform="translate(0.521484 0.972656)"/>
</clipPath>
</defs>
</svg>
