<svg width="28" height="28" viewBox="0 0 28 28" fill="none" xmlns="http://www.w3.org/2000/svg">
<path d="M22.0015 21.4549L18.7913 16.7812" stroke="black" stroke-width="2.5"/>
<path d="M9.23261 16.7959L5.98047 21.4404" stroke="black" stroke-width="2.5"/>
<path d="M20.8553 23.7897C20.8553 25.4152 22.173 26.7328 23.7984 26.7328C25.4238 26.7328 26.7415 25.4152 26.7415 23.7897C26.7415 22.1643 25.4238 20.8467 23.7984 20.8467C22.173 20.8467 20.8553 22.1643 20.8553 23.7897Z" stroke="black" stroke-width="2.5" stroke-linecap="round" stroke-linejoin="round"/>
<path d="M1.25864 23.7897C1.25864 25.4152 2.57629 26.7328 4.20171 26.7328C5.82712 26.7328 7.14478 25.4152 7.14478 23.7897C7.14478 22.1643 5.82712 20.8467 4.20171 20.8467C2.57629 20.8467 1.25864 22.1643 1.25864 23.7897Z" stroke="black" stroke-width="2.5" stroke-linecap="round" stroke-linejoin="round"/>
<path d="M5.50146 9.76758C5.50146 14.462 9.30704 18.2676 14.0015 18.2676C18.6959 18.2676 22.5015 14.462 22.5015 9.76758C22.5015 5.07316 18.6959 1.26758 14.0015 1.26758C9.30704 1.26758 5.50146 5.07316 5.50146 9.76758Z" stroke="black" stroke-width="2.5" stroke-miterlimit="10"/>
<path d="M12.0608 11.9703L16.3034 7.72766" stroke="black" stroke-width="2.5" stroke-linecap="round"/>
<path d="M16.3035 11.9703L12.0608 7.72766" stroke="black" stroke-width="2.5" stroke-linecap="round"/>
</svg>
