<svg width="29" height="29" viewBox="0 0 29 29" fill="none" xmlns="http://www.w3.org/2000/svg">
<g clip-path="url(#clip0_0_1954)">
<path d="M22.0564 6.06689L17.3828 9.2771" stroke="black" stroke-width="2.5"/>
<path d="M17.3975 18.8357L22.042 22.0879" stroke="black" stroke-width="2.5"/>
<path d="M24.3913 7.21304C26.0167 7.21304 27.3344 5.89539 27.3344 4.26997C27.3344 2.64456 26.0167 1.3269 24.3913 1.3269C22.7659 1.3269 21.4482 2.64456 21.4482 4.26997C21.4482 5.89539 22.7659 7.21304 24.3913 7.21304Z" stroke="black" stroke-width="2.5" stroke-linecap="round" stroke-linejoin="round"/>
<path d="M24.3913 26.8097C26.0167 26.8097 27.3344 25.4921 27.3344 23.8667C27.3344 22.2412 26.0167 20.9236 24.3913 20.9236C22.7659 20.9236 21.4482 22.2412 21.4482 23.8667C21.4482 25.4921 22.7659 26.8097 24.3913 26.8097Z" stroke="black" stroke-width="2.5" stroke-linecap="round" stroke-linejoin="round"/>
<path d="M10.3691 22.5669C15.0636 22.5669 18.8691 18.7613 18.8691 14.0669C18.8691 9.37247 15.0636 5.56689 10.3691 5.56689C5.67472 5.56689 1.86914 9.37247 1.86914 14.0669C1.86914 18.7613 5.67472 22.5669 10.3691 22.5669Z" stroke="black" stroke-width="2.5" stroke-miterlimit="10"/>
<path d="M10.3705 17.7116L10.3705 10.4222M10.3705 17.7116L7.19212 14.5333M10.3705 17.7116L13.5487 14.5333" stroke="black" stroke-width="2.5" stroke-linecap="round" stroke-linejoin="round"/>
</g>
<defs>
<clipPath id="clip0_0_1954">
<rect width="28" height="28" fill="white" transform="translate(0.601562 0.0683594)"/>
</clipPath>
</defs>
</svg>
