<svg width="28" height="28" viewBox="0 0 28 28" fill="none" xmlns="http://www.w3.org/2000/svg">
<path d="M3.09167 14.7819C3.09167 17.1838 3.79618 19.7822 5.1024 21.6029M11.0811 4.5968C8.5257 5.33222 6.24892 6.97795 4.82214 9.15285M16.9198 4.59806C19.472 5.33254 21.76 6.99055 23.1871 9.16136M22.8608 21.6383C24.0976 19.8617 24.9776 17.501 24.9776 15.1722C24.9776 15.0297 24.9749 14.8879 24.9695 14.7467M9.62444 25.2432C10.965 25.8265 12.4447 26.1499 14 26.1499C15.527 26.1499 16.9812 25.8381 18.3023 25.2747" stroke="black" stroke-width="2.5" stroke-linecap="round" stroke-linejoin="round"/>
<path d="M14.0007 7.1376C15.6261 7.1376 16.9438 5.81995 16.9438 4.19453C16.9438 2.56912 15.6261 1.25146 14.0007 1.25146C12.3753 1.25146 11.0576 2.56912 11.0576 4.19453C11.0576 5.81995 12.3753 7.1376 14.0007 7.1376Z" stroke="black" stroke-width="2.5" stroke-linecap="round" stroke-linejoin="round"/>
<path d="M7.06416 26.7382C8.68957 26.7382 10.0072 25.4205 10.0072 23.7951C10.0072 22.1697 8.68957 20.8521 7.06416 20.8521C5.43875 20.8521 4.12109 22.1697 4.12109 23.7951C4.12109 25.4205 5.43875 26.7382 7.06416 26.7382Z" stroke="black" stroke-width="2.5" stroke-linecap="round" stroke-linejoin="round"/>
<path d="M4.19014 14.9857C5.81555 14.9857 7.13321 13.6681 7.13321 12.0427C7.13321 10.4173 5.81555 9.09961 4.19014 9.09961C2.56473 9.09961 1.24707 10.4173 1.24707 12.0427C1.24707 13.6681 2.56473 14.9857 4.19014 14.9857Z" stroke="black" stroke-width="2.5" stroke-linecap="round" stroke-linejoin="round"/>
<path d="M23.8103 14.9857C25.4357 14.9857 26.7533 13.6681 26.7533 12.0427C26.7533 10.4173 25.4357 9.09961 23.8103 9.09961C22.1848 9.09961 20.8672 10.4173 20.8672 12.0427C20.8672 13.6681 22.1848 14.9857 23.8103 14.9857Z" stroke="black" stroke-width="2.5" stroke-linecap="round" stroke-linejoin="round"/>
<path d="M20.8581 26.7484C22.4835 26.7484 23.8012 25.4308 23.8012 23.8054C23.8012 22.18 22.4835 20.8623 20.8581 20.8623C19.2327 20.8623 17.915 22.18 17.915 23.8054C17.915 25.4308 19.2327 26.7484 20.8581 26.7484Z" stroke="black" stroke-width="2.5" stroke-linecap="round" stroke-linejoin="round"/>
</svg>
