<svg width="26" height="28" viewBox="0 0 26 28" fill="none" xmlns="http://www.w3.org/2000/svg">
<path d="M23.6708 9.7561H2.3291C1.77682 9.7561 1.3291 10.2038 1.3291 10.7561V25.7319C1.3291 26.2842 1.77682 26.7319 2.3291 26.7319H23.6708C24.2231 26.7319 24.6708 26.2842 24.6708 25.7319V10.7561C24.6708 10.2038 24.2231 9.7561 23.6708 9.7561Z" stroke="black" stroke-width="2.5" stroke-linejoin="round"/>
<path d="M8.6314 20.7803L5.52344 18.1929L8.6314 15.6003" stroke="black" stroke-width="2.5" stroke-linecap="round" stroke-linejoin="round"/>
<path d="M17.3582 15.59L20.4765 18.1877L17.3582 20.7803" stroke="black" stroke-width="2.5" stroke-linecap="round" stroke-linejoin="round"/>
<path d="M14.7402 13L11.2494 23.3803" stroke="black" stroke-width="2.5" stroke-linecap="round" stroke-linejoin="round"/>
<path d="M7 9.75197L7.00002 7.26343V7.26343C7.00002 3.94972 9.68631 1.26343 13 1.26343V1.26343C16.3137 1.26343 19 3.94972 19 7.26343V7.26343L19 9.75197" stroke="black" stroke-width="2.5"/>
</svg>
