<svg width="28" height="28" viewBox="0 0 28 28" fill="none" xmlns="http://www.w3.org/2000/svg">
<path d="M8.61538 11.5958V12.8458V11.5958ZM19.3383 11.5958V10.3458V11.5958ZM26.6998 19.1274H25.4498H26.6998ZM7.03257 25.2239C5.81342 24.9341 4.69005 24.3082 3.87474 23.3385C3.06926 22.3805 2.50391 21.0159 2.50391 19.1274H0.00390625C0.00390625 21.5484 0.742374 23.4977 1.96121 24.9473C3.17021 26.3853 4.79166 27.2609 6.45446 27.6561L7.03257 25.2239ZM2.50391 19.1274C2.50391 17.2825 3.04348 15.7214 4.01767 14.6373C4.97346 13.5737 6.45701 12.8458 8.61538 12.8458V10.3458C5.84917 10.3458 3.65198 11.304 2.15818 12.9663C0.682782 14.6081 0.00390625 16.8127 0.00390625 19.1274H2.50391ZM19.3383 12.8458C22.9274 12.8458 25.4498 15.6003 25.4498 19.1274H27.9498C27.9498 14.3353 24.4211 10.3458 19.3383 10.3458V12.8458ZM25.4498 19.1274C25.4498 21.0159 24.8845 22.3805 24.079 23.3385C23.2637 24.3082 22.1403 24.9341 20.9211 25.2239L21.4993 27.6561C23.1621 27.2609 24.7835 26.3853 25.9925 24.9473C27.2113 23.4977 27.9498 21.5484 27.9498 19.1274H25.4498ZM8.61538 12.8458L19.3383 12.8458V10.3458L8.61538 10.3458V12.8458ZM10.8438 27.0643C12.8446 26.2073 15.1091 26.2073 17.1099 27.0643L18.0942 24.7662C15.4648 23.64 12.4889 23.64 9.85954 24.7662L10.8438 27.0643ZM20.9211 25.2239C20.0983 25.4195 19.1519 25.2193 18.0942 24.7662L17.1099 27.0643C18.3434 27.5926 19.8971 28.037 21.4993 27.6561L20.9211 25.2239ZM6.45446 27.6561C8.05658 28.037 9.61034 27.5926 10.8438 27.0643L9.85954 24.7662C8.80182 25.2193 7.85543 25.4195 7.03257 25.2239L6.45446 27.6561Z" fill="black"/>
<path d="M5.6087 18.9741H11.2656" stroke="black" stroke-width="2.5" stroke-linecap="round" stroke-linejoin="round"/>
<path d="M8.43682 16.1456V21.8024" stroke="black" stroke-width="2.5" stroke-linecap="round" stroke-linejoin="round"/>
<path d="M18 20.6232L18.0108 20.6232" stroke="black" stroke-width="2.5" stroke-linecap="round" stroke-linejoin="round"/>
<path d="M21.2451 20.6232L21.2559 20.6232" stroke="black" stroke-width="2.5" stroke-linecap="round" stroke-linejoin="round"/>
<path d="M18 17.3248L18.0108 17.3248" stroke="black" stroke-width="2.5" stroke-linecap="round" stroke-linejoin="round"/>
<path d="M21.2344 17.3248L21.2452 17.3248" stroke="black" stroke-width="2.5" stroke-linecap="round" stroke-linejoin="round"/>
<path d="M14.0012 1.31383V11.5956" stroke="black" stroke-width="2.5" stroke-linecap="round" stroke-linejoin="round"/>
</svg>
