<svg width="28" height="28" viewBox="0 0 28 28" fill="none" xmlns="http://www.w3.org/2000/svg">
<path d="M1.26929 26.7296L26.7268 26.7296" stroke="black" stroke-width="2.5" stroke-linecap="round"/>
<path d="M7.651 10.4808H1.41603C1.3447 10.4808 1.28687 10.423 1.28687 10.3517C1.28687 10.3092 1.30777 10.2694 1.34276 10.2453L13.439 1.91366C13.782 1.67736 14.2356 1.67849 14.5775 1.91649L26.7179 10.3678C26.7345 10.3794 26.7445 10.3985 26.7445 10.4188C26.7445 10.4531 26.7167 10.4808 26.6824 10.4808H20.352H7.651Z" stroke="black" stroke-width="2.5" stroke-linecap="round" stroke-linejoin="round"/>
<path d="M6.33887 10.4808L6.33887 9.23083L3.83887 9.23084L3.83887 10.4808L6.33887 10.4808ZM3.83887 26.7296C3.83887 27.42 4.39851 27.9796 5.08887 27.9796C5.77922 27.9796 6.33887 27.42 6.33887 26.7296L3.83887 26.7296ZM3.83887 10.4808L3.83887 26.7296L6.33887 26.7296L6.33887 10.4808L3.83887 10.4808Z" fill="black"/>
<path d="M24.1726 10.4808L24.1726 9.23083L21.6726 9.23084L21.6726 10.4808L24.1726 10.4808ZM21.6726 26.7296C21.6726 27.42 22.2323 27.9796 22.9226 27.9796C23.613 27.9796 24.1726 27.42 24.1726 26.7296L21.6726 26.7296ZM21.6726 10.4808L21.6726 26.7296L24.1726 26.7296L24.1726 10.4808L21.6726 10.4808Z" fill="black"/>
<path d="M11.1685 10.4808V26.7297" stroke="black" stroke-width="2.5" stroke-linecap="round" stroke-linejoin="round"/>
<path d="M17 10.4808V26.7297" stroke="black" stroke-width="2.5" stroke-linecap="round" stroke-linejoin="round"/>
</svg>
