<svg width="28" height="28" viewBox="0 0 28 28" fill="none" xmlns="http://www.w3.org/2000/svg">
<path d="M14.0318 7.28677C15.6572 7.28677 16.9749 5.96912 16.9749 4.3437C16.9749 2.71829 15.6572 1.40063 14.0318 1.40063C12.4064 1.40063 11.0887 2.71829 11.0887 4.3437C11.0887 5.96912 12.4064 7.28677 14.0318 7.28677Z" stroke="black" stroke-width="2.5" stroke-linecap="round" stroke-linejoin="round"/>
<path d="M13.9243 26.5426C15.5497 26.5426 16.8673 25.225 16.8673 23.5996C16.8673 21.9742 15.5497 20.6565 13.9243 20.6565C12.2989 20.6565 10.9812 21.9742 10.9812 23.5996C10.9812 25.225 12.2989 26.5426 13.9243 26.5426Z" stroke="black" stroke-width="2.5" stroke-linecap="round" stroke-linejoin="round"/>
<path d="M14.0098 7.40321L14.0098 20.6565" stroke="black" stroke-width="2.5" stroke-linecap="round" stroke-linejoin="round"/>
<path d="M23.8231 12L25.0731 12C25.0731 11.3096 24.5134 10.75 23.8231 10.75L23.8231 12ZM4.19646 12L4.19646 10.75C3.86494 10.75 3.547 10.8817 3.31257 11.1161C3.07815 11.3505 2.94646 11.6685 2.94646 12L4.19646 12ZM2.94646 16.2375L2.94646 17.4875L5.44646 17.4875L5.44646 16.2375L2.94646 16.2375ZM22.5731 16.2375C22.5731 16.9279 23.1327 17.4875 23.8231 17.4875C24.5134 17.4875 25.0731 16.9279 25.0731 16.2375L22.5731 16.2375ZM23.8231 10.75L4.19646 10.75L4.19646 13.25L23.8231 13.25L23.8231 10.75ZM2.94646 12L2.94646 16.2375L5.44646 16.2375L5.44646 12L2.94646 12ZM22.5731 12L22.5731 16.2375L25.0731 16.2375L25.0731 12L22.5731 12Z" fill="black"/>
<path d="M4.19649 22.1236C5.8219 22.1236 7.13956 20.8059 7.13956 19.1805C7.13956 17.5551 5.8219 16.2374 4.19649 16.2374C2.57107 16.2374 1.25342 17.5551 1.25342 19.1805C1.25342 20.8059 2.57107 22.1236 4.19649 22.1236Z" stroke="black" stroke-width="2.5" stroke-linecap="round" stroke-linejoin="round"/>
<path d="M23.7966 22.1236C25.4221 22.1236 26.7397 20.8059 26.7397 19.1805C26.7397 17.5551 25.4221 16.2374 23.7966 16.2374C22.1712 16.2374 20.8536 17.5551 20.8536 19.1805C20.8536 20.8059 22.1712 22.1236 23.7966 22.1236Z" stroke="black" stroke-width="2.5" stroke-linecap="round" stroke-linejoin="round"/>
</svg>
