<svg width="18" height="28" viewBox="0 0 18 28" fill="none" xmlns="http://www.w3.org/2000/svg">
<path d="M16.4507 9.20982C16.8415 9.6003 16.8416 10.2336 16.451 10.6242L9.70433 17.3713C9.3138 17.7619 8.68059 17.7619 8.29006 17.3713L1.54605 10.6268C1.15555 10.2362 1.15556 9.60307 1.54608 9.21256L8.29059 2.46821C8.68103 2.07779 9.31401 2.07769 9.70457 2.46799L16.4507 9.20982Z" stroke="black" stroke-width="2.5" stroke-miterlimit="10" stroke-linejoin="round"/>
<path d="M13.0792 13.999L16.4559 17.3779C16.8465 17.7686 16.8461 18.4021 16.4551 18.7924L9.70418 25.5326C9.31356 25.9226 8.68083 25.9223 8.29053 25.532L1.54402 18.7855C1.15349 18.395 1.15349 17.7618 1.54401 17.3713L4.91504 14.0002" stroke="black" stroke-width="2.5" stroke-miterlimit="10" stroke-linejoin="round"/>
</svg>
