<svg width="29" height="29" viewBox="0 0 29 29" fill="none" xmlns="http://www.w3.org/2000/svg">
<path d="M22.7346 22.1961L19.5244 17.5225" stroke="black" stroke-width="2.5"/>
<path d="M9.96577 17.5371L6.71362 22.1816" stroke="black" stroke-width="2.5"/>
<path d="M21.5885 24.531C21.5885 26.1564 22.9061 27.474 24.5315 27.474C26.157 27.474 27.4746 26.1564 27.4746 24.531C27.4746 22.9055 26.157 21.5879 24.5315 21.5879C22.9061 21.5879 21.5885 22.9055 21.5885 24.531Z" stroke="black" stroke-width="2.5" stroke-linecap="round" stroke-linejoin="round"/>
<path d="M1.99179 24.531C1.99179 26.1564 3.30945 27.474 4.93486 27.474C6.56027 27.474 7.87793 26.1564 7.87793 24.531C7.87793 22.9055 6.56027 21.5879 4.93486 21.5879C3.30945 21.5879 1.99179 22.9055 1.99179 24.531Z" stroke="black" stroke-width="2.5" stroke-linecap="round" stroke-linejoin="round"/>
<path d="M6.23462 10.5088C6.23462 15.2032 10.0402 19.0088 14.7346 19.0088C19.429 19.0088 23.2346 15.2032 23.2346 10.5088C23.2346 5.81437 19.429 2.00879 14.7346 2.00879C10.0402 2.00879 6.23462 5.81437 6.23462 10.5088Z" stroke="black" stroke-width="2.5" stroke-miterlimit="10"/>
<path d="M12.1174 13.3068C13.6626 14.8521 16.168 14.8521 17.7132 13.3068C19.2584 11.7616 19.2584 9.25625 17.7132 7.711C16.168 6.16576 13.6626 6.16576 12.1174 7.711C10.5721 9.25625 10.5721 11.7616 12.1174 13.3068Z" stroke="black" stroke-width="2.5" stroke-linecap="round" stroke-linejoin="round" stroke-dasharray="5 5"/>
</svg>
