<svg width="28" height="28" viewBox="0 0 28 28" fill="none" xmlns="http://www.w3.org/2000/svg">
<path d="M13.4979 25.8186C20.2806 25.8186 25.779 20.3201 25.779 13.5375C25.779 6.75479 20.2806 1.25635 13.4979 1.25635C6.71524 1.25635 1.2168 6.75479 1.2168 13.5375C1.2168 20.3201 6.71524 25.8186 13.4979 25.8186Z" stroke="black" stroke-width="2.5" stroke-linecap="round" stroke-linejoin="round"/>
<path d="M18.3262 9.61755C18.3262 9.03821 18.0901 8.48389 17.6723 8.08249L16.4931 6.94936C16.0976 6.56801 15.6326 6.26767 15.1238 6.06494C14.0867 5.65837 12.9365 5.65837 11.8994 6.06494C11.4011 6.27103 10.9464 6.5712 10.5596 6.94936L9.34094 8.09278C8.9207 8.48709 8.68231 9.03767 8.68231 9.61393V9.61393C8.68231 10.1725 8.90636 10.7078 9.30427 11.0998L10.5154 12.293C11.1238 12.8599 11.8778 13.2426 12.6913 13.3977C13.5049 13.5528 14.3452 13.4739 15.1165 13.17C15.6235 12.9672 16.088 12.6697 16.4857 12.293L17.6725 11.1525C18.0901 10.7511 18.3262 10.1968 18.3262 9.61755V9.61755Z" stroke="black" stroke-width="2.5" stroke-linecap="square"/>
<path d="M13.5014 11.5463C13.8829 11.5463 14.2558 11.4331 14.573 11.2212C14.8902 11.0093 15.1374 10.708 15.2834 10.3556C15.4294 10.0032 15.4676 9.61535 15.3931 9.24121C15.3187 8.86706 15.135 8.52339 14.8653 8.25365C14.5955 7.9839 14.2519 7.8002 13.8777 7.72578C13.5036 7.65136 13.1158 7.68956 12.7633 7.83554C12.4109 7.98152 12.1096 8.22874 11.8977 8.54593C11.6858 8.86311 11.5727 9.23602 11.5727 9.61749C11.5727 10.129 11.7759 10.6196 12.1376 10.9813C12.4993 11.3431 12.9899 11.5463 13.5014 11.5463Z" fill="black"/>
<path d="M9.6467 20.2257C9.6467 20.2257 11.0933 21.1901 13.5042 21.1901C15.9152 21.1901 17.3618 20.2257 17.3618 20.2257" stroke="black" stroke-width="2.5" stroke-linecap="round" stroke-linejoin="round"/>
<path d="M6.75354 16.3682H9.6467" stroke="black" stroke-width="2.5" stroke-linecap="round" stroke-linejoin="round"/>
<path d="M17.3618 16.3682H20.2549" stroke="black" stroke-width="2.5" stroke-linecap="round" stroke-linejoin="round"/>
</svg>
