<svg width="28" height="28" viewBox="0 0 28 28" fill="none" xmlns="http://www.w3.org/2000/svg">
<path d="M13.9801 1.26147H5.82299C3.31196 1.26147 1.27637 3.29707 1.27637 5.8081C1.27637 8.31913 3.31196 10.3547 5.82299 10.3547H13.9801M13.9667 1.26147H22.1238C24.6349 1.26147 26.6705 3.29707 26.6705 5.8081C26.6705 8.31913 24.6349 10.3547 22.1238 10.3547H13.9667" stroke="black" stroke-width="2.5" stroke-linecap="round"/>
<path d="M13.9801 26.7358H5.82299C3.31196 26.7358 1.27637 24.7002 1.27637 22.1892C1.27637 19.6782 3.31196 17.6426 5.82299 17.6426H13.9801M13.9667 26.7358H22.1238C24.6349 26.7358 26.6705 24.7002 26.6705 22.1892C26.6705 19.6782 24.6349 17.6426 22.1238 17.6426H13.9667" stroke="black" stroke-width="2.5" stroke-linecap="round"/>
<path d="M14 17.6437L14 10.356" stroke="black" stroke-width="2.5" stroke-miterlimit="10" stroke-linecap="round"/>
</svg>
