<svg width="29" height="29" viewBox="0 0 29 29" fill="none" xmlns="http://www.w3.org/2000/svg">
<path d="M9.51713 19.8825L6.17481 23.2249M23.3355 6.18821C23.7793 6.63704 24.3949 6.91508 25.0753 6.91508C26.4275 6.91508 27.5237 5.81715 27.5237 4.46278C27.5237 3.10841 26.4275 2.01048 25.0753 2.01048C23.7232 2.01048 22.627 3.10841 22.627 4.46278C22.627 5.13559 22.8975 5.74512 23.3355 6.18821ZM23.3355 6.18821L18.8198 10.7037M23.3355 6.18821L23.338 6.18577M9.06293 9.03549L7.55264 7.5252L6.2379 6.21047M23.338 23.2249C22.851 23.6724 22.5457 24.315 22.5457 25.029C22.5457 26.3807 23.6398 27.4765 24.9893 27.4765C26.3389 27.4765 27.4329 26.3807 27.4329 25.029C27.4329 23.6773 26.3389 22.5815 24.9893 22.5815C24.3527 22.5815 23.7729 22.8254 23.338 23.2249ZM23.338 23.2249L19.9755 19.8632M23.338 23.2249L23.3387 23.2257M6.94483 25.0259C6.94483 26.3936 5.83789 27.5023 4.47241 27.5023C3.10694 27.5023 2 26.3936 2 25.0259C2 23.6582 3.10694 22.5495 4.47241 22.5495C5.83789 22.5495 6.94483 23.6582 6.94483 25.0259ZM6.9476 4.47065C6.9476 5.83514 5.84324 6.94128 4.48094 6.94128C3.11863 6.94128 2.01427 5.83514 2.01427 4.47065C2.01427 3.10616 3.11863 2.00002 4.48094 2.00002C5.84324 2.00002 6.9476 3.10616 6.9476 4.47065ZM14.7603 10.4582L13.407 9.28099C13.225 9.12267 12.9919 9.03548 12.7507 9.03548H8.79011C8.23783 9.03548 7.79011 9.48319 7.79011 10.0355V18.8825C7.79011 19.4348 8.23783 19.8825 8.79011 19.8825H20.852C21.4043 19.8825 21.852 19.4348 21.852 18.8825V11.7037C21.852 11.1514 21.4043 10.7037 20.852 10.7037H15.4166C15.1754 10.7037 14.9423 10.6165 14.7603 10.4582Z" stroke="black" stroke-width="2.5"/>
</svg>
