<svg width="29" height="29" viewBox="0 0 29 29" fill="none" xmlns="http://www.w3.org/2000/svg">
<path d="M11.549 17.8593C9.39001 18.2863 7.83401 20.1793 7.83401 22.3803V26.4333C7.83401 26.9855 8.28173 27.4333 8.83401 27.4333H20.627C21.1793 27.4333 21.627 26.9855 21.627 26.4333V22.3803C21.627 20.1793 20.071 18.2863 17.912 17.8593C16.98 17.7943 15.723 17.7313 14.724 17.7313C13.695 17.7313 12.507 17.7903 11.549 17.8593Z" stroke="black" stroke-width="2.5" stroke-linecap="round" stroke-linejoin="round"/>
<path d="M7.59532 24.6582C4.28932 23.9712 2 22.8282 2 21.5342C2 19.4342 7.697 17.7322 14.725 17.7322C21.753 17.7322 27.45 19.4342 27.45 21.5342C27.45 22.8282 25.1685 23.9712 21.8625 24.6582" stroke="black" stroke-width="2.5" stroke-linecap="square"/>
<path d="M13.44 12.5042L11.114 9.70325C9.562 7.83725 9.686 5.09725 11.401 3.37925C13.237 1.54025 16.216 1.54025 18.052 3.37925C19.767 5.09725 19.891 7.83725 18.339 9.70325L16.012 12.5042C15.589 12.5172 15.16 12.5232 14.726 12.5232C14.287 12.5232 13.868 12.5172 13.44 12.5042Z" stroke="black" stroke-width="2.5" stroke-linecap="round" stroke-linejoin="round"/>
<path d="M9.522 5.25054C5.088 5.84453 2 7.17554 2 8.72154C2 10.8215 7.697 12.5235 14.725 12.5235C21.753 12.5235 27.45 10.8215 27.45 8.72154C27.45 7.17354 24.354 5.84154 19.911 5.24854" stroke="black" stroke-width="2.5" stroke-linecap="square"/>
</svg>
