<svg width="24" height="27" viewBox="0 0 24 27" fill="none" xmlns="http://www.w3.org/2000/svg">
<path d="M8.96671 6.29736H1.88916M8.96671 19.7302V4.78072C8.96671 2.82631 7.38235 1.24194 5.42794 1.24194V1.24194C3.47353 1.24194 1.88916 2.82631 1.88916 4.78072L1.88916 19.7302L5.42794 25.5078L8.96671 19.7302Z" stroke="black" stroke-width="2.5" stroke-linejoin="round"/>
<path d="M18.5721 7.30835L15.0332 7.30835M18.5718 13.3748H15.0332M18.5721 19.0808H15.0332M15.0332 24.5078L15.0332 2.24195C15.0332 1.68966 15.4809 1.24194 16.0332 1.24194L21.1108 1.24194C21.663 1.24194 22.1108 1.68966 22.1108 2.24194V24.5078C22.1108 25.0601 21.663 25.5078 21.1108 25.5078H16.0332C15.4809 25.5078 15.0332 25.0601 15.0332 24.5078Z" stroke="black" stroke-width="2.5" stroke-linecap="round" stroke-linejoin="round"/>
</svg>
