<svg width="28" height="28" viewBox="0 0 28 28" fill="none" xmlns="http://www.w3.org/2000/svg">
<path d="M7.65084 10.4808H1.41587C1.34454 10.4808 1.28671 10.423 1.28671 10.3517C1.28671 10.3092 1.30761 10.2694 1.3426 10.2453L13.4388 1.91366C13.7819 1.67736 14.2355 1.67849 14.5774 1.91649L26.7177 10.3678C26.7344 10.3794 26.7443 10.3985 26.7443 10.4188C26.7443 10.4531 26.7165 10.4808 26.6822 10.4808H20.3518H7.65084Z" stroke="black" stroke-width="2.5" stroke-linecap="round" stroke-linejoin="round"/>
<path d="M1.28662 26.7451L26.7441 26.7451" stroke="black" stroke-width="2.5" stroke-linecap="round"/>
<path d="M5.08865 11.5991V25.7677" stroke="black" stroke-width="2.5" stroke-linecap="round"/>
<path d="M22.9225 11.9095L22.9302 25.7675" stroke="black" stroke-width="2.5" stroke-linecap="round"/>
<path d="M15.7774 15.2415H13.4109C12.9451 15.2427 12.4988 15.4233 12.1697 15.7437C11.8405 16.0642 11.6554 16.4984 11.6548 16.9512V16.9718C11.6554 17.4247 11.8405 17.8588 12.1697 18.1793C12.4988 18.4997 12.9451 18.6803 13.4109 18.6816H14.5847C14.8163 18.6807 15.0457 18.7242 15.2598 18.8097C15.474 18.8953 15.6687 19.021 15.8327 19.1799C15.9967 19.3388 16.1269 19.5276 16.2157 19.7354C16.3045 19.9433 16.3502 20.1662 16.3502 20.3913C16.3508 20.6166 16.3057 20.8398 16.2173 21.0481C16.1289 21.2564 15.999 21.4456 15.8352 21.6049C15.6713 21.7642 15.4767 21.8905 15.2625 21.9764C15.0483 22.0623 14.8188 22.1063 14.5871 22.1057H12.021" stroke="black" stroke-width="2.5" stroke-linecap="round" stroke-linejoin="round"/>
<path d="M13.998 15.1953V13.9775" stroke="black" stroke-width="2.5" stroke-linecap="round" stroke-linejoin="round"/>
<path d="M13.998 23.3893V22.266" stroke="black" stroke-width="2.5" stroke-linecap="round" stroke-linejoin="round"/>
</svg>
