<svg width="28" height="28" viewBox="0 0 28 28" fill="none" xmlns="http://www.w3.org/2000/svg">
<path d="M22.1254 19.4411L22.599 19.131C22.703 19.063 22.8188 19.0149 22.9404 18.9893L25.5957 18.4294C26.0583 18.3319 26.3894 17.9237 26.3894 17.4509V11.5552C26.3894 11.0888 26.0669 10.6843 25.6122 10.5804L23.2019 10.0293C22.9306 9.96731 22.6974 9.79502 22.5584 9.55389L22.172 8.88348C22.0309 8.63871 21.9999 8.34567 22.0867 8.07682L22.8459 5.72562C22.9908 5.27678 22.8024 4.7877 22.3938 4.55207L18.0717 2.05957C17.6682 1.8269 17.1575 1.90357 16.8402 2.24446L15.131 4.08044C14.9418 4.28365 14.6767 4.39906 14.3991 4.39906H13.659C13.3748 4.39906 13.104 4.27814 12.9143 4.0665L11.2554 2.2157C10.94 1.86382 10.4214 1.78073 10.0118 2.01649L5.68325 4.50834C5.27903 4.74104 5.08936 5.22228 5.22612 5.6682L5.97037 8.09495C6.0514 8.35916 6.01948 8.64513 5.88218 8.88497L5.53451 9.49229C5.39258 9.74021 5.1514 9.91559 4.87181 9.9742L2.40422 10.4914C1.94107 10.5885 1.60938 10.997 1.60938 11.4702V16.4681C1.60938 16.9349 1.93227 17.3396 2.38739 17.4432L4.85669 18.0054C5.12753 18.067 5.36051 18.2386 5.49983 18.4789L5.85303 19.0881C5.99578 19.3343 6.02685 19.6297 5.93845 19.9002L5.15529 22.2971C5.00846 22.7464 5.19639 23.2373 5.60579 23.4737L9.93322 25.9724C10.338 26.2061 10.8506 26.1283 11.1678 25.785L12.8664 23.9464C13.0557 23.7416 13.322 23.6251 13.6009 23.6251H14.34C14.6235 23.6251 14.8937 23.7454 15.0833 23.9561L16.7522 25.8107C17.0678 26.1614 17.5856 26.2438 17.9945 26.0085L21.2384 24.1411" stroke="black" stroke-width="2.5" stroke-linejoin="round"/>
<path d="M16.87 19.8857C16.5587 19.5829 16.0902 19.5239 15.6847 19.6796C15.0766 19.913 14.4209 20.0498 13.736 20.0666C10.4945 20.1462 7.80311 17.5839 7.72349 14.3424C7.71178 13.8654 7.75889 13.3993 7.85655 12.9513C8.00139 12.287 8.80854 12.131 9.3016 12.5992L11.4878 14.6752C11.8879 15.0551 12.5202 15.0392 12.9006 14.6395L14.2579 13.2139C14.6391 12.8135 14.6231 12.1798 14.2223 11.7992L12.2006 9.87957C11.6877 9.39253 11.8375 8.54444 12.533 8.41537C12.8295 8.36033 13.1347 8.32765 13.4475 8.31997C16.6889 8.24034 19.3803 10.8027 19.46 14.0442C19.4747 14.6464 19.3979 15.2305 19.2399 15.7819C19.1265 16.178 19.2069 16.6149 19.5021 16.9024L25.4231 22.6679C25.8157 23.0501 25.8276 23.6771 25.4498 24.0739L24.0921 25.4999C23.7084 25.9029 23.0695 25.9152 22.6706 25.5273L16.87 19.8857Z" stroke="black" stroke-width="2.5" stroke-miterlimit="10" stroke-linejoin="round"/>
</svg>
