<svg width="28" height="24" viewBox="0 0 28 24" fill="none" xmlns="http://www.w3.org/2000/svg">
<path d="M25.7599 1.24988H2.23975C1.68746 1.24988 1.23975 1.69759 1.23975 2.24988V21.7496C1.23975 22.3019 1.68746 22.7496 2.23975 22.7496H25.7599C26.3122 22.7496 26.7599 22.3019 26.7599 21.7496V2.24988C26.7599 1.69759 26.3122 1.24988 25.7599 1.24988Z" stroke="black" stroke-width="2.5" stroke-linecap="round"/>
<path d="M26.1064 6.98047H17.7689C14.9968 6.98047 12.7495 9.22773 12.7495 11.9999C12.7495 14.772 14.9968 17.0192 17.7689 17.0192H26.1064C26.4752 17.0192 26.7742 16.7202 26.7742 16.3514V7.64831C26.7742 7.27947 26.4752 6.98047 26.1064 6.98047Z" stroke="black" stroke-width="2.5" stroke-linecap="round"/>
<path d="M18.0005 14.0009C19.1048 14.0009 20.0001 13.1052 20.0001 12.0003C20.0001 10.8954 19.1048 9.99976 18.0005 9.99976C16.8962 9.99976 16.001 10.8954 16.001 12.0003C16.001 13.1052 16.8962 14.0009 18.0005 14.0009Z" fill="black"/>
</svg>
