<svg width="25" height="21" viewBox="0 0 25 21" fill="none" xmlns="http://www.w3.org/2000/svg">
<path d="M7.80469 8.2113L0.999955 8.2113" stroke="black" stroke-width="2" stroke-linecap="round" stroke-linejoin="round"/>
<path d="M5.16993 11.1276L8.08618 8.2112L5.16993 5.29494" stroke="black" stroke-width="2" stroke-linecap="round" stroke-linejoin="round"/>
<path d="M18.6117 9.08707L19.3804 8.16289C20.6924 6.58559 20.5873 4.26864 19.1379 2.81658C17.5861 1.26187 15.067 1.26187 13.5152 2.81658C12.0658 4.26864 11.9608 6.58558 13.2727 8.16289L14.0413 9.08688C14.5323 9.67711 14.251 10.5773 13.5113 10.783L12.47 11.0726C9.61894 11.8654 7.64612 14.4618 7.64612 17.421V20.2755H25V17.4161C25 14.4593 23.0291 11.8651 20.1806 11.0724L19.1415 10.7832C18.402 10.5774 18.1208 9.67726 18.6117 9.08707Z" fill="black"/>
</svg>
