<svg width="26" height="21" viewBox="0 0 26 21" fill="none" xmlns="http://www.w3.org/2000/svg">
<path fill-rule="evenodd" clip-rule="evenodd" d="M12.8075 1.66319C14.75 -0.282913 17.9032 -0.282914 19.8457 1.66319C21.66 3.48082 21.7915 6.38105 20.1492 8.35544L19.3805 9.27962C19.3699 9.2924 19.368 9.30014 19.3671 9.30465C19.3659 9.31151 19.3659 9.32196 19.3697 9.33418C19.3735 9.3464 19.3795 9.35499 19.3844 9.35992C19.3876 9.36316 19.3936 9.36844 19.4096 9.37289L20.4487 9.66207C23.7298 10.5752 26 13.5634 26 16.9692V19.8286C26 20.3809 25.5523 20.8286 25 20.8286H7.64612C7.09383 20.8286 6.64612 20.3809 6.64612 19.8286V16.9741C6.64612 13.5657 8.91833 10.5754 12.2021 9.66219L13.2434 9.37262C13.2594 9.36817 13.2654 9.36289 13.2686 9.35966C13.2735 9.35474 13.2795 9.34616 13.2833 9.33395C13.2871 9.32173 13.2871 9.31128 13.2859 9.30444C13.285 9.29994 13.2831 9.2922 13.2725 9.27943L12.5039 8.35543C10.8617 6.38105 10.9932 3.48082 12.8075 1.66319ZM4.46275 9.97367C4.07223 10.3642 4.07224 10.9974 4.46277 11.3879C4.8533 11.7784 5.48647 11.7784 5.87699 11.3879L8.79324 8.4715C9.18375 8.08098 9.18374 7.44782 8.79323 7.0573L5.87697 4.14104C5.48645 3.75051 4.85329 3.75051 4.46276 4.14104C4.07224 4.53156 4.07223 5.16473 4.46276 5.55525L5.67202 6.76451H1C0.447716 6.76451 0 7.21223 0 7.76451C0 8.3168 0.447716 8.76451 1 8.76451H5.67186L4.46275 9.97367Z" fill="black"/>
</svg>
