<svg width="26" height="28" viewBox="0 0 26 28" fill="none" xmlns="http://www.w3.org/2000/svg">
<path d="M12.7642 17.1156L12.7642 11.7782" stroke="black" stroke-width="2.5" stroke-linecap="round"/>
<path d="M15.4329 14.4469L10.0955 14.4469" stroke="black" stroke-width="2.5" stroke-linecap="round"/>
<path d="M7.34085 24.5222C6.99882 24.8358 6.59835 25.0788 6.16229 25.2375C5.72624 25.3962 5.26315 25.4674 4.79946 25.4471C4.33577 25.4267 3.88057 25.3153 3.45985 25.119C3.03913 24.9228 2.66112 24.6456 2.34741 24.3033C1.72281 23.6055 1.40055 22.6884 1.45142 21.7536C1.50229 20.8187 1.92213 19.9425 2.61872 19.3174C2.96075 19.0038 3.36123 18.7608 3.79728 18.6021C4.23333 18.4434 4.69643 18.3722 5.16011 18.3925C5.6238 18.4128 6.079 18.5243 6.49972 18.7206C6.92045 18.9168 7.29846 19.194 7.61216 19.5362C8.23641 20.2342 8.55844 21.1512 8.50757 22.086C8.45671 23.0208 8.03711 23.8969 7.34085 24.5222V24.5222Z" fill="white" stroke="black" stroke-width="2.5" stroke-linejoin="round"/>
<path d="M8.61792 21.7082L24 21.7106" stroke="black" stroke-width="2.5" stroke-linecap="round" stroke-linejoin="round"/>
<path d="M16.4265 22.3872L16.4239 25.6594L21.3242 25.6653L21.3256 22.3942" fill="black"/>
<path d="M16.4265 22.3872L16.4239 25.6594L21.3242 25.6653L21.3256 22.3942" stroke="black" stroke-width="2.5" stroke-linecap="round" stroke-linejoin="round"/>
<path d="M7.33963 9.39374C6.9976 9.70728 6.59712 9.95033 6.16107 10.109C5.72502 10.2677 5.26193 10.3389 4.79824 10.3186C4.33455 10.2983 3.87935 10.1868 3.45863 9.99056C3.03791 9.79432 2.6599 9.51715 2.34619 9.17487C1.72159 8.47703 1.39933 7.55996 1.4502 6.62508C1.50107 5.69021 1.92091 4.81399 2.6175 4.1889C2.95953 3.87536 3.36001 3.63231 3.79606 3.47362C4.23211 3.31494 4.6952 3.24372 5.15889 3.26404C5.62258 3.28437 6.07778 3.39583 6.4985 3.59207C6.91923 3.78832 7.29723 4.06549 7.61094 4.40777C8.23519 5.10576 8.55722 6.02276 8.50635 6.95752C8.45549 7.89228 8.03589 8.76845 7.33963 9.39374V9.39374Z" fill="white" stroke="black" stroke-width="2.5" stroke-linejoin="round"/>
<path d="M8.6167 6.57965L23.9988 6.58208" stroke="black" stroke-width="2.5" stroke-linecap="round" stroke-linejoin="round"/>
<path d="M16.4253 7.25862L16.4227 10.5309L21.3229 10.5368L21.3244 7.26568" fill="black"/>
<path d="M16.4253 7.25862L16.4227 10.5309L21.3229 10.5368L21.3244 7.26568" stroke="black" stroke-width="2.5" stroke-linecap="round" stroke-linejoin="round"/>
</svg>
