<svg width="25" height="26" viewBox="0 0 25 26" fill="none" xmlns="http://www.w3.org/2000/svg">
<path fill-rule="evenodd" clip-rule="evenodd" d="M4.13813 2.41336C3.82555 2.52711 3.53849 2.70133 3.29332 2.92607L3.28551 2.93323L3.28547 2.93319C2.78627 3.38116 2.48529 4.00918 2.44882 4.67944C2.41245 5.34777 2.64205 6.00358 3.08748 6.50357C3.31173 6.7471 3.58145 6.9444 3.88144 7.08432C4.1832 7.22508 4.50965 7.305 4.84212 7.31958C5.1746 7.33415 5.50661 7.28308 5.81919 7.16933C6.13177 7.05558 6.41883 6.88135 6.664 6.65662L7.33973 7.39376L6.67155 6.64976C7.1706 6.20158 7.47145 5.5735 7.50793 4.90322C7.54429 4.23493 7.31487 3.57915 6.86973 3.07899C6.6455 2.83552 6.37581 2.63826 6.07588 2.49836C5.77412 2.35761 5.44767 2.27768 5.1152 2.26311C4.78272 2.24854 4.45071 2.2996 4.13813 2.41336ZM9.43797 5.57981C9.25897 6.56043 8.76032 7.46054 8.01164 8.13441C7.57358 8.53505 7.06104 8.84572 6.50314 9.04875C5.94362 9.25237 5.34944 9.34373 4.75455 9.31766C4.15965 9.29158 3.5757 9.14858 3.03601 8.89685C2.49633 8.64512 2.01146 8.28959 1.60908 7.85056L1.60111 7.84187L1.60116 7.84182C0.799961 6.94668 0.386504 5.77023 0.451771 4.57078C0.516945 3.37305 1.05416 2.25018 1.94577 1.4482C2.38381 1.04759 2.89632 0.736955 3.45418 0.53394C4.0137 0.330321 4.60788 0.238955 5.20278 0.265031C5.79767 0.291105 6.38162 0.43411 6.92131 0.685837C7.46099 0.937565 7.94586 1.2931 8.34824 1.73212L8.35648 1.74111L8.35642 1.74116C8.83201 2.27293 9.17086 2.90383 9.35395 3.57979L23.9991 3.58211C24.5513 3.58219 24.999 4.02998 24.9989 4.58227C24.9988 5.13455 24.551 5.58219 23.9987 5.58211L9.43797 5.57981ZM13.7643 9.77822C13.7643 9.22593 13.3165 8.77822 12.7643 8.77822C12.212 8.77822 11.7643 9.22593 11.7643 9.77822V11.4469H10.0956C9.54327 11.4469 9.09555 11.8946 9.09555 12.4469C9.09555 12.9992 9.54327 13.4469 10.0956 13.4469H11.7643V15.1156C11.7643 15.6679 12.212 16.1156 12.7643 16.1156C13.3165 16.1156 13.7643 15.6679 13.7643 15.1156V13.4469H15.433C15.9852 13.4469 16.433 12.9992 16.433 12.4469C16.433 11.8946 15.9852 11.4469 15.433 11.4469H13.7643V9.77822ZM4.13935 17.5418C3.82677 17.6556 3.53971 17.8298 3.29455 18.0546L3.28673 18.0617L3.28669 18.0617C2.78749 18.5096 2.48651 19.1377 2.45004 19.8079C2.41367 20.4763 2.64327 21.1321 3.0887 21.632C3.31295 21.8756 3.58267 22.0729 3.88266 22.2128C4.18442 22.3536 4.51087 22.4335 4.84334 22.4481C5.17582 22.4626 5.50783 22.4116 5.82041 22.2978C6.13299 22.1841 6.42005 22.0098 6.66522 21.7851L7.34095 22.5222L6.67277 21.7782C7.17182 21.3301 7.47267 20.702 7.50915 20.0317C7.54551 19.3634 7.31609 18.7076 6.87095 18.2075C6.64672 17.964 6.37704 17.7667 6.0771 17.6268C5.77534 17.4861 5.4489 17.4062 5.11642 17.3916C4.78394 17.377 4.45193 17.4281 4.13935 17.5418ZM9.43918 20.7083C9.26017 21.6889 8.76152 22.589 8.01286 23.2629C7.5748 23.6635 7.06226 23.9742 6.50436 24.1772C5.94484 24.3808 5.35066 24.4722 4.75577 24.4461C4.16087 24.4201 3.57692 24.2771 3.03723 24.0253C2.49755 23.7736 2.01268 23.4181 1.6103 22.979L1.60233 22.9703L1.60238 22.9703C0.801182 22.0752 0.387724 20.8987 0.452992 19.6993C0.518165 18.5015 1.05538 17.3787 1.94699 16.5767C2.38503 16.1761 2.89754 15.8654 3.4554 15.6624C4.01492 15.4588 4.6091 15.3674 5.204 15.3935C5.79889 15.4196 6.38284 15.5626 6.92253 15.8143C7.46221 16.066 7.94708 16.4216 8.34946 16.8606L8.3577 16.8696L8.35765 16.8696C8.83325 17.4014 9.1721 18.0324 9.35518 18.7083L24.0003 18.7106C24.5526 18.7107 25.0002 19.1585 25.0001 19.7108C25 20.2631 24.5523 20.7107 24 20.7106L9.43918 20.7083Z" fill="black"/>
<path d="M16.4253 5.25862L16.4227 8.53088L21.3229 8.53679L21.3244 5.26568" fill="black"/>
<path d="M16.4253 5.25862L16.4227 8.53088L21.3229 8.53679L21.3244 5.26568" stroke="black" stroke-width="2" stroke-linecap="round" stroke-linejoin="round"/>
<path d="M16.4265 20.3872L16.4239 23.6594L21.3242 23.6653L21.3256 20.3942" fill="black"/>
<path d="M16.4265 20.3872L16.4239 23.6594L21.3242 23.6653L21.3256 20.3942" stroke="black" stroke-width="2" stroke-linecap="round" stroke-linejoin="round"/>
</svg>
