<svg width="27" height="26" viewBox="0 0 27 26" fill="none" xmlns="http://www.w3.org/2000/svg">
<path fill-rule="evenodd" clip-rule="evenodd" d="M23.9991 1.00488C23.9991 0.452598 23.5514 0.00488281 22.9991 0.00488281C22.4469 0.00488281 21.9991 0.452598 21.9991 1.00488V3.00488H19.9991C19.4469 3.00488 18.9991 3.4526 18.9991 4.00488C18.9991 4.55717 19.4469 5.00488 19.9991 5.00488H21.9991V7.00488C21.9991 7.55717 22.4469 8.00488 22.9991 8.00488C23.5514 8.00488 23.9991 7.55717 23.9991 7.00488V5.00488H25.9991C26.5514 5.00488 26.9991 4.55717 26.9991 4.00488C26.9991 3.4526 26.5514 3.00488 25.9991 3.00488H23.9991V1.00488ZM8.92292 13.7536L8.65482 12.7902L7.42568 13.1322C3.62363 14.1903 0.993042 17.6529 0.993042 21.5995V24.9818C0.993042 25.5341 1.44076 25.9818 1.99304 25.9818H22.5206C23.0729 25.9818 23.5206 25.5341 23.5206 24.9818V21.6053C23.5206 17.6557 20.8876 14.1906 17.0824 13.1324L15.8507 12.7898C15.6748 12.7409 15.6079 12.5268 15.7247 12.3865L16.6338 11.2935C18.516 9.03065 18.3653 5.70669 16.2859 3.62351C14.0596 1.39307 10.4457 1.39308 8.2194 3.62351C6.14008 5.70669 5.98933 9.03065 7.87154 11.2935L8.78085 12.3867C8.89763 12.5271 8.83074 12.7412 8.65482 12.7902L8.92292 13.7536Z" fill="black"/>
</svg>
