<svg width="25" height="25" viewBox="0 0 25 25" fill="none" xmlns="http://www.w3.org/2000/svg">
<path fill-rule="evenodd" clip-rule="evenodd" d="M4.13804 2.41342C3.82545 2.52717 3.53839 2.70139 3.29323 2.92613L3.28542 2.93329L3.28538 2.93325C2.78618 3.38122 2.4852 4.00924 2.44873 4.6795C2.41236 5.34783 2.64196 6.00365 3.08739 6.50363C3.31163 6.74716 3.58136 6.94446 3.88135 7.08438C4.18311 7.22514 4.50955 7.30506 4.84203 7.31964C5.17451 7.33421 5.50652 7.28314 5.8191 7.16939C6.13168 7.05564 6.41874 6.88142 6.6639 6.65668L6.67143 6.64978L6.67146 6.64982C7.1705 6.20164 7.47136 5.57356 7.50783 4.90328C7.5442 4.23499 7.31478 3.57921 6.86964 3.07906C6.64541 2.83558 6.37572 2.63832 6.07579 2.49843C5.77403 2.35767 5.44758 2.27775 5.1151 2.26317C4.78263 2.2486 4.45062 2.29966 4.13804 2.41342ZM1.94568 1.44826C2.38372 1.04765 2.89622 0.737016 3.45409 0.534001C4.01361 0.330382 4.60779 0.239016 5.20268 0.265092C5.79758 0.291166 6.38153 0.43417 6.92122 0.685898C7.4609 0.937626 7.94577 1.29316 8.34815 1.73219L8.35639 1.74117L8.35633 1.74122C8.83193 2.27301 9.17079 2.90393 9.35387 3.57991L23.9989 3.58222C24.5511 3.58231 24.9988 4.03009 24.9987 4.58238C24.9986 5.13466 24.5508 5.58231 23.9985 5.58222L22.3242 5.58196L22.3229 8.53707C22.3228 8.80242 22.2172 9.05684 22.0294 9.24432C21.8416 9.43179 21.587 9.53695 21.3217 9.53663L16.4214 9.53072C15.8693 9.53006 15.4222 9.08205 15.4226 8.52993L15.4249 5.58087L9.43787 5.57992C9.25886 6.56052 8.76021 7.46061 8.01155 8.13447C7.57349 8.53512 7.06095 8.84578 6.50305 9.04881C5.94353 9.25243 5.34935 9.34379 4.75445 9.31772C4.15956 9.29164 3.57561 9.14864 3.03592 8.89691C2.49624 8.64518 2.01137 8.28965 1.60899 7.85062L1.60101 7.84193L1.60107 7.84188C0.799869 6.94674 0.386412 5.77029 0.45168 4.57084C0.516853 3.37312 1.05406 2.25024 1.94568 1.44826ZM13.7641 9.77835C13.7641 9.22606 13.3164 8.77835 12.7641 8.77835C12.2118 8.77835 11.7641 9.22606 11.7641 9.77835V11.4471H10.0954C9.54308 11.4471 9.09537 11.8948 9.09537 12.4471C9.09537 12.9993 9.54308 13.4471 10.0954 13.4471H11.7641V15.1158C11.7641 15.668 12.2118 16.1158 12.7641 16.1158C13.3164 16.1158 13.7641 15.668 13.7641 15.1158V13.4471H15.4328C15.9851 13.4471 16.4328 12.9993 16.4328 12.4471C16.4328 11.8948 15.9851 11.4471 15.4328 11.4471H13.7641V9.77835ZM4.13933 17.5418C3.82675 17.6556 3.53969 17.8298 3.29453 18.0545L3.28672 18.0617L3.28668 18.0617C2.78748 18.5096 2.48649 19.1377 2.45002 19.8079C2.41366 20.4763 2.64326 21.1321 3.08868 21.632C3.31293 21.8756 3.58266 22.0729 3.88264 22.2128C4.18441 22.3536 4.51085 22.4335 4.84333 22.4481C5.17581 22.4626 5.50781 22.4116 5.8204 22.2978C6.13298 22.1841 6.42004 22.0098 6.6652 21.7851L6.67272 21.7782L6.67276 21.7782C7.1718 21.3301 7.47266 20.702 7.50913 20.0317C7.54549 19.3634 7.31608 18.7076 6.87093 18.2075C6.64671 17.964 6.37702 17.7667 6.07709 17.6268C5.77533 17.4861 5.44888 17.4062 5.1164 17.3916C4.78392 17.377 4.45192 17.4281 4.13933 17.5418ZM1.94697 16.5767C2.38502 16.1761 2.89752 15.8654 3.45538 15.6624C4.01491 15.4588 4.60909 15.3674 5.20398 15.3935C5.79887 15.4196 6.38283 15.5626 6.92251 15.8143C7.4622 16.066 7.94707 16.4216 8.34945 16.8606L8.35769 16.8696L8.35763 16.8696C8.83323 17.4014 9.17208 18.0323 9.35517 18.7083L24.0002 18.7106C24.5524 18.7107 25.0001 19.1585 25 19.7108C24.9999 20.2631 24.5521 20.7107 23.9998 20.7106L22.3255 20.7104L22.3242 23.666C22.3241 23.9313 22.2185 24.1857 22.0307 24.3732C21.8429 24.5607 21.5883 24.6659 21.323 24.6655L16.4227 24.6596C15.8706 24.659 15.4235 24.211 15.4239 23.6588L15.4263 20.7093L9.43917 20.7083C9.26016 21.6889 8.76151 22.589 8.01285 23.2629C7.57478 23.6635 7.06225 23.9742 6.50435 24.1772C5.94482 24.3808 5.35065 24.4722 4.75575 24.4461C4.16086 24.4201 3.5769 24.2771 3.03722 24.0253C2.49753 23.7736 2.01266 23.4181 1.61028 22.979L1.60231 22.9703L1.60236 22.9703C0.801166 22.0752 0.387709 20.8987 0.452977 19.6993C0.51815 18.5015 1.05536 17.3787 1.94697 16.5767Z" fill="black"/>
</svg>
