<svg width="26" height="25" viewBox="0 0 26 25" fill="none" xmlns="http://www.w3.org/2000/svg">
<path fill-rule="evenodd" clip-rule="evenodd" d="M4.22353 2.64822C3.94182 2.75074 3.68311 2.90776 3.46217 3.1103L3.4524 3.11925L3.45235 3.1192C3.0025 3.52288 2.73123 4.08886 2.69836 4.69297C2.66562 5.29466 2.87206 5.88516 3.27269 6.33567C3.47457 6.55452 3.71723 6.73185 3.98702 6.8577C4.25905 6.98458 4.5533 7.05662 4.85298 7.06976C5.15266 7.08289 5.45189 7.03686 5.73361 6.93434C6.01532 6.83182 6.27403 6.67481 6.49497 6.47227L7.33965 7.39371L6.50442 6.4637C6.95416 6.0598 7.22533 5.49374 7.2582 4.88957C7.29094 4.28789 7.08466 3.69739 6.68427 3.2467C6.48243 3.02794 6.23983 2.85068 5.97011 2.72487C5.69809 2.59799 5.40383 2.52595 5.10416 2.51281C4.80448 2.49968 4.50525 2.5457 4.22353 2.64822ZM9.64169 5.82986C9.42389 6.78422 8.91665 7.65573 8.17963 8.31941C7.71754 8.74188 7.17695 9.06948 6.58854 9.28361C5.99815 9.49847 5.3712 9.59487 4.74351 9.56736C4.11581 9.53984 3.49967 9.38896 2.93024 9.12336C2.36082 8.85776 1.84923 8.48264 1.42468 8.01942L1.41479 8.00849C0.56944 7.06402 0.133182 5.82273 0.202049 4.55713C0.270798 3.2937 0.837348 2.10917 1.77771 1.26297C2.23976 0.840584 2.78027 0.513051 3.36859 0.298952C3.95898 0.0841 4.58593 -0.0123035 5.21363 0.0152093C5.84133 0.0427222 6.45747 0.193611 7.0269 0.459211C7.59632 0.72481 8.1079 1.09993 8.53245 1.56315L8.54268 1.57444C9.00093 2.08682 9.33886 2.68644 9.54118 3.32984L23.9989 3.33213C24.6893 3.33224 25.2488 3.89197 25.2487 4.58233C25.2486 5.27268 24.6889 5.83224 23.9985 5.83213L22.5741 5.8319L22.5729 8.53732C22.5727 8.86901 22.4408 9.18703 22.206 9.42138C21.9713 9.65572 21.6531 9.78716 21.3214 9.78677L16.4211 9.78086C15.7309 9.78003 15.172 9.22002 15.1726 8.52986L15.1748 5.83073L9.64169 5.82986ZM14.0141 9.77821C14.0141 9.08786 13.4544 8.52821 12.7641 8.52821C12.0737 8.52821 11.5141 9.08786 11.5141 9.77821V11.1969H10.0954C9.40501 11.1969 8.84537 11.7566 8.84537 12.4469C8.84537 13.1373 9.40501 13.6969 10.0954 13.6969H11.5141V15.1156C11.5141 15.806 12.0737 16.3656 12.7641 16.3656C13.4544 16.3656 14.0141 15.806 14.0141 15.1156V13.6969H15.4328C16.1231 13.6969 16.6828 13.1373 16.6828 12.4469C16.6828 11.7566 16.1231 11.1969 15.4328 11.1969H14.0141V9.77821ZM4.22484 17.7768C3.94312 17.8793 3.68442 18.0363 3.46347 18.2388L3.4537 18.2478L3.45366 18.2477C3.0038 18.6514 2.73253 19.2174 2.69966 19.8215C2.66692 20.4232 2.87336 21.0137 3.27399 21.4642C3.47587 21.6831 3.71853 21.8604 3.98833 21.9862C4.26035 22.1131 4.55461 22.1852 4.85428 22.1983C5.15396 22.2114 5.45319 22.1654 5.73491 22.0629C6.01662 21.9604 6.27533 21.8033 6.49628 21.6008L7.34095 22.5223L6.50572 21.5922C6.95546 21.1883 7.22663 20.6223 7.25951 20.0181C7.29225 19.4164 7.08597 18.8259 6.68558 18.3752C6.48373 18.1565 6.24114 17.9792 5.97142 17.8534C5.6994 17.7265 5.40514 17.6545 5.10546 17.6414C4.80579 17.6282 4.50655 17.6742 4.22484 17.7768ZM9.64299 20.9584C9.4252 21.9128 8.91795 22.7843 8.18094 23.448C7.71884 23.8704 7.17826 24.198 6.58985 24.4122C5.99946 24.627 5.37251 24.7234 4.74481 24.6959C4.11712 24.6684 3.50097 24.5175 2.93155 24.2519C2.36212 23.9863 1.85054 23.6112 1.42599 23.148L1.41609 23.137C0.570744 22.1926 0.134487 20.9513 0.203354 19.6857C0.272103 18.4222 0.838652 17.2377 1.77902 16.3915C2.24107 15.9691 2.78158 15.6416 3.3699 15.4275C3.96029 15.2126 4.58724 15.1162 5.21494 15.1438C5.84263 15.1713 6.45877 15.3222 7.0282 15.5878C7.59762 15.8534 8.10921 16.2285 8.53376 16.6917L8.54399 16.703C9.00223 17.2154 9.34016 17.815 9.54249 18.4584L24.0002 18.4607C24.6906 18.4608 25.2501 19.0205 25.25 19.7109C25.2499 20.4012 24.6902 20.9608 23.9998 20.9607L22.5754 20.9604L22.5742 23.6659C22.574 23.9975 22.4421 24.3156 22.2073 24.5499C21.9726 24.7843 21.6543 24.9157 21.3227 24.9153L16.4224 24.9094C15.7322 24.9086 15.1733 24.3486 15.1739 23.6584L15.176 20.9593L9.64299 20.9584Z" fill="black"/>
</svg>
