<svg width="28" height="27" viewBox="0 0 28 27" fill="none" xmlns="http://www.w3.org/2000/svg">
<path fill-rule="evenodd" clip-rule="evenodd" d="M23.0029 0C23.5552 0 24.0029 0.447715 24.0029 1V3H26.0029C26.5552 3 27.0029 3.44772 27.0029 4C27.0029 4.55228 26.5552 5 26.0029 5H24.0029V7C24.0029 7.55228 23.5552 8 23.0029 8C22.4506 8 22.0029 7.55228 22.0029 7V5H20.0029C19.4506 5 19.0029 4.55229 19.0029 4C19.0029 3.44772 19.4506 3 20.0029 3H22.0029V1C22.0029 0.447715 22.4506 0 23.0029 0ZM8.34157 10.3009L9.37606 11.5505C10.0283 12.3383 9.65322 13.5366 8.66824 13.812L7.30341 14.1936C3.52366 15.2505 0.910156 18.695 0.910156 22.6198V26.0101C0.910156 26.2534 1.10742 26.4507 1.35075 26.4507H23.4697C23.7129 26.4507 23.9102 26.2535 23.9102 26.0102V22.6263C23.9102 18.6983 21.294 15.2509 17.5109 14.1939L16.1432 13.8117C15.1581 13.5365 14.7829 12.3381 15.4351 11.5502L16.4694 10.3009C18.201 8.20919 18.0621 5.14474 16.1483 3.21831C14.0852 1.14154 10.7258 1.14154 8.66264 3.21831C6.74888 5.14474 6.60996 8.20919 8.34157 10.3009Z" fill="black"/>
</svg>
