<svg width="28" height="28" viewBox="0 0 28 28" fill="none" xmlns="http://www.w3.org/2000/svg">
<path fill-rule="evenodd" clip-rule="evenodd" d="M0.75 14C0.75 21.3178 6.68223 27.25 14 27.25C21.3178 27.25 27.25 21.3178 27.25 14C27.25 6.68223 21.3178 0.75 14 0.75C6.68223 0.75 0.75 6.68223 0.75 14ZM13.9664 19.9345C14.6567 19.9382 15.2194 19.3816 15.2231 18.6913L15.2445 14.7455L19.1882 14.7668C19.8786 14.7706 20.4412 14.2139 20.445 13.5236C20.4487 12.8333 19.8921 12.2706 19.2018 12.2669L15.258 12.2455L15.2793 8.30168C15.283 7.61133 14.7264 7.04867 14.0361 7.04494C13.3457 7.04121 12.7831 7.59782 12.7794 8.28816L12.758 12.232L8.81218 12.2107C8.12183 12.207 7.55917 12.7636 7.55544 13.4539C7.55171 14.1443 8.10832 14.7069 8.79866 14.7107L12.7445 14.732L12.7232 18.6777C12.7194 19.3681 13.2761 19.9307 13.9664 19.9345Z" fill="black"/>
</svg>
