<svg width="27" height="27" viewBox="0 0 27 27" fill="none" xmlns="http://www.w3.org/2000/svg">
<path fill-rule="evenodd" clip-rule="evenodd" d="M22.1123 0.25293C22.6646 0.25293 23.1123 0.700645 23.1123 1.25293V3.25293H25.1123C25.6646 3.25293 26.1123 3.70064 26.1123 4.25293C26.1123 4.80521 25.6646 5.25293 25.1123 5.25293H23.1123V7.25293C23.1123 7.80521 22.6646 8.25293 22.1123 8.25293C21.56 8.25293 21.1123 7.80521 21.1123 7.25293V5.25293H19.1123C18.56 5.25293 18.1123 4.80521 18.1123 4.25293C18.1123 3.70065 18.56 3.25293 19.1123 3.25293H21.1123V1.25293C21.1123 0.700645 21.56 0.25293 22.1123 0.25293ZM7.45094 10.5538L8.48543 11.8034C9.13763 12.5912 8.76259 13.7895 7.77762 14.0649L6.41278 14.4466C2.63303 15.5034 0.0195312 18.948 0.0195312 22.8727V26.263C0.0195312 26.5064 0.21679 26.7036 0.460121 26.7036H22.5791C22.8223 26.7036 23.0195 26.5064 23.0195 26.2631V22.8793C23.0195 18.9512 20.4034 15.5039 16.6202 14.4468L15.2525 14.0646C14.2675 13.7894 13.8923 12.591 14.5445 11.8032L15.5788 10.5538C17.3104 8.46212 17.1715 5.39767 15.2577 3.47124C13.1946 1.39447 9.83513 1.39447 7.77202 3.47124C5.85825 5.39767 5.71933 8.46212 7.45094 10.5538Z" fill="black"/>
</svg>
