<svg width="25" height="22" viewBox="0 0 25 22" fill="none" xmlns="http://www.w3.org/2000/svg">
<path fill-rule="evenodd" clip-rule="evenodd" d="M4 3C4 1.34315 5.34315 0 7 0C8.30622 0 9.41746 0.834808 9.82929 2H12C12.5523 2 13 2.44772 13 3V7H15C15.5523 7 16 7.44772 16 8V10H18.5707C18.9826 8.83481 20.0938 8 21.4 8C23.0569 8 24.4 9.34315 24.4 11C24.4 12.6569 23.0569 14 21.4 14C20.0938 14 18.9826 13.1652 18.5707 12H16V14C16 14.5523 15.5523 15 15 15H13L13 18H14.1707C14.5825 16.8348 15.6938 16 17 16C18.6569 16 20 17.3431 20 19C20 20.6569 18.6569 22 17 22C15.6938 22 14.5825 21.1652 14.1707 20H12C11.4477 20 11 19.5523 11 19L11 15H9C8.44771 15 8 14.5523 8 14V12H5.82929C5.41746 13.1652 4.30622 14 3 14C1.34315 14 0 12.6569 0 11C0 9.34315 1.34315 8 3 8C4.30622 8 5.41746 8.83481 5.82929 10H8V8C8 7.44772 8.44771 7 9 7H11V4H9.82929C9.41746 5.16519 8.30622 6 7 6C5.34315 6 4 4.65685 4 3Z" fill="black"/>
</svg>
