<svg width="27" height="23" viewBox="0 0 27 23" fill="none" xmlns="http://www.w3.org/2000/svg">
<path d="M10.522 8L0.514975 15.3489C0.00688976 15.722 -0.147822 16.4129 0.15261 16.9671C0.43141 17.4813 1.02716 17.7365 1.59177 17.5835L10.3426 15.2118V17.8446L8.16485 20.7023C7.80475 21.1748 7.80039 21.8285 8.15415 22.3057C8.46723 22.7282 8.99918 22.9273 9.51271 22.8145L13.022 22L16.5313 22.8145C17.0449 22.9273 17.5768 22.7282 17.8899 22.3057C18.2436 21.8285 18.2393 21.1748 17.8792 20.7023L15.7014 17.8446V15.2118L24.4523 17.5835C25.0169 17.7365 25.6126 17.4813 25.8914 16.9671C26.1919 16.4129 26.0371 15.722 25.5291 15.3489L15.522 8V2.50001C15.522 1.1193 14.4027 6.59341e-06 13.022 0C11.6413 6.59341e-06 10.522 1.1193 10.522 2.50001V8Z" fill="black"/>
</svg>
