<svg width="23" height="26" viewBox="0 0 23 26" fill="none" xmlns="http://www.w3.org/2000/svg">
<path d="M9.06824 21.6333L7.68209 23.4328C7.10576 24.181 7.79311 25.2381 8.71102 25.0152L11.0454 24.4483C11.2005 24.4106 11.3623 24.4106 11.5174 24.4483L13.841 25.0126C14.7602 25.2359 15.4462 24.1767 14.8668 23.4288L13.4818 21.6409C13.3445 21.4638 13.2707 21.2457 13.2722 21.0217L13.2962 17.339C13.3005 16.6835 13.9235 16.2098 14.5564 16.3807L20.7568 18.0557C21.8116 18.3407 22.4931 16.9698 21.6295 16.3002L13.7489 10.1897C13.502 9.99831 13.3587 9.70266 13.3614 9.39041L13.4128 3.35751C13.4395 0.230216 9.4535 0.193669 9.42684 3.32096L9.37502 9.39895C9.3724 9.70636 9.22853 9.99539 8.98489 10.1827L1.0513 16.2823C0.183507 16.9495 0.865608 18.3262 1.92251 18.0406L8.06232 16.3819C8.69641 16.2106 9.32058 16.687 9.31665 17.3439C9.30929 18.5733 9.28834 19.8026 9.27609 21.0319C9.27392 21.2496 9.2011 21.4608 9.06824 21.6333Z" fill="black"/>
</svg>
