<svg width="26" height="25" viewBox="0 0 26 25" fill="none" xmlns="http://www.w3.org/2000/svg">
<path fill-rule="evenodd" clip-rule="evenodd" d="M13.8099 0.59164C13.635 0.269189 13.2976 0.0683594 12.9308 0.0683594C12.564 0.0683594 12.2266 0.269189 12.0517 0.59164L0.120945 22.5916C-0.0471007 22.9015 -0.039587 23.277 0.140721 23.5799C0.32103 23.8828 0.647496 24.0684 1 24.0684H24.8616C25.2141 24.0684 25.5406 23.8828 25.7209 23.5799C25.9012 23.277 25.9087 22.9015 25.7407 22.5916L13.8099 0.59164ZM12.9295 7.62269C13.4818 7.62196 13.9301 8.06908 13.9308 8.62136L13.9404 15.8355C13.9412 16.3878 13.494 16.8361 12.9418 16.8368C12.3895 16.8376 11.9412 16.3904 11.9404 15.8382L11.9308 8.62402C11.9301 8.07174 12.3772 7.62343 12.9295 7.62269ZM13.6394 18.558C13.2489 18.1675 12.6157 18.1675 12.2252 18.558C11.8346 18.9486 11.8346 19.5817 12.2252 19.9722L12.2432 19.9903C12.6337 20.3808 13.2669 20.3808 13.6574 19.9903C14.0479 19.5998 14.0479 18.9666 13.6574 18.5761L13.6394 18.558Z" fill="black"/>
</svg>
