<svg width="26" height="26" viewBox="0 0 26 26" fill="none" xmlns="http://www.w3.org/2000/svg">
<path fill-rule="evenodd" clip-rule="evenodd" d="M17.8448 4.15587C18.1175 3.67559 18.7279 3.50729 19.2082 3.77997L18.7145 4.64959C19.2082 3.77997 19.208 3.77986 19.2082 3.77997L19.2099 3.78094L19.2121 3.7822L19.218 3.78557L19.2354 3.79573C19.2495 3.804 19.2685 3.81527 19.2919 3.82945C19.3386 3.85779 19.403 3.89791 19.4812 3.94911C19.6369 4.05114 19.85 4.19908 20.087 4.38737C20.5488 4.75436 21.1561 5.31754 21.5816 6.03727C22.0055 6.75407 22.2082 7.54839 22.3091 8.12431C22.3609 8.41939 22.3887 8.6742 22.4037 8.85755C22.4113 8.94954 22.4157 9.0244 22.4182 9.07834C22.4195 9.10534 22.4203 9.12717 22.4208 9.14336L22.4214 9.16339L22.4215 9.17014L22.4216 9.17268L22.4216 9.17374C22.4216 9.17396 22.4216 9.17466 21.4218 9.19238L22.4216 9.17374C22.4314 9.72594 21.9917 10.1824 21.4395 10.1922C20.8881 10.202 20.4331 9.76362 20.422 9.21259L20.4218 9.20703C20.4216 9.2006 20.4212 9.18897 20.4204 9.17256C20.4189 9.1397 20.4159 9.08801 20.4104 9.02101C20.3994 8.88638 20.3784 8.69347 20.3392 8.46955C20.2582 8.00748 20.1105 7.47871 19.8601 7.05518C19.6114 6.63458 19.2155 6.24944 18.8427 5.95319C18.6623 5.80987 18.5002 5.69746 18.3851 5.62205C18.3279 5.58452 18.283 5.55665 18.2542 5.53918C18.2398 5.53045 18.2295 5.52436 18.2238 5.52099L18.2187 5.51804C17.74 5.24479 17.5726 4.63546 17.8448 4.15587Z" fill="black"/>
<path fill-rule="evenodd" clip-rule="evenodd" d="M18.8452 0.506455C19.1179 0.026176 19.7283 -0.142121 20.2085 0.130552L19.7148 1.00017C20.2085 0.130552 20.2083 0.130437 20.2085 0.130552L20.2105 0.131657L20.2134 0.133311L20.222 0.13826L20.2502 0.154666C20.2737 0.168474 20.3066 0.18801 20.348 0.2131C20.4306 0.263253 20.5471 0.335749 20.6897 0.429183C20.9744 0.615693 21.3661 0.887589 21.8018 1.23377C22.661 1.91652 23.7459 2.9312 24.4925 4.19384C25.2468 5.46962 25.613 7.02987 25.7974 8.20708C25.8914 8.80729 25.9418 9.33315 25.9688 9.71029C25.9823 9.89924 25.99 10.0519 25.9944 10.159C25.9966 10.2126 25.9979 10.2549 25.9987 10.2848L25.9996 10.3201L25.9998 10.3305L25.9999 10.3339L25.9999 10.3351C25.9999 10.3353 25.9999 10.336 25 10.3512L25.9999 10.3351C26.0083 10.8873 25.5675 11.3427 25.0153 11.3511C24.4633 11.3595 24.009 10.919 24.0002 10.3672C24.0002 10.367 24.0002 10.3673 24.0002 10.3672L24.0001 10.3625L23.9995 10.3397C23.9989 10.3183 23.9979 10.2849 23.9961 10.2406C23.9924 10.1519 23.9858 10.0197 23.9739 9.85307C23.95 9.51898 23.905 9.05014 23.8215 8.51652C23.6507 7.42608 23.3328 6.16213 22.7709 5.21175C22.2012 4.24823 21.3277 3.4116 20.5575 2.79958C20.1785 2.49838 19.8378 2.26202 19.5937 2.10213C19.472 2.02236 19.375 1.96211 19.3103 1.92283C19.2779 1.9032 19.2537 1.88884 19.2385 1.87993L19.2226 1.87069L19.2211 1.8698C19.221 1.86973 19.2212 1.86986 19.2211 1.8698M18.8452 0.506455C18.5726 0.986621 18.7411 1.59703 19.2211 1.8698Z" fill="black"/>
<path fill-rule="evenodd" clip-rule="evenodd" d="M14.3011 2.6548C14.1081 2.32057 13.7401 2.12721 13.3554 2.15798C12.9707 2.18874 12.638 2.43814 12.5006 2.79878C11.2801 6.00241 8.28621 9.38777 4.28828 11.7668L2.82892 12.6013L2.82533 12.6033C1.02905 13.6404 0.413601 15.9373 1.45068 17.7336C2.2458 19.1108 3.78145 19.7938 5.26426 19.5702L8.1283 24.5309C8.40444 25.0092 9.01603 25.1731 9.49432 24.8969L12.7378 23.0243C13.2161 22.7482 13.3799 22.1366 13.1038 21.6583L10.4604 17.0797C13.7953 15.6888 17.1895 15.1935 19.9095 15.6313C20.2905 15.6927 20.6728 15.5293 20.8918 15.2115C21.1108 14.8937 21.1274 14.4783 20.9344 14.144L14.3011 2.6548ZM7.13867 18.8168L9.36035 22.6649L10.8717 21.7923L8.65007 17.9442L7.13867 18.8168Z" fill="black"/>
</svg>
