<svg width="24" height="25" viewBox="0 0 24 25" fill="none" xmlns="http://www.w3.org/2000/svg">
<path fill-rule="evenodd" clip-rule="evenodd" d="M11.1917 22.9509C17.458 23.6095 23.0719 19.0636 23.7305 12.7972C24.3892 6.53088 19.8433 0.917042 13.5769 0.258376C7.31054 -0.40029 1.69671 4.14564 1.03804 10.412C0.733495 13.3093 1.5416 16.0672 3.11796 18.2603C3.33128 18.557 3.38869 18.9422 3.24795 19.2795L1.64542 23.12C1.25937 24.0452 2.32326 24.8997 3.1434 24.3232L6.44977 21.9989C6.76013 21.7807 7.16561 21.7604 7.50862 21.9225C8.63923 22.4567 9.87762 22.8127 11.1917 22.9509ZM11.8374 5.81377C12.3897 5.81304 12.838 6.26015 12.8387 6.81244L12.8466 12.7653C12.8474 13.3176 12.4003 13.7659 11.848 13.7667C11.2957 13.7674 10.8474 13.3203 10.8466 12.768L10.8387 6.8151C10.838 6.26282 11.2851 5.81451 11.8374 5.81377ZM12.5465 14.8884C12.156 14.4979 11.5228 14.4979 11.1323 14.8884C10.7417 15.2789 10.7417 15.9121 11.1323 16.3026L11.1491 16.3194C11.5396 16.71 12.1728 16.71 12.5633 16.3194C12.9538 15.9289 12.9538 15.2958 12.5633 14.9052L12.5465 14.8884Z" fill="black"/>
</svg>
