<svg width="22" height="24" viewBox="0 0 22 24" fill="none" xmlns="http://www.w3.org/2000/svg">
<path fill-rule="evenodd" clip-rule="evenodd" d="M12.4295 0.705858C6.75682 0.109593 1.67483 4.22485 1.07856 9.89755C0.811193 12.4412 1.49232 14.8679 2.83493 16.8222L0.591351 22.199C0.376983 22.7128 0.528172 23.3064 0.96218 23.655C1.39619 24.0036 2.00841 24.0232 2.46382 23.703L7.14432 20.4127C8.11218 20.8439 9.16244 21.1321 10.2703 21.2485C15.9429 21.8448 21.0249 17.7295 21.6212 12.0568C22.2175 6.38412 18.1022 1.30212 12.4295 0.705858ZM11.5238 5.39009C12.2142 5.38917 12.7746 5.94807 12.7755 6.63843L12.7828 12.1172C12.7837 12.8076 12.2248 13.368 11.5344 13.3689C10.8441 13.3698 10.2837 12.8109 10.2828 12.1205L10.2755 6.64175C10.2746 5.9514 10.8335 5.39101 11.5238 5.39009ZM12.4098 14.1286C11.9217 13.6404 11.1302 13.6404 10.6421 14.1286C10.1539 14.6168 10.1539 15.4082 10.6421 15.8964L10.6591 15.9135C11.1473 16.4016 11.9388 16.4016 12.4269 15.9135C12.9151 15.4253 12.9151 14.6338 12.4269 14.1457L12.4098 14.1286Z" fill="black"/>
</svg>
