<svg width="27" height="27" viewBox="0 0 27 27" fill="none" xmlns="http://www.w3.org/2000/svg">
<path fill-rule="evenodd" clip-rule="evenodd" d="M11.6232 4.54927C11.6232 3.55071 12.4327 2.74121 13.4312 2.74121C14.4298 2.74121 15.2393 3.55071 15.2393 4.54927C15.2393 5.54783 14.4298 6.35733 13.4312 6.35733C12.8789 6.35733 12.4312 6.80504 12.4312 7.35733V9.21125C12.4312 9.76353 12.8789 10.2112 13.4312 10.2112C13.9835 10.2112 14.4312 9.76353 14.4312 9.21125V8.22467C16.0493 7.78548 17.2393 6.30635 17.2393 4.54927C17.2393 2.44614 15.5344 0.741211 13.4312 0.741211C11.3281 0.741211 9.62317 2.44614 9.62317 4.54927C9.62317 5.10155 10.0709 5.54927 10.6232 5.54927C11.1755 5.54927 11.6232 5.10155 11.6232 4.54927ZM14.4312 12.7121C14.4312 12.1598 13.9835 11.7121 13.4312 11.7121C12.8789 11.7121 12.4312 12.1598 12.4312 12.7121V12.7224C12.4312 13.2747 12.8789 13.7224 13.4312 13.7224C13.9835 13.7224 14.4312 13.2747 14.4312 12.7224V12.7121ZM0.12793 22.732C0.12793 20.9702 1.32168 19.4872 2.94443 19.0478V17.0531C2.94443 15.9485 3.83986 15.0531 4.94443 15.0531H22.027C23.1315 15.0531 24.027 15.9485 24.027 17.0531V19.0478C25.6497 19.4872 26.8435 20.9702 26.8435 22.732C26.8435 24.8398 25.1348 26.5485 23.027 26.5485C20.9192 26.5485 19.2105 24.8398 19.2105 22.732C19.2105 20.9702 20.4042 19.4872 22.027 19.0478V17.0531H4.94443V19.0478C6.56719 19.4872 7.76094 20.9702 7.76094 22.732C7.76094 24.8398 6.05223 26.5485 3.94443 26.5485C1.83664 26.5485 0.12793 24.8398 0.12793 22.732Z" fill="black"/>
</svg>
