<svg width="26" height="26" viewBox="0 0 26 26" fill="none" xmlns="http://www.w3.org/2000/svg">
<path fill-rule="evenodd" clip-rule="evenodd" d="M11.2739 3.77567C11.2739 2.79499 12.0689 2 13.0496 2C14.0303 2 14.8253 2.79499 14.8253 3.77567C14.8253 4.75635 14.0303 5.55134 13.0496 5.55134C12.4973 5.55134 12.0496 5.99906 12.0496 6.55134V8.38388C12.0496 8.93616 12.4973 9.38388 13.0496 9.38388C13.6019 9.38388 14.0496 8.93616 14.0496 8.38388V7.41749C15.6496 6.97917 16.8253 5.51472 16.8253 3.77567C16.8253 1.69042 15.1349 0 13.0496 0C10.9644 0 9.27395 1.69042 9.27395 3.77567C9.27395 4.32796 9.72166 4.77567 10.2739 4.77567C10.8262 4.77567 11.2739 4.32796 11.2739 3.77567ZM14.0496 11.8444C14.0496 11.2921 13.6019 10.8444 13.0496 10.8444C12.4973 10.8444 12.0496 11.2921 12.0496 11.8444V11.8545C12.0496 12.4068 12.4973 12.8545 13.0496 12.8545C13.6019 12.8545 14.0496 12.4068 14.0496 11.8545V11.8444ZM4.77571 16.2949V17.626C6.37563 18.0643 7.55134 19.5287 7.55134 21.2678C7.55134 23.353 5.86092 25.0435 3.77567 25.0435C1.69043 25.0435 0 23.353 0 21.2678C0 19.5287 1.17575 18.0643 2.77571 17.6259V15.2949C2.77571 15.0297 2.88107 14.7754 3.06861 14.5878C3.25614 14.4003 3.5105 14.2949 3.77571 14.2949H21.8386C22.3909 14.2949 22.8386 14.7426 22.8386 15.2949V17.5419C24.6317 17.8353 26 19.3918 26 21.2679C26 23.3531 24.3096 25.0436 22.2243 25.0436C20.1391 25.0436 18.4487 23.3531 18.4487 21.2679C18.4487 19.6719 19.4389 18.3071 20.8386 17.7546V16.2949L4.77571 16.2949Z" fill="black"/>
</svg>
