<svg width="26" height="26" viewBox="0 0 26 26" fill="none" xmlns="http://www.w3.org/2000/svg">
<path fill-rule="evenodd" clip-rule="evenodd" d="M11.2143 3.73285C11.2143 2.77582 11.9901 2 12.9471 2C13.9041 2 14.68 2.77582 14.68 3.73285C14.68 4.68988 13.9041 5.4657 12.9471 5.4657C12.3948 5.4657 11.9471 5.91341 11.9471 6.4657V8.26996C11.9471 8.82225 12.3948 9.26996 12.9471 9.26996C13.4994 9.26996 13.9471 8.82225 13.9471 8.26996V7.33024C15.5231 6.89309 16.68 5.44807 16.68 3.73285C16.68 1.67125 15.0087 0 12.9471 0C10.8855 0 9.21425 1.67125 9.21425 3.73285C9.21425 4.28513 9.66197 4.73285 10.2143 4.73285C10.7665 4.73285 11.2143 4.28513 11.2143 3.73285ZM13.9471 11.6771C13.9471 11.1248 13.4994 10.6771 12.9471 10.6771C12.3948 10.6771 11.9471 11.1248 11.9471 11.6771V11.6871C11.9471 12.2394 12.3948 12.6871 12.9471 12.6871C13.4994 12.6871 13.9471 12.2394 13.9471 11.6871V11.6771ZM4.71419 15.9286V17.8504C6.27987 18.287 7.42857 19.7236 7.42857 21.4286C7.42857 23.4799 5.76563 25.1428 3.71429 25.1428C1.66294 25.1428 0 23.4799 0 21.4286C0 19.7237 1.14861 18.2871 2.71419 17.8505L2.71419 14.9286C2.71419 14.6634 2.81955 14.409 3.00708 14.2215C3.19462 14.0339 3.44897 13.9286 3.71419 13.9286H22.2856C22.8379 13.9286 23.2856 14.3763 23.2856 14.9286V17.8504C24.8513 18.287 26 19.7236 26 21.4286C26 23.4799 24.3371 25.1428 22.2857 25.1428C20.2344 25.1428 18.5714 23.4799 18.5714 21.4286C18.5714 19.7237 19.72 18.2871 21.2856 17.8505V15.9286H4.71419Z" fill="black"/>
</svg>
