<svg width="26" height="25" viewBox="0 0 26 25" fill="none" xmlns="http://www.w3.org/2000/svg">
<path fill-rule="evenodd" clip-rule="evenodd" d="M13.4767 7.76457C13.4767 4.89478 15.8031 2.56836 18.6729 2.56836C21.5427 2.56836 23.8691 4.89478 23.8691 7.76457C23.8691 10.6344 21.5427 12.9608 18.6729 12.9608C15.8031 12.9608 13.4767 10.6344 13.4767 7.76457ZM20.2912 14.7781V19.9624C20.2912 20.5147 19.8435 20.9624 19.2912 20.9624H10.7378L5.74312 24.7669C5.44074 24.9973 5.03391 25.0363 4.6933 24.8675C4.35268 24.6988 4.13717 24.3516 4.13717 23.9714V20.9624H1C0.447715 20.9624 0 20.5147 0 19.9624V7.30664C0 6.75436 0.447715 6.30664 1 6.30664H11.6245C12.2984 3.03126 15.198 0.568359 18.6729 0.568359C22.6472 0.568359 25.8691 3.79021 25.8691 7.76457C25.8691 11.1825 23.4863 14.0438 20.2912 14.7781ZM21.7334 5.88838C22.1089 6.29333 22.0851 6.92605 21.6801 7.30159L18.4452 10.3016C18.0728 10.647 17.5006 10.6583 17.1148 10.3279L15.3497 8.81631C14.9302 8.45708 14.8814 7.8258 15.2406 7.40631C15.5998 6.98683 16.2311 6.93799 16.6506 7.29723L17.7387 8.2291L20.3202 5.83513C20.7251 5.45959 21.3578 5.48343 21.7334 5.88838ZM6.70711 13.2929C6.31658 12.9024 5.68342 12.9024 5.29289 13.2929C4.90237 13.6834 4.90237 14.3166 5.29289 14.7071L5.31103 14.7252C5.70156 15.1158 6.33472 15.1158 6.72525 14.7252C7.11577 14.3347 7.11577 13.7016 6.72525 13.311L6.70711 13.2929ZM10.7071 13.2929C10.3166 12.9024 9.68342 12.9024 9.29289 13.2929C8.90237 13.6834 8.90237 14.3166 9.29289 14.7071L9.31103 14.7252C9.70156 15.1158 10.3347 15.1158 10.7252 14.7252C11.1158 14.3347 11.1158 13.7016 10.7252 13.311L10.7071 13.2929ZM13.3291 13.2929C13.7197 12.9024 14.3528 12.9024 14.7434 13.2929L14.7615 13.311C15.152 13.7016 15.152 14.3347 14.7615 14.7252C14.371 15.1158 13.7378 15.1158 13.3473 14.7252L13.3291 14.7071C12.9386 14.3166 12.9386 13.6834 13.3291 13.2929Z" fill="black"/>
</svg>
