<svg width="26" height="24" viewBox="0 0 26 24" fill="none" xmlns="http://www.w3.org/2000/svg">
<path fill-rule="evenodd" clip-rule="evenodd" d="M18.4775 2.97069C15.7935 2.97069 13.6178 5.14644 13.6178 7.83037C13.6178 10.5143 15.7935 12.69 18.4775 12.69C21.1614 12.69 23.3371 10.5143 23.3371 7.83037C23.3371 5.14644 21.1614 2.97069 18.4775 2.97069ZM11.7106 6.69913C12.2499 3.44891 15.0743 0.970688 18.4775 0.970688C22.266 0.970688 25.3371 4.04187 25.3371 7.83037C25.3371 11.2118 22.8904 14.0219 19.6707 14.5866C19.711 14.6955 19.7326 14.8125 19.7326 14.933V19.2649C19.7326 19.8172 19.2849 20.2649 18.7326 20.2649H10.8863C10.6614 20.2649 10.4431 20.3407 10.2666 20.48L6.71653 23.2832C6.06077 23.801 5.09682 23.3339 5.09682 22.4984V21.2649C5.09682 20.7126 4.64911 20.2649 4.09682 20.2649H1.81885C1.26656 20.2649 0.818848 19.8172 0.818848 19.2649V7.69913C0.818848 7.14684 1.26656 6.69913 1.81885 6.69913H11.7106ZM13.4901 12.5401C13.0658 12.7721 12.778 13.2226 12.778 13.7402C12.778 14.4951 13.3901 15.1071 14.1451 15.1071C14.8094 15.1071 15.363 14.6334 15.4865 14.0054C14.7339 13.6402 14.0582 13.1415 13.4901 12.5401ZM21.4115 6.01915C21.7871 6.4241 21.7632 7.05681 21.3583 7.43236L18.299 10.2694C17.9266 10.6148 17.3544 10.6261 16.9686 10.2957L15.2994 8.86624C14.8799 8.507 14.8311 7.87572 15.1903 7.45624C15.5496 7.03676 16.1808 6.98792 16.6003 7.34716L17.5926 8.19692L19.9983 5.9659C20.4033 5.59036 21.036 5.6142 21.4115 6.01915ZM7.33577 13.7402C7.33577 14.4951 6.72371 15.1071 5.96869 15.1071C5.21367 15.1071 4.6016 14.4951 4.6016 13.7402C4.6016 12.9853 5.21367 12.3733 5.96869 12.3733C6.72371 12.3733 7.33577 12.9853 7.33577 13.7402ZM10.0382 15.1071C10.7932 15.1071 11.4053 14.4951 11.4053 13.7402C11.4053 12.9853 10.7932 12.3733 10.0382 12.3733C9.28317 12.3733 8.67111 12.9853 8.67111 13.7402C8.67111 14.4951 9.28317 15.1071 10.0382 15.1071Z" fill="black"/>
</svg>
