<svg width="26" height="26" viewBox="0 0 26 26" fill="none" xmlns="http://www.w3.org/2000/svg">
<path fill-rule="evenodd" clip-rule="evenodd" d="M22.2282 18.4399C24.3113 18.4399 26 20.1286 26 22.2118C26 24.2949 24.3113 25.9836 22.2282 25.9836C20.1451 25.9836 18.4564 24.2949 18.4564 22.2118C18.4564 21.3414 18.7512 20.5399 19.2463 19.9017L17.226 16.9604C15.9661 17.6308 14.5281 18.0108 13.0013 18.0108C11.4801 18.0108 10.047 17.6336 8.79035 16.9676L6.74432 19.8897C7.24514 20.5298 7.54364 21.3359 7.54364 22.2118C7.54364 24.2949 5.85494 25.9836 3.77182 25.9836C1.68871 25.9836 1.03821e-05 24.2949 1.04732e-05 22.2118C1.05642e-05 20.1286 1.68871 18.4399 3.77182 18.4399C4.25405 18.4399 4.71513 18.5304 5.13903 18.6954L7.13793 15.8406C5.21439 14.1891 3.99593 11.7395 3.99593 9.00539C3.99593 4.03185 8.02778 -7.85591e-07 13.0013 -5.6819e-07C17.9749 -3.5079e-07 22.0067 4.03185 22.0067 9.0054C22.0067 11.734 20.7932 14.1792 18.8764 15.8306L20.8477 18.7006C21.2752 18.5323 21.7409 18.4399 22.2282 18.4399ZM15.8765 6.37703C16.267 6.76755 16.267 7.40072 15.8765 7.79124L14.5858 9.08197L15.8764 10.3726C16.2669 10.7632 16.2669 11.3963 15.8764 11.7869C15.4859 12.1774 14.8527 12.1774 14.4622 11.7869L13.1715 10.4962L11.8807 11.787C11.4902 12.1775 10.857 12.1775 10.4665 11.787C10.076 11.3965 10.076 10.7633 10.4665 10.3728L11.7573 9.08197L10.4664 7.79109C10.0759 7.40057 10.0759 6.7674 10.4664 6.37688C10.857 5.98635 11.4901 5.98635 11.8807 6.37688L13.1715 7.66776L14.4623 6.37703C14.8528 5.9865 15.486 5.9865 15.8765 6.37703Z" fill="black"/>
</svg>
