<svg width="28" height="27" viewBox="0 0 28 27" fill="none" xmlns="http://www.w3.org/2000/svg">
<path fill-rule="evenodd" clip-rule="evenodd" d="M13.9849 0.491211C6.72615 0.491211 0.841797 6.37556 0.841797 13.6343C0.841797 15.8224 1.3765 17.8856 2.32236 19.7004C2.48735 20.0169 2.81993 20.2058 3.1769 20.2058H5.67603C6.22831 20.2058 6.67603 20.6535 6.67603 21.2058V25.7773C6.67603 26.3296 7.12374 26.7773 7.67603 26.7773H20.2794C20.8317 26.7773 21.2794 26.3296 21.2794 25.7773V21.2058C21.2794 20.6535 21.7272 20.2058 22.2794 20.2058H24.7928C25.1498 20.2058 25.4824 20.0169 25.6474 19.7004C26.5932 17.8856 27.1279 15.8224 27.1279 13.6343C27.1279 6.37556 21.2436 0.491211 13.9849 0.491211ZM19.3881 15.7458C20.0796 15.7458 20.7555 15.5408 21.3305 15.1566C21.9054 14.7725 22.3535 14.2265 22.6181 13.5876C22.8827 12.9488 22.9519 12.2459 22.817 11.5677C22.6821 10.8896 22.3492 10.2666 21.8602 9.77768C21.3713 9.28875 20.7484 8.95579 20.0702 8.82089C19.392 8.686 18.6891 8.75523 18.0503 9.01984C17.4115 9.28444 16.8654 9.73254 16.4813 10.3075C16.0971 10.8824 15.8921 11.5583 15.8921 12.2498C15.8921 13.177 16.2604 14.0662 16.9161 14.7218C17.5717 15.3775 18.4609 15.7458 19.3881 15.7458ZM11.1085 15.1567C10.5336 15.5409 9.85766 15.7459 9.16621 15.7459C8.239 15.7459 7.34978 15.3776 6.69414 14.722C6.03851 14.0663 5.67017 13.1771 5.67017 12.2499C5.67017 11.5584 5.8752 10.8825 6.25935 10.3076C6.6435 9.73266 7.18951 9.28457 7.82833 9.01996C8.46715 8.75535 9.1701 8.68612 9.84826 8.82101C10.5264 8.95591 11.1494 9.28888 11.6383 9.77781C12.1272 10.2667 12.4602 10.8897 12.5951 11.5678C12.73 12.246 12.6608 12.9489 12.3961 13.5878C12.1315 14.2266 11.6834 14.7726 11.1085 15.1567Z" fill="black"/>
</svg>
