<svg width="19" height="26" viewBox="0 0 19 26" fill="none" xmlns="http://www.w3.org/2000/svg">
<path fill-rule="evenodd" clip-rule="evenodd" d="M7.29248 9.66378L5.98113 5.95383C5.48022 4.53666 5.77504 2.95984 6.75416 1.8194C8.42968 -0.132182 11.4502 -0.132182 13.1257 1.8194C14.1048 2.95984 14.3996 4.53666 13.8987 5.95383L12.5876 9.66322C12.2418 10.6415 12.6267 11.7284 13.5111 12.271L18.0587 15.061H1.8268L6.36961 12.2713C7.2536 11.7285 7.63819 10.6418 7.29248 9.66378ZM0.984375 17.061V20.5501H17.9027C18.455 20.5501 18.9027 20.1024 18.9027 19.5501V17.058C18.877 17.06 18.851 17.061 18.8248 17.061H0.984375ZM2.24365 24.4703C2.24365 23.918 2.69137 23.4703 3.24365 23.4703H17.1107C17.663 23.4703 18.1107 23.918 18.1107 24.4703C18.1107 25.0226 17.663 25.4703 17.1107 25.4703H3.24365C2.69137 25.4703 2.24365 25.0226 2.24365 24.4703Z" fill="black"/>
</svg>
