<svg width="26" height="27" viewBox="0 0 26 27" fill="none" xmlns="http://www.w3.org/2000/svg">
<path fill-rule="evenodd" clip-rule="evenodd" d="M12.001 26.0063C11.9989 25.9798 11.9978 25.953 11.9978 25.9259V10.3252L9.73787 12.5878C9.34758 12.9786 8.71442 12.979 8.32366 12.5887C7.9329 12.1984 7.93251 11.5652 8.3228 11.1745L12.2903 7.20221C12.4778 7.01448 12.7322 6.90896 12.9975 6.90889C13.2628 6.90881 13.5173 7.01417 13.7049 7.20179L17.6758 11.1728C18.0663 11.5633 18.0663 12.1965 17.6758 12.587C17.2853 12.9775 16.6521 12.9775 16.2616 12.587L13.9978 10.3231V25.9259C13.9978 25.9531 13.9967 25.98 13.9946 26.0067C20.7096 25.4978 26 19.8788 26 13.0221C26 5.83019 20.1797 0 13 0C5.8203 0 0 5.83019 0 13.0221C0 19.8773 5.28807 25.4953 12.001 26.0063Z" fill="black"/>
</svg>
