<svg width="26" height="23" viewBox="0 0 26 23" fill="none" xmlns="http://www.w3.org/2000/svg">
<path fill-rule="evenodd" clip-rule="evenodd" d="M0 1C0 0.447715 0.447715 0 1 0H25C25.5523 0 26 0.447715 26 1V21.219C26 21.7713 25.5523 22.219 25 22.219H1C0.447715 22.219 0 21.7713 0 21.219V1ZM14.0116 6.6499C14.0116 6.09762 13.5639 5.6499 13.0116 5.6499C12.4593 5.6499 12.0116 6.09762 12.0116 6.6499V6.89248C11.4865 6.98646 10.9982 7.23956 10.6163 7.62343C10.1261 8.11523 9.85139 8.78122 9.85001 9.47417V9.496C9.85001 10.192 10.1273 10.8584 10.6168 11.3492C11.1072 11.841 11.7725 12.1178 12.4654 12.1206H13.5519C13.6392 12.1206 13.721 12.1371 13.7945 12.1672C13.8697 12.1981 13.9385 12.244 13.9954 12.3009L13.9974 12.3029C14.0547 12.3598 14.1006 12.4281 14.1322 12.5044C14.1637 12.5803 14.18 12.6621 14.18 12.7444C14.18 12.8285 14.1638 12.9114 14.1326 12.9883C14.1011 13.064 14.0551 13.133 13.996 13.1924C13.9401 13.2486 13.8714 13.295 13.7936 13.3272C13.7202 13.3577 13.6399 13.3736 13.5577 13.3733H11.187C10.6347 13.3733 10.187 13.821 10.187 14.3733C10.187 14.9256 10.6347 15.3733 11.187 15.3733H12.0116V15.5924C12.0116 16.1447 12.4593 16.5924 13.0116 16.5924C13.5639 16.5924 14.0116 16.1447 14.0116 15.5924V15.3341C14.1989 15.3013 14.3828 15.2481 14.56 15.1746C14.877 15.0431 15.1685 14.8498 15.4142 14.6026C15.6564 14.3591 15.8497 14.0702 15.9819 13.7501L15.9833 13.7467C16.1137 13.4276 16.18 13.0871 16.18 12.7444C16.18 12.3991 16.1118 12.0569 15.9796 11.738C15.8478 11.4205 15.6548 11.131 15.4096 10.8867C15.1649 10.6419 14.8734 10.4482 14.5539 10.317C14.2327 10.1852 13.8922 10.1206 13.5519 10.1206H12.4719C12.307 10.1195 12.149 10.0533 12.033 9.93703C11.9157 9.81939 11.85 9.66013 11.85 9.496V9.4774C11.8505 9.31073 11.9169 9.15158 12.033 9.03514L12.034 9.03414C12.1499 8.91758 12.3071 8.85209 12.4707 8.85156H14.6525C15.2048 8.85156 15.6525 8.40385 15.6525 7.85156C15.6525 7.29928 15.2048 6.85156 14.6525 6.85156H14.0116V6.6499Z" fill="black"/>
</svg>
