<svg width="26" height="19" viewBox="0 0 26 19" fill="none" xmlns="http://www.w3.org/2000/svg">
<path fill-rule="evenodd" clip-rule="evenodd" d="M1 0H25C25.5523 0 26 0.447715 26 1V18C26 18.5523 25.5523 19 25 19H1C0.447716 19 0 18.5523 0 18V1C0 0.447715 0.447715 0 1 0ZM14.0877 6.25C14.0877 5.69772 13.64 5.25 13.0877 5.25C12.5354 5.25 12.0877 5.69772 12.0877 6.25V6.36817C11.9608 6.39699 11.8362 6.43636 11.7152 6.48602C11.4268 6.60444 11.1649 6.77892 10.9444 6.99914C10.724 7.21933 10.5494 7.48091 10.4303 7.76865C10.3112 8.05636 10.25 8.36473 10.25 8.67604H10.25L10.25 8.68287C10.2543 9.30822 10.5043 9.90767 10.9472 10.3501C11.3903 10.7927 11.9907 11.0422 12.6177 11.0422H12.6177H13.5608H13.5609C13.656 11.0422 13.7485 11.08 13.8178 11.1492C13.8874 11.2187 13.9278 11.3142 13.9285 11.4152C13.9286 11.4268 13.9288 11.4383 13.9293 11.4499C13.9315 11.5023 13.9229 11.5544 13.9043 11.603C13.8856 11.6515 13.8574 11.6953 13.8217 11.7318C13.7859 11.7682 13.7435 11.7965 13.6971 11.8152C13.6508 11.8339 13.6013 11.8428 13.5517 11.8413C13.5422 11.8411 13.5327 11.8409 13.5231 11.8409H11.5424C10.9901 11.8409 10.5424 12.2886 10.5424 12.8409C10.5424 13.3932 10.9901 13.8409 11.5424 13.8409H12.0877V13.9162C12.0877 14.4684 12.5354 14.9162 13.0877 14.9162C13.64 14.9162 14.0877 14.4684 14.0877 13.9162V13.7822C14.2097 13.7543 14.3295 13.7167 14.4461 13.6697C14.7481 13.5477 15.0215 13.3647 15.2494 13.1323C15.4773 12.9 15.6549 12.6233 15.7715 12.3197C15.8859 12.0214 15.9392 11.7032 15.9283 11.3841C15.9195 10.7651 15.6701 10.1726 15.2313 9.73426C14.7882 9.29163 14.1878 9.04217 13.5608 9.04218H13.5608H12.6177H12.6176C12.5224 9.04218 12.43 9.00438 12.3606 8.93514C12.2919 8.86649 12.2516 8.77237 12.25 8.67259C12.2505 8.62465 12.2601 8.57735 12.2783 8.53336C12.2969 8.48835 12.3241 8.44787 12.3579 8.4141C12.3917 8.38034 12.4315 8.35396 12.4748 8.33619C12.5181 8.31841 12.5642 8.3095 12.6107 8.30982V8.30985H12.6177H14.4474C14.9997 8.30985 15.4474 7.86213 15.4474 7.30985C15.4474 6.75756 14.9997 6.30985 14.4474 6.30985H14.0877V6.25Z" fill="black"/>
</svg>
