<svg width="26" height="26" viewBox="0 0 26 26" fill="none" xmlns="http://www.w3.org/2000/svg">
<path fill-rule="evenodd" clip-rule="evenodd" d="M12.2139 0.290575C12.402 0.477497 12.5082 0.731507 12.5091 0.996725L12.5272 6.54622C12.5291 7.0985 12.0828 7.54768 11.5305 7.54949C10.9782 7.5513 10.5291 7.10505 10.5273 6.55277L10.5173 3.51604L1.70711 12.3262C1.31658 12.7168 0.683416 12.7168 0.292892 12.3262C-0.0976314 11.9357 -0.0976307 11.3025 0.292894 10.912L9.19731 2.00762L5.97827 2.01822C5.42599 2.02004 4.9768 1.5738 4.97498 1.02152C4.97316 0.469237 5.4194 0.0200496 5.97168 0.0182308L11.5058 5.42985e-06C11.771 -0.000867957 12.0257 0.103653 12.2139 0.290575ZM23.9901 3.5315L24 6.55277C24.0018 7.10505 24.451 7.5513 25.0033 7.54949C25.5556 7.54768 26.0018 7.0985 26 6.54622L25.9818 0.996725C25.981 0.731507 25.8748 0.477497 25.6866 0.290575C25.4985 0.103653 25.2438 -0.000867957 24.9786 5.42985e-06L19.4445 0.0182308C18.8922 0.0200496 18.4459 0.469237 18.4478 1.02152C18.4496 1.5738 18.8988 2.02004 19.451 2.01822L22.6856 2.00757L0.400132 24.2931C0.00960767 24.6836 0.00960767 25.3168 0.400132 25.7073C0.790656 26.0978 1.42382 26.0978 1.81435 25.7073L23.9901 3.5315ZM22.6701 15.3885L19.451 15.3991C18.8988 15.4009 18.4496 14.9547 18.4478 14.4024C18.4459 13.8501 18.8922 13.4009 19.4445 13.3991L24.9786 13.3809C25.2438 13.38 25.4985 13.4845 25.6866 13.6714C25.8748 13.8584 25.981 14.1124 25.9818 14.3776L26 19.9271C26.0018 20.4794 25.5556 20.9285 25.0033 20.9303C24.451 20.9322 24.0018 20.4859 24 19.9336L23.9901 16.8969L15.1799 25.7071C14.7894 26.0976 14.1562 26.0976 13.7657 25.7071C13.3751 25.3166 13.3751 24.6834 13.7657 24.2929L22.6701 15.3885Z" fill="black"/>
</svg>
