<svg width="20" height="26" viewBox="0 0 20 26" fill="none" xmlns="http://www.w3.org/2000/svg">
<path fill-rule="evenodd" clip-rule="evenodd" d="M9.50532 0C4.25567 0 0 4.25567 0 9.50532C0 14.4172 3.72574 18.459 8.50537 18.9587V25C8.50537 25.5523 8.95309 26 9.50537 26C10.0577 26 10.5054 25.5523 10.5054 25V18.9587C15.285 18.4589 19.0106 14.4172 19.0106 9.50532C19.0106 4.25567 14.755 0 9.50532 0ZM13.5208 5.88008C13.957 6.21877 14.0361 6.84698 13.6974 7.28322L9.29516 12.9534C9.10991 13.192 8.82674 13.3341 8.52473 13.34C8.22272 13.3459 7.93423 13.2149 7.73985 12.9837L5.33784 10.1267C4.98243 9.70396 5.03701 9.07315 5.45974 8.71774C5.88247 8.36233 6.51328 8.41691 6.86869 8.83964L8.47431 10.7494L12.1176 6.05672C12.4563 5.62047 13.0845 5.54139 13.5208 5.88008Z" fill="black"/>
</svg>
