<svg width="21" height="26" viewBox="0 0 21 26" fill="none" xmlns="http://www.w3.org/2000/svg">
<path fill-rule="evenodd" clip-rule="evenodd" d="M9.83101 0C4.40091 0 0 4.40201 0 9.83101C0 15.2601 4.40194 19.662 9.83101 19.662C10.2447 19.662 10.6525 19.6365 11.0527 19.5869L14.4657 25.5C14.5983 25.7297 14.8167 25.8974 15.0729 25.966C15.3291 26.0347 15.6021 25.9988 15.8318 25.8661L19.8734 23.5324C20.3516 23.2563 20.5155 22.6449 20.2395 22.1666L17.0024 16.5556C18.6519 14.7972 19.662 12.432 19.662 9.83101C19.662 4.40201 15.2611 0 9.83101 0ZM15.6979 23.634L13.0868 19.1101C13.9387 18.8112 14.7369 18.3984 15.4632 17.8898L18.0076 22.3002L15.6979 23.634ZM6.87037 5.93066C6.31808 5.93066 5.87037 6.37838 5.87037 6.93066V12.73C5.87037 13.2823 6.31808 13.73 6.87037 13.73H12.6735C13.2258 13.73 13.6735 13.2823 13.6735 12.73V6.93066C13.6735 6.37838 13.2258 5.93066 12.6735 5.93066H6.87037ZM7.87037 11.73V7.93066H11.6735V11.73H7.87037Z" fill="black"/>
</svg>
