<svg width="21" height="27" viewBox="0 0 21 27" fill="none" xmlns="http://www.w3.org/2000/svg">
<path fill-rule="evenodd" clip-rule="evenodd" d="M17.6205 16.9133C19.2481 15.1173 20.2396 12.7343 20.2396 10.1198C20.2396 4.5313 15.7094 0 10.1198 0C4.5302 0 0 4.5313 0 10.1198C0 15.7083 4.5313 20.2396 10.1198 20.2396C10.673 20.2396 11.2157 20.1952 11.7448 20.1098L14.9364 25.6396C15.4887 26.5964 16.7121 26.9242 17.6687 26.3718L19.9945 25.0288C20.9508 24.4767 21.2786 23.2539 20.7267 22.2974L17.6205 16.9133ZM6.14918 7.35326C6.14918 6.80097 6.5969 6.35326 7.14918 6.35326H12.9753C13.5276 6.35326 13.9753 6.80097 13.9753 7.35326V13.1755C13.9753 13.7278 13.5276 14.1755 12.9753 14.1755H7.14918C6.5969 14.1755 6.14918 13.7278 6.14918 13.1755V7.35326ZM8.14918 8.35326V12.1755H11.9753V8.35326H8.14918ZM16.6686 24.6398L14.0413 20.0878C14.8998 19.7856 15.702 19.3675 16.4314 18.8543L18.9944 23.2969L16.6686 24.6398Z" fill="black"/>
</svg>
