<svg width="27" height="21" viewBox="0 0 27 21" fill="none" xmlns="http://www.w3.org/2000/svg">
<path fill-rule="evenodd" clip-rule="evenodd" d="M22.5817 0.491211H4.11928C3.56699 0.491211 3.11928 0.938926 3.11928 1.49121V9.22123H1.37793C0.825645 9.22123 0.37793 9.66895 0.37793 10.2212C0.37793 10.7735 0.825645 11.2212 1.37793 11.2212H3.11928V19.0236C3.11928 19.5758 3.56699 20.0236 4.11928 20.0236H22.5817C23.134 20.0236 23.5817 19.5758 23.5817 19.0236V11.2212H25.056C25.6083 11.2212 26.056 10.7735 26.056 10.2212C26.056 9.66895 25.6083 9.22123 25.056 9.22123H23.5817V1.49121C23.5817 0.938926 23.134 0.491211 22.5817 0.491211ZM11.1192 15.3369C10.5669 15.3369 10.1192 14.8892 10.1192 14.3369V13.2678H9.04991C8.49763 13.2678 8.04991 12.8201 8.04991 12.2678C8.04991 11.7156 8.49763 11.2678 9.04991 11.2678H10.1192V9.03486H9.04991C8.49763 9.03486 8.04991 8.58714 8.04991 8.03486C8.04991 7.48257 8.49763 7.03486 9.04991 7.03486H10.1192V5.9658C10.1192 5.41351 10.5669 4.9658 11.1192 4.9658C11.6715 4.9658 12.1192 5.41351 12.1192 5.9658V7.03486L14.3525 7.03486V5.9658C14.3525 5.41351 14.8002 4.9658 15.3525 4.9658C15.9047 4.9658 16.3525 5.41351 16.3525 5.9658V7.03486H17.421C17.9733 7.03486 18.421 7.48257 18.421 8.03486C18.421 8.58714 17.9733 9.03486 17.421 9.03486H16.3525V11.2678H17.421C17.9733 11.2678 18.421 11.7156 18.421 12.2678C18.421 12.8201 17.9733 13.2678 17.421 13.2678H16.3525V14.3369C16.3525 14.8892 15.9047 15.3369 15.3525 15.3369C14.8002 15.3369 14.3525 14.8892 14.3525 14.3369V13.2678H12.1192V14.3369C12.1192 14.8892 11.6715 15.3369 11.1192 15.3369ZM14.3525 9.03486V11.2678H12.1192V9.03486H14.3525Z" fill="black"/>
</svg>
