<svg width="26" height="26" viewBox="0 0 26 26" fill="none" xmlns="http://www.w3.org/2000/svg">
<path fill-rule="evenodd" clip-rule="evenodd" d="M0 1C0 0.447715 0.447715 0 1 0H10.2309C10.7832 0 11.2309 0.447715 11.2309 1V4.70215H14.7692V1C14.7692 0.447715 15.2169 0 15.7692 0H25.0001C25.5523 0 26.0001 0.447715 26.0001 1V10.2309C26.0001 10.7832 25.5523 11.2309 25.0001 11.2309H16.1834L11.2308 16.1836V19.5342H14.7692V15.769C14.7692 15.2168 15.2169 14.769 15.7692 14.769H25C25.5523 14.769 26 15.2168 26 15.769V24.9999C26 25.5521 25.5523 25.9999 25 25.9999H15.7692C15.2169 25.9999 14.7692 25.5521 14.7692 24.9999V21.5342H11.2308V24.9998C11.2308 25.5521 10.7831 25.9998 10.2308 25.9998H1C0.447715 25.9998 0 25.5521 0 24.9998V15.769C0 15.2168 0.447715 14.769 1 14.769H9.81687L14.7692 9.81675V6.70215H11.2309V10.2309C11.2309 10.7832 10.7832 11.2309 10.2309 11.2309H1C0.447715 11.2309 0 10.7832 0 10.2309V1Z" fill="black"/>
</svg>
