<svg width="22" height="26" viewBox="0 0 22 26" fill="none" xmlns="http://www.w3.org/2000/svg">
<path fill-rule="evenodd" clip-rule="evenodd" d="M0 1C0 0.447715 0.447715 0 1 0H21C21.5523 0 22 0.447715 22 1V25C22 25.5523 21.5523 26 21 26H1C0.447715 26 0 25.5523 0 25V1ZM16.4584 8.33936C17.0107 8.33936 17.4584 7.89164 17.4584 7.33936C17.4584 6.78707 17.0107 6.33936 16.4584 6.33936H8.92063C8.36834 6.33936 7.92063 6.78707 7.92063 7.33936C7.92063 7.89164 8.36834 8.33936 8.92063 8.33936H16.4584ZM5.43256 8.33936C5.98484 8.33936 6.43256 7.89164 6.43256 7.33936C6.43256 6.78707 5.98484 6.33936 5.43256 6.33936H5.42177C4.86948 6.33936 4.42177 6.78707 4.42177 7.33936C4.42177 7.89164 4.86948 8.33936 5.42177 8.33936H5.43256ZM16.4584 13.75C17.0107 13.75 17.4584 13.3023 17.4584 12.75C17.4584 12.1977 17.0107 11.75 16.4584 11.75H8.92063C8.36834 11.75 7.92063 12.1977 7.92063 12.75C7.92063 13.3023 8.36834 13.75 8.92063 13.75H16.4584ZM5.43256 13.75C5.98484 13.75 6.43256 13.3023 6.43256 12.75C6.43256 12.1977 5.98484 11.75 5.43256 11.75H5.42177C4.86948 11.75 4.42177 12.1977 4.42177 12.75C4.42177 13.3023 4.86948 13.75 5.42177 13.75H5.43256ZM17.4584 18.3394C17.4584 18.8916 17.0107 19.3394 16.4584 19.3394H8.92063C8.36834 19.3394 7.92063 18.8916 7.92063 18.3394C7.92063 17.7871 8.36834 17.3394 8.92063 17.3394H16.4584C17.0107 17.3394 17.4584 17.7871 17.4584 18.3394ZM6.43256 18.3394C6.43256 18.8916 5.98484 19.3394 5.43256 19.3394H5.42177C4.86948 19.3394 4.42177 18.8916 4.42177 18.3394C4.42177 17.7871 4.86948 17.3394 5.42177 17.3394H5.43256C5.98484 17.3394 6.43256 17.7871 6.43256 18.3394Z" fill="black"/>
</svg>
