<svg width="22" height="28" viewBox="0 0 22 28" fill="none" xmlns="http://www.w3.org/2000/svg">
<path fill-rule="evenodd" clip-rule="evenodd" d="M10.831 0.75C5.26282 0.75 0.75 5.26396 0.75 10.831C0.75 16.3981 5.26387 20.912 10.831 20.912C11.1984 20.912 11.5612 20.8924 11.9184 20.8541L15.2492 26.6249C15.4149 26.912 15.6879 27.1216 16.0082 27.2074C16.3285 27.2932 16.6697 27.2483 16.9568 27.0825L20.9984 24.7487C21.5961 24.4036 21.801 23.6394 21.4561 23.0416L18.3108 17.5898C19.9275 15.8017 20.912 13.4312 20.912 10.831C20.912 5.26396 16.3992 0.75 10.831 0.75ZM16.7894 24.2923L14.4518 20.2423C15.1338 19.9797 15.78 19.6452 16.3812 19.248L18.6662 23.2086L16.7894 24.2923ZM7.87037 6.68079C7.18001 6.68079 6.62037 7.24043 6.62037 7.93079V13.7301C6.62037 14.4205 7.18001 14.9801 7.87037 14.9801H13.6735C14.3639 14.9801 14.9235 14.4205 14.9235 13.7301V7.93079C14.9235 7.24043 14.3639 6.68079 13.6735 6.68079H7.87037ZM9.12037 12.4801V9.18079H12.4235V12.4801H9.12037Z" fill="black"/>
</svg>
