<svg width="22" height="28" viewBox="0 0 22 28" fill="none" xmlns="http://www.w3.org/2000/svg">
<path fill-rule="evenodd" clip-rule="evenodd" d="M17.7484 17.4045C19.376 15.6085 20.3675 13.2255 20.3675 10.611C20.3675 5.02252 15.8373 0.491211 10.2477 0.491211C4.65813 0.491211 0.12793 5.02252 0.12793 10.611C0.12793 16.1995 4.65923 20.7308 10.2477 20.7308C10.8009 20.7308 11.3437 20.6864 11.8727 20.6011L15.0644 26.1308C15.6166 27.0876 16.84 27.4154 17.7967 26.863L20.1224 25.5201C21.0787 24.9679 21.4065 23.7451 20.8547 22.7886L17.7484 17.4045ZM6.27711 7.84447C6.27711 7.29218 6.72483 6.84447 7.27711 6.84447H13.1032C13.6555 6.84447 14.1032 7.29218 14.1032 7.84447V13.6667C14.1032 14.219 13.6555 14.6667 13.1032 14.6667H7.27711C6.72483 14.6667 6.27711 14.219 6.27711 13.6667V7.84447ZM8.27711 8.84447V12.6667H12.1032V8.84447H8.27711ZM16.7966 25.131L14.1692 20.579C15.0277 20.2769 15.83 19.8587 16.5593 19.3456L19.1223 23.7881L16.7966 25.131Z" fill="black"/>
</svg>
