<svg width="26" height="27" viewBox="0 0 26 27" fill="none" xmlns="http://www.w3.org/2000/svg">
<path fill-rule="evenodd" clip-rule="evenodd" d="M13.0001 26.1741C20.0418 26.1741 25.7502 20.4656 25.7502 13.424C25.7502 10.322 24.6425 7.47876 22.8011 5.26825C22.7767 5.29926 22.7502 5.32916 22.7216 5.35775L4.94836 23.1305C4.91464 23.1642 4.87911 23.195 4.84209 23.2229C7.05293 25.0656 9.89707 26.1741 13.0001 26.1741ZM3.42582 21.8443C3.45778 21.7994 3.49389 21.7566 3.53416 21.7163L21.3074 3.94352C21.3425 3.90841 21.3795 3.87646 21.4182 3.84766C19.1725 1.87202 16.2263 0.673828 13.0001 0.673828C5.95842 0.673828 0.25 6.38225 0.25 13.424C0.25 16.6512 1.44899 19.5983 3.42582 21.8443Z" fill="black"/>
</svg>
