<svg width="27" height="24" viewBox="0 0 27 24" fill="none" xmlns="http://www.w3.org/2000/svg">
<path fill-rule="evenodd" clip-rule="evenodd" d="M23.2931 0.292893C22.9026 -0.0976311 22.2694 -0.0976311 21.8789 0.292893L21.1505 1.02127C21.0964 1.00738 21.0396 1 20.9811 1H1C0.447715 1 0 1.44772 0 2V22.8814C0 23.6422 0.815813 24.1244 1.48227 23.7575L8.9209 19.6623C9.06863 19.5809 9.23453 19.5383 9.40318 19.5383H20.6618C21.2141 19.5383 21.6618 19.0906 21.6618 18.5383V10.5983C21.6618 10.4988 21.6415 10.408 21.6057 10.3276L26.7596 5.17362C27.1502 4.7831 27.1502 4.14993 26.7596 3.75941L23.2931 0.292893ZM13.4326 8.73923L15.3221 6.84968C15.1851 6.77909 15.0296 6.73923 14.8648 6.73923H4.81374C4.26145 6.73923 3.81374 7.18695 3.81374 7.73923C3.81374 8.29152 4.26145 8.73923 4.81374 8.73923H13.4326ZM14.5072 10.493L22.586 2.41421L24.6383 4.46652L16.56 12.5449L13.7433 13.3064L14.5072 10.493ZM5.16396 13.5997C4.61167 13.5997 4.16396 14.0475 4.16396 14.5997C4.16396 15.152 4.61167 15.5997 5.16396 15.5997H9.08619C9.63847 15.5997 10.0862 15.152 10.0862 14.5997C10.0862 14.0475 9.63847 13.5997 9.08619 13.5997H5.16396Z" fill="black"/>
</svg>
