<svg width="28" height="25" viewBox="0 0 28 25" fill="none" xmlns="http://www.w3.org/2000/svg">
<path fill-rule="evenodd" clip-rule="evenodd" d="M1.10938 0.249878H21.9023C22.114 0.249878 22.304 0.34296 22.4336 0.490441C23.6703 0.0734874 25.0914 0.357705 26.0768 1.3431C27.4616 2.72791 27.4616 4.97314 26.0768 6.35796L22.5332 9.90149C22.5814 9.99371 22.6094 10.1008 22.6094 10.2195V18.5055C22.6094 19.0578 22.1617 19.5055 21.6094 19.5055H9.86645C9.69781 19.5055 9.53191 19.5481 9.38417 19.6295L1.59165 23.9195C0.925187 24.2864 0.109375 23.8042 0.109375 23.0435V1.24988C0.109375 0.697592 0.55709 0.249878 1.10938 0.249878ZM14.1551 8.24988L16.0315 6.37354C15.8885 6.29473 15.7242 6.24988 15.5494 6.24988H5.10938C4.55709 6.24988 4.10938 6.69759 4.10938 7.24988C4.10938 7.80216 4.55709 8.24988 5.10938 8.24988H14.1551ZM5.47314 13.3759C4.92086 13.3759 4.47314 13.8236 4.47314 14.3759C4.47314 14.9281 4.92086 15.3759 5.47314 15.3759H9.54714C10.0994 15.3759 10.5471 14.9281 10.5471 14.3759C10.5471 13.8236 10.0994 13.3759 9.54714 13.3759H5.47314ZM22.4761 2.75731C23.0799 2.15354 24.0588 2.15354 24.6626 2.75731C25.2663 3.36108 25.2663 4.33998 24.6626 4.94374L17.3302 12.2761L14.3294 13.0874L15.1433 10.0901L22.4761 2.75731Z" fill="black"/>
</svg>
