<svg width="26" height="26" viewBox="0 0 26 26" fill="none" xmlns="http://www.w3.org/2000/svg">
<path fill-rule="evenodd" clip-rule="evenodd" d="M21.6246 2.90601C21.6181 2.91286 21.6115 2.91963 21.6048 2.92631L14.6946 9.83653L13.9564 12.556L16.6795 11.8197L23.5889 4.91019C24.1372 4.36137 24.1367 3.47288 23.5894 2.92544M21.6246 2.90601C22.1733 2.37812 23.047 2.38404 23.5894 2.92544ZM20.1906 1.51116C21.5195 0.182283 23.6738 0.182794 25.0032 1.5108C26.332 2.83967 26.3319 4.99435 25.0039 6.3237L17.9051 13.4225C17.7815 13.5461 17.6277 13.6351 17.459 13.6807L12.7956 14.9417C12.4497 15.0352 12.0803 14.9365 11.8271 14.6831C11.5739 14.4296 11.4756 14.0601 11.5695 13.7143L12.8342 9.05565C12.8799 8.88732 15.3767 8.62333 15.5 8.5L20.1652 1.53748C20.1735 1.52857 20.182 1.51979 20.1906 1.51116Z" fill="black"/>
<path fill-rule="evenodd" clip-rule="evenodd" d="M0 1C0 0.447715 0.447715 0 1 0H22.1462C22.6985 0 23.1462 0.447715 23.1462 1V1.5578C23.1462 2.03821 22.8046 2.45074 22.3326 2.54028C22.0653 2.59097 21.8122 2.71835 21.6056 2.92557L21.6046 2.92652L14.6944 9.83673L13.9562 12.5562L16.6793 11.8199L21.4391 7.06005C21.7251 6.77405 22.1552 6.6885 22.5289 6.84328C22.9026 6.99806 23.1462 7.3627 23.1462 7.76716V19.2005C23.1462 19.7528 22.6985 20.2005 22.1462 20.2005H9.91901L1.50007 25.0621C1.19067 25.2408 0.809457 25.2408 0.500036 25.0622C0.190614 24.8836 0 24.5534 0 24.1962V1ZM3.98218 7.25098C3.98218 6.69869 4.42989 6.25098 4.98218 6.25098H14.8356C15.3879 6.25098 15.8356 6.69869 15.8356 7.25098C15.8356 7.80326 15.3879 8.25098 14.8356 8.25098H4.98218C4.42989 8.25098 3.98218 7.80326 3.98218 7.25098ZM4.32574 13.9766C4.32574 13.4243 4.77346 12.9766 5.32574 12.9766H9.17085C9.72313 12.9766 10.1708 13.4243 10.1708 13.9766C10.1708 14.5288 9.72313 14.9766 9.17085 14.9766H5.32574C4.77346 14.9766 4.32574 14.5288 4.32574 13.9766Z" fill="black"/>
</svg>
