<svg width="21" height="25" viewBox="0 0 21 25" fill="none" xmlns="http://www.w3.org/2000/svg">
<path fill-rule="evenodd" clip-rule="evenodd" d="M13.8779 2.07829C11.872 0.143174 8.69413 0.143176 6.68816 2.07829C4.70956 3.98699 4.56757 7.10922 6.36473 9.18964L7.27295 10.241C7.32722 10.3038 7.30898 10.4008 7.23559 10.4396L5.64619 11.28C2.17287 13.1164 1.90144e-05 16.7232 4.57764e-05 20.6521L6.85458e-05 23.9998C7.23009e-05 24.5521 0.447786 24.9998 1.00007 24.9998H19.5736C19.8388 24.9998 20.0931 24.8945 20.2807 24.7069C20.4682 24.5194 20.5736 24.2651 20.5736 23.9998L20.5735 20.657C20.5735 16.7254 18.3985 13.1165 14.9222 11.28L13.3308 10.4392C13.2574 10.4004 13.2392 10.3035 13.2934 10.2407L14.2014 9.18964C15.9985 7.10922 15.8565 3.98699 13.8779 2.07829Z" fill="black"/>
</svg>
