<svg width="24" height="28" viewBox="0 0 24 28" fill="none" xmlns="http://www.w3.org/2000/svg">
<path d="M8.83436 10.0777L7.79463 8.9032C5.96299 6.83422 6.10639 3.68437 8.11845 1.79038C10.0875 -0.0630747 13.1591 -0.0630751 15.1282 1.79038C17.1402 3.68437 17.2836 6.83422 15.452 8.9032L14.4126 10.0773C13.8308 10.7345 14.0235 11.7638 14.8036 12.166L16.8157 13.2032C20.6921 15.2015 23.1279 19.1975 23.1279 23.5587L23.1279 26.4034C23.1279 27.0042 22.6409 27.4912 22.0401 27.4912H1.21624C0.615226 27.4912 0.128003 27.004 0.127999 26.403L0.127979 23.5527C0.127949 19.1946 2.56117 15.2012 6.43415 13.203L8.44365 12.1662C9.22357 11.7639 9.41608 10.7348 8.83436 10.0777Z" fill="black"/>
</svg>
