<svg width="26" height="26" viewBox="0 0 26 26" fill="none" xmlns="http://www.w3.org/2000/svg">
<path fill-rule="evenodd" clip-rule="evenodd" d="M4.55818 5.82266C4.55819 2.60689 7.16508 0 10.3808 0C13.5966 0 16.2035 2.6069 16.2035 5.82268L16.2035 6.82568H19.7615C20.3138 6.82568 20.7615 7.2734 20.7615 7.82568V11.8543C23.4227 12.9606 25.294 15.5852 25.294 18.6469C25.294 22.7078 22.0019 25.9998 17.941 25.9998C15.2806 25.9998 12.9501 24.5869 11.6591 22.4704H1C0.447715 22.4704 0 22.0227 0 21.4704V7.82568C0 7.2734 0.447715 6.82568 1 6.82568H4.55817L4.55818 5.82267V5.82266ZM14.2035 5.82267L14.2035 6.82568H6.55817L6.55818 5.82268L5.55818 5.82267H6.55818C6.55818 3.71147 8.26965 2 10.3808 2C12.4921 2 14.2035 3.71147 14.2035 5.82267ZM17.941 13.2939C14.9847 13.2939 12.5881 15.6905 12.5881 18.6469C12.5881 21.6032 14.9847 23.9998 17.941 23.9998C20.8974 23.9998 23.294 21.6032 23.294 18.6469C23.294 15.6905 20.8974 13.2939 17.941 13.2939ZM17.063 16.1426C17.063 15.5903 17.5107 15.1426 18.063 15.1426C18.6153 15.1426 19.063 15.5903 19.063 16.1426V18.8528C19.063 19.0848 18.9823 19.3097 18.8347 19.4887L17.7717 20.7786C17.4205 21.2048 16.7902 21.2655 16.364 20.9143C15.9378 20.563 15.8771 19.9328 16.2283 19.5066L17.063 18.4938V16.1426Z" fill="black"/>
</svg>
