<svg width="25" height="26" viewBox="0 0 25 26" fill="none" xmlns="http://www.w3.org/2000/svg">
<path fill-rule="evenodd" clip-rule="evenodd" d="M10.2787 0C7.08166 0 4.48993 2.59173 4.48993 5.78878V5.78879L4.48992 7.61463H1C0.447715 7.61463 0 8.06234 0 8.61463V22.0349C0 22.5872 0.447716 23.0349 1 23.0349H11.2379C11.3866 23.0349 11.5278 23.0025 11.6548 22.9441C13.0276 24.8447 15.2624 26.0815 17.7861 26.0815C21.9604 26.0815 25.3444 22.6976 25.3444 18.5232C25.3444 15.4698 23.5338 12.8392 20.9276 11.6467V8.61463C20.9276 8.06234 20.4799 7.61463 19.9276 7.61463H16.0675L16.0675 5.78879C16.0675 2.59173 13.4758 0 10.2787 0ZM14.0675 7.61463L14.0675 5.78879C14.0675 3.6963 12.3712 2 10.2787 2C8.18623 2 6.48993 3.6963 6.48993 5.78879H5.48993L6.48993 5.7888L6.48992 7.61463H14.0675ZM12.7278 18.5232C12.7278 15.7296 14.9924 13.4649 17.7861 13.4649C20.5797 13.4649 22.8444 15.7296 22.8444 18.5232C22.8444 21.3168 20.5797 23.5815 17.7861 23.5815C14.9924 23.5815 12.7278 21.3168 12.7278 18.5232ZM16.907 16.0366C16.907 15.4843 17.3547 15.0366 17.907 15.0366C18.4593 15.0366 18.907 15.4843 18.907 16.0366V18.7277C18.907 18.9598 18.8263 19.1846 18.6787 19.3637L17.6232 20.6444C17.2719 21.0706 16.6417 21.1314 16.2155 20.7802C15.7893 20.4289 15.7285 19.7987 16.0798 19.3725L16.907 18.3687V16.0366Z" fill="black"/>
</svg>
