<svg width="28" height="28" viewBox="0 0 28 28" fill="none" xmlns="http://www.w3.org/2000/svg">
<path fill-rule="evenodd" clip-rule="evenodd" d="M19.1094 23.25C19.1094 25.4591 20.9002 27.25 23.1094 27.25C25.3185 27.25 27.1094 25.4591 27.1094 23.25C27.1094 21.0409 25.3185 19.25 23.1094 19.25C22.5765 19.25 22.068 19.3542 21.6031 19.5433L19.8164 16.9421C21.8331 15.2 23.1094 12.624 23.1094 9.75C23.1094 4.5033 18.8561 0.25 13.6094 0.249999C8.36267 0.249999 4.10937 4.50329 4.10937 9.75C4.10937 12.6786 5.4345 15.2976 7.51787 17.0403L5.7309 19.5923C5.23527 19.3723 4.6866 19.25 4.10937 19.25C1.90024 19.25 0.109374 21.0409 0.109374 23.25C0.109374 25.4591 1.90023 27.25 4.10937 27.25C6.31851 27.25 8.10937 25.4591 8.10937 23.25C8.10937 22.344 7.80816 21.5083 7.30041 20.8377L9.17848 18.1556C10.5014 18.8544 12.0092 19.25 13.6094 19.25C15.2638 19.25 16.8194 18.8271 18.1741 18.0835L19.9969 20.7373C19.4418 21.424 19.1094 22.2982 19.1094 23.25ZM9.80527 9.51073C10.1958 9.1202 10.8289 9.12019 11.2195 9.51071L12.6907 10.9819L12.6907 6.1067C12.6907 5.55442 13.1385 5.10671 13.6907 5.10671C14.243 5.1067 14.6907 5.55442 14.6907 6.1067L14.6907 10.9819L16.1619 9.51072C16.5524 9.12019 17.1856 9.12019 17.5761 9.51072C17.9666 9.90124 17.9666 10.5344 17.5761 10.9249L14.3978 14.1032C14.0073 14.4937 13.3742 14.4937 12.9836 14.1032L9.80529 10.9249C9.41476 10.5344 9.41475 9.90126 9.80527 9.51073Z" fill="black"/>
</svg>
