<svg width="26" height="26" viewBox="0 0 26 26" fill="none" xmlns="http://www.w3.org/2000/svg">
<path fill-rule="evenodd" clip-rule="evenodd" d="M22.2282 18.4399C24.3113 18.4399 26 20.1286 26 22.2118C26 24.2949 24.3113 25.9836 22.2282 25.9836C20.1451 25.9836 18.4564 24.2949 18.4564 22.2118C18.4564 21.3414 18.7512 20.5399 19.2463 19.9017L17.226 16.9604C15.9661 17.6308 14.5281 18.0108 13.0013 18.0108C11.4801 18.0108 10.047 17.6336 8.79042 16.9677L6.74437 19.8897C7.24516 20.5299 7.54364 21.336 7.54364 22.2118C7.54364 24.2949 5.85494 25.9836 3.77182 25.9836C1.68871 25.9836 1.03821e-05 24.2949 1.04732e-05 22.2118C1.05642e-05 20.1286 1.68871 18.4399 3.77182 18.4399C4.25408 18.4399 4.71519 18.5304 5.1391 18.6954L7.13799 15.8407C5.21441 14.1891 3.99593 11.7396 3.99593 9.00539C3.99593 4.03185 8.02778 -7.85591e-07 13.0013 -5.6819e-07C17.9749 -3.5079e-07 22.0067 4.03185 22.0067 9.0054C22.0067 11.734 20.7932 14.1792 18.8764 15.8306L20.8477 18.7006C21.2752 18.5323 21.7409 18.4399 22.2282 18.4399ZM10.715 8.739C10.3244 8.34848 9.69128 8.34849 9.30076 8.73902C8.91024 9.12955 8.91025 9.76271 9.30078 10.1532L12.2942 13.1466C12.6847 13.5371 13.3179 13.5371 13.7084 13.1466L16.7017 10.1532C17.0922 9.76269 17.0922 9.12953 16.7017 8.73901C16.3112 8.34848 15.678 8.34849 15.2875 8.73901L14.0013 10.0252L14.0013 5.57417C14.0013 5.02188 13.5536 4.57417 13.0013 4.57417C12.449 4.57417 12.0013 5.02188 12.0013 5.57417L12.0013 10.0253L10.715 8.739Z" fill="black"/>
</svg>
