<svg width="26" height="17" viewBox="0 0 26 17" fill="none" xmlns="http://www.w3.org/2000/svg">
<path fill-rule="evenodd" clip-rule="evenodd" d="M4.93407 0C4.66886 0 4.4145 0.105359 4.22696 0.2929C4.03942 0.480441 3.93407 0.7348 3.93407 1.00002L3.93415 4.60352L1 4.60352C0.447713 4.60352 -3.85233e-06 5.05124 0 5.60352L6.9893e-05 15.6235C7.37453e-05 16.1758 0.447785 16.6235 1.00006 16.6235L2.21128 16.6235C2.54023 16.6235 2.84747 16.4634 3.06072 16.2129C3.9429 15.1768 6.61814 12.5385 10.9856 12.5385C15.3393 12.5385 17.9616 15.1602 18.8324 16.203C19.0462 16.459 19.357 16.6235 19.6906 16.6235L20.8923 16.6235C21.4445 16.6235 21.8922 16.1759 21.8923 15.6236L21.8926 12.623H24.9984C25.5506 12.623 25.9983 12.1753 25.9984 11.6231L25.9997 1.00015C25.9997 0.734914 25.8944 0.480529 25.7069 0.292966C25.5193 0.105403 25.2649 2.92063e-05 24.9997 2.88486e-05L4.93407 0ZM21.8929 10.623H23.9985L23.9996 2.00003L5.9341 2L5.93415 4.60352L20.8934 4.60355C21.4458 4.60355 21.8935 5.05133 21.8934 5.60366L21.8929 10.623Z" fill="black"/>
</svg>
