<svg width="26" height="18" viewBox="0 0 26 18" fill="none" xmlns="http://www.w3.org/2000/svg">
<path fill-rule="evenodd" clip-rule="evenodd" d="M4.93432 0.396484C4.6691 0.396484 4.41474 0.501844 4.2272 0.689384C4.03967 0.876925 3.93431 1.13128 3.93432 1.3965L3.93438 4.33106L1 4.33105C0.734783 4.33105 0.480428 4.43641 0.292891 4.62395C0.105354 4.81149 -1.90732e-06 5.06584 0 5.33106L7.67708e-05 16.3475C8.08239e-05 16.8997 0.447791 17.3475 1.00007 17.3475L3.5082 17.3475C3.83687 17.3475 4.14431 17.1864 4.33098 16.9159L4.34481 16.8968C4.35886 16.8776 4.38253 16.846 4.41575 16.8036C4.48225 16.7188 4.58664 16.5915 4.72842 16.4358C5.01267 16.1237 5.44284 15.7021 6.01456 15.2799C7.15606 14.4369 8.84278 13.6035 11.0684 13.6035C13.293 13.6035 14.9601 14.4361 16.0812 15.2759C16.6432 15.6968 17.064 16.117 17.3413 16.428C17.4796 16.5831 17.5811 16.7098 17.6457 16.7942C17.6779 16.8363 17.7008 16.8677 17.7143 16.8867L17.7272 16.9048C17.9129 17.1815 18.2242 17.3475 18.5574 17.3475L21.0643 17.3475C21.6166 17.3475 22.0643 16.8998 22.0643 16.3476L22.0647 13.0195H24.9986C25.5509 13.0195 25.9986 12.5718 25.9986 12.0196L26 1.39664C26 1.1314 25.8946 0.877013 25.7071 0.68945C25.5196 0.501888 25.2652 0.396514 25 0.396513L4.93432 0.396484ZM22.065 11.0195H23.9988L23.9998 2.39651L5.93434 2.39649L5.93438 4.33106L21.0656 4.33108C21.3309 4.33108 21.5852 4.43646 21.7728 4.62402C21.9603 4.81158 22.0657 5.06597 22.0656 5.3312L22.065 11.0195Z" fill="black"/>
</svg>
