<svg width="27" height="19" viewBox="0 0 27 19" fill="none" xmlns="http://www.w3.org/2000/svg">
<path fill-rule="evenodd" clip-rule="evenodd" d="M16.7641 10.1761H10.835V12.1761H16.1613C16.4567 11.5544 16.6631 10.8823 16.7641 10.1761ZM14.7339 14.1761H10.835V16.1053C12.3431 15.8895 13.6962 15.1931 14.7339 14.1761ZM16.7641 8.17615H10.835V6.17639H16.1614C16.4567 6.79803 16.6631 7.47009 16.7641 8.17615ZM10.835 2.24704V4.17639H14.7342C13.6964 3.1593 12.3432 2.46277 10.835 2.24704ZM9.83496 18.1761C4.8644 18.1761 0.834961 14.1467 0.834961 9.17615C0.834961 4.20558 4.8644 0.176147 9.83496 0.176147H25.835C26.3872 0.176147 26.835 0.623863 26.835 1.17615V17.1761C26.835 17.7284 26.3872 18.1761 25.835 18.1761H9.83496ZM8.83496 2.24704C5.44267 2.73227 2.83496 5.64968 2.83496 9.17615C2.83496 12.7026 5.44267 15.62 8.83496 16.1053V2.24704Z" fill="black"/>
</svg>
