<svg width="22" height="26" viewBox="0 0 22 26" fill="none" xmlns="http://www.w3.org/2000/svg">
<path fill-rule="evenodd" clip-rule="evenodd" d="M11 2C9.34328 2 8 3.34328 8 5H14C14 3.34328 12.6567 2 11 2ZM16.3523 7H17C17.5523 7 18 6.55228 18 6C18 5.44772 17.5523 5 17 5H16C16 2.23872 13.7613 0 11 0C8.23872 0 6 2.23872 6 5H5C4.44772 5 4 5.44772 4 6C4 6.55228 4.44772 7 5 7H5.63859C5.26587 8.43149 5.46866 9.98772 6.27732 11.2969C6.41951 11.527 6.58042 11.7496 6.76023 11.9625L7.60023 12.9565C7.68951 13.0623 7.63943 13.2256 7.50464 13.2626L6.27165 13.6006C2.56729 14.6156 -0.000976562 17.9815 -0.000976562 21.823V25C-0.000976562 25.5523 0.446739 26 0.999023 26H21C21.5523 26 22 25.5523 22 25V21.828C22 17.9844 19.4294 14.6154 15.7218 13.6004L14.4863 13.2626C14.3515 13.2255 14.3015 13.0621 14.3909 12.9564L15.2308 11.9625C16.4337 10.5392 16.7908 8.68353 16.3523 7Z" fill="black"/>
</svg>
