<svg width="29" height="29" viewBox="0 0 29 29" fill="none" xmlns="http://www.w3.org/2000/svg">
<path fill-rule="evenodd" clip-rule="evenodd" d="M15.3142 25.6759C15.1246 25.4654 14.8545 25.3452 14.5712 25.3452H13.6207C13.3419 25.3452 13.0757 25.4615 12.8864 25.6662L10.8581 27.8599C10.541 28.2028 10.0287 28.2806 9.62412 28.0472L4.5531 25.1216C4.14337 24.8852 3.95532 24.394 4.10239 23.9445L5.03773 21.0853C5.12629 20.8145 5.0952 20.5189 4.95226 20.2725L4.49586 19.4859C4.35649 19.2456 4.1235 19.0742 3.85269 19.0126L0.906136 18.3424C0.45093 18.2388 0.12793 17.8341 0.12793 17.3673V11.5169C0.12793 11.0436 0.459676 10.6352 0.922872 10.5382L3.87163 9.92036C4.15114 9.8618 4.39229 9.68652 4.53425 9.43873L4.98394 8.65384C5.12141 8.41389 5.15338 8.12772 5.07225 7.86335L4.18522 4.97284C4.04833 4.52675 4.23814 4.04528 4.64262 3.81263L9.71501 0.895045C10.1243 0.659596 10.6426 0.742588 10.958 1.09409L12.9415 3.30508C13.1312 3.5165 13.4018 3.63728 13.6859 3.63728H14.6374C14.9149 3.63728 15.1799 3.52198 15.3691 3.31895L17.4092 1.12915C17.7265 0.788579 18.2368 0.711965 18.6401 0.944349L23.7046 3.86246C24.1135 4.09808 24.3021 4.58749 24.1569 5.03654L23.2493 7.84391C23.1623 8.11296 23.1933 8.40627 23.3346 8.6512L23.8279 9.50647C23.967 9.7475 24.2002 9.9197 24.4714 9.98167L27.3507 10.6395C27.8054 10.7434 28.1279 11.1479 28.1279 11.6144V17.664C28.1279 18.151 27.7771 18.5672 27.2972 18.6496L24.1634 19.1877C23.8001 19.25 23.5005 19.5073 23.384 19.857L23.1805 20.4674C23.1145 20.6655 23.1121 20.8794 23.1738 21.079L24.0797 24.0084C24.2178 24.455 24.0281 24.9376 23.6229 25.1707L18.5507 28.0882C18.142 28.3233 17.6246 28.241 17.3091 27.8906L15.3142 25.6759ZM14.1257 9.49122C13.6662 9.49173 13.2257 9.67447 12.9008 9.9994C12.5754 10.3248 12.3926 10.7661 12.3926 11.2262V12.2227H15.8521V11.2262C15.8521 10.7672 15.6702 10.3269 15.3463 10.0017C15.0228 9.67701 14.584 9.4935 14.1257 9.49122ZM11.4865 8.58518C12.187 7.88473 13.137 7.49122 14.1276 7.49122H14.1315V7.49122C15.1196 7.49504 16.0659 7.89024 16.7632 8.59027C17.4606 9.29032 17.8521 10.2382 17.8521 11.2263V12.4439H18.4891C19.0414 12.4439 19.4891 12.8916 19.4891 13.4439V18.9456C19.4891 19.4979 19.0414 19.9456 18.4891 19.9456H9.7666C9.21432 19.9456 8.7666 19.4979 8.7666 18.9456V13.4439C8.7666 12.8916 9.21432 12.4439 9.7666 12.4439H10.3926V11.2262C10.3926 10.2357 10.7861 9.28564 11.4865 8.58518ZM10.7666 14.4439V17.9456H17.4891V14.4439H10.7666Z" fill="black"/>
</svg>
