<svg width="25" height="26" viewBox="0 0 25 26" fill="none" xmlns="http://www.w3.org/2000/svg">
<path fill-rule="evenodd" clip-rule="evenodd" d="M12.5099 0.0971394C12.2379 -0.0323799 11.922 -0.0323799 11.65 0.0971394L9.59684 1.07485C9.0982 1.3123 8.88647 1.90901 9.12391 2.40765C9.36136 2.90628 9.95807 3.11802 10.4567 2.88058L12.08 2.10759L13.7032 2.88058C14.2019 3.11802 14.7986 2.90628 15.036 2.40765C15.2735 1.90901 15.0617 1.3123 14.5631 1.07485L12.5099 0.0971394ZM4.68819 5.62749C5.18682 5.39004 5.39856 4.79333 5.16111 4.2947C4.92367 3.79606 4.32696 3.58432 3.82832 3.82177L1.38403 4.98572C1.03579 5.15155 0.813965 5.50287 0.813965 5.88858C0.813965 6.27429 1.03579 6.62561 1.38403 6.79144L3.82832 7.95538C4.32696 8.19283 4.92367 7.98109 5.16111 7.48246C5.39856 6.98382 5.18682 6.38711 4.68819 6.14966L4.13991 5.88858L4.68819 5.62749ZM20.3316 3.82177C19.833 3.58432 19.2363 3.79606 18.9988 4.2947C18.7614 4.79333 18.9731 5.39004 19.4718 5.62749L20.02 5.88858L19.4718 6.14966C18.9731 6.38711 18.7614 6.98382 18.9988 7.48246C19.2363 7.98109 19.833 8.19283 20.3316 7.95538L22.7759 6.79144C23.1242 6.62561 23.346 6.27429 23.346 5.88858C23.346 5.50287 23.1242 5.15155 22.7759 4.98572L20.3316 3.82177ZM10.4567 8.89658C9.95807 8.65913 9.36136 8.87087 9.12391 9.3695C8.88647 9.86814 9.0982 10.4649 9.59684 10.7023L11.65 11.68C11.922 11.8095 12.2379 11.8095 12.5099 11.68L14.5631 10.7023C15.0617 10.4649 15.2735 9.86814 15.036 9.3695C14.7986 8.87087 14.2019 8.65913 13.7032 8.89658L12.08 9.66956L10.4567 8.89658ZM0.470236 9.21484C0.762751 9.03214 1.12877 9.01305 1.4387 9.16436L10.5042 13.59C10.8476 13.7576 11.0655 14.1064 11.0655 14.4886V24.9998C11.0655 25.3447 10.8877 25.6652 10.5952 25.8479C10.3027 26.0306 9.93668 26.0497 9.62675 25.8984L0.561293 21.4727C0.217843 21.305 0 20.9563 0 20.5741V10.063C0 9.7181 0.17772 9.39755 0.470236 9.21484ZM23.6897 9.21484C23.3972 9.03214 23.0312 9.01305 22.7213 9.16436L13.6558 13.59C13.3124 13.7576 13.0945 14.1064 13.0945 14.4886V24.9998C13.0945 25.3447 13.2722 25.6652 13.5648 25.8479C13.8573 26.0306 14.2233 26.0497 14.5332 25.8984L23.5987 21.4727C23.9421 21.305 24.16 20.9563 24.16 20.5741V10.063C24.16 9.7181 23.9823 9.39755 23.6897 9.21484Z" fill="black"/>
</svg>
