<svg width="20" height="26" viewBox="0 0 20 26" fill="none" xmlns="http://www.w3.org/2000/svg">
<path d="M0.250253 17.675C0.945425 22.4404 4.794 25.675 9.46444 25.675C15.6172 25.675 18.548 22.6278 19.1097 17.675C19.3785 15.305 18.8071 12.3297 18.2969 10.2991C18.079 9.43148 16.9507 9.34501 16.5606 10.15L15.3901 12.5655C14.9878 13.3957 13.7716 13.2847 13.5262 12.3954L10.3212 0.780069C10.06 -0.166717 8.73299 -0.208917 8.41211 0.719356L6.43162 6.44874C6.16471 7.2209 5.13465 7.36448 4.66674 6.69474L3.57055 5.1257C3.07668 4.41881 1.99037 4.62855 1.80844 5.47146C1.08933 8.80326 -0.129908 15.0691 0.250253 17.675Z" fill="black"/>
</svg>
