<svg width="15" height="22" viewBox="0 0 15 22" fill="none" xmlns="http://www.w3.org/2000/svg">
<path fill-rule="evenodd" clip-rule="evenodd" d="M8.31924 0.740194C8.20727 0.324048 7.8413 0.0264393 7.41107 0.00166519C6.98084 -0.0231089 6.58313 0.230525 6.42413 0.631068L4.26994 6.05794L3.29948 4.49294C3.0859 4.14852 2.68556 3.96706 2.28576 4.03346C1.88597 4.09986 1.56565 4.40158 1.47489 4.79655L1.46955 4.81992L1.45444 4.88658C1.44131 4.94475 1.42223 5.02985 1.39815 5.13877C1.34999 5.35659 1.28179 5.66985 1.20118 6.05357C1.04007 6.82041 0.82877 7.87155 0.628637 9.00634C0.428871 10.1391 0.238233 11.3663 0.120546 12.4824C0.00547612 13.5737 -0.0501177 14.6449 0.0587622 15.4241C0.599576 19.2943 3.63179 22 7.35358 22C9.62879 22 11.4522 21.4093 12.7637 20.2065C14.0717 19.007 14.7378 17.3205 14.9471 15.3937C15.1201 13.8017 14.8374 11.938 14.5395 10.5351C14.3878 9.82064 14.2262 9.19957 14.1025 8.75644C14.0405 8.53455 13.9878 8.35645 13.9501 8.23262C13.9313 8.17069 13.9162 8.12226 13.9057 8.08866L13.8933 8.04952L13.8897 8.03857L13.8887 8.03531L13.8881 8.03354C13.7645 7.65249 13.4253 7.38202 13.0263 7.34621C12.6273 7.3104 12.2455 7.51617 12.0559 7.86911L10.8444 10.1253L8.31924 0.740194ZM12.9369 8.3422C13.8881 8.03354 13.8881 8.03338 13.8881 8.03354L12.9369 8.3422ZM2.44959 5.01993L1.47489 4.79655C1.47491 4.79644 1.47502 4.79597 2.44959 5.01993Z" fill="black"/>
</svg>
