<svg width="22" height="23" viewBox="0 0 22 23" fill="none" xmlns="http://www.w3.org/2000/svg">
<path fill-rule="evenodd" clip-rule="evenodd" d="M8.43169 1.6488C8.43169 1.09652 7.98398 0.648804 7.43169 0.648804C6.87941 0.648804 6.43169 1.09652 6.43169 1.6488V3.28252H1.99658C1.4443 3.28252 0.996582 3.73023 0.996582 4.28252V8.66753H1.08385H21.8015H21.8017V4.28252C21.8017 3.73023 21.354 3.28252 20.8017 3.28252H16.3661V1.64892C16.3661 1.09663 15.9184 0.648919 15.3661 0.648919C14.8139 0.648919 14.3661 1.09663 14.3661 1.64892V3.28252H8.43169V1.6488ZM21.8017 10.6675H21.8015H1.08385H0.996582V21.454C0.996582 22.0063 1.4443 22.454 1.99658 22.454H15.4119H20.8017C21.354 22.454 21.8017 22.0063 21.8017 21.454V16.338V10.6675Z" fill="black"/>
</svg>
