<svg width="26" height="25" viewBox="0 0 26 25" fill="none" xmlns="http://www.w3.org/2000/svg">
<path fill-rule="evenodd" clip-rule="evenodd" d="M7.99593 0C7.44365 0 6.99593 0.447715 6.99593 1V6.00385V6.01359H1C0.447715 6.01359 0 6.46131 0 7.01359V23.0074C0 23.5597 0.447716 24.0074 1 24.0074H25C25.5523 24.0074 26 23.5597 26 23.0074V14.2898H0.00198364V12.2898H26V7.01359C26 6.46131 25.5523 6.01359 25 6.01359H19.0036V6.00385V1C19.0036 0.447715 18.5559 0 18.0036 0H7.99593ZM17.0036 6.01359V6.00385V2H8.99593V6.00385V6.01359H17.0036Z" fill="black"/>
</svg>
