<svg width="25" height="23" viewBox="0 0 25 23" fill="none" xmlns="http://www.w3.org/2000/svg">
<path fill-rule="evenodd" clip-rule="evenodd" d="M8.49023 0.25C7.38566 0.25 6.49023 1.14543 6.49023 2.25V5.86894V5.87793H1.10938C0.55709 5.87793 0.109375 6.32565 0.109375 6.87793V21.4876C0.109375 22.0399 0.557091 22.4876 1.10938 22.4876H23.1094C23.6617 22.4876 24.1094 22.0399 24.1094 21.4876V13.5945H0.111218V11.5945H24.1094V6.87793C24.1094 6.32564 23.6617 5.87793 23.1094 5.87793H17.7281V5.86894V2.25C17.7281 1.14543 16.8327 0.25 15.7281 0.25H8.49023ZM15.7281 5.87793V5.86894V2.25H8.49023V5.86894V5.87793H15.7281Z" fill="black"/>
</svg>
