<svg width="27" height="27" viewBox="0 0 27 27" fill="none" xmlns="http://www.w3.org/2000/svg">
<path fill-rule="evenodd" clip-rule="evenodd" d="M16.8388 3.96765C16.8388 5.67441 15.6887 7.11254 14.1212 7.54927V9.6521C15.4964 9.95369 16.6436 10.8643 17.2656 12.087L19.009 11.4874C19.0084 11.4594 19.0081 11.4312 19.0081 11.403C19.0081 9.34976 20.6725 7.68531 22.7257 7.68531C24.7789 7.68531 26.4434 9.34976 26.4434 11.403C26.4434 13.4562 24.7789 15.1206 22.7257 15.1206C21.4085 15.1206 20.2513 14.4356 19.5909 13.4023L17.7655 14.0301C17.7673 14.0836 17.7682 14.1373 17.7682 14.1913C17.7682 15.2744 17.3977 16.2709 16.7765 17.0611L18.4517 19.028C18.8211 18.9049 19.2164 18.8383 19.6272 18.8383C21.6804 18.8383 23.3449 20.5027 23.3449 22.5559C23.3449 24.6091 21.6804 26.2736 19.6272 26.2736C17.574 26.2736 15.9096 24.6091 15.9096 22.5559C15.9096 21.6419 16.2394 20.8049 16.7866 20.1575L15.2321 18.3323C14.5987 18.6559 13.8813 18.8384 13.1212 18.8384C12.361 18.8384 11.6435 18.6559 11.0101 18.3323L9.45571 20.1573C10.003 20.8047 10.3329 21.6418 10.3329 22.5559C10.3329 24.6091 8.66847 26.2736 6.61527 26.2736C4.56207 26.2736 2.89762 24.6091 2.89762 22.5559C2.89762 20.5027 4.56207 18.8383 6.61527 18.8383C7.02599 18.8383 7.42116 18.9049 7.79056 19.0279L9.46574 17.061C8.84459 16.2708 8.4741 15.2743 8.4741 14.1913C8.4741 14.1423 8.47485 14.0935 8.47636 14.0449L6.90217 13.4927C6.23312 14.4753 5.10543 15.1206 3.82703 15.1206C1.77383 15.1206 0.109375 13.4562 0.109375 11.403C0.109375 9.34976 1.77383 7.68531 3.82703 7.68531C5.88023 7.68531 7.54468 9.34976 7.54468 11.403C7.54468 11.468 7.54301 11.5327 7.53971 11.5969L8.97073 12.0988C9.59136 10.8702 10.7415 9.95467 12.1212 9.6521V7.54927C10.5536 7.11254 9.40351 5.67441 9.40351 3.96765C9.40351 1.91445 11.068 0.25 13.1212 0.25C15.1744 0.25 16.8388 1.91445 16.8388 3.96765Z" fill="black"/>
</svg>
