<svg width="28" height="28" viewBox="0 0 28 28" fill="none" xmlns="http://www.w3.org/2000/svg">
<path fill-rule="evenodd" clip-rule="evenodd" d="M19.7128 1.11612L26.3356 7.73891C26.8237 8.22707 26.8237 9.01853 26.3356 9.50668L19.6821 16.1601C19.194 16.6483 18.4025 16.6483 17.9144 16.1601L15.4653 13.711L18.8779 10.2983C19.3661 9.81014 19.3661 9.01868 18.8779 8.53053C18.3898 8.04237 17.5983 8.04237 17.1102 8.53053L13.6975 11.9432L11.2916 9.53732C10.8034 9.04916 10.8034 8.2577 11.2916 7.76955L17.945 1.11612C18.4332 0.627961 19.2246 0.627961 19.7128 1.11612ZM8.5363 17.1044L11.9322 13.7085L9.49988 11.2763C9.01172 10.7881 8.22027 10.7881 7.73211 11.2763L1.11612 17.8923C0.627961 18.3804 0.627962 19.1719 1.11612 19.66L7.73891 26.2828C8.22707 26.771 9.01853 26.771 9.50668 26.2828L16.1227 19.6668C16.6108 19.1787 16.6108 18.3872 16.1227 17.8991L13.6999 15.4763L10.3041 18.8722C9.81592 19.3603 9.02446 19.3603 8.5363 18.8722C8.04815 18.384 8.04815 17.5926 8.5363 17.1044ZM13.7015 11.9395L11.93 13.7109L13.7017 15.4748L15.4653 13.7111L13.7015 11.9395Z" fill="black"/>
</svg>
