<svg width="28" height="28" viewBox="0 0 28 28" fill="none" xmlns="http://www.w3.org/2000/svg">
<path fill-rule="evenodd" clip-rule="evenodd" d="M19.536 1.29289L26.1588 7.91569C26.5493 8.30621 26.5493 8.93938 26.1588 9.3299L19.5054 15.9833C19.1148 16.3739 18.4817 16.3739 18.0911 15.9833L15.4652 13.3574L13.3488 15.4738L11.9329 14.0618L8.71306 17.2817C8.32253 17.6722 8.32253 18.3054 8.71306 18.6959C9.10358 19.0864 9.73675 19.0864 10.1273 18.6959L13.3466 15.4766L15.9459 18.0758C16.3364 18.4664 16.3364 19.0995 15.9459 19.4901L9.32989 26.1061C8.93936 26.4966 8.3062 26.4966 7.91568 26.1061L1.29288 19.4833C0.902354 19.0927 0.902353 18.4596 1.29288 18.069L7.90887 11.453C8.2994 11.0625 8.93256 11.0625 9.32308 11.453L11.9321 14.0621L14.051 11.9432L11.4683 9.36054C11.0778 8.97002 11.0778 8.33685 11.4683 7.94633L18.1218 1.29289C18.5123 0.902369 19.1455 0.902369 19.536 1.29289ZM18.7011 8.70779C18.3106 8.31727 17.6775 8.31727 17.2869 8.70779L14.054 11.9407L15.4663 13.3569L18.7011 10.122C19.0917 9.73148 19.0917 9.09832 18.7011 8.70779Z" fill="black"/>
</svg>
