<svg width="27" height="12" viewBox="0 0 27 12" fill="none" xmlns="http://www.w3.org/2000/svg">
<path fill-rule="evenodd" clip-rule="evenodd" d="M11.4292 1.49121C11.4292 0.938928 10.9815 0.491211 10.4292 0.491211H1.12793C0.575646 0.491211 0.12793 0.938926 0.12793 1.49121V10.7925C0.12793 11.3447 0.575645 11.7925 1.12793 11.7925H10.4292C10.9815 11.7925 11.4292 11.3447 11.4292 10.7925V7.14185L12.3711 7.14185L14.2546 7.14184L15.1963 7.14184V10.7925C15.1963 11.3447 15.644 11.7925 16.1963 11.7925H25.4975C26.0498 11.7925 26.4975 11.3447 26.4975 10.7925V1.49121C26.4975 0.938928 26.0498 0.491211 25.4975 0.491211H16.1963C15.644 0.491211 15.1963 0.938926 15.1963 1.49121V5.14184L14.2546 5.14184L12.3711 5.14185L11.4292 5.14185V1.49121Z" fill="black"/>
</svg>
