<svg width="21" height="26" viewBox="0 0 21 26" fill="none" xmlns="http://www.w3.org/2000/svg">
<path fill-rule="evenodd" clip-rule="evenodd" d="M1 0H12V7.46155C12 8.01384 12.4477 8.46155 13 8.46155H20.4615V25C20.4615 25.5523 20.0138 26 19.4615 26H1C0.447716 26 0 25.5523 0 25V1C0 0.447715 0.447716 0 1 0ZM14 6.46155H19.8758L14 0.585793V6.46155ZM11.2065 10.4595C11.2065 9.90719 10.7588 9.45947 10.2065 9.45947C9.65418 9.45947 9.20647 9.90719 9.20647 10.4595V10.8118C9.00284 10.8441 8.80312 10.8999 8.61132 10.9781C8.28218 11.1125 7.98287 11.3106 7.73063 11.5611C7.47839 11.8116 7.27819 12.1095 7.14158 12.4377C7.00498 12.7659 6.93462 13.1179 6.93463 13.4734L6.93468 13.4803C6.93961 14.195 7.22697 14.8787 7.73406 15.3823C8.24115 15.8859 8.92685 16.1685 9.64151 16.1685H10.8186C11.0052 16.1685 11.1843 16.2423 11.3167 16.3738C11.4491 16.5053 11.5242 16.6838 11.5254 16.8704C11.5255 16.882 11.5258 16.8937 11.5263 16.9053C11.5303 17.0022 11.5144 17.0989 11.4795 17.1894C11.4445 17.2799 11.3913 17.3622 11.3232 17.4313C11.2551 17.5003 11.1735 17.5546 11.0835 17.5908C10.9934 17.6269 10.8969 17.6441 10.8 17.6414C10.7905 17.6411 10.781 17.641 10.7715 17.641H8.29957C7.74728 17.641 7.29957 18.0887 7.29957 18.641C7.29957 19.1933 7.74728 19.641 8.29957 19.641H9.20647V19.9712C9.20647 20.5235 9.65418 20.9712 10.2065 20.9712C10.7588 20.9712 11.2065 20.5235 11.2065 19.9712V19.6139C11.4192 19.5833 11.6281 19.5273 11.8286 19.4468C12.1734 19.3083 12.4859 19.1005 12.7468 18.836C13.0077 18.5716 13.2114 18.2564 13.3452 17.9098C13.4769 17.5687 13.5381 17.2045 13.5252 16.8392C13.5158 16.1308 13.229 15.4542 12.726 14.9547C12.2189 14.4511 11.5332 14.1685 10.8186 14.1685H9.64146C9.45484 14.1685 9.27579 14.0947 9.14337 13.9632C9.01177 13.8325 8.93684 13.6553 8.93466 13.47C8.93511 13.3795 8.95323 13.2899 8.98802 13.2063C9.02325 13.1216 9.07488 13.0448 9.13994 12.9802C9.205 12.9156 9.28219 12.8645 9.36707 12.8299C9.45195 12.7952 9.54286 12.7777 9.63454 12.7784H11.9251C12.4774 12.7784 12.9251 12.3306 12.9251 11.7784C12.9251 11.2261 12.4774 10.7784 11.9251 10.7784H11.2065V10.4595Z" fill="black"/>
</svg>
