<svg width="20" height="26" viewBox="0 0 20 26" fill="none" xmlns="http://www.w3.org/2000/svg">
<path fill-rule="evenodd" clip-rule="evenodd" d="M1.21777 0.173584H11.954V5.03157C11.954 6.68842 13.2972 8.03157 14.954 8.03157H19.812V24.6461C19.812 25.1984 19.3643 25.6461 18.812 25.6461H1.21777C0.665489 25.6461 0.217773 25.1984 0.217773 24.6461V1.17358C0.217773 0.621299 0.665487 0.173584 1.21777 0.173584ZM14.954 6.03157H18.812L13.954 1.17358V5.03157C13.954 5.58385 14.4017 6.03157 14.954 6.03157ZM10.9888 10.2134C10.9888 9.66109 10.5411 9.21338 9.98879 9.21338C9.4365 9.21338 8.98879 9.66109 8.98879 10.2134V10.6403C8.75943 10.6724 8.53442 10.7329 8.31903 10.8208C7.97718 10.9603 7.66632 11.1661 7.40435 11.4263C7.14237 11.6864 6.93445 11.9959 6.79257 12.3367C6.65069 12.6776 6.57765 13.0432 6.57766 13.4124H6.57763L6.57768 13.4193C6.5828 14.1616 6.88127 14.8717 7.40799 15.3948C7.9347 15.9179 8.6469 16.2114 9.38921 16.2114H9.38923H10.6385H10.6386C10.8528 16.2114 11.0584 16.2962 11.2104 16.4471C11.3625 16.5981 11.4486 16.8031 11.4501 17.0174C11.4502 17.029 11.4505 17.0406 11.451 17.0523C11.4556 17.1635 11.4373 17.2746 11.3972 17.3785C11.3571 17.4824 11.296 17.5769 11.2178 17.6562C11.1395 17.7355 11.0458 17.7978 10.9425 17.8393C10.8392 17.8808 10.7284 17.9006 10.617 17.8974C10.6075 17.8971 10.5981 17.897 10.5886 17.897H7.96496C7.41267 17.897 6.96496 18.3447 6.96496 18.897C6.96496 19.4493 7.41267 19.897 7.96496 19.897H8.98879V20.3088C8.98879 20.8611 9.4365 21.3088 9.98879 21.3088C10.5411 21.3088 10.9888 20.8611 10.9888 20.3088V19.876C11.228 19.8461 11.4629 19.7855 11.6877 19.6953C12.0458 19.5515 12.3704 19.3356 12.6414 19.0609C12.9124 18.7863 13.124 18.4588 13.263 18.0989C13.3998 17.7443 13.4634 17.3658 13.4499 16.9861C13.4403 16.2502 13.1423 15.547 12.6198 15.028C12.0931 14.505 11.3809 14.2114 10.6385 14.2114H10.6385H9.38921H9.38918C9.17491 14.2114 8.96933 14.1267 8.8173 13.9757C8.66608 13.8255 8.58004 13.6219 8.57766 13.4089C8.57811 13.3047 8.59894 13.2015 8.63901 13.1053C8.67951 13.008 8.73887 12.9196 8.81366 12.8454C8.88845 12.7711 8.97719 12.7124 9.07477 12.6725C9.17236 12.6327 9.27686 12.6126 9.38226 12.6133V12.6133H9.38921H11.8129C12.3652 12.6133 12.8129 12.1656 12.8129 11.6133C12.8129 11.061 12.3652 10.6133 11.8129 10.6133H10.9888V10.2134Z" fill="black"/>
</svg>
