<svg width="27" height="21" viewBox="0 0 27 21" fill="none" xmlns="http://www.w3.org/2000/svg">
<path fill-rule="evenodd" clip-rule="evenodd" d="M17.9293 1.72972C18.1053 1.20625 17.8237 0.639173 17.3002 0.46313C16.7767 0.287086 16.2096 0.568735 16.0336 1.09221L9.98359 19.0822C9.80754 19.6057 10.0892 20.1728 10.6127 20.3488C11.1361 20.5248 11.7032 20.2432 11.8793 19.7197L17.9293 1.72972ZM19.238 4.7814C19.5915 4.35707 20.2221 4.29964 20.6464 4.65314L26.6364 9.64314C26.8646 9.83324 26.9965 10.1149 26.9964 10.412C26.9962 10.709 26.8641 10.9905 26.6357 11.1804L20.6457 16.1604C20.221 16.5135 19.5905 16.4554 19.2374 16.0308C18.8843 15.6061 18.9424 14.9756 19.3671 14.6225L24.4331 10.4107L19.3663 6.18979C18.942 5.83629 18.8846 5.20574 19.238 4.7814ZM8.67443 4.79066C9.0282 5.21477 8.97119 5.84536 8.54709 6.19913L3.49857 10.4105L8.54633 14.6127C8.97078 14.966 9.02842 15.5966 8.67506 16.021C8.32171 16.4455 7.69117 16.5031 7.26672 16.1498L1.29672 11.1798C1.06863 10.9899 0.93667 10.7085 0.936523 10.4117C0.936377 10.1149 1.06806 9.83343 1.29596 9.64332L7.26596 4.66332C7.69006 4.30955 8.32065 4.36656 8.67443 4.79066Z" fill="black"/>
</svg>
