<svg width="29" height="29" viewBox="0 0 29 29" fill="none" xmlns="http://www.w3.org/2000/svg">
<g clip-path="url(#clip0_147_4606)">
<path fill-rule="evenodd" clip-rule="evenodd" d="M18.9927 5.31903C19.1688 4.79555 18.8871 4.22848 18.3637 4.05243C17.8402 3.87639 17.2731 4.15804 17.0971 4.68152L11.0471 22.6715C10.871 23.195 11.1527 23.7621 11.6761 23.9381C12.1996 24.1142 12.7667 23.8325 12.9427 23.309L18.9927 5.31903ZM20.3015 8.37071C20.655 7.94637 21.2856 7.88895 21.7099 8.24244L27.6999 13.2324C27.9281 13.4225 28.06 13.7043 28.0598 14.0013C28.0597 14.2983 27.9275 14.5798 27.6992 14.7697L21.7092 19.7497C21.2845 20.1028 20.654 20.0447 20.3009 19.6201C19.9478 19.1954 20.0059 18.5649 20.4305 18.2118L25.4966 14L20.4298 9.77909C20.0055 9.4256 19.948 8.79504 20.3015 8.37071ZM9.7379 8.37997C10.0917 8.80407 10.0347 9.43466 9.61056 9.78844L4.56205 13.9998L9.6098 18.202C10.0343 18.5554 10.0919 19.1859 9.73854 19.6103C9.38518 20.0348 8.75465 20.0924 8.3302 19.7391L2.3602 14.7691C2.13211 14.5792 2.00015 14.2978 2 14.001C1.99985 13.7042 2.13154 13.4227 2.35944 13.2326L8.32944 8.25263C8.75354 7.89885 9.38413 7.95587 9.7379 8.37997Z" fill="black"/>
</g>
<defs>
<clipPath id="clip0_147_4606">
<rect width="28" height="28" fill="white" transform="translate(0.996094 0.40625)"/>
</clipPath>
</defs>
</svg>
