<svg width="26" height="27" viewBox="0 0 26 27" fill="none" xmlns="http://www.w3.org/2000/svg">
<path fill-rule="evenodd" clip-rule="evenodd" d="M13.2931 0.290571C12.9013 -0.0986634 12.2682 -0.0965842 11.879 0.295215L7.95725 4.24272C7.56801 4.63452 7.57009 5.26768 7.96189 5.65692C8.35369 6.04616 8.98685 6.04409 9.37609 5.65229L11.5056 3.50875V9.36288L5.29352 9.36297C4.74125 9.36297 4.29355 9.81067 4.29354 10.3629L4.29339 15.3744C4.29339 15.3979 4.2942 15.4213 4.2958 15.4444H1C0.447715 15.4444 0 15.8922 0 16.4444V25.037C0 25.5893 0.447715 26.037 1 26.037H9.59259C10.1449 26.037 10.5926 25.5893 10.5926 25.037V16.4444C10.5926 15.8922 10.1449 15.4444 9.59259 15.4444H6.29098C6.29258 15.4213 6.29339 15.398 6.29339 15.3744L6.29351 11.363L18.7611 11.3628L18.761 15.3742C18.761 15.3978 18.7618 15.4212 18.7634 15.4444H15.4444C14.8922 15.4444 14.4444 15.8922 14.4444 16.4444V25.037C14.4444 25.5893 14.8922 26.037 15.4444 26.037H24.037C24.5893 26.037 25.037 25.5893 25.037 25.037V16.4444C25.037 15.8922 24.5893 15.4444 24.037 15.4444H20.7586C20.7602 15.4212 20.761 15.3978 20.761 15.3742L20.7611 10.3628C20.7611 10.0976 20.6557 9.8432 20.4682 9.65565C20.2807 9.46811 20.0263 9.36276 19.7611 9.36276L13.5056 9.36285L13.5056 3.32082L15.8245 5.62444C16.2163 6.01368 16.8494 6.01159 17.2387 5.61979C17.6279 5.22798 17.6258 4.59482 17.234 4.20558L13.2931 0.290571Z" fill="black"/>
</svg>
