<svg width="17" height="25" viewBox="0 0 17 25" fill="none" xmlns="http://www.w3.org/2000/svg">
<path fill-rule="evenodd" clip-rule="evenodd" d="M15.9041 1.77091C16.2576 1.34658 16.2002 0.716023 15.7758 0.362529C15.3515 0.00903428 14.721 0.0664619 14.3675 0.490797L8.55329 7.47013L2.7514 0.491554C2.39833 0.066871 1.76783 0.0088215 1.34315 0.361897C0.918464 0.714973 0.860414 1.34547 1.21349 1.77015L7.78356 9.67271C7.97344 9.9011 8.25502 10.0333 8.55203 10.0334C8.84904 10.0336 9.13074 9.90167 9.32085 9.67347L15.9041 1.77091ZM14.3684 24.5502C14.7221 24.9743 15.3527 25.0313 15.7768 24.6775C16.2009 24.3237 16.258 23.6932 15.9042 23.2691L9.33411 15.3929C9.144 15.165 8.86249 15.0333 8.56571 15.0334C8.26893 15.0336 7.98755 15.1656 7.79767 15.3936L1.24078 23.2698C0.887429 23.6943 0.945064 24.3248 1.36952 24.6782C1.79397 25.0315 2.4245 24.9739 2.77786 24.5494L8.56698 17.5955L14.3684 24.5502Z" fill="black"/>
</svg>
