<svg width="28" height="27" viewBox="0 0 28 27" fill="none" xmlns="http://www.w3.org/2000/svg">
<path fill-rule="evenodd" clip-rule="evenodd" d="M26.107 19.3508C27.287 21.1806 27.0759 23.6471 25.4738 25.2492C23.8424 26.8806 21.315 27.0697 19.4759 25.8165C15.8553 27.4343 11.6668 27.3671 8.09339 25.6149C6.23869 27.0851 3.53542 26.9633 1.82139 25.2492C0.0418096 23.4697 -0.0215016 20.6237 1.63146 18.7683C0.209543 15.3838 0.237659 11.5362 1.71573 8.17007C-0.0236021 6.31787 0.011466 3.40594 1.82093 1.59648C3.60359 -0.186187 6.45631 -0.24663 8.31153 1.41514C11.7547 -0.196363 15.7392 -0.264545 19.2281 1.21031C21.082 -0.238084 23.7678 -0.109311 25.4738 1.59663C27.1117 3.23456 27.2957 5.77585 26.0258 7.61675C27.8493 11.3012 27.8764 15.6467 26.107 19.3508ZM24.4811 9.03915C22.676 10.0742 20.3335 9.8207 18.7916 8.27879C17.3192 6.80639 17.0217 4.604 17.8991 2.83661C15.1848 1.85253 12.1708 1.93106 9.5045 3.07201C10.2446 4.7961 9.91075 6.87097 8.50309 8.27863C7.12366 9.65807 5.10351 10.0063 3.4006 9.32327C2.34708 11.9584 2.31507 14.9082 3.3045 17.5624C5.02709 16.8266 7.09795 17.1615 8.50355 18.5671C9.97736 20.0409 10.274 22.2461 9.39352 24.0143C12.1291 25.2196 15.2428 25.2983 18.0278 24.2504C16.9968 22.4461 17.2515 20.1072 18.7916 18.5671C20.3613 16.9974 22.7605 16.763 24.578 17.8638C25.7242 15.0379 25.6919 11.8443 24.4811 9.03915Z" fill="black"/>
</svg>
