<svg width="26" height="26" viewBox="0 0 26 26" fill="none" xmlns="http://www.w3.org/2000/svg">
<path fill-rule="evenodd" clip-rule="evenodd" d="M9.23112 3.65668C11.6541 2.67731 14.3819 2.67723 16.805 3.65668C16.2319 5.19473 16.5636 6.99332 17.8001 8.22977C19.0365 9.46621 20.8351 9.79791 22.3731 9.22487C23.3525 11.6479 23.3525 14.3757 22.3731 16.7987C20.8351 16.2257 19.0365 16.5574 17.8001 17.7938C16.5636 19.0302 16.2319 20.8288 16.805 22.3669C14.382 23.3462 11.6543 23.3463 9.23134 22.3669C9.80453 20.8288 9.47287 19.0301 8.23635 17.7936C6.99981 16.557 5.20106 16.2254 3.66293 16.7986C2.68357 14.3757 2.68356 11.6479 3.66295 9.22487C5.201 9.79791 6.99958 9.46621 8.23602 8.22977C9.47247 6.99332 9.80417 5.19474 9.23112 3.65668ZM17.9478 24.0539C14.818 25.4505 11.2182 25.4506 8.08839 24.054C6.39028 25.6011 3.75849 25.554 2.1172 23.9127C0.475934 22.2715 0.428838 19.6397 1.97591 17.9416C0.579242 14.8117 0.579251 11.2119 1.97586 8.08206C0.428503 6.38396 0.475508 3.75198 2.11687 2.11062C3.75824 0.469255 6.3902 0.422247 8.0883 1.96959C11.2182 0.572917 14.8181 0.573016 17.9478 1.96959C19.6459 0.422247 22.2779 0.469254 23.9192 2.11062C25.5606 3.75198 25.6076 6.38396 24.0602 8.08206C25.4568 11.2118 25.4568 14.8117 24.0602 17.9415C25.6076 19.6396 25.5606 22.2716 23.9192 23.9129C22.2778 25.5543 19.6459 25.6013 17.9478 24.0539Z" fill="black"/>
</svg>
