<svg width="26" height="26" viewBox="0 0 26 26" fill="none" xmlns="http://www.w3.org/2000/svg">
<path fill-rule="evenodd" clip-rule="evenodd" d="M12.3716 0.307911C12.7608 -0.0838889 13.394 -0.0859681 13.7858 0.303266L17.6406 4.13274C18.0324 4.52197 18.0344 5.15513 17.6452 5.54694C17.256 5.93875 16.6228 5.94083 16.231 5.55159L14.0001 3.33531V9.4026L20.3844 9.40249C20.6496 9.40249 20.904 9.50784 21.0915 9.69538C21.2791 9.88293 21.3844 10.1373 21.3844 10.4025L21.3843 14.3042H25C25.5523 14.3042 26 14.7519 26 15.3042V24.5349C26 25.0872 25.5523 25.5349 25 25.5349H15.7693C15.217 25.5349 14.7693 25.0872 14.7693 24.5349V15.3042C14.7693 14.7519 15.217 14.3042 15.7693 14.3042H19.3843L19.3844 11.4025L6.61572 11.4027L6.61562 14.3042H10.2307C10.783 14.3042 11.2307 14.7519 11.2307 15.3042V24.5349C11.2307 25.0872 10.783 25.5349 10.2307 25.5349H1C0.447715 25.5349 0 25.0872 0 24.5349V15.3042C0 14.7519 0.447715 14.3042 1 14.3042H4.61562L4.61575 10.4027C4.61577 9.85045 5.06347 9.40275 5.61573 9.40274L12.0001 9.40263V3.51962L9.95444 5.57873C9.5652 5.97053 8.93203 5.97261 8.54023 5.58337C8.14843 5.19413 8.14635 4.56096 8.53559 4.16916L12.3716 0.307911Z" fill="black"/>
</svg>
