<svg width="27" height="19" viewBox="0 0 27 19" fill="none" xmlns="http://www.w3.org/2000/svg">
<path d="M21.9919 7.80445L21.2559 7.59945C20.7329 7.45445 20.5349 6.81845 20.8819 6.40145L21.4249 5.74845C22.3519 4.63445 22.2779 2.99745 21.2539 1.97145C20.1579 0.873449 18.3779 0.873449 17.2819 1.97145C16.2579 2.99745 16.1839 4.63445 17.1109 5.74845L17.6539 6.40145C18.0009 6.81845 17.8019 7.45445 17.2799 7.59945L16.5459 7.80345C15.9819 7.96045 15.4739 8.22545 15.0249 8.55945C15.0179 8.56745 15.0139 8.57745 15.0069 8.58545L14.4639 9.23845C14.1169 9.65545 14.3159 10.2914 14.8379 10.4364L15.5739 10.6414C17.3189 11.1264 18.5939 12.5694 18.9049 14.3054H25.4009V12.2884C25.4009 10.1974 24.0069 8.36345 21.9929 7.80345L21.9919 7.80445Z" fill="black"/>
<path fill-rule="evenodd" clip-rule="evenodd" d="M16.5741 1.26499C18.0608 -0.224397 20.475 -0.224397 21.9616 1.26499C23.3504 2.65649 23.451 4.87673 22.1938 6.38782L21.9002 6.74085L22.213 6.82797C22.229 6.83158 22.2449 6.83559 22.2608 6.84C24.7074 7.5203 26.4009 9.74829 26.4009 12.2884V14.3054C26.4009 14.8577 25.9532 15.3054 25.4009 15.3054H18.9049C18.4206 15.3054 18.0059 14.9585 17.9205 14.4818C17.676 13.1169 16.6739 11.9851 15.3061 11.6049L16.2301 9.28953M16.5741 1.26499C15.1853 2.65649 15.0848 4.87673 16.342 6.38782ZM21.523 6.6358L21.5242 6.63612ZM17.9896 2.67791C17.3305 3.33833 17.283 4.39193 17.8795 5.10881L18.4226 5.76181C19.2333 6.73652 18.7689 8.2237 17.5475 8.56297L16.8141 8.76682C16.4218 8.87607 16.0569 9.05561 15.722 9.28953L15.4822 9.57785L15.8417 9.67797C17.6801 10.1891 19.088 11.5743 19.6767 13.3054H24.4009V12.2884C24.4009 10.6611 23.3256 9.2321 21.7668 8.77881C21.7524 8.77546 21.7379 8.77179 21.7236 8.76778L20.9887 8.5631L20.9876 8.56278C19.764 8.2227 19.3035 6.73524 20.113 5.76207L20.656 5.10908C21.2525 4.39219 21.2052 3.33833 20.5461 2.67791M17.9896 2.67791C18.6949 1.97136 19.8408 1.97136 20.5461 2.67791Z" fill="black"/>
<path d="M11.5283 10.5625L11.943 10.4384C12.284 10.3434 12.2875 9.87993 12.2905 9.56393C11.6875 8.65593 10.96 8.1134 9.854 7.8054L9.12 7.6014C8.598 7.4564 8.399 6.8204 8.746 6.4034L9.289 5.7504C10.216 4.6364 10.142 2.9994 9.118 1.9734C8.022 0.875402 6.242 0.875402 5.146 1.9734C4.122 2.9994 4.048 4.6364 4.975 5.7504L5.518 6.4034C5.865 6.8204 5.666 7.4564 5.144 7.6014L4.408 7.8064C2.394 8.3664 1 10.2004 1 12.2914V14.3084H7.882C8.192 12.5724 9.466 11.1294 11.211 10.6444L11.5283 10.5625Z" fill="black"/>
<path fill-rule="evenodd" clip-rule="evenodd" d="M4.43825 1.26694C5.92492 -0.222444 8.33908 -0.222444 9.82575 1.26694C11.2146 2.65852 11.3151 4.87894 10.0577 6.39004L9.76449 6.74262L10.1218 6.84192C11.4601 7.21463 12.3882 7.90344 13.1235 9.01071C13.2342 9.17736 13.2923 9.37338 13.2904 9.57342C13.2904 9.58118 13.2903 9.58963 13.2903 9.59873C13.2892 9.7422 13.2871 10.0468 13.2108 10.3378C13.1258 10.6616 12.8788 11.2101 12.223 11.3984L11.8151 11.5205C11.8029 11.5242 11.7906 11.5276 11.7782 11.5308L11.4704 11.6102C10.1072 11.9926 9.10964 13.1222 8.86643 14.4842C8.78126 14.9611 8.36647 15.3084 7.882 15.3084H1C0.447715 15.3084 0 14.8607 0 14.3084V12.2914C0 9.75139 1.69326 7.52351 4.13968 6.84307L4.49966 6.74281L4.20633 6.39004C2.94912 4.87895 3.04946 2.65844 4.43825 1.26694ZM6.7287 3.12568C7.43401 2.41908 7.70487 1.97325 8.4102 2.67982ZM8.4102 2.67982C9.06929 3.34024 9.11687 4.39388 8.52033 5.11076ZM8.52033 5.11076L7.97733 5.76376ZM7.97733 5.76376C7.16655 6.73847 7.63098 8.22565 8.85236 8.56492L9.58573 8.76875C10.2415 8.95137 10.7022 9.22026 11.0903 9.64278L10.9611 9.67613L10.9432 9.68092C9.10444 10.192 7.6977 11.5771 7.10981 13.3084M11.6746 9.47509L11.664 9.47815C11.6676 9.47709 11.6711 9.47607 11.6746 9.47509Z" fill="black"/>
<path d="M11.5718 9.23934L11.0288 8.58634C10.1018 7.47234 10.1758 5.83534 11.1998 4.80934C12.2958 3.71134 14.0758 3.71134 15.1718 4.80934C16.1958 5.83534 16.2698 7.47234 15.3428 8.58634L14.7998 9.23934C14.4528 9.65634 14.6518 10.2923 15.1748 10.4373L15.9108 10.6423C17.9248 11.2023 19.3188 13.0363 19.3188 15.1273V17.1433H7.05884V15.1233C7.05884 13.0343 8.45084 11.2013 10.4638 10.6413L11.1978 10.4373C11.7208 10.2923 11.9188 9.65634 11.5718 9.23934Z" fill="black"/>
<path fill-rule="evenodd" clip-rule="evenodd" d="M10.4921 4.10288C11.9788 2.61349 14.3929 2.61349 15.8796 4.10288C17.2685 5.49446 17.369 7.71488 16.1115 9.22598L15.8184 9.57852L16.1787 9.67889C18.6254 10.3592 20.3188 12.5872 20.3188 15.1273V17.1433C20.3188 17.6956 19.8711 18.1433 19.3188 18.1433H7.05884C6.50655 18.1433 6.05884 17.6956 6.05884 17.1433V15.1233C6.05884 12.5854 7.75002 10.3583 10.1958 9.67793L10.5533 9.57856L10.2602 9.22598C9.00296 7.71489 9.1033 5.49438 10.4921 4.10288ZM15.442 9.47369L15.4432 9.47401Z" fill="black"/>
</svg>
