<svg width="28" height="27" viewBox="0 0 28 27" fill="none" xmlns="http://www.w3.org/2000/svg">
<path fill-rule="evenodd" clip-rule="evenodd" d="M9.4234 0.318359C10.1138 0.318359 10.6734 0.878003 10.6734 1.56836V2.20249H8.1734V1.56836C8.1734 0.878003 8.73305 0.318359 9.4234 0.318359ZM8.1734 2.20312H2C1.30964 2.20312 0.75 2.76277 0.75 3.45312V9.56836H27.2499V12.0684H0.75V25.5686C0.75 26.2589 1.30964 26.8186 2 26.8186H6.75V24.7072C6.75 22.0817 8.45961 19.7509 10.9726 19.0276L10.9166 18.9588C9.60911 17.3533 9.71139 15.0005 11.159 13.5185C11.9414 12.7176 12.9708 12.3176 14 12.3184C15.0292 12.3176 16.0586 12.7176 16.841 13.5185C18.2886 15.0005 18.3909 17.3533 17.0834 18.9588L17.0274 19.0276C19.5404 19.7509 21.25 22.0817 21.25 24.7072V26.8186H26C26.6904 26.8186 27.25 26.2589 27.25 25.5686V3.45312C27.25 2.76277 26.6904 2.20312 26 2.20312H19.8266V5.91015C19.8266 6.6005 19.267 7.16015 18.5766 7.16015C17.8862 7.16015 17.3266 6.6005 17.3266 5.91015V2.20312H10.6734V5.90999C10.6734 6.60034 10.1138 7.15999 9.4234 7.15999C8.73305 7.15999 8.1734 6.60034 8.1734 5.90999V2.20312ZM18.75 26.8186V24.7072C18.75 23.1607 17.7432 21.8302 16.3257 21.4271L15.6081 21.2233C14.2049 20.8252 13.7246 19.1251 14.6132 18.0335L15.1447 17.3804C15.6519 16.7576 15.6095 15.8356 15.0526 15.2654C14.7607 14.9666 14.3802 14.8176 14 14.8184C13.6198 14.8176 13.2393 14.9666 12.9474 15.2654C12.3905 15.8356 12.3481 16.7576 12.8553 17.3804L13.3868 18.0335C14.2754 19.1251 13.7951 20.8252 12.3919 21.2233L11.6743 21.4271C10.2568 21.8302 9.25 23.1607 9.25 24.7072V26.8186H18.75ZM19.8266 1.56836V2.20031H17.3266V1.56836C17.3266 0.878003 17.8862 0.318359 18.5766 0.318359C19.267 0.318359 19.8266 0.878003 19.8266 1.56836Z" fill="black"/>
</svg>
