<svg width="24" height="23" viewBox="0 0 24 23" fill="none" xmlns="http://www.w3.org/2000/svg">
<path fill-rule="evenodd" clip-rule="evenodd" d="M13.814 0.783762C18.4518 0.296276 22.6067 3.66076 23.0942 8.29855C23.3133 10.383 22.7533 12.3714 21.6505 13.9711L23.4954 18.3926C23.6669 18.8036 23.546 19.2784 23.1988 19.5573C22.8516 19.8362 22.3618 19.8519 21.9975 19.5957L18.1479 16.8896C17.3531 17.2453 16.49 17.483 15.5794 17.5787C15.153 17.6235 14.7303 17.6357 14.3139 17.6173C12.8023 19.6654 10.2733 20.8847 7.55443 20.5989C6.78028 20.5175 6.04504 20.3196 5.36522 20.0239L2.10274 22.3173C1.73842 22.5734 1.24864 22.5577 0.901434 22.2789C0.554227 22 0.433276 21.5251 0.604771 21.1141L2.17007 17.3628C1.22754 15.9659 0.751671 14.2403 0.941669 12.4327C1.29144 9.10503 3.7858 6.52465 6.90486 5.91567C6.90618 5.91541 6.90751 5.91515 6.90883 5.9149C8.06311 3.16936 10.6393 1.11746 13.814 0.783762ZM6.31245 8.16692C4.50406 8.89275 3.14841 10.5707 2.93071 12.6418C2.77512 14.122 3.22857 15.524 4.09118 16.602C4.31954 16.8874 4.37402 17.2746 4.23328 17.6119L3.78277 18.6916L4.69675 18.049C5.00711 17.8309 5.41419 17.8071 5.74783 17.9877C6.35342 18.3154 7.03273 18.533 7.7635 18.6099C9.38358 18.7801 10.9129 18.22 12.0226 17.1922C8.9825 16.1754 6.65646 13.4626 6.29922 10.0639C6.23154 9.42 6.23821 8.78473 6.31245 8.16692Z" fill="black"/>
</svg>
