<svg width="27" height="25" viewBox="0 0 27 25" fill="none" xmlns="http://www.w3.org/2000/svg">
<path fill-rule="evenodd" clip-rule="evenodd" d="M26.3936 9.15638C25.8627 4.10623 21.2692 0.449874 16.1336 0.989681C12.7964 1.34047 10.0514 3.37691 8.68394 6.14592C4.69137 6.32482 1.32175 9.39978 0.891268 13.4952C0.678713 15.5174 1.21974 17.4467 2.28646 19.0008L0.504463 23.2714C0.33297 23.6824 0.45392 24.1573 0.801126 24.4361C1.14833 24.715 1.63811 24.7307 2.00244 24.4746L5.71982 21.8614C6.48881 22.2035 7.32315 22.4322 8.20312 22.5247C11.208 22.8406 14.0027 21.4945 15.6753 19.2304C16.446 19.3437 17.2442 19.3632 18.0559 19.2779C19.0967 19.1685 20.0799 18.8951 20.9817 18.4868C21.3226 18.3324 21.7217 18.3511 22.0297 18.5638L24.1378 20.0198C24.9611 20.5884 26.0167 19.7292 25.6271 18.8076L24.6182 16.4208C24.4741 16.0798 24.5338 15.6897 24.7484 15.3882C25.997 13.6343 26.6345 11.4488 26.3936 9.15638ZM13.5484 18.6566C12.2637 19.9943 10.3974 20.7443 8.41219 20.5357C7.57597 20.4478 6.79829 20.1987 6.10491 19.8234C5.77127 19.6429 5.36418 19.6666 5.05383 19.8848L3.68246 20.8488L4.35074 19.2473C4.49149 18.91 4.43701 18.5228 4.20865 18.2374C3.22139 17.0036 2.70222 15.3986 2.88031 13.7043C3.17589 10.8922 5.30302 8.71612 7.95177 8.23666C7.75134 9.15778 7.69232 10.1246 7.79602 11.1112C8.16259 14.5986 10.4665 17.4213 13.5484 18.6566Z" fill="black"/>
</svg>
