<svg width="26" height="17" viewBox="0 0 26 17" fill="none" xmlns="http://www.w3.org/2000/svg">
<path fill-rule="evenodd" clip-rule="evenodd" d="M22.4694 6.89408L21.7072 6.68176C21.1655 6.53158 20.9604 5.87288 21.3198 5.441L21.8822 4.7647C22.8423 3.61094 22.7656 1.91551 21.7051 0.852891C20.57 -0.284297 18.7265 -0.284297 17.5913 0.852891C16.5308 1.91551 16.4541 3.61094 17.4142 4.7647L17.9766 5.441C18.336 5.87288 18.1299 6.53158 17.5893 6.68176L16.8291 6.89304C16.3282 7.03246 15.87 7.25411 15.4564 7.53252C16.2745 6.38734 16.1563 4.80322 15.1471 3.79208C14.012 2.65489 12.1684 2.65489 11.0333 3.79208C9.97278 4.8547 9.89614 6.55012 10.8562 7.70388L11.0192 7.89982C10.5254 7.42955 9.93517 7.10808 9.17 6.89499L8.40981 6.68371C7.86918 6.53354 7.66308 5.87484 8.02246 5.44295L8.58484 4.76665C9.54492 3.61289 9.46828 1.91746 8.40774 0.854844C7.27262 -0.282344 5.42909 -0.282344 4.29397 0.854844C3.23343 1.91746 3.15679 3.61289 4.11687 4.76665L4.67925 5.44295C5.03864 5.87484 4.83253 6.53354 4.2919 6.68371L3.52963 6.89603C1.44375 7.47601 0 9.37547 0 11.5411V12.6301C0 13.1824 0.447715 13.6301 1 13.6301H6.81869C6.76987 13.9052 6.74453 14.1873 6.74453 14.4742V15.5663C6.74453 16.1186 7.19224 16.5663 7.74453 16.5663H18.4421C18.9944 16.5663 19.4421 16.1186 19.4421 15.5663V14.4783C19.4421 14.189 19.4163 13.9044 19.3667 13.6271H25.0001C25.5524 13.6271 26.0001 13.1794 26.0001 12.6271V11.5381C26.0001 9.37248 24.5564 7.47303 22.4705 6.89304L22.4694 6.89408Z" fill="black"/>
</svg>
