<svg width="24" height="27" viewBox="0 0 24 27" fill="none" xmlns="http://www.w3.org/2000/svg">
<path fill-rule="evenodd" clip-rule="evenodd" d="M8.97988 1.73427C8.97988 1.18198 8.53217 0.734268 7.97988 0.734268C7.4276 0.734268 6.97988 1.18198 6.97988 1.73427V3.51654H1.95972C1.40743 3.51654 0.959717 3.96425 0.959717 4.51654V9.48195H1.0553H23.6562V4.51654C23.6562 3.96425 23.2085 3.51654 22.6562 3.51654H17.6361V1.73447C17.6361 1.18219 17.1884 0.73447 16.6361 0.73447C16.0838 0.73447 15.6361 1.18219 15.6361 1.73447V3.51654H8.97988V1.73427ZM23.6562 11.482H1.0553H0.959717V23.4309C0.959717 23.9831 1.40743 24.4309 1.95972 24.4309H16.6855H22.6562C23.2085 24.4309 23.6562 23.9831 23.6562 23.4309V17.7589V11.482Z" fill="black"/>
<path d="M10.3086 18.3794L10.8112 18.997C11.1324 19.3914 10.9491 19.9929 10.465 20.1301L9.78557 20.323C7.92227 20.8527 6.63379 22.5863 6.63379 24.5621V25.3765H17.982V24.5659C17.982 22.5882 16.6917 20.8536 14.8275 20.324L14.1462 20.1301C13.6621 19.9929 13.4779 19.3914 13.7991 18.997L14.3017 18.3794C15.1598 17.3258 15.0913 15.7775 14.1434 14.8071C13.129 13.7686 11.4813 13.7686 10.4668 14.8071C9.51899 15.7775 9.45049 17.3258 10.3086 18.3794Z" stroke="white" stroke-width="2" stroke-linecap="round" stroke-linejoin="round"/>
</svg>
