<svg width="24" height="27" viewBox="0 0 24 27" fill="none" xmlns="http://www.w3.org/2000/svg">
<path fill-rule="evenodd" clip-rule="evenodd" d="M8.42334 1C8.42334 0.447715 7.97562 0 7.42334 0C6.87106 0 6.42334 0.447715 6.42334 1V2.88463H1C0.447715 2.88463 0 3.33234 0 3.88463V9.25012H0.101074H24V3.88463C24 3.33234 23.5523 2.88463 23 2.88463H17.5767V1.00021C17.5767 0.447929 17.1289 0.000213623 16.5767 0.000213623C16.0244 0.000213623 15.5767 0.447929 15.5767 1.00021V2.88463H8.42334V1ZM24 11.2501H0.101074H0V24.0001C0 24.5524 0.447715 25.0001 1 25.0001H16.6289H23C23.5523 25.0001 24 24.5524 24 24.0001V17.9449V11.2501Z" fill="black"/>
<path d="M18 25.0769C17.8145 23.1122 16.5052 21.4432 14.6744 20.9057L13.9513 20.693C13.4375 20.5426 13.242 19.8827 13.5829 19.4501L14.1164 18.7727C15.0271 17.617 14.9544 15.9187 13.9484 14.8543C12.8716 13.7152 11.1229 13.7152 10.0461 14.8543C9.04005 15.9187 8.96735 17.617 9.87809 18.7727L10.4116 19.4501C10.7525 19.8827 10.5579 20.5426 10.0441 20.693L9.323 20.9046C7.49201 21.4425 6.18398 23.1123 6 25.0769" stroke="white" stroke-width="2" stroke-linecap="square" stroke-linejoin="round"/>
</svg>
