<svg width="27" height="25" viewBox="0 0 27 25" fill="none" xmlns="http://www.w3.org/2000/svg">
<path d="M13.3978 11.3873L14.3282 10.2955C15.9156 8.43243 15.7884 5.69589 14.0344 3.98072C12.1563 2.14445 9.10876 2.14445 7.23063 3.98072C5.47656 5.69589 5.34946 8.43243 6.93676 10.2955L7.86718 11.3873C8.46102 12.0841 8.12139 13.1482 7.22555 13.3904L5.96567 13.7328C2.51549 14.6688 0.12793 17.7359 0.12793 21.2317V23.6035C0.12793 24.1558 0.575645 24.6035 1.12793 24.6035H20.1279C20.6802 24.6035 21.1279 24.1558 21.1279 23.6035V21.2258C21.1279 17.7329 18.7434 14.6688 15.2963 13.7328L14.0384 13.3914C13.1436 13.1482 12.803 12.0841 13.3978 11.3873Z" fill="black"/>
<path d="M11.6338 3.34371C11.7588 3.18171 11.8938 3.02671 12.0418 2.87871C13.8888 1.02871 16.8858 1.02871 18.7328 2.87871C20.4578 4.60671 20.5828 7.36371 19.0218 9.24071L18.1068 10.3407C17.5218 11.0427 17.8568 12.1137 18.7368 12.3587L19.9738 12.7027C23.3638 13.6457 25.7088 16.7327 25.7088 20.2517V23.6547H19.0218" stroke="black" stroke-width="2" stroke-linecap="round" stroke-linejoin="round"/>
</svg>
