<svg width="26" height="25" viewBox="0 0 26 25" fill="none" xmlns="http://www.w3.org/2000/svg">
<path d="M13.322 11.0013L14.1859 9.96268C15.6598 8.19039 15.5418 5.5872 13.913 3.9556C12.1691 2.20881 9.33928 2.20881 7.59532 3.9556C5.96656 5.5872 5.84853 8.19039 7.32244 9.96268L8.1864 11.0013C8.73782 11.6642 8.42245 12.6763 7.5906 12.9067L6.42072 13.2325C3.21701 14.1229 1 17.0405 1 20.366L1 23.5735H20.4999V20.3603C20.4999 17.0377 18.2857 14.1229 15.0848 13.2325L13.9168 12.9077C13.0859 12.6763 12.7696 11.6642 13.322 11.0013Z" fill="black" stroke="black" stroke-width="2" stroke-linecap="round" stroke-linejoin="round"/>
<path d="M11.7102 2.74915C12.5175 2.92572 13.2861 3.32795 13.914 3.9568C15.5428 5.5884 15.6608 8.19159 14.1869 9.96388L13.3229 11.0025C12.7715 11.6653 13.0869 12.6766 13.9178 12.9079L15.0858 13.2327C18.2866 14.1231 20.5008 17.0379 20.5008 20.3606V21.927H25V18.7139C25 15.3912 22.7858 12.4764 19.5849 11.586L18.417 11.2612C17.586 11.0299 17.2697 10.0186 17.8221 9.35581L18.6861 8.31717C20.16 6.54489 20.0419 3.94169 18.4132 2.31009C16.6692 0.563302 13.8394 0.563302 12.0955 2.31009C11.9557 2.44984 11.8282 2.59619 11.7102 2.74915Z" fill="white" stroke="black" stroke-width="2" stroke-linecap="round" stroke-linejoin="round"/>
</svg>
