<svg width="28" height="28" viewBox="0 0 28 28" fill="none" xmlns="http://www.w3.org/2000/svg">
<path fill-rule="evenodd" clip-rule="evenodd" d="M20.9,11.4l-1.1-0.3l0.8-1c1.9-2.3,1.7-5.6-0.3-7.7c-2.2-2.2-5.9-2.2-8.1,0l0,0c-1.6-0.1-3.3,0.4-4.5,1.6
	c-2.1,2.1-2.2,5.4-0.3,7.7l0.8,1L7.1,13c-3.7,1-6.3,4.5-6.3,8.3v3.2c0,0.7,0.6,1.2,1.2,1.2h19.5c0.7,0,1.2-0.6,1.2-1.2v-0.4H26
	c0.7,0,1.2-0.6,1.2-1.2v-3.2C27.2,15.8,24.7,12.4,20.9,11.4z M24.8,21.7h-2v-0.3c0-3.9-2.6-7.3-6.3-8.3l-1.1-0.3l0.8-1
	c1.9-2.3,1.7-5.6-0.3-7.7l0,0c0,0,0,0,0,0c0,0,0,0,0,0c-0.2-0.2-0.5-0.4-0.7-0.6c0.1-0.1,0.3-0.1,0.4-0.1c1.1-0.3,2.2,0,3,0.8
	c1.2,1.2,1.3,3,0.2,4.3l-0.9,1l0,0c-1.1,1.4-0.5,3.4,1.2,3.9l1.2,0.3c2.7,0.7,4.5,3.2,4.5,5.9V21.7z" fill="black"/>
</svg>
