<svg width="28" height="26" viewBox="0 0 28 26" fill="none" xmlns="http://www.w3.org/2000/svg">
<path fill-rule="evenodd" clip-rule="evenodd" d="M11.1035 1.8429C11.1035 1.29061 10.6558 0.842896 10.1035 0.842896H2.10347C1.55119 0.842896 1.10347 1.29061 1.10347 1.8429L1.10347 9.8429C1.10347 10.3952 1.55119 10.8429 2.10347 10.8429H5.10347L5.10347 15.8429L0.827078 24.3957C0.494627 25.0606 0.978123 25.8429 1.72151 25.8429H6.10347H10.4854C11.2288 25.8429 11.7123 25.0606 11.3799 24.3957L10.0563 21.7486H17.1035V24.8429C17.1035 25.3952 17.5512 25.8429 18.1035 25.8429H26.1035C26.6558 25.8429 27.1035 25.3952 27.1035 24.8429L27.1035 16.8429C27.1035 16.2906 26.6558 15.8429 26.1035 15.8429H23.0092V10.7611C25.3383 10.3349 27.1035 8.29504 27.1035 5.8429C27.1035 3.08147 24.8649 0.842896 22.1035 0.842896C19.6845 0.842896 17.6668 2.56066 17.2035 4.8429L11.1035 4.8429V1.8429ZM21.0092 10.7228C19.095 10.2954 17.5948 8.77051 17.2035 6.8429L11.1035 6.8429V9.8429C11.1035 10.3952 10.6558 10.8429 10.1035 10.8429H7.10347L7.10347 15.8429L9.05634 19.7486H17.1035V16.8429C17.1035 16.2906 17.5512 15.8429 18.1035 15.8429H21.0092V10.7228Z" fill="black"/>
</svg>
