<svg width="27" height="12" viewBox="0 0 27 12" fill="none" xmlns="http://www.w3.org/2000/svg">
<path fill-rule="evenodd" clip-rule="evenodd" d="M12.4206 10.5905C12.4206 10.0382 11.9729 9.59047 11.4206 9.59047H6.70051C4.64059 9.59047 2.9707 7.92058 2.9707 5.86066C2.9707 3.80075 4.64059 2.13086 6.70051 2.13086L11.4206 2.13086C11.9729 2.13086 12.4206 1.68314 12.4206 1.13086C12.4206 0.578574 11.9729 0.130859 11.4206 0.130859H6.70051C3.53602 0.130859 0.970703 2.69618 0.970703 5.86066C0.970703 9.02515 3.53602 11.5905 6.70051 11.5905H11.4206C11.9729 11.5905 12.4206 11.1428 12.4206 10.5905ZM21.2408 11.6279C24.4053 11.6279 26.9706 9.06262 26.9706 5.89814C26.9706 2.73366 24.4053 0.168335 21.2408 0.168335L16.4673 0.168335C15.915 0.168335 15.4673 0.61605 15.4673 1.16833C15.4673 1.72062 15.915 2.16833 16.4673 2.16833L21.2408 2.16833C23.3008 2.16833 24.9706 3.83822 24.9706 5.89814C24.9706 7.95805 23.3008 9.62794 21.2408 9.62794H16.4673C15.915 9.62794 15.4673 10.0757 15.4673 10.6279C15.4673 11.1802 15.915 11.6279 16.4673 11.6279H21.2408ZM7.83246 4.86747C7.28017 4.86747 6.83246 5.31519 6.83246 5.86747C6.83246 6.41976 7.28017 6.86747 7.83246 6.86747L20.0789 6.86748C20.6311 6.86748 21.0789 6.41976 21.0789 5.86748C21.0789 5.31519 20.6311 4.86748 20.0789 4.86748L7.83246 4.86747Z" fill="black"/>
</svg>
