<svg width="28" height="25" viewBox="0 0 28 25" fill="none" xmlns="http://www.w3.org/2000/svg">
<path fill-rule="evenodd" clip-rule="evenodd" d="M19.1094 20.9864C19.1094 23.1956 20.9002 24.9864 23.1094 24.9864C25.3185 24.9864 27.1094 23.1956 27.1094 20.9864C27.1094 18.7773 25.3185 16.9864 23.1094 16.9864C22.5765 16.9864 22.068 17.0906 21.6031 17.2797L19.305 13.9339C18.9923 13.4787 18.3698 13.3631 17.9145 13.6758C17.4593 13.9885 17.3437 14.6111 17.6564 15.0663L19.9969 18.4737C19.4418 19.1605 19.1094 20.0346 19.1094 20.9864ZM5.7309 17.3288L8.10291 13.9412C8.41969 13.4888 9.04324 13.3788 9.49564 13.6956C9.94805 14.0124 10.058 14.6359 9.74122 15.0883L7.30041 18.5742C7.80816 19.2448 8.10937 20.0804 8.10937 20.9864C8.10937 23.1956 6.31851 24.9864 4.10937 24.9864C1.90024 24.9864 0.109374 23.1956 0.109374 20.9864C0.109374 18.7773 1.90024 16.9864 4.10937 16.9864C4.6866 16.9864 5.23527 17.1087 5.7309 17.3288ZM8.10937 5.75C8.10937 2.71243 10.5718 0.249999 13.6094 0.249999C16.6469 0.25 19.1094 2.71243 19.1094 5.75C19.1094 8.78757 16.6469 11.25 13.6094 11.25C10.5718 11.25 8.10937 8.78757 8.10937 5.75Z" fill="black"/>
</svg>
