<svg width="26" height="24" viewBox="0 0 26 24" fill="none" xmlns="http://www.w3.org/2000/svg">
<path fill-rule="evenodd" clip-rule="evenodd" d="M18.2963 19.9685C18.2963 22.0958 20.0208 23.8203 22.1481 23.8203C24.2755 23.8203 26 22.0958 26 19.9685C26 17.8411 24.2755 16.1166 22.1481 16.1166C21.6485 16.1166 21.171 16.2117 20.7329 16.3849L18.5152 13.1562C18.2025 12.7009 17.58 12.5854 17.1247 12.8981C16.6695 13.2108 16.5539 13.8333 16.8666 14.2885L19.1268 17.579C18.6068 18.2357 18.2963 19.0658 18.2963 19.9685ZM5.37872 16.4311L7.66714 13.1629C7.98392 12.7105 8.60747 12.6005 9.05987 12.9173C9.51228 13.2341 9.62222 13.8576 9.30544 14.31L6.94807 17.6767C7.42287 18.3171 7.7037 19.11 7.7037 19.9685C7.7037 22.0958 5.97917 23.8203 3.85185 23.8203C1.72453 23.8203 -9.65837e-07 22.0958 -8.72849e-07 19.9685C-7.79861e-07 17.8411 1.72453 16.1166 3.85185 16.1166C4.3943 16.1166 4.91056 16.2287 5.37872 16.4311ZM7.7037 5.2963C7.7037 2.37123 10.0749 -6.96107e-07 13 -5.68248e-07C15.9251 -4.40389e-07 18.2963 2.37123 18.2963 5.2963C18.2963 8.22136 15.9251 10.5926 13 10.5926C10.0749 10.5926 7.7037 8.22136 7.7037 5.2963Z" fill="black"/>
</svg>
