<svg width="26" height="23" viewBox="0 0 26 23" fill="none" xmlns="http://www.w3.org/2000/svg">
<path fill-rule="evenodd" clip-rule="evenodd" d="M25.011 9.73339C25.011 4.49586 19.4366 0.25 12.5602 0.25C5.6838 0.25 0.109375 4.49586 0.109375 9.73339C0.109375 12.0328 1.20023 14.0872 2.99023 15.7203C3.2758 15.9809 3.41023 16.3733 3.31718 16.7485L2.38431 20.5101C2.15968 21.4158 3.18824 22.1084 3.94299 21.5596L7.73332 18.8036C7.98124 18.6234 8.29764 18.5683 8.59399 18.6467C8.88814 18.7244 9.20527 18.8012 9.53229 18.8641C9.86373 18.9278 10.1542 19.1346 10.3004 19.4388L11.6486 22.2445C12.0206 23.0187 13.1311 22.9946 13.4692 22.205L14.6264 19.5025C14.7659 19.1769 15.0677 18.9518 15.4162 18.8885C15.8013 18.8186 16.1907 18.7307 16.5326 18.644C16.8313 18.5683 17.1497 18.6231 17.3989 18.8045L21.1805 21.5578C21.9345 22.1068 22.9631 21.4159 22.7401 20.5102L21.812 16.7414C21.7197 16.3667 21.8542 15.975 22.1393 15.7148C23.9284 14.0824 25.011 12.0331 25.011 9.73339ZM18.9561 7.5718C19.3444 7.17906 19.3408 6.54591 18.948 6.15761C18.5553 5.76931 17.9221 5.77291 17.5338 6.16565L11.7397 12.0261L8.9157 9.38842C8.51209 9.01144 7.87929 9.03303 7.50231 9.43664C7.12533 9.84025 7.14692 10.473 7.55053 10.85L11.0849 14.1511C11.4804 14.5206 12.098 14.5083 12.4786 14.1234L18.9561 7.5718Z" fill="black"/>
</svg>
