<svg width="26" height="26" viewBox="0 0 26 26" fill="none" xmlns="http://www.w3.org/2000/svg">
<path fill-rule="evenodd" clip-rule="evenodd" d="M1.16339 0.163574C0.611106 0.163574 0.163391 0.611289 0.163391 1.16357V24.8461C0.163391 25.3984 0.611106 25.8461 1.16339 25.8461H19.3809C19.9332 25.8461 20.3809 25.3984 20.3809 24.8461V14.7555L24.8904 10.246C26.1521 8.98434 26.1521 6.93837 24.8904 5.67671C23.6485 4.43479 21.6466 4.41536 20.3809 5.61844V1.16357C20.3809 0.611289 19.9332 0.163574 19.3809 0.163574H1.16339ZM23.4762 8.83178L18.5856 13.7224L17.0812 15.226L14.8025 15.7646L15.3412 13.4851L20.088 8.73831L20.0935 8.73274L21.7353 7.09093C22.2159 6.61032 22.9956 6.61032 23.4762 7.09093C23.9568 7.57154 23.9568 8.35117 23.4762 8.83178ZM4.80707 3.80713C4.25478 3.80713 3.80707 4.25484 3.80707 4.80713C3.80707 5.35941 4.25478 5.80713 4.80707 5.80713H15.7372C16.2895 5.80713 16.7372 5.35941 16.7372 4.80713C16.7372 4.25484 16.2895 3.80713 15.7372 3.80713H4.80707ZM4.80707 7.4502C4.25478 7.4502 3.80707 7.89791 3.80707 8.4502C3.80707 9.00248 4.25478 9.4502 4.80707 9.4502H11.1833C11.7356 9.4502 12.1833 9.00248 12.1833 8.4502C12.1833 7.89791 11.7356 7.4502 11.1833 7.4502H4.80707ZM3.80707 20.2896C3.80707 19.7373 4.25478 19.2896 4.80707 19.2896H11.1824C11.7346 19.2896 12.1824 19.7373 12.1824 20.2896C12.1824 20.8418 11.7346 21.2896 11.1824 21.2896H4.80707C4.25478 21.2896 3.80707 20.8418 3.80707 20.2896Z" fill="black"/>
</svg>
