<svg width="26" height="26" viewBox="0 0 26 26" fill="none" xmlns="http://www.w3.org/2000/svg">
<path fill-rule="evenodd" clip-rule="evenodd" d="M9.42337 1C9.42337 0.447715 8.97566 0 8.42337 0C7.87109 0 7.42337 0.447715 7.42337 1V1.88477H1C0.447715 1.88477 0 2.33248 0 2.88477V25.0002C0 25.5525 0.447715 26.0002 1 26.0002H25C25.5523 26.0002 26 25.5525 26 25.0002V2.88477C26 2.33248 25.5523 1.88477 25 1.88477H18.5764L18.5764 5.34177C18.5764 5.89405 18.1287 6.34177 17.5764 6.34177C17.0241 6.34177 16.5764 5.89405 16.5764 5.34177V1.88184H18.5764L18.5764 1C18.5764 0.447715 18.1287 0 17.5764 0C17.0241 0 16.5764 0.447715 16.5764 1V1.88477H9.42337V1ZM9.42338 5.34156C9.42338 5.89384 8.97566 6.34156 8.42338 6.34156C7.87109 6.34156 7.42338 5.89384 7.42338 5.34156V1.89014H9.42338V5.34156ZM18.9956 12.2861C19.3861 12.6766 19.3861 13.3097 18.9956 13.7003L17.5518 15.1441L18.9955 16.5879C19.386 16.9784 19.386 17.6116 18.9955 18.0021C18.605 18.3926 17.9718 18.3926 17.5813 18.0021L15.7233 16.1441H14.1443V17.7234L16.0023 19.5815C16.3928 19.972 16.3928 20.6052 16.0023 20.9957C15.6118 21.3862 14.9786 21.3862 14.5881 20.9957L13.1443 19.5519L11.7005 20.9956C11.31 21.3862 10.6768 21.3862 10.2863 20.9956C9.89576 20.6051 9.89576 19.972 10.2863 19.5814L12.1443 17.7234V16.1441H10.5651L8.70711 18.0021C8.31659 18.3926 7.68342 18.3926 7.2929 18.0021C6.90237 17.6116 6.90237 16.9784 7.29289 16.5879L8.73671 15.144L7.29293 13.7003C6.90241 13.3097 6.90241 12.6766 7.29293 12.2861C7.68346 11.8955 8.31662 11.8955 8.70715 12.2861L10.5652 14.1441H12.1443V12.5652L10.2863 10.7072C9.89576 10.3167 9.89575 9.68354 10.2863 9.29301C10.6768 8.90248 11.31 8.90248 11.7005 9.293L13.1443 10.7368L14.5881 9.29305C14.9786 8.90252 15.6118 8.90252 16.0023 9.29305C16.3928 9.68357 16.3928 10.3167 16.0023 10.7073L14.1443 12.5653V14.1441H15.7233L17.5813 12.2861C17.9719 11.8955 18.605 11.8955 18.9956 12.2861Z" fill="black"/>
</svg>
