<svg width="26" height="27" viewBox="0 0 26 27" fill="none" xmlns="http://www.w3.org/2000/svg">
<path fill-rule="evenodd" clip-rule="evenodd" d="M7.96353 0C7.41125 0 6.96353 0.447715 6.96353 1V7.81757H1C0.447715 7.81757 0 8.26528 0 8.81757V25.0021C0 25.5544 0.447716 26.0021 1 26.0021H16.5986C17.1509 26.0021 17.5986 25.5544 17.5986 25.0021V18.9428H24.2337C24.786 18.9428 25.2337 18.4951 25.2337 17.9428V1C25.2337 0.447715 24.786 0 24.2337 0H7.96353ZM17.5986 16.9428H23.2337V2H8.96353V7.81757H16.5986C17.1509 7.81757 17.5986 8.26528 17.5986 8.81757V16.9428Z" fill="black"/>
</svg>
