<svg width="26" height="26" viewBox="0 0 26 26" fill="none" xmlns="http://www.w3.org/2000/svg">
<path fill-rule="evenodd" clip-rule="evenodd" d="M4.31042 0C4.86271 0 5.31042 0.447715 5.31042 1V1.91949H6.81383C7.36611 1.91949 7.81383 2.36721 7.81383 2.91949C7.81383 3.47178 7.36611 3.91949 6.81383 3.91949H3.47979C3.28595 3.91815 3.09374 3.95514 2.91427 4.02839C2.7348 4.10164 2.57159 4.20967 2.43404 4.34628C2.29648 4.48288 2.18732 4.64534 2.11283 4.8243C2.03878 5.00222 2.00044 5.19295 2 5.38563C2.0036 5.77691 2.16132 6.15105 2.43903 6.42684C2.71756 6.70345 3.09418 6.85868 3.48671 6.85867H5.20171C6.12229 6.85865 7.00554 7.2227 7.65873 7.87139C8.30781 8.51599 8.6774 9.38967 8.68827 10.3039C8.70566 10.7762 8.62687 11.2471 8.45661 11.688C8.28425 12.1344 8.02185 12.5406 7.68577 12.8812C7.34969 13.2218 6.9471 13.4895 6.50304 13.6678C6.12258 13.8206 5.71867 13.9049 5.30995 13.9173V14.8558C5.30995 15.4081 4.86224 15.8558 4.30995 15.8558C3.75767 15.8558 3.30995 15.4081 3.30995 14.8558V13.9179H1.53165C0.979365 13.9179 0.531649 13.4702 0.531649 12.9179C0.531649 12.3656 0.979365 11.9179 1.53165 11.9179H5.13313C5.14262 11.9179 5.1521 11.918 5.16159 11.9183C5.36554 11.9241 5.56851 11.8879 5.75785 11.8118C5.94718 11.7358 6.11884 11.6217 6.26216 11.4764C6.40548 11.3312 6.51736 11.158 6.59085 10.9677C6.66434 10.7773 6.69786 10.5739 6.68934 10.37C6.68885 10.3584 6.68857 10.3468 6.68849 10.3352C6.68578 9.94263 6.52795 9.5671 6.24942 9.29049C5.9709 9.01389 5.59429 8.85866 5.20175 8.85867H3.48676C2.56618 8.85868 1.68292 8.49464 1.02972 7.84594C0.37652 7.19725 0.00636578 6.31655 1.68702e-05 5.39598L-3.05176e-05 5.38911C-4.1602e-05 4.93143 0.0905269 4.47828 0.266391 4.05576C0.442261 3.63323 0.699991 3.24967 1.02472 2.92718C1.34946 2.60468 1.73478 2.34962 2.15852 2.17668C2.52562 2.02685 2.91525 1.94123 3.31042 1.92309V1C3.31042 0.447715 3.75814 0 4.31042 0ZM18.32 5.12061C19.5313 5.12061 20.6766 5.4204 21.681 5.9288C21.9668 6.07347 22.166 6.34631 22.2167 6.66262C22.2675 6.97892 22.1636 7.30038 21.9374 7.5272L18.5049 10.9686L20.1401 12.6039L23.4738 9.26128C23.7081 9.02637 24.0436 8.92295 24.3695 8.9852C24.6953 9.04745 24.9691 9.26726 25.1003 9.57198C25.4843 10.4639 25.7098 11.4493 25.7098 12.4997C25.7098 16.5755 22.4066 19.8787 18.3308 19.8787C17.516 19.8787 16.7278 19.7457 15.9901 19.4955L9.58748 25.7172C9.19541 26.0982 8.57004 26.0938 8.18347 25.7072L5.13402 22.6577C4.9448 22.4685 4.83932 22.2114 4.84115 21.9438C4.84298 21.6762 4.95198 21.4205 5.14377 21.2339L11.4259 15.1215C11.1149 14.3067 10.9409 13.4227 10.9409 12.4997C10.9409 8.42381 14.2441 5.12061 18.32 5.12061Z" fill="black"/>
</svg>
