<svg width="26" height="27" viewBox="0 0 26 27" fill="none" xmlns="http://www.w3.org/2000/svg">
<path fill-rule="evenodd" clip-rule="evenodd" d="M5.43362 1.13525C5.43362 0.582969 4.9859 0.135254 4.43362 0.135254C3.88133 0.135254 3.43362 0.582969 3.43362 1.13525V2.12012C3.01854 2.13552 2.60895 2.22367 2.22363 2.38093C1.78999 2.55791 1.39566 2.81893 1.06334 3.14896C0.731021 3.47899 0.467271 3.8715 0.287293 4.30391C0.107321 4.7363 0.0146607 5.20003 0.014672 5.6684H0.0146484L0.0146958 5.67527C0.0211933 6.61738 0.400011 7.5187 1.0685 8.18258C1.73699 8.84646 2.6409 9.21902 3.58303 9.21901H3.58305H5.3543H5.35433C5.76841 9.219 6.16569 9.38275 6.4595 9.67454C6.75332 9.96632 6.91981 10.3625 6.92267 10.7765C6.92275 10.7882 6.92303 10.7998 6.92352 10.8114C6.93251 11.0265 6.89715 11.2411 6.81963 11.4419C6.74211 11.6426 6.62408 11.8253 6.47289 11.9785C6.32171 12.1317 6.14063 12.2522 5.9409 12.3324C5.74117 12.4126 5.52706 12.4508 5.31191 12.4447C5.30243 12.4444 5.29294 12.4443 5.28345 12.4443H1.56378C1.01149 12.4443 0.563776 12.892 0.563776 13.4443C0.563776 13.9966 1.01149 14.4443 1.56378 14.4443H3.43313V15.446C3.43313 15.9983 3.88084 16.446 4.43313 16.446C4.98541 16.446 5.43313 15.9983 5.43313 15.446V14.4445C5.86231 14.4353 6.28682 14.3487 6.68609 14.1884C7.14054 14.0059 7.55255 13.7319 7.8965 13.3833C8.24045 13.0347 8.509 12.6191 8.68539 12.1622C8.85968 11.7108 8.94031 11.2287 8.92246 10.7453C8.91144 9.80951 8.53318 8.91522 7.86881 8.25544C7.20033 7.59156 6.29643 7.21899 5.3543 7.21901H5.35428H3.58303H3.583C3.16892 7.21902 2.77163 7.05527 2.47781 6.76348C2.18481 6.4725 2.01843 6.07774 2.01468 5.66492C2.01512 5.46155 2.05557 5.26024 2.13373 5.07245C2.21233 4.88362 2.32752 4.71219 2.47265 4.56806C2.61779 4.42392 2.79 4.30993 2.97937 4.23264C3.16874 4.15535 3.37155 4.11629 3.57608 4.11771L3.57608 4.11774H3.58303H7.01931C7.57159 4.11774 8.01931 3.67002 8.01931 3.11774C8.01931 2.56545 7.57159 2.11774 7.01931 2.11774H5.43362V1.13525ZM12.3953 15.5361C12.5479 15.9442 12.4753 16.4128 12.163 16.7165L6.22967 22.4862C5.82972 22.8751 5.82533 23.5161 6.21991 23.9104L8.03788 25.7274C8.42441 26.1137 9.04946 26.1182 9.44148 25.7374L15.523 19.8312C15.8176 19.545 16.255 19.4752 16.6449 19.6042C17.3047 19.8227 18.0098 19.9392 18.7409 19.9392C22.4757 19.9392 25.5024 16.9142 25.5024 13.1815C25.5024 12.7436 25.4596 12.3176 25.3792 11.9057C25.2439 11.2117 24.3999 11.043 23.9004 11.5435L21.3666 14.0826C20.9763 14.4738 20.3427 14.4742 19.9519 14.0836L18.1342 12.267C17.7438 11.8768 17.7434 11.244 18.1333 10.8533L20.8391 8.14197C21.3196 7.66054 21.1849 6.84987 20.5293 6.66873C19.9554 6.51018 19.3515 6.42383 18.7295 6.42383C14.9947 6.42383 11.968 9.4488 11.968 13.1815C11.968 14.0079 12.1205 14.8012 12.3953 15.5361Z" fill="black"/>
</svg>
