<svg width="21" height="28" viewBox="0 0 21 28" fill="none" xmlns="http://www.w3.org/2000/svg">
<path fill-rule="evenodd" clip-rule="evenodd" d="M1.99414 0.875C1.30378 0.875 0.744141 1.43464 0.744141 2.125C0.74414 2.81536 1.30378 3.375 1.99414 3.375L2.74402 3.375L2.74402 8.365C2.74402 8.72143 2.89618 9.06091 3.16224 9.29808L8.57709 14.125L3.16232 18.9519C2.89626 19.1891 2.7441 19.5286 2.7441 19.885L2.7441 24.875H1.99408C1.30372 24.875 0.74408 25.4346 0.74408 26.125C0.74408 26.8154 1.30372 27.375 1.99408 27.375L3.9941 27.375L16.9172 27.375L18.9941 27.375C19.6844 27.375 20.2441 26.8154 20.2441 26.125C20.2441 25.4346 19.6844 24.875 18.9941 24.875H18.1672V19.885C18.1672 19.5286 18.015 19.1891 17.749 18.9519L12.3341 14.125L17.7489 9.29808C18.0149 9.06091 18.1671 8.72143 18.1671 8.365V3.375H18.9941C19.6845 3.375 20.2441 2.81536 20.2441 2.125C20.2441 1.43465 19.6845 0.875 18.9941 0.875L16.9171 0.875L3.99402 0.875L1.99414 0.875Z" fill="black"/>
</svg>
