<svg width="24" height="26" viewBox="0 0 24 26" fill="none" xmlns="http://www.w3.org/2000/svg">
<path fill-rule="evenodd" clip-rule="evenodd" d="M15.6397 25.2899C16.7443 25.2899 17.6397 24.3945 17.6397 23.2899L17.6397 17.9459C17.6397 17.9402 17.6397 17.9344 17.6396 17.9287L22.6931 17.9287C23.2454 17.9287 23.6931 17.481 23.6931 16.9287L23.6931 1.9063C23.6931 1.35402 23.2454 0.906301 22.6931 0.906301L7.67073 0.9063C7.11845 0.9063 6.67073 1.35401 6.67073 1.9063L6.67073 7.88308L2.23287 7.88308C1.1283 7.88308 0.232873 8.77851 0.232873 9.88308L0.232872 23.2899C0.232872 24.3945 1.1283 25.2899 2.23287 25.2899L15.6397 25.2899ZM6.67073 9.88308L2.23287 9.88308L2.23287 23.2899L15.6397 23.2899L15.6397 17.9459C15.6397 17.9402 15.6398 17.9344 15.6399 17.9287L7.67073 17.9287C7.11845 17.9287 6.67073 17.481 6.67073 16.9287L6.67073 9.88308ZM16.2309 13.3233C16.2279 13.8756 15.7778 14.3209 15.2255 14.3179C14.6733 14.3149 14.228 13.8648 14.231 13.3125L14.2463 10.4807L11.4145 10.4654C10.8622 10.4624 10.4169 10.0123 10.4199 9.45999C10.4229 8.90772 10.873 8.46243 11.4253 8.46541L14.2571 8.48072L14.2724 5.65081C14.2754 5.09853 14.7255 4.65325 15.2778 4.65623C15.8301 4.65922 16.2753 5.10935 16.2724 5.66162L16.2571 8.49153L19.087 8.50684C19.6393 8.50982 20.0845 8.95995 20.0816 9.51223C20.0786 10.0645 19.6284 10.5098 19.0762 10.5068L16.2462 10.4915L16.2309 13.3233Z" fill="black"/>
</svg>
