<svg width="26" height="26" viewBox="0 0 26 26" fill="none" xmlns="http://www.w3.org/2000/svg">
<path fill-rule="evenodd" clip-rule="evenodd" d="M25 25.7583C25.5523 25.7583 26 25.3106 26 24.7583L26 8.5127H19.1895V12.5264H21.3295C21.8818 12.5264 22.3295 12.9741 22.3295 13.5264V19.807C22.3295 20.3593 21.8818 20.807 21.3295 20.807H19.1895L19.1895 25.7583H25ZM0 6.5127H26V1C26 0.447716 25.5523 0 25 0L1 2.18557e-06C0.447715 2.23385e-06 0 0.447718 0 1V6.5127ZM0 24.7584V8.5127H7V12.5264H5C4.44772 12.5264 4 12.9741 4 13.5264V19.807C4 20.3593 4.44772 20.807 5 20.807H6.99998V25.7584H1C0.447718 25.7584 0 25.3106 0 24.7584ZM17.1895 25.7583L8.99998 25.7584V20.807H11.2806C11.8329 20.807 12.2806 20.3593 12.2806 19.807V17.666H14.0489V19.807C14.0489 20.3593 14.4966 20.807 15.0489 20.807H17.1895L17.1895 25.7583ZM17.1895 8.5127H9V12.5264H11.2806C11.8329 12.5264 12.2806 12.9741 12.2806 13.5264V15.666H14.0489V13.5264C14.0489 12.9741 14.4966 12.5264 15.0489 12.5264H17.1895V8.5127ZM16.0489 18.807V16.6935C16.0491 16.6844 16.0493 16.6752 16.0493 16.666C16.0493 16.6568 16.0491 16.6477 16.0489 16.6385V14.5264H20.3295V18.807H16.0489ZM6 14.5264V18.807H10.2806V14.5264H6ZM3.74162 3.70793C4.13215 3.31741 4.76531 3.31741 5.15584 3.70793L5.173 3.7251C5.56353 4.11562 5.56353 4.74879 5.173 5.13931C4.78248 5.52984 4.14931 5.52984 3.75879 5.13931L3.74162 5.12215C3.3511 4.73162 3.3511 4.09846 3.74162 3.70793ZM7.52696 3.70793C7.91749 3.31741 8.55065 3.31741 8.94118 3.70793L8.95834 3.7251C9.34887 4.11562 9.34887 4.74879 8.95834 5.13931C8.56782 5.52984 7.93465 5.52984 7.54413 5.13931L7.52696 5.12215C7.13644 4.73162 7.13644 4.09846 7.52696 3.70793Z" fill="black"/>
</svg>
