<svg width="25" height="20" viewBox="0 0 25 20" fill="none" xmlns="http://www.w3.org/2000/svg">
<path fill-rule="evenodd" clip-rule="evenodd" d="M12.4286 2C9.43048 2 7 4.43048 7 7.42863C7 10.4268 9.43048 12.8573 12.4286 12.8573C15.4268 12.8573 17.8573 10.4268 17.8573 7.42863C17.8573 4.43048 15.4268 2 12.4286 2ZM5 7.42863C5 3.32591 8.32591 0 12.4286 0C16.5313 0 19.8573 3.32591 19.8573 7.42863C19.8573 8.33255 19.6958 9.19876 19.4002 10H23.769C24.3213 10 24.769 10.4477 24.769 11L24.769 19C24.769 19.5523 24.3213 20 23.769 20H15.769C15.2168 20 14.769 19.5523 14.769 19L14.769 14.4811C14.0332 14.7251 13.2464 14.8573 12.4286 14.8573C11.5781 14.8573 10.761 14.7143 10 14.4512L10 19C10 19.5523 9.55228 20 9 20H1C0.447715 20 0 19.5523 0 19L0 11C0 10.4477 0.447715 10 1 10H5.45707C5.16145 9.19876 5 8.33255 5 7.42863ZM16.2147 4.61994C16.6075 5.00823 16.6111 5.64139 16.2228 6.03413L12.6802 9.61723C12.2997 10.0021 11.682 10.0144 11.2865 9.64497L9.35355 7.83957C8.94993 7.46259 8.92834 6.82979 9.30533 6.42618C9.68231 6.02257 10.3151 6.00098 10.7187 6.37796L11.9413 7.51989L14.8005 4.62798C15.1888 4.23524 15.822 4.23164 16.2147 4.61994Z" fill="black"/>
</svg>
