<svg width="27" height="27" viewBox="0 0 27 27" fill="none" xmlns="http://www.w3.org/2000/svg">
<path fill-rule="evenodd" clip-rule="evenodd" d="M20.9751 0.577393C21.5274 0.577393 21.9751 1.02511 21.9751 1.57739L21.9751 8.16968H25.6255C26.1778 8.16968 26.6255 8.61739 26.6255 9.16968V18.4709C26.6255 19.0232 26.1778 19.4709 25.6255 19.4709H21.9751L21.9751 25.5844C21.9751 26.1367 21.5274 26.5844 20.9751 26.5844C20.4228 26.5844 19.9751 26.1367 19.9751 25.5844L19.9751 19.4709H16.3242C15.7719 19.4709 15.3242 19.0232 15.3242 18.4709V14.8206L14.3826 14.8206L12.499 14.8206L11.5571 14.8206V18.4709C11.5571 19.0232 11.1094 19.4709 10.5571 19.4709H6.90623L6.90623 25.664C6.90622 26.2163 6.45851 26.664 5.90622 26.664C5.35394 26.664 4.90622 26.2163 4.90623 25.664L4.90623 19.4709H1.25586C0.703575 19.4709 0.255859 19.0232 0.255859 18.4709V9.16968C0.255859 8.61739 0.703576 8.16968 1.25586 8.16968H4.90624L4.90625 1.65698C4.90625 1.1047 5.35397 0.656982 5.90625 0.656982C6.45854 0.656983 6.90625 1.1047 6.90625 1.65698L6.90624 8.16968H10.5571C11.1094 8.16968 11.5571 8.61739 11.5571 9.16968V12.8206L12.499 12.8206L14.3826 12.8206L15.3242 12.8206V9.16968C15.3242 8.61739 15.7719 8.16968 16.3242 8.16968H19.9751L19.9751 1.57739C19.9751 1.02511 20.4228 0.577393 20.9751 0.577393Z" fill="black"/>
</svg>
