<svg width="25" height="25" viewBox="0 0 25 25" fill="none" xmlns="http://www.w3.org/2000/svg">
<path fill-rule="evenodd" clip-rule="evenodd" d="M20.1717 10.7504L18.0317 10.7504L18.0317 7.6109L24.354 7.6109L24.3608 7.61088L24.3608 23.1155C24.3608 23.6678 23.9131 24.1155 23.3608 24.1155L18.0317 24.1155L18.0317 19.031L20.1717 19.031C20.724 19.031 21.1717 18.5833 21.1717 18.031L21.1717 11.7504C21.1717 11.1981 20.724 10.7504 20.1717 10.7504ZM16.0317 7.6109L16.0317 10.7504L13.8911 10.7504C13.3388 10.7504 12.8911 11.1981 12.8911 11.7504L12.8911 13.8907L11.1229 13.8907L11.1229 11.7504C11.1229 11.1981 10.6752 10.7504 10.1229 10.7504L7.88037 10.7504L7.88037 7.6109L16.0317 7.6109ZM11.1229 15.8907L11.1229 18.031C11.1229 18.5833 10.6752 19.031 10.1229 19.031L7.88036 19.031L7.88035 24C7.88035 24.0391 7.87811 24.0776 7.87376 24.1155L16.0317 24.1155L16.0317 19.031L13.8911 19.031C13.3388 19.031 12.8911 18.5833 12.8911 18.031L12.8911 15.8907L11.1229 15.8907ZM14.8911 14.9204L14.8911 17.031L19.1717 17.031L19.1717 12.7504L14.8911 12.7504L14.8911 14.8611C14.8914 14.8709 14.8915 14.8808 14.8915 14.8907C14.8915 14.9007 14.8914 14.9106 14.8911 14.9204ZM5.88036 19.031L3.84229 19.031C3.29 19.031 2.84229 18.5833 2.84229 18.031L2.84229 11.7504C2.84229 11.1981 3.29 10.7504 3.84229 10.7504L5.88037 10.7504L5.88037 7.6109L0.000481116 7.6109L-2.62384e-05 7.6109L-2.4883e-05 23.1155C-2.48347e-05 23.6678 0.447691 24.1155 0.999975 24.1155L5.88695 24.1155C5.88259 24.0776 5.88035 24.0391 5.88035 24L5.88036 19.031ZM24.3608 0.999897L24.3608 5.61092L24.354 5.6109L0.000480941 5.6109L-2.64133e-05 5.6109L-2.68164e-05 0.999899C-2.68646e-05 0.447613 0.447687 -0.000100906 0.999973 -0.000100955L23.3608 -0.000102909C23.9131 -0.000102958 24.3608 0.447613 24.3608 0.999897ZM7.73215 4.30025C7.53644 4.43102 7.30634 4.50082 7.07096 4.50082C6.75533 4.50082 6.45262 4.37543 6.22943 4.15224C6.00624 3.92905 5.88086 3.62635 5.88086 3.31071C5.88086 3.07533 5.95065 2.84524 6.08142 2.64952C6.21219 2.45381 6.39807 2.30127 6.61553 2.2112C6.83299 2.12112 7.07228 2.09755 7.30314 2.14347C7.534 2.18939 7.74606 2.30274 7.91249 2.46918C8.07893 2.63562 8.19228 2.84767 8.2382 3.07853C8.28412 3.30939 8.26056 3.54868 8.17048 3.76614C8.0804 3.98361 7.92786 4.16948 7.73215 4.30025ZM3.73014 4.50082C3.96552 4.50082 4.19562 4.43102 4.39133 4.30025C4.58704 4.16948 4.73958 3.98361 4.82966 3.76614C4.91974 3.54868 4.9433 3.30939 4.89738 3.07853C4.85146 2.84768 4.73811 2.63562 4.57167 2.46918C4.40524 2.30274 4.19318 2.18939 3.96232 2.14347C3.73146 2.09755 3.49217 2.12112 3.27471 2.2112C3.05725 2.30127 2.87137 2.45381 2.7406 2.64952C2.60983 2.84524 2.54004 3.07533 2.54004 3.31071C2.54004 3.62635 2.66542 3.92905 2.88861 4.15224C3.1118 4.37543 3.41451 4.50082 3.73014 4.50082ZM4.84229 17.031L4.84229 12.7504L9.12288 12.7504L9.12289 17.031L4.84229 17.031Z" fill="black"/>
</svg>
