<svg width="26" height="21" viewBox="0 0 26 21" fill="none" xmlns="http://www.w3.org/2000/svg">
<path fill-rule="evenodd" clip-rule="evenodd" d="M8 7.86027C8 4.86212 10.4305 2.43164 13.4286 2.43164C16.4268 2.43164 18.8573 4.86212 18.8573 7.86027C18.8573 10.8584 16.4268 13.2889 13.4286 13.2889C10.4305 13.2889 8 10.8584 8 7.86027ZM13.4286 0.431641C9.32591 0.431641 6 3.75755 6 7.86027C6 8.20212 6.02309 8.53858 6.0678 8.86816L1 8.86816C0.447715 8.86816 0 9.31588 0 9.86816L0 19.0989C0 19.6512 0.447715 20.0989 1 20.0989H10.2308C10.7831 20.0989 11.2308 19.6512 11.2308 19.0989L11.2308 15.4834L14.769 15.4834L14.769 19.099C14.769 19.6513 15.2167 20.099 15.769 20.099H24.9998C25.5521 20.099 25.9998 19.6513 25.9998 19.099L25.9998 9.86816C25.9998 9.31588 25.5521 8.86816 24.9998 8.86816H20.7895C20.8342 8.53858 20.8573 8.20212 20.8573 7.86027C20.8573 3.75755 17.5313 0.431641 13.4286 0.431641ZM16.9882 6.70307C17.3765 6.31033 17.3729 5.67718 16.9802 5.28888C16.5875 4.90059 15.9543 4.90419 15.566 5.29693L12.9414 7.95158L11.7188 6.80964C11.3152 6.43266 10.6824 6.45425 10.3054 6.85786C9.92841 7.26147 9.95 7.89427 10.3536 8.27125L12.2866 10.0766C12.6821 10.4461 13.2997 10.4338 13.6803 10.0489L16.9882 6.70307Z" fill="black"/>
</svg>
