<svg width="26" height="27" viewBox="0 0 26 27" fill="none" xmlns="http://www.w3.org/2000/svg">
<path fill-rule="evenodd" clip-rule="evenodd" d="M16.8026 3.24334L15.9842 6.2975C17.9238 7.09444 19.4741 8.64489 20.2708 10.5845L23.3251 9.7661C22.214 6.74977 19.8189 4.35457 16.8026 3.24334ZM23.8417 11.6982L20.7874 12.5166C20.8334 12.8606 20.8571 13.2116 20.8571 13.5681C20.8571 15.3775 20.2455 17.0441 19.2177 18.3723L21.4531 20.6077C23.0433 18.7001 24 16.246 24 13.5684C24 12.9309 23.9458 12.306 23.8417 11.6982ZM22.1946 22.7586C24.5458 20.4062 26 17.1571 26 13.5684C26 6.38866 20.1797 0.56836 13 0.568361C5.8203 0.568363 -8.82083e-07 6.38866 -5.68248e-07 13.5684C-2.54413e-07 20.7481 5.8203 26.5684 13 26.5684C16.5884 26.5684 19.8373 25.1145 22.1896 22.7636L22.1922 22.761L22.1946 22.7586ZM11.4289 19.2121C8.95705 18.5256 7.14283 16.2587 7.14283 13.5681C7.14283 10.3333 9.76516 7.71094 13 7.71094C16.2348 7.71094 18.8571 10.3333 18.8571 13.5681C18.8571 16.8029 16.2348 19.4252 13 19.4252C12.495 19.4252 12.005 19.3613 11.5375 19.2412C11.52 19.2354 11.5022 19.2301 11.4841 19.2253C11.4658 19.2204 11.4473 19.216 11.4289 19.2121ZM10.0165 20.839L9.198 23.8936C7.0909 23.1175 5.28689 21.7147 4.01192 19.9114L6.75013 18.3305C7.59086 19.4321 8.71623 20.3049 10.0165 20.839ZM16.5713 13.5682C16.5713 11.5958 14.9723 9.99679 12.9999 9.99679C11.0274 9.99679 9.42847 11.5958 9.42847 13.5682C9.42847 15.5407 11.0274 17.1396 12.9999 17.1396C14.9723 17.1396 16.5713 15.5407 16.5713 13.5682Z" fill="black"/>
</svg>
