<svg width="25" height="20" viewBox="0 0 25 20" fill="none" xmlns="http://www.w3.org/2000/svg">
<path fill-rule="evenodd" clip-rule="evenodd" d="M12.3361 2.08583C9.53081 2.08583 7.25665 4.35999 7.25665 7.16531C7.25665 9.97063 9.53081 12.2448 12.3361 12.2448C15.1414 12.2448 17.4156 9.97063 17.4156 7.16531C17.4156 4.35999 15.1414 2.08583 12.3361 2.08583ZM5.25665 7.16531C5.25665 3.25542 8.42624 0.0858307 12.3361 0.0858307C16.246 0.0858307 19.4156 3.25542 19.4156 7.16531C19.4156 8.01968 19.2643 8.8387 18.9869 9.59702H23.0063C23.5586 9.59702 24.0063 10.0447 24.0063 10.597L24.0063 18.0539C24.0063 18.6062 23.5586 19.0539 23.0063 19.0539H15.5494C14.9971 19.0539 14.5494 18.6062 14.5494 18.0539L14.5494 13.8919C13.8531 14.1209 13.1091 14.2448 12.3361 14.2448C11.5322 14.2448 10.7596 14.1108 10.0394 13.8639L10.0394 18.0539C10.0394 18.6062 9.59168 19.0539 9.0394 19.0539H1.58252C1.03023 19.0539 0.58252 18.6062 0.58252 18.0539L0.58252 10.597C0.58252 10.0447 1.03023 9.59702 1.58252 9.59702H5.68533C5.40799 8.8387 5.25665 8.01968 5.25665 7.16531ZM15.9548 4.47054C16.3475 4.85884 16.3511 5.49199 15.9628 5.88473L12.6126 9.27323C12.2321 9.6581 11.6145 9.67039 11.2189 9.30096L9.39099 7.59362C8.98737 7.21664 8.96578 6.58385 9.34276 6.18023C9.71974 5.77662 10.3525 5.75503 10.7562 6.13201L11.8738 7.17589L14.5406 4.47858C14.9289 4.08584 15.562 4.08224 15.9548 4.47054Z" fill="black"/>
</svg>
