<svg width="26" height="26" viewBox="0 0 26 26" fill="none" xmlns="http://www.w3.org/2000/svg">
<path fill-rule="evenodd" clip-rule="evenodd" d="M21.4288 1C21.4288 0.447716 20.9811 5.60657e-07 20.4288 0C19.8765 -6.2026e-07 19.4288 0.447714 19.4288 1L19.4288 7.49988H15.8572C15.3049 7.49988 14.8572 7.9476 14.8572 8.49988V12.0713L13.9287 12.0713L12.0716 12.0713L11.0716 12.0713L11.0716 14.0713L8.35727 14.0713C7.80498 14.0713 7.35727 13.6236 7.35727 13.0713C7.35727 12.519 7.80498 12.0713 8.35727 12.0713H11.1428V8.49988C11.1428 7.9476 10.6951 7.49988 10.1428 7.49988H6.57119L6.57119 1.07847C6.57119 0.526191 6.12348 0.0784748 5.57119 0.0784743C5.01891 0.0784737 4.57119 0.526188 4.57119 1.07847L4.57119 7.49988H0.999999C0.447715 7.49988 0 7.9476 0 8.49988V17.6427C0 18.195 0.447715 18.6427 1 18.6427H4.57117L4.57117 24.749C4.57117 25.3013 5.01888 25.749 5.57117 25.749C6.12345 25.749 6.57117 25.3013 6.57117 24.749L6.57117 18.6427H10.1428C10.6951 18.6427 11.1428 18.195 11.1428 17.6427V14.0713L12.0716 14.0713L13.9287 14.0713L14.8572 14.0713V17.6427C14.8572 18.195 15.3049 18.6427 15.8572 18.6427H19.4288L19.4288 24.6705C19.4288 25.2228 19.8765 25.6705 20.4288 25.6705C20.9811 25.6705 21.4288 25.2228 21.4288 24.6705L21.4288 18.6427H25C25.5523 18.6427 26 18.195 26 17.6427V8.49988C26 7.9476 25.5523 7.49988 25 7.49988H21.4288L21.4288 1ZM14.9287 12.0713L14.9287 14.0713L14.8572 14.0713H17.643C18.1953 14.0713 18.643 13.6236 18.643 13.0713C18.643 12.519 18.1953 12.0713 17.643 12.0713L14.9287 12.0713Z" fill="black"/>
</svg>
