<svg width="26" height="26" viewBox="0 0 26 26" fill="none" xmlns="http://www.w3.org/2000/svg">
<path fill-rule="evenodd" clip-rule="evenodd" d="M1 18.6103H4.46254V25C4.46254 25.5523 4.91026 26 5.46254 26C6.01483 26 6.46254 25.5523 6.46254 25V18.6103H10.2265C10.7788 18.6103 11.2265 18.1626 11.2265 17.6103V13.9971L14.7626 13.9971V17.6103C14.7626 18.1626 15.2103 18.6103 15.7626 18.6103H19.3759V25C19.3759 25.5523 19.8236 26 20.3759 26C20.9282 26 21.3759 25.5523 21.3759 25V18.6103H24.9891C25.5414 18.6103 25.9891 18.1626 25.9891 17.6103V8.38379C25.9891 7.8315 25.5414 7.38379 24.9891 7.38379H21.3759V1C21.3759 0.447715 20.9282 0 20.3759 0C19.8237 0 19.3759 0.447715 19.3759 1V7.38379H15.7626C15.2103 7.38379 14.7626 7.8315 14.7626 8.38379V11.9971L11.2265 11.9971V8.38379C11.2265 7.83151 10.7788 7.38379 10.2265 7.38379H6.46257V1C6.46257 0.447715 6.01485 0 5.46257 0C4.91028 0 4.46257 0.447715 4.46257 1V7.38379H1C0.447715 7.38379 0 7.83151 0 8.38379V17.6103C0 18.1626 0.447715 18.6103 1 18.6103Z" fill="black"/>
</svg>
