<svg width="27" height="27" viewBox="0 0 27 27" fill="none" xmlns="http://www.w3.org/2000/svg">
<path fill-rule="evenodd" clip-rule="evenodd" d="M20.2119 5.61409C20.2101 6.16637 20.6563 6.61555 21.2086 6.61736L24.6629 6.62873C25.2152 6.63054 25.6644 6.1843 25.6662 5.63202C25.668 5.07974 25.2218 4.63055 24.6695 4.62874L23.6182 4.62528L26.0378 2.20563C26.4283 1.8151 26.4283 1.18194 26.0377 0.791419C25.6472 0.4009 25.014 0.400908 24.6235 0.791437L22.2199 3.19516L22.2233 2.1605C22.2251 1.60822 21.7788 1.15904 21.2265 1.15723C20.6743 1.15542 20.2251 1.60166 20.2233 2.15395L20.2119 5.61409ZM20.2119 21.4389C20.2101 20.8867 20.6563 20.4375 21.2086 20.4357L24.6629 20.4243C25.2152 20.4225 25.6644 20.8687 25.6662 21.421C25.668 21.9733 25.2218 22.4225 24.6695 22.4243L23.6182 22.4278L26.0378 24.8474C26.4283 25.2379 26.4283 25.8711 26.0377 26.2616C25.6472 26.6521 25.014 26.6521 24.6235 26.2616L22.2199 23.8579L22.2233 24.8925C22.2251 25.4448 21.7788 25.894 21.2265 25.8958C20.6743 25.8976 20.2251 25.4514 20.2233 24.8991L20.2119 21.4389ZM5.98481 20.4357C6.53709 20.4375 6.98333 20.8867 6.98152 21.4389L6.97017 24.8991C6.96836 25.4514 6.51918 25.8976 5.9669 25.8958C5.41462 25.894 4.96837 25.4448 4.97018 24.8925L4.97357 23.8579L2.56991 26.2616C2.17939 26.6521 1.54622 26.6521 1.1557 26.2616C0.765166 25.8711 0.765158 25.2379 1.15568 24.8474L3.57526 22.4278L2.52395 22.4243C1.97167 22.4225 1.52543 21.9733 1.52725 21.421C1.52906 20.8687 1.97825 20.4225 2.53053 20.4243L5.98481 20.4357ZM6.98152 5.61409C6.98333 6.16637 6.53709 6.61555 5.98481 6.61736L2.53053 6.62873C1.97825 6.63054 1.52906 6.1843 1.52725 5.63202C1.52543 5.07974 1.97167 4.63055 2.52395 4.62874L3.57526 4.62528L1.15568 2.20563C0.765158 1.8151 0.765166 1.18194 1.1557 0.791419C1.54622 0.4009 2.17939 0.400908 2.56991 0.791438L4.97357 3.19516L4.97018 2.1605C4.96837 1.60822 5.41462 1.15904 5.9669 1.15723C6.51918 1.15542 6.96836 1.60166 6.97017 2.15395L6.98152 5.61409ZM13.1279 7.49121C16.3893 7.49121 19.1292 8.81447 19.9069 10.6054C19.9702 10.6947 20.0192 10.795 20.0508 10.9031C20.0972 11.062 20.1074 11.2474 20.1117 11.3252V11.3253V11.3253L20.1121 11.3327L20.1151 11.3915C20.1236 11.4754 20.1279 11.5599 20.1279 11.6451C20.1279 11.6841 20.127 11.723 20.1252 11.7618C20.1296 12.0676 20.1281 12.444 20.1244 12.8134C20.1195 13.2879 20.1113 13.7334 20.1056 14.041C20.102 14.2381 20.0994 14.3786 20.0994 14.4339C20.0994 15.9975 19.1809 17.3054 17.9147 18.18C16.6444 19.0575 14.9439 19.5681 13.1137 19.5681C11.2834 19.5681 9.58297 19.0575 8.31266 18.18C7.04642 17.3054 6.12793 15.9975 6.12793 14.4339V11.6451V11.3048C6.12793 11.1071 6.18532 10.9227 6.28448 10.7673C6.96322 8.89479 9.76904 7.49121 13.1279 7.49121ZM18.059 14.8209C17.9343 15.4195 17.5179 16.0234 16.778 16.5344C15.882 17.1533 14.5896 17.5681 13.1137 17.5681C11.6377 17.5681 10.3453 17.1533 9.4493 16.5344C8.71434 16.0268 8.29862 15.4275 8.17082 14.8329C8.2378 14.8819 8.30587 14.9297 8.37493 14.9762C9.63568 15.8253 11.3062 16.3186 13.1043 16.3186C14.9346 16.3186 16.635 15.8079 17.9053 14.9305C17.9572 14.8947 18.0084 14.8582 18.059 14.8209Z" fill="black"/>
</svg>
