<svg width="27" height="24" viewBox="0 0 27 24" fill="none" xmlns="http://www.w3.org/2000/svg">
<path fill-rule="evenodd" clip-rule="evenodd" d="M12.9888 0C9.00328 0 5.7724 3.23088 5.7724 7.21637C5.7724 8.003 5.89826 8.76023 6.13095 9.46902C2.66028 9.99269 6.10352e-05 12.9877 6.10352e-05 16.6043C6.10352e-05 20.5897 3.23094 23.8206 7.21643 23.8206C9.61516 23.8206 11.7405 22.6503 13.0527 20.8494C14.3642 22.6492 16.4888 23.8204 18.8885 23.8204C22.874 23.8204 26.1049 20.5896 26.1049 16.6041C26.1049 12.9454 23.3821 9.9226 19.8523 9.4515C20.0813 8.74775 20.2051 7.99652 20.2051 7.21637C20.2051 3.23088 16.9743 0 12.9888 0ZM18.8885 11.373C17.7798 12.9439 16.0594 14.0522 14.074 14.3517C14.307 15.0613 14.4328 15.8188 14.4328 16.6043C14.4328 17.3399 14.3227 18.0498 14.1182 18.7184C14.9304 20.5477 16.7619 21.8204 18.8885 21.8204C21.7695 21.8204 24.1049 19.485 24.1049 16.6041C24.1049 13.7231 21.7695 11.3877 18.8885 11.3877V11.373ZM12.0552 14.3729C10.0127 14.1091 8.23784 12.9912 7.10044 11.3891C4.2733 11.4506 2.00006 13.7621 2.00006 16.6043C2.00006 19.4852 4.33551 21.8206 7.21643 21.8206C10.0974 21.8206 12.4328 19.4852 12.4328 16.6043C12.4328 15.8221 12.2613 15.0827 11.9548 14.4193L12.0552 14.3729Z" fill="black"/>
</svg>
