<svg width="28" height="28" viewBox="0 0 28 28" fill="none" xmlns="http://www.w3.org/2000/svg">
<path fill-rule="evenodd" clip-rule="evenodd" d="M13.9888 2C10.0033 2 6.7724 5.23088 6.7724 9.21637C6.7724 10.003 6.89826 10.7602 7.13095 11.469C3.66028 11.9927 1.00006 14.9877 1.00006 18.6043C1.00006 22.5897 4.23094 25.8206 8.21643 25.8206C10.6152 25.8206 12.7405 24.6503 14.0527 22.8494C15.3642 24.6492 17.4888 25.8204 19.8885 25.8204C23.874 25.8204 27.1049 22.5896 27.1049 18.6041C27.1049 14.9454 24.3821 11.9226 20.8523 11.4515C21.0813 10.7478 21.2051 9.99652 21.2051 9.21637C21.2051 5.23088 17.9743 2 13.9888 2ZM19.8885 13.373C18.7798 14.9439 17.0594 16.0522 15.074 16.3517C15.307 17.0613 15.4328 17.8188 15.4328 18.6043C15.4328 19.3399 15.3227 20.0498 15.1182 20.7184C15.9304 22.5477 17.7619 23.8204 19.8885 23.8204C22.7695 23.8204 25.1049 21.485 25.1049 18.6041C25.1049 15.7231 22.7695 13.3877 19.8885 13.3877V13.373ZM13.0552 16.3729C11.0127 16.1091 9.23784 14.9912 8.10044 13.3891C5.2733 13.4506 3.00006 15.7621 3.00006 18.6043C3.00006 21.4852 5.33551 23.8206 8.21643 23.8206C11.0974 23.8206 13.4328 21.4852 13.4328 18.6043C13.4328 17.8221 13.2613 17.0827 12.9548 16.4193L13.0552 16.3729Z" fill="black"/>
</svg>
