<svg width="27" height="25" viewBox="0 0 27 25" fill="none" xmlns="http://www.w3.org/2000/svg">
<path fill-rule="evenodd" clip-rule="evenodd" d="M14.1158 14.4057C14.3917 15.1709 14.5421 15.9957 14.5421 16.8544C14.5421 17.59 14.4321 18.2998 14.2275 18.9684C15.0392 20.7972 16.871 22.0706 18.998 22.0706C21.8789 22.0706 24.2143 19.7352 24.2143 16.8543C24.2143 13.9733 21.8789 11.6379 18.998 11.6379C18.9096 11.6379 18.8218 11.6401 18.7346 11.6444C17.6482 13.1086 16.0038 14.1339 14.1158 14.4057ZM19.7567 9.67731C19.9855 8.98555 20.1094 8.24601 20.1094 7.47754C20.1094 3.61155 16.9754 0.477539 13.1094 0.477539C9.24338 0.477539 6.10938 3.61155 6.10938 7.47754C6.10938 8.25024 6.23457 8.99369 6.46579 9.68873C2.88568 10.1138 0.109375 13.1599 0.109375 16.8544C0.109375 20.8399 3.34025 24.0708 7.32575 24.0708C9.7245 24.0708 11.8499 22.9004 13.162 21.0995C14.4737 22.8997 16.5983 24.0706 18.998 24.0706C22.9835 24.0706 26.2143 20.8398 26.2143 16.8543C26.2143 13.125 23.3856 10.0565 19.7567 9.67731ZM7.48107 11.6403C7.42951 11.6388 7.37773 11.638 7.32575 11.638C4.44482 11.638 2.10938 13.9735 2.10938 16.8544C2.10938 19.7353 4.44482 22.0708 7.32575 22.0708C10.2067 22.0708 12.5421 19.7353 12.5421 16.8544C12.5421 15.9559 12.3157 15.1128 11.9174 14.3765C10.1056 14.0656 8.53169 13.0584 7.48107 11.6403Z" fill="black"/>
</svg>
