<svg width="25" height="23" viewBox="0 0 25 23" fill="none" xmlns="http://www.w3.org/2000/svg">
<path fill-rule="evenodd" clip-rule="evenodd" d="M15.9592 1.19446C15.9592 0.642173 15.5115 0.194458 14.9592 0.194458C14.4069 0.194458 13.9592 0.642173 13.9592 1.19446V2.47505H1.04932C0.497032 2.47505 0.0493164 2.92276 0.0493164 3.47505C0.0493164 4.02733 0.497032 4.47505 1.04932 4.47505H13.9592V5.19973C13.9592 5.75201 14.4069 6.19973 14.9592 6.19973C15.5115 6.19973 15.9592 5.75201 15.9592 5.19973V4.47505H20.814C21.3663 4.47505 21.814 4.02733 21.814 3.47505C21.814 2.92276 21.3663 2.47505 20.814 2.47505H15.9592V1.19446ZM0.0493164 9.82794C0.0493164 9.27566 0.497032 8.82794 1.04932 8.82794H3.94574V7.20232C3.94574 6.65003 4.39345 6.20232 4.94574 6.20232C5.49802 6.20232 5.94574 6.65003 5.94574 7.20232V8.82794H10.0898C10.0166 8.41745 10.207 7.99832 10.5759 7.78614L13.113 6.32677C13.5223 6.0913 14.0406 6.17431 14.356 6.52586L15.233 7.5036C15.4227 7.71505 15.6934 7.83586 15.9774 7.83586H16.2102C16.4877 7.83586 16.7527 7.72056 16.9419 7.51754L17.8536 6.53895C18.1709 6.19839 18.6812 6.12179 19.0845 6.35418L21.6183 7.81419C22.0272 8.04978 22.2157 8.53912 22.0706 8.98814L21.6701 10.2275C21.5832 10.4965 21.6142 10.7898 21.7555 11.0347L21.8829 11.2556C22.022 11.4967 22.2551 11.6688 22.5264 11.7308L23.8056 12.023C24.2604 12.1269 24.5829 12.5314 24.5829 12.9979V15.8724C24.5829 16.3379 24.2617 16.7419 23.8082 16.8467L22.5138 17.146C22.25 17.207 22.0221 17.3724 21.8824 17.6044L21.7671 17.7959C21.6187 18.0424 21.5837 18.341 21.6711 18.6153L21.6211 21.0523L19.0354 22.5416C18.6266 22.777 18.1089 22.6948 17.7932 22.3443L16.9095 21.3631C16.7199 21.1525 16.4498 21.0323 16.1665 21.0323H15.9347C15.6559 21.0323 15.3898 21.1487 15.2005 21.3534L14.2962 22.3314C13.9791 22.6744 13.4668 22.7521 13.0622 22.5187L10.5263 21.0556C10.1166 20.8192 9.92854 20.3282 10.0755 19.8786L10.4906 18.6093C10.5791 18.3386 10.548 18.043 10.4051 17.7966L10.3015 17.618C10.2257 17.4874 10.1221 17.3771 9.9999 17.2937C9.85742 17.3718 9.69385 17.4162 9.51991 17.4162H1.04932C0.497032 17.4162 0.0493164 16.9685 0.0493164 16.4162C0.0493164 15.8639 0.497032 15.4162 1.04932 15.4162H7.56051V12.9442C7.56051 12.4709 7.89229 12.0625 8.35551 11.9654L9.66409 11.6914C9.94363 11.6328 10.1848 11.4575 10.3268 11.2097L10.428 11.033C10.4655 10.9676 10.4951 10.8988 10.5167 10.8279H5.94574V11.2076C5.94574 11.7599 5.49802 12.2076 4.94574 12.2076C4.39345 12.2076 3.94574 11.7599 3.94574 11.2076V10.8279H1.04932C0.497032 10.8279 0.0493164 10.3802 0.0493164 9.82794ZM16.1246 12.4857C15.08 12.4857 14.2346 13.3316 14.2346 14.3733C14.2346 15.4151 15.08 16.2609 16.1246 16.2609C17.1691 16.2609 18.0146 15.4151 18.0146 14.3733C18.0146 13.3316 17.1691 12.4857 16.1246 12.4857ZM12.2346 14.3733C12.2346 12.2255 13.977 10.4857 16.1246 10.4857C18.2722 10.4857 20.0146 12.2255 20.0146 14.3733C20.0146 16.5211 18.2722 18.2609 16.1246 18.2609C13.977 18.2609 12.2346 16.5211 12.2346 14.3733Z" fill="black"/>
</svg>
