<svg width="26" height="26" viewBox="0 0 26 26" fill="none" xmlns="http://www.w3.org/2000/svg">
<path fill-rule="evenodd" clip-rule="evenodd" d="M3 0C1.34315 0 0 1.34315 0 3C0 4.30622 0.834808 5.41746 2 5.82929L2 15.1707C0.834808 15.5825 0 16.6938 0 18C0 19.6569 1.34315 21 3 21C3.83747 21 4.59478 20.6568 5.13902 20.1035L20.1106 23.81C20.464 25.0733 21.6238 26 23 26C24.6569 26 26 24.6569 26 23C26 21.6938 25.1652 20.5825 24 20.1707V13.8293C25.1652 13.4175 26 12.3062 26 11C26 9.34315 24.6569 8 23 8C22.5368 8 22.0981 8.10498 21.7064 8.29244L17.7076 4.29356C17.895 3.90189 18 3.4632 18 3C18 1.34315 16.6569 0 15 0C13.6938 0 12.5825 0.834808 12.1707 2H5.82929C5.41746 0.834808 4.30622 0 3 0ZM12.1707 4H5.82929C5.79381 4.1004 5.75313 4.19836 5.70757 4.29353L11.7065 10.2924C11.9759 10.1635 12.2676 10.0735 12.5743 10.03L13.4647 5.5779C12.8682 5.22188 12.4056 4.6647 12.1707 4ZM15.5659 11.4448C15.3113 11.0256 14.9568 10.6737 14.5354 10.4222L15.4259 5.97C15.7324 5.92645 16.0239 5.83658 16.2933 5.7077L20.2923 9.70673C20.1857 9.92955 20.1058 10.1676 20.0567 10.4167L15.5659 11.4448ZM15.7077 14.2933C15.8397 14.0174 15.9308 13.7181 15.9731 13.4033L20.347 12.4019C20.697 13.0627 21.2866 13.5771 22 13.8293V20.1707C21.8997 20.2062 21.8018 20.2468 21.7067 20.2923L15.7077 14.2933ZM10.9174 15.1593C11.4569 15.6798 12.1911 16 13 16C13.4632 16 13.9018 15.895 14.2935 15.7076L20.2924 21.7065C20.2799 21.7326 20.2677 21.759 20.256 21.7856L5.98943 18.2536C5.99643 18.17 6 18.0854 6 18C6 17.8745 5.99229 17.7508 5.97732 17.6293L10.9174 15.1593ZM10.2923 11.7067C10.1049 12.0983 10 12.5369 10 13C10 13.1255 10.0077 13.2492 10.0227 13.3706L5.08257 15.8406C4.7769 15.5458 4.40878 15.3152 4 15.1707V5.82929C4.10032 5.79384 4.1982 5.75319 4.2933 5.70768L10.2923 11.7067Z" fill="black"/>
</svg>
