<svg width="27" height="27" viewBox="0 0 27 27" fill="none" xmlns="http://www.w3.org/2000/svg">
<path fill-rule="evenodd" clip-rule="evenodd" d="M0.12793 3.49121C0.12793 4.74911 0.902116 5.82619 2 6.27195L2 15.7105C0.902116 16.1562 0.12793 17.2333 0.12793 18.4912C0.12793 20.1481 1.47108 21.4912 3.12793 21.4912C3.90151 21.4912 4.60671 21.1984 5.13874 20.7176L20.2908 24.4688C20.6962 25.6457 21.8133 26.4912 23.1279 26.4912C24.7848 26.4912 26.1279 25.1481 26.1279 23.4912C26.1279 22.1377 25.2315 20.9935 24 20.6199V14.3625C25.2315 13.9889 26.1279 12.8448 26.1279 11.4912C26.1279 9.83436 24.7848 8.49121 23.1279 8.49121C22.5984 8.49121 22.101 8.62838 21.6692 8.86912L17.75 4.94994C17.9908 4.51813 18.1279 4.02069 18.1279 3.49121C18.1279 1.83436 16.7848 0.491211 15.1279 0.491211C13.7762 0.491211 12.6332 1.38524 12.2581 2.61426H5.99773C5.62263 1.38524 4.47969 0.491211 3.12793 0.491211C1.47108 0.491211 0.12793 1.83436 0.12793 3.49121ZM6.10093 18.8954L20.3259 22.4171C20.3317 22.402 20.3377 22.3869 20.3437 22.3719L14.2472 16.2754C13.9014 16.4146 13.5236 16.4912 13.1279 16.4912C12.3392 16.4912 11.6216 16.1869 11.0862 15.6892L6.11162 18.1765C6.1224 18.2799 6.12793 18.3849 6.12793 18.4912C6.12793 18.6283 6.11874 18.7632 6.10093 18.8954ZM5.25039 16.371L10.1579 13.9172C10.1382 13.7781 10.1279 13.6358 10.1279 13.4912C10.1279 13.0957 10.2045 12.718 10.3436 12.3722L4.24696 6.27555C4.16631 6.30799 4.08394 6.33703 4 6.36249L4 15.6199C4.47831 15.765 4.90607 16.0263 5.25039 16.371ZM21.6693 20.8691C21.7757 20.8097 21.8861 20.7567 22 20.7105V14.272C21.3737 14.0177 20.8527 13.5579 20.5207 12.9763L16.0864 13.9915C16.0289 14.3341 15.9133 14.6571 15.7501 14.9499L21.6693 20.8691ZM20.3437 10.372C20.2627 10.5733 20.2029 10.7854 20.167 11.0055L15.7422 12.0186C15.4674 11.5318 15.0607 11.1295 14.5705 10.8602L15.4477 6.47437C15.7274 6.44473 15.9957 6.37664 16.2471 6.27548L20.3437 10.372ZM11.669 10.8692L5.74993 4.9501C5.81016 4.84208 5.86391 4.72996 5.91065 4.61426H12.3452C12.5781 5.19072 12.9849 5.67828 13.5006 6.0119L12.5953 10.5384C12.2646 10.5976 11.9526 10.7111 11.669 10.8692Z" fill="black"/>
</svg>
