<svg width="29" height="28" viewBox="0 0 29 28" fill="none" xmlns="http://www.w3.org/2000/svg">
<path fill-rule="evenodd" clip-rule="evenodd" d="M22.9938 8.22085C22.9938 8.77313 23.4416 9.22085 23.9938 9.22085C24.5461 9.22085 24.9938 8.77313 24.9938 8.22085V4.94318C25.0021 4.86928 25.0021 4.79464 24.9938 4.72074V4C24.9938 3.44772 24.5461 3 23.9938 3H19.7792C19.2269 3 18.7792 3.44772 18.7792 4C18.7792 4.55228 19.2269 5 19.7792 5L22.4178 5L17.6687 9.74902L12.0462 4.12646L12.0446 4.12486C11.9958 4.07604 11.9432 4.03333 11.8877 3.99672C11.4995 3.74043 10.9721 3.78315 10.6304 4.12486L10.6288 4.12646L4.29909 10.4561C3.90856 10.8466 3.90856 11.4798 4.29909 11.8703C4.68961 12.2609 5.32278 12.2609 5.7133 11.8703L11.3375 6.24618L16.9602 11.8689L16.9616 11.8703C17.3033 12.212 17.8308 12.2548 18.219 11.9985C18.2744 11.9619 18.327 11.9192 18.3758 11.8703L18.3773 11.8689L22.9938 7.25234V8.22085ZM12.3313 11.3869C12.3313 10.8346 11.8836 10.3869 11.3313 10.3869C10.779 10.3869 10.3313 10.8346 10.3313 11.3869L10.3313 23.2958C10.3313 23.848 10.779 24.2958 11.3313 24.2958C11.8836 24.2958 12.3313 23.848 12.3313 23.2958L12.3313 11.3869ZM5 14.6076C5.55229 14.6076 6 15.0553 6 15.6076L6 23.2956C6 23.8479 5.55228 24.2956 5 24.2956C4.44772 24.2956 4 23.8479 4 23.2956V15.6076C4 15.0553 4.44772 14.6076 5 14.6076ZM16.6625 15.6076L16.6625 23.2957C16.6625 23.848 17.1103 24.2957 17.6625 24.2957C18.2148 24.2957 18.6625 23.848 18.6625 23.2957L18.6625 15.6076C18.6625 15.0553 18.2148 14.6076 17.6625 14.6076C17.1103 14.6076 16.6625 15.0553 16.6625 15.6076ZM22.9938 23.2957L22.9938 12.442C22.9938 11.8898 23.4415 11.442 23.9938 11.442C24.5461 11.442 24.9938 11.8898 24.9938 12.442L24.9938 23.2957C24.9938 23.848 24.5461 24.2957 23.9938 24.2957C23.4416 24.2957 22.9938 23.848 22.9938 23.2957Z" fill="black"/>
</svg>
