<svg width="27" height="25" viewBox="0 0 27 25" fill="none" xmlns="http://www.w3.org/2000/svg">
<path fill-rule="evenodd" clip-rule="evenodd" d="M26.9763 0.99671C26.9745 0.444433 26.5253 -0.00180518 25.973 5.48881e-06L20.5972 0.0176305C20.0449 0.0194411 19.5987 0.468622 19.6005 1.0209C19.6023 1.57319 20.0515 2.01943 20.6038 2.01762L23.8006 2.00714C23.6832 2.0788 23.5787 2.176 23.4961 2.29704L18.0115 10.3336L11.1203 5.73945C10.758 5.49789 10.281 5.51859 9.94091 5.79063L1.36948 12.6478C0.938221 12.9928 0.868299 13.6221 1.21331 14.0533C1.55832 14.4846 2.18761 14.5545 2.61887 14.2095L10.6193 7.80915L17.7252 12.5464C18.1812 12.8504 18.7969 12.7307 19.1059 12.278L24.985 3.66326L24.9939 6.36997C24.9958 6.92225 25.4449 7.36849 25.9972 7.36667C26.5495 7.36485 26.9958 6.91567 26.9939 6.36339L26.9763 0.99671ZM24.9799 2.10748L24.9796 2.00327L24.8374 2.00374C24.8537 2.01356 24.8698 2.02389 24.8857 2.03475C24.9189 2.05741 24.9503 2.08171 24.9799 2.10748ZM10.5657 10.7143C11.118 10.7143 11.5657 11.162 11.5657 11.7143L11.5657 23.2857C11.5657 23.838 11.118 24.2857 10.5657 24.2857C10.0134 24.2857 9.56571 23.838 9.56571 23.2857L9.56571 11.7143C9.56571 11.162 10.0134 10.7143 10.5657 10.7143ZM2.99418 17.2858C2.99418 16.7335 2.54646 16.2858 1.99418 16.2858C1.44189 16.2858 0.994177 16.7335 0.994177 17.2858L0.994178 23.2858C0.994178 23.8381 1.44189 24.2858 1.99418 24.2858C2.54646 24.2858 2.99418 23.8381 2.99418 23.2858L2.99418 17.2858ZM17.2796 23.2858V16.4286C17.2796 15.8764 17.7273 15.4286 18.2796 15.4286C18.8319 15.4286 19.2796 15.8764 19.2796 16.4286V23.2858C19.2796 23.8381 18.8319 24.2858 18.2796 24.2858C17.7273 24.2858 17.2796 23.8381 17.2796 23.2858ZM26.9942 10.8572C26.9942 10.3049 26.5465 9.85723 25.9942 9.85723C25.4419 9.85723 24.9942 10.3049 24.9942 10.8572L24.9942 23.2858C24.9942 23.8381 25.4419 24.2858 25.9942 24.2858C26.5465 24.2858 26.9942 23.8381 26.9942 23.2858L26.9942 10.8572Z" fill="black"/>
</svg>
