<svg width="21" height="22" viewBox="0 0 21 22" fill="none" xmlns="http://www.w3.org/2000/svg">
<path fill-rule="evenodd" clip-rule="evenodd" d="M18.9938 5.22085C18.9938 5.77313 19.4416 6.22085 19.9938 6.22085C20.5461 6.22085 20.9938 5.77313 20.9938 5.22085V1.94318C21.0021 1.86928 21.0021 1.79464 20.9938 1.72074V1C20.9938 0.447716 20.5461 0 19.9938 0H15.7792C15.2269 0 14.7792 0.447715 14.7792 1C14.7792 1.55228 15.2269 2 15.7792 2L18.4178 2L13.6687 6.74902L8.04618 1.12646L8.04457 1.12486C7.99576 1.07604 7.94315 1.03333 7.8877 0.996716C7.49955 0.740434 6.97207 0.783148 6.63036 1.12486L6.62875 1.12646L0.299088 7.45612C-0.091436 7.84665 -0.0914362 8.47981 0.299088 8.87034C0.689612 9.26086 1.32278 9.26086 1.7133 8.87034L7.33746 3.24618L12.9602 8.8689L12.9616 8.87034C13.3033 9.21205 13.8308 9.25476 14.219 8.99848C14.2744 8.96187 14.327 8.91915 14.3758 8.87034L14.3773 8.8689L18.9938 4.25234V5.22085ZM8.3313 8.38686C8.3313 7.83458 7.88359 7.38686 7.3313 7.38686C6.77902 7.38686 6.3313 7.83458 6.3313 8.38686L6.3313 20.2958C6.3313 20.848 6.77901 21.2958 7.3313 21.2958C7.88358 21.2958 8.3313 20.848 8.3313 20.2958L8.3313 8.38686ZM1 11.6076C1.55229 11.6076 2 12.0553 2 12.6076L2 20.2956C2 20.8479 1.55228 21.2956 1 21.2956C0.447715 21.2956 0 20.8479 0 20.2956V12.6076C0 12.0553 0.447717 11.6076 1 11.6076ZM12.6625 12.6076L12.6625 20.2957C12.6625 20.848 13.1103 21.2957 13.6625 21.2957C14.2148 21.2957 14.6625 20.848 14.6625 20.2957L14.6625 12.6076C14.6625 12.0553 14.2148 11.6076 13.6625 11.6076C13.1103 11.6076 12.6625 12.0553 12.6625 12.6076ZM18.9938 20.2957L18.9938 9.44204C18.9938 8.88976 19.4415 8.44204 19.9938 8.44204C20.5461 8.44204 20.9938 8.88975 20.9938 9.44204L20.9938 20.2957C20.9938 20.848 20.5461 21.2957 19.9938 21.2957C19.4416 21.2957 18.9938 20.848 18.9938 20.2957Z" fill="black"/>
</svg>
