<svg width="25" height="26" viewBox="0 0 25 26" fill="none" xmlns="http://www.w3.org/2000/svg">
<path fill-rule="evenodd" clip-rule="evenodd" d="M13.8387 1.9812C13.8387 1.42892 13.391 0.981201 12.8387 0.981201C12.2865 0.981201 11.8387 1.42892 11.8387 1.9812V4.81827C11.8387 5.37055 12.2865 5.81827 12.8387 5.81826C13.391 5.81826 13.8387 5.37055 13.8387 4.81827V1.9812ZM12.3797 18.0623C14.9912 18.0623 17.1082 15.9443 17.1082 13.3317C17.1082 10.719 14.9912 8.60102 12.3797 8.60102C9.7683 8.60102 7.65131 10.719 7.65131 13.3317C7.65131 15.9443 9.7683 18.0623 12.3797 18.0623ZM12.3798 20.8407C12.932 20.8407 13.3798 21.2884 13.3798 21.8407V24.6777C13.3798 25.23 12.932 25.6777 12.3798 25.6777C11.8275 25.6777 11.3798 25.23 11.3798 24.6777V21.8407C11.3798 21.2884 11.8275 20.8407 12.3798 20.8407ZM4.86856 13.3295C4.86856 13.8817 4.42084 14.3295 3.86856 14.3295H1.03149C0.479209 14.3295 0.0314941 13.8817 0.0314941 13.3295C0.0314941 12.7772 0.479209 12.3295 1.03149 12.3295H3.86856C4.42084 12.3295 4.86856 12.7772 4.86856 13.3295ZM23.728 14.3295C24.2803 14.3295 24.728 13.8817 24.728 13.3295C24.728 12.7772 24.2803 12.3295 23.728 12.3295H20.8909C20.3387 12.3295 19.8909 12.7772 19.8909 13.3295C19.8909 13.8817 20.3387 14.3295 20.8909 14.3295H23.728ZM7.06825 18.6407C7.45878 19.0312 7.45878 19.6644 7.06825 20.0549L5.06215 22.061C4.67162 22.4516 4.03846 22.4516 3.64793 22.061C3.25741 21.6705 3.25741 21.0374 3.64793 20.6468L5.65404 18.6407C6.04457 18.2502 6.67773 18.2502 7.06825 18.6407ZM21.5703 6.01218C21.9609 5.62166 21.9609 4.98849 21.5703 4.59797C21.1798 4.20745 20.5467 4.20745 20.1561 4.59797L18.15 6.60408C17.7595 6.9946 17.7595 7.62777 18.15 8.01829C18.5405 8.40882 19.1737 8.40882 19.5642 8.01829L21.5703 6.01218ZM7.52771 8.01819C7.13718 8.40872 6.50402 8.40872 6.11349 8.01819L4.10739 6.01209C3.71686 5.62156 3.71686 4.9884 4.10739 4.59787C4.49791 4.20735 5.13108 4.20735 5.5216 4.59787L7.52771 6.60398C7.91823 6.9945 7.91823 7.62767 7.52771 8.01819ZM19.6971 22.0609C20.0877 22.4515 20.7208 22.4515 21.1114 22.0609C21.5019 21.6704 21.5019 21.0373 21.1114 20.6467L19.1052 18.6406C18.7147 18.2501 18.0816 18.2501 17.691 18.6406C17.3005 19.0311 17.3005 19.6643 17.691 20.0548L19.6971 22.0609Z" fill="black"/>
</svg>
