<svg width="27" height="26" viewBox="0 0 27 26" fill="none" xmlns="http://www.w3.org/2000/svg">
<path fill-rule="evenodd" clip-rule="evenodd" d="M3.33479 0C1.49894 0 0.0134282 1.49021 0.0134282 3.32509C0.0134282 5.15997 1.49894 6.65018 3.33479 6.65018C3.89309 6.65018 4.41899 6.51236 4.88056 6.26894L5.5134 6.90178L5.64049 7.03255C5.52008 7.19767 5.44904 7.40109 5.44904 7.62109V17.8292C5.44904 18.1743 5.6239 18.4786 5.88988 18.6583L4.81851 19.6917C4.36997 19.466 3.86331 19.339 3.32677 19.339C1.48793 19.339 0 20.8316 0 22.6695C0 24.5073 1.48793 26 3.32677 26C5.16561 26 6.65354 24.5073 6.65354 22.6695C6.65354 22.0964 6.50888 21.5569 6.25404 21.0858L8.28186 19.1299C8.37399 19.0411 8.44539 18.9388 8.49593 18.8292H17.9725C18.0103 18.9112 18.0601 18.9894 18.1218 19.0613L19.7875 21.0028C19.5005 21.4927 19.3354 22.0636 19.3354 22.6724C19.3354 24.4952 20.8112 25.9757 22.6351 25.9757C24.4589 25.9757 25.9347 24.4952 25.9347 22.6724C25.9347 20.8495 24.4589 19.369 22.6351 19.369C22.1498 19.369 21.6885 19.4743 21.2732 19.6629L20.3436 18.5795C20.5514 18.3962 20.6825 18.128 20.6825 17.8292V9.19102C20.6825 8.63874 20.2348 8.19102 19.6825 8.19102H19.2275L21.1825 6.24816C21.6407 6.4889 22.1627 6.62552 22.716 6.62552C24.5423 6.62552 26.0201 5.14304 26.0201 3.31768C26.0201 1.49233 24.5423 0.00984913 22.716 0.00984913C20.8897 0.00984913 19.4119 1.49233 19.4119 3.31768C19.4119 3.86095 19.5432 4.37431 19.7753 4.82692L16.7642 7.81942C16.6551 7.92786 16.5762 8.05523 16.5276 8.19102H13.6483L12.1258 6.8666C11.9438 6.70829 11.7107 6.62109 11.4695 6.62109H7.9857C7.94479 6.54956 7.89431 6.48196 7.83422 6.42014L6.93769 5.49764L6.28804 4.84799C6.52333 4.39159 6.65615 3.87375 6.65615 3.32509C6.65615 1.49021 5.17064 0 3.33479 0Z" fill="black"/>
</svg>
