<svg width="27" height="27" viewBox="0 0 27 27" fill="none" xmlns="http://www.w3.org/2000/svg">
<path fill-rule="evenodd" clip-rule="evenodd" d="M5.08535 6.33831C4.59049 6.6378 4.01011 6.81017 3.38946 6.81017C1.57792 6.81017 0.109375 5.34163 0.109375 3.53009C0.109375 1.71854 1.57792 0.25 3.38946 0.25C5.201 0.25 6.66955 1.71854 6.66955 3.53009C6.66955 3.98708 6.57609 4.42224 6.40725 4.8175L9.04565 7.74734H11.0548C11.2912 7.74734 11.52 7.83112 11.7005 7.98381L13.1863 9.24043C13.3669 9.39312 13.5957 9.4769 13.8321 9.4769H15.6657L19.8126 4.82017C19.6431 4.4242 19.5492 3.98811 19.5492 3.53009C19.5492 1.71854 21.0177 0.25 22.8293 0.25C24.6408 0.25 26.1094 1.71854 26.1094 3.53009C26.1094 5.34163 24.6408 6.81017 22.8293 6.81017C22.2101 6.81017 21.631 6.63861 21.1369 6.34043L18.3438 9.4769H19.7271C20.2794 9.4769 20.7271 9.92462 20.7271 10.4769V17.9934C20.7271 18.3382 20.5525 18.6423 20.287 18.822L21.5419 19.9521C21.9371 19.7833 22.3723 19.6898 22.8293 19.6898C24.6408 19.6898 26.1094 21.1584 26.1094 22.9699C26.1094 24.7815 24.6408 26.25 22.8293 26.25C21.0177 26.25 19.5492 24.7815 19.5492 22.9699C19.5492 22.3493 19.7216 21.7689 20.0211 21.274L17.4885 18.9934H8.73027L6.19769 21.274C6.49717 21.7689 6.66955 22.3493 6.66955 22.9699C6.66955 24.7815 5.201 26.25 3.38946 26.25C1.57792 26.25 0.109375 24.7815 0.109375 22.9699C0.109375 21.1584 1.57792 19.6898 3.38946 19.6898C3.84645 19.6898 4.28161 19.7833 4.67688 19.9521L6.04524 18.7199C5.85258 18.5376 5.73238 18.2795 5.73238 17.9934V8.74734C5.73238 8.31012 6.01298 7.93843 6.40393 7.80254L5.08535 6.33831Z" fill="black"/>
</svg>
