<svg width="26" height="26" viewBox="0 0 26 26" fill="none" xmlns="http://www.w3.org/2000/svg">
<path fill-rule="evenodd" clip-rule="evenodd" d="M3.28009 6.56017C3.9007 6.56017 4.48106 6.38782 4.97591 6.08835L7.69137 9.10376L9.17756 7.7654L6.29784 4.56759C6.46671 4.1723 6.56017 3.73711 6.56017 3.28009C6.56017 1.46855 5.09163 0 3.28009 0C1.46855 0 0 1.46855 0 3.28009C0 5.09163 1.46855 6.56017 3.28009 6.56017ZM22.7199 6.56017C22.1023 6.56017 21.5245 6.38948 21.0313 6.09269L17.1511 10.501L15.6498 9.17963L19.7045 4.57302C19.5342 4.17629 19.4398 3.7392 19.4398 3.28009C19.4398 1.46855 20.9084 0 22.7199 0C24.5315 0 26 1.46855 26 3.28009C26 5.09163 24.5315 6.56017 22.7199 6.56017ZM6.0884 21.0242C6.38783 21.519 6.56017 22.0993 6.56017 22.7199C6.56017 24.5315 5.09163 26 3.28009 26C1.46855 26 0 24.5315 0 22.7199C0 20.9084 1.46854 19.4398 3.28009 19.4398C3.73714 19.4398 4.17236 19.5333 4.56767 19.7022L7.11624 17.4071L8.45461 18.8933L6.0884 21.0242ZM19.4398 22.7199C19.4398 22.0993 19.6122 21.519 19.9116 21.0242L17.2815 18.6557L18.6199 17.1695L21.4323 19.7022C21.8276 19.5333 22.2629 19.4398 22.7199 19.4398C24.5315 19.4398 26 20.9084 26 22.7199C26 24.5315 24.5315 26 22.7199 26C20.9084 26 19.4398 24.5315 19.4398 22.7199Z" fill="black"/>
<path fill-rule="evenodd" clip-rule="evenodd" d="M19.2347 15.7816C17.7043 16.9238 15.4781 17.6429 13.0002 17.6429C10.5218 17.6429 8.29513 16.9234 6.76463 15.7808C7.01405 16.3529 7.50817 16.8909 8.26667 17.3521C9.4217 18.0544 11.0893 18.5 12.9999 18.5C14.9104 18.5 16.578 18.0544 17.733 17.3521C18.4912 16.8912 18.9852 16.3534 19.2347 15.7816ZM4.66744 11.6431C4.99558 8.76637 8.6012 6.5 13.0002 6.5C17.4004 6.5 21.0067 8.76748 21.3333 11.6452C21.3943 11.7745 21.4284 11.919 21.4284 12.0715V14.8657C21.4284 16.6893 20.3074 18.1276 18.7721 19.061C17.2384 19.9935 15.1918 20.5 12.9999 20.5C10.808 20.5 8.76131 19.9935 7.22766 19.061C5.69229 18.1276 4.57129 16.6893 4.57129 14.8657V12.0715C4.57129 11.9182 4.60578 11.7729 4.66744 11.6431Z" fill="black"/>
</svg>
