<svg width="27" height="27" viewBox="0 0 27 27" fill="none" xmlns="http://www.w3.org/2000/svg">
<path fill-rule="evenodd" clip-rule="evenodd" d="M5.08529 6.33835C4.59044 6.63781 4.01008 6.81017 3.38946 6.81017C1.57792 6.81017 0.109375 5.34163 0.109375 3.53009C0.109375 1.71855 1.57792 0.25 3.38946 0.25C5.201 0.25 6.66955 1.71855 6.66955 3.53009C6.66955 3.9871 6.57608 4.42229 6.40722 4.81757L8.84796 7.52791C10.0958 7.03376 11.553 6.75 13.1096 6.75C14.6852 6.75 16.1591 7.04075 17.417 7.54617L19.8139 4.82301C19.6435 4.42628 19.5492 3.9892 19.5492 3.53009C19.5492 1.71855 21.0177 0.25 22.8293 0.25C24.6408 0.25 26.1094 1.71855 26.1094 3.53009C26.1094 5.34163 24.6408 6.81017 22.8293 6.81017C22.2117 6.81017 21.6339 6.63947 21.1406 6.34268L19.2222 8.52227C20.4786 9.4203 21.2951 10.5954 21.4426 11.8951C21.5037 12.0244 21.5378 12.1689 21.5378 12.3214V15.1156C21.5378 16.4822 20.9083 17.6323 19.9467 18.5158L21.5417 19.9522C21.937 19.7833 22.3722 19.6898 22.8293 19.6898C24.6408 19.6898 26.1094 21.1584 26.1094 22.9699C26.1094 24.7815 24.6408 26.25 22.8293 26.25C21.0177 26.25 19.5492 24.7815 19.5492 22.9699C19.5492 22.3493 19.7215 21.769 20.021 21.2741L18.2339 19.6648C16.7931 20.3709 15.0056 20.75 13.1092 20.75C11.213 20.75 9.42547 20.3709 7.98475 19.6649L6.19776 21.2741C6.4972 21.769 6.66955 22.3493 6.66955 22.9699C6.66955 24.7815 5.201 26.25 3.38946 26.25C1.57792 26.25 0.109375 24.7815 0.109375 22.9699C0.109375 21.1584 1.57792 19.6898 3.38946 19.6898C3.84651 19.6898 4.28172 19.7833 4.67702 19.9522L6.27188 18.516C5.3102 17.6324 4.68066 16.4823 4.68066 15.1156V12.3214C4.68066 12.1682 4.71515 12.0229 4.77677 11.8931C4.92623 10.5827 5.75574 9.39901 7.03051 8.49843L5.08529 6.33835ZM13.1096 17.8929C15.5875 17.8929 17.8136 17.1738 19.3441 16.0316C19.0946 16.6034 18.6006 17.1411 17.8424 17.6021C16.6874 18.3043 15.0198 18.75 13.1092 18.75C11.1987 18.75 9.53107 18.3043 8.37605 17.6021C7.61757 17.1409 7.12346 16.6029 6.87404 16.0308C8.40453 17.1734 10.6311 17.8929 13.1096 17.8929Z" fill="black"/>
</svg>
