<svg width="28" height="28" viewBox="0 0 28 28" fill="none" xmlns="http://www.w3.org/2000/svg">
<path fill-rule="evenodd" clip-rule="evenodd" d="M24.2965 0.244629C22.3905 0.244629 20.8482 1.79179 20.8482 3.69693C20.8482 4.2818 20.9935 4.83294 21.2501 5.31593L19.2754 7.2953C17.8161 6.47201 15.9714 5.99805 13.9961 5.99805C12.0224 5.99805 10.1791 6.47124 8.72044 7.29328L6.78043 5.34741C7.0396 4.861 7.18646 4.30566 7.18646 3.71624C7.18646 1.80098 5.63589 0.245605 3.71979 0.245605C1.80369 0.245605 0.253126 1.80098 0.253126 3.71624C0.253126 5.6315 1.80369 7.18687 3.71979 7.18687C4.31841 7.18687 4.88134 7.03506 5.37247 6.7679L7.10513 8.50581C6.17865 9.43644 5.57971 10.6093 5.57971 11.9423C5.57971 12.0556 5.58404 12.1677 5.59252 12.2786C5.58409 12.3309 5.57971 12.3845 5.57971 12.4391V15.8098C5.57971 17.2359 6.26412 18.4267 7.29622 19.3247L5.39702 21.2283C4.89994 20.9533 4.32821 20.7966 3.71967 20.7966C1.80039 20.7966 0.247253 22.3546 0.247253 24.273C0.247253 26.1915 1.80039 27.7494 3.71967 27.7494C5.63894 27.7494 7.19208 26.1915 7.19208 24.273C7.19208 23.6904 7.04881 23.1409 6.79551 22.6583L9.02088 20.4278C10.4342 21.0902 12.1644 21.4451 13.9961 21.4451C15.8285 21.4451 17.5593 21.09 18.9729 20.4271L21.2438 22.6981C20.9911 23.1778 20.8482 23.7242 20.8482 24.3039C20.8482 26.2064 22.3884 27.7514 24.2917 27.7514C26.1951 27.7514 27.7353 26.2064 27.7353 24.3039C27.7353 22.4014 26.1951 20.8564 24.2917 20.8564C23.6962 20.8564 23.1363 21.0076 22.6479 21.2737L20.6976 19.3233C21.7288 18.4254 22.4125 17.2352 22.4125 15.8098V12.4391C22.4125 12.3845 22.4081 12.3309 22.3997 12.2786C22.4082 12.1677 22.4125 12.0556 22.4125 11.9423C22.4125 10.6107 21.8148 9.43886 20.8899 8.50868L22.6587 6.73581C23.1458 6.99948 23.7036 7.14922 24.2965 7.14922C26.2025 7.14922 27.7449 5.60206 27.7449 3.69693C27.7449 1.79179 26.2025 0.244629 24.2965 0.244629ZM7.57972 15.8114C7.77581 15.974 7.98228 16.1272 8.19722 16.2705C9.7251 17.2891 11.7782 17.8866 13.9961 17.8866C16.214 17.8866 18.2671 17.2891 19.795 16.2705C20.0099 16.1272 20.2164 15.974 20.4125 15.8114C20.4119 16.7184 19.8701 17.5969 18.7201 18.2974C17.5674 18.9995 15.9031 19.4451 13.9961 19.4451C12.0891 19.4451 10.4248 18.9995 9.27212 18.2974C8.12209 17.5969 7.58035 16.7184 7.57972 15.8114Z" fill="black"/>
</svg>
