<svg width="27" height="19" viewBox="0 0 27 19" fill="none" xmlns="http://www.w3.org/2000/svg">
<path fill-rule="evenodd" clip-rule="evenodd" d="M7.60451 0.466495C7.79439 0.24948 8.06872 0.125 8.35708 0.125H25.0527C25.605 0.125 26.0527 0.572715 26.0527 1.125V17.8207C26.0527 18.3729 25.605 18.8207 25.0527 18.8207H8.35708C8.06872 18.8207 7.79439 18.6962 7.60451 18.4792L0.300158 10.1313C-0.0297398 9.7543 -0.0297398 9.19135 0.300158 8.81432L7.60451 0.466495ZM20.5556 13.6709C20.9482 13.2825 20.9516 12.6493 20.5632 12.2567L17.8849 9.54927L20.5908 6.87248C20.9834 6.48407 20.9869 5.85092 20.5984 5.45829C20.21 5.06566 19.5769 5.06223 19.1843 5.45064L16.4784 8.12743L13.8019 5.42189C13.4135 5.02926 12.7804 5.02583 12.3877 5.41424C11.9951 5.80265 11.9917 6.4358 12.3801 6.82843L15.0565 9.53398L12.3495 12.2119C11.9568 12.6003 11.9534 13.2335 12.3418 13.6261C12.7302 14.0188 13.3634 14.0222 13.756 13.6338L16.4631 10.9558L19.1414 13.6632C19.5298 14.0559 20.1629 14.0593 20.5556 13.6709Z" fill="black"/>
</svg>
