<svg width="25" height="19" viewBox="0 0 25 19" fill="none" xmlns="http://www.w3.org/2000/svg">
<path fill-rule="evenodd" clip-rule="evenodd" d="M23.6546 0.688965H8.01848C7.72162 0.688965 7.44011 0.820858 7.25012 1.04895L0.599799 9.03299C0.290953 9.40378 0.290952 9.94223 0.599798 10.313L7.25012 18.2971C7.44011 18.5251 7.72162 18.657 8.01848 18.657H23.6546C24.2069 18.657 24.6546 18.2093 24.6546 17.657V1.68896C24.6546 1.13668 24.2069 0.688965 23.6546 0.688965ZM11.6497 13.6246C12.0381 14.0172 12.6713 14.0206 13.0639 13.6322L15.5855 11.1377L18.08 13.6593C18.4684 14.0519 19.1016 14.0553 19.4942 13.6669C19.8868 13.2785 19.8903 12.6454 19.5019 12.2527L17.0074 9.73116L19.5275 7.23814C19.9201 6.84973 19.9236 6.21657 19.5351 5.82394C19.1467 5.43131 18.5136 5.42789 18.121 5.8163L15.6008 8.30932L13.1078 5.78916C12.7194 5.39653 12.0862 5.3931 11.6936 5.78151C11.301 6.16992 11.2975 6.80307 11.6859 7.1957L14.179 9.71586L11.6574 12.2104C11.2647 12.5988 11.2613 13.2319 11.6497 13.6246Z" fill="black"/>
</svg>
