<svg width="26" height="20" viewBox="0 0 26 20" fill="none" xmlns="http://www.w3.org/2000/svg">
<path fill-rule="evenodd" clip-rule="evenodd" d="M24.9998 0.863281H8.38136C8.0845 0.863281 7.80299 0.995174 7.613 1.22327L0.532905 9.72327C0.224058 10.0941 0.224058 10.6325 0.532904 11.0033L7.613 19.5033C7.80299 19.7314 8.0845 19.8633 8.38136 19.8633H24.9998C25.5521 19.8633 25.9998 19.4156 25.9998 18.8633V1.86328C25.9998 1.311 25.5521 0.863281 24.9998 0.863281ZM12.2889 14.5014C12.6773 14.894 13.3104 14.8974 13.7031 14.509L16.4104 11.8309L19.0885 14.5381C19.4769 14.9307 20.11 14.9342 20.5027 14.5458C20.8953 14.1574 20.8987 13.5242 20.5103 13.1316L17.8322 10.4243L20.5379 7.74775C20.9305 7.35934 20.9339 6.72619 20.5455 6.33356C20.1571 5.94093 19.524 5.9375 19.1313 6.32591L16.4256 9.0025L13.749 6.29677C13.3606 5.90414 12.7275 5.90072 12.3348 6.28913C11.9422 6.67753 11.9388 7.31069 12.3272 7.70332L15.0038 10.409L12.2965 13.0872C11.9039 13.4756 11.9005 14.1088 12.2889 14.5014Z" fill="black"/>
</svg>
