<svg width="26" height="27" viewBox="0 0 26 27" fill="none" xmlns="http://www.w3.org/2000/svg">
<path fill-rule="evenodd" clip-rule="evenodd" d="M16.7143 22.2857C16.7143 24.8499 18.793 26.9286 21.3571 26.9286C23.9213 26.9286 26 24.8499 26 22.2857C26 20.065 24.4409 18.2084 22.3576 17.7509L22.3576 13.9286C22.3576 13.3763 21.9099 12.9286 21.3576 12.9286L14.0005 12.9286L14.0005 9.17775C16.084 8.72039 17.6433 6.86373 17.6433 4.64286C17.6433 2.07868 15.5646 -4.56144e-07 13.0005 -5.68228e-07C10.4363 -6.80312e-07 8.3576 2.07868 8.3576 4.64286C8.3576 6.86373 9.91692 8.7204 12.0005 9.17775L12.0005 12.9286L4.64331 12.9286C4.09103 12.9286 3.64331 13.3763 3.64331 13.9286L3.64331 17.7507C1.55955 18.2079 -8.77055e-07 20.0647 -9.74139e-07 22.2857C-1.08622e-06 24.8499 2.07868 26.9286 4.64286 26.9286C7.20704 26.9286 9.28571 24.8499 9.28571 22.2857C9.28571 20.065 7.72662 18.2084 5.64331 17.7509L5.64331 14.9286L20.3576 14.9286L20.3576 17.7507C18.2738 18.2079 16.7143 20.0647 16.7143 22.2857Z" fill="black"/>
</svg>
