<svg width="25" height="25" viewBox="0 0 25 25" fill="none" xmlns="http://www.w3.org/2000/svg">
<path fill-rule="evenodd" clip-rule="evenodd" d="M4.13826 2.41356C3.82565 2.52732 3.53857 2.70156 3.29339 2.92631L3.28557 2.93347L3.28554 2.93343C2.7863 3.38143 2.48529 4.00951 2.44882 4.67982C2.41245 5.3482 2.64207 6.00406 3.08753 6.50408C3.31179 6.74763 3.58154 6.94495 3.88155 7.08488C4.18333 7.22564 4.5098 7.30558 4.84231 7.32015C5.17481 7.33472 5.50684 7.28366 5.81945 7.16989C6.13205 7.05613 6.41914 6.8819 6.66432 6.65714L7.34005 7.39429L6.67188 6.65028C7.17095 6.20207 7.47183 5.57394 7.50831 4.90361C7.54468 4.23527 7.31523 3.57942 6.87004 3.07923C6.64581 2.83574 6.3761 2.63848 6.07616 2.49857C5.77437 2.35781 5.4479 2.27788 5.1154 2.2633C4.7829 2.24873 4.45086 2.2998 4.13826 2.41356ZM8.01205 8.13485C8.76071 7.46096 9.25936 6.56084 9.43835 5.58021L11.1897 5.58048L11.1897 18.5763L9.35434 18.576C9.17125 17.9 8.83238 17.269 8.35676 16.7372L8.35682 16.7371L8.34858 16.7282C7.94618 16.2891 7.46129 15.9336 6.92158 15.6818C6.38187 15.4301 5.7979 15.2871 5.20298 15.261C4.60806 15.2349 4.01385 15.3263 3.45431 15.5299C2.89642 15.7329 2.38389 16.0436 1.94583 16.4442C1.05418 17.2462 0.516948 18.3692 0.451772 19.5669C0.386501 20.7664 0.799976 21.9429 1.60121 22.8381L1.60116 22.8382L1.60913 22.8468C2.01153 23.2859 2.49641 23.6414 3.03612 23.8932C3.57583 24.1449 4.15981 24.2879 4.75473 24.314C5.34965 24.3401 5.94385 24.2487 6.5034 24.0451C7.06136 23.842 7.57395 23.5313 8.01205 23.1306C8.76071 22.4567 9.25936 21.5566 9.43835 20.576L15.4259 20.5769L15.4235 23.5265C15.4231 24.0786 15.8702 24.5266 16.4223 24.5273L21.3228 24.5332C21.5882 24.5335 21.8428 24.4284 22.0306 24.2409C22.2184 24.0534 22.3239 23.799 22.324 23.5336L22.3254 20.578L23.9998 20.5783C24.552 20.5784 24.9998 20.1307 24.9999 19.5784C25 19.0262 24.5524 18.5784 24.0001 18.5783L13.1897 18.5766L13.1897 5.5808L15.4259 5.58115L15.4235 8.53072C15.4231 9.08285 15.8702 9.53085 16.4223 9.53152L21.3228 9.53742C21.5882 9.53774 21.8428 9.43259 22.0306 9.24511C22.2184 9.05764 22.3239 8.80322 22.324 8.53787L22.3254 5.58224L23.9998 5.5825C24.552 5.58259 24.9998 5.13495 24.9999 4.58266C25 4.03038 24.5524 3.58259 24.0001 3.5825L9.35434 3.58019C9.17125 2.90418 8.83238 2.27322 8.35676 1.74141L8.35682 1.74136L8.34858 1.73238C7.94618 1.29333 7.46129 0.937784 6.92158 0.686046C6.38187 0.434308 5.7979 0.291297 5.20298 0.265221C4.60806 0.239145 4.01385 0.330515 3.45431 0.534142C2.89642 0.737166 2.38389 1.04781 1.94583 1.44844C1.05418 2.25046 0.516948 3.37338 0.451772 4.57115C0.386501 5.77066 0.799976 6.94715 1.60121 7.84233L1.60116 7.84238L1.60913 7.85108C2.01153 8.29012 2.49641 8.64567 3.03612 8.89741C3.57583 9.14915 4.15981 9.29216 4.75473 9.31823C5.34965 9.34431 5.94385 9.25294 6.5034 9.04931C7.06136 8.84626 7.57395 8.53555 8.01205 8.13485ZM20.3254 5.58192L17.4259 5.58147L17.4243 7.53272L20.3245 7.53622L20.3254 5.58192ZM4.13826 17.4093C3.82565 17.5231 3.53857 17.6973 3.29339 17.9221L3.28557 17.9292L3.28554 17.9292C2.7863 18.3772 2.48529 19.0053 2.44882 19.6756C2.41245 20.344 2.64207 20.9998 3.08753 21.4999C3.31179 21.7434 3.58154 21.9407 3.88155 22.0807C4.18333 22.2214 4.5098 22.3013 4.84231 22.3159C5.17481 22.3305 5.50684 22.2794 5.81945 22.1657C6.13205 22.0519 6.41914 21.8777 6.66432 21.6529L7.34005 22.3901L6.67188 21.6461C7.17095 21.1978 7.47183 20.5697 7.50831 19.8994C7.54468 19.231 7.31523 18.5752 6.87004 18.075C6.64581 17.8315 6.3761 17.6343 6.07616 17.4943C5.77437 17.3536 5.4479 17.2737 5.1154 17.2591C4.7829 17.2445 4.45086 17.2956 4.13826 17.4093ZM17.4259 20.5772L20.3254 20.5777L20.3245 22.532L17.4243 22.5285L17.4259 20.5772Z" fill="black"/>
</svg>
