<svg width="29" height="23" viewBox="0 0 29 23" fill="none" xmlns="http://www.w3.org/2000/svg">
<path fill-rule="evenodd" clip-rule="evenodd" d="M7.12793 0.491211H1.12793C0.575645 0.491211 0.12793 0.938926 0.12793 1.49121V7.49121C0.12793 8.0435 0.575645 8.49121 1.12793 8.49121H6.34687L10.8529 16.194C10.3961 16.8441 10.1279 17.6363 10.1279 18.4912C10.1279 20.7003 11.9188 22.4912 14.1279 22.4912C16.3371 22.4912 18.1279 20.7003 18.1279 18.4912C18.1279 17.5823 17.8248 16.7442 17.3141 16.0725L21.8905 8.49121H27.1279C27.6802 8.49121 28.1279 8.0435 28.1279 7.49121V1.49121C28.1279 0.938926 27.6802 0.491211 27.1279 0.491211H21.1279C20.5756 0.491211 20.1279 0.938926 20.1279 1.49121V7.49121C20.1279 7.50731 20.1283 7.52331 20.1291 7.53922L15.7309 14.8253C15.5025 14.7253 15.2629 14.646 15.0146 14.5898V8.49121H17.1279C17.6802 8.49121 18.1279 8.0435 18.1279 7.49121V1.49121C18.1279 0.938926 17.6802 0.491211 17.1279 0.491211H11.1279C10.5756 0.491211 10.1279 0.938926 10.1279 1.49121V7.49121C10.1279 8.0435 10.5756 8.49121 11.1279 8.49121H13.0146V14.6482C12.8027 14.7095 12.5981 14.7878 12.4022 14.8816L8.12489 7.56973C8.1269 7.54382 8.12793 7.51764 8.12793 7.49121V1.49121C8.12793 0.938926 7.68021 0.491211 7.12793 0.491211Z" fill="black"/>
</svg>
