<svg width="27" height="28" viewBox="0 0 27 28" fill="none" xmlns="http://www.w3.org/2000/svg">
<path fill-rule="evenodd" clip-rule="evenodd" d="M16.8422 22.7769C16.8422 25.3411 18.9209 27.4198 21.4851 27.4198C24.0493 27.4198 26.1279 25.3411 26.1279 22.7769C26.1279 20.5562 24.5688 18.6997 22.4855 18.2421L22.4855 14.4198C22.4855 13.8675 22.0378 13.4198 21.4855 13.4198L14.1284 13.4198L14.1284 9.66896C16.2119 9.2116 17.7712 7.35494 17.7712 5.13407C17.7712 2.56989 15.6926 0.49121 13.1284 0.49121C10.5642 0.49121 8.48553 2.56989 8.48553 5.13407C8.48553 7.35494 10.0448 9.21161 12.1284 9.66896L12.1284 13.4198L4.77124 13.4198C4.21896 13.4198 3.77124 13.8675 3.77124 14.4198L3.77124 18.2419C1.68748 18.6991 0.127929 20.5559 0.127929 22.7769C0.127929 25.3411 2.20661 27.4198 4.77079 27.4198C7.33497 27.4198 9.41364 25.3411 9.41364 22.7769C9.41364 20.5562 7.85455 18.6997 5.77124 18.2421L5.77124 15.4198L20.4855 15.4198L20.4855 18.2419C18.4018 18.6991 16.8422 20.5559 16.8422 22.7769Z" fill="black"/>
</svg>
