<svg width="25" height="25" viewBox="0 0 25 25" fill="none" xmlns="http://www.w3.org/2000/svg">
<path fill-rule="evenodd" clip-rule="evenodd" d="M4.13824 2.41392C3.82564 2.52768 3.53855 2.70192 3.29337 2.92667L3.28556 2.93383L3.28552 2.93379C2.78628 3.38179 2.48528 4.00986 2.4488 4.68018C2.41243 5.34856 2.64205 6.00442 3.08751 6.50444C3.31178 6.74799 3.58153 6.94531 3.88153 7.08524C4.18332 7.226 4.50979 7.30593 4.84229 7.32051C5.17479 7.33508 5.50682 7.28401 5.81943 7.17025C6.13204 7.05649 6.41912 6.88225 6.6643 6.6575L6.67182 6.6506L6.67186 6.65064C7.17094 6.20243 7.47182 5.5743 7.50829 4.90397C7.54466 4.23562 7.31522 3.57978 6.87003 3.07958C6.64579 2.8361 6.37609 2.63884 6.07614 2.49893C5.77436 2.35817 5.44789 2.27824 5.11538 2.26366C4.78288 2.24909 4.45085 2.30016 4.13824 2.41392ZM1.94582 1.4488C2.38388 1.04817 2.8964 0.737525 3.45429 0.534501C4.01384 0.330873 4.60804 0.239504 5.20296 0.26558C5.79788 0.291656 6.38186 0.434666 6.92157 0.686404C7.46128 0.938142 7.94617 1.29369 8.34856 1.73274L8.3568 1.74172L8.35674 1.74177C8.83237 2.27359 9.17124 2.90454 9.35433 3.58056L24.0002 3.58288C24.5524 3.58297 25.0001 4.03075 25 4.58303C24.9999 5.13532 24.5521 5.58296 23.9998 5.58288L22.3253 5.58261L22.324 8.53782C22.3239 8.80317 22.2183 9.05759 22.0306 9.24506C21.8428 9.43254 21.5882 9.53769 21.3228 9.53737L16.4223 9.53147C15.8702 9.53081 15.423 9.0828 15.4235 8.53067L15.4258 5.58152L13.1898 5.58117L13.1898 18.5768L24.0002 18.5785C24.5524 18.5786 25.0001 19.0264 25 19.5786C24.9999 20.1309 24.5521 20.5786 23.9998 20.5785L22.3253 20.5782L22.324 23.5339C22.3239 23.7993 22.2183 24.0537 22.0306 24.2412C21.8428 24.4286 21.5882 24.5338 21.3228 24.5335L16.4223 24.5276C15.8702 24.5269 15.423 24.0789 15.4235 23.5268L15.4258 20.5771L9.43834 20.5762C9.25934 21.5568 8.7607 22.4569 8.01204 23.1308C7.57393 23.5315 7.06134 23.8422 6.50338 24.0453C5.94384 24.2489 5.34963 24.3403 4.75471 24.3142C4.15979 24.2881 3.57582 24.1451 3.03611 23.8934C2.4964 23.6416 2.01151 23.2861 1.60911 22.847L1.60114 22.8383L1.60119 22.8383C0.799961 21.9431 0.386486 20.7666 0.451756 19.5671C0.516932 18.3693 1.05417 17.2464 1.94582 16.4444C2.38388 16.0438 2.8964 15.7331 3.45429 15.5301C4.01384 15.3265 4.60804 15.2351 5.20296 15.2612C5.79788 15.2873 6.38186 15.4303 6.92157 15.682C7.46128 15.9337 7.94617 16.2893 8.34856 16.7283L8.3568 16.7373L8.35674 16.7374C8.83237 17.2692 9.17124 17.9001 9.35433 18.5762L11.1898 18.5765L11.1898 5.58085L9.43834 5.58058C9.25934 6.56121 8.7607 7.46132 8.01204 8.13521C7.57393 8.53591 7.06134 8.84662 6.50338 9.04967C5.94384 9.2533 5.34963 9.34467 4.75471 9.31859C4.15979 9.29251 3.57582 9.1495 3.03611 8.89777C2.4964 8.64603 2.01151 8.29048 1.60911 7.85143L1.60114 7.84274L1.60119 7.84269C0.799961 6.94751 0.386486 5.77101 0.451756 4.57151C0.516932 3.37374 1.05417 2.25082 1.94582 1.4488ZM3.29337 17.9223C3.53855 17.6975 3.82564 17.5233 4.13824 17.4095C4.45085 17.2958 4.78288 17.2447 5.11538 17.2593C5.44789 17.2738 5.77436 17.3538 6.07614 17.4945C6.37609 17.6344 6.64579 17.8317 6.87003 18.0752C7.31522 18.5754 7.54466 19.2312 7.50829 19.8996C7.47182 20.5699 7.17094 21.198 6.67186 21.6462L6.67182 21.6462L6.6643 21.6531C6.41912 21.8779 6.13204 22.0521 5.81943 22.1659C5.50682 22.2796 5.17479 22.3307 4.84229 22.3161C4.50979 22.3015 4.18332 22.2216 3.88153 22.0808C3.58153 21.9409 3.31178 21.7436 3.08751 21.5C2.64205 21 2.41243 20.3442 2.4488 19.6758C2.48528 19.0055 2.78628 18.3774 3.28552 17.9294L3.28556 17.9294L3.29337 17.9223Z" fill="black"/>
</svg>
