<svg width="26" height="21" viewBox="0 0 26 21" fill="none" xmlns="http://www.w3.org/2000/svg">
<path fill-rule="evenodd" clip-rule="evenodd" d="M6.74806 1C6.74806 0.447715 6.30034 0 5.74806 0H1C0.447715 0 0 0.447715 0 1V5.74806C0 6.30034 0.447715 6.74806 1 6.74806H5.14185L9.95692 14.3316C9.53164 14.9511 9.28278 15.7012 9.28278 16.5094C9.28278 18.6372 11.0077 20.3621 13.1354 20.3621C15.2632 20.3621 16.9881 18.6372 16.9881 16.5094C16.9881 15.6997 16.7383 14.9484 16.3116 14.3282L21.1791 6.74806H25C25.5523 6.74806 26 6.30034 26 5.74806V1C26 0.447715 25.5523 0 25 0H20.2519C19.6997 0 19.2519 0.447715 19.2519 1V5.74806C19.2519 5.83454 19.2629 5.91846 19.2836 5.99849L14.7738 13.0215C14.5608 12.9212 14.3371 12.8399 14.1048 12.7798V6.74806H15.5096C16.0618 6.74806 16.5096 6.30034 16.5096 5.74806V1C16.5096 0.447715 16.0618 0 15.5096 0H10.7615C10.2092 0 9.76151 0.447715 9.76151 1V5.74806C9.76151 6.30034 10.2092 6.74806 10.7615 6.74806H12.1048V12.7962C11.8937 12.8546 11.6898 12.9307 11.4948 13.0225L6.74806 5.54655V1Z" fill="black"/>
</svg>
