<svg width="27" height="26" viewBox="0 0 27 26" fill="none" xmlns="http://www.w3.org/2000/svg">
<path fill-rule="evenodd" clip-rule="evenodd" d="M9.23231 3.77028C9.23231 1.68824 10.9198 0 13.0019 0C15.084 0 16.7715 1.68824 16.7715 3.77028C16.7715 4.09749 16.7298 4.41497 16.6515 4.71771L20.0306 8.09763C20.6501 7.6507 21.4109 7.38736 22.2332 7.38736C24.3154 7.38736 26.0028 9.07561 26.0028 11.1576C26.0028 13.1351 24.4806 14.7574 22.5437 14.9153L21.4265 19.0155C22.5054 19.6789 23.2247 20.8704 23.2247 22.2297C23.2247 24.3118 21.5372 26 19.4551 26C17.7864 26 16.3711 24.9156 15.8749 23.4131H10.0512C9.55213 24.9105 8.13937 25.9903 6.47419 25.9903C4.39207 25.9903 2.70459 24.3021 2.70459 22.2201C2.70459 20.8587 3.42608 19.6657 4.50761 19.0029L3.39874 14.9099C1.49073 14.7236 0 13.1145 0 11.1576C0 9.07561 1.68747 7.38736 3.7696 7.38736C4.59094 7.38736 5.35088 7.65007 5.97004 8.09603L9.35135 4.7139C9.27364 4.41231 9.23231 4.09612 9.23231 3.77028ZM5.3783 14.5683L6.42994 18.4501C6.44467 18.4499 6.45942 18.4498 6.47419 18.4498C8.27932 18.4498 9.78782 19.7187 10.1572 21.4131H15.7742C16.1472 19.7236 17.6534 18.4594 19.4551 18.4594C19.466 18.4594 19.4769 18.4595 19.4877 18.4596C19.4935 18.4596 19.4993 18.4597 19.505 18.4598L20.5722 14.5431C19.3232 13.9289 18.4636 12.6436 18.4636 11.1576C18.4636 10.6277 18.573 10.1233 18.7703 9.66578L15.6037 6.49848C14.9272 7.14409 14.0109 7.54055 13.0019 7.54055C11.9917 7.54055 11.0744 7.14313 10.3976 6.49613L7.23142 9.66311C7.42946 10.1214 7.53919 10.6267 7.53919 11.1576C7.53919 12.6642 6.65562 13.9646 5.3783 14.5683Z" fill="black"/>
</svg>
