<svg width="26" height="26" viewBox="0 0 26 26" fill="none" xmlns="http://www.w3.org/2000/svg">
<path fill-rule="evenodd" clip-rule="evenodd" d="M24.7369 24.3243C25.1101 24.7314 25.0826 25.364 24.6755 25.7371C24.2684 26.1103 23.6358 26.0828 23.2626 25.6757L16.6822 18.4971H15.4965C14.9442 18.4971 14.4965 18.0494 14.4965 17.4971C14.4965 17.1337 14.6904 16.8156 14.9803 16.6405L12.3182 13.7363H6.86176C6.30947 13.7363 5.86176 13.2886 5.86176 12.7363C5.86176 12.184 6.30947 11.7363 6.86176 11.7363H10.4848L7.97645 8.99991H5.72972C3.66981 8.99991 1.99992 10.6698 1.99992 12.7297C1.99992 14.7896 3.66981 16.4595 5.72972 16.4595H10.4498C11.0021 16.4595 11.4498 16.9072 11.4498 17.4595C11.4498 18.0118 11.0021 18.4595 10.4498 18.4595H5.72972C2.56524 18.4595 -7.71907e-05 15.8942 -7.71216e-05 12.7297C-7.70524e-05 9.56523 2.56524 6.99991 5.72972 6.99991H6.14312L1.26261 1.67572C0.889415 1.2686 0.916918 0.636032 1.32404 0.262838C1.73116 -0.110353 2.36372 -0.0828495 2.73692 0.324268L8.85625 6.99991H10.4498C11.0021 6.99991 11.4498 7.44762 11.4498 7.99991C11.4498 8.47734 11.1152 8.87662 10.6678 8.97609L13.198 11.7363H19.1081C19.6604 11.7363 20.1081 12.184 20.1081 12.7363C20.1081 13.2886 19.6604 13.7363 19.1081 13.7363H15.0313L17.562 16.4971H20.2701C22.33 16.4971 23.9999 14.8272 23.9999 12.7673C23.9999 10.7074 22.33 9.03748 20.2701 9.03748H15.4965C14.9442 9.03748 14.4965 8.58976 14.4965 8.03748C14.4965 7.48519 14.9442 7.03748 15.4965 7.03748H20.2701C23.4346 7.03748 25.9999 9.6028 25.9999 12.7673C25.9999 15.9318 23.4346 18.4971 20.2701 18.4971H19.3953L24.7369 24.3243Z" fill="black"/>
</svg>
