<svg width="25" height="26" viewBox="0 0 25 26" fill="none" xmlns="http://www.w3.org/2000/svg">
<path fill-rule="evenodd" clip-rule="evenodd" d="M18.4313 0.292893C18.2438 0.105357 17.9894 0 17.7242 0H7.22418C6.6719 0 6.22418 0.447715 6.22418 1V3H0.999939C0.447655 3 -6.10352e-05 3.44772 -6.10352e-05 4V25C-6.10352e-05 25.5523 0.447655 26 0.999939 26H17.1538C17.7061 26 18.1538 25.5523 18.1538 25V23H23.378C23.9303 23 24.378 22.5523 24.378 22V6.65385C24.378 6.38863 24.2727 6.13428 24.0851 5.94674L18.4313 0.292893ZM18.1538 21H22.378V7.65386H17.7242C17.1719 7.65386 16.7242 7.20614 16.7242 6.65386V2H8.22418V3H10.5V9.65384C10.5 10.2061 10.9477 10.6538 11.5 10.6538H18C18.0523 10.6538 18.1037 10.6498 18.1538 10.6421V21ZM18.7242 5.65386V3.41422L20.9638 5.65386H18.7242ZM12.5 3.58581L17.568 8.65384H12.5V3.58581ZM3.13055 16.9624C3.13055 17.5147 3.57827 17.9624 4.13055 17.9624H13.8128C14.3651 17.9624 14.8128 17.5147 14.8128 16.9624C14.8128 16.4101 14.3651 15.9624 13.8128 15.9624H4.13055C3.57827 15.9624 3.13055 16.4101 3.13055 16.9624ZM3.13055 20.1899C3.13055 19.6377 3.57827 19.1899 4.13055 19.1899H13.8128C14.3651 19.1899 14.8128 19.6377 14.8128 20.1899C14.8128 20.7422 14.3651 21.1899 13.8128 21.1899H4.13055C3.57827 21.1899 3.13055 20.7422 3.13055 20.1899Z" fill="black"/>
</svg>
