<svg width="22" height="25" viewBox="0 0 22 25" fill="none" xmlns="http://www.w3.org/2000/svg">
<path fill-rule="evenodd" clip-rule="evenodd" d="M15.3592 0.181152C15.6244 0.181152 15.8787 0.286509 16.0663 0.474046L21.5548 5.96253C21.7423 6.15007 21.8476 6.40442 21.8476 6.66964V20.567C21.8476 21.6715 20.9522 22.567 19.8476 22.567H15.7512V23.4792C15.7512 24.0315 15.3035 24.4792 14.7512 24.4792H1.06982C0.517539 24.4792 0.0698242 24.0315 0.0698242 23.4792V5.09337C0.0698242 4.54108 0.51754 4.09337 1.06982 4.09337H4.16625V2.18115C4.16625 1.07658 5.06169 0.181152 6.16625 0.181152H15.3592ZM6.16625 4.09337H9.26273V7.58186C9.26273 9.23871 10.6059 10.5819 12.2627 10.5819H15.7512V20.567H19.8476V7.66964H16.3592C15.2546 7.66964 14.3592 6.77421 14.3592 5.66964V2.18115H6.16625L6.16625 4.09337ZM16.3592 5.66964H18.4334L16.3592 3.59537L16.3592 5.66964ZM12.2627 8.58186H14.7512L11.2627 5.09337V7.58186C11.2627 8.13414 11.7104 8.58186 12.2627 8.58186ZM2.10864 19.8097C2.10864 19.2574 2.55636 18.8097 3.10864 18.8097H12.5077C13.06 18.8097 13.5077 19.2574 13.5077 19.8097C13.5077 20.3619 13.06 20.8097 12.5077 20.8097H3.10864C2.55636 20.8097 2.10864 20.3619 2.10864 19.8097ZM3.10864 17.6766C2.55636 17.6766 2.10864 17.2289 2.10864 16.6766C2.10864 16.1243 2.55636 15.6766 3.10864 15.6766H12.5078C13.06 15.6766 13.5078 16.1243 13.5078 16.6766C13.5078 17.2289 13.06 17.6766 12.5078 17.6766H3.10864Z" fill="black"/>
</svg>
