<svg width="19" height="26" viewBox="0 0 19 26" fill="none" xmlns="http://www.w3.org/2000/svg">
<path fill-rule="evenodd" clip-rule="evenodd" d="M15.7235 15.6282C16.1142 15.2378 16.1143 14.6047 15.7239 14.214C15.3335 13.8234 14.7003 13.8233 14.3097 14.2137L10.4866 18.0348V1C10.4866 0.447715 10.0389 0 9.48662 0C8.93434 0 8.48662 0.447715 8.48662 1V18.0369L4.65836 14.215C4.26751 13.8248 3.63434 13.8253 3.24414 14.2162C2.85395 14.607 2.85448 15.2402 3.24533 15.6304L8.78011 21.1559C9.17066 21.5458 9.80324 21.5456 10.1936 21.1555L15.7235 15.6282ZM17.706 24L1 24C0.447715 24 0 24.4477 0 25C0 25.5523 0.447715 26 1 26L17.706 26C18.2583 26 18.706 25.5523 18.706 25C18.706 24.4477 18.2583 24 17.706 24Z" fill="black"/>
</svg>
