<svg width="25" height="23" viewBox="0 0 25 23" fill="none" xmlns="http://www.w3.org/2000/svg">
<path fill-rule="evenodd" clip-rule="evenodd" d="M16.4754 1.69745C16.7958 1.36818 16.8506 0.862985 16.6083 0.472671C16.366 0.0823567 15.8889 -0.0926508 15.4517 0.048389L2.74284 4.14802C2.21722 4.31757 1.92858 4.88112 2.09813 5.40673C2.26769 5.93235 2.83123 6.22099 3.35684 6.05144L12.2352 3.18744L0.2833 15.4714C-0.00381585 15.7665 -0.0807244 16.2074 0.0895272 16.5822C0.259779 16.9571 0.642389 17.1893 1.05352 17.1673L3.58677 17.0316L5.70301 14.9154L3.49993 15.0334L16.4754 1.69745ZM21.1405 16.0912L15.9858 16.3674L18.102 14.2511L23.9045 13.9403C24.3295 13.9175 24.7224 14.1663 24.8835 14.5603C25.0447 14.9543 24.9388 15.4071 24.6196 15.6887L17.6502 21.8381C17.2361 22.2035 16.6042 22.164 16.2387 21.7499C15.8733 21.3358 15.9128 20.7039 16.327 20.3385L21.1405 16.0912ZM15.3928 6.94347C15.7833 6.55294 16.4165 6.55294 16.807 6.94347L19.5277 9.66412C19.9182 10.0546 19.9182 10.6878 19.5277 11.0783L9.63282 20.9732C9.50247 21.1035 9.33862 21.1953 9.15938 21.2384L5.57811 22.099C4.85189 22.2735 4.19761 21.6192 4.37213 20.893L5.23274 17.3118C5.27582 17.1325 5.3676 16.9687 5.49796 16.8383L12.4392 9.89706L16.574 14.0319L17.9882 12.6177L13.8534 8.48284L15.3928 6.94347Z" fill="black"/>
</svg>
