<svg width="27" height="27" viewBox="0 0 27 27" fill="none" xmlns="http://www.w3.org/2000/svg">
<path fill-rule="evenodd" clip-rule="evenodd" d="M9.80393 5.66062C10.4202 6.8589 11.6689 7.67857 13.1091 7.67857C14.5217 7.67857 15.7502 6.88999 16.3782 5.72902C17.835 6.32078 19.1428 7.27155 20.1249 8.45282C19.2464 9.13213 18.6807 10.1964 18.6807 11.3928C18.6807 13.3635 20.2154 14.9757 22.1549 15.0995C22.0094 16.4826 21.5192 17.8603 20.8376 19.0294C20.453 18.8947 20.0396 18.8215 19.6091 18.8215C17.5578 18.8215 15.8948 20.4844 15.8948 22.5358C15.8948 22.6875 15.9039 22.8372 15.9216 22.9842C15.0065 23.29 14.0264 23.4559 13.006 23.4559C12.0589 23.4559 11.1464 23.3129 10.2884 23.0478C10.3115 22.8804 10.3234 22.7095 10.3234 22.5358C10.3234 20.4844 8.66045 18.8215 6.60911 18.8215C6.11011 18.8215 5.6341 18.9199 5.19942 19.0983C4.53881 17.9658 4.10322 16.5428 3.94424 15.1052C5.93977 15.0415 7.53795 13.4038 7.53795 11.3928C7.53795 10.1397 6.91738 9.03152 5.96681 8.35882C6.97646 7.17263 8.31395 6.23159 9.80393 5.66062ZM3.95521 7.68081C5.29795 5.84656 7.23458 4.4365 9.40579 3.67671C9.55258 1.75975 11.1545 0.25 13.1091 0.25C15.0899 0.25 16.7086 1.80055 16.8175 3.75411C18.9049 4.53186 20.7678 5.91867 22.0678 7.69274C22.1756 7.68333 22.2848 7.67852 22.395 7.67852C24.4464 7.67852 26.1093 9.34146 26.1093 11.3928C26.1093 12.7923 25.3353 14.011 24.192 14.6442C24.1142 16.6294 23.4389 18.5861 22.4806 20.1797C23.0073 20.8208 23.3234 21.6414 23.3234 22.5358C23.3234 24.5871 21.6604 26.2501 19.6091 26.2501C18.4258 26.2501 17.3717 25.6967 16.6915 24.8347C15.5364 25.2373 14.2959 25.4559 13.006 25.4559C11.7762 25.4559 10.5912 25.2572 9.48239 24.8897C8.80122 25.7202 7.76704 26.2501 6.60911 26.2501C4.55776 26.2501 2.89482 24.5871 2.89482 22.5358C2.89482 21.7143 3.16147 20.9552 3.61294 20.3401C2.57954 18.6817 2.00046 16.5753 1.89461 14.5675C0.824184 13.9157 0.109375 12.7377 0.109375 11.3928C0.109375 9.34146 1.77232 7.67852 3.82366 7.67852C3.8677 7.67852 3.91155 7.67929 3.95521 7.68081Z" fill="black"/>
</svg>
