<svg width="26" height="26" viewBox="0 0 26 26" fill="none" xmlns="http://www.w3.org/2000/svg">
<path fill-rule="evenodd" clip-rule="evenodd" d="M1.75007 14.3417C1.84357 16.3203 2.3924 18.4001 3.37805 20.0682C2.9533 20.6784 2.70428 21.4202 2.70428 22.22C2.70428 24.3019 4.3915 25.9903 6.47355 25.9903C7.56083 25.9903 8.54043 25.5298 9.22831 24.7934C10.4092 25.2103 11.679 25.4368 12.9998 25.4368C14.2974 25.4368 15.5459 25.2182 16.7093 24.8151C17.3966 25.5446 18.3715 26 19.4529 26C21.5349 26 23.2221 24.3117 23.2221 22.2297C23.2221 21.4472 22.9837 20.7203 22.5756 20.1177C23.5833 18.4497 24.2874 16.3808 24.3274 14.2911C25.3362 13.6145 26 12.4634 26 11.1575C26 9.07556 24.3128 7.38721 22.2308 7.38721C22.1953 7.38721 22.1599 7.3877 22.1247 7.38867C20.79 5.59446 18.8844 4.19746 16.7543 3.42645C16.5807 1.5056 14.9666 0 13.0005 0C11.0349 0 9.4212 1.50475 9.24681 3.42482C7.19363 4.16655 5.35541 5.48357 4.03068 7.18631L3.87328 7.38861C3.83872 7.38768 3.80405 7.38721 3.76927 7.38721C1.68722 7.38721 0 9.07556 0 11.1575C0 12.4965 0.697983 13.6728 1.75007 14.3417ZM21.0272 18.8031C21.6823 17.6378 22.1481 16.284 22.2865 14.9273L22.2556 14.9277L22.2308 14.9278C20.1487 14.9278 18.4615 13.2394 18.4615 11.1575C18.4615 9.86942 19.1073 8.73202 20.0929 8.05188C19.1041 6.91446 17.8151 6.00065 16.3873 5.42685C15.7743 6.67853 14.4882 7.54055 13.0005 7.54055C11.5121 7.54055 10.2256 6.67781 9.61283 5.42528C8.18113 5.99932 6.89425 6.9112 5.90696 8.05176C6.89264 8.73188 7.53854 9.86935 7.53854 11.1575C7.53854 13.229 5.86821 14.9108 3.80058 14.9276C3.94819 16.298 4.34343 17.6569 4.94353 18.7733C5.41108 18.5653 5.9288 18.4497 6.47355 18.4497C8.5556 18.4497 10.2428 20.1381 10.2428 22.22C10.2428 22.4866 10.2152 22.7467 10.1625 22.9976C11.0563 23.2827 12.0093 23.4368 12.9998 23.4368C13.9644 23.4368 14.8933 23.2907 15.7665 23.0198C15.7122 22.765 15.6836 22.5007 15.6836 22.2297C15.6836 20.1478 17.3708 18.4595 19.4529 18.4595C20.0149 18.4595 20.5482 18.5825 21.0272 18.8031Z" fill="black"/>
</svg>
