<svg width="26" height="26" viewBox="0 0 26 26" fill="none" xmlns="http://www.w3.org/2000/svg">
<path fill-rule="evenodd" clip-rule="evenodd" d="M9.6945 5.4106C10.3107 6.60889 11.5595 7.42857 12.9997 7.42857C14.4123 7.42857 15.6407 6.63999 16.2688 5.47902C17.7256 6.07078 19.0333 7.02155 20.0154 8.20282C19.137 8.88213 18.5713 9.94641 18.5713 11.1428C18.5713 13.1135 20.106 14.7257 22.0454 14.8495C21.8999 16.2326 21.4097 17.6103 20.7281 18.7794C20.3436 18.6447 19.9302 18.5715 19.4997 18.5715C17.4483 18.5715 15.7854 20.2344 15.7854 22.2858C15.7854 22.4375 15.7945 22.5872 15.8122 22.7342C14.897 23.04 13.917 23.2058 12.8966 23.2058C11.9494 23.2058 11.037 23.0629 10.179 22.7978C10.202 22.6304 10.214 22.4595 10.214 22.2858C10.214 20.2344 8.55103 18.5715 6.49969 18.5715C6.00068 18.5715 5.52467 18.6699 5.08998 18.8483C4.42937 17.7158 3.99378 16.2929 3.83479 14.8552C5.83036 14.7916 7.42857 13.1538 7.42857 11.1428C7.42857 9.88967 6.80798 8.78148 5.85738 8.10879C6.86704 6.9226 8.20452 5.98156 9.6945 5.4106ZM3.84575 7.43081C5.18849 5.59655 7.12514 4.18648 9.29637 3.42669C9.44317 1.50974 11.0451 0 12.9997 0C14.9805 0 16.5992 1.55055 16.7081 3.50411C18.7955 4.28186 20.6584 5.66867 21.9584 7.44275C22.0662 7.43334 22.1753 7.42853 22.2856 7.42853C24.3369 7.42853 25.9999 9.09147 25.9999 11.1428C25.9999 12.5423 25.2259 13.761 24.0826 14.3942C24.0047 16.3794 23.3295 18.3361 22.3712 19.9297C22.8978 20.5708 23.214 21.3913 23.214 22.2858C23.214 24.3371 21.551 26 19.4997 26C18.3164 26 17.2623 25.4467 16.5821 24.5846C15.427 24.9873 14.1864 25.2058 12.8966 25.2058C11.6668 25.2058 10.4818 25.0072 9.37297 24.6397C8.69179 25.4702 7.65762 26 6.49969 26C4.44834 26 2.7854 24.3371 2.7854 22.2858C2.7854 21.4643 3.05205 20.7052 3.50351 20.0901C2.47009 18.4317 1.89101 16.3253 1.78517 14.3175C0.714776 13.6656 -5.87897e-08 12.4877 0 11.1428C8.96689e-08 9.09147 1.66294 7.42853 3.71429 7.42853C3.75829 7.42853 3.80212 7.42929 3.84575 7.43081Z" fill="black"/>
</svg>
