<svg width="26" height="26" viewBox="0 0 26 26" fill="none" xmlns="http://www.w3.org/2000/svg">
<path fill-rule="evenodd" clip-rule="evenodd" d="M25.2166 23.7033C25.6071 24.0938 25.6071 24.727 25.2166 25.1175C24.826 25.508 24.1929 25.508 23.8024 25.1175L15.4824 16.7976L10.4478 21.8322C10.3174 21.9626 10.1536 22.0544 9.97432 22.0974L4.23449 23.4768C3.50827 23.6513 2.854 22.997 3.02851 22.2708L4.40785 16.531C4.45093 16.3517 4.54271 16.1879 4.67307 16.0575L9.70772 11.0229L0.809983 2.12513C0.419459 1.73461 0.419459 1.10144 0.809983 0.710917C1.20051 0.320391 1.83367 0.320391 2.2242 0.710917L11.1219 9.60865L14.7267 6.00389L20.5013 11.7785L21.9155 10.3643L16.1409 4.58968L18.8516 1.87901C19.2421 1.48849 19.8753 1.48849 20.2658 1.87901L24.6263 6.23951C25.0168 6.63003 25.0168 7.26319 24.6263 7.65372L16.8966 15.3834L25.2166 23.7033Z" fill="black"/>
</svg>
