<svg width="26" height="26" viewBox="0 0 26 26" fill="none" xmlns="http://www.w3.org/2000/svg">
<path fill-rule="evenodd" clip-rule="evenodd" d="M19.8362 0.292893C19.4456 -0.0976311 18.8125 -0.0976311 18.4219 0.292893L14.8145 3.90039L22.0996 11.1856L25.7071 7.57807C26.0977 7.18755 26.0977 6.55439 25.7071 6.16386L19.8362 0.292893ZM20.6854 12.5998L13.4002 5.3146L9.04705 9.66779L2.04427 2.665C1.65374 2.27447 1.02058 2.27447 0.630051 2.665C0.239527 3.05552 0.239527 3.68869 0.630051 4.07921L7.63284 11.082L3.08554 15.6293C2.95519 15.7597 2.8634 15.9235 2.82033 16.1027L0.963188 23.8309C0.881873 24.1692 0.982322 24.5255 1.2284 24.7716C1.47448 25.0177 1.83079 25.1182 2.16916 25.0368L9.89727 23.1797C10.0765 23.1366 10.2404 23.0448 10.3707 22.9145L14.918 18.3672L21.9801 25.4293C22.3706 25.8198 23.0038 25.8198 23.3943 25.4293C23.7849 25.0387 23.7849 24.4056 23.3943 24.0151L16.3322 16.953L20.6854 12.5998Z" fill="black"/>
</svg>
