<svg width="28" height="28" viewBox="0 0 28 28" fill="none" xmlns="http://www.w3.org/2000/svg">
<path fill-rule="evenodd" clip-rule="evenodd" d="M10.8696 0.75C10.1793 0.75 9.61963 1.30964 9.61963 2V4.51294H5.77523C5.26975 4.51294 4.81403 4.81738 4.62049 5.28434L0.846169 14.3908C0.783283 14.5426 0.750916 14.7052 0.750916 14.8694V15.8762C0.750916 15.9584 0.75885 16.0388 0.773994 16.1165L0.750004 25.997C0.749197 26.329 0.880537 26.6478 1.11504 26.8828C1.34955 27.1179 1.66795 27.25 2 27.25H25.8716C26.562 27.25 27.1216 26.6904 27.1216 26V15.9245C27.1222 15.9085 27.1225 15.8924 27.1225 15.8762V14.8704C27.1225 14.7076 27.0907 14.5463 27.0289 14.3957L23.2904 5.28827C23.0979 4.81922 22.6411 4.51294 22.1341 4.51294H18.2529V2C18.2529 1.30964 17.6933 0.75 17.0029 0.75H10.8696ZM12.1196 9.28185V3.25H15.7529V9.28185H12.1196ZM3.27155 17.1262H24.6216V24.75H3.25304L3.27155 17.1262Z" fill="black"/>
</svg>
