<svg width="27" height="27" viewBox="0 0 27 27" fill="none" xmlns="http://www.w3.org/2000/svg">
<path fill-rule="evenodd" clip-rule="evenodd" d="M21.2827 3.81742H16.3766H9.69647H4.82801C4.41755 3.81742 4.04878 4.06824 3.89796 4.44998L0.037037 14.2226V15.1739C0.0129054 15.2599 0 15.3507 0 15.4444V25.0741C0 25.6264 0.447715 26.0741 1 26.0741H25.0741C25.6264 26.0741 26.0741 25.6264 26.0741 25.0741V15.4453V15.4444C26.0741 15.3507 26.0612 15.2599 26.037 15.1739V14.2237L22.214 4.45304C22.064 4.06968 21.6944 3.81742 21.2827 3.81742ZM2 24.0741V16.4444H24.0741V24.0741H2Z" fill="black"/>
<path d="M15.926 1H9.66675V9.70711H15.926V1Z" fill="white" stroke="black" stroke-width="2" stroke-linejoin="round"/>
</svg>
