<svg width="16" height="25" viewBox="0 0 16 25" fill="none" xmlns="http://www.w3.org/2000/svg">
<path fill-rule="evenodd" clip-rule="evenodd" d="M1.02344 25C0.471153 25 0.0234375 24.5523 0.0234375 24V3.875C0.0234375 3.32272 0.471152 2.875 1.02344 2.875L3.73844 2.875V1C3.73844 0.447716 4.18616 0 4.73844 0H11.2913C11.5576 0 11.813 0.106245 12.0007 0.295181C12.1884 0.484115 12.293 0.740129 12.2913 1.00646L12.2792 2.875L14.9877 2.875C15.54 2.875 15.9877 3.32272 15.9877 3.875L15.9877 24C15.9877 24.5523 15.54 25 14.9877 25H1.02344ZM8.73857 8.58802C8.90487 8.06137 8.61276 7.49961 8.08611 7.33331C7.55946 7.167 6.99771 7.45911 6.8314 7.98576L5.13059 13.3717C5.03464 13.6756 5.08924 14.007 5.2776 14.264C5.46596 14.521 5.76553 14.6729 6.08418 14.6729H8.73665L7.31388 18.7277C7.13103 19.2489 7.40526 19.8196 7.92639 20.0024C8.44753 20.1853 9.01823 19.9111 9.20108 19.3899L11.0909 14.0039C11.1982 13.698 11.1506 13.359 10.9631 13.0945C10.7756 12.83 10.4715 12.6729 10.1473 12.6729H7.44864L8.73857 8.58802Z" fill="black"/>
</svg>
