<svg width="21" height="22" viewBox="0 0 21 22" fill="none" xmlns="http://www.w3.org/2000/svg">
<path fill-rule="evenodd" clip-rule="evenodd" d="M10.3538 0.715147L10.4135 0.714848L10.4717 0.715011C11.0239 0.71811 11.4691 1.16833 11.466 1.72061C11.4629 2.27288 11.0127 2.71808 10.4604 2.71498L10.4135 2.71485L10.3737 2.71505C9.8214 2.72053 9.36926 2.27728 9.36378 1.72502C9.3583 1.17277 9.80155 0.720629 10.3538 0.715147ZM6.86644 2.26486C7.07241 2.7773 6.82397 3.35968 6.31153 3.56565L6.2733 3.58121C5.76262 3.79149 5.17815 3.54797 4.96787 3.03729C4.75758 2.5266 5.0011 1.94214 5.51179 1.73186L5.56564 1.70995C6.07808 1.50398 6.66047 1.75242 6.86644 2.26486ZM14.0774 2.43789C14.363 1.96517 14.9777 1.81346 15.4504 2.09903C15.4836 2.11911 15.5167 2.13938 15.5497 2.15984C16.0189 2.45114 16.1631 3.06766 15.8718 3.53687C15.5805 4.00609 14.964 4.15031 14.4948 3.85901C14.4687 3.84282 14.4425 3.82679 14.4162 3.81091C13.9435 3.52533 13.7918 2.91061 14.0774 2.43789ZM17.7091 5.52574C18.1962 5.26549 18.8021 5.4494 19.0623 5.93652C19.0804 5.97043 19.0984 6.00446 19.1161 6.0386C19.371 6.52858 19.1804 7.13237 18.6904 7.38721C18.2004 7.64205 17.5966 7.45143 17.3418 6.96146C17.3274 6.93387 17.3129 6.90637 17.2983 6.87898C17.038 6.39186 17.222 5.78599 17.7091 5.52574ZM19.3218 10.0178C19.874 10.015 20.324 10.4605 20.3268 11.0128L20.3269 11.0702L20.3268 11.129C20.3236 11.6813 19.8734 12.1265 19.3211 12.1233C18.7689 12.1202 18.3237 11.67 18.3268 11.1177L18.3269 11.0702L18.3268 11.0228C18.324 10.4705 18.7695 10.0206 19.3218 10.0178ZM18.6014 14.8027C19.0804 15.0777 19.2457 15.6889 18.9706 16.1678C18.9512 16.2017 18.9315 16.2355 18.9117 16.2691C18.6312 16.7449 18.0182 16.9032 17.5424 16.6227C17.0666 16.3422 16.9083 15.7292 17.1888 15.2534C17.2048 15.2263 17.2206 15.1991 17.2363 15.1719C17.5113 14.6929 18.1225 14.5276 18.6014 14.8027ZM1.9299 15.7805C2.37323 15.4511 2.99962 15.5435 3.32898 15.9869L3.35422 16.0207C3.68583 16.4623 3.59662 17.0892 3.15497 17.4208C2.71332 17.7524 2.08647 17.6632 1.75487 17.2215L1.72355 17.1796C1.39419 16.7363 1.48657 16.1099 1.9299 15.7805ZM15.5751 18.5787C15.8532 19.0559 15.6919 19.6682 15.2148 19.9463C15.181 19.9659 15.1472 19.9854 15.1132 20.0047C14.6329 20.2774 14.0226 20.1091 13.7499 19.6289C13.4772 19.1486 13.6454 18.5382 14.1257 18.2655C14.1531 18.25 14.1804 18.2343 14.2076 18.2184C14.6847 17.9403 15.297 18.1016 15.5751 18.5787ZM4.89035 18.8801C5.14108 18.3881 5.74326 18.1924 6.23535 18.4431C6.26037 18.4559 6.28547 18.4685 6.31064 18.481C6.80525 18.7267 7.00702 19.3269 6.7613 19.8215C6.51558 20.3161 5.91543 20.5179 5.42081 20.2722C5.38957 20.2566 5.35842 20.241 5.32736 20.2251C4.83527 19.9744 4.63961 19.3722 4.89035 18.8801ZM11.0687 20.3408C11.0718 20.8931 10.6266 21.3433 10.0743 21.3463L10.0155 21.3465L9.96319 21.3464C9.41091 21.3436 8.96542 20.8937 8.96816 20.3414C8.9709 19.7891 9.42084 19.3437 9.97311 19.3464L10.0155 19.3465L10.0631 19.3464C10.6154 19.3433 11.0656 19.7885 11.0687 20.3408ZM10.0797 6.32815C10.6064 6.49446 10.8985 7.05622 10.7322 7.58287L9.92441 10.1408H11.4712C11.7954 10.1408 12.0995 10.298 12.287 10.5625C12.4745 10.827 12.5222 11.166 12.4148 11.4719L11.0607 15.331C10.8779 15.8522 10.3072 16.1264 9.78606 15.9435C9.26493 15.7607 8.99069 15.19 9.17355 14.6689L10.0606 12.1408H8.55995C8.24131 12.1408 7.94174 11.989 7.75338 11.732C7.56502 11.475 7.51042 11.1436 7.60637 10.8397L8.82502 6.98061C8.99132 6.45396 9.55308 6.16185 10.0797 6.32815ZM3.60742 6.82949C3.90606 6.36491 3.77154 5.7462 3.30697 5.44756C2.84239 5.14892 2.22368 5.28344 1.92504 5.74802C0.789717 7.51417 0.181124 9.64337 0.307753 11.8984C0.338717 12.4498 0.810829 12.8717 1.36224 12.8408C1.91366 12.8098 2.33557 12.3377 2.30461 11.7863C2.2024 9.9662 2.69251 8.25277 3.60742 6.82949Z" fill="black"/>
</svg>
