<svg width="28" height="28" viewBox="0 0 28 28" fill="none" xmlns="http://www.w3.org/2000/svg">
<path fill-rule="evenodd" clip-rule="evenodd" d="M14.0627 4.0003L14.1224 4L14.1805 4.00016C14.7328 4.00326 15.178 4.45348 15.1749 5.00576C15.1718 5.55803 14.7216 6.00323 14.1693 6.00013L14.1224 6L14.0825 6.0002C13.5303 6.00568 13.0781 5.56243 13.0726 5.01018C13.0672 4.45792 13.5104 4.00578 14.0627 4.0003ZM10.5753 5.55001C10.7813 6.06245 10.5328 6.64484 10.0204 6.85081L9.98216 6.86636C9.47148 7.07665 8.88702 6.83312 8.67673 6.32244C8.46644 5.81176 8.70997 5.22729 9.22065 5.01701L9.27451 4.9951C9.78694 4.78913 10.3693 5.03757 10.5753 5.55001ZM17.7862 5.72304C18.0718 5.25032 18.6865 5.09861 19.1593 5.38418C19.1925 5.40426 19.2256 5.42453 19.2585 5.44499C19.7278 5.73629 19.872 6.35281 19.5807 6.82203C19.2894 7.29124 18.6729 7.43547 18.2036 7.14416C18.1776 7.12797 18.1514 7.11194 18.1251 7.09606C17.6524 6.81048 17.5007 6.19576 17.7862 5.72304ZM21.4179 8.81089C21.9051 8.55064 22.5109 8.73455 22.7712 9.22167C22.7893 9.25558 22.8072 9.28961 22.825 9.32375C23.0798 9.81373 22.8892 10.4175 22.3992 10.6724C21.9093 10.9272 21.3055 10.7366 21.0506 10.2466C21.0363 10.219 21.0218 10.1915 21.0072 10.1641C20.7469 9.67701 20.9308 9.07115 21.4179 8.81089ZM23.0306 13.303C23.5829 13.3002 24.0329 13.7457 24.0356 14.2979L24.0358 14.3553L24.0356 14.4141C24.0325 14.9664 23.5823 15.4116 23.03 15.4085C22.4777 15.4054 22.0325 14.9552 22.0356 14.4029L22.0358 14.3553L22.0357 14.308C22.0329 13.7557 22.4784 13.3057 23.0306 13.303ZM22.3103 18.0878C22.7892 18.3628 22.9545 18.9741 22.6795 19.453C22.66 19.4869 22.6404 19.5206 22.6206 19.5543C22.3401 20.0301 21.727 20.1884 21.2513 19.9079C20.7755 19.6274 20.6172 19.0143 20.8977 18.5386C20.9136 18.5115 20.9295 18.4843 20.9451 18.457C21.2202 17.9781 21.8314 17.8128 22.3103 18.0878ZM5.63876 19.0657C6.08209 18.7363 6.70848 18.8287 7.03784 19.272L7.06308 19.3058C7.39469 19.7475 7.30549 20.3743 6.86383 20.7059C6.42218 21.0375 5.79534 20.9483 5.46373 20.5067L5.43241 20.4647C5.10305 20.0214 5.19543 19.395 5.63876 19.0657ZM19.284 21.8639C19.5621 22.341 19.4008 22.9533 18.9236 23.2314C18.8899 23.2511 18.856 23.2706 18.8221 23.2899C18.3418 23.5625 17.7314 23.3943 17.4587 22.914C17.186 22.4337 17.3543 21.8233 17.8346 21.5507C17.862 21.5351 17.8892 21.5194 17.9164 21.5036C18.3936 21.2254 19.0058 21.3868 19.284 21.8639ZM8.59921 22.1653C8.84995 21.6732 9.45212 21.4776 9.94421 21.7283C9.96924 21.741 9.99433 21.7537 10.0195 21.7662C10.5141 22.0119 10.7159 22.6121 10.4702 23.1067C10.2244 23.6013 9.62429 23.803 9.12968 23.5573C9.09843 23.5418 9.06728 23.5261 9.03622 23.5103C8.54413 23.2596 8.34847 22.6574 8.59921 22.1653ZM14.7776 23.6259C14.7806 24.1782 14.3354 24.6284 13.7831 24.6315L13.7244 24.6317L13.672 24.6315C13.1198 24.6288 12.6743 24.1788 12.677 23.6266C12.6798 23.0743 13.1297 22.6288 13.682 22.6315L13.7244 22.6317L13.772 22.6315C14.3243 22.6284 14.7745 23.0737 14.7776 23.6259ZM13.7885 9.61309C14.3151 9.7794 14.6072 10.3412 14.4409 10.8678L13.6332 13.4258H15.18C15.5042 13.4258 15.8083 13.583 15.9958 13.8475C16.1833 14.112 16.2309 14.4509 16.1236 14.7569L14.7695 18.616C14.5866 19.1371 14.0159 19.4113 13.4948 19.2285C12.9737 19.0456 12.6994 18.4749 12.8823 17.9538L13.7693 15.4258H12.2687C11.95 15.4258 11.6505 15.2739 11.4621 15.0169C11.2738 14.7599 11.2192 14.4285 11.3151 14.1246L12.5338 10.2655C12.7001 9.7389 13.2618 9.44678 13.7885 9.61309ZM7.31616 10.1145C7.6148 9.64987 7.48028 9.03116 7.01571 8.73252C6.55113 8.43388 5.93242 8.5684 5.63378 9.03298C4.49846 10.7991 3.88986 12.9283 4.01649 15.1834C4.04746 15.7348 4.51957 16.1567 5.07099 16.1257C5.6224 16.0948 6.04431 15.6226 6.01335 15.0712C5.91114 13.2512 6.40125 11.5377 7.31616 10.1145Z" fill="black"/>
</svg>
