<svg width="21" height="22" viewBox="0 0 21 22" fill="none" xmlns="http://www.w3.org/2000/svg">
<path fill-rule="evenodd" clip-rule="evenodd" d="M10.354 0.715143L10.4137 0.714844L10.4719 0.715007C11.0241 0.718106 11.4693 1.16833 11.4662 1.7206C11.4631 2.27288 11.0129 2.71807 10.4607 2.71498L10.4137 2.71484L10.3739 2.71504C9.82163 2.72053 9.36949 2.27728 9.36401 1.72502C9.35852 1.17276 9.80177 0.720625 10.354 0.715143ZM6.86667 2.26485C7.07264 2.77729 6.8242 3.35968 6.31176 3.56565L6.27353 3.5812C5.76284 3.79149 5.17838 3.54797 4.96809 3.03728C4.75781 2.5266 5.00133 1.94214 5.51201 1.73185L5.56587 1.70994C6.07831 1.50397 6.66069 1.75241 6.86667 2.26485ZM14.0776 2.43789C14.3632 1.96516 14.9779 1.81345 15.4506 2.09903C15.4839 2.1191 15.5169 2.13937 15.5499 2.15983C16.0191 2.45114 16.1633 3.06766 15.872 3.53687C15.5807 4.00608 14.9642 4.15031 14.495 3.85901C14.4689 3.84282 14.4427 3.82678 14.4165 3.8109C13.9437 3.52533 13.792 2.91061 14.0776 2.43789ZM17.7093 5.52574C18.1964 5.26548 18.8023 5.44939 19.0625 5.93651C19.0807 5.97043 19.0986 6.00446 19.1164 6.0386C19.3712 6.52857 19.1806 7.13236 18.6906 7.3872C18.2006 7.64204 17.5968 7.45143 17.342 6.96145C17.3277 6.93386 17.3132 6.90637 17.2985 6.87898C17.0383 6.39186 17.2222 5.78599 17.7093 5.52574ZM19.322 10.0178C19.8743 10.015 20.3242 10.4605 20.327 11.0128L20.3271 11.0702L20.327 11.129C20.3239 11.6813 19.8736 12.1265 19.3214 12.1233C18.7691 12.1202 18.3239 11.67 18.327 11.1177L18.3271 11.0702L18.327 11.0228C18.3243 10.4705 18.7697 10.0206 19.322 10.0178ZM18.6017 14.8027C19.0806 15.0777 19.2459 15.6889 18.9709 16.1678C18.9514 16.2017 18.9318 16.2355 18.9119 16.2691C18.6314 16.7449 18.0184 16.9032 17.5426 16.6227C17.0669 16.3422 16.9086 15.7292 17.189 15.2534C17.205 15.2263 17.2208 15.1991 17.2365 15.1719C17.5115 14.6929 18.1227 14.5276 18.6017 14.8027ZM1.93013 15.7805C2.37345 15.4511 2.99984 15.5435 3.3292 15.9869L3.35445 16.0207C3.68606 16.4623 3.59685 17.0892 3.1552 17.4208C2.71355 17.7524 2.0867 17.6632 1.75509 17.2215L1.72377 17.1796C1.39441 16.7363 1.4868 16.1099 1.93013 15.7805ZM15.5753 18.5787C15.8535 19.0559 15.6921 19.6682 15.215 19.9463C15.1813 19.9659 15.1474 19.9854 15.1134 20.0047C14.6332 20.2774 14.0228 20.1091 13.7501 19.6288C13.4774 19.1486 13.6457 18.5382 14.1259 18.2655C14.1533 18.25 14.1806 18.2343 14.2078 18.2184C14.6849 17.9403 15.2972 18.1016 15.5753 18.5787ZM4.89057 18.8801C5.14131 18.3881 5.74348 18.1924 6.23557 18.4431C6.2606 18.4559 6.2857 18.4685 6.31087 18.481C6.80548 18.7267 7.00725 19.3269 6.76153 19.8215C6.51581 20.3161 5.91565 20.5179 5.42104 20.2722C5.38979 20.2566 5.35864 20.241 5.32758 20.2251C4.83549 19.9744 4.63984 19.3722 4.89057 18.8801ZM11.0689 20.3408C11.072 20.8931 10.6268 21.3433 10.0745 21.3463L10.0158 21.3465L9.96341 21.3464C9.41113 21.3436 8.96564 20.8937 8.96839 20.3414C8.97113 19.7891 9.42106 19.3436 9.97334 19.3464L10.0158 19.3465L10.0634 19.3464C10.6156 19.3433 11.0658 19.7885 11.0689 20.3408ZM10.0798 6.32793C10.6065 6.49424 10.8986 7.056 10.7323 7.58265L9.92452 10.1406H11.4713C11.7955 10.1406 12.0996 10.2978 12.2871 10.5623C12.4746 10.8268 12.5223 11.1658 12.4149 11.4717L11.0609 15.3308C10.878 15.8519 10.3073 16.1262 9.78616 15.9433C9.26503 15.7605 8.9908 15.1898 9.17365 14.6686L10.0607 12.1406H8.56006C8.24141 12.1406 7.94184 11.9888 7.75348 11.7318C7.56512 11.4747 7.51052 11.1433 7.60647 10.8395L8.82512 6.98039C8.99143 6.45374 9.55318 6.16163 10.0798 6.32793ZM3.60753 6.8293C3.90617 6.36472 3.77165 5.74601 3.30707 5.44737C2.84249 5.14873 2.22378 5.28325 1.92514 5.74782C0.78982 7.51398 0.181227 9.64317 0.307855 11.8982C0.338819 12.4496 0.810932 12.8715 1.36235 12.8406C1.91376 12.8096 2.33567 12.3375 2.30471 11.7861C2.20251 9.96601 2.69261 8.25258 3.60753 6.8293Z" fill="black"/>
</svg>
