<svg width="21" height="21" viewBox="0 0 21 21" fill="none" xmlns="http://www.w3.org/2000/svg">
<path fill-rule="evenodd" clip-rule="evenodd" d="M10.3685 0.189752L10.4282 0.189453L10.4863 0.189616C11.0386 0.192715 11.4838 0.642936 11.4807 1.19521C11.4776 1.74749 11.0274 2.19268 10.4751 2.18958L10.4282 2.18945L10.3883 2.18965C9.83605 2.19514 9.38391 1.75189 9.37843 1.19963C9.37295 0.647372 9.8162 0.195235 10.3685 0.189752ZM6.88109 1.73946C7.08706 2.2519 6.83862 2.83429 6.32618 3.04026L6.28795 3.05581C5.77726 3.2661 5.1928 3.02258 4.98252 2.51189C4.77223 2.00121 5.01575 1.41675 5.52644 1.20646L5.58029 1.18455C6.09273 0.978581 6.67512 1.22702 6.88109 1.73946ZM14.092 1.91249C14.3776 1.43977 14.9923 1.28806 15.465 1.57364C15.4983 1.59371 15.5314 1.61398 15.5643 1.63444C16.0335 1.92575 16.1778 2.54227 15.8865 3.01148C15.5952 3.48069 14.9786 3.62492 14.5094 3.33362C14.4834 3.31743 14.4572 3.30139 14.4309 3.28551C13.9582 2.99994 13.8065 2.38522 14.092 1.91249ZM17.7237 5.00035C18.2108 4.74009 18.8167 4.924 19.077 5.41112C19.0951 5.44504 19.113 5.47906 19.1308 5.51321C19.3856 6.00318 19.195 6.60697 18.705 6.86181C18.2151 7.11665 17.6113 6.92604 17.3564 6.43606C17.3421 6.40847 17.3276 6.38098 17.3129 6.35359C17.0527 5.86647 17.2366 5.2606 17.7237 5.00035ZM19.3364 9.49242C19.8887 9.48964 20.3386 9.9351 20.3414 10.4874L20.3416 10.5448L20.3414 10.6036C20.3383 11.1559 19.8881 11.6011 19.3358 11.598C18.7835 11.5948 18.3383 11.1446 18.3414 10.5923L18.3416 10.5448L18.3414 10.4974C18.3387 9.94515 18.7841 9.49519 19.3364 9.49242ZM18.6161 14.2773C19.095 14.5523 19.2603 15.1635 18.9853 15.6424C18.9658 15.6763 18.9462 15.7101 18.9263 15.7437C18.6459 16.2195 18.0328 16.3778 17.557 16.0973C17.0813 15.8168 16.923 15.2038 17.2035 14.728C17.2194 14.7009 17.2352 14.6738 17.2509 14.6465C17.5259 14.1675 18.1371 14.0022 18.6161 14.2773ZM1.94455 15.2551C2.38788 14.9258 3.01426 15.0181 3.34363 15.4615L3.36887 15.4953C3.70048 15.9369 3.61127 16.5638 3.16962 16.8954C2.72797 17.227 2.10112 17.1378 1.76951 16.6961L1.7382 16.6542C1.40883 16.2109 1.50122 15.5845 1.94455 15.2551ZM15.5897 18.0534C15.8679 18.5305 15.7065 19.1428 15.2294 19.4209C15.1957 19.4405 15.1618 19.46 15.1279 19.4793C14.6476 19.752 14.0372 19.5837 13.7645 19.1035C13.4918 18.6232 13.6601 18.0128 14.1404 17.7401C14.1677 17.7246 14.195 17.7089 14.2222 17.693C14.6994 17.4149 15.3116 17.5762 15.5897 18.0534ZM4.905 18.3548C5.15573 17.8627 5.75791 17.667 6.25 17.9177C6.27502 17.9305 6.30012 17.9431 6.32529 17.9556C6.8199 18.2013 7.02167 18.8015 6.77595 19.2961C6.53023 19.7907 5.93007 19.9925 5.43546 19.7468C5.40422 19.7313 5.37306 19.7156 5.342 19.6998C4.84992 19.449 4.65426 18.8468 4.905 18.3548ZM11.0833 19.8154C11.0864 20.3677 10.6412 20.8179 10.0889 20.8209L10.0302 20.8211L9.97783 20.821C9.42556 20.8182 8.98007 20.3683 8.98281 19.816C8.98555 19.2637 9.43548 18.8183 9.98776 18.821L10.0302 18.8211L10.0778 18.821C10.6301 18.8179 11.0803 19.2631 11.0833 19.8154ZM10.0944 5.80276C10.621 5.96907 10.9131 6.53082 10.7468 7.05747L9.93906 9.61545H11.4859C11.8101 9.61545 12.1142 9.77263 12.3017 10.0371C12.4892 10.3016 12.5368 10.6406 12.4295 10.9465L11.0754 14.8056C10.8925 15.3268 10.3218 15.601 9.80071 15.4181C9.27957 15.2353 9.00534 14.6646 9.1882 14.1435L10.0752 11.6154H8.5746C8.25596 11.6154 7.95639 11.4636 7.76803 11.2066C7.57967 10.9496 7.52507 10.6182 7.62102 10.3143L8.83966 6.45522C9.00597 5.92857 9.56773 5.63645 10.0944 5.80276ZM3.62207 6.3041C3.92071 5.83952 3.78619 5.22081 3.32162 4.92217C2.85704 4.62353 2.23833 4.75805 1.93969 5.22262C0.804365 6.98878 0.195773 9.11797 0.322401 11.373C0.353365 11.9244 0.825477 12.3463 1.37689 12.3154C1.92831 12.2844 2.35022 11.8123 2.31926 11.2609C2.21705 9.44081 2.70715 7.72738 3.62207 6.3041Z" fill="black"/>
</svg>
