<svg width="26" height="26" viewBox="0 0 26 26" fill="none" xmlns="http://www.w3.org/2000/svg">
<path fill-rule="evenodd" clip-rule="evenodd" d="M26 13C26 5.8203 20.1797 0 13 0C5.8203 0 0 5.8203 0 13C0 20.1797 5.8203 26 13 26C20.1797 26 26 20.1797 26 13ZM17.9906 18.0428C18.3832 17.6544 18.3866 17.0212 17.9982 16.6286L14.4144 13.0058L18.0351 9.42411C18.4277 9.0357 18.4311 8.40254 18.0427 8.00991C17.6543 7.61729 17.0212 7.61386 16.6285 8.00227L13.0079 11.584L9.42621 7.9634C9.0378 7.57077 8.40465 7.56735 8.01202 7.95576C7.61939 8.34416 7.61596 8.97732 8.00437 9.36995L11.586 12.9905L7.96335 16.5743C7.57072 16.9627 7.5673 17.5958 7.95571 17.9885C8.34411 18.3811 8.97727 18.3845 9.3699 17.9961L12.9926 14.4124L16.5764 18.0351C16.9648 18.4278 17.5979 18.4312 17.9906 18.0428Z" fill="black"/>
</svg>
