<svg width="25" height="27" viewBox="0 0 25 27" fill="none" xmlns="http://www.w3.org/2000/svg">
<path fill-rule="evenodd" clip-rule="evenodd" d="M7.67331 0C8.36367 0 8.92331 0.559644 8.92331 1.25V3.1962H15.8845V1.25012C15.8845 0.559763 16.4441 0.000118613 17.1345 0.000118613C17.8248 0.000118613 18.3845 0.559763 18.3845 1.25012V3.1962H23.808C24.3603 3.1962 24.808 3.64392 24.808 4.1962V9.80284H0.104386H0V4.1962C0 3.64392 0.447715 3.1962 1 3.1962H6.42331V1.25C6.42331 0.559644 6.98296 0 7.67331 0ZM16.0334 25.226V26.0353H1C0.447716 26.0353 0 25.5876 0 25.0353V11.8028H0.104386H24.808V17.2421H24.4559H19.0334C17.3765 17.2421 16.0334 18.5852 16.0334 20.2421V25.226ZM24.2926 19.2421L18.0334 25.2276V25.226V20.2421C18.0334 19.6898 18.4811 19.2421 19.0334 19.2421H24.2926Z" fill="black"/>
</svg>
