<svg width="26" height="24" viewBox="0 0 26 24" fill="none" xmlns="http://www.w3.org/2000/svg">
<path fill-rule="evenodd" clip-rule="evenodd" d="M13 0.5C8.02944 0.5 4 4.52944 4 9.5C4 14.4706 8.02944 18.5 13 18.5C17.9706 18.5 22 14.4706 22 9.5C22 4.52944 17.9706 0.5 13 0.5ZM1 16.5C1.55228 16.5 2 16.9477 2 17.5V22H24V17.5C24 16.9477 24.4477 16.5 25 16.5C25.5523 16.5 26 16.9477 26 17.5V23C26 23.5523 25.5523 24 25 24H1C0.447715 24 0 23.5523 0 23V17.5C0 16.9477 0.447715 16.5 1 16.5ZM14.0487 4.75C14.0487 4.19772 13.601 3.75 13.0487 3.75C12.4965 3.75 12.0487 4.19772 12.0487 4.75V5.06153C11.4832 5.1514 10.9559 5.41834 10.5464 5.82999C10.037 6.34109 9.75144 7.03328 9.75 7.75351V7.7766C9.75 8.49989 10.0382 9.19248 10.5469 9.70262C11.0566 10.2137 11.748 10.5014 12.4682 10.5043H13.6234C13.7242 10.5043 13.8194 10.5233 13.9054 10.5586C13.9932 10.5946 14.0733 10.6481 14.1398 10.7146L14.1419 10.7166C14.2088 10.7831 14.2622 10.8627 14.2991 10.9516C14.3357 11.04 14.3547 11.1352 14.3547 11.231C14.3547 11.3288 14.3359 11.4251 14.2996 11.5146C14.2629 11.6028 14.2092 11.6833 14.1406 11.7523C14.0751 11.8181 13.9949 11.872 13.9047 11.9095C13.8187 11.9451 13.725 11.9637 13.6292 11.9633H11.1084C10.5561 11.9633 10.1084 12.411 10.1084 12.9633C10.1084 13.5156 10.5561 13.9633 11.1084 13.9633H12.0487V14.2597C12.0487 14.812 12.4965 15.2597 13.0487 15.2597C13.601 15.2597 14.0487 14.812 14.0487 14.2597V13.9313C14.2615 13.8983 14.4705 13.84 14.671 13.7568C15.0005 13.6201 15.3035 13.4193 15.5588 13.1625C15.8105 12.9093 16.0114 12.6091 16.1488 12.2764L16.1502 12.2729C16.2858 11.9413 16.3547 11.5873 16.3547 11.231C16.3547 10.8723 16.2839 10.5166 16.1464 10.1852C16.0095 9.85515 15.8088 9.55421 15.5541 9.30036C15.2998 9.04606 14.9968 8.8447 14.6648 8.70842C14.331 8.5714 13.9772 8.50428 13.6234 8.50428H12.4746C12.2825 8.50309 12.0983 8.42602 11.9631 8.29041C11.8266 8.15347 11.75 7.96802 11.75 7.7766V7.75672C11.7506 7.56277 11.8278 7.37744 11.9631 7.2417L11.9641 7.2407C12.0993 7.10479 12.2826 7.02843 12.4734 7.02783H14.7938C15.3461 7.02783 15.7938 6.58012 15.7938 6.02783C15.7938 5.47555 15.3461 5.02783 14.7938 5.02783H14.0487V4.75Z" fill="black"/>
</svg>
