<svg width="18" height="26" viewBox="0 0 18 26" fill="none" xmlns="http://www.w3.org/2000/svg">
<path fill-rule="evenodd" clip-rule="evenodd" d="M4.43932 4.00533C4.04879 4.39586 4.04879 5.02902 4.43932 5.41955C4.82984 5.81007 5.46301 5.81007 5.85353 5.41955L7.8617 3.41138L7.8617 13H1C0.447716 13 0 13.4477 0 14L7.10486e-06 25C8.98807e-06 25.5523 0.447722 26 1.00001 26L17 26C17.5523 26 18 25.5523 18 25V14C18 13.4477 17.5523 13 17 13H9.8617L9.86174 17.5825C9.86174 18.1348 9.41403 18.5825 8.86174 18.5825C8.30946 18.5825 7.86174 18.1348 7.86174 17.5825L7.8617 13L9.8617 13L9.8617 3.41419L11.871 5.42014C12.2619 5.81034 12.895 5.80981 13.2852 5.41896C13.6754 5.0281 13.6749 4.39494 13.2841 4.00474L9.56538 0.292301C9.17476 -0.0976649 8.54205 -0.0973997 8.15176 0.292893L4.43932 4.00533Z" fill="black"/>
</svg>
