<svg width="26" height="26" viewBox="0 0 26 26" fill="none" xmlns="http://www.w3.org/2000/svg">
<path fill-rule="evenodd" clip-rule="evenodd" d="M10.9311 0C9.00762 0 7.44828 1.55922 7.44828 3.48273V4.1379H1C0.447715 4.1379 0 4.58562 0 5.1379V12.5862C0 13.1385 0.447715 13.5862 1 13.5862H2.65517C3.47405 13.5862 4.13794 14.2501 4.13794 15.069C4.13794 15.8879 3.47412 16.5517 2.65517 16.5517H1C0.447715 16.5517 0 16.9994 0 17.5517V25C0 25.5523 0.447715 26 1 26H8.44828C9.00056 26 9.44828 25.5523 9.44828 25V23.3448C9.44828 22.5259 10.1121 21.8621 10.9311 21.8621C11.75 21.8621 12.4138 22.5259 12.4138 23.3448V25C12.4138 25.5523 12.8615 26 13.4138 26H20.8621C21.4144 26 21.8621 25.5523 21.8621 25V17.7241H22.5172C24.4407 17.7241 26 16.1649 26 14.2414C26 12.318 24.4408 10.7586 22.5172 10.7586H21.8621V5.1379C21.8621 4.58562 21.4144 4.1379 20.8621 4.1379H14.4138V3.48273C14.4138 1.55925 12.8545 0 10.9311 0Z" fill="black"/>
</svg>
