<svg width="25" height="25" viewBox="0 0 25 25" fill="none" xmlns="http://www.w3.org/2000/svg">
<path fill-rule="evenodd" clip-rule="evenodd" d="M12.1094 0.25C18.7368 0.25 24.1094 5.62258 24.1094 12.25C24.1094 18.8774 18.7368 24.25 12.1094 24.25C5.48196 24.25 0.109375 18.8774 0.109375 12.25C0.109375 5.62258 5.48196 0.25 12.1094 0.25ZM7.68226 16.419C8.07067 16.8116 8.70382 16.815 9.09645 16.4266L12.0024 13.5519L14.8772 16.4579C15.2656 16.8505 15.8987 16.8539 16.2914 16.4655C16.684 16.0771 16.6874 15.4439 16.299 15.0513L13.4243 12.1453L16.3286 9.27229C16.7212 8.88388 16.7246 8.25072 16.3362 7.85809C15.9478 7.46546 15.3147 7.46204 14.922 7.85045L12.0177 10.7235L9.14466 7.81919C8.75626 7.42656 8.1231 7.42313 7.73047 7.81154C7.33784 8.19995 7.33442 8.8331 7.72283 9.22573L10.5959 12.13L7.68991 15.0048C7.29728 15.3932 7.29385 16.0264 7.68226 16.419Z" fill="black"/>
</svg>
