<svg width="26" height="25" viewBox="0 0 26 25" fill="none" xmlns="http://www.w3.org/2000/svg">
<path d="M24.363 8.99714C25.1023 9.16084 25.3985 10.055 24.9031 10.6277L20.5153 15.7004C20.3372 15.9064 20.2507 16.1761 20.2759 16.4472L20.8997 23.1546C20.9701 23.9116 20.2035 24.4672 19.5061 24.1647L13.4129 21.5216C13.1578 21.4109 12.8681 21.4115 12.6134 21.5232L6.54436 24.184C5.84769 24.4895 5.07861 23.9361 5.14686 23.1785L5.75085 16.4743C5.77532 16.2026 5.68777 15.9328 5.50848 15.7272L1.09999 10.6731C0.602722 10.1031 0.894057 9.20861 1.63168 9.04074L8.10796 7.56689C8.37728 7.5056 8.60925 7.33565 8.74888 7.09734L12.1268 1.33174C12.5126 0.673383 13.4638 0.672193 13.8512 1.32959L17.2492 7.09617C17.39 7.33514 17.6237 7.50489 17.8945 7.56485L24.363 8.99714Z" fill="black"/>
</svg>
