<svg width="26" height="26" viewBox="0 0 26 26" fill="none" xmlns="http://www.w3.org/2000/svg">
<path fill-rule="evenodd" clip-rule="evenodd" d="M13.849 0.809431C13.6688 0.504686 13.341 0.317916 12.9869 0.318359C12.6329 0.318804 12.3055 0.506395 12.1261 0.81159L8.23098 7.43774L0.778817 9.12802C0.435224 9.20595 0.157994 9.45895 0.0490374 9.79399C-0.0599194 10.129 0.0154758 10.4967 0.247508 10.7618L5.30938 16.5456L4.61492 24.2283C4.5831 24.5803 4.73945 24.923 5.02617 25.1296C5.3129 25.3363 5.68741 25.3762 6.01127 25.2347L13.014 22.1747L20.0396 25.2121C20.3639 25.3523 20.738 25.311 21.0239 25.1035C21.3098 24.896 21.465 24.553 21.4321 24.2013L20.7152 16.5178L25.7553 10.7104C25.9864 10.4441 26.0602 10.0758 25.9494 9.74098C25.8387 9.40619 25.5599 9.15447 25.2155 9.07848L17.7658 7.43443L13.849 0.809431Z" fill="black"/>
</svg>
