<svg width="26" height="25" viewBox="0 0 26 25" fill="none" xmlns="http://www.w3.org/2000/svg">
<path d="M24.363 9.13385C25.1023 9.29756 25.3985 10.1917 24.9031 10.7644L20.5153 15.8371C20.3372 16.0431 20.2507 16.3128 20.2759 16.5839L20.8997 23.2914C20.9701 24.0483 20.2035 24.6039 19.5061 24.3014L13.4129 21.6583C13.1578 21.5477 12.8681 21.5482 12.6134 21.6599L6.54436 24.3207C5.84769 24.6262 5.07861 24.0728 5.14686 23.3152L5.75085 16.611C5.77532 16.3394 5.68777 16.0695 5.50848 15.8639L1.09999 10.8099C0.602722 10.2398 0.894057 9.34533 1.63168 9.17746L8.10796 7.70361C8.37728 7.64232 8.60925 7.47237 8.74888 7.23406L12.1268 1.46846C12.5126 0.810102 13.4638 0.808912 13.8512 1.46631L17.2492 7.23289C17.39 7.47186 17.6237 7.64161 17.8945 7.70157L24.363 9.13385Z" fill="black"/>
</svg>
