<svg width="26" height="24" viewBox="0 0 26 24" fill="none" xmlns="http://www.w3.org/2000/svg">
<path fill-rule="evenodd" clip-rule="evenodd" d="M13.4818 0.483335C13.3005 0.182975 12.9751 -0.000443102 12.6243 0C12.2735 0.000444948 11.9486 0.184686 11.7681 0.485504L7.99934 6.76678L0.783072 8.37039C0.436611 8.44738 0.156916 8.70224 0.0481333 9.04008C-0.060649 9.37791 0.017782 9.74808 0.254222 10.0128L5.14646 15.4895L4.47561 22.7606C4.44324 23.1115 4.59798 23.4536 4.88293 23.661C5.16788 23.8684 5.54096 23.9104 5.86495 23.7717L12.6506 20.8667L19.4586 23.7503C19.7829 23.8877 20.1557 23.8443 20.4398 23.636C20.7239 23.4278 20.8775 23.0854 20.8441 22.7347L20.1515 15.4628L25.0227 9.9638C25.2582 9.69792 25.335 9.32707 25.2245 8.98951C25.1139 8.65196 24.8326 8.39837 24.4854 8.32331L17.2716 6.76355L13.4818 0.483335Z" fill="black"/>
</svg>
