<svg width="27" height="26" viewBox="0 0 27 26" fill="none" xmlns="http://www.w3.org/2000/svg">
<path fill-rule="evenodd" clip-rule="evenodd" d="M23.6058 2.12448C23.9556 1.69703 23.8926 1.06701 23.4651 0.717284C23.0377 0.367556 22.4076 0.430559 22.0579 0.858003L19.9218 3.46876C17.9726 2.70602 15.6925 2.26761 13.2559 2.26761C6.07661 2.26761 0.255859 6.07348 0.255859 10.7676C0.255859 10.8854 0.259525 11.0026 0.266785 11.1193C0.259588 11.1677 0.255859 11.2172 0.255859 11.2676V15.7813C0.255859 18.445 1.88857 20.5962 4.25123 22.0327C4.35811 22.0976 4.46669 22.1613 4.57692 22.2237L3.35397 23.7184C3.00424 24.1458 3.06725 24.7759 3.49469 25.1256C3.92214 25.4753 4.55216 25.4123 4.90189 24.9849L6.44677 23.0967C8.44238 23.8572 10.7812 24.2676 13.2559 24.2676C16.71 24.2676 19.8996 23.4681 22.2605 22.0327C24.6231 20.5962 26.2559 18.445 26.2559 15.7813V11.2676C26.2559 11.2172 26.2521 11.1677 26.2449 11.1193C26.2522 11.0026 26.2559 10.8854 26.2559 10.7676C26.2559 8.20679 24.5235 5.91033 21.7834 4.35191L23.6058 2.12448ZM7.49412 18.6582C6.44031 18.3004 5.4651 17.8461 4.59365 17.3095C3.70627 16.7631 2.91318 16.1216 2.25586 15.3999V15.7813C2.25586 17.5276 3.30964 19.1195 5.29024 20.3237C5.47502 20.4361 5.667 20.5444 5.8658 20.6484L7.49412 18.6582ZM7.79285 21.4515L9.6149 19.2245C10.7733 19.4554 11.9956 19.5782 13.2559 19.5782C16.5607 19.5782 19.6049 18.7338 21.9181 17.3095C22.8054 16.7631 23.5985 16.1216 24.2559 15.3999V15.7813C24.2559 17.5276 23.2021 19.1195 21.2215 20.3237C19.2392 21.529 16.4287 22.2676 13.2559 22.2676C11.251 22.2676 9.39083 21.9727 7.79285 21.4515Z" fill="black"/>
</svg>
