<svg width="26" height="26" viewBox="0 0 26 26" fill="none" xmlns="http://www.w3.org/2000/svg">
<path fill-rule="evenodd" clip-rule="evenodd" d="M9.727 6.54492C9.55808 6.54492 9.39016 6.54923 9.22335 6.55774C10.4335 3.87043 13.1362 2 16.273 2C20.5408 2 24 5.45928 24 9.727C24 12.8642 22.1293 15.5668 19.4411 16.7769C19.4497 16.6096 19.454 16.4413 19.454 16.2719C19.454 10.8998 15.0991 6.54492 9.727 6.54492ZM9.727 25.9989C14.1334 25.9989 17.8554 23.069 19.0512 19.0511C23.0685 17.8554 26 14.1348 26 9.727C26 4.35471 21.6453 0 16.273 0C11.8658 0 8.14489 2.93099 6.94913 6.94735C2.93054 8.14274 0 11.8651 0 16.2719C0 21.644 4.35493 25.9989 9.727 25.9989ZM10.781 11.084C10.781 10.5317 10.3333 10.084 9.78101 10.084C9.22872 10.084 8.78101 10.5317 8.78101 11.084V11.5025C8.1539 11.5849 7.56696 11.8725 7.11535 12.3264C6.57658 12.867 6.27448 13.5991 6.27295 14.361V14.386C6.27295 15.151 6.57777 15.8835 7.11584 16.4231C7.65487 16.9637 8.38618 17.268 9.14793 17.271H10.4079C10.5294 17.271 10.6451 17.294 10.7502 17.3371C10.8571 17.381 10.9547 17.446 11.0358 17.5271L11.0379 17.5291C11.1194 17.6103 11.1845 17.7073 11.2293 17.8152C11.2739 17.9227 11.2969 18.0385 11.2969 18.155C11.2969 18.2734 11.2741 18.3903 11.23 18.499C11.1853 18.6064 11.1201 18.7042 11.0368 18.7879C10.9568 18.8684 10.8591 18.934 10.7498 18.9794C10.6447 19.0229 10.5305 19.0455 10.414 19.045H7.66395C7.11166 19.045 6.66395 19.4927 6.66395 20.045C6.66395 20.5973 7.11166 21.045 7.66395 21.045H8.78101V21.4597C8.78101 22.012 9.22872 22.4597 9.78101 22.4597C10.3333 22.4597 10.781 22.012 10.781 21.4597V21.022C11.0326 20.99 11.2799 20.9247 11.5161 20.8267C11.8648 20.6821 12.1851 20.4696 12.4551 20.1981C12.7214 19.9303 12.9339 19.6127 13.0792 19.2608L13.0806 19.2573C13.224 18.9065 13.2969 18.532 13.2969 18.155C13.2969 17.7755 13.222 17.3993 13.0766 17.0488C12.9318 16.6997 12.7195 16.3814 12.4501 16.1129C12.1812 15.844 11.8608 15.6311 11.5097 15.4869C11.1568 15.3421 10.7825 15.271 10.4079 15.271H9.15433C8.92067 15.2697 8.69664 15.176 8.53206 15.0109C8.36613 14.8445 8.27295 14.6191 8.27295 14.386V14.3642C8.27364 14.1286 8.36733 13.9033 8.53206 13.7381L8.53306 13.7371C8.69756 13.5717 8.9208 13.4787 9.15314 13.478H11.6849C12.2372 13.478 12.6849 13.0303 12.6849 12.478C12.6849 11.9257 12.2372 11.478 11.6849 11.478H10.781V11.084ZM11.23 18.499L11.2307 18.4973L12.1549 18.879L11.2293 18.5007L11.23 18.499Z" fill="black"/>
</svg>
