<svg width="24" height="22" viewBox="0 0 24 22" fill="none" xmlns="http://www.w3.org/2000/svg">
<path fill-rule="evenodd" clip-rule="evenodd" d="M18.5 1.68164C18.5 1.12936 18.0523 0.681641 17.5 0.681641C16.9477 0.681641 16.5 1.12936 16.5 1.68164V3.03878H1C0.447715 3.03878 0 3.4865 0 4.03878C0 4.59107 0.447715 5.03878 1 5.03878H16.5V6.39593C16.5 6.94821 16.9477 7.39593 17.5 7.39593C18.0523 7.39593 18.5 6.94821 18.5 6.39593V5.03878H23C23.5523 5.03878 24 4.59107 24 4.03878C24 3.4865 23.5523 3.03878 23 3.03878H18.5V1.68164ZM0 11.1101C0 10.5578 0.447715 10.1101 1 10.1101H4.71429V8.75293C4.71429 8.20064 5.162 7.75293 5.71429 7.75293C6.26657 7.75293 6.71429 8.20064 6.71429 8.75293V10.1101H23C23.5523 10.1101 24 10.5578 24 11.1101C24 11.6624 23.5523 12.1101 23 12.1101H6.71429V13.4672C6.71429 14.0195 6.26657 14.4672 5.71429 14.4672C5.162 14.4672 4.71429 14.0195 4.71429 13.4672V12.1101H1C0.447715 12.1101 0 11.6624 0 11.1101ZM0 18.4437C0 17.8915 0.447715 17.4437 1 17.4437H11V15.8247C11 15.2724 11.4477 14.8247 12 14.8247C12.5523 14.8247 13 15.2724 13 15.8247V17.4437H23C23.5523 17.4437 24 17.8915 24 18.4437C24 18.996 23.5523 19.4437 23 19.4437H13V20.539C13 21.0913 12.5523 21.539 12 21.539C11.4477 21.539 11 21.0913 11 20.539V19.4437H1C0.447715 19.4437 0 18.996 0 18.4437Z" fill="black"/>
</svg>
