<svg width="20" height="26" viewBox="0 0 20 26" fill="none" xmlns="http://www.w3.org/2000/svg">
<path fill-rule="evenodd" clip-rule="evenodd" d="M13.6576 2.41484L11.4913 5.66347L13.1407 5.66347C13.693 5.66347 14.1407 6.11119 14.1407 6.66347C14.1407 7.21575 13.693 7.66347 13.1407 7.66347H13.0733C16.359 9.91113 19.4228 15.1191 19.4228 19.6518C19.4228 25.456 15.5912 25.4525 10.4192 25.4477L9.96591 25.4474L9.51266 25.4477C4.34068 25.4525 0.509033 25.456 0.509033 19.6518C0.509033 15.1191 3.57281 9.91113 6.85852 7.66347H6.65601C6.10372 7.66347 5.65601 7.21575 5.65601 6.66347C5.65601 6.11118 6.10372 5.66347 6.65601 5.66347L8.43899 5.66347L6.27363 2.41466C5.8307 1.75009 6.3071 0.860046 7.10574 0.860046H12.8256C13.6243 0.860046 14.1007 1.75029 13.6576 2.41484ZM11.2775 11.2626C11.2775 10.7103 10.8298 10.2626 10.2775 10.2626C9.72519 10.2626 9.27748 10.7103 9.27748 11.2626V11.5602C9.08326 11.592 8.89276 11.6457 8.70966 11.7204C8.38869 11.8514 8.09682 12.0446 7.85084 12.2889C7.60487 12.5332 7.40965 12.8237 7.27643 13.1437C7.14322 13.4638 7.07464 13.807 7.07465 14.1537H7.07462L7.07467 14.1606C7.07948 14.8574 7.35968 15.5241 7.85414 16.0152C8.3486 16.5062 9.01719 16.7818 9.71405 16.7818H9.71408H10.8447H10.8447C11.0135 16.7818 11.1755 16.8485 11.2953 16.9675C11.4151 17.0865 11.4829 17.248 11.4841 17.4168C11.4842 17.4284 11.4845 17.44 11.485 17.4517C11.4886 17.5393 11.4742 17.6268 11.4426 17.7087C11.411 17.7905 11.3629 17.865 11.3012 17.9275C11.2396 17.9899 11.1658 18.039 11.0843 18.0717C11.0029 18.1044 10.9156 18.12 10.8279 18.1175C10.8184 18.1173 10.8089 18.1171 10.7995 18.1171H8.42515C7.87286 18.1171 7.42514 18.5648 7.42514 19.1171C7.42514 19.6694 7.87286 20.1171 8.42515 20.1171H9.27748V20.3984C9.27748 20.9507 9.72519 21.3984 10.2775 21.3984C10.8298 21.3984 11.2775 20.9507 11.2775 20.3984V20.0823C11.4661 20.051 11.6512 19.9993 11.8295 19.9277C12.1657 19.7928 12.4704 19.5901 12.7248 19.3322C12.9793 19.0744 13.1779 18.767 13.3084 18.4291C13.4367 18.0966 13.4964 17.7416 13.4839 17.3855C13.4746 16.695 13.1949 16.0353 12.7046 15.5484C12.2101 15.0573 11.5415 14.7818 10.8447 14.7818H10.8447H9.71405H9.71403C9.54521 14.7818 9.38324 14.715 9.26345 14.5961C9.14448 14.4779 9.07671 14.3178 9.07466 14.1502C9.0751 14.0686 9.09147 13.9877 9.12287 13.9123C9.15471 13.8358 9.20136 13.7664 9.26016 13.708C9.31895 13.6496 9.3887 13.6034 9.4654 13.5721C9.54211 13.5408 9.62426 13.525 9.70711 13.5256L9.70711 13.5256H9.71405H11.9075C12.4598 13.5256 12.9075 13.0779 12.9075 12.5256C12.9075 11.9733 12.4598 11.5256 11.9075 11.5256H11.2775V11.2626Z" fill="black"/>
</svg>
