<svg width="20" height="27" viewBox="0 0 20 27" fill="none" xmlns="http://www.w3.org/2000/svg">
<path fill-rule="evenodd" clip-rule="evenodd" d="M14.4096 1.07608C14.587 1.38983 14.5819 1.77478 14.3961 2.08368L11.6994 6.56836L13.3452 6.56836C13.8975 6.56836 14.3452 7.01608 14.3452 7.56836C14.3452 8.12065 13.8975 8.56836 13.3452 8.56836H13.2165C13.2832 8.61295 13.3494 8.6585 13.4152 8.70494C14.5014 9.47211 15.5301 10.5347 16.4169 11.7508C18.1788 14.1668 19.4884 17.341 19.4884 20.3147C19.4884 21.7717 19.2424 22.9644 18.7082 23.9108C18.1616 24.8791 17.3616 25.5038 16.4219 25.8945C15.5079 26.2746 14.4627 26.4335 13.3882 26.5059C12.4351 26.57 11.3916 26.569 10.3274 26.5679H10.3274L9.91695 26.5676L9.50654 26.5679H9.50646C8.44231 26.569 7.39883 26.57 6.44574 26.5059C5.37122 26.4335 4.326 26.2746 3.412 25.8945C2.47227 25.5038 1.67232 24.8791 1.12571 23.9108C0.591521 22.9644 0.34552 21.7717 0.34552 20.3147C0.34552 17.341 1.65514 14.1668 3.41701 11.7508C4.30382 10.5347 5.33254 9.47211 6.41873 8.70494C6.48449 8.65849 6.55073 8.61295 6.61742 8.56836H6.48804C5.93575 8.56836 5.48804 8.12064 5.48804 7.56836C5.48804 7.01607 5.93575 6.56836 6.48804 6.56836L8.32663 6.56836L5.6311 2.0835C5.44544 1.7746 5.44036 1.38968 5.61781 1.07599C5.79527 0.762296 6.12779 0.568359 6.4882 0.568359H13.5391C13.8996 0.568359 14.2321 0.762336 14.4096 1.07608ZM10.9606 13.5186C10.9606 12.9663 10.5129 12.5186 9.96063 12.5186C9.40835 12.5186 8.96063 12.9663 8.96063 13.5186V13.5981C8.84659 13.6254 8.73453 13.6614 8.62546 13.7059C8.34333 13.8211 8.08678 13.9909 7.87058 14.2056C7.65437 14.4203 7.48278 14.6757 7.36568 14.957C7.24859 15.2383 7.18829 15.54 7.18829 15.8448L7.18834 15.8516C7.19256 16.4639 7.43876 17.0497 7.87323 17.4812C8.30769 17.9126 8.89518 18.1548 9.50748 18.1548H10.4172C10.5015 18.1548 10.5823 18.1881 10.6421 18.2475C10.7019 18.3068 10.7358 18.3874 10.7364 18.4717C10.7364 18.4833 10.7367 18.495 10.7372 18.5066C10.739 18.5504 10.7318 18.594 10.7161 18.6349C10.7003 18.6757 10.6763 18.7129 10.6455 18.7441C10.6147 18.7753 10.5779 18.7998 10.5373 18.8161C10.4966 18.8324 10.453 18.8402 10.4093 18.8389C10.3998 18.8387 10.3903 18.8385 10.3808 18.8385H8.47034C7.91806 18.8385 7.47034 19.2862 7.47034 19.8385C7.47034 20.3908 7.91806 20.8385 8.47034 20.8385H8.96063V20.8697C8.96063 21.4219 9.40835 21.8697 9.96063 21.8697C10.5129 21.8697 10.9606 21.4219 10.9606 20.8697V20.7748C11.07 20.7485 11.1776 20.7142 11.2824 20.6721C11.5778 20.5535 11.8456 20.3754 12.0691 20.1488C12.2926 19.9223 12.4672 19.6522 12.5818 19.3552C12.6944 19.0638 12.7468 18.7526 12.7361 18.4405C12.7274 17.8345 12.4818 17.2557 12.0514 16.8284C11.617 16.3969 11.0295 16.1548 10.4172 16.1548H9.50743C9.42317 16.1548 9.34232 16.1214 9.28254 16.0621C9.22357 16.0035 9.18981 15.9243 9.18834 15.8413C9.18877 15.8016 9.19684 15.7623 9.21212 15.7256C9.22784 15.6878 9.25087 15.6535 9.27989 15.6247C9.30891 15.5959 9.34334 15.5731 9.3812 15.5577C9.41906 15.5422 9.45961 15.5344 9.50051 15.5347H11.2724C11.8246 15.5347 12.2724 15.087 12.2724 14.5347C12.2724 13.9824 11.8246 13.5347 11.2724 13.5347H10.9606V13.5186Z" fill="black"/>
</svg>
