<svg width="25" height="25" viewBox="0 0 25 25" fill="none" xmlns="http://www.w3.org/2000/svg">
<path fill-rule="evenodd" clip-rule="evenodd" d="M15.2026 0.763275H10.049C9.49676 0.763275 9.04904 1.21099 9.04904 1.76327V6.91679C9.04904 6.97805 9.05455 7.03803 9.0651 7.09625L7.65867 9.05173C7.25789 8.8964 6.82215 8.8112 6.36652 8.8112C4.73816 8.8112 3.36396 9.89934 2.93138 11.3881L1.00072 11.3882C0.448433 11.3882 0.000723311 11.8359 0.000732422 12.3882C0.000739748 12.9405 0.44846 13.3882 1.00075 13.3882L2.93148 13.3881C3.36418 14.8768 4.73829 15.9647 6.36652 15.9647C6.66181 15.9647 6.94875 15.9289 7.22323 15.8615L9.37391 18.9439C9.16534 19.3979 9.04904 19.9031 9.04904 20.4354C9.04904 22.4108 10.6504 24.0122 12.6258 24.0122C14.6012 24.0122 16.2026 22.4108 16.2026 20.4354C16.2026 19.829 16.0516 19.2578 15.7853 18.7574L17.8755 15.82C18.1957 15.914 18.5345 15.9645 18.8851 15.9645C20.5133 15.9645 21.8874 14.8765 22.3201 13.3879L23.9092 13.3878C24.4615 13.3878 24.9092 12.9401 24.9092 12.3878C24.9092 11.8355 24.4615 11.3878 23.9092 11.3878L22.3202 11.3879C21.8876 9.89909 20.5134 8.81098 18.8851 8.81098C17.2567 8.81098 15.8825 9.89914 15.4499 11.388L9.80163 11.388C9.683 10.9798 9.49358 10.6017 9.24753 10.2679L10.9385 7.91679H15.2026C15.7548 7.91679 16.2026 7.46907 16.2026 6.91679V5.34003L23.9095 5.34003C24.4618 5.34003 24.9095 4.89232 24.9095 4.34003C24.9095 3.78775 24.4618 3.34003 23.9095 3.34003L16.2026 3.34003V1.76328C16.2026 1.21099 15.7548 0.763275 15.2026 0.763275ZM9.80158 13.388C9.63994 13.9442 9.34688 14.4445 8.95826 14.8529L10.7347 17.3989C11.2833 17.0565 11.9314 16.8587 12.6258 16.8587C13.2559 16.8587 13.848 17.0216 14.3622 17.3077L16.1899 14.7392C15.8526 14.353 15.597 13.8936 15.4501 13.388L9.80158 13.388Z" fill="black"/>
</svg>
