<svg width="26" height="25" viewBox="0 0 26 25" fill="none" xmlns="http://www.w3.org/2000/svg">
<path fill-rule="evenodd" clip-rule="evenodd" d="M16.3177 0C15.7654 0 15.3177 0.447715 15.3177 1V5.47177L10.6821 8.71761V7.85645C10.6821 7.30416 10.2344 6.85645 9.68212 6.85645H1C0.447715 6.85645 0 7.30416 0 7.85645V16.5386C0 17.0909 0.447715 17.5386 1 17.5386H9.68212C10.2344 17.5386 10.6821 17.0909 10.6821 16.5386V15.8703L15.3177 19.1162V23.5733C15.3177 24.1255 15.7654 24.5733 16.3177 24.5733H24.9998C25.5521 24.5733 25.9998 24.1255 25.9998 23.5733V14.8911C25.9998 14.3388 25.5521 13.8911 24.9998 13.8911H16.3177C15.7654 13.8911 15.3177 14.3388 15.3177 14.8911V16.6746L10.6821 13.4288V11.1592L15.3177 7.91332V9.68223C15.3177 10.2345 15.7654 10.6822 16.3177 10.6822H24.9999C25.5522 10.6822 25.9999 10.2345 25.9999 9.68223V1C25.9999 0.447715 25.5522 0 24.9999 0H16.3177Z" fill="black"/>
</svg>
