<svg width="26" height="25" viewBox="0 0 26 25" fill="none" xmlns="http://www.w3.org/2000/svg">
<path fill-rule="evenodd" clip-rule="evenodd" d="M10.3874 0.350586C9.83508 0.350586 9.38736 0.798301 9.38736 1.35059V6.13415C9.38736 6.15567 9.38804 6.17703 9.38938 6.19822L7.58164 8.71168C7.18756 8.56962 6.76261 8.49219 6.31957 8.49219C4.61111 8.49219 3.17156 9.64358 2.73457 11.2127L1.00001 11.2127C0.447727 11.2127 7.62939e-06 11.6604 7.62939e-06 12.2127C4.99398e-06 12.765 0.447718 13.2127 1 13.2127L2.73429 13.2127C3.17094 14.7824 4.61074 15.9343 6.31957 15.9343C6.75653 15.9343 7.1759 15.859 7.5654 15.7206L9.53555 18.5443C9.23738 19.0796 9.06751 19.6962 9.06751 20.3524C9.06751 22.4075 10.7335 24.0734 12.7886 24.0734C14.8436 24.0734 16.5096 22.4075 16.5096 20.3524C16.5096 19.6981 16.3407 19.0832 16.0441 18.5489L18.049 15.7316C18.4296 15.8629 18.8382 15.9343 19.2634 15.9343C20.9722 15.9343 22.412 14.7824 22.8487 13.2128L24.5737 13.2128C25.126 13.2128 25.5737 12.7651 25.5737 12.2128C25.5737 11.6605 25.126 11.2128 24.5737 11.2128L22.8484 11.2128C22.4115 9.64362 20.9719 8.49219 19.2634 8.49219C17.5549 8.49219 16.1154 9.6436 15.6784 11.2128L9.90458 11.2128C9.76622 10.7159 9.52735 10.261 9.21126 9.87118L11.1798 7.13415H15.1899C15.7422 7.13415 16.1899 6.68643 16.1899 6.13415V4.69952H24.5743C25.1266 4.69952 25.5743 4.2518 25.5743 3.69952C25.5743 3.14723 25.1266 2.69952 24.5743 2.69952L16.1899 2.69952V1.35059C16.1899 0.798301 15.7422 0.350586 15.1899 0.350586H10.3874ZM9.20036 14.5687C9.52206 14.1757 9.76493 13.7157 9.90483 13.2128L15.6782 13.2128C15.8211 13.7266 16.0715 14.1956 16.4037 14.5942L14.614 17.1091C14.0747 16.8049 13.4519 16.6313 12.7886 16.6313C12.1281 16.6313 11.5078 16.8034 10.9701 17.1052L9.20036 14.5687Z" fill="black"/>
</svg>
