<svg width="28" height="27" viewBox="0 0 28 27" fill="none" xmlns="http://www.w3.org/2000/svg">
<path fill-rule="evenodd" clip-rule="evenodd" d="M17.1279 0.490967H11.1279C10.5756 0.490967 10.1279 0.938682 10.1279 1.49097V7.49097C10.1279 7.58164 10.14 7.66949 10.1626 7.75301L8.68603 9.80603C8.20718 9.60332 7.68065 9.49121 7.12793 9.49121C5.26401 9.49121 3.69786 10.7661 3.25389 12.4914L1.12743 12.4915C0.575143 12.4915 0.127434 12.9392 0.127441 13.4915C0.12745 14.0438 0.575172 14.4915 1.12746 14.4915L3.254 14.4914C3.69812 16.2165 5.26416 17.4912 7.12793 17.4912C7.50223 17.4912 7.86453 17.4398 8.20815 17.3436L10.5501 20.7003C10.28 21.239 10.1279 21.8472 10.1279 22.491C10.1279 24.7001 11.9188 26.491 14.1279 26.491C16.3371 26.491 18.1279 24.7001 18.1279 22.491C18.1279 21.766 17.9351 21.086 17.5978 20.4997L19.8801 17.2925C20.2727 17.4213 20.6922 17.491 21.1279 17.491C22.9917 17.491 24.5578 16.2163 25.0019 14.4911L26.7467 14.4911C27.299 14.4911 27.7467 14.0434 27.7467 13.4911C27.7467 12.9388 27.299 12.4911 26.7467 12.4911L25.002 12.4911C24.558 10.7658 22.9918 9.49097 21.1279 9.49097C19.264 9.49097 17.6978 10.7659 17.2539 12.4912L11.0019 12.4913C10.8622 11.9484 10.6113 11.45 10.275 11.022L12.0954 8.49097H17.1279C17.6802 8.49097 18.1279 8.04325 18.1279 7.49097V5.49098L26.7471 5.49098C27.2994 5.49098 27.7471 5.04326 27.7471 4.49098C27.7471 3.93869 27.2994 3.49098 26.7471 3.49098L18.1279 3.49098V1.49097C18.1279 0.938682 17.6802 0.490967 17.1279 0.490967ZM11.0019 14.4913C10.8193 15.2007 10.4469 15.834 9.9422 16.3337L11.9136 19.1593C12.5477 18.737 13.3091 18.491 14.1279 18.491C14.8752 18.491 15.5745 18.6959 16.1729 19.0525L18.195 16.2109C17.7506 15.7319 17.422 15.1438 17.254 14.4912L11.0019 14.4913Z" fill="black"/>
</svg>
