<svg width="26" height="26" viewBox="0 0 26 26" fill="none" xmlns="http://www.w3.org/2000/svg">
<path fill-rule="evenodd" clip-rule="evenodd" d="M22.2282 18.4399C24.3113 18.4399 26 20.1286 26 22.2118C26 24.2949 24.3113 25.9836 22.2282 25.9836C20.1451 25.9836 18.4564 24.2949 18.4564 22.2118C18.4564 21.3414 18.7512 20.5399 19.2463 19.9017L17.226 16.9604C15.9661 17.6308 14.5281 18.0108 13.0013 18.0108C11.4801 18.0108 10.047 17.6336 8.79035 16.9676L6.74432 19.8897C7.24514 20.5298 7.54364 21.3359 7.54364 22.2118C7.54364 24.2949 5.85494 25.9836 3.77182 25.9836C1.68871 25.9836 1.03821e-05 24.2949 1.04732e-05 22.2118C1.05642e-05 20.1286 1.68871 18.4399 3.77182 18.4399C4.25405 18.4399 4.71513 18.5304 5.13903 18.6954L7.13793 15.8406C5.21439 14.1891 3.99593 11.7395 3.99593 9.00539C3.99593 4.03185 8.02778 -7.85591e-07 13.0013 -5.6819e-07C17.9749 -3.5079e-07 22.0067 4.03185 22.0067 9.0054C22.0067 11.734 20.7932 14.1792 18.8764 15.8306L20.8477 18.7006C21.2752 18.5323 21.7409 18.4399 22.2282 18.4399ZM11.2435 7.07772C12.3083 6.01291 14.0347 6.01291 15.0995 7.07772C16.1643 8.14252 16.1643 9.86892 15.0995 10.9337C14.0347 11.9985 12.3083 11.9985 11.2435 10.9337C10.1787 9.86892 10.1787 8.14252 11.2435 7.07772ZM16.5137 5.6635C14.6679 3.81765 11.6751 3.81765 9.82929 5.6635C7.98344 7.50936 7.98344 10.5021 9.82929 12.3479C11.6751 14.1938 14.6679 14.1938 16.5137 12.3479C18.3596 10.5021 18.3596 7.50936 16.5137 5.6635Z" fill="black"/>
</svg>
