<svg width="25" height="17" viewBox="0 0 25 17" fill="none" xmlns="http://www.w3.org/2000/svg">
<path fill-rule="evenodd" clip-rule="evenodd" d="M12.6782 14.3205H15.8968C16.4491 14.3205 16.8968 14.7681 16.8968 15.3204L16.8969 15.8424C16.8969 16.3947 17.3446 16.8423 17.8969 16.8423H19.2769C19.8291 16.8423 20.2769 16.3946 20.2769 15.8423L20.2768 13.7811C20.2768 13.46 20.4359 13.1636 20.6757 12.95C21.0155 12.6473 21.2984 12.3083 21.5411 11.9228C21.7445 11.6001 22.0854 11.3783 22.4669 11.3783L23.6898 11.3783C24.2421 11.3784 24.6898 10.9306 24.6898 10.3783V8.5956C24.6898 8.04332 24.2421 7.5956 23.6898 7.5956H22.92C22.4754 7.5956 22.093 7.2973 21.9088 6.8926C21.3086 5.57384 20.1791 4.54682 18.7918 4.08289C18.3261 3.92717 17.9651 3.51864 17.9651 3.02763L17.9652 1.64305C17.9652 1.09075 17.5163 0.633777 16.9661 0.682101C15.4738 0.813172 14.2959 1.31677 13.952 2.81895C13.8287 3.3573 13.4021 3.81281 12.8498 3.81282L9.7693 3.81286C7.20809 3.81286 5.07493 5.64556 4.60968 8.07109C4.57867 8.06819 4.54725 8.06671 4.51548 8.06671C3.67487 8.06671 2.99341 7.38524 2.99341 6.54488C2.99341 5.99259 2.54569 5.54488 1.99341 5.54488C1.44112 5.54488 0.993408 5.99259 0.993408 6.54488C0.993408 8.49005 2.57054 10.0667 4.51548 10.0667C4.54725 10.0667 4.57868 10.0652 4.60969 10.0623C4.93409 11.7535 6.06933 13.1565 7.59515 13.851C7.99984 14.0352 8.29823 14.4176 8.29823 14.8622L8.29823 15.8423C8.29823 16.3946 8.74595 16.8423 9.29823 16.8423H10.6782C11.2305 16.8423 11.6782 16.3946 11.6782 15.8423V15.3205C11.6782 14.7682 12.1259 14.3205 12.6782 14.3205ZM18.7947 7.98703C18.4042 8.37755 17.771 8.37755 17.3805 7.98703L17.3633 7.96987C16.9728 7.57935 16.9728 6.94618 17.3633 6.55566C17.7538 6.16514 18.387 6.16514 18.7775 6.55566L18.7947 6.57281C19.1852 6.96334 19.1852 7.5965 18.7947 7.98703ZM14.342 7.26289C14.342 7.81518 13.8943 8.26289 13.342 8.26289L9.5593 8.26289C9.00702 8.26289 8.5593 7.81518 8.5593 7.26289C8.5593 6.71061 9.00702 6.26289 9.5593 6.26289L13.342 6.26289C13.8943 6.26289 14.342 6.71061 14.342 7.26289Z" fill="black"/>
</svg>
