<svg width="26" height="26" viewBox="0 0 26 26" fill="none" xmlns="http://www.w3.org/2000/svg">
<path fill-rule="evenodd" clip-rule="evenodd" d="M12.4351 0.176451C12.7782 -0.0598484 13.2318 -0.0587208 13.5737 0.179281L25.5715 8.53139C25.8401 8.71835 26.0002 9.02488 26.0002 9.35211V9.44113C26.0002 9.99341 25.5525 10.4411 25.0002 10.4411H22.3994V23.749H24.9834C25.5357 23.749 25.9834 24.1967 25.9834 24.749C25.9834 25.3013 25.5357 25.749 24.9834 25.749L1 25.749C0.447715 25.749 0 25.3013 0 24.749C0 24.1967 0.447715 23.749 1 23.749H3.59839L3.59839 10.4411H1.01672C0.464439 10.4411 0.0167236 9.99341 0.0167236 9.44113V9.2555C0.0167236 8.92651 0.17854 8.61856 0.449478 8.43195L12.4351 0.176451ZM5.59839 10.4411H20.3994V23.749H20.1533C20.0249 21.353 18.3814 19.2882 16.0487 18.6395L15.7032 18.5433L15.9863 18.2029C17.2361 16.7007 17.1361 14.4937 15.7555 13.1104C14.2777 11.6299 11.8778 11.6299 10.4 13.1104C9.0194 14.4937 8.91966 16.701 10.1694 18.2032L10.4523 18.5433L10.1096 18.6386C7.77652 19.2876 6.13467 21.3535 6.0079 23.749H5.59839L5.59839 10.4411Z" fill="black"/>
</svg>
