<svg width="27" height="26" viewBox="0 0 27 26" fill="none" xmlns="http://www.w3.org/2000/svg">
<path fill-rule="evenodd" clip-rule="evenodd" d="M12.0708 1V9.73621H7.97079C5.39604 9.73621 3.36789 10.6266 1.99289 12.1567C0.632612 13.6704 0 15.7108 0 17.8681C0 20.1215 0.686559 21.9243 1.81034 23.2609C2.92626 24.5882 4.42506 25.399 5.96702 25.7655C7.42686 26.1125 8.85355 25.7097 10.0087 25.2149C11.9494 24.3837 14.146 24.3837 16.0868 25.2149C17.2419 25.7097 18.6686 26.1125 20.1284 25.7655C21.6704 25.399 23.1692 24.5882 24.2851 23.2609C25.4089 21.9243 26.0955 20.1215 26.0955 17.8681C26.0955 13.4232 22.8279 9.73621 18.1247 9.73621H14.0708V1C14.0708 0.447715 13.6231 0 13.0708 0C12.5185 0 12.0708 0.447715 12.0708 1ZM6.80167 20.4016C6.80167 20.9538 7.24938 21.4016 7.80167 21.4016C8.35395 21.4016 8.80167 20.9538 8.80167 20.4016V18.723H10.4803C11.0326 18.723 11.4803 18.2753 11.4803 17.723C11.4803 17.1707 11.0326 16.723 10.4803 16.723H8.80167V15.0449C8.80167 14.4926 8.35395 14.0449 7.80167 14.0449C7.24938 14.0449 6.80167 14.4926 6.80167 15.0449V16.723H5.12366C4.57137 16.723 4.12366 17.1707 4.12366 17.723C4.12366 18.2753 4.57137 18.723 5.12366 18.723H6.80167V20.4016ZM15.8574 16.1616C15.8574 15.6093 16.3051 15.1616 16.8574 15.1616H16.8682C17.4204 15.1616 17.8682 15.6093 17.8682 16.1616C17.8682 16.7139 17.4204 17.1616 16.8682 17.1616H16.8574C16.3051 17.1616 15.8574 16.7139 15.8574 16.1616ZM16.8574 18.2852C16.3051 18.2852 15.8574 18.7329 15.8574 19.2852C15.8574 19.8374 16.3051 20.2852 16.8574 20.2852H16.8682C17.4204 20.2852 17.8682 19.8374 17.8682 19.2852C17.8682 18.7329 17.4204 18.2852 16.8682 18.2852H16.8574ZM19.9302 18.2852C19.378 18.2852 18.9302 18.7329 18.9302 19.2852C18.9302 19.8374 19.378 20.2852 19.9302 20.2852H19.941C20.4933 20.2852 20.941 19.8374 20.941 19.2852C20.941 18.7329 20.4933 18.2852 19.941 18.2852H19.9302ZM19.9201 15.1616C19.3678 15.1616 18.9201 15.6093 18.9201 16.1616C18.9201 16.7139 19.3678 17.1616 19.9201 17.1616H19.9309C20.4832 17.1616 20.9309 16.7139 20.9309 16.1616C20.9309 15.6093 20.4832 15.1616 19.9309 15.1616H19.9201Z" fill="black"/>
</svg>
