<svg width="26" height="26" viewBox="0 0 26 26" fill="none" xmlns="http://www.w3.org/2000/svg">
<path fill-rule="evenodd" clip-rule="evenodd" d="M9.62455 2.40479C8.99815 2.40479 8.39948 2.65112 7.95972 3.08629C7.52031 3.5211 7.27539 4.10859 7.27539 4.71893C7.27539 5.32927 7.52031 5.91676 7.95972 6.35158C8.39948 6.78675 8.99815 7.03308 9.62455 7.03308H11.9736V4.71893L11.9737 4.70295C11.9694 4.09834 11.725 3.51731 11.2894 3.08629C10.8496 2.65112 10.251 2.40479 9.62455 2.40479ZM6.84001 8.03296C6.74088 7.951 6.64508 7.86437 6.55296 7.7732C5.73619 6.96497 5.27539 5.86653 5.27539 4.71893C5.27539 3.57134 5.73619 2.4729 6.55296 1.66466C7.36937 0.856784 8.47446 0.404785 9.62455 0.404785C10.7747 0.404785 11.8797 0.856784 12.6962 1.66466C12.7938 1.7613 12.8864 1.86208 12.9737 1.9666C13.061 1.86208 13.1535 1.7613 13.2512 1.66466C14.0676 0.856784 15.1727 0.404785 16.3228 0.404785C17.4729 0.404785 18.578 0.856784 19.3944 1.66466C20.2112 2.4729 20.672 3.57134 20.672 4.71893C20.672 5.86653 20.2112 6.96497 19.3944 7.7732C19.3023 7.86437 19.2065 7.951 19.1073 8.03296H24.7473C25.2996 8.03296 25.7473 8.48067 25.7473 9.03296V12.9659H0.251953V9.03296C0.251953 8.48067 0.699668 8.03296 1.25195 8.03296H6.84001ZM16.3228 7.03308H13.9737V4.71893L13.9737 4.70294C13.9779 4.09834 14.2224 3.51731 14.658 3.08629C15.0977 2.65112 15.6964 2.40479 16.3228 2.40479C16.9492 2.40479 17.5479 2.65112 17.9876 3.08629C18.427 3.5211 18.672 4.10859 18.672 4.71893C18.672 5.32927 18.427 5.91676 17.9876 6.35158C17.5479 6.78675 16.9492 7.03308 16.3228 7.03308ZM13.9736 14.9659H23.7861V24.878C23.7861 25.4303 23.3384 25.878 22.7861 25.878H13.9736L13.9736 14.9659ZM2.21313 14.9659H11.9736L11.9736 25.878H3.21313C2.66085 25.878 2.21313 25.4303 2.21313 24.878V14.9659Z" fill="black"/>
</svg>
