<svg width="25" height="24" viewBox="0 0 25 24" fill="none" xmlns="http://www.w3.org/2000/svg">
<path fill-rule="evenodd" clip-rule="evenodd" d="M0.109375 1.25119V17.2963C0.109375 17.6703 0.318136 18.0131 0.650483 18.1848L11.394 23.7337V4.94772L1.5323 0.34503C0.869316 0.0356001 0.109375 0.519554 0.109375 1.25119ZM13.394 4.94765V23.7336L24.1374 18.1848C24.4698 18.0131 24.6786 17.6704 24.6786 17.2963V1.2512C24.6786 0.519556 23.9186 0.0356001 23.2556 0.34503L13.394 4.94765ZM9.4639 16.5549C8.94867 16.7538 8.36976 16.4973 8.17086 15.9821L7.85155 15.155L4.77613 15.155L4.50447 15.9466C4.32519 16.4689 3.75639 16.7471 3.23401 16.5678C2.71164 16.3885 2.43349 15.8197 2.61276 15.2974L5.2177 7.70683C5.35413 7.30929 5.72458 7.03949 6.14481 7.03161L6.15466 7.03142C6.57477 7.02355 6.95499 7.27912 7.10631 7.67111L10.0367 15.2618C10.2356 15.7771 9.97912 16.356 9.4639 16.5549ZM5.46249 13.155H7.07946L6.22346 10.9376L5.46249 13.155ZM22.084 8.0896C22.085 7.82372 21.9801 7.56837 21.7925 7.37999C21.6048 7.19162 21.3499 7.08572 21.084 7.08572L16.0045 7.0857C15.4522 7.0857 15.0045 7.53341 15.0045 8.0857C15.0045 8.63798 15.4522 9.0857 16.0045 9.0857L19.205 9.08572L15.1721 14.9695C15.058 15.136 14.9969 15.3331 14.9969 15.5349V15.5727C14.9969 16.125 15.4446 16.5727 15.9969 16.5727H21.0766C21.6289 16.5727 22.0766 16.125 22.0766 15.5727C22.0766 15.0205 21.6289 14.5727 21.0766 14.5727H17.8688L21.9087 8.67864C22.0221 8.51327 22.0831 8.31764 22.0839 8.11715L22.084 8.0896Z" fill="black"/>
</svg>
