<svg width="28" height="29" viewBox="0 0 28 29" fill="none" xmlns="http://www.w3.org/2000/svg">
<path fill-rule="evenodd" clip-rule="evenodd" d="M19 14.6143H16.827H11.173H9C7.343 14.6143 6 15.9573 6 17.6143C6 19.2304 7.27754 20.5478 8.87793 20.6118V23.4912C8.87793 25.2866 10.3326 26.7412 12.1279 26.7412C12.8823 26.7412 13.5765 26.4844 14.1279 26.0534C14.6794 26.4844 15.3736 26.7412 16.1279 26.7412C17.9233 26.7412 19.3779 25.2866 19.3779 23.4912V20.5907C20.8565 20.4049 22 19.1432 22 17.6143C22 15.9573 20.657 14.6143 19 14.6143ZM11.3779 21.7412H12.8779V23.4912C12.8779 23.9059 12.5426 24.2412 12.1279 24.2412C11.7133 24.2412 11.3779 23.9059 11.3779 23.4912V21.7412ZM15.3779 23.4912V21.7412H16.8779V23.4912C16.8779 23.9059 16.5426 24.2412 16.1279 24.2412C15.7133 24.2412 15.3779 23.9059 15.3779 23.4912Z" fill="black"/>
<path d="M17.1279 13.4912C17.1279 15.1482 15.7849 16.4912 14.1279 16.4912C12.4709 16.4912 11.1279 15.1482 11.1279 13.4912C11.1279 11.8342 12.4709 10.4912 14.1279 10.4912C15.7849 10.4912 17.1279 11.8342 17.1279 13.4912Z" fill="white" stroke="black" stroke-width="2.5"/>
<path d="M20.6279 11.4912C18.1426 11.4912 16.1279 9.4765 16.1279 6.99121C16.1279 4.50593 18.1426 2.49121 20.6279 2.49121C23.1132 2.49121 25.1279 4.50593 25.1279 6.99121C25.1279 9.4765 23.1132 11.4912 20.6279 11.4912Z" fill="black"/>
<path d="M7.62793 11.4912C5.14264 11.4912 3.12793 9.4765 3.12793 6.99121C3.12793 4.50593 5.14264 2.49121 7.62793 2.49121C10.1132 2.49121 12.1279 4.50593 12.1279 6.99121C12.1279 9.4765 10.1132 11.4912 7.62793 11.4912Z" fill="black"/>
</svg>
