<svg width="26" height="26" viewBox="0 0 26 26" fill="none" xmlns="http://www.w3.org/2000/svg">
<path fill-rule="evenodd" clip-rule="evenodd" d="M13.5737 0.179281C13.2318 -0.0587208 12.7782 -0.0598484 12.4351 0.176451L0.449478 8.43195C0.17854 8.61856 0.0167235 8.92651 0.0167235 9.2555V9.44113C0.0167235 9.99341 0.464439 10.4411 1.01672 10.4411H3.59839L3.59839 23.749H1C0.447715 23.749 0 24.1967 0 24.749C0 25.3013 0.447715 25.749 1 25.749L24.9834 25.749C25.5357 25.749 25.9834 25.3013 25.9834 24.749C25.9834 24.1967 25.5357 23.749 24.9834 23.749H22.3994V10.4411H25.0002C25.5525 10.4411 26.0002 9.99341 26.0002 9.44113V9.35211C26.0002 9.02488 25.8401 8.71835 25.5715 8.53139L13.5737 0.179281ZM16.8198 10.4411H20.3994V23.749H16.8198V10.4411ZM11.3259 10.4411H14.8198V23.749H11.3259V10.4411ZM5.59839 10.4411H9.32593V23.749H5.59839L5.59839 10.4411Z" fill="black"/>
</svg>
