<svg width="23" height="25" viewBox="0 0 23 25" fill="none" xmlns="http://www.w3.org/2000/svg">
<path fill-rule="evenodd" clip-rule="evenodd" d="M4.87487 9.15971H4.95736H8.10925V22.3653H4.87487V9.15971ZM2.87487 9.15971H1.68787C0.71162 9.15971 0.313895 7.90425 1.11206 7.34212L10.8047 0.515908C11.1486 0.27373 11.6072 0.272603 11.9523 0.513088L21.7468 7.3393C22.5498 7.89894 22.1538 9.15971 21.175 9.15971H20.1429V22.3653H21.687C22.2393 22.3653 22.687 22.813 22.687 23.3653C22.687 23.9176 22.2393 24.3653 21.687 24.3653L1.20313 24.3653C0.65084 24.3653 0.203125 23.9176 0.203125 23.3653C0.203125 22.813 0.65084 22.3653 1.20312 22.3653H2.87487V9.15971ZM18.1429 9.15971H17.782H15.1092V22.3653H18.1429V9.15971ZM13.1092 9.15971H10.1092V22.3653H13.1092V9.15971Z" fill="black"/>
</svg>
