<svg width="28" height="27" viewBox="0 0 28 27" fill="none" xmlns="http://www.w3.org/2000/svg">
<path fill-rule="evenodd" clip-rule="evenodd" d="M14.7165 0.974102C14.2892 0.676599 13.7222 0.675189 13.2933 0.970564L1.30767 9.22606C0.968994 9.45933 0.766724 9.84426 0.766724 10.2555V10.4411C0.766724 11.1315 1.32637 11.6911 2.01672 11.6911H4.34839L4.34839 24.499H2C1.30964 24.499 0.75 25.0587 0.75 25.749C0.75 26.4394 1.30964 26.999 2 26.999H5.59292L5.59839 26.999L5.60386 26.999H11.3128L11.3259 26.9991L11.339 26.999H16.8065L16.8198 26.9991L16.8332 26.999L22.3936 26.999L22.3994 26.999L22.4052 26.999H25.9834C26.6737 26.999 27.2334 26.4394 27.2334 25.749C27.2334 25.0587 26.6737 24.499 25.9834 24.499H23.6494V11.6911H26.0002C26.6905 11.6911 27.2502 11.1315 27.2502 10.4411V10.3521C27.2502 9.94307 27.05 9.55991 26.7143 9.32621L14.7165 0.974102ZM18.0698 11.6911H21.1494V24.499H18.0698V11.6911ZM12.5759 11.6911H15.5698V24.499H12.5759V11.6911ZM6.84839 11.6911H10.0759V24.499H6.84839L6.84839 11.6911Z" fill="black"/>
</svg>
