<svg width="23" height="25" viewBox="0 0 23 25" fill="none" xmlns="http://www.w3.org/2000/svg">
<path fill-rule="evenodd" clip-rule="evenodd" d="M4.67188 8.82622H4.75423H7.90625V22.0318H4.67188L4.67188 8.82622ZM2.67188 8.82622H1.48474C0.508495 8.82622 0.11077 7.57075 0.908939 7.00863L10.6016 0.182411C10.9454 -0.0597662 11.4041 -0.0608934 11.7491 0.179592L21.5436 7.00581C22.3466 7.56544 21.9506 8.82622 20.9719 8.82622H19.9399V22.0318H21.4839C22.0362 22.0318 22.4839 22.4795 22.4839 23.0318C22.4839 23.5841 22.0362 24.0318 21.4839 24.0318L1 24.0318C0.447715 24.0318 0 23.5841 0 23.0318C0 22.4795 0.447715 22.0318 1 22.0318H2.67188V8.82622ZM17.9399 8.82622H17.5789H14.9063V22.0318H17.9399V8.82622ZM12.9063 8.82622H9.90625V22.0318H12.9063V8.82622Z" fill="black"/>
</svg>
