<svg width="26" height="24" viewBox="0 0 26 24" fill="none" xmlns="http://www.w3.org/2000/svg">
<path fill-rule="evenodd" clip-rule="evenodd" d="M24.1364 1.25L24.1364 17.8481C25.2117 18.2399 25.9796 19.2714 25.9796 20.4823C25.9796 22.0302 24.7247 23.285 23.1768 23.285H3.07377C1.52584 23.285 0.270996 22.0302 0.270996 20.4823C0.270996 19.3898 0.896033 18.4433 1.80802 17.9809C1.80345 17.9422 1.80111 17.9028 1.80111 17.8628L1.80111 1.25C1.80111 0.697717 2.24882 0.25 2.80111 0.25H23.1364C23.6887 0.25 24.1364 0.697716 24.1364 1.25ZM3.07377 19.6795C2.63041 19.6795 2.271 20.0389 2.271 20.4823C2.271 20.9256 2.63041 21.285 3.07377 21.285H23.1768C23.6201 21.285 23.9796 20.9256 23.9796 20.4823C23.9796 20.0389 23.6201 19.6795 23.1768 19.6795H3.07377ZM9.70014 8.09123C10.1242 7.73745 10.1813 7.10686 9.82748 6.68276C9.47371 6.25866 8.84312 6.20164 8.41901 6.55542L5.52663 8.96816C5.29873 9.15827 5.16704 9.43978 5.16719 9.73656C5.16734 10.0333 5.2993 10.3147 5.52739 10.5046L8.41977 12.9125C8.84423 13.2659 9.47476 13.2082 9.82812 12.7838C10.1815 12.3593 10.1238 11.7288 9.69938 11.3754L7.72924 9.7353L9.70014 8.09123ZM16.4131 6.67343C16.7666 6.2491 17.3971 6.19167 17.8215 6.54517L20.7235 8.96276C20.9517 9.15286 21.0836 9.43457 21.0835 9.73158C21.0833 10.0286 20.9512 10.3102 20.7228 10.5L17.8207 12.9128C17.396 13.2659 16.7655 13.2078 16.4124 12.7831C16.0594 12.3584 16.1174 11.7279 16.5421 11.3749L18.5202 9.73031L16.5413 8.08182C16.117 7.72832 16.0596 7.09777 16.4131 6.67343ZM15.693 5.22207C15.869 4.69859 15.5874 4.13152 15.0639 3.95548C14.5404 3.77943 13.9734 4.06108 13.7973 4.58456L10.5486 14.2449C10.3725 14.7684 10.6542 15.3355 11.1777 15.5115C11.7011 15.6875 12.2682 15.4059 12.4442 14.8824L15.693 5.22207Z" fill="black"/>
</svg>
