<svg width="26" height="24" viewBox="0 0 26 24" fill="none" xmlns="http://www.w3.org/2000/svg">
<path fill-rule="evenodd" clip-rule="evenodd" d="M24.1247 0.999998L24.1247 17.6385H24.9774C25.5297 17.6385 25.9774 18.0862 25.9774 18.6385V22.2849C25.9774 22.8372 25.5297 23.2849 24.9774 23.2849H1C0.447715 23.2849 0 22.8372 0 22.2849V18.6385C0 18.0862 0.447715 17.6385 1 17.6385H1.53616L1.53616 0.999998C1.53616 0.447714 1.98387 0 2.53616 0H23.1247C23.677 0 24.1247 0.447712 24.1247 0.999998ZM2 19.6385V21.2849H23.9774V19.6385H2ZM9.51751 7.92147C9.94161 7.5677 9.99862 6.93711 9.64485 6.513C9.29107 6.0889 8.66048 6.03189 8.23638 6.38566L5.31119 8.82577C5.0833 9.01587 4.95161 9.29739 4.95176 9.59417C4.9519 9.89095 5.08387 10.1723 5.31195 10.3622L8.23714 12.7974C8.66159 13.1508 9.29213 13.0931 9.64548 12.6687C9.99883 12.2442 9.9412 11.6137 9.51675 11.2603L7.51381 9.5929L9.51751 7.92147ZM16.3225 6.50351C16.676 6.07917 17.3065 6.02175 17.7309 6.37524L20.6658 8.82025C20.894 9.01035 21.0259 9.29206 21.0258 9.58906C21.0256 9.88608 20.8935 10.1677 20.6651 10.3575L17.7301 12.7976C17.3054 13.1507 16.6749 13.0927 16.3218 12.668C15.9688 12.2433 16.0268 11.6128 16.4515 11.2597L18.4625 9.5878L16.4507 7.91189C16.0264 7.5584 15.969 6.92784 16.3225 6.50351ZM15.575 5.02484C15.751 4.50136 15.4694 3.93429 14.9459 3.75825C14.4224 3.5822 13.8553 3.86385 13.6793 4.38733L10.3937 14.1572C10.2177 14.6807 10.4993 15.2478 11.0228 15.4238C11.5463 15.5998 12.1133 15.3182 12.2894 14.7947L15.575 5.02484Z" fill="black"/>
</svg>
