<svg width="21" height="26" viewBox="0 0 21 26" fill="none" xmlns="http://www.w3.org/2000/svg">
<path fill-rule="evenodd" clip-rule="evenodd" d="M6.77386 1C6.77386 0.447715 6.32615 0 5.77386 0C5.22158 0 4.77386 0.447715 4.77386 1L4.77386 3.41076C4.77386 3.96304 5.22158 4.41076 5.77387 4.41076C6.32615 4.41076 6.77386 3.96304 6.77386 3.41076L6.77386 1ZM11.4824 1C11.4824 0.447715 11.0347 0 10.4824 0C9.93009 0 9.48238 0.447715 9.48238 1L9.48238 3.41076C9.48238 3.96304 9.93009 4.41076 10.4824 4.41076C11.0347 4.41076 11.4824 3.96304 11.4824 3.41076L11.4824 1ZM11.4824 22.5894C11.4824 22.0371 11.0347 21.5894 10.4824 21.5894C9.93009 21.5894 9.48238 22.0371 9.48238 22.5894L9.48238 25.0001C9.48238 25.5524 9.93009 26.0001 10.4824 26.0001C11.0347 26.0001 11.4824 25.5524 11.4824 25.0001L11.4824 22.5894ZM15.1909 0C15.7432 0 16.1909 0.447715 16.1909 1V3.41076C16.1909 3.96304 15.7432 4.41076 15.1909 4.41076C14.6386 4.41076 14.1909 3.96304 14.1909 3.41076L14.1909 1C14.1909 0.447715 14.6386 0 15.1909 0ZM12.5408 19.7754C12.806 19.7754 13.0604 19.67 13.2479 19.4825C13.4355 19.295 13.5408 19.0406 13.5408 18.7754V16.2372L20.2739 7.84241C20.5146 7.54236 20.5618 7.13089 20.3954 6.78411C20.229 6.43734 19.8785 6.21674 19.4938 6.21674L1 6.21674C0.608323 6.21674 0.252702 6.4454 0.0901672 6.80176C-0.0723694 7.15813 -0.0118932 7.57657 0.244889 7.87233L7.52478 16.2573L7.51313 18.7708C7.5119 19.0368 7.61671 19.2923 7.80438 19.4809C7.99204 19.6694 8.2471 19.7754 8.51312 19.7754L12.5408 19.7754Z" fill="black"/>
</svg>
