<svg width="22" height="26" viewBox="0 0 22 26" fill="none" xmlns="http://www.w3.org/2000/svg">
<path fill-rule="evenodd" clip-rule="evenodd" d="M1.18146 4.44551C0.787407 4.58984 0.525391 4.96485 0.525391 5.38451V18.2902C0.525391 18.6301 0.69808 18.9468 0.983858 19.1309L10.3156 25.142C10.6454 25.3545 11.0691 25.3545 11.3988 25.1419L20.8722 19.0366C21.1579 18.8525 21.3305 18.5359 21.3305 18.1961V5.38472C21.3305 4.96496 21.0684 4.58988 20.6742 4.44563L11.2671 1.00316C11.0451 0.921925 10.8015 0.921961 10.5795 1.00327L1.18146 4.44551ZM6.38261 12.1027C6.37962 12.655 6.82491 13.1051 7.37719 13.1081L9.79315 13.1212L9.78008 15.5371C9.7771 16.0894 10.2224 16.5395 10.7747 16.5425C11.3269 16.5455 11.7771 16.1002 11.7801 15.5479L11.7931 13.132L14.2072 13.145C14.7594 13.148 15.2096 12.7027 15.2125 12.1504C15.2155 11.5982 14.7702 11.148 14.218 11.1451L11.8039 11.132L11.817 8.71796C11.82 8.16568 11.3747 7.71555 10.8224 7.71257C10.2701 7.70958 9.82 8.15487 9.81701 8.70715L9.80396 11.1212L7.388 11.1081C6.83573 11.1051 6.3856 11.5504 6.38261 12.1027Z" fill="black"/>
</svg>
