<svg width="23" height="26" viewBox="0 0 23 26" fill="none" xmlns="http://www.w3.org/2000/svg">
<path fill-rule="evenodd" clip-rule="evenodd" d="M10.7947 0.0610045C11.0167 -0.0203002 11.2603 -0.0203359 11.4823 0.0609039L21.6301 3.77442C22.0243 3.91868 22.2865 4.29376 22.2865 4.71352V12.9665C22.2865 16.7049 20.3877 20.1875 17.2453 22.2127L11.616 25.8406C11.2862 26.0531 10.8626 26.0531 10.5328 25.8407L5.04314 22.3045C1.89959 20.2795 0 16.7963 0 13.057V4.71352C0 4.29387 0.262018 3.91886 0.656071 3.77452L10.7947 0.0610045ZM10.9938 16.2998C11.546 16.3028 11.9962 15.8575 11.9991 15.3052L12.0118 12.9743L14.3407 12.9869C14.893 12.9899 15.3431 12.5446 15.3461 11.9923C15.3491 11.44 14.9038 10.9899 14.3515 10.9869L12.0226 10.9743L12.0352 8.64554C12.0381 8.09327 11.5929 7.64314 11.0406 7.64015C10.4883 7.63717 10.0382 8.08245 10.0352 8.63473L10.0226 10.9635L7.69181 10.9509C7.13953 10.9479 6.6894 11.3932 6.68642 11.9455C6.68343 12.4978 7.12872 12.9479 7.68099 12.9509L10.0118 12.9635L9.99918 15.2944C9.99619 15.8467 10.4415 16.2968 10.9938 16.2998Z" fill="black"/>
</svg>
