<svg width="22" height="26" viewBox="0 0 22 26" fill="none" xmlns="http://www.w3.org/2000/svg">
<path fill-rule="evenodd" clip-rule="evenodd" d="M0.65607 3.72197C0.262017 3.8663 0 4.24131 0 4.66097V18.3793C0 18.7192 0.17269 19.0359 0.458467 19.22L10.3836 25.6134C10.7134 25.8258 11.137 25.8258 11.4668 25.6132L21.5417 19.1203C21.8274 18.9362 22 18.6196 22 18.2798V4.66119C22 4.24143 21.7379 3.86634 21.3437 3.72209L11.3388 0.0609039C11.1168 -0.0203358 10.8732 -0.0203003 10.6512 0.0610044L0.65607 3.72197ZM6.25104 11.8054C6.24805 12.3577 6.69334 12.8079 7.24562 12.8108L9.85775 12.825L9.84363 15.4371C9.84064 15.9894 10.2859 16.4395 10.8382 16.4425C11.3905 16.4455 11.8406 16.0002 11.8436 15.4479L11.8577 12.8358L14.4678 12.8499C15.0201 12.8529 15.4702 12.4076 15.4732 11.8553C15.4762 11.303 15.0309 10.8529 14.4786 10.8499L11.8685 10.8358L11.8826 8.22568C11.8856 7.67341 11.4403 7.22328 10.8881 7.22029C10.3358 7.2173 9.88566 7.66259 9.88268 8.21487L9.86857 10.825L7.25643 10.8109C6.70415 10.8079 6.25402 11.2532 6.25104 11.8054Z" fill="black"/>
</svg>
