<svg width="26" height="27" viewBox="0 0 26 27" fill="none" xmlns="http://www.w3.org/2000/svg">
<path fill-rule="evenodd" clip-rule="evenodd" d="M2.72116 9.75012C3.83596 6.83291 6.15692 4.51189 9.0741 3.39703L11.1082 8.27897C9.4734 8.85341 8.17838 10.1497 7.60563 11.7853L2.72116 9.75012ZM2.72115 17.6014C3.83596 20.5187 6.15698 22.8397 9.07423 23.9546L11.1082 19.0731C9.47323 18.4986 8.17814 17.2021 7.60547 15.5663L2.72115 17.6014ZM16.9255 23.9547C19.8428 22.8399 22.1639 20.5189 23.2788 17.6016L18.4027 15.5699C17.8284 17.2068 16.5305 18.5034 14.8928 19.076L16.9255 23.9547ZM18.4025 11.7818L23.2788 9.75C22.1639 6.83268 19.8428 4.51161 16.9254 3.39684L14.8924 8.27592C16.5302 8.84841 17.8281 10.1449 18.4025 11.7818ZM13 0.675781C5.8203 0.675781 0 6.49608 0 13.6758C0 20.8555 5.8203 26.6758 13 26.6758C20.1797 26.6758 26 20.8555 26 13.6758C26 6.49608 20.1797 0.675781 13 0.675781ZM9.28571 13.676C9.28571 11.6221 10.9508 9.95703 13.0047 9.95703C15.0586 9.95703 16.7237 11.6221 16.7237 13.676C16.7237 15.73 15.0586 17.395 13.0047 17.395C10.9508 17.395 9.28571 15.73 9.28571 13.676Z" fill="black"/>
</svg>
