<svg width="29" height="29" viewBox="0 0 29 29" fill="none" xmlns="http://www.w3.org/2000/svg">
<path fill-rule="evenodd" clip-rule="evenodd" d="M18.2559 8.05976V4.35254C18.2559 2.69571 16.2411 1.35254 13.7559 1.35254C11.2706 1.35254 9.25586 2.69571 9.25586 4.35254V8.05976C9.25586 9.17001 9.91071 10.0242 10.7429 10.5555C11.5687 11.0827 12.6401 11.3525 13.7559 11.3525C14.8716 11.3525 15.943 11.0827 16.7688 10.5555C17.601 10.0242 18.2559 9.17001 18.2559 8.05976ZM11.2559 7.22784V8.05976C11.2559 8.30002 11.3845 8.59225 11.8191 8.86973C12.2601 9.15126 12.9386 9.35254 13.7559 9.35254C14.5731 9.35254 15.2516 9.15126 15.6926 8.86973C16.1272 8.59225 16.2559 8.30002 16.2559 8.05976V7.22784C15.5275 7.59595 14.6622 7.7979 13.7559 7.7979C12.8496 7.7979 11.9842 7.59595 11.2559 7.22784ZM11.0176 13.2729C11.2955 12.7957 11.1339 12.1835 10.6566 11.9056C10.1793 11.6277 9.56712 11.7893 9.28923 12.2666L5.97223 17.9636C5.69434 18.4409 5.85598 19.0531 6.33326 19.331C6.81054 19.6089 7.42273 19.4472 7.70062 18.9699L11.0176 13.2729ZM27.2559 24.1025C27.2559 26.1732 25.017 27.8525 22.2559 27.8525C19.4947 27.8525 17.2559 26.1732 17.2559 24.1025C17.2559 22.0319 19.4947 20.3525 22.2559 20.3525C25.017 20.3525 27.2559 22.0319 27.2559 24.1025ZM5.25586 27.8525C8.017 27.8525 10.2559 26.1732 10.2559 24.1025C10.2559 22.0319 8.017 20.3525 5.25586 20.3525C2.49472 20.3525 0.255859 22.0319 0.255859 24.1025C0.255859 26.1732 2.49472 27.8525 5.25586 27.8525Z" fill="black"/>
<path d="M20.3029 17.4711L18.0551 13.6106" stroke="black" stroke-width="2" stroke-miterlimit="10" stroke-linecap="round" stroke-dasharray="0.2 4.2"/>
</svg>
