<svg width="27" height="27" viewBox="0 0 27 27" fill="none" xmlns="http://www.w3.org/2000/svg">
<path fill-rule="evenodd" clip-rule="evenodd" d="M18 3V6.70722C18 7.81747 17.3451 8.67162 16.513 9.20292C15.6872 9.73015 14.6157 10 13.5 10C12.3843 10 11.3128 9.73015 10.487 9.20292C9.65485 8.67162 9 7.81747 9 6.70722V3C9 1.34317 11.0148 0 13.5 0C15.9852 0 18 1.34317 18 3ZM11 6.70722V5.8753C11.7284 6.24341 12.5937 6.44536 13.5 6.44536C14.4063 6.44536 15.2716 6.24341 16 5.8753V6.70722C16 6.94748 15.8713 7.23972 15.4367 7.51719C14.9958 7.79872 14.3173 8 13.5 8C12.6827 8 12.0042 7.79872 11.5633 7.51719C11.1287 7.23972 11 6.94748 11 6.70722ZM10.4007 10.553C10.878 10.8309 11.0396 11.4431 10.7618 11.9204L7.44476 17.6174C7.16687 18.0947 6.55468 18.2563 6.0774 17.9784C5.60012 17.7005 5.43849 17.0884 5.71638 16.6111L9.03337 10.9141C9.31126 10.4368 9.92345 10.2752 10.4007 10.553ZM22 26.5C24.7611 26.5 27 24.8206 27 22.75C27 20.6794 24.7611 19 22 19C19.2389 19 17 20.6794 17 22.75C17 24.8206 19.2389 26.5 22 26.5ZM10 22.75C10 24.8206 7.76114 26.5 5 26.5C2.23886 26.5 0 24.8206 0 22.75C0 20.6794 2.23886 19 5 19C7.76114 19 10 20.6794 10 22.75ZM20.9111 15.6148C21.189 16.0921 21.0273 16.7043 20.5501 16.9822C20.0728 17.2601 19.4606 17.0985 19.1827 16.6212L19.1316 16.5335C18.8537 16.0562 19.0153 15.444 19.4926 15.1661C19.9699 14.8882 20.5821 15.0498 20.86 15.5271L20.9111 15.6148ZM18.7143 11.842C18.9922 12.3193 18.8306 12.9315 18.3533 13.2094C17.876 13.4873 17.2638 13.3257 16.9859 12.8484L16.9348 12.7607C16.6569 12.2834 16.8186 11.6712 17.2958 11.3933C17.7731 11.1154 18.3853 11.277 18.6632 11.7543L18.7143 11.842Z" fill="black"/>
</svg>
