<svg width="28" height="28" viewBox="0 0 28 28" fill="none" xmlns="http://www.w3.org/2000/svg">
<path fill-rule="evenodd" clip-rule="evenodd" d="M24.2,23.2L21,17.5c0,0,0,0,0,0c0.4-0.4,0.8-0.9,1.1-1.4c0,0,0,0,0,0c0.2-0.2,0.3-0.5,0.4-0.8c0,0,0-0.1,0-0.1
	c0.1-0.2,0.2-0.5,0.3-0.7c0-0.1,0-0.1,0.1-0.2c0.1-0.2,0.2-0.5,0.2-0.7c0-0.1,0.1-0.2,0.1-0.3c0.1-0.2,0.1-0.4,0.1-0.6
	c0-0.2,0.1-0.3,0.1-0.5c0-0.2,0.1-0.3,0.1-0.5c0-0.3,0-0.6,0-1c0-5.4-4.4-9.8-9.8-9.8S4,5.4,4,10.8s4.4,9.8,9.8,9.8
	c0.4,0,0.8,0,1.2-0.1h0l3.4,5.9c0.1,0.2,0.4,0.4,0.6,0.5c0.1,0,0.2,0,0.3,0c0.2,0,0.3,0,0.5-0.1l4-2.3
	C24.4,24.3,24.5,23.6,24.2,23.2z M16.4,13l-0.7-0.2c-0.6-0.2-1-0.6-1.2-1.1c-0.2-0.6,0-1.1,0.4-1.6l0.5-0.6c0.5-0.6,0.5-1.5-0.1-2
	c-0.7-0.6-1.8-0.6-2.5,0c-0.6,0.6-0.6,1.4-0.1,2l0.5,0.6c0.4,0.4,0.5,1,0.4,1.6c-0.2,0.6-0.6,1-1.2,1.1L11.6,13
	C10.1,13.4,9,14.7,9,16.2V17c-0.7-0.6-1.3-1.3-1.8-2c0.5-1.8,1.9-3.3,3.9-3.8l0.2-0.1l-0.2-0.2C9.9,9.4,10,7.3,11.4,6
	c1.4-1.4,3.8-1.4,5.3,0c1.4,1.3,1.5,3.4,0.2,4.8L16.7,11l0.2,0.1c1.8,0.5,3.2,1.8,3.8,3.4c-0.4,0.8-1,1.5-1.7,2.2v-0.5
	C19,14.7,17.9,13.4,16.4,13z M19.7,24.6l-2.6-4.5c0.1,0,0.1,0,0.2-0.1c0.3-0.1,0.6-0.3,1-0.4c0,0,0,0,0,0c0.1,0,0.1-0.1,0.2-0.1
	c0,0,0,0,0,0c0.4-0.2,0.7-0.4,1.1-0.7c0,0,0,0,0,0l2.5,4.4L19.7,24.6z" fill="black"/>
  </svg>
