<svg width="21" height="27" viewBox="0 0 21 27" fill="none" xmlns="http://www.w3.org/2000/svg">
<path fill-rule="evenodd" clip-rule="evenodd" d="M9.85445 0.568359C4.42435 0.568359 0.0234375 4.97037 0.0234375 10.3994C0.0234375 15.8284 4.42538 20.2304 9.85445 20.2304C10.2681 20.2304 10.6758 20.2048 11.076 20.1552L14.489 26.0684C14.6216 26.2981 14.84 26.4657 15.0962 26.5344C15.3524 26.6031 15.6254 26.5671 15.8551 26.4345L19.8967 24.1007C20.3749 23.8246 20.5388 23.2133 20.2628 22.735L17.0258 17.1241C18.6753 15.3657 19.6855 13.0004 19.6855 10.3994C19.6855 4.97037 15.2846 0.568359 9.85445 0.568359ZM13.1101 19.6785C13.962 19.3797 14.7602 18.9668 15.4865 18.4583L18.0309 22.8686L15.7212 24.2023L13.1101 19.6785ZM15.0235 16.2822C15.7212 15.6687 16.3089 14.9329 16.7531 14.1085C16.1813 12.4449 14.7516 11.141 12.9385 10.6712L12.7145 10.6131L12.8776 10.4302C14.1508 9.00436 14.0421 6.89112 12.6468 5.58846C11.9087 4.89942 10.9515 4.5663 10.0117 4.56837C9.07198 4.5663 8.11477 4.89942 7.37663 5.58846C5.98133 6.89112 5.87268 9.00436 7.14581 10.4302L7.30899 10.6131L7.08492 10.6712C5.14331 11.1743 3.64145 12.6339 3.16188 14.4674C3.64738 15.2644 4.27121 15.9678 5 16.5443V15.7297C5 14.3207 6.01444 13.0146 7.58694 12.6072L8.30669 12.4204C9.46933 12.1197 10.057 10.6883 9.16903 9.6936L8.63754 9.09804C8.09626 8.49194 8.13234 7.61911 8.74148 7.05037C9.07935 6.735 9.53495 6.56739 10.0069 6.56836L10.0069 6.56841L10.0117 6.56838L10.0165 6.56841V6.56836C10.4885 6.56739 10.9441 6.735 11.282 7.05037C11.8911 7.61911 11.9272 8.49194 11.3859 9.09804L10.8544 9.6936C9.96648 10.6883 10.5541 12.1197 11.7168 12.4204L12.4365 12.6072C14.009 13.0146 15.0235 14.3207 15.0235 15.7297V16.2822Z" fill="black"/>
</svg>
