<svg width="25" height="25" viewBox="0 0 25 25" fill="none" xmlns="http://www.w3.org/2000/svg">
<path fill-rule="evenodd" clip-rule="evenodd" d="M1.06982 0.223022H23.6577C24.21 0.223022 24.6577 0.670738 24.6577 1.22302V23.8109C24.6577 24.3632 24.21 24.8109 23.6577 24.8109H1.06982C0.51754 24.8109 0.0698242 24.3632 0.0698242 23.8109V1.22302C0.0698242 0.670738 0.517539 0.223022 1.06982 0.223022ZM7.62992 13.517C7.07765 13.514 6.63236 13.0638 6.63534 12.5116C6.63833 11.9593 7.08846 11.514 7.64073 11.517L17.466 11.5701C18.0183 11.5731 18.4636 12.0232 18.4606 12.5755C18.4576 13.1278 18.0075 13.5731 17.4552 13.5701L7.62992 13.517Z" fill="black"/>
</svg>
