<svg width="26" height="27" viewBox="0 0 26 27" fill="none" xmlns="http://www.w3.org/2000/svg">
<path fill-rule="evenodd" clip-rule="evenodd" d="M13 26.8633C20.1797 26.8633 26 21.043 26 13.8633C26 6.68358 20.1797 0.863281 13 0.863281C5.8203 0.863281 0 6.68358 0 13.8633C0 21.043 5.8203 26.8633 13 26.8633ZM13.0206 20.5364C12.4683 20.5372 12.02 20.09 12.0193 19.5378L12.0098 12.4075C12.009 11.8553 12.4561 11.407 13.0084 11.4062C13.5607 11.4055 14.009 11.8526 14.0098 12.4049L14.0193 19.5351C14.02 20.0874 13.5729 20.5357 13.0206 20.5364ZM12.3109 8.72521C12.7014 9.11573 13.3346 9.11573 13.7251 8.72521C14.1156 8.33468 14.1156 7.70152 13.7251 7.31099L13.707 7.29286C13.3164 6.90233 12.6833 6.90233 12.2928 7.29286C11.9022 7.68338 11.9022 8.31655 12.2928 8.70707L12.3109 8.72521Z" fill="black"/>
</svg>
