<svg width="27" height="27" viewBox="0 0 27 27" fill="none" xmlns="http://www.w3.org/2000/svg">
<path fill-rule="evenodd" clip-rule="evenodd" d="M13.9883 0.675781C6.80858 0.675781 0.988281 6.49608 0.988281 13.6758C0.988281 20.8555 6.80858 26.6758 13.9883 26.6758C21.168 26.6758 26.9883 20.8555 26.9883 13.6758C26.9883 6.49608 21.168 0.675781 13.9883 0.675781ZM14.0089 20.2124C13.4566 20.2131 13.0083 19.766 13.0075 19.2137L12.998 12.0835C12.9973 11.5312 13.4444 11.0829 13.9967 11.0822C14.549 11.0815 14.9973 11.5286 14.998 12.0809L15.0075 19.2111C15.0083 19.7634 14.5611 20.2117 14.0089 20.2124ZM13.2992 8.40118C13.6897 8.7917 14.3228 8.7917 14.7134 8.40118C15.1039 8.01065 15.1039 7.37749 14.7134 6.98696L14.6952 6.96883C14.3047 6.5783 13.6715 6.5783 13.281 6.96883C12.8905 7.35935 12.8905 7.99251 13.281 8.38304L13.2992 8.40118Z" fill="black"/>
</svg>
