<svg width="26" height="27" viewBox="0 0 26 27" fill="none" xmlns="http://www.w3.org/2000/svg">
<path fill-rule="evenodd" clip-rule="evenodd" d="M14 8.73726C15.7252 8.29322 17 6.72712 17 4.86328C17 2.65414 15.2091 0.863281 13 0.863281C10.7909 0.863281 9 2.65414 9 4.86328C9 6.72712 10.2748 8.29322 12 8.73726V10.8633H4C3.73478 10.8633 3.48043 10.9686 3.29289 11.1562C3.10536 11.3437 3 11.5981 3 11.8633V15.9323V15.9893C1.27477 16.4333 0 17.9994 0 19.8633C0 22.0724 1.79086 23.8633 4 23.8633C6.20914 23.8633 8 22.0724 8 19.8633C8 17.9994 6.72523 16.4333 5 15.9893V15.9323V12.8633H12V18.9893C10.2748 19.4333 9 20.9994 9 22.8633C9 25.0724 10.7909 26.8633 13 26.8633C15.2091 26.8633 17 25.0724 17 22.8633C17 20.9994 15.7252 19.4333 14 18.9893V12.8633H21V15.9323C21 15.9513 21.0005 15.9702 21.0016 15.9889C19.2755 16.4324 18 17.9989 18 19.8633C18 22.0724 19.7909 23.8633 22 23.8633C24.2091 23.8633 26 22.0724 26 19.8633C26 17.9989 24.7245 16.4324 22.9984 15.9889C22.9995 15.9702 23 15.9513 23 15.9323V11.8633C23 11.311 22.5523 10.8633 22 10.8633H14V8.73726Z" fill="black"/>
</svg>
