<svg width="26" height="26" viewBox="0 0 26 26" fill="none" xmlns="http://www.w3.org/2000/svg">
<path fill-rule="evenodd" clip-rule="evenodd" d="M16.3414 8.05542C16.3414 12.3662 12.8468 15.8608 8.53596 15.8608C4.22515 15.8608 0.730548 12.3662 0.730548 8.05542C0.730548 3.7446 4.22515 0.25 8.53596 0.25C12.8468 0.25 16.3414 3.7446 16.3414 8.05542ZM9.61969 4.58645C9.61969 4.03416 9.17197 3.58645 8.61969 3.58645C8.0674 3.58645 7.61969 4.03416 7.61969 4.58645V4.68852C7.49709 4.71673 7.37667 4.75483 7.25965 4.8026C6.9734 4.91942 6.71311 5.09173 6.49374 5.30958C6.27438 5.52743 6.10028 5.78653 5.98147 6.07196C5.86267 6.35738 5.80151 6.66349 5.80152 6.97266H5.80149L5.80154 6.97953C5.80582 7.6008 6.05563 8.19516 6.49646 8.63295C6.93729 9.07074 7.53336 9.31643 8.15463 9.31642H8.15466H9.08781H9.08784C9.18107 9.31642 9.27051 9.35328 9.33667 9.41898C9.40282 9.48468 9.44031 9.57387 9.44095 9.6671C9.44103 9.67873 9.44131 9.69036 9.4418 9.70198C9.44382 9.75041 9.43586 9.79873 9.41841 9.84393C9.40096 9.88912 9.37439 9.93025 9.34034 9.96476C9.30629 9.99926 9.26552 10.0264 9.22056 10.0444C9.1756 10.0625 9.12739 10.0711 9.07895 10.0697L9.06642 10.0694L9.05049 10.0693H7.09081C6.53852 10.0693 6.09081 10.517 6.09081 11.0693C6.09081 11.6216 6.53852 12.0693 7.09081 12.0693H7.61969V12.1271C7.61969 12.6794 8.0674 13.1271 8.61969 13.1271C9.17197 13.1271 9.61969 12.6794 9.61969 12.1271V12.0092C9.73738 11.982 9.85309 11.9457 9.96575 11.9004C10.2654 11.7801 10.5371 11.5994 10.7639 11.3695C10.9908 11.1397 11.1678 10.8656 11.2842 10.5643C11.3984 10.2685 11.4516 9.95266 11.4407 9.63587C11.4319 9.02092 11.1827 8.43357 10.746 7.99988C10.3052 7.5621 9.70909 7.31641 9.08781 7.31642H9.08779H8.15463H8.15461C8.06138 7.31642 7.97192 7.27955 7.90577 7.21386C7.84044 7.14897 7.80307 7.06117 7.80153 6.96919C7.80197 6.92502 7.81092 6.88132 7.82791 6.8405C7.84534 6.79864 7.87087 6.76063 7.90305 6.72867C7.93523 6.69672 7.97341 6.67144 8.01539 6.65431C8.05738 6.63718 8.10234 6.62852 8.14769 6.62883L8.14769 6.62886H8.15463H9.96501C10.5173 6.62886 10.965 6.18114 10.965 5.62886C10.965 5.07657 10.5173 4.62886 9.96501 4.62886H9.61969V4.58645ZM23.0548 12.1355L23.0638 14.87C23.0661 15.5604 23.6276 16.1182 24.3179 16.1159C25.0083 16.1136 25.5661 15.5522 25.5638 14.8618L25.5464 9.56461C25.5441 8.87426 24.9826 8.31646 24.2923 8.31873L18.9861 8.33612C18.2957 8.33839 17.7379 8.89986 17.7402 9.59021C17.7424 10.2806 18.3039 10.8384 18.9943 10.8361L21.5326 10.8278L14.2371 18.0246H8.60129C8.17904 18.0246 7.76762 18.1582 7.42597 18.4064L0.771783 23.2394C0.324926 23.5639 0.225783 24.1893 0.55034 24.6361C0.874898 25.083 1.50025 25.1821 1.94711 24.8576L8.60129 20.0246H14.2371C14.7628 20.0246 15.2673 19.8176 15.6416 19.4484L23.0548 12.1355Z" fill="black"/>
</svg>
