<svg width="26" height="17" viewBox="0 0 26 17" fill="none" xmlns="http://www.w3.org/2000/svg">
<path fill-rule="evenodd" clip-rule="evenodd" d="M14.1031 1.80056C15.7842 0.306381 18.3582 0.45791 19.8524 2.13901C20.7477 3.14634 21.0522 4.47431 20.7907 5.69844C20.8838 5.76802 20.9663 5.85514 21.0329 5.95867L25.6949 13.2047C25.9937 13.6692 25.8595 14.288 25.395 14.5868L22.4939 16.4533C22.2709 16.5968 22 16.6458 21.7408 16.5895C21.4816 16.5333 21.2554 16.3764 21.1119 16.1534L16.5358 9.04081C16.5069 8.99586 16.4821 8.94947 16.4612 8.90206C16.0577 8.86759 15.6591 8.77329 15.2797 8.62001C15.2033 8.71517 15.108 8.79784 14.9956 8.862L12.268 10.4185C12.325 11.0826 12.2738 11.7683 12.0953 12.4496C11.2529 15.6655 7.96396 17.5892 4.74806 16.7468C3.79192 16.4964 2.95051 16.0231 2.26392 15.4151C2.02408 15.2027 1.90052 14.8883 1.93158 14.5695C1.96264 14.2506 2.14457 13.966 2.42088 13.8039L5.53555 11.9768L4.83237 10.7745L1.8131 12.5458C1.52695 12.7136 1.17616 12.7287 0.876701 12.5859C0.577238 12.4431 0.368087 12.1611 0.318382 11.8331C0.199884 11.0511 0.225439 10.2268 0.442687 9.39742C1.28504 6.18152 4.57402 4.2579 7.78993 5.10025C8.38961 5.25733 8.94755 5.5011 9.45083 5.81758L12.5116 4.10474C12.6123 4.04843 12.7184 4.01138 12.8259 3.99239C13.0006 3.17291 13.4288 2.39987 14.1031 1.80056ZM18.5755 8.51472L22.2528 14.2302L23.4719 13.4459L19.7501 7.66112C19.6751 7.7393 19.5963 7.81512 19.514 7.88835C19.2243 8.1458 18.9081 8.35439 18.5755 8.51472ZM13.6016 7.35476C13.3109 6.98412 13.0942 6.57663 12.9503 6.15113L9.8753 7.8719C9.51827 8.0717 9.07554 8.03385 8.7576 7.77635C8.34012 7.43824 7.84267 7.18154 7.28315 7.03499C5.13903 6.47336 2.94655 7.75292 2.37999 9.89444L4.68403 8.54275C4.91299 8.40843 5.18596 8.37066 5.44278 8.43775C5.69961 8.50484 5.91923 8.67129 6.05324 8.90042L7.76615 11.8291C8.04472 12.3054 7.88486 12.9173 7.40893 13.1965L4.86561 14.6885C4.99209 14.7359 5.12192 14.7773 5.25483 14.8121C7.40221 15.3745 9.59809 14.0902 10.1606 11.9429C10.3233 11.3216 10.3278 10.6917 10.202 10.0937C10.1125 9.66867 10.3076 9.23448 10.6849 9.0192L13.6016 7.35476Z" fill="black"/>
</svg>
