<svg width="24" height="26" viewBox="0 0 24 26" fill="none" xmlns="http://www.w3.org/2000/svg">
<path fill-rule="evenodd" clip-rule="evenodd" d="M9.62279 3.78913C9.62279 1.69645 11.3192 0 13.4119 0C15.5046 0 17.201 1.69645 17.201 3.78913C17.201 5.53644 16.0183 7.00751 14.4098 7.44549C14.4108 7.46353 14.4113 7.48171 14.4113 7.5V10.4271C16.0191 10.8656 17.201 12.3363 17.201 14.0831C17.201 14.9357 16.9194 15.7226 16.4441 16.3557L18.2889 18.7173C18.7408 18.527 19.2372 18.4219 19.7582 18.4219C21.8509 18.4219 23.5473 20.1183 23.5473 22.211C23.5473 24.3037 21.8509 26.0001 19.7582 26.0001C17.6655 26.0001 15.9691 24.3037 15.9691 22.211C15.9691 21.3645 16.2466 20.5829 16.7157 19.9521L14.8653 17.5835C14.4177 17.7695 13.9268 17.8722 13.4119 17.8722C12.135 17.8722 11.0056 17.2405 10.3191 16.2726L7.56179 17.3041C7.57269 17.4212 7.57826 17.5398 7.57826 17.6597C7.57826 19.7524 5.88181 21.4489 3.78913 21.4489C1.69645 21.4489 0 19.7524 0 17.6597C0 15.5671 1.69645 13.8706 3.78913 13.8706C5.04967 13.8706 6.16644 14.4861 6.85528 15.433L9.63529 14.3931C9.62701 14.2908 9.62279 14.1875 9.62279 14.0831C9.62279 12.3368 10.8041 10.8664 12.4113 10.4275V7.5C12.4113 7.48159 12.4118 7.4633 12.4127 7.44514C10.8049 7.00673 9.62279 5.53598 9.62279 3.78913Z" fill="black"/>
</svg>
