<svg width="25" height="11" viewBox="0 0 25 11" fill="none" xmlns="http://www.w3.org/2000/svg">
<path fill-rule="evenodd" clip-rule="evenodd" d="M3.36743 3.07229C3.62225 2.83826 3.92072 2.65673 4.24579 2.53809C4.57086 2.41945 4.9162 2.366 5.26209 2.38084C5.60799 2.39568 5.94766 2.47851 6.26172 2.62464C6.57394 2.76991 6.85473 2.97491 7.08826 3.22805C7.55194 3.74794 7.79131 4.43001 7.75412 5.12535C7.71683 5.82269 7.40446 6.47638 6.88573 6.94311L6.88569 6.94307L6.87818 6.94997C6.62335 7.18401 6.32489 7.36553 5.99981 7.48418C5.67474 7.60282 5.3294 7.65626 4.98351 7.64143C4.63762 7.62659 4.29794 7.54376 3.98388 7.39763C3.67161 7.25233 3.39076 7.04728 3.15721 6.79407C2.69325 6.27436 2.4537 5.59227 2.49089 4.89689C2.52818 4.19957 2.84069 3.54594 3.35958 3.07942L3.35962 3.07946L3.36743 3.07229ZM3.56009 0.659312C2.98981 0.867446 2.46604 1.18559 2.01849 1.59568C1.10751 2.41658 0.559243 3.56528 0.493742 4.79008C0.428149 6.01662 0.852042 7.21917 1.67214 8.13371L1.67209 8.13376L1.68007 8.14245C2.09194 8.59098 2.58807 8.95406 3.14015 9.21094C3.69223 9.46783 4.28948 9.6135 4.8978 9.63959C5.50611 9.66568 6.11359 9.57169 6.68552 9.36296C7.25586 9.15479 7.77971 8.83659 8.22729 8.42643C8.99833 7.73113 9.50937 6.801 9.68762 5.78875L15.1842 5.78449L15.1872 9.63326C15.1876 10.1851 15.635 10.6323 16.1869 10.6325L21.2288 10.6339C21.4942 10.6339 21.7488 10.5285 21.9364 10.3407C22.1241 10.1529 22.2293 9.89824 22.229 9.63279L22.2249 5.77903L24.0008 5.77765C24.5531 5.77722 25.0004 5.32916 25 4.77687C24.9996 4.22459 24.5515 3.77722 23.9992 3.77765L9.60109 3.78881C9.41459 3.08992 9.06543 2.43761 8.57372 1.88885L8.57378 1.8888L8.56553 1.87982C8.15367 1.43128 7.65754 1.06821 7.10545 0.811323C6.55337 0.55444 5.95613 0.408772 5.34781 0.382677C4.73949 0.356583 4.13202 0.450573 3.56009 0.659312Z" fill="black"/>
</svg>
