<svg width="26" height="26" viewBox="0 0 26 26" fill="none" xmlns="http://www.w3.org/2000/svg">
<path fill-rule="evenodd" clip-rule="evenodd" d="M2 13C2 12.0711 2.11513 11.1691 2.3319 10.3075H5.95178C5.73859 11.2176 5.63037 12.1336 5.63037 13.0554C5.63037 13.9413 5.73032 14.8202 5.92731 15.6921H2.33182C2.1151 14.8306 2 13.9288 2 13ZM7.63037 13.0554C7.63037 12.1503 7.75759 11.2344 8.01763 10.3075H12.083V15.6921H7.98893C7.74821 14.8053 7.63037 13.9264 7.63037 13.0554ZM12.083 17.6921H8.7359C9.46944 19.2357 10.5766 20.8027 12.083 22.3934V17.6921ZM14.083 22.3829V17.6921H17.4052C16.6686 19.2265 15.5693 20.79 14.083 22.3829ZM14.083 15.6921V10.3075H18.1949C18.4357 11.1945 18.5536 12.0735 18.5536 12.9446C18.5536 13.8496 18.4264 14.7654 18.1664 15.6921H14.083ZM14.083 8.30754H17.4479C16.7114 6.75796 15.5984 5.18475 14.083 3.58764V8.30754ZM12.083 3.63637C10.6059 5.2225 9.51251 6.77943 8.77893 8.30754H12.083V3.63637ZM3.04807 17.6921H6.55302C7.37561 19.7476 8.73847 21.763 10.6023 23.7379C7.25327 22.9934 4.47916 20.7221 3.04807 17.6921ZM6.59181 8.30754C7.4234 6.2591 8.78472 4.24115 10.6376 2.25428C7.27289 2.99061 4.48438 5.26707 3.04822 8.30754H6.59181ZM15.5965 23.6918C17.4239 21.7222 18.7682 19.7222 19.5923 17.6921H22.9519C21.5493 20.662 18.8564 22.9029 15.5965 23.6918ZM20.2322 15.6921C20.4454 14.7821 20.5536 13.8663 20.5536 12.9446C20.5536 12.0586 20.4536 11.1796 20.2566 10.3075H23.6681C23.8849 11.1691 24 12.0711 24 13C24 13.9288 23.8849 14.8306 23.6682 15.6921H20.2322ZM19.6308 8.30754H22.9518C21.5544 5.34914 18.8767 3.11407 15.6336 2.31726C17.4707 4.27447 18.8159 6.27137 19.6308 8.30754ZM13 0C5.8203 0 0 5.8203 0 13C0 20.1797 5.8203 26 13 26C20.1797 26 26 20.1797 26 13C26 5.8203 20.1797 0 13 0Z" fill="black"/>
</svg>
