<svg width="24" height="18" viewBox="0 0 24 18" fill="none" xmlns="http://www.w3.org/2000/svg">
<path fill-rule="evenodd" clip-rule="evenodd" d="M22.9356 7.77655C23.6683 7.41106 23.6752 6.36799 22.9474 5.99282L12.0218 0.361136C11.7384 0.215096 11.4025 0.21287 11.1172 0.355143L0.663021 5.56969C-0.0697203 5.93518 -0.0766288 6.97825 0.651206 7.35342L3.7946 8.9737L0.980724 10.3773C0.643602 10.5454 0.429595 10.8888 0.4271 11.2655C0.424604 11.6422 0.634043 11.9884 0.968907 12.161L11.5295 17.6045C11.8129 17.7506 12.1488 17.7528 12.4341 17.6105L22.6274 12.5261C22.9645 12.3579 23.1785 12.0146 23.181 11.6378C23.1835 11.2611 22.9741 10.915 22.6392 10.7423L19.8609 9.31022L22.9356 7.77655ZM17.6424 10.4168L12.4814 12.9911C12.1961 13.1334 11.8602 13.1311 11.5769 12.9851L5.99819 10.1095L3.63809 11.2868L11.9951 15.5944L19.9701 11.6166L17.6424 10.4168Z" fill="black"/>
</svg>
