<svg width="19" height="26" viewBox="0 0 19 26" fill="none" xmlns="http://www.w3.org/2000/svg">
<path fill-rule="evenodd" clip-rule="evenodd" d="M8.29442 0.292885C8.68485 -0.0975424 9.31783 -0.0976409 9.70839 0.292665L17.7101 8.28924C17.8978 8.47675 18.0032 8.73113 18.0032 8.99639C18.0033 9.26166 17.8979 9.51608 17.7104 9.70366L14.4162 12.998L17.7153 16.2991C17.9028 16.4868 18.0081 16.7413 18.008 17.0066C18.0078 17.2719 17.9023 17.5262 17.7145 17.7137L9.70762 25.7078C9.31701 26.0978 8.68428 26.0975 8.29398 25.7072L0.292893 17.7062C-0.0976294 17.3156 -0.0976313 16.6825 0.292889 16.2919L3.58657 12.9982L0.29494 9.70633C-0.0955607 9.3158 -0.0955445 8.68265 0.294977 8.29214L8.29442 0.292885ZM5.00073 14.4125L2.41421 16.999L9.00165 23.5865L15.5934 17.0052L13.0021 14.4122L9.70837 17.7061C9.52083 17.8937 9.26647 17.9991 9.00124 17.9991C8.73601 17.9991 8.48165 17.8937 8.29411 17.7061L5.00073 14.4125Z" fill="black"/>
</svg>
