<svg width="27" height="27" viewBox="0 0 27 27" fill="none" xmlns="http://www.w3.org/2000/svg">
<path fill-rule="evenodd" clip-rule="evenodd" d="M0.970703 13.6758C0.970703 6.49608 6.791 0.675781 13.9707 0.675781C21.1504 0.675781 26.9707 6.49608 26.9707 13.6758C26.9707 20.8555 21.1504 26.6758 13.9707 26.6758C6.791 26.6758 0.970703 20.8555 0.970703 13.6758ZM13.7468 17.3796C14.299 17.3796 14.7468 16.9319 14.7468 16.3796V15.094C16.3469 14.6557 17.5228 13.1911 17.5228 11.4518C17.5228 9.36637 15.8322 7.67578 13.7468 7.67578C11.6613 7.67578 9.9707 9.36637 9.9707 11.4518C9.9707 12.0041 10.4184 12.4518 10.9707 12.4518C11.523 12.4518 11.9707 12.0041 11.9707 11.4518C11.9707 10.4709 12.7659 9.67578 13.7468 9.67578C14.7276 9.67578 15.5228 10.4709 15.5228 11.4518C15.5228 12.4327 14.7276 13.2279 13.7468 13.2279C13.1945 13.2279 12.7468 13.6756 12.7468 14.2279V16.3796C12.7468 16.9319 13.1945 17.3796 13.7468 17.3796ZM13.7468 20.676C14.2991 20.676 14.7468 20.2283 14.7468 19.676V19.6566C14.7468 19.1043 14.2991 18.6566 13.7468 18.6566C13.1945 18.6566 12.7468 19.1043 12.7468 19.6566V19.676C12.7468 20.2283 13.1945 20.676 13.7468 20.676Z" fill="black"/>
</svg>
