<svg width="29" height="29" viewBox="0 0 29 29" fill="none" xmlns="http://www.w3.org/2000/svg">
<path fill-rule="evenodd" clip-rule="evenodd" d="M4.75768 23.3609C4.36768 23.2144 4.10938 22.8414 4.10938 22.4248V19.9238C3.89321 20.0442 3.6441 20.1128 3.37891 20.1128C2.55048 20.1128 1.87891 19.4432 1.87891 18.6173C1.87891 17.7913 2.55048 17.1218 3.37891 17.1218C3.6441 17.1218 3.89321 17.1904 4.10938 17.3108V12.6454C4.10938 11.9606 4.78228 11.4784 5.43081 11.6985L14.7879 14.8748C14.9964 14.9455 15.2224 14.9455 15.4308 14.8748L24.7879 11.6985C25.4365 11.4784 26.1094 11.9606 26.1094 12.6454V17.1459C26.1968 17.13 26.2869 17.1218 26.3789 17.1218C27.2073 17.1218 27.8789 17.7913 27.8789 18.6173C27.8789 19.4432 27.2073 20.1128 26.3789 20.1128C26.2869 20.1128 26.1968 20.1045 26.1094 20.0887V22.4259C26.1094 22.8425 25.851 23.2155 25.461 23.362L15.461 27.1179C15.2343 27.203 14.9844 27.203 14.7577 27.1178L4.75768 23.3609Z" fill="black"/>
<path d="M11.6949 11.705L10.5209 12.0311C9.27894 12.376 8.19094 13.0271 7.31494 13.8825L14.8779 16.3461L22.4389 13.8835C21.5629 13.0271 20.4729 12.375 19.2309 12.0311L18.0549 11.705C17.2199 11.4737 16.9019 10.4598 17.4559 9.79478L18.3239 8.75391C19.8059 6.97724 19.6869 4.36807 18.0499 2.73298C16.2969 0.982236 13.4519 0.982236 11.6979 2.73298C10.0609 4.36807 9.94194 6.97824 11.4239 8.75391L12.2919 9.79478C12.8469 10.4598 12.5289 11.4727 11.6929 11.705H11.6949Z" stroke="black" stroke-width="2" stroke-linecap="round" stroke-linejoin="round"/>
</svg>
