<svg width="27" height="24" viewBox="0 0 27 24" fill="none" xmlns="http://www.w3.org/2000/svg">
<path fill-rule="evenodd" clip-rule="evenodd" d="M14.9883 1.12842C14.9883 0.576133 14.5406 0.128418 13.9883 0.128418C13.4361 0.128418 12.9883 0.576133 12.9883 1.12842V4.12842C12.9883 4.6807 13.4361 5.12842 13.9883 5.12842C14.5406 5.12842 14.9883 4.6807 14.9883 4.12842V1.12842ZM7.98842 13.1308C7.98842 9.81621 10.6743 7.12844 13.9884 7.12844C17.3026 7.12844 19.9884 9.81621 19.9884 13.1308C19.9884 15.3537 18.7806 17.2928 16.9884 18.3299L16.9883 22.7169C16.9883 23.2692 16.5406 23.7169 15.9883 23.7169H11.9883C11.7231 23.7169 11.4687 23.6115 11.2812 23.424C11.0936 23.2364 10.9883 22.9821 10.9883 22.7168L10.9884 18.3298C9.19621 17.2927 7.98842 15.3537 7.98842 13.1308ZM5.98834 13.1284C5.98834 13.6807 5.54063 14.1284 4.98834 14.1284H1.98834C1.43606 14.1284 0.988342 13.6807 0.988342 13.1284C0.988342 12.5761 1.43606 12.1284 1.98834 12.1284H4.98834C5.54063 12.1284 5.98834 12.5761 5.98834 13.1284ZM25.9883 14.1284C26.5406 14.1284 26.9883 13.6807 26.9883 13.1284C26.9883 12.5761 26.5406 12.1284 25.9883 12.1284H22.9883C22.4361 12.1284 21.9883 12.5761 21.9883 13.1284C21.9883 13.6807 22.4361 14.1284 22.9883 14.1284H25.9883ZM23.1808 3.93612C23.5713 4.32664 23.5713 4.95981 23.1808 5.35033L21.0594 7.47165C20.6689 7.86217 20.0358 7.86217 19.6452 7.47165C19.2547 7.08113 19.2547 6.44796 19.6452 6.05744L21.7665 3.93612C22.1571 3.54559 22.7902 3.54559 23.1808 3.93612ZM6.91702 7.47154C7.30754 7.86206 7.94071 7.86206 8.33123 7.47154C8.72176 7.08102 8.72176 6.44785 8.33123 6.05733L6.20991 3.93601C5.81939 3.54548 5.18622 3.54548 4.7957 3.93601C4.40517 4.32653 4.40517 4.9597 4.7957 5.35022L6.91702 7.47154Z" fill="black"/>
</svg>
