<svg width="26" height="26" viewBox="0 0 26 26" fill="none" xmlns="http://www.w3.org/2000/svg">
<path fill-rule="evenodd" clip-rule="evenodd" d="M3.85185 9.14815C3.85185 11.9549 5.11584 14.4664 7.10563 16.1445L5.37872 18.6108C4.91056 18.4084 4.3943 18.2963 3.85185 18.2963C1.72453 18.2963 0 20.0208 0 22.1481C0 24.2755 1.72453 26 3.85185 26C5.97917 26 7.7037 24.2755 7.7037 22.1481C7.7037 21.2897 7.42287 20.4968 6.94807 19.8564L8.76626 17.2598C10.0322 17.9219 11.4724 18.2963 13 18.2963C14.5799 18.2963 16.0662 17.8958 17.363 17.1908L19.1268 19.7587C18.6068 20.4154 18.2963 21.2455 18.2963 22.1481C18.2963 24.2755 20.0208 26 22.1481 26C24.2755 26 26 24.2755 26 22.1481C26 20.0208 24.2755 18.2963 22.1481 18.2963C21.6485 18.2963 21.171 18.3914 20.7329 18.5646L19.0053 16.0494C20.931 14.3723 22.1481 11.9023 22.1481 9.14815C22.1481 4.09577 18.0524 0 13 0C7.94762 0 3.85185 4.09577 3.85185 9.14815ZM14.4286 6.3841C14.6514 6.51151 14.8622 6.6709 15.0548 6.86343C15.2482 7.05684 15.4082 7.26875 15.5359 7.49271C15.8778 8.09243 16.6412 8.30139 17.2409 7.95944C17.8406 7.6175 18.0496 6.85412 17.7076 6.25441C17.4705 5.83853 17.1751 5.44821 16.8225 5.09566C16.4716 4.74473 16.0832 4.4504 15.6695 4.21383C15.0702 3.87115 14.3066 4.07919 13.9639 4.6785C13.6212 5.2778 13.8293 6.04143 14.4286 6.3841ZM11.5744 6.33749C12.1847 6.01478 12.4178 5.25843 12.0951 4.64815C11.7724 4.03786 11.016 3.80474 10.4057 4.12745C9.93325 4.3773 9.4908 4.70053 9.09568 5.09566C8.69701 5.49433 8.37155 5.94115 8.12079 6.41839C7.79969 7.02952 8.03481 7.78525 8.64594 8.10635C9.25707 8.42746 10.0128 8.19234 10.3339 7.58121C10.4689 7.32434 10.6449 7.082 10.8634 6.86343C11.0801 6.64679 11.3201 6.47197 11.5744 6.33749ZM17.7403 11.6057C18.0748 11.0018 17.8565 10.2411 17.2527 9.90651C16.6488 9.57195 15.888 9.79026 15.5535 10.3941C15.4229 10.6297 15.2571 10.8524 15.0548 11.0548C14.8476 11.262 14.619 11.4309 14.3771 11.5628C13.7711 11.8934 13.5477 12.6527 13.8783 13.2587C14.2088 13.8648 14.9681 14.0881 15.5742 13.7576C16.0236 13.5125 16.4447 13.2003 16.8225 12.8225C17.1915 12.4536 17.4978 12.0433 17.7403 11.6057ZM10.385 13.7797C10.9939 14.1051 11.7512 13.8752 12.0766 13.2663C12.4019 12.6574 12.1721 11.9001 11.5632 11.5747C11.313 11.4411 11.0769 11.2682 10.8634 11.0548C10.6859 10.8772 10.5366 10.6842 10.4146 10.4806C10.0597 9.8885 9.29193 9.69622 8.69981 10.0512C8.10768 10.4061 7.9154 11.1738 8.27034 11.766C8.49678 12.1437 8.77221 12.4991 9.09568 12.8225C9.485 13.2118 9.92028 13.5314 10.385 13.7797Z" fill="black"/>
</svg>
