<svg width="28" height="24" viewBox="0 0 28 24" fill="none" xmlns="http://www.w3.org/2000/svg">
<path fill-rule="evenodd" clip-rule="evenodd" d="M19.1094 19.25C19.1094 21.4591 20.9002 23.25 23.1094 23.25C25.3185 23.25 27.1094 21.4591 27.1094 19.25C27.1094 17.0409 25.3185 15.25 23.1094 15.25C22.5613 15.25 22.039 15.3602 21.5634 15.5597L17.3611 9.77183C18.4368 8.76791 19.1094 7.3375 19.1094 5.75C19.1094 2.71243 16.6469 0.25 13.6094 0.249999C10.5718 0.249999 8.10937 2.71243 8.10937 5.75C8.10937 7.28932 8.74174 8.68095 9.76088 9.67926L5.716 15.5857C5.22429 15.3698 4.68082 15.25 4.10937 15.25C1.90024 15.25 0.109374 17.0409 0.109374 19.25C0.109374 21.4591 1.90024 23.25 4.10937 23.25C6.31851 23.25 8.10937 21.4591 8.10937 19.25C8.10937 18.3385 7.80446 17.4981 7.29106 16.8254L11.4196 10.7968C12.0906 11.0884 12.8311 11.25 13.6094 11.25C14.3389 11.25 15.0353 11.108 15.6723 10.85L19.9707 16.7701C19.4314 17.4518 19.1094 18.3133 19.1094 19.25Z" fill="black"/>
</svg>
