<svg width="27" height="24" viewBox="0 0 27 24" fill="none" xmlns="http://www.w3.org/2000/svg">
<path fill-rule="evenodd" clip-rule="evenodd" d="M14.2774 1.46277C14.2774 0.910484 13.8297 0.462769 13.2774 0.462769C12.7251 0.462769 12.2774 0.910484 12.2774 1.46277V4.44205C12.2774 4.99434 12.7251 5.44205 13.2774 5.44205C13.8297 5.44205 14.2774 4.99434 14.2774 4.44205V1.46277ZM8.03457 13.4702C8.03457 10.4744 10.4621 8.04579 13.4565 8.04579C16.4509 8.04579 18.8784 10.4744 18.8784 13.4702C18.8784 15.4615 17.806 17.2021 16.2075 18.1456C15.8652 18.3476 15.6253 18.7002 15.6253 19.0976L15.6253 22.8145C15.6253 23.3668 15.1776 23.8145 14.6253 23.8145H12.2877C11.7354 23.8145 11.2877 23.3668 11.2877 22.8145L11.2877 19.0976C11.2877 18.7002 11.0478 18.3476 10.7055 18.1456C9.10699 17.2021 8.03457 15.4615 8.03457 13.4702ZM5.33988 13.3799C5.33988 13.9322 4.89216 14.3799 4.33988 14.3799H1.3606C0.808311 14.3799 0.360596 13.9322 0.360596 13.3799C0.360596 12.8276 0.808311 12.3799 1.3606 12.3799H4.33988C4.89216 12.3799 5.33988 12.8276 5.33988 13.3799ZM25.1948 14.3799C25.7471 14.3799 26.1948 13.9322 26.1948 13.3799C26.1948 12.8276 25.7471 12.3799 25.1948 12.3799H22.2155C21.6632 12.3799 21.2155 12.8276 21.2155 13.3799C21.2155 13.9322 21.6632 14.3799 22.2155 14.3799H25.1948ZM22.4115 4.24633C22.802 4.63685 22.802 5.27002 22.4115 5.66054L20.3048 7.76721C19.9143 8.15774 19.2811 8.15774 18.8906 7.76721C18.5001 7.37669 18.5001 6.74353 18.8906 6.353L20.9973 4.24633C21.3878 3.85581 22.021 3.85581 22.4115 4.24633ZM6.25047 7.76692C6.641 8.15744 7.27416 8.15744 7.66469 7.76692C8.05521 7.3764 8.05521 6.74323 7.66469 6.35271L5.55802 4.24604C5.16749 3.85551 4.53433 3.85551 4.1438 4.24604C3.75328 4.63656 3.75328 5.26973 4.1438 5.66025L6.25047 7.76692Z" fill="black"/>
</svg>
