<svg width="26" height="24" viewBox="0 0 26 24" fill="none" xmlns="http://www.w3.org/2000/svg">
<path fill-rule="evenodd" clip-rule="evenodd" d="M1 0C0.447715 0 0 0.447715 0 1V5.51174C0 6.06402 0.447715 6.51174 1 6.51174H3V22.7961C3 23.3484 3.44772 23.7961 4 23.7961H22C22.5523 23.7961 23 23.3484 23 22.7961V6.51174H25C25.5523 6.51174 26 6.06402 26 5.51174V1C26 0.447715 25.5523 0 25 0H1ZM2 4.51174V2H24V4.51174H2ZM18.3477 18.8905C18.9 18.8923 19.3492 18.446 19.351 17.8938L19.3654 13.5104C19.3672 12.9581 18.921 12.509 18.3687 12.5071C17.8164 12.5053 17.3672 12.9516 17.3654 13.5039L17.3592 15.384L13.532 11.3317C13.3465 11.1353 13.0894 11.0223 12.8193 11.0184C12.5491 11.0146 12.2889 11.1202 12.0979 11.3112L11.0172 12.3919L7.79563 9.4247C7.3894 9.05055 6.75677 9.07655 6.38261 9.48279C6.00846 9.88902 6.03446 10.5217 6.4407 10.8958L10.3682 14.5132C10.7627 14.8765 11.3736 14.864 11.7528 14.4847L12.7845 13.453L16.0238 16.8828L13.9635 16.8761C13.4112 16.8743 12.962 17.3205 12.9602 17.8728C12.9584 18.4251 13.4046 18.8743 13.9569 18.8761L18.3477 18.8905Z" fill="black"/>
</svg>
