<svg width="26" height="25" viewBox="0 0 26 25" fill="none" xmlns="http://www.w3.org/2000/svg">
<path fill-rule="evenodd" clip-rule="evenodd" d="M1 0.215576C0.447715 0.215576 0 0.663291 0 1.21558V5.72731C0 6.2796 0.447715 6.72731 1 6.72731H3.04103C3.01433 6.81747 3 6.91293 3 7.01175V23.0117C3 23.564 3.44772 24.0117 4 24.0117H22C22.5523 24.0117 23 23.564 23 23.0117V7.01175C23 6.91293 22.9857 6.81747 22.959 6.72731H25C25.5523 6.72731 26 6.2796 26 5.72731V1.21558C26 0.663291 25.5523 0.215576 25 0.215576H1ZM2 4.72731V2.21558H24V4.72731H2ZM18.3477 19.1061C18.9 19.1079 19.3492 18.6617 19.351 18.1094L19.3654 13.726C19.3672 13.1738 18.921 12.7246 18.3687 12.7228C17.8164 12.7209 17.3672 13.1672 17.3654 13.7195L17.3592 15.5996L13.532 11.5473C13.3465 11.3509 13.0894 11.2379 12.8193 11.234C12.5491 11.2302 12.2889 11.3358 12.0979 11.5268L11.0172 12.6075L7.79563 9.64031C7.3894 9.26616 6.75677 9.29216 6.38261 9.69839C6.00846 10.1046 6.03446 10.7373 6.4407 11.1114L10.3682 14.7288C10.7627 15.0921 11.3736 15.0796 11.7528 14.7004L12.7845 13.6686L16.0238 17.0984L13.9635 17.0917C13.4112 17.0899 12.962 17.5361 12.9602 18.0884C12.9584 18.6407 13.4046 19.0899 13.9569 19.0917L18.3477 19.1061Z" fill="black"/>
</svg>
