<svg width="26" height="26" viewBox="0 0 26 26" fill="none" xmlns="http://www.w3.org/2000/svg">
<path fill-rule="evenodd" clip-rule="evenodd" d="M0 1C0 0.447715 0.447715 0 1 0H25C25.5523 0 26 0.447715 26 1V25C26 25.5523 25.5523 26 25 26H1C0.447715 26 0 25.5523 0 25V1ZM8.58548 6.87137C8.19495 7.26189 7.56179 7.26189 7.17127 6.87137L7.15007 6.85017C6.75955 6.45965 6.75955 5.82648 7.15007 5.43596C7.5406 5.04544 8.17376 5.04544 8.56428 5.43596L8.58548 5.45716C8.976 5.84768 8.976 6.48084 8.58548 6.87137ZM18.9888 20.1969C18.4365 20.1969 17.9888 19.7491 17.9888 19.1969V13.8652C17.9888 12.7606 17.0934 11.8652 15.9888 11.8652L14.6138 11.8652C13.9869 11.8652 13.4787 12.3734 13.4787 13.0003V19.1969C13.4787 19.7491 13.031 20.1969 12.4787 20.1969C11.9264 20.1969 11.4787 19.7491 11.4787 19.1969V9.88076C11.4787 9.32848 11.9264 8.88076 12.4787 8.88076C13.031 8.88076 13.4787 9.32848 13.4787 9.88076V10.077C13.8307 9.94021 14.2135 9.86517 14.6138 9.86517H15.9888C18.1979 9.86517 19.9888 11.656 19.9888 13.8652V19.1969C19.9888 19.7491 19.5411 20.1969 18.9888 20.1969ZM7.88055 20.1969C7.32826 20.1972 6.88029 19.7497 6.87997 19.1974L6.87454 9.88135C6.87422 9.32906 7.32168 8.88109 7.87396 8.88076C8.42625 8.88044 8.87422 9.3279 8.87454 9.88018L8.87997 19.1963C8.88029 19.7486 8.43283 20.1965 7.88055 20.1969Z" fill="black"/>
</svg>
