<svg width="26" height="29" viewBox="0 0 26 29" fill="none" xmlns="http://www.w3.org/2000/svg">
<path fill-rule="evenodd" clip-rule="evenodd" d="M12.3355 0.831299C8.46948 0.831299 5.33547 3.9653 5.33547 7.83129V7.8313L5.33546 9.49121H1.12793C0.575645 9.49121 0.12793 9.93893 0.12793 10.4912V27.4912C0.12793 28.0435 0.575646 28.4912 1.12793 28.4912H24.1279C24.6802 28.4912 25.1279 28.0435 25.1279 27.4912V10.4912C25.1279 9.93893 24.6802 9.49121 24.1279 9.49121H19.3355L19.3355 7.8313C19.3355 3.96531 16.2015 0.831299 12.3355 0.831299ZM17.3355 9.49121L17.3355 7.8313C17.3355 5.06988 15.0969 2.8313 12.3355 2.8313C9.57405 2.8313 7.33547 5.06988 7.33547 7.8313H6.33547L7.33547 7.83131L7.33546 9.49121H17.3355Z" fill="black"/>
</svg>
