<svg width="27" height="18" viewBox="0 0 27 18" fill="none" xmlns="http://www.w3.org/2000/svg">
<path fill-rule="evenodd" clip-rule="evenodd" d="M1.98242 0.669922C1.43014 0.669922 0.982422 1.11764 0.982422 1.66992C0.982422 2.22221 1.43014 2.66992 1.98242 2.66992H25.9824C26.5347 2.66992 26.9824 2.22221 26.9824 1.66992C26.9824 1.11764 26.5347 0.669922 25.9824 0.669922H1.98242ZM0.982422 8.96143C0.982422 8.40914 1.43014 7.96143 1.98242 7.96143H25.9824C26.5347 7.96143 26.9824 8.40914 26.9824 8.96143C26.9824 9.51371 26.5347 9.96143 25.9824 9.96143H1.98242C1.43014 9.96143 0.982422 9.51371 0.982422 8.96143ZM0.982422 16.2534C0.982422 15.7011 1.43014 15.2534 1.98242 15.2534H25.9824C26.5347 15.2534 26.9824 15.7011 26.9824 16.2534C26.9824 16.8057 26.5347 17.2534 25.9824 17.2534H1.98242C1.43014 17.2534 0.982422 16.8057 0.982422 16.2534Z" fill="black"/>
</svg>
