<svg width="25" height="22" viewBox="0 0 25 22" fill="none" xmlns="http://www.w3.org/2000/svg">
<path fill-rule="evenodd" clip-rule="evenodd" d="M5.53777 17.8557C5.53777 17.3034 5.09006 16.8557 4.53777 16.8557H1.10937C0.55709 16.8557 0.109375 16.408 0.109375 15.8557V1.25C0.109375 0.697715 0.557091 0.25 1.10938 0.25H23.1094C23.6617 0.25 24.1094 0.697715 24.1094 1.25V15.8557C24.1094 16.408 23.6617 16.8557 23.1094 16.8557H12.781C12.5621 16.8557 12.3493 16.9275 12.1751 17.0602L7.14372 20.8927C6.48545 21.3941 5.53777 20.9246 5.53777 20.0972V17.8557ZM6.44609 10.3969C7.49365 10.3969 8.34287 9.54779 8.34287 8.50034C8.34287 7.45289 7.49365 6.60376 6.44609 6.60376C5.39853 6.60376 4.54932 7.45289 4.54932 8.50034C4.54932 9.54779 5.39853 10.3969 6.44609 10.3969ZM13.9903 8.50034C13.9903 9.54779 13.1411 10.3969 12.0936 10.3969C11.046 10.3969 10.1968 9.54779 10.1968 8.50034C10.1968 7.45289 11.046 6.60376 12.0936 6.60376C13.1411 6.60376 13.9903 7.45289 13.9903 8.50034ZM19.6866 8.50034C19.6866 9.54779 18.8374 10.3969 17.7898 10.3969C16.7423 10.3969 15.8931 9.54779 15.8931 8.50034C15.8931 7.45289 16.7423 6.60376 17.7898 6.60376C18.8374 6.60376 19.6866 7.45289 19.6866 8.50034Z" fill="black"/>
</svg>
