<svg width="28" height="28" viewBox="0 0 28 28" fill="none" xmlns="http://www.w3.org/2000/svg">
<path fill-rule="evenodd" clip-rule="evenodd" d="M1.25195 1.24902C0.699668 1.24902 0.251953 1.69674 0.251953 2.24902V19.8928C0.251953 20.4451 0.699668 20.8928 1.25195 20.8928H6.0197V25.4819C6.0197 25.862 6.2352 26.2092 6.57582 26.378C6.91644 26.5467 7.32326 26.5077 7.62564 26.2774L14.6947 20.8928H26.7523C27.3046 20.8928 27.7523 20.4451 27.7523 19.8928V2.24902C27.7523 1.69674 27.3046 1.24902 26.7523 1.24902H1.25195Z" fill="black"/>
<path fill-rule="evenodd" clip-rule="evenodd" d="M7.5 11C7.22386 11 7 11.2239 7 11.5C7 11.7761 7.22386 12 7.5 12C7.77614 12 8 11.7761 8 11.5C8 11.2239 7.77614 11 7.5 11ZM5 11.5C5 10.1193 6.11929 9 7.5 9C8.88071 9 10 10.1193 10 11.5C10 12.8807 8.88071 14 7.5 14C6.11929 14 5 12.8807 5 11.5ZM13.5 11C13.2239 11 13 11.2239 13 11.5C13 11.7761 13.2239 12 13.5 12C13.7761 12 14 11.7761 14 11.5C14 11.2239 13.7761 11 13.5 11ZM11 11.5C11 10.1193 12.1193 9 13.5 9C14.8807 9 16 10.1193 16 11.5C16 12.8807 14.8807 14 13.5 14C12.1193 14 11 12.8807 11 11.5ZM19 11.5C19 11.2239 19.2239 11 19.5 11C19.7761 11 20 11.2239 20 11.5C20 11.7761 19.7761 12 19.5 12C19.2239 12 19 11.7761 19 11.5ZM19.5 9C18.1193 9 17 10.1193 17 11.5C17 12.8807 18.1193 14 19.5 14C20.8807 14 22 12.8807 22 11.5C22 10.1193 20.8807 9 19.5 9Z" fill="white"/>
</svg>
