<svg width="26" height="29" viewBox="0 0 26 29" fill="none" xmlns="http://www.w3.org/2000/svg">
<path fill-rule="evenodd" clip-rule="evenodd" d="M13.0686 28.0127C12.7805 28.1615 12.4382 28.1615 12.1502 28.0127L0.650175 22.068C0.317998 21.8963 0.109375 21.5536 0.109375 21.1797V7.32035C0.109375 6.94641 0.317999 6.60372 0.650175 6.43201L12.1502 0.487399C12.4382 0.33851 12.7805 0.33851 13.0686 0.4874L24.5686 6.43201C24.9008 6.60372 25.1094 6.94641 25.1094 7.32035V21.1797C25.1094 21.5536 24.9008 21.8963 24.5686 22.068L13.0686 28.0127ZM8.73868 11.2593H16.5588C18.166 11.2593 19.4689 12.5622 19.4689 14.1694C19.4689 15.3828 18.7259 16.4251 17.6662 16.8616C17.269 17.0252 16.6734 16.8905 15.9917 16.3451C14.0373 14.7816 11.2602 14.7816 9.30586 16.3451C8.62412 16.8905 8.02853 17.0252 7.63132 16.8616C6.5716 16.4251 5.82861 15.3828 5.82861 14.1694C5.82861 12.5622 7.1315 11.2593 8.73868 11.2593ZM16.5588 9.25931H8.73868C6.02693 9.25931 3.82861 11.4576 3.82861 14.1694C3.82861 16.221 5.08667 17.9765 6.86959 18.7109C8.29953 19.2999 9.69392 18.5959 10.5552 17.9068C11.7792 16.9277 13.5183 16.9277 14.7423 17.9068C15.6036 18.5959 16.998 19.2999 18.4279 18.7109C20.2108 17.9765 21.4689 16.221 21.4689 14.1694C21.4689 11.4576 19.2706 9.25931 16.5588 9.25931Z" fill="black"/>
</svg>
