<svg width="25" height="26" viewBox="0 0 25 26" fill="none" xmlns="http://www.w3.org/2000/svg">
<path fill-rule="evenodd" clip-rule="evenodd" d="M11.6297 0.105573C11.9112 -0.0351909 12.2426 -0.0351909 12.5241 0.105573L23.6011 5.64403C23.9398 5.81343 24.1538 6.15969 24.1538 6.53846V19.4615C24.1538 19.8403 23.9398 20.1866 23.6011 20.356L12.5241 25.8944C12.2426 26.0352 11.9112 26.0352 11.6297 25.8944L0.552786 20.356C0.214002 20.1866 0 19.8403 0 19.4615V6.53846C0 6.15969 0.214002 5.81343 0.552786 5.64403L11.6297 0.105573ZM8 10H16C17.6569 10 19 11.3431 19 13C19 14.251 18.234 15.3255 17.1416 15.7754C16.7234 15.9477 16.1049 15.8033 15.4054 15.2437C13.4145 13.651 10.5855 13.651 8.59459 15.2437C7.89511 15.8033 7.27663 15.9477 6.85841 15.7754C5.766 15.3255 5 14.251 5 13C5 11.3431 6.34315 10 8 10ZM16 8H8C5.23858 8 3 10.2386 3 13C3 15.0892 4.28107 16.8768 6.09667 17.6247C7.54763 18.2224 8.9649 17.5087 9.84398 16.8054C11.1045 15.7971 12.8955 15.7971 14.156 16.8054C15.0351 17.5087 16.4524 18.2224 17.9033 17.6247C19.7189 16.8768 21 15.0892 21 13C21 10.2386 18.7614 8 16 8Z" fill="black"/>
</svg>
