<svg width="24" height="27" viewBox="0 0 24 27" fill="none" xmlns="http://www.w3.org/2000/svg">
<path fill-rule="evenodd" clip-rule="evenodd" d="M12.0058 2.56836C11.464 2.56836 11.0247 3.00761 11.0247 3.54944C11.0247 4.09128 11.464 4.53053 12.0058 4.53053C12.5476 4.53053 12.9869 4.09128 12.9869 3.54944C12.9869 3.00761 12.5476 2.56836 12.0058 2.56836ZM9.02472 3.54944C9.02472 1.90304 10.3594 0.568359 12.0058 0.568359C13.6522 0.568359 14.9869 1.90304 14.9869 3.54944C14.9869 4.84505 14.1604 5.94761 13.0059 6.35864V9.81348H22.5716C23.1239 9.81348 23.5716 10.2612 23.5716 10.8135V22.0396C23.5716 22.5919 23.1239 23.0396 22.5716 23.0396H18.9496V25.5679C18.9496 26.1202 18.5018 26.5679 17.9496 26.5679H6.06305C5.51076 26.5679 5.06305 26.1202 5.06305 25.5679V23.0396H1.44006C0.887779 23.0396 0.440063 22.5919 0.440063 22.0396V10.8135C0.440063 10.2612 0.887779 9.81348 1.44006 9.81348H11.0059V6.35868C9.85128 5.94768 9.02472 4.84509 9.02472 3.54944ZM7.06305 24.5679V23.0396H16.9496V24.5679H7.06305ZM7.71367 15.1152C6.98948 15.1152 6.4024 15.7023 6.4024 16.4265C6.4024 17.1507 6.98948 17.7378 7.71367 17.7378C8.43786 17.7378 9.02493 17.1507 9.02493 16.4265C9.02493 15.7023 8.43786 15.1152 7.71367 15.1152ZM4.4024 16.4265C4.4024 14.5977 5.88491 13.1152 7.71367 13.1152C9.54243 13.1152 11.0249 14.5977 11.0249 16.4265C11.0249 18.2553 9.54243 19.7378 7.71367 19.7378C5.88491 19.7378 4.4024 18.2553 4.4024 16.4265ZM16.2983 15.1152C15.5741 15.1152 14.9871 15.7023 14.9871 16.4265C14.9871 17.1507 15.5741 17.7378 16.2983 17.7378C17.0225 17.7378 17.6096 17.1507 17.6096 16.4265C17.6096 15.7023 17.0225 15.1152 16.2983 15.1152ZM12.9871 16.4265C12.9871 14.5977 14.4696 13.1152 16.2983 13.1152C18.1271 13.1152 19.6096 14.5977 19.6096 16.4265C19.6096 18.2553 18.1271 19.7378 16.2983 19.7378C14.4696 19.7378 12.9871 18.2553 12.9871 16.4265Z" fill="black"/>
</svg>
