<svg width="24" height="26" viewBox="0 0 24 26" fill="none" xmlns="http://www.w3.org/2000/svg">
<path fill-rule="evenodd" clip-rule="evenodd" d="M11.0249 2.98108C11.0249 2.43925 11.4641 2 12.006 2C12.5478 2 12.9871 2.43925 12.9871 2.98108C12.9871 3.52292 12.5478 3.96217 12.006 3.96217C11.4641 3.96217 11.0249 3.52292 11.0249 2.98108ZM12.006 0C10.3596 0 9.0249 1.33468 9.0249 2.98108C9.0249 4.28229 9.85857 5.38878 11.0209 5.79557C11.0072 5.86157 11 5.92994 11 6V10H1C0.447715 10 0 10.4477 0 11V21C0 21.5523 0.447716 22 1 22H5.06348V25.0001C5.06348 25.5523 5.51119 26.0001 6.06348 26.0001H17.95C18.5023 26.0001 18.95 25.5523 18.95 25.0001V22H23C23.5523 22 24 21.5523 24 21V11C24 10.4477 23.5523 10 23 10H13V6C13 5.93131 12.9931 5.86425 12.9799 5.79946C14.1481 5.39586 14.9871 4.28645 14.9871 2.98108C14.9871 1.33468 13.6524 0 12.006 0ZM7.06348 22V24.0001H16.95V22H7.06348ZM6.40234 15.858C6.40234 15.1339 6.98942 14.5468 7.71361 14.5468C8.4378 14.5468 9.02487 15.1339 9.02487 15.858C9.02487 16.5822 8.4378 17.1693 7.71361 17.1693C6.98942 17.1693 6.40234 16.5822 6.40234 15.858ZM7.71361 12.5468C5.88485 12.5468 4.40234 14.0293 4.40234 15.858C4.40234 17.6868 5.88485 19.1693 7.71361 19.1693C9.54237 19.1693 11.0249 17.6868 11.0249 15.858C11.0249 14.0293 9.54237 12.5468 7.71361 12.5468ZM16.2986 14.5468C15.5744 14.5468 14.9873 15.1339 14.9873 15.858C14.9873 16.5822 15.5744 17.1693 16.2986 17.1693C17.0228 17.1693 17.6098 16.5822 17.6098 15.858C17.6098 15.1339 17.0228 14.5468 16.2986 14.5468ZM12.9873 15.858C12.9873 14.0293 14.4698 12.5468 16.2986 12.5468C18.1273 12.5468 19.6098 14.0293 19.6098 15.858C19.6098 17.6868 18.1273 19.1693 16.2986 19.1693C14.4698 19.1693 12.9873 17.6868 12.9873 15.858Z" fill="black"/>
</svg>
