<svg width="24" height="26" viewBox="0 0 24 26" fill="none" xmlns="http://www.w3.org/2000/svg">
<path fill-rule="evenodd" clip-rule="evenodd" d="M11.3315 3.63676C11.3315 3.15435 11.7226 2.76328 12.205 2.76328C12.6874 2.76328 13.0785 3.15435 13.0785 3.63676C13.0785 4.11918 12.6874 4.51025 12.205 4.51025C11.7226 4.51025 11.3315 4.11918 11.3315 3.63676ZM12.205 0.763275C10.618 0.763275 9.3315 2.04978 9.3315 3.63676C9.3315 5.1647 10.5241 6.41411 12.0292 6.50496C11.9843 6.61857 11.9597 6.74236 11.9597 6.8719V10.2745H1.85107C1.29879 10.2745 0.851074 10.7222 0.851074 11.2745V20.6227C0.851074 21.175 1.29879 21.6227 1.85107 21.6227H5.58523V24.4598C5.58523 25.0121 6.03295 25.4598 6.58523 25.4598H17.8262C18.3784 25.4598 18.8262 25.0121 18.8262 24.4598V21.6227H22.5476C23.0999 21.6227 23.5476 21.175 23.5476 20.6227V11.2745C23.5476 10.7222 23.0999 10.2745 22.5476 10.2745H13.9597V6.8719C13.9597 6.5784 13.8333 6.31444 13.6319 6.1315C14.4962 5.63608 15.0785 4.70442 15.0785 3.63676C15.0785 2.04978 13.792 0.763275 12.205 0.763275ZM7.58523 21.6227V23.4598H16.8262V21.6227H7.58523ZM6.96001 15.8144C6.96001 15.1595 7.49088 14.6286 8.14574 14.6286C8.8006 14.6286 9.33148 15.1595 9.33148 15.8144C9.33148 16.4692 8.8006 17.0001 8.14574 17.0001C7.49088 17.0001 6.96001 16.4692 6.96001 15.8144ZM8.14574 12.6286C6.38631 12.6286 4.96001 14.0549 4.96001 15.8144C4.96001 17.5738 6.38631 19.0001 8.14574 19.0001C9.90517 19.0001 11.3315 17.5738 11.3315 15.8144C11.3315 14.0549 9.90517 12.6286 8.14574 12.6286ZM16.2644 14.6286C15.6096 14.6286 15.0787 15.1595 15.0787 15.8144C15.0787 16.4692 15.6096 17.0001 16.2644 17.0001C16.9193 17.0001 17.4502 16.4692 17.4502 15.8144C17.4502 15.1595 16.9193 14.6286 16.2644 14.6286ZM13.0787 15.8144C13.0787 14.0549 14.505 12.6286 16.2644 12.6286C18.0239 12.6286 19.4502 14.0549 19.4502 15.8144C19.4502 17.5738 18.0239 19.0001 16.2644 19.0001C14.505 19.0001 13.0787 17.5738 13.0787 15.8144Z" fill="black"/>
</svg>
