<svg width="8" height="25" viewBox="0 0 8 25" fill="none" xmlns="http://www.w3.org/2000/svg">
<path fill-rule="evenodd" clip-rule="evenodd" d="M4.32619 7.33398C2.45804 7.32247 0.943604 5.79868 0.943604 3.93049C0.943604 2.0623 2.45804 0.557163 4.32619 0.568669C6.19434 0.580175 7.70878 2.10397 7.70878 3.97216C7.70878 5.84034 6.19434 7.34548 4.32619 7.33398ZM4.32619 24.9482C2.45804 24.9367 0.943604 23.4129 0.943604 21.5447C0.943604 19.6766 2.45804 18.1714 4.32619 18.1829C6.19434 18.1944 7.70878 19.7182 7.70878 21.5864C7.70878 23.4546 6.19434 24.9597 4.32619 24.9482ZM0.943604 12.7376C0.943604 14.6058 2.45804 16.1296 4.32619 16.1411C6.19434 16.1526 7.70878 14.6475 7.70878 12.7793C7.70878 10.9111 6.19434 9.3873 4.32619 9.3758C2.45804 9.36429 0.943604 10.8694 0.943604 12.7376Z" fill="black"/>
</svg>
