<svg width="28" height="26" viewBox="0 0 28 26" fill="none" xmlns="http://www.w3.org/2000/svg">
<path fill-rule="evenodd" clip-rule="evenodd" d="M10.1905 1.57092C11.3391 0.422322 13.2014 0.422322 14.35 1.57092C15.4986 2.71952 15.4986 4.58177 14.35 5.73038L5.8498 14.2305L1.86201 15.276C1.12153 15.4701 0.446425 14.7943 0.641383 14.054L1.69035 10.0711L10.1905 1.57092ZM22.1909 1.57092C23.3395 0.422322 25.2018 0.422322 26.3504 1.57092C27.499 2.71952 27.499 4.58177 26.3504 5.73038L17.8502 14.2305L13.8625 15.276C13.122 15.4701 12.4469 14.7943 12.6418 14.054L13.6908 10.0711L22.1909 1.57092ZM26.7136 21.2941C26.9013 21.1064 27.0066 20.8518 27.0065 20.5864C27.0063 20.3209 26.9006 20.0665 26.7127 19.879L22.8227 15.999C22.4316 15.609 21.7985 15.6098 21.4084 16.0008C21.0184 16.3918 21.0192 17.025 21.4103 17.415L23.5877 19.5869H1.38086C0.828576 19.5869 0.380859 20.0346 0.380859 20.5869C0.380859 21.1392 0.828576 21.5869 1.38086 21.5869H23.5924L21.4094 23.7699C21.0188 24.1604 21.0188 24.7936 21.4094 25.1841C21.7999 25.5746 22.433 25.5746 22.8236 25.1841L26.7136 21.2941Z" fill="black"/>
</svg>
