<svg width="27" height="26" viewBox="0 0 27 26" fill="none" xmlns="http://www.w3.org/2000/svg">
<path fill-rule="evenodd" clip-rule="evenodd" d="M21.364 0.292893C21.7545 -0.0976311 22.3877 -0.0976311 22.7782 0.292893L25.9925 3.50722C26.3831 3.89774 26.3831 4.5309 25.9925 4.92143L17.6713 13.2426C17.5477 13.3662 17.3939 13.4553 17.2252 13.5009L12.8142 14.6934C12.4684 14.7869 12.0989 14.6883 11.8458 14.4348C11.5926 14.1813 11.4943 13.8118 11.5882 13.466L12.7848 9.05915C12.8306 8.89085 12.9195 8.73742 13.0428 8.6141L21.364 0.292893ZM13.0428 19.5419L21.364 11.2207C21.7545 10.8302 22.3877 10.8302 22.7782 11.2207L25.9925 14.435C26.3831 14.8255 26.3831 15.4587 25.9925 15.8492L17.6713 24.1704C17.5477 24.294 17.3939 24.3831 17.2252 24.4287L12.8142 25.6212C12.4684 25.7147 12.0989 25.6161 11.8458 25.3626C11.5926 25.1091 11.4943 24.7396 11.5882 24.3938L12.7848 19.987C12.8306 19.8186 12.9195 19.6652 13.0428 19.5419ZM1.28534 23.6559C0.733055 23.6559 0.285339 24.1036 0.285339 24.6559C0.285339 25.2082 0.733055 25.6559 1.28534 25.6559H9.3712C9.92349 25.6559 10.3712 25.2082 10.3712 24.6559C10.3712 24.1036 9.92349 23.6559 9.3712 23.6559H1.28534ZM1.28534 12.7279C0.733055 12.7279 0.285339 13.1756 0.285339 13.7279C0.285339 14.2802 0.733055 14.7279 1.28534 14.7279H9.3712C9.92349 14.7279 10.3712 14.2802 10.3712 13.7279C10.3712 13.1756 9.92349 12.7279 9.3712 12.7279H1.28534Z" fill="black"/>
</svg>
