<svg width="28" height="28" viewBox="0 0 28 28" fill="none" xmlns="http://www.w3.org/2000/svg">
<path fill-rule="evenodd" clip-rule="evenodd" d="M13.4232 1.1789C13.7678 0.939323 14.2254 0.940464 14.5688 1.18176L26.5749 9.61696C27.0268 9.93445 27.1357 10.5582 26.8182 11.0101C26.5008 11.462 25.877 11.5709 25.4251 11.2534L24.2321 10.4152V16.6423L24.4853 25H25.9998C26.5521 25 26.9998 25.4477 26.9998 26C26.9998 26.5523 26.5521 27 25.9998 27L4.49993 27L3.5 27.0263V27H2C1.44772 27 1 26.5523 1 26C1 25.4477 1.44772 25 2 25H3.5V10.5128L2.57088 11.1587C2.1174 11.474 1.49423 11.3619 1.17899 10.9084C0.863754 10.4549 0.97582 9.83176 1.4293 9.51653L13.4232 1.1789ZM17.7118 11.5713C17.1002 11.5713 16.5886 12.0743 16.5886 12.7141C16.5886 13.354 17.1002 13.857 17.7118 13.857C18.3235 13.857 18.835 13.354 18.835 12.7141C18.835 12.0743 18.3235 11.5713 17.7118 11.5713ZM14.5886 12.7141C14.5886 10.9871 15.9783 9.57129 17.7118 9.57129C19.4454 9.57129 20.835 10.9871 20.835 12.7141C20.835 14.4412 19.4454 15.857 17.7118 15.857C15.9783 15.857 14.5886 14.4412 14.5886 12.7141ZM6.94513 18.2861C6.94513 17.7338 7.39284 17.2861 7.94513 17.2861H12.1915C12.7438 17.2861 13.1915 17.7338 13.1915 18.2861V22.5718C13.1915 23.1241 12.7438 23.5718 12.1915 23.5718H7.94513C7.39284 23.5718 6.94513 23.1241 6.94513 22.5718V18.2861ZM8.94513 19.2861V21.5718H11.1915V19.2861H8.94513ZM18.6079 17.8422C18.4392 17.5016 18.0919 17.2861 17.7118 17.2861C17.3317 17.2861 16.9845 17.5016 16.8158 17.8422L14.6926 22.1279C14.539 22.4379 14.5565 22.8052 14.7389 23.0991C14.9213 23.3931 15.2427 23.5718 15.5886 23.5718H19.835C20.181 23.5718 20.5023 23.3931 20.6847 23.0991C20.8671 22.8052 20.8847 22.4379 20.7311 22.1279L18.6079 17.8422ZM17.7118 20.5388L18.2236 21.5718H17.2L17.7118 20.5388ZM10.0683 9.57129C10.4484 9.57129 10.7957 9.78677 10.9644 10.1274L13.0876 14.4131C13.2412 14.7231 13.2236 15.0904 13.0412 15.3843C12.8588 15.6782 12.5375 15.857 12.1915 15.857H7.94513C7.59921 15.857 7.27785 15.6782 7.09545 15.3843C6.91304 15.0904 6.8955 14.7231 7.04907 14.4131L9.17227 10.1274C9.34101 9.78677 9.68824 9.57129 10.0683 9.57129ZM10.5801 13.857L10.0683 12.8239L9.55654 13.857H10.5801Z" fill="black"/>
</svg>
