<svg width="26" height="24" viewBox="0 0 26 24" fill="none" xmlns="http://www.w3.org/2000/svg">
<path fill-rule="evenodd" clip-rule="evenodd" d="M9.82172 0.292893C10.2122 -0.0976311 10.8454 -0.0976311 11.2359 0.292893L14.2786 3.33552C14.6691 3.72605 14.6691 4.35921 14.2786 4.74974L6.40183 12.6265C6.27825 12.7501 6.12443 12.8391 5.95571 12.8847L1.78035 14.0135C1.4345 14.107 1.06505 14.0084 0.811862 13.7549C0.55867 13.5014 0.460421 13.1319 0.554306 12.7862L1.68704 8.61469C1.73274 8.44638 1.82167 8.29295 1.94499 8.16963L9.82172 0.292893ZM21.2503 0.292893C21.6408 -0.0976311 22.2739 -0.0976311 22.6645 0.292893L25.7071 3.33552C26.0976 3.72605 26.0976 4.35921 25.7071 4.74974L17.8304 12.6265C17.7068 12.7501 17.553 12.8391 17.3842 12.8847L13.2089 14.0135C12.863 14.107 12.4936 14.0084 12.2404 13.7549C11.9872 13.5014 11.8889 13.1319 11.9828 12.7862L13.1156 8.61469C13.1613 8.44638 13.2502 8.29295 13.3735 8.16963L21.2503 0.292893ZM24.1483 19.7072C24.336 19.5195 24.4414 19.2649 24.4412 18.9994C24.441 18.734 24.3353 18.4795 24.1474 18.2921L20.6279 14.7816C20.2369 14.3916 19.6037 14.3924 19.2137 14.7834C18.8236 15.1744 18.8245 15.8076 19.2155 16.1976L21.0225 18H1.16084C0.608559 18 0.160843 18.4477 0.160843 19C0.160843 19.5523 0.608558 20 1.16084 20H21.0271L19.2146 21.8125C18.8241 22.203 18.8241 22.8362 19.2146 23.2267C19.6051 23.6172 20.2383 23.6172 20.6288 23.2267L24.1483 19.7072Z" fill="black"/>
</svg>
