<svg width="28" height="28" viewBox="0 0 28 28" fill="none" xmlns="http://www.w3.org/2000/svg">
<path fill-rule="evenodd" clip-rule="evenodd" d="M14.7126 0.977201C14.2833 0.67558 13.7113 0.674154 13.2805 0.97363L1.28662 9.31125C0.719775 9.7053 0.579693 10.4843 0.973741 11.0511C1.36779 11.618 2.14675 11.758 2.7136 11.364L3.29845 10.9574L3.29845 24.7502H2.00011C1.30975 24.7502 0.750111 25.3099 0.750111 26.0002C0.750111 26.6906 1.30976 27.2502 2.00011 27.2502L26 27.2502C26.6903 27.2502 27.25 26.6906 27.25 26.0002C27.25 25.3099 26.6903 24.7502 26 24.7502H24.482V10.8964L25.2814 11.458C25.8463 11.8549 26.626 11.7187 27.0228 11.1538C27.4197 10.5889 27.2835 9.80927 26.7186 9.4124L14.7126 0.977201ZM7.94542 17.2858C7.39314 17.2858 6.94542 17.7335 6.94542 18.2858V22.5715C6.94542 23.1238 7.39314 23.5715 7.94542 23.5715H12.1918C12.7441 23.5715 13.1918 23.1238 13.1918 22.5715V18.2858C13.1918 17.7335 12.7441 17.2858 12.1918 17.2858H7.94542ZM8.94542 21.5715V19.2858H11.1918V21.5715H8.94542ZM17.7117 11.5714C17.1 11.5714 16.5885 12.0743 16.5885 12.7142C16.5885 13.3541 17.1 13.8571 17.7117 13.8571C18.3234 13.8571 18.8349 13.3541 18.8349 12.7142C18.8349 12.0743 18.3234 11.5714 17.7117 11.5714ZM14.5885 12.7142C14.5885 10.9872 15.9781 9.57135 17.7117 9.57135C19.4453 9.57135 20.8349 10.9872 20.8349 12.7142C20.8349 14.4413 19.4453 15.8571 17.7117 15.8571C15.9781 15.8571 14.5885 14.4413 14.5885 12.7142ZM18.6078 17.8418C18.439 17.5013 18.0918 17.2858 17.7117 17.2858C17.3316 17.2858 16.9844 17.5013 16.8156 17.8418L14.6924 22.1276C14.5389 22.4375 14.5564 22.8048 14.7388 23.0988C14.9212 23.3927 15.2426 23.5715 15.5885 23.5715H17.7117H19.8349C20.1808 23.5715 20.5022 23.3927 20.6846 23.0988C20.867 22.8048 20.8845 22.4375 20.731 22.1276L18.6078 17.8418ZM17.7117 21.5715H17.1999L17.7117 20.5384L18.2235 21.5715H17.7117ZM10.0686 9.57135C10.4487 9.57135 10.796 9.78684 10.9647 10.1274L13.0879 14.4131C13.2415 14.7231 13.2239 15.0904 13.0415 15.3844C12.8591 15.6783 12.5378 15.8571 12.1918 15.8571H10.0686H7.94542C7.5995 15.8571 7.27814 15.6783 7.09574 15.3844C6.91334 15.0904 6.89579 14.7231 7.04936 14.4131L9.17257 10.1274C9.3413 9.78684 9.68853 9.57135 10.0686 9.57135ZM9.55683 13.8571H10.0686H10.5804L10.0686 12.824L9.55683 13.8571Z" fill="black"/>
</svg>
