<svg width="20" height="27" viewBox="0 0 20 27" fill="none" xmlns="http://www.w3.org/2000/svg">
<path fill-rule="evenodd" clip-rule="evenodd" d="M2.21482 3.27086C1.82203 3.41588 1.56118 3.79026 1.56118 4.20896V13.8055C1.56118 14.1441 1.73257 14.4597 2.01659 14.6442L3.97053 15.9129L2.44829 17.399C2.25629 17.5864 2.14814 17.8427 2.14814 18.1101L2.14814 19.4636C1.76436 19.5889 1.40214 19.7996 1.0912 20.0962C-0.0188129 21.1548 -0.0550742 22.9073 1.0102 24.0104C2.07548 25.1135 3.8389 25.1496 4.94891 24.0909C6.05892 23.0322 6.09518 21.2798 5.0299 20.1767C4.77247 19.9101 4.47426 19.7058 4.15436 19.5643V18.5283L5.65764 17.0607L5.51331 16.9147L8.86588 19.0916C8.97608 19.1632 9.09684 19.2109 9.22115 19.2348V21.3367C8.86715 21.4644 8.53361 21.6659 8.24442 21.9418C7.13441 23.0004 7.09815 24.7529 8.16343 25.856C9.22871 26.9591 10.9921 26.9951 12.1021 25.9365C13.2121 24.8778 13.2484 23.1254 12.1831 22.0222C11.9043 21.7335 11.5776 21.5179 11.2274 21.3758L11.2274 18.2651L16.9122 14.572C17.1961 14.3875 17.3675 14.072 17.3675 13.7334V4.20918C17.3675 3.79037 17.1065 3.41592 16.7135 3.27098L9.80698 0.723295C9.58352 0.640865 9.33797 0.640902 9.11454 0.723397L2.21482 3.27086ZM13.1169 6.81014C13.5404 7.16463 13.5963 7.79531 13.2419 8.21882L9.58957 12.5822C9.40399 12.8039 9.13153 12.9344 8.84246 12.9401C8.55339 12.9458 8.276 12.8261 8.08182 12.6119L6.08902 10.4134C5.71811 10.0042 5.74915 9.37177 6.15835 9.00086C6.56755 8.62995 7.19995 8.661 7.57086 9.0702L8.79273 10.4182L11.7082 6.9351C12.0627 6.5116 12.6934 6.45565 13.1169 6.81014ZM15.8258 19.5591C15.5353 19.6862 15.2619 19.8651 15.0196 20.0962C13.9096 21.1548 13.8733 22.9073 14.9386 24.0104C16.0039 25.1135 17.7673 25.1496 18.8773 24.0909C19.9873 23.0322 20.0236 21.2798 18.9583 20.1767C18.6347 19.8415 18.2466 19.6049 17.832 19.4675V18.1101C17.832 17.8427 17.7239 17.5864 17.5319 17.399L15.7284 15.6384L14.3225 17.0607L15.8258 18.5283V19.5591Z" fill="black"/>
</svg>
