<svg width="27" height="27" viewBox="0 0 27 27" fill="none" xmlns="http://www.w3.org/2000/svg">
<path fill-rule="evenodd" clip-rule="evenodd" d="M18.6145 0.491211H1.12793C0.575645 0.491211 0.12793 0.938927 0.12793 1.49121V25.4912C0.12793 26.0435 0.567587 26.4912 1.11987 26.4912H21.4751C21.6918 26.5211 21.9108 26.5353 22.1298 26.5353C22.3281 26.5353 22.5219 26.5202 22.7105 26.4912H22.97C22.8925 26.4912 22.8164 26.4896 22.7417 26.4863C24.7257 26.1641 26.1279 24.2982 26.1279 22.2195V5.49126C26.1279 4.93898 25.6802 4.49126 25.1279 4.49126L19.6144 4.49126L19.6145 1.48281C19.6145 0.930504 19.1668 0.491211 18.6145 0.491211ZM15.2881 20.4521C15.2881 21.0044 14.8404 21.4521 14.2881 21.4521H5.28809C4.7358 21.4521 4.28809 21.0044 4.28809 20.4521C4.28809 19.8999 4.7358 19.4521 5.28809 19.4521H14.2881C14.8404 19.4521 15.2881 19.8999 15.2881 20.4521ZM14.2881 16.4521C14.8404 16.4521 15.2881 16.0044 15.2881 15.4521C15.2881 14.8999 14.8404 14.4521 14.2881 14.4521H5.28809C4.7358 14.4521 4.28809 14.8999 4.28809 15.4521C4.28809 16.0044 4.7358 16.4521 5.28809 16.4521H14.2881ZM4.28809 6.45215C4.28809 5.34758 5.18352 4.45215 6.28809 4.45215H13.2881C14.3927 4.45215 15.2881 5.34758 15.2881 6.45215V9.45215C15.2881 10.5567 14.3927 11.4521 13.2881 11.4521H6.28809C5.18352 11.4521 4.28809 10.5567 4.28809 9.45215V6.45215ZM13.2881 6.45215H6.28809V9.45215H13.2881V6.45215ZM24.1279 22.2195C24.1279 23.596 23.1417 24.5353 22.1298 24.5353C21.499 24.5353 21.0259 24.3476 20.7121 24.0362C20.4031 23.7294 20.1279 23.1823 20.1279 22.2195V6.49126L24.1279 6.49126V22.2195Z" fill="black"/>
</svg>
