<svg width="24" height="26" viewBox="0 0 24 26" fill="none" xmlns="http://www.w3.org/2000/svg">
<path fill-rule="evenodd" clip-rule="evenodd" d="M11.5528 25.7764L0.552787 20.2764C0.214003 20.107 0 19.7607 0 19.382V6.61804C0 6.23927 0.214002 5.89301 0.552786 5.72361L11.5528 0.223615C11.8343 0.0828511 12.1657 0.082851 12.4472 0.223615L23.4472 5.72361C23.786 5.89301 24 6.23927 24 6.61804V19.382C24 19.7607 23.786 20.107 23.4472 20.2764L12.4472 25.7764C12.1657 25.9172 11.8343 25.9172 11.5528 25.7764ZM11.468 8.4517C11.8271 8.1761 12.3266 8.1761 12.6857 8.4517L16.0569 11.039C16.4951 11.3753 16.5777 12.003 16.2414 12.4411C15.9052 12.8793 15.2774 12.9619 14.8393 12.6256L13.0538 11.2553V16.6414C13.0538 17.1937 12.6061 17.6414 12.0538 17.6414C11.5015 17.6414 11.0538 17.1937 11.0538 16.6414V11.2907L9.31446 12.6256C8.87633 12.9619 8.24858 12.8793 7.91233 12.4411C7.57608 12.003 7.65867 11.3753 8.0968 11.039L11.468 8.4517Z" fill="black"/>
</svg>
