<svg width="25" height="27" viewBox="0 0 25 27" fill="none" xmlns="http://www.w3.org/2000/svg">
<path fill-rule="evenodd" clip-rule="evenodd" d="M11.6297 0.673932C11.9112 0.533168 12.2426 0.533168 12.5241 0.673932L23.6011 6.21239C23.9398 6.38179 24.1538 6.72805 24.1538 7.10682V20.0299C24.1538 20.4087 23.9398 20.7549 23.6011 20.9243L12.5241 26.4628C12.2426 26.6035 11.9112 26.6035 11.6297 26.4628L0.552786 20.9243C0.214002 20.7549 0 20.4087 0 20.0299V7.10682C0 6.72805 0.214002 6.38179 0.552786 6.21239L11.6297 0.673932ZM11.4679 9.02018C11.827 8.74458 12.3265 8.74458 12.6856 9.02018L16.0568 11.6075C16.4949 11.9437 16.5775 12.5715 16.2413 13.0096C15.905 13.4477 15.2773 13.5303 14.8391 13.1941L13.0536 11.8237V17.2101C13.0536 17.7623 12.6059 18.2101 12.0536 18.2101C11.5013 18.2101 11.0536 17.7623 11.0536 17.2101V11.8593L9.31432 13.1941C8.8762 13.5303 8.24844 13.4477 7.91219 13.0096C7.57595 12.5715 7.65854 11.9437 8.09667 11.6075L11.4679 9.02018Z" fill="black"/>
</svg>
