<svg width="26" height="28" viewBox="0 0 26 28" fill="none" xmlns="http://www.w3.org/2000/svg">
<path fill-rule="evenodd" clip-rule="evenodd" d="M12.2016 0.533307C12.4831 0.392543 12.8145 0.392543 13.096 0.533307L24.7114 6.34099C25.0502 6.51038 25.2642 6.85664 25.2642 7.23542V20.7867C25.2642 21.1654 25.0502 21.5117 24.7114 21.6811L13.096 27.4888C12.8145 27.6295 12.4831 27.6295 12.2016 27.4888L0.586234 21.6811C0.24745 21.5117 0.0334473 21.1654 0.0334473 20.7867V7.23542C0.0334473 6.85664 0.24745 6.51038 0.586234 6.34099L12.2016 0.533307ZM12.3555 10C11.8032 10 11.3555 10.4477 11.3555 11V14.2842V16.9972C11.3555 17.5495 11.8032 17.9972 12.3555 17.9972C12.9078 17.9972 13.3555 17.5495 13.3555 16.9972V15.2842H14.1917C14.744 15.2842 15.1917 14.8365 15.1917 14.2842C15.1917 13.7319 14.744 13.2842 14.1917 13.2842H13.3555V12H14.1913C14.7436 12 15.1913 11.5523 15.1913 11C15.1913 10.4477 14.7436 10 14.1913 10H12.3555ZM16.8916 11.022C16.8916 10.4697 17.3393 10.022 17.8916 10.022H20.8601C21.4124 10.022 21.8601 10.4697 21.8601 11.022C21.8601 11.5743 21.4124 12.022 20.8601 12.022H20.376V16.9998C20.376 17.552 19.9283 17.9998 19.376 17.9998C18.8237 17.9998 18.376 17.552 18.376 16.9998V12.022H17.8916C17.3393 12.022 16.8916 11.5743 16.8916 11.022ZM9.65493 11.042C9.65493 10.4897 9.20722 10.042 8.65493 10.042C8.10265 10.042 7.65493 10.4897 7.65493 11.042V13.3229L6.03607 10.5393C5.85703 10.2315 5.52777 10.042 5.17163 10.042H5.14062C4.58834 10.042 4.14062 10.4898 4.14062 11.042V16.9797C4.14062 17.532 4.58834 17.9797 5.14062 17.9797C5.69291 17.9797 6.14062 17.532 6.14062 16.9797V14.6974L7.76031 17.4824C7.93935 17.7903 8.26862 17.9797 8.62476 17.9797H8.65493C9.20722 17.9797 9.65493 17.532 9.65493 16.9797V11.042Z" fill="black"/>
</svg>
