<svg width="26" height="26" viewBox="0 0 26 26" fill="none" xmlns="http://www.w3.org/2000/svg">
<path fill-rule="evenodd" clip-rule="evenodd" d="M7.10563 16.1445C5.11584 14.4664 3.85185 11.9549 3.85185 9.14815C3.85185 4.09577 7.94762 0 13 0C18.0524 0 22.1481 4.09577 22.1481 9.14815C22.1481 11.9023 20.931 14.3723 19.0053 16.0494L20.7329 18.5646C21.171 18.3914 21.6485 18.2963 22.1481 18.2963C24.2755 18.2963 26 20.0208 26 22.1481C26 24.2755 24.2755 26 22.1481 26C20.0208 26 18.2963 24.2755 18.2963 22.1481C18.2963 21.2455 18.6068 20.4154 19.1268 19.7587L17.363 17.1908C16.0662 17.8958 14.5799 18.2963 13 18.2963C11.4724 18.2963 10.0322 17.9219 8.76626 17.2598L6.94807 19.8564C7.42287 20.4968 7.7037 21.2897 7.7037 22.1481C7.7037 24.2755 5.97917 26 3.85185 26C1.72453 26 0 24.2755 0 22.1481C0 20.0208 1.72453 18.2963 3.85185 18.2963C4.3943 18.2963 4.91056 18.4084 5.37872 18.6108L7.10563 16.1445Z" fill="black"/>
</svg>
