<svg width="26" height="26" viewBox="0 0 26 26" fill="none" xmlns="http://www.w3.org/2000/svg">
<path fill-rule="evenodd" clip-rule="evenodd" d="M22.0067 9.0054C22.0067 4.03185 17.9749 0 13.0013 0C8.02777 0 3.99592 4.03185 3.99592 9.0054C3.99592 11.7396 5.2144 14.1891 7.13798 15.8407L5.13909 18.6954C4.71518 18.5304 4.25407 18.4399 3.77181 18.4399C1.6887 18.4399 0 20.1286 0 22.2118C0 24.2949 1.6887 25.9836 3.77181 25.9836C5.85493 25.9836 7.54363 24.2949 7.54363 22.2118C7.54363 21.336 7.24515 20.5299 6.74436 19.8897L8.79041 16.9677C10.047 17.6336 11.4801 18.0108 13.0013 18.0108C14.5281 18.0108 15.9661 17.6308 17.226 16.9604L19.2463 19.9017C18.7511 20.5399 18.4564 21.3414 18.4564 22.2118C18.4564 24.2949 20.1451 25.9836 22.2282 25.9836C24.3113 25.9836 26 24.2949 26 22.2118C26 20.1286 24.3113 18.4399 22.2282 18.4399C21.7409 18.4399 21.2752 18.5323 20.8477 18.7006L18.8763 15.8306C20.7932 14.1792 22.0067 11.734 22.0067 9.0054Z" fill="black"/>
</svg>
