<svg width="26" height="26" viewBox="0 0 26 26" fill="none" xmlns="http://www.w3.org/2000/svg">
<path fill-rule="evenodd" clip-rule="evenodd" d="M25.1307 0.00846269C25.0879 0.00287991 25.0443 0 25 0H1C0.447715 0 0 0.447716 0 1V25C0 25.5523 0.447716 26 1 26H25C25.5523 26 26 25.5523 26 25V2.17396L14.8045 16.9667C14.6344 17.1915 14.3773 17.3341 14.0965 17.3592C13.8157 17.3844 13.5373 17.2899 13.3299 17.099L7.02532 11.2953C6.61899 10.9213 6.59281 10.2887 6.96686 9.88232C7.34091 9.47599 7.97353 9.44982 8.37987 9.82387L13.8743 14.8817L25.1307 0.00846269Z" fill="#0B0B0B"/>
</svg>
