<svg width="28" height="24" viewBox="0 0 28 24" fill="none" xmlns="http://www.w3.org/2000/svg">
<path fill-rule="evenodd" clip-rule="evenodd" d="M27.6931 10.2235C27.6931 12.0802 26.1878 13.5854 24.3311 13.5854L21.466 13.5854C21.6388 14.0134 21.7321 14.4796 21.7321 14.9519C21.7321 16.1633 21.1181 17.3347 20.1229 17.9239C20.4218 18.4612 20.5868 19.0835 20.5868 19.7094C20.5868 21.4332 19.3437 23.0757 17.5282 23.0757L12.5545 23.0756C10.1636 23.0756 8.51087 21.805 7.49836 20.6195C6.99132 20.0258 6.62819 19.4364 6.39147 18.9962C6.36707 18.9508 6.34394 18.9069 6.32207 18.8646H1.30767C1.04246 18.8646 0.788101 18.7592 0.600565 18.5717C0.413029 18.3841 0.307673 18.1298 0.307673 17.8646L0.307675 9.05612C0.307675 8.7909 0.413031 8.53655 0.600569 8.34901C0.788105 8.16147 1.04246 8.05612 1.30767 8.05612L6.32465 8.05612C6.40546 7.89799 6.5051 7.71106 6.62649 7.49551C7.04932 6.74472 7.73603 5.6467 8.81026 4.20911C10.8519 1.47692 12.8217 0.970919 13.4188 0.882887C13.5344 0.865834 13.6343 0.864439 13.6953 0.864439C15.0534 0.864439 16.0437 1.73249 16.458 2.77395C16.8693 3.8079 16.7571 5.11079 15.8615 6.07897C15.5884 6.37431 15.3486 6.64748 15.1498 6.8901C17.4069 6.88491 21.6569 6.87058 24.3227 6.86131C26.1861 6.85483 27.6931 8.36394 27.6931 10.2235Z" fill="black"/>
</svg>
