<svg width="28" height="28" viewBox="0 0 28 28" fill="none" xmlns="http://www.w3.org/2000/svg">
<path fill-rule="evenodd" clip-rule="evenodd" d="M27 12.2273C27 14.058 25.516 15.542 23.6853 15.542H20.8605C21.0309 15.9639 21.1229 16.4235 21.1229 16.8892C21.1229 18.0836 20.5175 19.2384 19.5364 19.8194C19.8311 20.3492 19.9938 20.9627 19.9938 21.5798C19.9938 23.2793 18.7681 24.8987 16.9782 24.8987L12.0745 24.8986C9.71727 24.8986 8.08776 23.6459 7.0895 22.4771C6.58959 21.8918 6.23158 21.3106 5.99818 20.8766C5.97412 20.8318 5.95132 20.7885 5.92976 20.7468L0.985928 20.7468C0.724443 20.7468 0.473668 20.643 0.288771 20.4581C0.103874 20.2732 -3.1182e-09 20.0224 0 19.7609L1.98407e-06 11.0764C1.98719e-06 10.8149 0.103876 10.5641 0.288775 10.3792C0.473672 10.1943 0.724445 10.0905 0.98593 10.0905L5.9323 10.0905C6.01198 9.93457 6.11022 9.75027 6.2299 9.53776C6.64677 8.79753 7.32382 7.71497 8.38294 6.2976C10.3958 3.60386 12.3379 3.10498 12.9266 3.01819C13.0406 3.00137 13.1391 3 13.1992 3C14.5382 3 15.5146 3.85583 15.9231 4.88264C16.3286 5.90204 16.2179 7.1866 15.335 8.14115C15.0656 8.43234 14.8292 8.70166 14.6332 8.94086C16.8586 8.93575 21.0488 8.92162 23.6771 8.91248C25.5142 8.90609 27 10.394 27 12.2273Z" fill="black"/>
</svg>
