<svg width="26" height="26" viewBox="0 0 26 26" fill="none" xmlns="http://www.w3.org/2000/svg">
<path fill-rule="evenodd" clip-rule="evenodd" d="M13 26C20.1797 26 26 20.1797 26 13C26 9.6856 24.7597 6.66089 22.7178 4.36474C22.6853 4.42958 22.6452 4.49187 22.5973 4.55036L13.9999 15.0583V20.6453C13.9999 21.1976 13.5522 21.6453 12.9999 21.6453C12.4476 21.6453 11.9999 21.1976 11.9999 20.6453V17.5028L6.57395 24.1345C6.54164 24.1739 6.50694 24.2103 6.47023 24.2436C8.38907 25.3603 10.6198 26 13 26ZM4.86649 23.1419C4.90375 23.0452 4.95681 22.9526 5.02604 22.868L11.9999 14.3444V7.76894L10.1809 9.58797C9.79033 9.9785 9.15717 9.9785 8.76664 9.58798C8.37612 9.19745 8.37611 8.56429 8.76664 8.17376L12.2928 4.64761C12.4803 4.46008 12.7347 4.35472 12.9999 4.35472C13.2651 4.35472 13.5194 4.46008 13.707 4.64761L17.1316 8.07226L21.0494 3.28388C21.1351 3.17907 21.2378 3.09616 21.3501 3.03589C19.0914 1.14103 16.1789 0 13 0C5.8203 0 0 5.8203 0 13C0 17.1015 1.89937 20.7593 4.86649 23.1419ZM15.8598 9.62668C15.8459 9.61424 15.8323 9.60133 15.8189 9.58797L13.9999 7.76893V11.9L15.8598 9.62668Z" fill="black"/>
</svg>
