<svg width="28" height="29" viewBox="0 0 28 29" fill="none" xmlns="http://www.w3.org/2000/svg">
<path fill-rule="evenodd" clip-rule="evenodd" d="M1.43859 0.904302C0.886309 0.902492 0.437129 1.34873 0.435313 1.90101L0.417522 7.30906C0.415705 7.86134 0.861945 8.31052 1.41423 8.31234C1.96651 8.31416 2.41569 7.86792 2.41751 7.31564L2.4268 4.49212L7.00191 8.99388C5.82727 10.5144 5.12842 12.4212 5.12842 14.4912C5.12842 16.6846 5.91303 18.6947 7.2169 20.2562L2.42481 25.114L2.43524 21.9344C2.43705 21.3821 1.9908 20.933 1.43852 20.9312C0.886238 20.9293 0.437057 21.3756 0.435247 21.9279L0.417486 27.3451C0.415675 27.8974 0.861914 28.3466 1.41419 28.3484L6.82224 28.3662C7.37452 28.368 7.82371 27.9217 7.82552 27.3695C7.82734 26.8172 7.3811 26.368 6.82882 26.3662L4.00809 26.3569L8.66068 21.6405C10.1763 22.8014 12.0718 23.4912 14.1284 23.4912C16.1899 23.4912 18.0895 22.7981 19.6069 21.6322L24.2676 26.3569L21.4471 26.3662C20.8948 26.368 20.4485 26.8172 20.4504 27.3695C20.4522 27.9217 20.9014 28.368 21.4536 28.3662L26.8617 28.3484C27.414 28.3466 27.8602 27.8974 27.8584 27.3451L27.8406 21.9279C27.8388 21.3756 27.3896 20.9293 26.8374 20.9312C26.2851 20.933 25.8388 21.3821 25.8406 21.9344L25.8511 25.1142L21.0486 20.2458C22.3473 18.6858 23.1284 16.6797 23.1284 14.4912C23.1284 12.4297 22.4353 10.53 21.2693 9.01258L25.8488 4.49506L25.8581 7.31564C25.8599 7.86792 26.3091 8.31416 26.8614 8.31234C27.4137 8.31052 27.8599 7.86134 27.8581 7.30906L27.8403 1.90101C27.8385 1.34873 27.3893 0.902492 26.837 0.904302L21.4198 0.922063C20.8675 0.923874 20.4213 1.37305 20.4231 1.92534C20.4249 2.47762 20.8741 2.92386 21.4264 2.92205L24.6061 2.91163L19.8829 7.57093C18.3229 6.27231 16.3169 5.49121 14.1284 5.49121C11.9484 5.49121 9.94946 6.26629 8.39206 7.5559L3.67213 2.91164L6.84926 2.92205C7.40154 2.92386 7.85072 2.47762 7.85253 1.92534C7.85434 1.37305 7.4081 0.923874 6.85582 0.922063L1.43859 0.904302ZM11.3813 11.6208C11.7718 11.2302 12.405 11.2302 12.7955 11.6208L14.2097 13.035L15.6239 11.6208C16.0144 11.2303 16.6476 11.2303 17.0381 11.6208C17.4286 12.0113 17.4286 12.6445 17.0381 13.035L15.6239 14.4492L17.0381 15.8634C17.4286 16.2539 17.4286 16.8871 17.0381 17.2776C16.6476 17.6682 16.0144 17.6682 15.6239 17.2776L14.2097 15.8634L12.7955 17.2777C12.405 17.6682 11.7718 17.6682 11.3813 17.2777C10.9907 16.8871 10.9907 16.254 11.3813 15.8635L12.7955 14.4492L11.3813 13.035C10.9907 12.6445 10.9907 12.0113 11.3813 11.6208Z" fill="black"/>
</svg>
