<svg width="27" height="23" viewBox="0 0 27 23" fill="none" xmlns="http://www.w3.org/2000/svg">
<path fill-rule="evenodd" clip-rule="evenodd" d="M22.1033 22.8953C24.583 20.528 26.1279 17.1899 26.1279 13.4912C26.1279 6.31196 20.3072 0.491211 13.1279 0.491211C5.94868 0.491211 0.12793 6.31196 0.12793 13.4912C0.12793 17.19 1.67294 20.5281 4.15276 22.8955C4.1363 22.7918 4.12793 22.6862 4.12793 22.5798V21.177C4.12793 18.5078 5.83209 16.1189 8.40802 15.1757L8.82534 15.0231C9.56887 14.7516 9.91308 13.9196 9.56887 13.224L8.93895 11.9526C8.10993 10.2778 8.42377 8.28142 9.73085 6.92393C11.57 5.01364 14.6937 5.01364 16.5329 6.92393C17.84 8.28251 18.1549 10.2789 17.3248 11.9526L16.6949 13.2251C16.3507 13.9196 16.6949 14.7516 17.4384 15.0241L17.8535 15.1768C20.426 16.1189 22.1279 18.5067 22.1279 21.1726V22.5809C22.1279 22.6869 22.1196 22.792 22.1033 22.8953Z" fill="black"/>
</svg>
