<svg width="26" height="24" viewBox="0 0 26 24" fill="none" xmlns="http://www.w3.org/2000/svg">
<path fill-rule="evenodd" clip-rule="evenodd" d="M0 4.13965C0 3.58736 0.447715 3.13965 1 3.13965H4C4.55228 3.13965 5 3.58736 5 4.13965C5 4.69193 4.55228 5.13965 4 5.13965H1C0.447715 5.13965 0 4.69193 0 4.13965ZM9 4.13965C9 3.58736 9.44771 3.13965 10 3.13965H16.2523C16.8046 3.13965 17.2523 3.58736 17.2523 4.13965C17.2523 4.69193 16.8046 5.13965 16.2523 5.13965H10C9.44771 5.13965 9 4.69193 9 4.13965ZM21 4.13965C21 3.58736 21.4477 3.13965 22 3.13965H25C25.5523 3.13965 26 3.58736 26 4.13965C26 4.69193 25.5523 5.13965 25 5.13965H22C21.4477 5.13965 21 4.69193 21 4.13965Z" fill="black"/>
<path fill-rule="evenodd" clip-rule="evenodd" d="M0 11.8535C0 11.3012 0.447715 10.8535 1 10.8535H10C10.5523 10.8535 11 11.3012 11 11.8535C11 12.4058 10.5523 12.8535 10 12.8535H1C0.447715 12.8535 0 12.4058 0 11.8535ZM15 11.8535C15 11.3012 15.4477 10.8535 16 10.8535H25C25.5523 10.8535 26 11.3012 26 11.8535C26 12.4058 25.5523 12.8535 25 12.8535H16C15.4477 12.8535 15 12.4058 15 11.8535Z" fill="black"/>
<path fill-rule="evenodd" clip-rule="evenodd" d="M0 19.8535C0 19.3012 0.447715 18.8535 1 18.8535H4.42397C4.97626 18.8535 5.42397 19.3012 5.42397 19.8535C5.42397 20.4058 4.97626 20.8535 4.42397 20.8535H1C0.447715 20.8535 0 20.4058 0 19.8535ZM8.5 19.8535C8.5 19.3012 8.94772 18.8535 9.5 18.8535H16.3319C16.8841 18.8535 17.3319 19.3012 17.3319 19.8535C17.3319 20.4058 16.8841 20.8535 16.3319 20.8535H9.5C8.94772 20.8535 8.5 20.4058 8.5 19.8535ZM20.5 19.8535C20.5 19.3012 20.9477 18.8535 21.5 18.8535H25C25.5523 18.8535 26 19.3012 26 19.8535C26 20.4058 25.5523 20.8535 25 20.8535H21.5C20.9477 20.8535 20.5 20.4058 20.5 19.8535Z" fill="black"/>
<path d="M16.4287 4.09099C16.4287 5.4842 17.5581 6.61362 18.9513 6.61362C20.3445 6.61362 21.4739 5.4842 21.4739 4.09099C21.4739 2.69778 20.3445 1.56836 18.9513 1.56836C17.5581 1.56836 16.4287 2.69778 16.4287 4.09099Z" fill="black"/>
<path fill-rule="evenodd" clip-rule="evenodd" d="M20.4739 4.09099C20.4739 3.25006 19.7922 2.56836 18.9513 2.56836C18.1104 2.56836 17.4287 3.25006 17.4287 4.09099C17.4287 4.93192 18.1104 5.61362 18.9513 5.61362C19.7922 5.61362 20.4739 4.93192 20.4739 4.09099ZM18.9513 0.568359C20.8968 0.568359 22.4739 2.14549 22.4739 4.09099C22.4739 6.03649 20.8968 7.61362 18.9513 7.61362C17.0058 7.61362 15.4287 6.03648 15.4287 4.09099C15.4287 2.14549 17.0058 0.568359 18.9513 0.568359Z" fill="black"/>
<path d="M4.42868 4.09099C4.42868 5.4842 5.5581 6.61362 6.95131 6.61362C8.34452 6.61362 9.47394 5.4842 9.47394 4.09099C9.47394 2.69778 8.34452 1.56836 6.95131 1.56836C5.5581 1.56836 4.42868 2.69778 4.42868 4.09099Z" fill="black"/>
<path fill-rule="evenodd" clip-rule="evenodd" d="M8.47394 4.09099C8.47394 3.25006 7.79223 2.56836 6.95131 2.56836C6.11038 2.56836 5.42868 3.25006 5.42868 4.09099C5.42868 4.93192 6.11038 5.61362 6.95131 5.61362C7.79223 5.61362 8.47394 4.93192 8.47394 4.09099ZM6.95131 0.568359C8.8968 0.568359 10.4739 2.14549 10.4739 4.09099C10.4739 6.03649 8.8968 7.61362 6.95131 7.61362C5.00581 7.61362 3.42868 6.03648 3.42868 4.09099C3.42868 2.14549 5.00581 0.568359 6.95131 0.568359Z" fill="black"/>
<path d="M16.4287 19.5197C16.4287 20.9129 17.5581 22.0423 18.9513 22.0423C20.3445 22.0423 21.4739 20.9129 21.4739 19.5197C21.4739 18.1265 20.3445 16.9971 18.9513 16.9971C17.5581 16.9971 16.4287 18.1265 16.4287 19.5197Z" fill="black"/>
<path fill-rule="evenodd" clip-rule="evenodd" d="M20.4739 19.5197C20.4739 18.6788 19.7922 17.9971 18.9513 17.9971C18.1104 17.9971 17.4287 18.6788 17.4287 19.5197C17.4287 20.3606 18.1104 21.0423 18.9513 21.0423C19.7922 21.0423 20.4739 20.3606 20.4739 19.5197ZM18.9513 15.9971C20.8968 15.9971 22.4739 17.5742 22.4739 19.5197C22.4739 21.4652 20.8968 23.0423 18.9513 23.0423C17.0058 23.0423 15.4287 21.4652 15.4287 19.5197C15.4287 17.5742 17.0058 15.9971 18.9513 15.9971Z" fill="black"/>
<path d="M4.42868 19.5197C4.42868 20.9129 5.5581 22.0423 6.95131 22.0423C8.34452 22.0423 9.47394 20.9129 9.47394 19.5197C9.47394 18.1265 8.34452 16.9971 6.95131 16.9971C5.5581 16.9971 4.42868 18.1265 4.42868 19.5197Z" fill="black"/>
<path fill-rule="evenodd" clip-rule="evenodd" d="M8.47394 19.5197C8.47394 18.6788 7.79223 17.9971 6.95131 17.9971C6.11038 17.9971 5.42868 18.6788 5.42868 19.5197C5.42868 20.3606 6.11038 21.0423 6.95131 21.0423C7.79223 21.0423 8.47394 20.3606 8.47394 19.5197ZM6.95131 15.9971C8.8968 15.9971 10.4739 17.5742 10.4739 19.5197C10.4739 21.4652 8.8968 23.0423 6.95131 23.0423C5.00581 23.0423 3.42868 21.4652 3.42868 19.5197C3.42868 17.5742 5.00581 15.9971 6.95131 15.9971Z" fill="black"/>
<path d="M10.4287 11.8049C10.4287 13.1981 11.5581 14.3275 12.9513 14.3275C14.3445 14.3275 15.4739 13.1981 15.4739 11.8049C15.4739 10.4116 14.3445 9.28223 12.9513 9.28223C11.5581 9.28223 10.4287 10.4116 10.4287 11.8049Z" fill="black"/>
<path fill-rule="evenodd" clip-rule="evenodd" d="M14.4739 11.8049C14.4739 10.9639 13.7922 10.2822 12.9513 10.2822C12.1104 10.2822 11.4287 10.9639 11.4287 11.8049C11.4287 12.6458 12.1104 13.3275 12.9513 13.3275C13.7922 13.3275 14.4739 12.6458 14.4739 11.8049ZM12.9513 8.28223C14.8968 8.28223 16.4739 9.85936 16.4739 11.8049C16.4739 13.7504 14.8968 15.3275 12.9513 15.3275C11.0058 15.3275 9.42868 13.7504 9.42868 11.8049C9.42868 9.85936 11.0058 8.28223 12.9513 8.28223Z" fill="black"/>
</svg>
