<svg width="27" height="28" viewBox="0 0 27 28" fill="none" xmlns="http://www.w3.org/2000/svg">
<path fill-rule="evenodd" clip-rule="evenodd" d="M3.05142 16.0012C2.63416 15.878 2.34458 15.4992 2.3352 15.0644L2.1801 7.87384C2.17067 7.43659 2.44664 7.04381 2.86135 6.90422C3.27606 6.76464 3.73325 6.91066 3.98996 7.26468L6.78748 11.1226L7.6171 11.3752L7.891 11.4568C8.06983 11.5102 8.32959 11.5879 8.65359 11.6852C9.01621 11.794 9.45936 11.9273 9.95966 12.0786L10.2165 1.53005L10.2166 1.5263C10.2276 1.04909 10.5745 0.646006 11.0449 0.56384C11.5153 0.481675 11.978 0.743343 12.1498 1.18864C12.1768 1.2588 12.2039 1.32896 12.2308 1.39911L17.0634 13.9292C17.0994 14.0227 17.1205 14.1183 17.1277 14.2134C17.1368 14.2353 17.1459 14.2573 17.155 14.2793L22.6196 15.9432C23.5295 16.2202 24.2129 16.7501 24.6042 17.4463C24.9911 18.1348 25.0519 18.9174 24.8394 19.6137C24.6269 20.31 24.1394 20.9256 23.4337 21.2814C22.7202 21.6412 21.857 21.7002 20.9472 21.4232L5.95188 16.8574L3.05142 16.0012ZM0.999939 25.1704C0.447654 25.1704 -6.10352e-05 25.6181 -6.10352e-05 26.1704C-6.10352e-05 26.7226 0.447654 27.1704 0.999939 27.1704H25.7123C26.2645 27.1704 26.7123 26.7226 26.7123 26.1704C26.7123 25.6181 26.2645 25.1704 25.7123 25.1704H0.999939Z" fill="black"/>
</svg>
