<svg width="27" height="26" viewBox="0 0 27 26" fill="none" xmlns="http://www.w3.org/2000/svg">
<path fill-rule="evenodd" clip-rule="evenodd" d="M22.7424 19.1609L5.05409 13.7752L3.72869 13.3839L2.32931 12.9708C1.91205 12.8477 1.62248 12.4689 1.6131 12.034L1.51497 7.48476C1.49383 6.50477 2.74947 6.08215 3.32483 6.87559L4.78027 8.88271C4.90807 9.05896 5.08996 9.18865 5.29829 9.25208L6.33471 9.56765L6.33976 9.56918C6.39383 9.58526 7.60736 9.94621 9.33907 10.4703C9.97293 10.6622 10.6163 10.1973 10.6315 9.53533L10.807 1.90069C10.8322 0.80591 12.3237 0.550045 12.7056 1.5762C12.8201 1.88385 12.9345 2.19159 13.049 2.49936C14.2826 5.81741 15.5175 9.13873 16.8702 12.3973C16.9842 12.672 17.2126 12.8798 17.4972 12.9664L24.0261 14.9544C27.3271 15.9595 26.0434 20.166 22.7424 19.1609ZM1.17847 23.2149C0.626182 23.2149 0.178467 23.6626 0.178467 24.2149C0.178467 24.7672 0.626182 25.2149 1.17847 25.2149H25.8908C26.4431 25.2149 26.8908 24.7672 26.8908 24.2149C26.8908 23.6626 26.4431 23.2149 25.8908 23.2149H1.17847Z" fill="black"/>
</svg>
