<svg width="27" height="25" viewBox="0 0 27 25" fill="none" xmlns="http://www.w3.org/2000/svg">
<path fill-rule="evenodd" clip-rule="evenodd" d="M22.5639 18.3098L4.87562 12.9241L3.55023 12.5328L2.15085 12.1197C1.73359 11.9966 1.44401 11.6178 1.43463 11.1829L1.3365 6.63365C1.31537 5.65367 2.571 5.23104 3.14636 6.02448L4.60181 8.03161C4.72961 8.20785 4.91149 8.33754 5.11982 8.40098L6.15624 8.71655L6.16129 8.71807C6.21537 8.73415 7.4289 9.09511 9.16061 9.61921C9.79446 9.81105 10.4378 9.34619 10.453 8.68422L10.6286 1.04958C10.6537 -0.0451946 12.1452 -0.30106 12.5271 0.725091C12.6416 1.03275 12.7561 1.34049 12.8705 1.64826C14.1041 4.9663 15.339 8.28763 16.6917 11.5462C16.8057 11.8209 17.0341 12.0287 17.3187 12.1153L23.8477 14.1033C27.1487 15.1084 25.8649 19.3149 22.5639 18.3098ZM1 22.3638C0.447715 22.3638 0 22.8115 0 23.3638C0 23.9161 0.447715 24.3638 1 24.3638H25.7123C26.2646 24.3638 26.7123 23.9161 26.7123 23.3638C26.7123 22.8115 26.2646 22.3638 25.7123 22.3638H1Z" fill="black"/>
</svg>
