<svg width="28" height="24" viewBox="0 0 28 24" fill="none" xmlns="http://www.w3.org/2000/svg">
<path d="M14.0632 12.8305C17.3301 12.8305 19.9785 10.1822 19.9785 6.91526C19.9785 3.64835 17.3301 1 14.0632 1C10.7963 1 8.14795 3.64835 8.14795 6.91526C8.14795 10.1822 10.7963 12.8305 14.0632 12.8305Z" fill="white" stroke="black" stroke-width="2" stroke-linecap="round" stroke-linejoin="round"/>
<path d="M15.9063 6.43732L14.171 7.47841L14.171 4.25451" fill="white"/>
<path d="M15.9063 6.43732L14.171 7.47841L14.171 4.25451" stroke="black" stroke-width="2" stroke-linecap="round" stroke-linejoin="round"/>
<path fill-rule="evenodd" clip-rule="evenodd" d="M5 6C4.44772 6 4 6.44772 4 7V13V14H1C0.447715 14 0 14.4477 0 15V23C0 23.5523 0.447715 24 1 24H9C9.55228 24 10 23.5523 10 23V15C10 14.4477 9.55228 14 9 14H6V13V8H8C8.55228 8 9 7.55228 9 7C9 6.44772 8.55228 6 8 6H5ZM20 6C19.4477 6 19 6.44772 19 7C19 7.55228 19.4477 8 20 8H22V14H19C18.4477 14 18 14.4477 18 15V23C18 23.5523 18.4477 24 19 24H27C27.5523 24 28 23.5523 28 23V15C28 14.4477 27.5523 14 27 14H24V7C24 6.44772 23.5523 6 23 6H20Z" fill="black"/>
</svg>
