<svg width="26" height="24" viewBox="0 0 26 24" fill="none" xmlns="http://www.w3.org/2000/svg">
<path fill-rule="evenodd" clip-rule="evenodd" d="M13.063 2.56836C10.3484 2.56836 8.14777 4.76899 8.14777 7.48362C8.14777 10.1982 10.3484 12.3989 13.063 12.3989C15.7776 12.3989 17.9783 10.1982 17.9783 7.48362C17.9783 4.76899 15.7776 2.56836 13.063 2.56836ZM6.2078 6.56836C6.65561 3.18179 9.55411 0.568359 13.063 0.568359C16.5719 0.568359 19.4704 3.18179 19.9182 6.56836H21.5712C22.1235 6.56836 22.5712 7.01607 22.5712 7.56836V14.833H20.5712V8.56836H19.8937C19.3732 11.8722 16.5132 14.3989 13.063 14.3989C9.61288 14.3989 6.75286 11.8722 6.23235 8.56836H5.42847V14.834H8.05891C8.61119 14.834 9.05891 15.2817 9.05891 15.834V22.8929C9.05891 23.4452 8.61119 23.8929 8.05891 23.8929H1C0.447715 23.8929 0 23.4452 0 22.8929V15.834C0 15.2817 0.447715 14.834 1 14.834H3.42847V7.56836C3.42847 7.01607 3.87618 6.56836 4.42847 6.56836H6.2078ZM13.1708 3.82262C13.7231 3.82262 14.1708 4.27033 14.1708 4.82261L14.1708 6.2804L14.3916 6.14792C14.8652 5.86379 15.4795 6.01737 15.7636 6.49096C16.0478 6.96455 15.8942 7.57881 15.4206 7.86294L13.6853 8.90403C13.3764 9.08937 12.9916 9.09422 12.6781 8.91671C12.3646 8.73921 12.1709 8.40679 12.1708 8.04653L12.1708 4.82263C12.1708 4.27035 12.6185 3.82263 13.1708 3.82262ZM17.941 14.834H20.5712V18.7112C20.5712 19.2635 21.0189 19.7112 21.5712 19.7112C22.1235 19.7112 22.5712 19.2635 22.5712 18.7112V14.834H24.9999C25.5522 14.834 25.9999 15.2817 25.9999 15.834V22.8929C25.9999 23.4452 25.5522 23.8929 24.9999 23.8929H17.941C17.3887 23.8929 16.941 23.4452 16.941 22.8929V15.834C16.941 15.2817 17.3887 14.834 17.941 14.834ZM5.42847 18.7112C5.42847 19.2635 4.98075 19.7112 4.42847 19.7112C3.87618 19.7112 3.42847 19.2635 3.42847 18.7112V14.8399H5.42847V18.7112Z" fill="black"/>
</svg>
