<svg width="27" height="21" viewBox="0 0 27 21" fill="none" xmlns="http://www.w3.org/2000/svg">
<path fill-rule="evenodd" clip-rule="evenodd" d="M24.8679 8.79742L7.41163 14.5588L6.11067 15.0005L4.74112 15.4655C4.32916 15.6053 3.8742 15.4628 3.61586 15.1128L0.942652 11.4916C0.360487 10.703 1.14291 9.6339 2.07043 9.95061L4.38359 10.7405C4.58961 10.8108 4.813 10.8119 5.0198 10.7437L6.04075 10.4067L6.04577 10.4051C6.09914 10.3871 7.28848 9.98598 8.99158 9.4207C9.62011 9.21208 9.87781 8.46139 9.50867 7.91169L5.2967 1.63954C4.6862 0.730434 5.75743 -0.33831 6.66099 0.280085C6.92224 0.458886 7.18348 0.63779 7.44473 0.81671C10.3477 2.80477 13.2535 4.7948 16.219 6.66646C16.4705 6.82516 16.7769 6.86331 17.0594 6.77008L23.5002 4.64434C26.7579 3.56915 28.1256 7.72224 24.8679 8.79742ZM1.90223 18.9756C1.34994 18.9756 0.902226 19.4233 0.902226 19.9756C0.902226 20.5279 1.34994 20.9756 1.90223 20.9756H25.597C26.1493 20.9756 26.597 20.5279 26.597 19.9756C26.597 19.4233 26.1493 18.9756 25.597 18.9756H1.90223Z" fill="black"/>
</svg>
