<svg width="27" height="23" viewBox="0 0 27 23" fill="none" xmlns="http://www.w3.org/2000/svg">
<path fill-rule="evenodd" clip-rule="evenodd" d="M6.91655 16.5554C6.50459 16.6953 6.04963 16.5527 5.79129 16.2027L1.7959 10.7905C1.53615 10.4387 1.53524 9.95864 1.79366 9.60553C2.05208 9.25241 2.50984 9.10819 2.92368 9.2495L7.12137 10.6828L7.87089 10.4355L8.1241 10.3503C8.2896 10.2946 8.53005 10.2139 8.83015 10.1136C9.14646 10.0078 9.5291 9.88008 9.96014 9.73681L4.56781 1.68328L4.51434 1.60366C4.24823 1.20739 4.29934 0.678055 4.63637 0.339751C4.84277 0.13258 5.12114 0.0324346 5.39711 0.0467558C5.57184 0.0557953 5.74562 0.110724 5.89955 0.213424L16.5241 7.30181C16.6046 7.35552 16.6748 7.4189 16.7342 7.48939C16.7414 7.49394 16.7486 7.49849 16.7558 7.50305L21.8006 5.83804C22.6589 5.55477 23.4844 5.59063 24.1759 5.91992C24.8595 6.24539 25.3396 6.82493 25.5579 7.48778C25.7762 8.15063 25.7345 8.90237 25.3783 9.57099C25.018 10.2474 24.3757 10.7677 23.5174 11.051L9.5948 15.6461L6.91655 16.5554ZM1.9021 20.7823C1.34981 20.7823 0.9021 21.23 0.9021 21.7823C0.9021 22.3346 1.34981 22.7823 1.9021 22.7823H25.5969C26.1492 22.7823 26.5969 22.3346 26.5969 21.7823C26.5969 21.23 26.1492 20.7823 25.5969 20.7823H1.9021Z" fill="black"/>
</svg>
