<svg width="26" height="26" viewBox="0 0 26 26" fill="none" xmlns="http://www.w3.org/2000/svg">
<path fill-rule="evenodd" clip-rule="evenodd" d="M0 13C0 5.8203 5.8203 0 13 0C20.1797 0 26 5.8203 26 13C26 20.1797 20.1797 26 13 26C5.8203 26 0 20.1797 0 13ZM15.0557 4.25525C13.8754 3.79252 12.5658 3.79252 11.3855 4.25525L11.3768 4.25863L11.3682 4.26218C10.7988 4.4977 10.2795 4.83987 9.83741 5.2701L8.73323 6.30615C8.14857 6.85474 7.81689 7.62075 7.81689 8.42249L7.99463 9.42249C8.14084 9.82082 8.37405 10.1862 8.68222 10.4898L9.79656 11.5877L9.80679 11.5972C10.4989 12.242 11.3576 12.6783 12.2854 12.8551C13.2132 13.032 14.1715 12.9419 15.0506 12.5956L15.0554 12.5937C15.6354 12.3617 16.1662 12.0216 16.6203 11.5916L17.7077 10.5464C18.2848 9.99186 18.6109 9.2261 18.6109 8.42579C18.6109 7.62538 18.2847 6.85953 17.7075 6.30495L16.6328 5.27226C16.1792 4.83507 15.6455 4.49023 15.0609 4.25729L15.0557 4.25525ZM10.0859 9.06509C9.91379 8.89555 9.81689 8.66406 9.81689 8.42249C9.81689 8.17328 9.91999 7.93517 10.1017 7.76464L11.2204 6.71498L11.2277 6.70782C11.4873 6.45411 11.7915 6.25274 12.1241 6.11388C12.8321 5.83886 13.6157 5.83965 14.3231 6.11625C14.6651 6.25292 14.9783 6.45528 15.2453 6.71265L16.3218 7.74707C16.5065 7.92455 16.6109 8.16964 16.6109 8.42579C16.6109 8.68191 16.5065 8.92697 16.3219 9.10445L15.2426 10.1418C14.9724 10.397 14.6577 10.5983 14.315 10.7358C13.7882 10.9428 13.2149 10.9963 12.6599 10.8905C12.1082 10.7853 11.5954 10.5267 11.1796 10.1426L10.0859 9.06509ZM13.921 7.71867C13.5305 7.32815 12.8973 7.32815 12.5068 7.71867C12.1163 8.1092 12.1163 8.74236 12.5068 9.13289L12.5322 9.15834C12.9228 9.54887 13.5559 9.54887 13.9465 9.15834C14.337 8.76782 14.337 8.13465 13.9465 7.74413L13.921 7.71867ZM9.78608 18.6995C9.32712 18.3979 8.71004 18.5229 8.40493 18.9806C8.09858 19.4401 8.22275 20.061 8.68228 20.3673C8.68196 20.3671 8.68228 20.3673 9.23698 19.5353L8.68228 20.3673L8.6836 20.3682L8.68505 20.3692L8.68836 20.3713L8.69658 20.3767L8.71944 20.3913C8.73751 20.4027 8.76124 20.4174 8.79051 20.4349C8.84905 20.4697 8.92988 20.5158 9.03208 20.5691C9.23633 20.6757 9.52697 20.8119 9.89645 20.9462C10.6355 21.215 11.6938 21.4776 13.0062 21.4776C14.3187 21.4776 15.3769 21.215 16.116 20.9462C16.4855 20.8119 16.7761 20.6757 16.9804 20.5691C17.0826 20.5158 17.1634 20.4697 17.2219 20.4349C17.2512 20.4174 17.275 20.4027 17.293 20.3913L17.3159 20.3767L17.3241 20.3713L17.3274 20.3692L17.3289 20.3682C17.3292 20.368 17.3302 20.3673 16.7755 19.5353L17.3302 20.3673C17.7897 20.061 17.9139 19.4401 17.6075 18.9806C17.3024 18.5229 16.6853 18.3979 16.2264 18.6995L16.225 18.7004C16.2212 18.7027 16.2123 18.7083 16.1983 18.7167C16.1704 18.7333 16.1224 18.7609 16.0552 18.7959C15.9209 18.866 15.7109 18.9654 15.4325 19.0666C14.8759 19.269 14.0496 19.4776 13.0062 19.4776C11.9629 19.4776 11.1365 19.269 10.5799 19.0666C10.3016 18.9654 10.0916 18.866 9.95721 18.7959C9.89009 18.7609 9.84209 18.7333 9.81413 18.7167C9.80015 18.7083 9.79121 18.7027 9.78743 18.7004L9.78608 18.6995ZM6.41003 14.7661C5.85775 14.7661 5.41003 15.2138 5.41003 15.7661C5.41003 16.3184 5.85775 16.7661 6.41003 16.7661H9.23697C9.78925 16.7661 10.237 16.3184 10.237 15.7661C10.237 15.2138 9.78925 14.7661 9.23697 14.7661H6.41003ZM15.7755 15.7661C15.7755 15.2138 16.2232 14.7661 16.7755 14.7661H19.6024C20.1547 14.7661 20.6024 15.2138 20.6024 15.7661C20.6024 16.3184 20.1547 16.7661 19.6024 16.7661H16.7755C16.2232 16.7661 15.7755 16.3184 15.7755 15.7661Z" fill="black"/>
</svg>
