<svg width="24" height="26" viewBox="0 0 24 26" fill="none" xmlns="http://www.w3.org/2000/svg">
<path fill-rule="evenodd" clip-rule="evenodd" d="M20.4398 18.8703C22.2344 16.8941 23.3301 14.2788 23.3301 11.4063C23.3301 5.24515 18.306 0.25 12.1091 0.25C5.91229 0.25 0.888184 5.24515 0.888184 11.4063C0.888184 14.2081 1.93062 16.7646 3.64727 18.7229C3.61063 18.7758 3.57859 18.8331 3.55197 18.8945C3.19371 19.7196 2.50728 21.2975 2.00479 22.4522C1.42977 23.7737 2.39875 25.2501 3.83889 25.2501H20.1597C21.6097 25.2501 22.5724 23.7592 21.993 22.4391C21.5916 21.5247 21.1945 20.6091 20.7963 19.6911L20.4507 18.8945C20.4471 18.8863 20.4435 18.8783 20.4398 18.8703ZM5.30152 19.8867C4.92703 20.7488 4.30384 22.1813 3.83869 23.2503L3.83889 23.2501H20.1597L20.1602 23.2501L20.161 23.2488C20.1619 23.2475 20.1624 23.2464 20.1627 23.2456L20.1617 23.243C19.7584 22.3242 19.3589 21.4032 18.9604 20.4845L18.701 19.8867H5.30152ZM14.2033 6.03244C12.7926 5.48466 11.228 5.48466 9.81739 6.03244L9.80026 6.03927C9.11999 6.31798 8.49886 6.7233 7.96984 7.23368L6.58918 8.51687C5.91108 9.14711 5.52583 10.0311 5.52583 10.9569C5.52583 11.8544 5.88803 12.714 6.53039 13.3408L7.90917 14.6864C7.91584 14.6929 7.9226 14.6993 7.92945 14.7056C8.75819 15.4704 9.78517 15.9868 10.8933 16.196C12.0013 16.4052 13.1459 16.2988 14.1964 15.8889L14.1964 15.8889L14.1964 15.8889L14.2013 15.887C14.894 15.6125 15.5287 15.2098 16.0721 14.7001H16.0721H16.0721L16.0775 14.695L17.4289 13.4084C18.0989 12.7706 18.4781 11.886 18.4781 10.961C18.4781 10.0359 18.0988 9.15118 17.4287 8.51335L16.087 7.23632L16.0861 7.23551C15.5437 6.71768 14.906 6.30982 14.2084 6.03447L14.2084 6.03446L14.2084 6.03445L14.2033 6.03244ZM9.3534 8.67791C9.69912 8.34314 10.1052 8.07697 10.55 7.89346C11.4918 7.5302 12.5353 7.53098 13.4767 7.8958C13.9333 8.07641 14.3506 8.34362 14.7057 8.68272L14.7069 8.68387L16.0498 9.96205C16.3233 10.2224 16.4781 10.5834 16.4781 10.961C16.4781 11.3385 16.3233 11.6996 16.0499 11.9599L14.7013 13.2438C14.3425 13.5797 13.9238 13.8453 13.467 14.0266C12.7664 14.2995 12.0032 14.3702 11.2643 14.2307C10.5289 14.0919 9.84701 13.7503 9.29547 13.2447L7.92725 11.9095C7.67057 11.659 7.52583 11.3155 7.52583 10.9569C7.52583 10.5869 7.67978 10.2337 7.95074 9.98185L9.33854 8.69201L9.3534 8.67791ZM12.0022 12.6012C12.3329 12.6012 12.6562 12.5031 12.9311 12.3194C13.2061 12.1357 13.4204 11.8745 13.547 11.569C13.6736 11.2634 13.7067 10.9272 13.6421 10.6029C13.5776 10.2785 13.4184 9.98059 13.1845 9.74674C12.9507 9.5129 12.6527 9.35364 12.3284 9.28913C12.004 9.22461 11.6678 9.25772 11.3623 9.38428C11.0567 9.51083 10.7956 9.72515 10.6119 10.0001C10.4281 10.2751 10.3301 10.5984 10.3301 10.9291C10.3301 11.3726 10.5062 11.7979 10.8198 12.1115C11.1334 12.425 11.5587 12.6012 12.0022 12.6012Z" fill="black"/>
</svg>
