<svg width="25" height="26" viewBox="0 0 25 26" fill="none" xmlns="http://www.w3.org/2000/svg">
<path fill-rule="evenodd" clip-rule="evenodd" d="M6.57513 3.46856C8.49069 1.34048 11.27 0 14.3609 0C20.1445 0 24.8335 4.68902 24.8335 10.4726C24.8335 13.3818 23.6427 16.0096 21.7309 17.9044C21.9767 18.3639 22.2719 18.8399 22.5912 19.3511L22.6306 19.4141C23.0702 20.1176 23.5537 20.8915 23.9037 21.6767C24.0416 21.9861 24.0135 22.3442 23.8291 22.6283C23.6447 22.9124 23.329 23.0838 22.9903 23.0838H19.3493C19.57 23.5877 19.7917 24.0907 20.0155 24.5929C20.1534 24.9022 20.1253 25.2603 19.9409 25.5444C19.7565 25.8285 19.4408 26 19.1021 26H1.85297C1.51583 26 1.20138 25.8301 1.01658 25.5481C0.831778 25.2661 0.801508 24.91 0.936064 24.6009L1.69262 22.8623C2.05309 22.0339 2.46509 21.0867 2.74335 20.4462C1.04291 18.5865 0 16.1112 0 13.3887C0 9.04877 2.64021 5.32522 6.40196 3.73666C6.44381 3.64104 6.50146 3.55039 6.57513 3.46856ZM18.497 21.0838L18.4789 21.084L18.3991 20.9L18.399 20.8998L18.2022 20.4462C18.786 19.8078 19.2923 19.0967 19.7054 18.3279C20.0479 19.0546 20.4905 19.7631 20.8947 20.4102L20.8948 20.4103L20.895 20.4106L20.8954 20.4114L20.8956 20.4117L20.8959 20.4121L20.8965 20.4131L20.8971 20.4141C21.0408 20.6441 21.1799 20.8667 21.3121 21.0838H18.497ZM10.5245 2.91614C16.2842 2.94405 20.9453 7.62232 20.9453 13.3887C20.9453 14.3824 20.8063 15.3433 20.5471 16.2534C21.9653 14.7386 22.8335 12.7079 22.8335 10.4726C22.8335 5.79359 19.0399 2 14.3609 2C12.9799 2 11.6764 2.33006 10.5245 2.91614ZM3.37874 24H17.5672C17.23 23.2308 16.8961 22.4611 16.5632 21.6934L16.518 21.5894H4.42726C4.16244 22.1986 3.82655 22.9708 3.52656 23.6603L3.37874 24ZM8.74899 8.27264C9.99013 7.78607 11.3672 7.78607 12.6083 8.27264L12.6135 8.27468C13.228 8.51953 13.789 8.88202 14.2658 9.34164L15.4096 10.4406C16.0112 11.0188 16.3513 11.8171 16.3513 12.6515C16.3513 13.4858 16.0113 14.284 15.4098 14.8622L14.2527 15.9742C13.7753 16.4263 13.2172 16.7838 12.6076 17.0277L12.6027 17.0297C11.6784 17.3938 10.6709 17.4884 9.69534 17.3025C8.71988 17.1166 7.81695 16.6578 7.08915 15.9798L7.07891 15.9703L5.89355 14.8024C5.56156 14.4753 5.31305 14.0795 5.16186 13.648H4.99176V12.648C4.99176 11.8125 5.33741 11.0142 5.94671 10.4425L7.12233 9.33937C7.58708 8.88696 8.13313 8.52718 8.73176 8.27958L8.74034 8.27603L8.74899 8.27264ZM6.99176 12.648C6.99176 12.9223 7.10179 13.1852 7.29721 13.3777L8.46198 14.5253C8.9135 14.9426 9.47043 15.2236 10.0698 15.3379C10.6725 15.4527 11.2952 15.3946 11.8672 15.1698C12.2397 15.0205 12.5816 14.8017 12.875 14.5244L14.0239 13.4202C14.233 13.2192 14.3513 12.9416 14.3513 12.6515C14.3513 12.3614 14.233 12.0838 14.0238 11.8828L12.8782 10.7819C12.588 10.5022 12.2476 10.2822 11.8757 10.1336C11.1074 9.8332 10.2564 9.83241 9.48765 10.1313C9.12579 10.2822 8.7949 10.5012 8.51269 10.7771L8.50537 10.7842L7.31522 11.9009C7.10884 12.0946 6.99176 12.365 6.99176 12.648ZM9.96437 11.9443C10.3549 11.5537 10.9881 11.5537 11.3786 11.9443L11.4044 11.9701C11.7949 12.3606 11.7949 12.9938 11.4044 13.3843C11.0139 13.7748 10.3807 13.7748 9.9902 13.3843L9.96437 13.3585C9.57385 12.9679 9.57385 12.3348 9.96437 11.9443Z" fill="black"/>
</svg>
