<svg width="24" height="16" viewBox="0 0 24 16" fill="none" xmlns="http://www.w3.org/2000/svg">
<path fill-rule="evenodd" clip-rule="evenodd" d="M18.8622 0V1.24146C18.8622 3.39346 20.6068 5.13801 22.7588 5.13801H24V10.5864H22.7588C20.6068 10.5864 18.8622 12.3309 18.8622 14.4829V15.7241H5.13776V14.4829C5.13776 12.3309 3.39322 10.5864 1.24121 10.5864H0V5.13801H1.24121C3.39322 5.13801 5.13776 3.39346 5.13776 1.24146V0H18.8622ZM20.8622 0V1.24146C20.8622 2.28889 21.7114 3.13801 22.7588 3.13801H24V1C24 0.447715 23.5523 0 23 0H20.8622ZM3.13776 0V1.24146C3.13776 2.28889 2.28865 3.13801 1.24121 3.13801H0V0.999999C0 0.447714 0.447715 0 1 0H3.13776ZM0 12.5864V14.7241C0 15.2764 0.447716 15.7241 1 15.7241H3.13776V14.4829C3.13776 13.4355 2.28865 12.5864 1.24121 12.5864H0ZM20.8622 15.7241H23C23.5523 15.7241 24 15.2764 24 14.7241V12.5864H22.7588C21.7114 12.5864 20.8622 13.4355 20.8622 14.4829V15.7241ZM12.0001 5.96558C10.9526 5.96558 10.1035 6.81469 10.1035 7.86213C10.1035 8.90956 10.9526 9.75868 12.0001 9.75868C13.0475 9.75868 13.8966 8.90956 13.8966 7.86213C13.8966 6.81469 13.0475 5.96558 12.0001 5.96558ZM8.10352 7.86213C8.10352 5.71012 9.84806 3.96558 12.0001 3.96558C14.1521 3.96558 15.8966 5.71012 15.8966 7.86213C15.8966 10.0141 14.1521 11.7587 12.0001 11.7587C9.84806 11.7587 8.10352 10.0141 8.10352 7.86213Z" fill="black"/>
</svg>
