<svg width="26" height="19" viewBox="0 0 26 19" fill="none" xmlns="http://www.w3.org/2000/svg">
<path fill-rule="evenodd" clip-rule="evenodd" d="M3.74127 0.806641H1C0.447715 0.806641 0 1.25436 0 1.80664V4.54793H1.24127C2.62198 4.54793 3.74127 3.42864 3.74127 2.04793V0.806641ZM0 6.54793H1.24127C3.72655 6.54793 5.74127 4.53321 5.74127 2.04793V0.806641H20.2588V2.04788C20.2588 4.53316 22.2735 6.54788 24.7588 6.54788H26V12.7891H24.7588C22.2735 12.7891 20.2588 14.8038 20.2588 17.2891V18.5308H5.74133V17.2894C5.74133 14.8041 3.72661 12.7894 1.24133 12.7894H0V6.54793ZM0 14.7894V17.5308C0 18.0831 0.447715 18.5308 1 18.5308H3.74133V17.2894C3.74133 15.9087 2.62204 14.7894 1.24133 14.7894H0ZM22.2588 18.5308H25C25.5523 18.5308 26 18.0831 26 17.5308V14.7891H24.7588C23.3781 14.7891 22.2588 15.9083 22.2588 17.2891V18.5308ZM26 4.54788V1.80664C26 1.25436 25.5523 0.806641 25 0.806641H22.2588V2.04788C22.2588 3.42859 23.3781 4.54788 24.7588 4.54788H26ZM12.9999 7.77197C11.9524 7.77197 11.1033 8.62109 11.1033 9.66852C11.1033 10.716 11.9524 11.5651 12.9999 11.5651C14.0473 11.5651 14.8964 10.716 14.8964 9.66852C14.8964 8.62109 14.0473 7.77197 12.9999 7.77197ZM9.10333 9.66852C9.10333 7.51652 10.8479 5.77197 12.9999 5.77197C15.1519 5.77197 16.8964 7.51652 16.8964 9.66852C16.8964 11.8205 15.1519 13.5651 12.9999 13.5651C10.8479 13.5651 9.10333 11.8205 9.10333 9.66852Z" fill="black"/>
</svg>
