<svg width="23" height="16" viewBox="0 0 23 16" fill="none" xmlns="http://www.w3.org/2000/svg">
<path fill-rule="evenodd" clip-rule="evenodd" d="M17.7959 0.525146H4.92548V1.69918C4.92548 3.7643 3.25137 5.43841 1.18625 5.43841H0.0124512V10.4822H1.18625C3.25137 10.4822 4.92548 12.1563 4.92548 14.2215V15.3953H17.7959V14.2215C17.7959 12.1563 19.47 10.4822 21.5352 10.4822H22.709V5.43841H21.5352C19.47 5.43841 17.7959 3.7643 17.7959 1.69918V0.525146ZM22.709 3.43841V1.52515C22.709 0.972862 22.2612 0.525146 21.709 0.525146H19.7959V1.69918C19.7959 2.65973 20.5746 3.43841 21.5352 3.43841H22.709ZM22.709 12.4822H21.5352C20.5746 12.4822 19.7959 13.2609 19.7959 14.2215V15.3953H21.709C22.2612 15.3953 22.709 14.9476 22.709 14.3953V12.4822ZM2.92548 15.3953V14.2215C2.92548 13.2609 2.1468 12.4822 1.18625 12.4822H0.0124512V14.3953C0.0124512 14.9476 0.460165 15.3953 1.01245 15.3953H2.92548ZM0.0124512 3.43841H1.18625C2.1468 3.43841 2.92548 2.65973 2.92548 1.69918V0.525146H1.01245C0.460166 0.525146 0.0124512 0.972862 0.0124512 1.52515V3.43841ZM11.3608 6.22103C10.4002 6.22103 9.62154 6.99971 9.62154 7.96027C9.62154 8.92082 10.4002 9.6995 11.3608 9.6995C12.3213 9.6995 13.1 8.92082 13.1 7.96027C13.1 6.99971 12.3213 6.22103 11.3608 6.22103ZM7.62154 7.96027C7.62154 5.89514 9.29565 4.22103 11.3608 4.22103C13.4259 4.22103 15.1 5.89514 15.1 7.96027C15.1 10.0254 13.4259 11.6995 11.3608 11.6995C9.29565 11.6995 7.62154 10.0254 7.62154 7.96027Z" fill="black"/>
</svg>
