<svg width="19" height="27" viewBox="0 0 19 27" fill="none" xmlns="http://www.w3.org/2000/svg">
<path fill-rule="evenodd" clip-rule="evenodd" d="M5 0.714844C5.55228 0.714844 6 1.16256 6 1.71484L6 4.49121H8L8 1.71484C8 1.16256 8.44772 0.714844 9 0.714844C9.55228 0.714844 10 1.16256 10 1.71484V4.49121H12L12 1.71484C12 1.16256 12.4477 0.714844 13 0.714844C13.5523 0.714844 14 1.16256 14 1.71484L14 4.49121H17.1279C17.6802 4.49121 18.1279 4.93893 18.1279 5.49121V21.4912C18.1279 22.0435 17.6802 22.4912 17.1279 22.4912H10V25.7148C10 26.2671 9.55229 26.7148 9 26.7148C8.44772 26.7148 8 26.2671 8 25.7148L8 22.4912H1.12793C0.575645 22.4912 0.12793 22.0435 0.12793 21.4912V5.49121C0.12793 4.93893 0.575645 4.49121 1.12793 4.49121H4V1.71484C4 1.16256 4.44771 0.714844 5 0.714844ZM4 13.5408C4 10.7793 6.23858 8.54077 9 8.54077C11.7614 8.54077 14 10.7793 14 13.5408V13.8886C14 16.65 11.7614 18.8886 9 18.8886C6.23858 18.8886 4 16.65 4 13.8886V13.5408ZM9 10.5408C7.34315 10.5408 6 11.8839 6 13.5408V13.8886C6 15.5455 7.34315 16.8886 9 16.8886C10.6569 16.8886 12 15.5455 12 13.8886V13.5408C12 11.8839 10.6569 10.5408 9 10.5408Z" fill="black"/>
</svg>
