<svg width="28" height="23" viewBox="0 0 28 23" fill="none" xmlns="http://www.w3.org/2000/svg">
<rect x="18.8311" y="2.73584" width="4.08857" height="4.08857" fill="black" stroke="black" stroke-width="2.5" stroke-linejoin="round"/>
<path d="M7.33884 15.5571L5.29456 19.6457H7.33884H9.38313L7.33884 15.5571Z" stroke="black" stroke-width="2.5" stroke-linecap="round" stroke-linejoin="round"/>
<path d="M7.21388 9.20503L4.39465 11.6213L1.97833 8.80212" stroke="black" stroke-width="2.5" stroke-linecap="round" stroke-linejoin="round"/>
<path d="M20.8415 12.5616L23.6641 10.2049L26.0754 12.9829" stroke="black" stroke-width="2.5" stroke-linecap="round" stroke-linejoin="round"/>
<path d="M13.2449 20.7237C18.9729 21.2419 23.6304 16.5892 23.6304 10.9998M14.9682 1.67604C9.20961 1.15505 5.25915 5.51354 4.52261 10.8283" stroke="black" stroke-width="2.5" stroke-linecap="round" stroke-linejoin="round"/>
<path d="M15.386 8.70996H13.591C13.2377 8.7109 12.8991 8.85202 12.6495 9.10241C12.3998 9.3528 12.2594 9.69206 12.2589 10.0459V10.062C12.2594 10.4159 12.3998 10.7551 12.6495 11.0055C12.8991 11.2559 13.2377 11.397 13.591 11.398H14.4814C14.657 11.3973 14.831 11.4313 14.9934 11.4981C15.1559 11.5649 15.3036 11.6632 15.428 11.7874C15.5524 11.9115 15.6511 12.059 15.7185 12.2214C15.7859 12.3839 15.8205 12.558 15.8205 12.7339C15.821 12.91 15.7867 13.0844 15.7197 13.2471C15.6526 13.4098 15.5541 13.5577 15.4299 13.6822C15.3056 13.8067 15.158 13.9053 14.9955 13.9725C14.833 14.0396 14.6589 14.0739 14.4831 14.0735H12.5367" stroke="black" stroke-width="2.5" stroke-linecap="round" stroke-linejoin="round"/>
<path d="M14.0365 8.67368V7.72217" stroke="black" stroke-width="2.5" stroke-linecap="round" stroke-linejoin="round"/>
<path d="M14.0365 15.0765V14.1987" stroke="black" stroke-width="2.5" stroke-linecap="round" stroke-linejoin="round"/>
</svg>
