<svg width="26" height="23" viewBox="0 0 26 23" fill="none" xmlns="http://www.w3.org/2000/svg">
<path fill-rule="evenodd" clip-rule="evenodd" d="M0 1C0 0.447715 0.447715 0 1 0H25C25.5523 0 26 0.447715 26 1V12.8452L24.2493 13.6087C24.2336 13.6155 24.2181 13.6227 24.2029 13.6304C21.3474 15.0541 19.3269 15.2412 17.7344 14.9147C16.1036 14.5803 14.7797 13.686 13.3095 12.6232C13.217 12.5563 13.1237 12.4886 13.0297 12.4204C11.6784 11.4397 10.1675 10.3432 8.30841 9.79417C6.25965 9.18918 3.88238 9.26474 0.85525 10.5416C0.844875 10.546 0.834575 10.5505 0.824354 10.5552L0 10.9362V1ZM0 13.1395V21.7746C0 22.3269 0.447715 22.7746 1 22.7746H25C25.5523 22.7746 26 22.3269 26 21.7746V15.0271L25.072 15.4318C21.9387 16.9896 19.4662 17.3113 17.3327 16.8739C15.2322 16.4433 13.5933 15.2961 12.1378 14.2441L11.9231 14.0887C10.5096 13.0653 9.25988 12.1605 7.74199 11.7123C6.21089 11.2602 4.31542 11.2558 1.64788 12.3779L0 13.1395ZM18.4855 7.6709C18.2548 7.6709 18.0677 7.85793 18.0677 8.08864C18.0677 8.31935 18.2548 8.50638 18.4855 8.50638C18.7162 8.50638 18.9032 8.31935 18.9032 8.08864C18.9032 7.85793 18.7162 7.6709 18.4855 7.6709ZM16.0677 8.08864C16.0677 6.75336 17.1502 5.6709 18.4855 5.6709C19.8208 5.6709 20.9032 6.75336 20.9032 8.08864C20.9032 9.42392 19.8208 10.5064 18.4855 10.5064C17.1502 10.5064 16.0677 9.42392 16.0677 8.08864Z" fill="black"/>
</svg>
