<svg width="26" height="23" viewBox="0 0 26 23" fill="none" xmlns="http://www.w3.org/2000/svg">
<path fill-rule="evenodd" clip-rule="evenodd" d="M24.5668 0.170898H1.17432C0.622032 0.170898 0.174316 0.618614 0.174316 1.1709V10.2652C3.30476 8.97098 5.76728 8.90399 7.89058 9.531C9.84762 10.1089 11.4385 11.2634 12.8695 12.3019L12.8705 12.3026C12.9692 12.3742 13.0671 12.4453 13.1643 12.5156C14.7194 13.6397 16.1292 14.5933 17.8682 14.9498C19.5678 15.2982 21.7169 15.0968 24.743 13.5893L25.5668 13.1633V1.1709C25.5668 0.618614 25.1191 0.170898 24.5668 0.170898ZM0.174316 21.1509V12.4118L0.791638 12.1743C0.801575 12.1705 0.811451 12.1665 0.821261 12.1624C3.66232 10.964 5.6862 10.9654 7.32417 11.4491C8.93995 11.9262 10.2697 12.8891 11.7627 13.9701L11.9926 14.1364C13.5329 15.2498 15.2578 16.4562 17.4666 16.9091C19.6966 17.3663 22.2841 17.0355 25.5668 15.4132V21.1509C25.5668 21.7032 25.1191 22.1509 24.5668 22.1509H1.17432C0.622031 22.1509 0.174316 21.7032 0.174316 21.1509ZM21.8755 8.24097C21.8755 9.89782 20.5323 11.241 18.8755 11.241C17.2186 11.241 15.8755 9.89782 15.8755 8.24097C15.8755 6.58411 17.2186 5.24097 18.8755 5.24097C20.5323 5.24097 21.8755 6.58411 21.8755 8.24097Z" fill="black"/>
</svg>
