<svg width="28" height="28" viewBox="0 0 28 28" fill="none" xmlns="http://www.w3.org/2000/svg">
<path fill-rule="evenodd" clip-rule="evenodd" d="M13.8108 0.451754C15.6145 0.44507 17.4018 0.794467 19.0702 1.47992C20.7393 2.16561 22.2565 3.17411 23.5348 4.44754C24.8131 5.72098 25.8274 7.23429 26.5195 8.90065C27.2115 10.5666 27.5677 12.3528 27.5679 14.1567L25.359 11.9562C25.2091 11.1738 24.9795 10.407 24.6725 9.66779C24.0814 8.24458 23.2151 6.95209 22.1233 5.86447C21.0315 4.77685 19.7357 3.91552 18.3102 3.32988C17.57 3.02578 16.8025 2.79913 16.0198 2.65231L13.8108 0.451754ZM16.0195 2.65227L16.0198 2.65231L25.359 11.9562L25.3592 11.9575L16.0195 2.65227ZM25.3592 11.9575L27.5679 14.158C27.5707 16.5602 26.9425 18.9089 25.7617 20.9751C25.4877 21.4546 24.8768 21.6212 24.3973 21.3471C23.9178 21.0731 23.7512 20.4622 24.0253 19.9827C25.034 18.2177 25.5705 16.2113 25.5679 14.1593V14.158C25.5679 13.4178 25.4977 12.681 25.3592 11.9575ZM16.0195 2.65227L13.8108 0.451754C10.1726 0.452237 6.68264 1.89414 4.10502 4.46189C1.52694 7.03008 0.0715775 10.5152 0.057635 14.1542L0.0576285 14.1567C0.0550574 16.1548 0.489109 18.1159 1.31458 19.9082C1.48172 20.2711 1.66492 20.6271 1.86378 20.9751C2.13782 21.4546 2.74868 21.6212 3.22818 21.3471C3.70769 21.0731 3.87426 20.4623 3.60023 19.9827C3.43039 19.6856 3.27393 19.3815 3.13118 19.0716C2.42631 17.5411 2.05562 15.8666 2.05763 14.1606C2.06987 11.0512 3.31358 8.0733 5.51651 5.87881C7.71974 3.68403 10.7029 2.45173 13.8127 2.45175L13.8166 2.45175C14.5574 2.4489 15.2949 2.51637 16.0195 2.65227ZM10.1467 5.22102C11.323 4.73843 12.583 4.49281 13.8545 4.49826C16.4163 4.49885 18.8732 5.51605 20.6858 7.32656C22.4989 9.13759 23.5189 11.5943 23.5218 14.1569L23.5218 14.1668H23.5218C23.5104 15.4625 23.2372 16.7402 22.7211 17.9237C22.5004 18.4299 21.911 18.6614 21.4048 18.4407C20.8985 18.2199 20.6671 17.6306 20.8878 17.1243C21.2958 16.1886 21.5121 15.1786 21.5218 14.1542C21.5182 12.1234 20.7093 10.1769 19.2724 8.74157C17.8343 7.30511 15.8848 6.49826 13.8522 6.49826H13.8477V6.49825C12.8389 6.49369 11.8391 6.68846 10.9058 7.07136C9.97248 7.45426 9.12398 8.01776 8.40904 8.72949C7.69409 9.44122 7.12677 10.2872 6.73967 11.2188C6.35311 12.149 6.15387 13.1464 6.15332 14.1538C6.16262 15.179 6.37919 16.1899 6.78797 17.1262C7.00895 17.6323 6.77777 18.2218 6.27162 18.4427C5.76547 18.6637 5.17602 18.4325 4.95504 17.9264C4.43799 16.7421 4.1644 15.4634 4.15336 14.1666L4.15328 14.1581H4.15332C4.15331 12.8859 4.40459 11.6262 4.89277 10.4513C5.38095 9.27648 6.0964 8.20966 6.99801 7.31209C7.89963 6.41452 8.96968 5.7039 10.1467 5.22102ZM10.6117 16.6085L11.4731 17.6354C12.0364 18.3069 11.7161 19.3361 10.8711 19.5692L9.47978 19.9532C6.30704 20.8286 4.10938 23.7148 4.10938 27.0061C4.10938 27.1408 4.21857 27.25 4.35326 27.25H23.8656C24.0002 27.25 24.1094 27.1408 24.1094 27.0062C24.1094 23.7153 21.9117 20.8296 18.7392 19.9548L17.3399 19.569C16.4948 19.336 16.1743 18.3067 16.7377 17.6352L17.599 16.6085C19.1222 14.7928 19.0006 12.1128 17.3191 10.4424C15.5407 8.67586 12.6699 8.67586 10.8915 10.4424C9.21003 12.1128 9.0884 14.7928 10.6117 16.6085Z" fill="black"/>
</svg>
