<svg width="27" height="26" viewBox="0 0 27 26" fill="none" xmlns="http://www.w3.org/2000/svg">
<path fill-rule="evenodd" clip-rule="evenodd" d="M13.053 8.89641e-05C14.7649 -0.00624188 16.4612 0.325372 18.0446 0.975927C19.6287 1.62673 21.0687 2.58389 22.282 3.79252C23.4952 5.00115 24.4579 6.43744 25.1148 8.019C25.7717 9.60056 26.1098 11.2963 26.1098 13.0088L26.1098 13.0075L25.1098 13.0088L26.1098 13.0088C26.1125 15.2887 25.5162 17.5179 24.3955 19.4789C24.1215 19.9584 23.5106 20.1249 23.0311 19.8509C22.5516 19.5769 22.3851 18.966 22.6591 18.4865C23.6077 16.8267 24.1123 14.9398 24.1098 13.0101V13.0088C24.1098 11.5595 23.8237 10.1245 23.2678 8.78613C22.7119 7.44773 21.8972 6.23226 20.8705 5.20945C19.8437 4.18664 18.6251 3.37663 17.2846 2.82589C15.9441 2.27514 14.508 1.99451 13.0587 2.00008L13.0549 2.00009C10.1303 2.00007 7.32484 3.15896 5.25286 5.223C3.18118 7.28674 2.01155 10.0872 2.00001 13.0113L2.00001 13.0101L1.00001 13.0088L2 13.0126L2.00001 13.0113C1.99813 14.6157 2.34672 16.1904 3.00959 17.6296C3.14383 17.9211 3.29097 18.207 3.45069 18.4865C3.72472 18.966 3.55815 19.5769 3.07864 19.8509C2.59914 20.1249 1.98828 19.9584 1.71425 19.4789C1.5255 19.1486 1.35163 18.8107 1.19299 18.4663C0.409532 16.7652 -0.0024295 14.9038 1.07786e-05 13.0075L1.72755e-05 13.005C0.0132499 9.55126 1.39453 6.24353 3.84136 3.80608C6.28774 1.36907 9.59995 0.000572954 13.053 8.89641e-05ZM13.053 8.89641e-05L13.0511 9.62359e-05L13.0549 1.00009L13.0549 8.88449e-05L13.053 8.89641e-05ZM9.56927 4.51164C10.6877 4.05281 11.8856 3.81929 13.0944 3.82445C15.5301 3.82504 17.8661 4.79216 19.5894 6.51353C21.3132 8.23543 22.2831 10.5712 22.2858 13.0077L22.2858 13.0176L22.2858 13.0176C22.275 14.2496 22.0152 15.4644 21.5245 16.5897C21.3038 17.0959 20.7144 17.3274 20.2082 17.1066C19.7019 16.8859 19.4705 16.2966 19.6912 15.7903C20.0738 14.9128 20.2767 13.9656 20.2858 13.005C20.2824 11.1003 19.5237 9.27469 18.176 7.92854C16.8272 6.58123 14.9987 5.82444 13.0922 5.82445H13.0877V5.82444C12.1415 5.82016 11.2038 6.00284 10.3284 6.36198C9.45298 6.72111 8.65714 7.24964 7.98657 7.91719C7.31599 8.58475 6.78388 9.3782 6.42081 10.252C6.05828 11.1244 5.87141 12.0598 5.87086 13.0046C5.87962 13.966 6.08273 14.914 6.46608 15.792C6.68706 16.2982 6.45588 16.8876 5.94973 17.1086C5.44358 17.3296 4.85413 17.0984 4.63315 16.5923C4.14153 15.4662 3.88139 14.2504 3.87089 13.0173L3.87082 13.0088H3.87086C3.87084 11.7992 4.10976 10.6015 4.57391 9.48453C5.03806 8.36751 5.7183 7.35319 6.57555 6.4998C7.43279 5.6464 8.45018 4.97075 9.56927 4.51164ZM10.0296 15.3248L10.8437 16.2953C11.3761 16.9299 11.0733 17.9026 10.2748 18.1229L8.9598 18.4858C5.96124 19.3132 3.88422 22.0409 3.88422 25.1516C3.88422 25.2789 3.98742 25.382 4.11472 25.382H22.5558C22.6831 25.382 22.7863 25.2789 22.7863 25.1516C22.7863 22.0414 20.7092 19.3141 17.7109 18.4874L16.3884 18.1227C15.5897 17.9025 15.2868 16.9297 15.8193 16.2951L16.6332 15.3248C18.0729 13.6087 17.9579 11.0758 16.3687 9.49718C14.688 7.8276 11.9748 7.82761 10.2941 9.49718C8.70486 11.0758 8.5899 13.6087 10.0296 15.3248Z" fill="black"/>
</svg>
