<svg width="24" height="26" viewBox="0 0 24 26" fill="none" xmlns="http://www.w3.org/2000/svg">
<path fill-rule="evenodd" clip-rule="evenodd" d="M1.41571 3.6571C1.01389 3.79706 0.744629 4.17596 0.744629 4.60146V18.0093C0.744629 18.3573 0.925539 18.6803 1.22229 18.8621L11.4933 25.1536C11.8139 25.35 12.2176 25.3499 12.5382 25.1535L22.9637 18.7643C23.2603 18.5825 23.4411 18.2596 23.4411 17.9117V4.60167C23.4411 4.17607 23.1718 3.7971 22.7698 3.65722L12.4165 0.054451C12.2036 -0.019647 11.9719 -0.0196143 11.759 0.0545436L1.41571 3.6571ZM6.85761 10.7358C6.85761 10.1835 7.30532 9.73579 7.85761 9.73579H8.39573V9.46749C8.39573 8.5163 8.77359 7.60406 9.44619 6.93146C10.1188 6.25886 11.031 5.881 11.9822 5.881H11.9861V5.88101C12.9349 5.88468 13.8436 6.26415 14.5132 6.93635C15.1828 7.60855 15.5587 8.5187 15.5587 9.4675V9.73579H16.1064C16.6587 9.73579 17.1064 10.1835 17.1064 10.7358V15.9387C17.1064 16.491 16.6587 16.9387 16.1064 16.9387H7.85761C7.30532 16.9387 6.85761 16.491 6.85761 15.9387V10.7358ZM13.5587 9.73579V9.46749V9.46748C13.5587 9.04778 13.3924 8.64517 13.0962 8.34783C12.8005 8.05093 12.3993 7.88313 11.9803 7.88101C11.5602 7.88152 11.1575 8.04861 10.8604 8.34568C10.5629 8.6432 10.3957 9.04673 10.3957 9.46749V9.73579H13.5587ZM8.85761 11.7358V14.9387H15.1064V11.7358H8.85761Z" fill="black"/>
</svg>
