<svg width="28" height="28" viewBox="0 0 28 28" fill="none" xmlns="http://www.w3.org/2000/svg">
<g clip-path="url(#clip0_180_544)">
<path fill-rule="evenodd" clip-rule="evenodd" d="M22.6762 2.49015C22.6762 1.93786 22.2285 1.49015 21.6762 1.49015L3.21464 1.49015C2.66236 1.49015 2.21464 1.93786 2.21464 2.49015L2.21464 26.4901C2.21464 27.0424 2.66236 27.4901 3.21464 27.4901L21.6762 27.4901C22.2285 27.4902 22.6762 27.0424 22.6762 26.4901L22.6762 2.49015ZM14.0555 7.93038C14.1993 8.08776 14.3106 8.27194 14.3832 8.47242C14.4557 8.67289 14.4881 8.88576 14.4783 9.09887C14.4686 9.31198 14.417 9.52117 14.3264 9.71448C14.2367 9.90594 14.1105 10.0781 13.9548 10.2213C13.6338 10.5052 13.2138 10.651 12.7862 10.6269C12.3565 10.6028 11.9543 10.4092 11.6677 10.0888L11.6677 10.0888L11.6608 10.0813C11.5171 9.92389 11.4057 9.73971 11.3332 9.53924C11.2606 9.33876 11.2283 9.12589 11.238 8.91279C11.2477 8.69967 11.2994 8.49049 11.39 8.29718C11.4797 8.10565 11.606 7.93345 11.7617 7.79024C12.0825 7.50615 12.5026 7.36025 12.9302 7.3843C13.3598 7.40845 13.7619 7.60209 14.0484 7.92251L14.0484 7.92255L14.0555 7.93038ZM16.2638 7.79186C16.1025 7.34594 15.8551 6.93607 15.5358 6.58549C14.896 5.87202 13.9995 5.44126 13.0425 5.38745C12.0838 5.33355 11.1428 5.66236 10.4261 6.3015L10.4261 6.30145L10.4173 6.3094C10.0658 6.6304 9.78095 7.01746 9.57895 7.44849C9.37696 7.87952 9.2618 8.3461 9.2401 8.8216C9.2184 9.29711 9.29058 9.77222 9.45255 10.2198C9.61393 10.6658 9.86131 11.0757 10.1806 11.4263C10.6696 11.9712 11.3083 12.3511 12.0092 12.524L12.0024 15.9871L9.50269 15.9822C8.95082 15.9811 8.5024 16.4273 8.50074 16.9792L8.48979 20.6182C8.48899 20.8836 8.59377 21.1385 8.78103 21.3266C8.96829 21.5148 9.22267 21.6207 9.48812 21.6212L11.9914 21.6254L11.9894 22.6286C11.9883 23.1809 12.4352 23.6295 12.9874 23.6306C13.5397 23.6317 13.9883 23.1848 13.9894 22.6325L14.0094 12.4482C14.4779 12.2943 14.9147 12.0449 15.29 11.7104L15.29 11.7105L15.299 11.7023C15.6505 11.3813 15.9354 10.9942 16.1374 10.5632C16.3394 10.1321 16.4546 9.66556 16.4763 9.19005C16.498 8.71455 16.4258 8.23943 16.2638 7.79186ZM10.4977 17.9842L11.9985 17.9871L11.9953 19.6254L10.4928 19.6228L10.4977 17.9842Z" fill="black"/>
</g>
<defs>
<clipPath id="clip0_180_544">
<rect width="28" height="28" fill="white"/>
</clipPath>
</defs>
</svg>
