<svg width="25" height="26" viewBox="0 0 25 26" fill="none" xmlns="http://www.w3.org/2000/svg">
<path fill-rule="evenodd" clip-rule="evenodd" d="M12.4268 0C9.10744 0 6.05692 0.895282 3.80705 2.3952C1.56419 3.89044 0.020874 6.0659 0.020874 8.60396C0.020874 8.75818 0.0265717 8.91105 0.0377779 9.06252C0.0266774 9.12218 0.020874 9.1837 0.020874 9.24658V13.3402C0.00719083 13.4061 0 13.4744 0 13.5444V17.8711C0 20.4285 1.5652 22.4904 3.82067 23.8642C6.07423 25.2369 9.11548 25.9998 12.4059 25.9998C15.6964 25.9998 18.7377 25.2369 20.9912 23.8642C23.2467 22.4904 24.8119 20.4285 24.8119 17.8711V14.0527C24.8257 13.8857 24.8328 13.7163 24.8328 13.5447V9.24658C24.8328 9.1837 24.827 9.12219 24.8159 9.06253C24.8271 8.91106 24.8328 8.75818 24.8328 8.60396C24.8328 6.0659 23.2894 3.89044 21.0466 2.3952C18.7967 0.895282 15.7462 0 12.4268 0ZM3.82067 19.5376C6.00968 20.8709 8.94191 21.6289 12.1238 21.6713C12.2246 21.6727 12.3256 21.6734 12.4268 21.6734C15.7173 21.6734 18.7585 20.9105 21.0121 19.5379C21.6761 19.1334 22.2802 18.6693 22.8023 18.1506C22.6963 19.6831 21.7168 21.0805 19.9508 22.1561C18.0761 23.298 15.4144 23.9998 12.4059 23.9998C9.39748 23.9998 6.73575 23.298 4.86107 22.1561C3.08642 21.0752 2.10598 19.6694 2.00812 18.128C2.53523 18.6558 3.14717 19.1273 3.82067 19.5376ZM22.8328 13.3141V13.3412C22.8191 13.4071 22.8119 13.4754 22.8119 13.5454C22.8119 15.1872 21.8236 16.6894 19.9509 17.8299C18.0762 18.9716 15.4145 19.6731 12.4059 19.6731C12.3206 19.6731 12.2355 19.6726 12.1508 19.6715C9.25568 19.6299 6.69908 18.9366 4.88195 17.8298C3.00918 16.6891 2.02087 15.1866 2.02087 13.5447V13.3141C2.54036 13.8678 3.14304 14.3701 3.80705 14.8127C5.49445 15.9377 7.63222 16.7225 9.996 17.0446C10.0683 17.0545 10.1409 17.0639 10.2136 17.0729C10.9331 17.1618 11.6729 17.208 12.4268 17.208C13.1791 17.208 13.9173 17.162 14.6354 17.0734C14.7097 17.0643 14.7838 17.0547 14.8576 17.0446C17.2214 16.7225 19.3592 15.9377 21.0466 14.8127C21.7106 14.3701 22.3133 13.8678 22.8328 13.3141ZM10.639 4.83973C10.8636 4.50425 11.2679 4.33673 11.6639 4.41503L14.7304 5.02125C14.8446 5.04384 14.954 5.0862 15.0537 5.14644L17.6729 6.72946C17.9736 6.91124 18.1569 7.23755 18.1556 7.58898C18.1543 7.9404 17.9686 8.26536 17.6665 8.44491L16.5523 9.10715C16.2326 9.29719 15.8338 9.29407 15.5171 9.09904L14.4185 8.4226L9.15601 11.931C8.69648 12.2374 8.07561 12.1132 7.76926 11.6537C7.4629 11.1941 7.58707 10.5733 8.0466 10.2669L12.5442 7.26847L10.9283 6.27347C10.6969 6.13096 10.5334 5.90036 10.4756 5.63478C10.4177 5.3692 10.4705 5.09151 10.6217 4.86564L10.639 4.83973Z" fill="black"/>
</svg>
