<svg width="25" height="26" viewBox="0 0 25 26" fill="none" xmlns="http://www.w3.org/2000/svg">
<path fill-rule="evenodd" clip-rule="evenodd" d="M24.1088 8.17125C24.1092 8.14625 24.1094 8.12121 24.1094 8.09615C24.1094 3.76312 18.7364 0.25 12.1094 0.25C5.48238 0.25 0.109375 3.76312 0.109375 8.09615C0.109375 8.12124 0.109555 8.1463 0.109914 8.17133C0.0600324 8.29024 0.0324707 8.42083 0.0324707 8.55786V12.25V12.7244V16.7824C0.0324707 19.4032 1.52085 21.5515 3.72787 23.0015C5.92647 24.4461 8.89628 25.25 12.1094 25.25C15.3225 25.25 18.2923 24.4461 20.4909 23.0015C22.6979 21.5515 24.1863 19.4032 24.1863 16.7824V12.7244V12.251V8.55786C24.1863 8.4208 24.1587 8.29019 24.1088 8.17125ZM10.6639 5.40625H13.6971C13.5917 5.08327 13.2881 4.8499 12.9299 4.8499H11.4311C11.073 4.8499 10.7693 5.08327 10.6639 5.40625ZM15.7341 5.53353C16.9681 5.90557 17.8668 7.05095 17.8668 8.40625V8.66661C17.8668 10.3235 16.5236 11.6666 14.8668 11.6666H9.49401C7.83715 11.6666 6.49401 10.3235 6.49401 8.66661V8.40625C6.49401 7.05086 7.39285 5.90541 8.62697 5.53345C8.69149 4.04048 9.92227 2.8499 11.4311 2.8499H12.9299C14.4388 2.8499 15.6696 4.04052 15.7341 5.53353ZM8.49401 8.40625C8.49401 7.85397 8.94172 7.40625 9.49401 7.40625H14.8668C15.4191 7.40625 15.8668 7.85397 15.8668 8.40625V8.66661C15.8668 9.21889 15.4191 9.66661 14.8668 9.66661H9.49401C8.94172 9.66661 8.49401 9.21889 8.49401 8.66661V8.40625ZM20.1456 14.2005C20.9056 13.7325 21.5924 13.1887 22.1749 12.5796C22.0602 14.2242 21.0831 15.6878 19.3928 16.7981C18.8913 17.1275 18.3317 17.4217 17.7229 17.6749C16.1326 18.2831 14.2085 18.6348 12.1094 18.6348C10.0142 18.6348 8.09335 18.2844 6.5047 17.6783C5.89252 17.4242 5.32994 17.1287 4.82608 16.7977C3.1361 15.6873 2.15902 14.2239 2.04395 12.5797C2.62649 13.1887 3.31324 13.7325 4.07318 14.2005C6.22194 15.5236 9.0463 16.3061 12.1094 16.3061C15.1725 16.3061 17.9968 15.5236 20.1456 14.2005ZM20.4613 18.5606C19.8514 18.9314 19.1823 19.2564 18.4654 19.5323C16.6032 20.3023 14.4192 20.7176 12.1094 20.7176C9.80386 20.7176 7.62359 20.3037 5.76361 19.5362C5.04283 19.2595 4.37031 18.9332 3.75746 18.5606C3.12897 18.1784 2.55506 17.7412 2.05599 17.2533C2.21574 18.84 3.18464 20.2516 4.82608 21.33C6.63662 22.5196 9.20527 23.25 12.1094 23.25C15.0135 23.25 17.5822 22.5196 19.3927 21.33C21.0341 20.2516 22.003 18.84 22.1628 17.2533C21.6637 17.7412 21.0898 18.1784 20.4613 18.5606Z" fill="black"/>
</svg>
