<svg width="22" height="28" viewBox="0 0 22 28" fill="none" xmlns="http://www.w3.org/2000/svg">
<path fill-rule="evenodd" clip-rule="evenodd" d="M20.1094 0.25H1.10938C0.557091 0.25 0.109375 0.697715 0.109375 1.25V26.25C0.109375 26.8023 0.557091 27.25 1.10938 27.25H20.1094C20.6617 27.25 21.1094 26.8023 21.1094 26.25V8.03846V6.97924V1.25C21.1094 0.697715 20.6617 0.25 20.1094 0.25ZM4.76855 5.99585C4.21627 5.99585 3.76855 5.54813 3.76855 4.99585C3.76855 4.44356 4.21627 3.99585 4.76855 3.99585H16.5129C17.0652 3.99585 17.5129 4.44356 17.5129 4.99585C17.5129 5.54813 17.0652 5.99585 16.5129 5.99585H4.76855ZM3.76855 8.91064C3.76855 8.35836 4.21627 7.91064 4.76855 7.91064H16.5129C17.0652 7.91064 17.5129 8.35836 17.5129 8.91064C17.5129 9.46293 17.0652 9.91064 16.5129 9.91064H4.76855C4.21627 9.91064 3.76855 9.46293 3.76855 8.91064ZM17.2201 18.6241C17.6107 18.2336 17.6107 17.6004 17.2201 17.2099C16.8296 16.8194 16.1965 16.8194 15.8059 17.2099L12.7961 20.2197L11.9615 19.385C11.571 18.9945 10.9378 18.9945 10.5473 19.3851C10.1568 19.7756 10.1568 20.4087 10.5473 20.7993L12.089 22.341C12.4795 22.7315 13.1127 22.7315 13.5032 22.341L17.2201 18.6241Z" fill="black"/>
</svg>
