<svg width="22" height="27" viewBox="0 0 22 27" fill="none" xmlns="http://www.w3.org/2000/svg">
<path fill-rule="evenodd" clip-rule="evenodd" d="M20.1094 0.25H1.10938C0.557089 0.25 0.109375 0.697715 0.109375 1.25V25.25C0.109375 25.8023 0.557089 26.25 1.10938 26.25H20.1094C20.6617 26.25 21.1094 25.8023 21.1094 25.25V7.75V6.73001V1.25C21.1094 0.697715 20.6617 0.25 20.1094 0.25ZM9.51752 8.77794C10.1169 8.17049 11.0973 8.17049 11.6968 8.77794C12.2474 9.33599 12.2875 10.2199 11.7895 10.8255L11.2843 11.4399C10.5128 12.378 10.9591 13.7995 12.1283 14.1284L12.7741 14.3101C14.1552 14.6986 15.1094 15.9582 15.1094 17.3929V18.25H10.6071H6.10938V17.3898C6.10938 15.9566 7.0624 14.6983 8.44195 14.3099L9.08634 14.1285C10.2554 13.7994 10.7015 12.3781 9.93009 11.44L9.42476 10.8255C8.9268 10.2199 8.96685 9.33599 9.51752 8.77794ZM13.1204 7.37317C11.7378 5.97208 9.4765 5.97208 8.09393 7.37317C6.8238 8.66032 6.73144 10.699 7.87998 12.0957L8.07673 12.335L7.90002 12.3848C5.65813 13.0158 4.10938 15.0608 4.10938 17.3898V19.25C4.10938 19.8023 4.55709 20.25 5.10938 20.25H10.6071H16.1094C16.6617 20.25 17.1094 19.8023 17.1094 19.25V17.3929C17.1094 15.0622 15.5593 13.0159 13.3157 12.3848L13.1378 12.3348L13.3343 12.0957C14.4829 10.699 14.3905 8.66032 13.1204 7.37317Z" fill="black"/>
</svg>
