<svg width="21" height="26" viewBox="0 0 21 26" fill="none" xmlns="http://www.w3.org/2000/svg">
<path fill-rule="evenodd" clip-rule="evenodd" d="M20.4615 1C20.4615 0.447715 20.0138 0 19.4615 0H1.00001C0.447725 0 9.53674e-06 0.447715 9.53674e-06 1V25C9.53674e-06 25.5523 0.447725 26 1.00001 26H19.4615C20.0138 26 20.4615 25.5523 20.4615 25V1ZM9.13767 8.28814C9.6976 7.73598 10.5972 7.73598 11.1572 8.28814C11.6922 8.81577 11.7308 9.66638 11.2458 10.2403L10.7951 10.7736C10.0224 11.688 10.4593 13.0954 11.614 13.4115L12.2769 13.5929C13.5979 13.9545 14.514 15.155 14.514 16.5246V17.226H5.78522V16.5216C5.78522 15.1534 6.70011 13.9542 8.01964 13.5928L8.68121 13.4115C9.83573 13.0953 10.2724 11.688 9.49979 10.7738L9.04901 10.2403C8.56399 9.66638 8.60262 8.81577 9.13767 8.28814ZM12.5614 6.86408C11.2228 5.54401 9.07204 5.54401 7.73338 6.86408C6.45421 8.12549 6.36185 10.1591 7.52142 11.5312L7.60673 11.6322L7.49126 11.6638C5.30267 12.2633 3.78522 14.2523 3.78522 16.5216V18.226C3.78522 18.7783 4.23293 19.226 4.78522 19.226H15.514C16.0662 19.226 16.514 18.7783 16.514 18.226V16.5246C16.514 14.2538 14.9952 12.2634 12.8049 11.6639L12.6883 11.632L12.7734 11.5312C13.933 10.1591 13.8406 8.12549 12.5614 6.86408Z" fill="black"/>
</svg>
