<svg width="26" height="27" viewBox="0 0 26 27" fill="none" xmlns="http://www.w3.org/2000/svg">
<path fill-rule="evenodd" clip-rule="evenodd" d="M-2.67506e-05 9.055C-2.6823e-05 9.60728 0.447688 10.055 0.999973 10.055C1.55226 10.055 1.99997 9.60729 1.99997 9.055L1.99997 2.375L8.67997 2.375C9.23226 2.375 9.67997 1.92729 9.67997 1.375C9.67997 0.822716 9.23226 0.375 8.67997 0.375H0.999974C0.44769 0.375 -2.5671e-05 0.822715 -2.57435e-05 1.375L-2.67506e-05 9.055ZM17.32 0.375034C16.7677 0.375034 16.32 0.822749 16.32 1.37503C16.32 1.92732 16.7677 2.37503 17.32 2.37503H24V9.05503C24 9.60732 24.4477 10.055 25 10.055C25.5523 10.055 26 9.60732 26 9.05503V1.37503C26 0.822749 25.5523 0.375034 25 0.375034H17.32ZM8.67994 26.375C9.23222 26.375 9.67994 25.9273 9.67994 25.375C9.67994 24.8228 9.23222 24.375 8.67994 24.375H1.99994L1.99994 16.735C1.99994 16.1827 1.55222 15.735 0.99994 15.735C0.447655 15.735 -6.10352e-05 16.1827 -6.10352e-05 16.735V25.375C-6.10352e-05 25.9273 0.447654 26.375 0.999939 26.375H8.67994ZM25 16.6951C25.5523 16.6951 26 17.1428 26 17.6951V25.3751C26 25.9274 25.5523 26.3751 25 26.3751H17.32C16.7677 26.3751 16.32 25.9274 16.32 25.3751C16.32 24.8228 16.7677 24.3751 17.32 24.3751L24 24.3751V17.6951C24 17.1428 24.4477 16.6951 25 16.6951ZM5.00006 4.375C4.44778 4.375 4.00006 4.82272 4.00006 5.375V11.375C4.00006 11.9273 4.44778 12.375 5.00006 12.375H11.0001C11.5523 12.375 12.0001 11.9273 12.0001 11.375V5.375C12.0001 4.82272 11.5523 4.375 11.0001 4.375H5.00006ZM15.0002 4.37502C14.4479 4.37502 14.0002 4.82273 14.0002 5.37502V11.375C14.0002 11.9273 14.4479 12.375 15.0002 12.375H21.0002C21.5525 12.375 22.0002 11.9273 22.0002 11.375V5.37502C22.0002 4.82273 21.5525 4.37502 21.0002 4.37502H15.0002ZM15.0002 14.375C14.4479 14.375 14.0002 14.8227 14.0002 15.375V21.375C14.0002 21.9273 14.4479 22.375 15.0002 22.375H21.0002C21.5525 22.375 22.0002 21.9273 22.0002 21.375V15.375C22.0002 14.8227 21.5525 14.375 21.0002 14.375H15.0002ZM5.00013 14.375C4.44785 14.375 4.00013 14.8227 4.00013 15.375V21.375C4.00013 21.9273 4.44785 22.375 5.00013 22.375H11.0001C11.5524 22.375 12.0001 21.9273 12.0001 21.375V15.375C12.0001 14.8227 11.5524 14.375 11.0001 14.375H5.00013Z" fill="black"/>
</svg>
