<svg width="28" height="24" viewBox="0 0 28 24" fill="none" xmlns="http://www.w3.org/2000/svg">
<path fill-rule="evenodd" clip-rule="evenodd" d="M22.0545 18L25.5 18C26.0523 18 26.5 18.4477 26.5 19C26.5 19.5523 26.0523 20 25.5 20L22.0545 20C18.9344 20 16.0369 18.384 14.3973 15.7295L10.4394 9.3215C9.16416 7.25686 6.91056 6 4.48384 6L1.25914 6C0.706859 6 0.259143 5.55228 0.259143 5C0.259143 4.44771 0.706859 4 1.25914 4L4.48384 4C7.60391 4 10.5014 5.61596 12.141 8.2705L16.0989 14.6785C17.3742 16.7431 19.6278 18 22.0545 18Z" fill="black"/>
<path fill-rule="evenodd" clip-rule="evenodd" d="M21.704 23.7211C21.3057 23.3385 21.293 22.7054 21.6757 22.3072L24.8532 18.9998L21.6757 15.6928C21.2931 15.2946 21.3057 14.6616 21.7039 14.2789C22.1022 13.8963 22.7352 13.9089 23.1179 14.3071L26.9611 18.3069C27.3329 18.694 27.333 19.3056 26.9611 19.6926L23.1179 23.6928C22.7353 24.0911 22.1022 24.1037 21.704 23.7211Z" fill="black"/>
<path fill-rule="evenodd" clip-rule="evenodd" d="M22.0545 6L25.5 6C26.0523 6 26.5 5.55229 26.5 5C26.5 4.44772 26.0523 4 25.5 4L22.0545 4C18.9344 4 16.0369 5.61597 14.3973 8.2705L10.4394 14.6785C9.16416 16.7431 6.91056 18 4.48384 18L1.25914 18C0.706859 18 0.259143 18.4477 0.259143 19C0.259143 19.5523 0.706859 20 1.25914 20L4.48384 20C7.60391 20 10.5014 18.384 12.141 15.7295L16.0989 9.3215C17.3742 7.25686 19.6278 6 22.0545 6Z" fill="black"/>
<path fill-rule="evenodd" clip-rule="evenodd" d="M21.704 0.278885C21.3057 0.661516 21.293 1.29455 21.6757 1.69282L24.8532 5.00017L21.6757 8.30715C21.2931 8.70539 21.3057 9.33843 21.7039 9.72108C22.1022 10.1037 22.7352 10.0911 23.1179 9.69285L26.9611 5.69305C27.3329 5.30602 27.333 4.69444 26.9611 4.30739L23.1179 0.307188C22.7353 -0.0910738 22.1022 -0.103745 21.704 0.278885Z" fill="black"/>
</svg>
