<svg width="28" height="28" viewBox="0 0 28 28" fill="red" xmlns="http://www.w3.org/2000/svg">
<path fill-rule="evenodd" clip-rule="evenodd" d="M3 14C3 20.0751 7.92487 25 14 25C14.7872 25 15.554 24.9175 16.2927 24.7609C16.833 24.6464 17.3638 24.9916 17.4783 25.5319C17.5928 26.0722 17.2476 26.603 16.7073 26.7175C15.8332 26.9027 14.9274 27 14 27C6.8203 27 1 21.1797 1 14C1 6.8203 6.8203 1 14 1C14.9274 1 15.8332 1.09727 16.7073 1.28251C17.2476 1.39701 17.5928 1.92781 17.4783 2.4681C17.3638 3.00839 16.833 3.35356 16.2927 3.23906C15.554 3.08253 14.7872 3 14 3C7.92487 3 3 7.92487 3 14ZM21.3889 24.6973C20.9348 25.0116 20.3118 24.8981 19.9976 24.444C19.6833 23.9898 19.7967 23.3669 20.2509 23.0526C21.3282 22.3072 22.2662 21.3743 23.0175 20.3014C23.3343 19.849 23.9578 19.739 24.4102 20.0558C24.8626 20.3726 24.9726 20.9961 24.6558 21.4485C23.7686 22.7156 22.6612 23.817 21.3889 24.6973ZM26.7454 16.5718C26.6367 17.1133 26.1097 17.4641 25.5682 17.3554C25.0267 17.2467 24.6759 16.7196 24.7846 16.1781C24.9258 15.4749 25 14.7466 25 14C25 13.2534 24.9258 12.5251 24.7846 11.8219C24.6759 11.2804 25.0267 10.7533 25.5682 10.6446C26.1097 10.5359 26.6367 10.8867 26.7454 11.4282C26.9125 12.2603 27 13.1205 27 14C27 14.8795 26.9125 15.7397 26.7454 16.5718ZM24.6558 6.55145C24.9726 7.00385 24.8626 7.6274 24.4102 7.94418C23.9578 8.26096 23.3343 8.15101 23.0175 7.69861C22.2662 6.62567 21.3282 5.69279 20.2509 4.94737C19.7967 4.63311 19.6833 4.01019 19.9976 3.55603C20.3118 3.10186 20.9348 2.98844 21.3889 3.30269C22.6612 4.18303 23.7686 5.28437 24.6558 6.55145ZM17.707 14.0581C18.0976 14.4486 18.0977 15.0817 17.7073 15.4723L14.7086 18.4723C14.3182 18.8629 13.6851 18.8631 13.2945 18.4728L10.2932 15.4737C9.90249 15.0833 9.90225 14.4502 10.2926 14.0595C10.683 13.6688 11.3162 13.6686 11.7068 14.059L12.9999 15.3511L12.9999 9.62501C12.9999 9.07272 13.4476 8.625 13.9999 8.625C14.5522 8.625 14.9999 9.07271 14.9999 9.62499L14.9999 15.3518L16.2927 14.0584C16.6832 13.6678 17.3163 13.6677 17.707 14.0581Z" fill="black"/>
</svg>
