<svg width="28" height="28" viewBox="0 0 28 28" fill="none" xmlns="http://www.w3.org/2000/svg">
<path d="M14 2C14.8573 2 15.6936 2.0899 16.5 2.26079M14 26C14.8573 26 15.6936 25.9101 16.5 25.7392M20.8199 4.12503C21.9947 4.93791 23.0174 5.95502 23.8366 7.12503M25.765 11.625C25.9191 12.3927 26 13.1869 26 14C26 14.8131 25.9191 15.6073 25.765 16.375M20.8199 23.875C21.9947 23.0621 23.0174 22.045 23.8366 20.875" stroke="black" stroke-width="2" stroke-linecap="round" stroke-linejoin="round"/>
<path d="M14 2C7.37258 2 2 7.37258 2 14C2 20.6274 7.37258 26 14 26" stroke="black" stroke-width="2" stroke-linecap="round" stroke-linejoin="round"/>
<path d="M17 14.7651L14.0013 17.7651L11 14.7661" stroke="black" stroke-width="2" stroke-linecap="round" stroke-linejoin="round"/>
<path d="M13.9999 16.625L13.9999 9.625" stroke="black" stroke-width="2" stroke-linecap="round" stroke-linejoin="round"/>
</svg>
