<svg width="26" height="26" viewBox="0 0 26 26" fill="none" xmlns="http://www.w3.org/2000/svg">
<path fill-rule="evenodd" clip-rule="evenodd" d="M13 0C20.1797 0 26 5.8203 26 13C26 20.1797 20.1797 26 13 26C5.8203 26 0 20.1797 0 13C0 5.8203 5.8203 0 13 0ZM8.13672 18.8634C8.13672 18.3111 8.58443 17.8634 9.13672 17.8634H17.1367C17.689 17.8634 18.1367 18.3111 18.1367 18.8634C18.1367 19.4157 17.689 19.8634 17.1367 19.8634H9.13672C8.58443 19.8634 8.13672 19.4157 8.13672 18.8634ZM16.8581 12.4293C17.2404 12.0307 17.2273 11.3977 16.8287 11.0154C16.4301 10.6331 15.7971 10.6462 15.4148 11.0448L14.1378 12.3761L14.1378 6.86328C14.1378 6.311 13.6901 5.86328 13.1378 5.86328C12.5855 5.86328 12.1378 6.311 12.1378 6.86328L12.1378 12.3783L10.8577 11.0454C10.4752 10.647 9.84215 10.6342 9.4438 11.0168C9.04546 11.3993 9.03265 12.0323 9.4152 12.4307L12.4165 15.5559C12.6051 15.7524 12.8657 15.8634 13.1381 15.8633C13.4104 15.8632 13.6709 15.7521 13.8594 15.5555L16.8581 12.4293Z" fill="black"/>
</svg>
