<svg width="26" height="25" viewBox="0 0 26 25" fill="none" xmlns="http://www.w3.org/2000/svg">
<path fill-rule="evenodd" clip-rule="evenodd" d="M21.9998 6C23.6566 6 24.9998 4.65685 24.9998 3C24.9998 1.34315 23.6566 0 21.9998 0C20.8603 0 19.8691 0.635325 19.3613 1.57108L17.3076 1.11471L14.8531 0.569254C14.317 0.450134 13.7852 0.785531 13.6618 1.32058L12.1152 8.02243C9.42617 8.15926 6.98751 8.91469 5.09917 10.0825L5.05708 10.0238C4.52139 9.49096 3.77724 9.16071 2.95455 9.16071C1.3228 9.16071 0 10.4599 0 12.0625C0 13.0119 0.464191 13.8547 1.18182 14.3841L1.4108 14.5254C1.2606 15.0425 1.18182 15.5774 1.18182 16.125C1.18182 20.6123 6.473 24.25 13 24.25C19.527 24.25 24.8182 20.6123 24.8182 16.125C24.8182 15.581 24.7404 15.0495 24.5921 14.5354C25.4368 14.0247 26 13.1082 26 12.0625C26 10.4599 24.6772 9.16071 23.0455 9.16071C22.196 9.16071 21.4302 9.51282 20.8912 10.0765C19.0698 8.95262 16.738 8.2119 14.1639 8.03891L15.3875 2.7368L16.8738 3.06708L19.0502 3.55074C19.3088 4.94455 20.5311 6 21.9998 6ZM9.18661 18.153C8.72757 17.8507 8.10995 17.9757 7.80467 18.4336C7.49832 18.8931 7.62249 19.514 8.08202 19.8203L8.63672 18.9883C8.08202 19.8203 8.08234 19.8205 8.08266 19.8208L8.08335 19.8212L8.08483 19.8222L8.08826 19.8245L8.09697 19.8302L8.12177 19.846C8.14156 19.8585 8.16787 19.8748 8.20055 19.8943C8.26591 19.9332 8.3569 19.985 8.47245 20.0453C8.7034 20.1658 9.03351 20.3206 9.45407 20.4735C10.2953 20.7794 11.5022 21.0792 13.0004 21.0792C14.4985 21.0792 15.7054 20.7794 16.5466 20.4735C16.9672 20.3206 17.2973 20.1658 17.5283 20.0453C17.6438 19.985 17.7348 19.9332 17.8002 19.8943C17.8328 19.8748 17.8591 19.8585 17.8789 19.846L17.9037 19.8302L17.9125 19.8245L17.9159 19.8222L17.9174 19.8212L17.918 19.8208C17.9184 19.8205 17.9187 19.8203 17.364 18.9883L17.9187 19.8203C18.3782 19.514 18.5024 18.8931 18.196 18.4336C17.8908 17.9757 17.2731 17.8507 16.8141 18.153L16.8131 18.1537L16.811 18.155C16.8054 18.1585 16.7939 18.1657 16.7765 18.1761C16.7418 18.1968 16.6836 18.2302 16.6031 18.2722C16.442 18.3562 16.1926 18.4741 15.8632 18.5939C15.2044 18.8335 14.2294 19.0792 13.0004 19.0792C11.7713 19.0792 10.7963 18.8335 10.1376 18.5939C9.80811 18.4741 9.55867 18.3562 9.39758 18.2722C9.31711 18.2302 9.25895 18.1968 9.22416 18.1761C9.20678 18.1657 9.19527 18.1585 9.18976 18.155L9.18663 18.1531L9.18661 18.153ZM8.31487 15.0507C8.70539 15.4412 9.33855 15.4412 9.72908 15.0507C10.1196 14.6602 10.1196 14.027 9.72908 13.6365L9.7071 13.6145C9.31658 13.224 8.68341 13.224 8.29289 13.6145C7.90236 14.005 7.90236 14.6382 8.29289 15.0287L8.31487 15.0507ZM17.7291 15.0507C17.3386 15.4412 16.7054 15.4412 16.3149 15.0507L16.2929 15.0287C15.9024 14.6382 15.9024 14.005 16.2929 13.6145C16.6834 13.224 17.3166 13.224 17.7071 13.6145L17.7291 13.6365C18.1196 14.027 18.1196 14.6602 17.7291 15.0507Z" fill="black"/>
</svg>
