<svg width="26" height="26" viewBox="0 0 26 26" fill="none" xmlns="http://www.w3.org/2000/svg">
<path fill-rule="evenodd" clip-rule="evenodd" d="M14.0813 0.292893C14.4718 -0.0976311 15.105 -0.0976311 15.4955 0.292893L23.7005 8.49781C23.888 8.68535 23.9933 8.9397 23.9933 9.20492C23.9933 9.47013 23.888 9.72449 23.7005 9.91202L16.2219 17.3906H25C25.5523 17.3906 26 17.8383 26 18.3906V24.5212C26 25.0735 25.5523 25.5212 25 25.5212C24.4477 25.5212 24 25.0735 24 24.5212V19.3906H13.8737C13.851 19.3922 13.8282 19.393 13.8053 19.393H9.52019C9.49729 19.393 9.47448 19.3922 9.45178 19.3906H2V24.5212C2 25.0735 1.55228 25.5212 1 25.5212C0.447715 25.5212 0 25.0735 0 24.5212V18.3906C0 17.8383 0.447715 17.3906 1 17.3906H7.10363L2.75072 13.0377C2.56318 12.8502 2.45782 12.5958 2.45782 12.3306C2.45782 12.0654 2.56318 11.811 2.75072 11.6235L14.0813 0.292893Z" fill="black"/>
</svg>
