<svg width="22" height="28" viewBox="0 0 22 28" fill="none" xmlns="http://www.w3.org/2000/svg">
<path fill-rule="evenodd" clip-rule="evenodd" d="M21.9559 26.7227C21.9559 27.2749 21.5082 27.7227 20.9559 27.7227H1.38208C0.829794 27.7227 0.382078 27.2749 0.382078 26.7227V1.27665C0.382078 0.724361 0.829794 0.276646 1.38208 0.276646H20.9559C21.5082 0.276646 21.9559 0.724361 21.9559 1.27665V26.7227ZM10.89 4C10.6248 4 10.3705 4.10535 10.1829 4.29289C9.99537 4.48042 9.89001 4.73478 9.89001 5V14.3606C9.89001 14.6966 10.0588 15.0102 10.3392 15.1953C10.6197 15.3803 10.9743 15.4122 11.2833 15.2801L13.9656 14.1328L16.6498 15.274C16.9587 15.4053 17.3128 15.3729 17.5928 15.1878C17.8727 15.0026 18.0411 14.6894 18.0411 14.3537V5.00011C18.0411 4.44783 17.5934 4.00012 17.0411 4.00011L10.89 4ZM11.89 12.8453V6.00002L16.0411 6.00009V12.842L14.3556 12.1254C14.1049 12.0189 13.8216 12.0192 13.5711 12.1263L11.89 12.8453ZM5.29675 21.8081C4.74447 21.8081 4.29675 22.2558 4.29675 22.8081C4.29675 23.3604 4.74447 23.8081 5.29675 23.8081H17.0411C17.5934 23.8081 18.0411 23.3604 18.0411 22.8081C18.0411 22.2558 17.5934 21.8081 17.0411 21.8081H5.29675ZM4.29675 18.8931C4.29675 19.4454 4.74447 19.8931 5.29675 19.8931H17.0411C17.5934 19.8931 18.0411 19.4454 18.0411 18.8931C18.0411 18.3408 17.5934 17.8931 17.0411 17.8931H5.29675C4.74447 17.8931 4.29675 18.3408 4.29675 18.8931Z" fill="black"/>
</svg>
