<svg width="27" height="27" viewBox="0 0 27 27" fill="none" xmlns="http://www.w3.org/2000/svg">
<path fill-rule="evenodd" clip-rule="evenodd" d="M22.3317 4.56908L22.5877 1.68303C22.6365 1.1329 23.122 0.726488 23.6721 0.775275C24.2222 0.824063 24.6286 1.30958 24.5798 1.8597L24.1051 7.21253C24.0563 7.76266 23.5708 8.16908 23.0207 8.12029L17.6679 7.64558C17.1177 7.59679 16.7113 7.11127 16.7601 6.56115C16.8089 6.01102 17.2944 5.60461 17.8445 5.65339L20.8543 5.92032C16.8218 1.92111 10.3085 1.64042 5.90637 5.42697C1.27898 9.4073 0.746505 16.3661 4.70585 20.9691C8.6652 25.5721 15.6254 26.086 20.2528 22.1057C23.0144 19.7302 24.3186 16.2936 24.0777 12.9266C24.0383 12.3757 24.453 11.8972 25.0039 11.8578C25.5547 11.8184 26.0333 12.233 26.0727 12.7839C26.3568 16.7567 24.8172 20.8176 21.5571 23.6219C16.0977 28.3179 7.8739 27.7192 3.18961 22.2734C-1.49468 16.8276 -0.857246 8.60672 4.60215 3.91073C9.8215 -0.578787 17.5675 -0.228938 22.3317 4.56908Z" fill="black"/>
</svg>
