<svg width="22" height="26" viewBox="0 0 22 26" fill="none" xmlns="http://www.w3.org/2000/svg">
<path fill-rule="evenodd" clip-rule="evenodd" d="M0 1C0 0.447715 0.447715 0 1 0H21C21.5523 0 22 0.447715 22 1V25C22 25.5523 21.5523 26 21 26H1C0.447715 26 0 25.5523 0 25V1ZM16.5184 8.23926C17.0706 8.23926 17.5184 7.79154 17.5184 7.23926C17.5184 6.68697 17.0707 6.23926 16.5184 6.23926H8.98056C8.42828 6.23926 7.98056 6.68697 7.98056 7.23926C7.98056 7.79154 8.42828 8.23926 8.98056 8.23926H16.5184ZM5.4925 8.23926C6.04478 8.23926 6.4925 7.79155 6.4925 7.23926C6.4925 6.68698 6.04478 6.23926 5.4925 6.23926H5.4817C4.92942 6.23926 4.4817 6.68698 4.4817 7.23926C4.4817 7.79155 4.92942 8.23926 5.4817 8.23926H5.4925ZM14.7071 17.7071C15.0976 17.3166 15.0976 16.6834 14.7071 16.2929C14.3166 15.9024 13.6834 15.9024 13.2929 16.2929L10 19.5858L8.70711 18.2929C8.31658 17.9024 7.68342 17.9024 7.29289 18.2929C6.90237 18.6834 6.90237 19.3166 7.29289 19.7071L9.29289 21.7071C9.68342 22.0976 10.3166 22.0976 10.7071 21.7071L14.7071 17.7071ZM17.5184 11.2612C17.5184 11.8135 17.0706 12.2612 16.5184 12.2612H8.98056C8.42828 12.2612 7.98056 11.8135 7.98056 11.2612C7.98056 10.7089 8.42828 10.2612 8.98056 10.2612H16.5184C17.0707 10.2612 17.5184 10.7089 17.5184 11.2612ZM6.4925 11.2612C6.4925 11.8135 6.04478 12.2612 5.4925 12.2612H5.4817C4.92942 12.2612 4.4817 11.8135 4.4817 11.2612C4.4817 10.7089 4.92942 10.2612 5.4817 10.2612H5.4925C6.04478 10.2612 6.4925 10.7089 6.4925 11.2612Z" fill="black"/>
</svg>
