<svg width="26" height="26" viewBox="0 0 26 26" fill="none" xmlns="http://www.w3.org/2000/svg">
<path fill-rule="evenodd" clip-rule="evenodd" d="M13 0C5.8203 0 0 5.8203 0 13C0 20.1797 5.82029 26 13 26C20.1797 26 26 20.1797 26 13C26 5.82029 20.1797 0 13 0ZM13.698 4.29309C13.3076 3.90246 12.6744 3.90228 12.2838 4.2927C11.8931 4.68311 11.893 5.31628 12.2834 5.70691L12.3005 5.72402C12.6909 6.11465 13.3241 6.11483 13.7147 5.72441C14.1053 5.334 14.1055 4.70083 13.7151 4.3102L13.698 4.29309ZM13.6978 20.2758C13.3072 19.8853 12.6741 19.8853 12.2836 20.2758C11.8931 20.6664 11.8931 21.2995 12.2836 21.69L12.3007 21.7071C12.6912 22.0976 13.3244 22.0976 13.7149 21.7071C14.1054 21.3166 14.1054 20.6834 13.7149 20.2929L13.6978 20.2758ZM21.7076 12.2846C22.0981 12.6751 22.0981 13.3083 21.7076 13.6988L21.6905 13.7159C21.3 14.1064 20.6668 14.1064 20.2763 13.7159C19.8858 13.3254 19.8858 12.6922 20.2763 12.3017L20.2934 12.2846C20.6839 11.8941 21.317 11.8941 21.7076 12.2846ZM5.72402 13.699C6.11465 13.3086 6.11483 12.6754 5.72441 12.2848C5.334 11.8942 4.70083 11.894 4.3102 12.2844L4.29309 12.3015C3.90246 12.6919 3.90228 13.3251 4.2927 13.7157C4.68311 14.1063 5.31628 14.1065 5.70691 13.7161L5.72402 13.699ZM18.6507 6.33691C19.203 6.33691 19.6507 6.78463 19.6507 7.33691V7.36254C19.6507 7.91483 19.203 8.36254 18.6507 8.36254C18.0984 8.36254 17.6507 7.91483 17.6507 7.36254V7.33691C17.6507 6.78463 18.0984 6.33691 18.6507 6.33691ZM8.34877 18.6387C8.34877 18.0864 7.90105 17.6387 7.34877 17.6387C6.79649 17.6387 6.34877 18.0864 6.34877 18.6387V18.6643C6.34877 19.2166 6.79649 19.6643 7.34877 19.6643C7.90105 19.6643 8.34877 19.2166 8.34877 18.6643V18.6387ZM17.6379 18.6514C17.6379 18.0991 18.0856 17.6514 18.6379 17.6514H18.6636C19.2159 17.6514 19.6636 18.0991 19.6636 18.6514C19.6636 19.2037 19.2159 19.6514 18.6636 19.6514H18.6379C18.0856 19.6514 17.6379 19.2037 17.6379 18.6514ZM7.33597 6.34961C6.78368 6.34961 6.33597 6.79732 6.33597 7.34961C6.33597 7.90189 6.78368 8.34961 7.33597 8.34961H7.3616C7.91388 8.34961 8.3616 7.90189 8.3616 7.34961C8.3616 6.79732 7.91388 6.34961 7.3616 6.34961H7.33597ZM13 10C11.3432 10 10 11.3432 10 13C10 14.6568 11.3432 16 13 16C14.6568 16 16 14.6568 16 13C16 11.3432 14.6568 10 13 10Z" fill="black"/>
</svg>
