<svg width="24" height="24" viewBox="0 0 24 24" fill="none" xmlns="http://www.w3.org/2000/svg">
<path fill-rule="evenodd" clip-rule="evenodd" d="M24 12C24 18.6274 18.6274 24 12 24C5.37258 24 0 18.6274 0 12C0 5.37258 5.37258 0 12 0C18.6274 0 24 5.37258 24 12ZM16 12C16 14.2091 14.2091 16 12 16C9.79086 16 8 14.2091 8 12C8 9.79086 9.79086 8 12 8C14.2091 8 16 9.79086 16 12ZM11.1068 3.11613C11.595 2.62798 12.3864 2.62798 12.8746 3.11613L12.8917 3.13324C13.3799 3.62139 13.3799 4.41283 12.8917 4.90098C12.4036 5.38913 11.6121 5.38913 11.1239 4.90098L11.1068 4.88387C10.6186 4.39572 10.6186 3.60428 11.1068 3.11613ZM12.8746 19.099C12.3864 18.6109 11.595 18.6109 11.1068 19.099C10.6186 19.5872 10.6186 20.3786 11.1068 20.8668L11.1239 20.8839C11.6121 21.372 12.4036 21.372 12.8917 20.8839C13.3799 20.3957 13.3799 19.6043 12.8917 19.1162L12.8746 19.099ZM20.8844 11.1076C21.3726 11.5957 21.3726 12.3871 20.8844 12.8753L20.8673 12.8924C20.3791 13.3806 19.5877 13.3806 19.0995 12.8924C18.6113 12.4043 18.6113 11.6128 19.0995 11.1247L19.1166 11.1076C19.6048 10.6194 20.3962 10.6194 20.8844 11.1076ZM4.90101 12.8753C5.38917 12.3871 5.38917 11.5957 4.90101 11.1076C4.41284 10.6194 3.62138 10.6194 3.13321 11.1076L3.1161 11.1247C2.62794 11.6128 2.62794 12.4043 3.1161 12.8924C3.60426 13.3806 4.39573 13.3806 4.88389 12.8924L4.90101 12.8753ZM17.6507 5.08691C18.3411 5.08691 18.9007 5.64656 18.9007 6.33691V6.36254C18.9007 7.05289 18.3411 7.61254 17.6507 7.61254C16.9604 7.61254 16.4007 7.05289 16.4007 6.36254V6.33691C16.4007 5.64656 16.9604 5.08691 17.6507 5.08691ZM7.59877 17.6385C7.59877 16.9482 7.03912 16.3885 6.34877 16.3885C5.65841 16.3885 5.09877 16.9482 5.09877 17.6385V17.6641C5.09877 18.3545 5.65841 18.9141 6.34877 18.9141C7.03912 18.9141 7.59877 18.3545 7.59877 17.6641V17.6385ZM18.9136 17.6513C18.9136 18.3417 18.3539 18.9013 17.6636 18.9013L17.6379 18.9013C16.9476 18.9013 16.3879 18.3417 16.3879 17.6513C16.3879 16.961 16.9476 16.4013 17.6379 16.4013L17.6636 16.4013C18.3539 16.4013 18.9136 16.961 18.9136 17.6513ZM6.36159 7.59972C7.05194 7.59972 7.61159 7.04007 7.61159 6.34972C7.61159 5.65936 7.05194 5.09972 6.36159 5.09972L6.33596 5.09972C5.6456 5.09972 5.08596 5.65936 5.08596 6.34972C5.08596 7.04007 5.6456 7.59972 6.33596 7.59972L6.36159 7.59972Z" fill="black"/>
</svg>
