<svg width="27" height="25" viewBox="0 0 27 25" fill="none" xmlns="http://www.w3.org/2000/svg">
<path fill-rule="evenodd" clip-rule="evenodd" d="M7.24641 2.63328C9.47271 0.40284 13.0866 0.402841 15.313 2.63328C17.3923 4.71646 17.543 8.04041 15.6608 10.3033L14.7515 11.3965C14.6347 11.5369 14.7016 11.751 14.8775 11.7999L16.1067 12.142C19.9087 13.2001 22.5393 16.6627 22.5393 20.6092V23.9916C22.5393 24.5439 22.0916 24.9916 21.5393 24.9916H1.01172C0.459435 24.9916 0.0117188 24.5439 0.0117188 23.9916V20.6151C0.0117188 16.6655 2.64473 13.2003 6.44991 12.1421L7.68162 11.7996C7.85753 11.7507 7.92443 11.5366 7.80767 11.3962L6.89855 10.3033C5.01633 8.04041 5.16708 4.71645 7.24641 2.63328ZM18.0029 3.00293C18.0029 2.45065 18.4506 2.00293 19.0029 2.00293L25.0029 2.00293C25.5552 2.00293 26.0029 2.45064 26.0029 3.00293C26.0029 3.55521 25.5552 4.00293 25.0029 4.00293L19.0029 4.00293C18.4506 4.00293 18.0029 3.55521 18.0029 3.00293Z" fill="black"/>
</svg>
