<svg width="27" height="19" viewBox="0 0 27 19" fill="none" xmlns="http://www.w3.org/2000/svg">
<path fill-rule="evenodd" clip-rule="evenodd" d="M18.3505 0.433426C18.0378 -0.0218127 17.4152 -0.137369 16.96 0.175324C16.5048 0.488016 16.3892 1.11055 16.7019 1.56579L19.2626 5.29388C18.7669 5.93261 18.4717 6.73482 18.4717 7.60596C18.4717 9.69035 20.1615 11.3801 22.2459 11.3801C24.3303 11.3801 26.02 9.69035 26.02 7.60596C26.02 5.52157 24.3303 3.83184 22.2459 3.83184C21.7581 3.83184 21.292 3.92436 20.864 4.09282L18.3505 0.433426ZM5.14286 4.08769C4.71852 3.92248 4.25691 3.83184 3.77412 3.83184C1.68973 3.83184 0 5.52157 0 7.60596C0 9.69035 1.68973 11.3801 3.77412 11.3801C5.85852 11.3801 7.54825 9.69035 7.54825 7.60596C7.54825 6.72942 7.24944 5.92268 6.74812 5.28204L9.33535 1.58709C9.65213 1.13468 9.54218 0.511136 9.08978 0.194359C8.63737 -0.122419 8.01383 -0.0124707 7.69705 0.439934L5.14286 4.08769ZM16.3543 10.6826C14.5073 8.83553 11.5126 8.83553 9.66551 10.6826C7.81844 12.5297 7.81844 15.5244 9.66551 17.3714C11.5126 19.2185 14.5073 19.2185 16.3543 17.3714C18.2014 15.5244 18.2014 12.5297 16.3543 10.6826Z" fill="black"/>
</svg>
