<svg width="28" height="21" viewBox="0 0 28 21" fill="none" xmlns="http://www.w3.org/2000/svg">
<path fill-rule="evenodd" clip-rule="evenodd" d="M19.1094 7.98636C19.1094 10.1955 20.9002 11.9864 23.1094 11.9864C25.3185 11.9864 27.1094 10.1955 27.1094 7.98636C27.1094 5.77722 25.3185 3.98636 23.1094 3.98636C22.5765 3.98636 22.068 4.09054 21.6031 4.27965L19.305 0.933852C18.9923 0.478614 18.3698 0.363058 17.9145 0.675751C17.4593 0.988443 17.3437 1.61097 17.6564 2.06621L19.9969 5.47365C19.4418 6.16039 19.1094 7.03455 19.1094 7.98636ZM5.7309 4.32868L8.10291 0.941095C8.41969 0.48869 9.04324 0.378742 9.49564 0.695519C9.94805 1.0123 10.058 1.63584 9.74122 2.08825L7.30041 5.57408C7.80816 6.2447 8.10937 7.08035 8.10937 7.98636C8.10937 10.1955 6.31851 11.9864 4.10937 11.9864C1.90024 11.9864 0.109375 10.1955 0.109375 7.98636C0.109375 5.77722 1.90024 3.98636 4.10937 3.98636C4.6866 3.98636 5.23527 4.10863 5.7309 4.32868ZM8.10937 15.2923C8.10937 12.2547 10.5718 9.79231 13.6094 9.79231C16.6469 9.79231 19.1094 12.2547 19.1094 15.2923C19.1094 18.3299 16.6469 20.7923 13.6094 20.7923C10.5718 20.7923 8.10937 18.3299 8.10937 15.2923Z" fill="black"/>
</svg>
