<svg width="22" height="26" viewBox="0 0 22 26" fill="none" xmlns="http://www.w3.org/2000/svg">
<path fill-rule="evenodd" clip-rule="evenodd" d="M1 0C0.447715 0 0 0.447715 0 1V16.0016L4.86893 10.8937C5.23213 10.5126 5.82855 10.4784 6.23295 10.8154L8.60337 12.7908L12.5656 8.82854C12.9561 8.43801 13.5893 8.43801 13.9798 8.82854C14.3703 9.21906 14.3703 9.85223 13.9798 10.2428L9.37184 14.8507C9.00612 15.2164 8.42188 15.2429 8.02455 14.9118L5.67119 12.9507L0 18.9003V20.9994C0 21.5517 0.447715 21.9994 1 21.9994H3.99963V24.9998C3.99963 25.5521 4.44735 25.9998 4.99963 25.9998H20.9993C21.5516 25.9998 21.9993 25.5521 21.9993 24.9998V4.99951C21.9993 4.44723 21.5516 3.99951 20.9993 3.99951H17.9997V1C17.9997 0.447715 17.552 0 16.9997 0H1ZM5.99963 23.9998V21.9994H16.9997C17.552 21.9994 17.9997 21.5517 17.9997 20.9994V5.99951H19.9993V23.9998H5.99963Z" fill="black"/>
</svg>
