<svg width="22" height="27" viewBox="0 0 22 27" fill="none" xmlns="http://www.w3.org/2000/svg">
<path fill-rule="evenodd" clip-rule="evenodd" d="M15.8026 0.476562C16.3549 0.476562 16.8026 0.924278 16.8026 1.47656V3.57283H17.3149H19.8989C21.0035 3.57283 21.8989 4.46826 21.8989 5.57283V24.0562C21.8989 25.1608 21.0035 26.0562 19.8989 26.0562H5.51277C4.4082 26.0562 3.51277 25.1608 3.51277 24.0562V20.9599V20.959H1.4165C0.864219 20.959 0.416504 20.5112 0.416504 19.959V17.3494L4.91732 12.6482L7.34644 14.6724C7.74377 15.0035 8.32801 14.977 8.69373 14.6113L13.413 9.89208C13.8035 9.50156 13.8035 8.86839 13.413 8.47787C13.0224 8.08734 12.3893 8.08734 11.9988 8.47787L7.92526 12.5514L5.48065 10.5142C5.07689 10.1777 4.48158 10.2112 4.11813 10.5909L0.416504 14.4573V1.47656C0.416504 0.924277 0.864219 0.476562 1.4165 0.476562H15.8026ZM5.51277 20.959V20.9599V24.0562L19.8989 24.0562V5.57283H17.3149H16.8026V19.959C16.8026 20.5113 16.3549 20.959 15.8026 20.959H5.51277Z" fill="black"/>
</svg>
