<svg width="23" height="26" viewBox="0 0 23 26" fill="none" xmlns="http://www.w3.org/2000/svg">
<path fill-rule="evenodd" clip-rule="evenodd" d="M10.621 -0.000975515V12.223C10.621 12.5963 10.8289 12.9386 11.1603 13.1106C11.4917 13.2826 11.8913 13.2556 12.1966 13.0407L14.7326 11.2557L17.27 13.036C17.5754 13.2503 17.9747 13.2768 18.3057 13.1047C18.6367 12.9326 18.8444 12.5905 18.8444 12.2175L18.8443 -0.000976288L21.772 -0.000976562C22.0372 -0.000976562 22.2916 0.104381 22.4791 0.291917C22.6667 0.479453 22.772 0.733808 22.772 0.999024V24.999C22.772 25.2642 22.6667 25.5186 22.4791 25.7061C22.2916 25.8937 22.0372 25.999 21.772 25.999L0.999997 25.9989C0.447715 25.9989 2.58258e-06 25.5512 2.54711e-06 24.9989L0 0.999025C0 0.733809 0.105358 0.479456 0.292894 0.291918C0.480431 0.104382 0.734785 -0.000974623 1 -0.000974611L10.621 -0.000975515Z" fill="black"/>
</svg>
