<svg width="26" height="26" viewBox="0 0 26 26" fill="none" xmlns="http://www.w3.org/2000/svg">
<path fill-rule="evenodd" clip-rule="evenodd" d="M1.00051 0C0.448222 0 0.000506633 0.447715 0.000506538 1L0.000260008 15.5868C0.000252452 15.852 0.105606 16.1063 0.293143 16.2939C0.48068 16.4814 0.735039 16.5868 1.00026 16.5868L7.00014 16.5868C7.55242 16.5868 8.00014 16.1391 8.00014 15.5868L8.00014 8.03591L24.9999 8.03592C25.5522 8.03592 25.9999 7.5882 25.9999 7.03592L25.9999 1C25.9999 0.44772 25.5522 4.34085e-06 24.9999 4.24269e-06L1.00051 0ZM24.9993 26.0002C25.5516 26.0002 25.9993 25.5525 25.9993 25.0002L25.9996 10.4135C25.9996 10.1483 25.8942 9.8939 25.7067 9.70636C25.5191 9.51881 25.2648 9.41345 24.9996 9.41345H18.9997C18.4474 9.41345 17.9997 9.86117 17.9997 10.4135L17.9997 17.9643L0.999879 17.9643C0.447594 17.9643 -0.00012207 18.412 -0.00012207 18.9643V25.0002C-0.00012207 25.5525 0.447594 26.0002 0.999878 26.0002L24.9993 26.0002ZM13.0001 10.3475C11.4954 10.3475 10.2858 11.573 10.2858 13.0721C10.2858 14.5712 11.4954 15.7967 13.0001 15.7967C14.5048 15.7967 15.7144 14.5712 15.7144 13.0721C15.7144 11.573 14.5048 10.3475 13.0001 10.3475Z" fill="black"/>
</svg>
