<svg width="24" height="22" viewBox="0 0 24 22" fill="none" xmlns="http://www.w3.org/2000/svg">
<path fill-rule="evenodd" clip-rule="evenodd" d="M5.06944 9.85109C5.52726 5.71422 9.04813 2.49121 13.3304 2.49121C17.9242 2.49121 21.6418 6.20019 21.6418 10.7675C21.6418 15.0118 18.4315 18.5149 14.291 18.9892L14.291 10.8603L15.57 12.1054C15.9658 12.4906 16.5989 12.4821 16.9841 12.0864C17.3694 11.6907 17.3609 11.0576 16.9651 10.6723L13.9886 7.77462C13.5928 7.38937 12.9597 7.39787 12.5745 7.7936L9.67677 10.7702C9.29152 11.1659 9.30002 11.799 9.69575 12.1842C10.0915 12.5695 10.7246 12.561 11.1098 12.1653L12.291 10.9519L12.291 18.9798C9.98011 18.6929 7.96439 17.4616 6.64387 15.6842C6.31451 15.2409 5.68812 15.1485 5.24479 15.4778C4.80147 15.8072 4.70908 16.4336 5.03844 16.8769C6.91572 19.4038 9.93155 21.0438 13.3304 21.0438C19.0217 21.0438 23.6418 16.4465 23.6418 10.7675C23.6418 5.08851 19.0217 0.491211 13.3304 0.491211C7.94497 0.491211 3.51864 4.60774 3.05851 9.86199L1.82548 8.66163C1.42975 8.27638 0.796644 8.28488 0.411397 8.68061C0.026149 9.07634 0.0346471 9.70945 0.430378 10.0947L3.40694 12.9924C3.80267 13.3777 4.43578 13.3692 4.82103 12.9734L7.71874 9.99687C8.10399 9.60114 8.09549 8.96803 7.69976 8.58278C7.30403 8.19754 6.67092 8.20603 6.28567 8.60176L5.06944 9.85109Z" fill="black"/>
</svg>
