<svg width="20" height="25" viewBox="0 0 20 25" fill="none" xmlns="http://www.w3.org/2000/svg">
<path fill-rule="evenodd" clip-rule="evenodd" d="M2.66837 8.12983L9.97307 0.82512C10.3636 0.434595 10.9968 0.434596 11.3873 0.82512L16.2995 5.73735C16.69 6.12787 16.69 6.76104 16.2995 7.15156L9.92213 13.5289L9.10683 14.335C8.72247 14.715 8.10572 14.7208 7.71425 14.3482L2.68596 9.56121C2.27898 9.17376 2.27104 8.52716 2.66837 8.12983ZM1.19189 17.8187C0.63961 17.8187 0.191895 18.2664 0.191895 18.8187V23.3629C0.191895 23.9152 0.63961 24.3629 1.19189 24.3629H18.9816C19.5339 24.3629 19.9816 23.9152 19.9816 23.3629V18.8187C19.9816 18.2664 19.5339 17.8187 18.9816 17.8187H1.19189ZM2.19189 22.3629V19.8187H17.9816V22.3629H2.19189Z" fill="black"/>
</svg>
