<svg width="28" height="27" viewBox="0 0 28 27" fill="none" xmlns="http://www.w3.org/2000/svg">
<path fill-rule="evenodd" clip-rule="evenodd" d="M14.7825 24.0739C14.5928 23.8632 14.3227 23.7429 14.0392 23.7429H13.1546C12.8757 23.7429 12.6094 23.8594 12.4202 24.0642L10.4944 26.1486C10.1772 26.4919 9.66461 26.5697 9.25988 26.336L4.41961 23.5413C4.01015 23.3048 3.82223 22.814 3.96913 22.3646L4.85762 19.6464C4.94605 19.3758 4.915 19.0804 4.77225 18.8342L4.34759 18.1016C4.20828 17.8613 3.97527 17.6898 3.70442 17.6281L0.905967 16.9911C0.450843 16.8875 0.12793 16.4828 0.12793 16.016V10.426C0.12793 9.95282 0.459594 9.5444 0.922715 9.4473L3.72214 8.86032C4.00171 8.8017 4.24286 8.62632 4.38478 8.37842L4.80311 7.64766C4.9404 7.40783 4.97233 7.12189 4.89132 6.85769L4.04837 4.1086C3.91164 3.66269 4.10132 3.18147 4.50554 2.94878L9.34714 0.161698C9.75664 -0.0740332 10.2753 0.00903073 10.5907 0.360865L12.4732 2.46096C12.6629 2.67256 12.9337 2.79346 13.2178 2.79346H14.1034C14.3811 2.79346 14.6462 2.67804 14.8354 2.47483L16.7725 0.393948C17.0898 0.0530487 17.6005 -0.0236321 18.004 0.209031L22.8381 2.99665C23.2468 3.2323 23.4352 3.72146 23.2902 4.17033L22.4282 6.83864C22.3413 7.10753 22.3723 7.4006 22.5134 7.64541L22.9738 8.4442C23.1128 8.68534 23.346 8.85764 23.6173 8.91967L26.3508 9.54469C26.8055 9.64865 27.1279 10.0531 27.1279 10.5195V16.603C27.1279 17.0775 26.7944 17.4867 26.3296 17.5825L23.1507 18.2371C22.8023 18.3089 22.5182 18.5604 22.4047 18.8976L22.3622 19.0237C22.2953 19.2226 22.2926 19.4375 22.3545 19.638L23.2162 22.4265C23.3541 22.8729 23.1646 23.3553 22.7596 23.5884L17.9181 26.3754C17.5093 26.6108 16.9915 26.5284 16.6759 26.1777L14.7825 24.0739ZM11.1279 7.49121C10.0234 7.49121 9.12793 8.38664 9.12793 9.49121V13.123V17.4912C9.12793 18.0435 9.57564 18.4912 10.1279 18.4912C10.6802 18.4912 11.1279 18.0435 11.1279 17.4912V14.123H11.1322H11.14H11.1478H11.1557H11.1635H11.1713H11.1792H11.1871H11.195H11.2029H11.2108H11.2187H11.2266H11.2346H11.2425H11.2505H11.2585H11.2665H11.2745H11.2825H11.2906H11.2986H11.3067H11.3147H11.3228H11.3309H11.339H11.3471H11.3552H11.3634H11.3715H11.3797H11.3878H11.396H11.4042H11.4124H11.4206H11.4288H11.437H11.4453H11.4535H11.4618H11.4701H11.4783H11.4866H11.4949H11.5032H11.5115H11.5199H11.5282H11.5366H11.5449H11.5533H11.5616H11.57H11.5784H11.5868H11.5952H11.6036H11.6121H11.6205H11.6289H11.6374H11.6458H11.6543H11.6628H11.6713H11.6797H11.6882H11.6967H11.7053H11.7138H11.7223H11.7308H11.7394H11.7479H11.7565H11.7651H11.7736H11.7822H11.7908H11.7994H11.808H11.8166H11.8252H11.8338H11.8424H11.8511H11.8597H11.8683H11.877H11.8856H11.8943H11.903H11.9116H11.9203H11.929H11.9377H11.9464H11.9551H11.9638H11.9725H11.9812H11.9899H11.9987H12.0074H12.0161H12.0249H12.0336H12.0423H12.0511H12.0599H12.0686H12.0774H12.0862H12.0949H12.1037H12.1125H12.1213H12.1301H12.1388H12.1476H12.1564H12.1652H12.174H12.1829H12.1917H12.2005H12.2093H12.2181H12.2269H12.2358H12.2446H12.2534H12.2623H12.2711H12.2799H12.2888H12.2976H12.3065H12.3153H12.3242H12.333H12.3419H12.3507H12.3596H12.3685H12.3773H12.3862H12.395H12.4039H12.4128H12.4216H12.4305H12.4394H12.4482H12.4571H12.466H12.4748H12.4837H12.4926H12.5015H12.5103H12.5192H12.5281H12.5369H12.5458H12.5547H12.5636H12.5724H12.5813H12.5902H12.599H12.6079H12.6168H12.6257H12.6345H12.6434H12.6522H12.6611H12.67H12.6788H12.6877H12.6966H12.7054H12.7143H12.7231H12.732H12.7408H12.7497H12.7585H12.7674H12.7762H12.7851H12.7939H12.8027H12.8116H12.8204H12.8292H12.838H12.8469H12.8557H12.8645H12.8733H12.8821H12.8909H12.8997H12.9085H12.9173H12.9261H12.9349H12.9437H12.9525H12.9613H12.97H12.9788H12.9876H12.9963H13.0051H13.0139H13.0226H13.0313H13.0401H13.0488H13.0576H13.0663H13.075H13.0837H13.0924H13.1011H13.1098H13.1185H13.1272H13.1359H13.1446H13.1533H13.1619H13.1706H13.1793H13.1879H13.1966H13.2052H13.2138H13.2224H13.2311H13.2397H13.2483H13.2569H13.2655H13.2741H13.2827H13.2912H13.2998H13.3084H13.3169H13.3255H13.334H13.3425H13.351H13.3596H13.3681H13.3766H13.3851H13.3935H13.402H13.4105H13.419H13.4274H13.4359H13.4443H13.4527H13.4611H13.4695H13.4779H13.4863H13.4947H13.5031H13.5115H13.5198H13.5282H13.5365H13.5448H13.5532H13.5615H13.5698H13.5781H13.5864H13.5946H13.6029H13.6111H13.6194H13.6276H13.6358H13.6441H13.6523H13.6604H13.6686H13.6768H13.685H13.6931H13.6949L17.3528 18.1471C17.7243 18.5557 18.3567 18.5859 18.7654 18.2144C19.1741 17.8429 19.2042 17.2104 18.8327 16.8018L16.3618 14.0836C17.1631 13.9682 17.8278 13.6051 18.3092 13.064C18.883 12.4189 19.1377 11.588 19.1276 10.7944C19.1176 10.0011 18.8426 9.18103 18.273 8.54677C17.6876 7.89493 16.8356 7.49121 15.799 7.49121H11.1279ZM11.1322 12.123H11.1279V9.49121H15.799C16.2854 9.49121 16.5904 9.66647 16.785 9.88309C16.9953 10.1173 17.1232 10.4552 17.1278 10.8198C17.1324 11.1842 17.0137 11.5112 16.8149 11.7347C16.6324 11.9399 16.3262 12.123 15.799 12.123H15.7936H15.7883H15.783H15.7778H15.7725H15.7673H15.7621H15.7569H15.7517H15.7466H15.7414H15.7363H15.7312H15.7262H15.7211H15.7161H15.7111H15.7061H15.7012H15.6962H15.6913H15.6864H15.6815H15.6766H15.6718H15.667H15.6622H15.6574H15.6526H15.6478H15.6431H15.6384H15.6337H15.629H15.6244H15.6198H15.6151H15.6105H15.606H15.6014H15.5969H15.5923H15.5878H15.5833H15.5789H15.5744H15.57H15.5656H15.5612H15.5568H15.5524H15.5481H15.5437H15.5394H15.5351H15.5309H15.5266H15.5224H15.5181H15.5139H15.5097H15.5056H15.5014H15.4972H15.4931H15.489H15.4849H15.4808H15.4768H15.4727H15.4687H15.4647H15.4607H15.4567H15.4528H15.4488H15.4449H15.441H15.437H15.4332H15.4293H15.4254H15.4216H15.4178H15.4139H15.4101H15.4064H15.4026H15.3988H15.3951H15.3914H15.3877H15.384H15.3803H15.3766H15.373H15.3693H15.3657H15.3621H15.3585H15.3549H15.3513H15.3478H15.3442H15.3407H15.3372H15.3337H15.3302H15.3267H15.3233H15.3198H15.3164H15.3129H15.3095H15.3061H15.3027H15.2994H15.296H15.2926H15.2893H15.286H15.2827H15.2794H15.2761H15.2728H15.2695H15.2663H15.263H15.2598H15.2566H15.2534H15.2502H15.247H15.2438H15.2406H15.2375H15.2343H15.2312H15.2281H15.225H15.2219H15.2188H15.2157H15.2126H15.2096H15.2065H15.2035H15.2005H15.1975H15.1944H15.1914H15.1885H15.1855H15.1825H15.1795H15.1766H15.1737H15.1707H15.1678H15.1649H15.162H15.1591H15.1562H15.1533H15.1505H15.1476H15.1447H15.1419H15.1391H15.1362H15.1334H15.1306H15.1278H15.125H15.1222H15.1194H15.1167H15.1139H15.1112H15.1084H15.1057H15.1029H15.1002H15.0975H15.0948H15.0921H15.0894H15.0867H15.084H15.0813H15.0787H15.076H15.0733H15.0707H15.068H15.0654H15.0628H15.0602H15.0575H15.0549H15.0523H15.0497H15.0471H15.0445H15.042H15.0394H15.0368H15.0342H15.0317H15.0291H15.0266H15.024H15.0215H15.0189H15.0164H15.0139H15.0114H15.0088H15.0063H15.0038H15.0013H14.9988H14.9963H14.9938H14.9913H14.9889H14.9864H14.9839H14.9814H14.979H14.9765H14.974H14.9716H14.9691H14.9667H14.9642H14.9618H14.9593H14.9569H14.9545H14.952H14.9496H14.9472H14.9448H14.9423H14.9399H14.9375H14.9351H14.9327H14.9303H14.9278H14.9254H14.923H14.9206H14.9182H14.9158H14.9134H14.911H14.9086H14.9062H14.9039H14.9015H14.8991H14.8967H14.8943H14.8919H14.8895H14.8871H14.8848H14.8824H14.88H14.8776H14.8752H14.8728H14.8705H14.8681H14.8657H14.8633H14.8609H14.8585H14.8562H14.8538H14.8514H14.849H14.8466H14.8442H14.8419H14.8395H14.8371H14.8347H14.8323H14.8299H14.8275H14.8251H14.8227H14.8203H14.8179H14.8155H14.8131H14.8107H14.8083H14.8059H14.8035H14.8011H14.7987H14.7963H14.7939H14.7914H14.789H14.7866H14.7842H14.7817H14.7793H14.7769H14.7744H14.772H14.7696H14.7671H14.7647H14.7622H14.7597H14.7573H14.7548H14.7524H14.7499H14.7474H14.7449H14.7424H14.74H14.7375H14.735H14.7325H14.73H14.7275H14.7249H14.7224H14.7199H14.7174H14.7149H14.7123H14.7098H14.7072H14.7047H14.7021H14.6996H14.697H14.6944H14.6918H14.6893H14.6867H14.6841H14.6815H14.6789H14.6763H14.6736H14.671H14.6684H14.6658H14.6631H14.6605H14.6578H14.6552H14.6525H14.6498H14.6471H14.6444H14.6417H14.639H14.6363H14.6336H14.6309H14.6282H14.6254H14.6227H14.6199H14.6172H14.6144H14.6116H14.6088H14.606H14.6032H14.6004H14.5976H14.5948H14.5919H14.5891H14.5863H14.5834H14.5805H14.5777H14.5748H14.5719H14.569H14.5661H14.5631H14.5602H14.5573H14.5543H14.5514H14.5484H14.5454H14.5424H14.5394H14.5364H14.5334H14.5304H14.5273H14.5243H14.5212H14.5182H14.5151H14.512H14.5089H14.5058H14.5027H14.4995H14.4964H14.4933H14.4901H14.4869H14.4837H14.4805H14.4773H14.4741H14.4709H14.4676H14.4644H14.4611H14.4578H14.4546H14.4513H14.4479H14.4446H14.4413H14.4379H14.4346H14.4312H14.4278H14.4244H14.421H14.4176H14.4141H14.4107H14.4072H14.4037H14.4003H14.3968H14.3932H14.3897H14.3862H14.3826H14.3791H14.3755H14.3719H14.3683H14.3646H14.361H14.3574H14.3537H14.35H14.3463H14.3426H14.3389H14.3351H14.3314H14.3276H14.3238H14.3201H14.3162H14.3124H14.3086H14.3047H14.3009H14.297H14.2931H14.2892H14.2852H14.2813H14.2773H14.2733H14.2693H14.2653H14.2613H14.2573H14.2532H14.2491H14.245H14.2409H14.2368H14.2327H14.2285H14.2243H14.2201H14.2159H14.2117H14.2075H14.2032H14.1989H14.1947H14.1903H14.186H14.1817H14.1773H14.1729H14.1685H14.1641H14.1597H14.1552H14.1508H14.1463H14.1418H14.1373H14.1299H14.1224H14.115H14.1076H14.1001H14.0926H14.0851H14.0776H14.0701H14.0625H14.055H14.0474H14.0398H14.0322H14.0246H14.017H14.0094H14.0017H13.994H13.9864H13.9787H13.9709H13.9632H13.9555H13.9477H13.94H13.9322H13.9244H13.9166H13.9088H13.901H13.8931H13.8853H13.8774H13.8695H13.8616H13.8537H13.8458H13.8379H13.8299H13.822H13.814H13.806H13.798H13.79H13.782H13.774H13.766H13.7579H13.7498H13.7418H13.7337H13.7256H13.7175H13.7094H13.7012H13.6931H13.685H13.6768H13.6686H13.6604H13.6523H13.6441H13.6358H13.6276H13.6194H13.6111H13.6029H13.5946H13.5864H13.5781H13.5698H13.5615H13.5532H13.5448H13.5365H13.5282H13.5198H13.5115H13.5031H13.4947H13.4863H13.4779H13.4695H13.4611H13.4527H13.4443H13.4359H13.4274H13.419H13.4105H13.402H13.3935H13.3851H13.3766H13.3681H13.3596H13.351H13.3425H13.334H13.3255H13.3169H13.3084H13.2998H13.2912H13.2827H13.2741H13.2655H13.2569H13.2483H13.2397H13.2311H13.2224H13.2138H13.2052H13.1966H13.1879H13.1793H13.1706H13.1619H13.1533H13.1446H13.1359H13.1272H13.1185H13.1098H13.1011H13.0924H13.0837H13.075H13.0663H13.0576H13.0488H13.0401H13.0313H13.0226H13.0139H13.0051H12.9963H12.9876H12.9788H12.97H12.9613H12.9525H12.9437H12.9349H12.9261H12.9173H12.9085H12.8997H12.8909H12.8821H12.8733H12.8645H12.8557H12.8469H12.838H12.8292H12.8204H12.8116H12.8027H12.7939H12.7851H12.7762H12.7674H12.7585H12.7497H12.7408H12.732H12.7231H12.7143H12.7054H12.6966H12.6877H12.6788H12.67H12.6611H12.6522H12.6434H12.6345H12.6257H12.6168H12.6079H12.599H12.5902H12.5813H12.5724H12.5636H12.5547H12.5458H12.5369H12.5281H12.5192H12.5103H12.5015H12.4926H12.4837H12.4748H12.466H12.4571H12.4482H12.4394H12.4305H12.4216H12.4128H12.4039H12.395H12.3862H12.3773H12.3685H12.3596H12.3507H12.3419H12.333H12.3242H12.3153H12.3065H12.2976H12.2888H12.2799H12.2711H12.2623H12.2534H12.2446H12.2358H12.2269H12.2181H12.2093H12.2005H12.1917H12.1829H12.174H12.1652H12.1564H12.1476H12.1388H12.1301H12.1213H12.1125H12.1037H12.0949H12.0862H12.0774H12.0686H12.0599H12.0511H12.0423H12.0336H12.0249H12.0161H12.0074H11.9987H11.9899H11.9812H11.9725H11.9638H11.9551H11.9464H11.9377H11.929H11.9203H11.9116H11.903H11.8943H11.8856H11.877H11.8683H11.8597H11.8511H11.8424H11.8338H11.8252H11.8166H11.808H11.7994H11.7908H11.7822H11.7736H11.7651H11.7565H11.7479H11.7394H11.7308H11.7223H11.7138H11.7053H11.6967H11.6882H11.6797H11.6713H11.6628H11.6543H11.6458H11.6374H11.6289H11.6205H11.6121H11.6036H11.5952H11.5868H11.5784H11.57H11.5616H11.5533H11.5449H11.5366H11.5282H11.5199H11.5115H11.5032H11.4949H11.4866H11.4783H11.4701H11.4618H11.4535H11.4453H11.437H11.4288H11.4206H11.4124H11.4042H11.396H11.3878H11.3797H11.3715H11.3634H11.3552H11.3471H11.339H11.3309H11.3228H11.3147H11.3067H11.2986H11.2906H11.2825H11.2745H11.2665H11.2585H11.2505H11.2425H11.2346H11.2266H11.2187H11.2108H11.2029H11.195H11.1871H11.1792H11.1713H11.1635H11.1557H11.1478H11.14H11.1322Z" fill="black"/>
</svg>
