<svg width="25" height="25" viewBox="0 0 25 25" fill="none" xmlns="http://www.w3.org/2000/svg">
<path fill-rule="evenodd" clip-rule="evenodd" d="M8.19466 0.162842H1.01392C0.461631 0.162842 0.013916 0.610559 0.013916 1.16284V8.34372H8.19466V0.162842ZM0.013916 10.3437V23.88C0.013916 24.4323 0.461633 24.88 1.01392 24.88H23.7311C24.2834 24.88 24.7311 24.4323 24.7311 23.88V8.17958C24.7311 7.90778 24.6205 7.64769 24.4247 7.45918L17.1363 0.442441C16.95 0.263056 16.7014 0.162842 16.4428 0.162842H10.1947V9.34372C10.1947 9.896 9.74695 10.3437 9.19466 10.3437H0.013916ZM12.167 17.341C13.1516 17.341 13.9498 16.5428 13.9498 15.5582C13.9498 14.5736 13.1516 13.7755 12.167 13.7755C11.1824 13.7755 10.3843 14.5736 10.3843 15.5582C10.3843 16.5428 11.1824 17.341 12.167 17.341ZM15.9498 15.5582C15.9498 17.6474 14.2562 19.341 12.167 19.341C10.0779 19.341 8.38427 17.6474 8.38427 15.5582C8.38427 13.4691 10.0779 11.7755 12.167 11.7755C14.2562 11.7755 15.9498 13.4691 15.9498 15.5582Z" fill="black"/>
</svg>
