<svg width="26" height="25" viewBox="0 0 26 25" fill="none" xmlns="http://www.w3.org/2000/svg">
<path fill-rule="evenodd" clip-rule="evenodd" d="M15.4383 0.0800781C14.886 0.0800781 14.4383 0.527793 14.4383 1.08008C14.4383 1.63236 14.886 2.08008 15.4383 2.08008L22.0056 2.08008L2.52635 21.5593L2.52635 14.8527C2.52635 14.3004 2.07864 13.8527 1.52635 13.8527C0.974067 13.8527 0.526351 14.3004 0.526352 14.8527L0.526351 23.9058C0.526351 24.458 0.974066 24.9058 1.52635 24.9058L10.5734 24.9058C11.1256 24.9058 11.5734 24.4581 11.5734 23.9058C11.5734 23.3535 11.1257 22.9058 10.5734 22.9058L4.00833 22.9058L23.4853 3.42877V10.1331C23.4853 10.6854 23.933 11.1331 24.4853 11.1331C25.0376 11.1331 25.4853 10.6854 25.4853 10.1331V1.08009C25.4853 0.527803 25.0376 0.0800879 24.4853 0.0800872L15.4383 0.0800781ZM24.3488 13.8558C24.9011 13.8558 25.3488 14.3035 25.3488 14.8558L25.3488 23.9028C25.3488 24.4551 24.9011 24.9028 24.3488 24.9028H15.2958C14.7435 24.9028 14.2958 24.4551 14.2958 23.9028C14.2958 23.3505 14.7435 22.9028 15.2958 22.9028H23.3488L23.3488 14.8558C23.3488 14.3035 23.7965 13.8558 24.3488 13.8558ZM0.523743 10.1301C0.523743 10.6824 0.971457 11.1301 1.52374 11.1301C2.07603 11.1301 2.52374 10.6824 2.52374 10.1301L2.52375 2.08306L10.5768 2.08306C11.1291 2.08306 11.5768 1.63535 11.5768 1.08306C11.5768 0.530778 11.1291 0.0830625 10.5768 0.083063L1.52375 0.0830639C0.971467 0.0830639 0.523751 0.530778 0.523751 1.08306L0.523743 10.1301Z" fill="black"/>
</svg>
