<svg width="28" height="29" viewBox="0 0 28 29" fill="none" xmlns="http://www.w3.org/2000/svg">
<path fill-rule="evenodd" clip-rule="evenodd" d="M1.31066 0.904302C0.758379 0.902492 0.3092 1.34873 0.307383 1.90101L0.289592 7.30906C0.287775 7.86134 0.734015 8.31052 1.2863 8.31234C1.83858 8.31416 2.28776 7.86792 2.28958 7.31564L2.29886 4.49506L8.95788 11.064C9.35106 11.4518 9.98421 11.4475 10.3721 11.0543C10.7599 10.6611 10.7556 10.028 10.3624 9.64014L3.5416 2.91163L6.72133 2.92205C7.27361 2.92386 7.72279 2.47762 7.7246 1.92534C7.72641 1.37305 7.28017 0.923874 6.72789 0.922063L1.31066 0.904302ZM27.7121 1.90101C27.7103 1.34873 27.2612 0.902492 26.7089 0.904302L21.2916 0.922063C20.7394 0.923874 20.2931 1.37305 20.2949 1.92534C20.2967 2.47762 20.7459 2.92386 21.2982 2.92205L24.4779 2.91163L17.6571 9.64014C17.2639 10.028 17.2596 10.6611 17.6475 11.0543C18.0353 11.4475 18.6685 11.4518 19.0616 11.064L25.7207 4.49506L25.7299 7.31564C25.7318 7.86792 26.181 8.31416 26.7332 8.31234C27.2855 8.31052 27.7318 7.86134 27.7299 7.30906L27.7121 1.90101ZM0.289068 27.3451C0.287257 27.8974 0.733496 28.3466 1.28577 28.3484L6.69382 28.3662C7.2461 28.368 7.69529 27.9217 7.69711 27.3695C7.69892 26.8172 7.25268 26.368 6.7004 26.3662L3.87982 26.3569L10.4487 19.6979C10.8366 19.3047 10.8323 18.6716 10.4391 18.2837C10.0459 17.8958 9.41276 17.9002 9.02491 18.2933L2.29639 25.1142L2.30682 21.9344C2.30863 21.3821 1.86238 20.933 1.3101 20.9312C0.75782 20.9293 0.308639 21.3756 0.306829 21.9279L0.289068 27.3451ZM27.7305 27.3451C27.7323 27.8974 27.286 28.3466 26.7338 28.3484L21.3257 28.3662C20.7734 28.368 20.3242 27.9217 20.3224 27.3695C20.3206 26.8172 20.7668 26.368 21.3191 26.3662L24.1397 26.3569L17.5708 19.6979C17.183 19.3047 17.1873 18.6716 17.5804 18.2837C17.9736 17.8958 18.6068 17.9002 18.9946 18.2933L25.7231 25.1142L25.7127 21.9344C25.7109 21.3821 26.1571 20.933 26.7094 20.9312C27.2617 20.9293 27.7109 21.3756 27.7127 21.9279L27.7305 27.3451Z" fill="black"/>
</svg>
