<svg width="26" height="26" viewBox="0 0 26 26" fill="none" xmlns="http://www.w3.org/2000/svg">
<path fill-rule="evenodd" clip-rule="evenodd" d="M0.0172687 0.99671C0.0190859 0.444433 0.468265 -0.00180517 1.02054 5.49803e-06L6.12675 0.0167466C6.67903 0.0185573 7.12527 0.467738 7.12346 1.02002C7.12165 1.5723 6.67247 2.01855 6.12019 2.01674L3.26367 2.00737L9.59286 8.25091C9.98604 8.63876 9.99035 9.27191 9.6025 9.66509C9.21464 10.0583 8.58149 10.0626 8.18832 9.67472L2.00879 3.57882L2.00049 6.10084C1.99867 6.65312 1.54949 7.09936 0.997204 7.09754C0.444922 7.09573 -0.0013175 6.64654 0.000499249 6.09426L0.0172687 0.99671ZM25.9634 0.99671C25.9616 0.444433 25.5124 -0.00180517 24.9602 5.49803e-06L19.854 0.0167466C19.3017 0.0185573 18.8554 0.467738 18.8572 1.02002C18.8591 1.5723 19.3082 2.01855 19.8605 2.01674L22.7173 2.00737L16.3881 8.25091C15.9949 8.63876 15.9906 9.27191 16.3784 9.66509C16.7663 10.0583 17.3994 10.0626 17.7926 9.67472L23.9719 3.57905L23.9802 6.10084C23.982 6.65312 24.4312 7.09936 24.9835 7.09754C25.5358 7.09573 25.982 6.64654 25.9802 6.09426L25.9634 0.99671ZM5.52602e-06 24.9799C-0.00180512 25.5322 0.444433 25.9813 0.99671 25.9832L6.09426 25.9999C6.64654 26.0017 7.09573 25.5555 7.09754 25.0032C7.09936 24.4509 6.65312 24.0017 6.10084 23.9999L3.57913 23.9916L9.67476 17.8124C10.0626 17.4192 10.0583 16.7861 9.66512 16.3982C9.27195 16.0103 8.6388 16.0147 8.25094 16.4078L2.00737 22.7371L2.01674 19.8802C2.01855 19.3279 1.5723 18.8788 1.02002 18.877C0.467738 18.8751 0.0185571 19.3214 0.0167464 19.8737L5.52602e-06 24.9799ZM24.984 25.9832C25.5363 25.9813 25.9825 25.5322 25.9807 24.9799L25.964 19.8737C25.9621 19.3214 25.513 18.8751 24.9607 18.877C24.4084 18.8788 23.9622 19.3279 23.964 19.8802L23.9733 22.7368L17.73 16.4078C17.3421 16.0147 16.709 16.0103 16.3158 16.3982C15.9226 16.7861 15.9183 17.4192 16.3062 17.8124L22.4018 23.9916L19.8799 23.9999C19.3276 24.0017 18.8813 24.4509 18.8832 25.0032C18.885 25.5555 19.3342 26.0017 19.8864 25.9999L24.984 25.9832Z" fill="black"/>
</svg>
