<svg width="26" height="24" viewBox="0 0 26 24" fill="none" xmlns="http://www.w3.org/2000/svg">
<path fill-rule="evenodd" clip-rule="evenodd" d="M12.0036 0.848633L0.318699 22.3952C0.150653 22.705 0.158167 23.0805 0.338475 23.3834C0.518784 23.6863 0.84525 23.8719 1.19775 23.8719H24.7818C25.1343 23.8719 25.4607 23.6863 25.641 23.3834C25.8214 23.0805 25.8289 22.705 25.6608 22.3952L14.0036 0.899632V11.5379C14.0064 11.546 14.0159 11.5653 14.0439 11.5965C14.1009 11.6601 14.203 11.733 14.335 11.7828C15.7619 12.3205 16.7796 13.6987 16.7796 15.3171C16.7796 17.4026 15.089 19.0932 13.0036 19.0932C10.9181 19.0932 9.22754 17.4026 9.22754 15.3171C9.22754 14.7648 9.67525 14.3171 10.2275 14.3171C10.7798 14.3171 11.2275 14.7648 11.2275 15.3171C11.2275 16.298 12.0227 17.0932 13.0036 17.0932C13.9845 17.0932 14.7796 16.298 14.7796 15.3171C14.7796 14.5582 14.3032 13.9081 13.6297 13.6543C12.9304 13.3908 12.0036 12.694 12.0036 11.5411V0.848633ZM14.0026 11.5335C14.0027 11.5335 14.0032 11.5348 14.0034 11.5374C14.0025 11.5348 14.0024 11.5335 14.0026 11.5335Z" fill="black"/>
</svg>
