<svg width="20" height="27" viewBox="0 0 20 27" fill="none" xmlns="http://www.w3.org/2000/svg">
<path fill-rule="evenodd" clip-rule="evenodd" d="M11.1317 20.0252C10.6496 20.1 10.1556 20.1388 9.65245 20.1388C4.36748 20.1388 0.0822754 15.8536 0.0822754 10.5687C0.0822754 5.28367 4.36644 0.998474 9.65245 0.998474C14.9385 0.998474 19.2226 5.28367 19.2226 10.5687C19.2226 13.0206 18.3005 15.2573 16.784 16.9507L19.7032 22.0107C20.255 22.9672 19.9272 24.1899 18.9709 24.7421L16.8656 25.9578C15.9089 26.5103 14.6855 26.1824 14.1333 25.2256L11.1317 20.0252ZM15.8655 24.2259L13.4406 20.0246C14.2151 19.7458 14.9407 19.3677 15.6038 18.9073L17.9708 23.0101L15.8655 24.2259Z" fill="black"/>
</svg>
