<svg width="21" height="26" viewBox="0 0 21 26" fill="none" xmlns="http://www.w3.org/2000/svg">
<path fill-rule="evenodd" clip-rule="evenodd" d="M20.4615 1C20.4615 0.447715 20.0138 0 19.4615 0H1C0.447718 0 1.90735e-06 0.447715 1.90735e-06 1V25C1.90735e-06 25.5523 0.447718 26 1 26H19.4615C20.0138 26 20.4615 25.5523 20.4615 25V1ZM3.69222 4.69189C3.69222 5.24418 4.13993 5.69189 4.69222 5.69189H15.7691C16.3214 5.69189 16.7691 5.24418 16.7691 4.69189C16.7691 4.13961 16.3214 3.69189 15.7691 3.69189H4.69222C4.13993 3.69189 3.69222 4.13961 3.69222 4.69189ZM3.69222 8.38428C3.69222 7.83199 4.13993 7.38428 4.69222 7.38428H15.7692C16.3215 7.38428 16.7692 7.83199 16.7692 8.38428C16.7692 8.93656 16.3215 9.38428 15.7692 9.38428H4.69222C4.13993 9.38428 3.69222 8.93656 3.69222 8.38428ZM16.9699 17.7916C17.3605 17.4011 17.3605 16.7679 16.9699 16.3774C16.5794 15.9868 15.9463 15.9868 15.5557 16.3774L12.963 18.9701L12.3013 18.3085C11.9108 17.9179 11.2777 17.9179 10.8871 18.3085C10.4966 18.699 10.4966 19.3322 10.8871 19.7227L12.2558 21.0914C12.6464 21.4819 13.2795 21.4819 13.6701 21.0914L16.9699 17.7916ZM9.7148 16.3774C10.1053 16.7679 10.1053 17.4011 9.71479 17.7916L6.41492 21.0914C6.0244 21.4819 5.39124 21.4819 5.00071 21.0914L3.632 19.7227C3.24147 19.3322 3.24147 18.699 3.632 18.3085C4.02252 17.9179 4.65568 17.9179 5.04621 18.3085L5.70783 18.9701L8.30059 16.3774C8.69112 15.9868 9.32428 15.9868 9.7148 16.3774Z" fill="black"/>
</svg>
