<svg width="26" height="26" viewBox="0 0 26 26" fill="none" xmlns="http://www.w3.org/2000/svg">
<path fill-rule="evenodd" clip-rule="evenodd" d="M13 26C12.4477 26 12 25.5523 12 25L12.0001 22.679C7.45668 22.2064 3.85576 18.5627 3.44931 14L0.99998 13.9999C0.447695 13.9999 -1.4362e-05 13.5522 -7.62939e-06 12.9999C-6.18498e-07 12.4476 0.44772 11.9999 1 11.9999L3.47785 12C4.00169 7.56672 7.54851 4.05945 12.0001 3.59637L12.0001 0.999988C12.0001 0.447704 12.4478 -5.7899e-06 13.0001 0C13.5524 7.60982e-06 14.0001 0.447729 14.0001 1.00001L14.0001 3.59548C18.4557 4.05497 22.0067 7.56389 22.5308 12L25 12C25.5523 12 26 12.4477 26 13C26 13.5523 25.5523 14 25 14L22.5594 14C22.1527 18.5656 18.5475 22.211 14.0001 22.6799L14 25C14 25.5523 13.5523 26 13 26ZM12.9986 9.66162C12.7307 9.66213 12.4738 9.7688 12.2843 9.95831C12.0943 10.1483 11.9876 10.4059 11.9876 10.6746V11.3081H14.0057V10.6746C14.0057 10.4066 13.8995 10.1495 13.7104 9.95968C13.5218 9.77028 13.2659 9.66316 12.9986 9.66162ZM9.98758 10.6746V11.3081H9.7906C9.23832 11.3081 8.7906 11.7558 8.7906 12.3081V16.6771C8.7906 17.2293 9.23832 17.6771 9.7906 17.6771H16.2103C16.7626 17.6771 17.2103 17.2293 17.2103 16.6771V12.3081C17.2103 11.7558 16.7626 11.3081 16.2103 11.3081H16.0057V10.6746C16.0057 9.87752 15.6899 9.11292 15.1274 8.54821C14.5648 7.9835 13.8015 7.66471 13.0044 7.66163V7.66162H13.0005C12.2015 7.66162 11.4351 7.97905 10.8701 8.5441C10.305 9.10914 9.98758 9.8755 9.98758 10.6746ZM10.7906 13.3081V15.6771H15.2103V13.3081H10.7906Z" fill="black"/>
</svg>
