<svg width="24" height="27" viewBox="0 0 24 27" fill="none" xmlns="http://www.w3.org/2000/svg">
<path fill-rule="evenodd" clip-rule="evenodd" d="M0 4.82946C0 4.40396 0.269256 4.02506 0.67108 3.8851L11.6658 0.0556421C11.8787 -0.0185158 12.1104 -0.0185482 12.3234 0.0555498L23.3287 3.88522C23.7306 4.0251 24 4.40407 24 4.82967V18.9771C24 19.325 23.8192 19.6479 23.5225 19.8297L12.4408 26.621C12.1203 26.8174 11.7166 26.8175 11.396 26.6211L0.477656 19.9331C0.18091 19.7513 0 19.4283 0 19.0803V4.82946ZM17.2251 10.557C17.5783 10.1324 17.5205 9.50188 17.0959 9.14869C16.6713 8.7955 16.0408 8.85339 15.6876 9.27798L10.8793 15.0583L8.62581 12.5566C8.25617 12.1462 7.62387 12.1132 7.21352 12.4829C6.80317 12.8525 6.77017 13.4848 7.13981 13.8952L10.1664 17.2551C10.3606 17.4707 10.639 17.5913 10.9291 17.5856C11.2193 17.5799 11.4926 17.4484 11.6782 17.2253L17.2251 10.557Z" fill="black"/>
</svg>
