<svg width="19" height="26" viewBox="0 0 19 26" fill="none" xmlns="http://www.w3.org/2000/svg">
<path fill-rule="evenodd" clip-rule="evenodd" d="M0 1C0 0.447715 0.447715 0 1 0H17.5109C18.0632 0 18.5109 0.447715 18.5109 1V25C18.5109 25.5523 18.0632 26 17.5109 26H1C0.447715 26 0 25.5523 0 25V1ZM8.37546 6.3776C8.60833 6.14473 8.92403 6.0137 9.25332 6.01319C9.58176 6.01496 9.89621 6.14654 10.1281 6.37929C10.3603 6.61248 10.4908 6.92822 10.4908 7.25738V8.07715H8.01105V7.25738C8.01105 6.92739 8.14213 6.61093 8.37546 6.3776ZM12.4908 7.25738V8.18749C13.2727 8.45924 13.834 9.20265 13.834 10.0771V12.948C13.834 14.0525 12.9385 14.948 11.834 14.948H6.67682C5.57225 14.948 4.67682 14.0525 4.67682 12.948V10.0771C4.67682 9.206 5.23379 8.46494 6.01105 8.19064V7.25738C6.01105 6.39697 6.35284 5.57179 6.96125 4.96339C7.56965 4.35498 8.39484 4.01318 9.25525 4.01318H9.25911C10.1174 4.0165 10.9393 4.35977 11.545 4.96781C12.1507 5.57586 12.4908 6.39914 12.4908 7.25738ZM8.30548 20.7124C7.7532 20.7124 7.30548 21.1601 7.30548 21.7124C7.30548 22.2647 7.7532 22.7124 8.30548 22.7124H10.2053C10.7576 22.7124 11.2053 22.2647 11.2053 21.7124C11.2053 21.1601 10.7576 20.7124 10.2053 20.7124H8.30548ZM11.834 10.0771L6.67682 10.0771V12.948L11.834 12.948L11.834 10.0771Z" fill="black"/>
</svg>
