<svg width="18" height="26" viewBox="0 0 18 26" fill="none" xmlns="http://www.w3.org/2000/svg">
<path fill-rule="evenodd" clip-rule="evenodd" d="M1.10938 0.248779H16.7613C17.3136 0.248779 17.7613 0.696495 17.7613 1.24878V24.9073C17.7613 25.4596 17.3136 25.9073 16.7613 25.9073H1.10937C0.55709 25.9073 0.109375 25.4596 0.109375 24.9073V1.24878C0.109375 0.696494 0.55709 0.248779 1.10938 0.248779ZM7.91997 21.3925C7.36768 21.3925 6.91997 21.8402 6.91997 22.3925C6.91997 22.9448 7.36768 23.3925 7.91997 23.3925H9.95107C10.5034 23.3925 10.9511 22.9448 10.9511 22.3925C10.9511 21.8402 10.5034 21.3925 9.95107 21.3925H7.91997ZM4.10937 8.88402C4.10937 8.33174 4.55709 7.88402 5.10937 7.88402H5.53605V6.93865C5.53605 6.03711 5.89418 5.17249 6.53167 4.535C7.16917 3.89751 8.0338 3.53937 8.93534 3.53937H8.9392V3.53938C9.83848 3.54285 10.6997 3.90252 11.3344 4.53963C11.969 5.17675 12.3254 6.03939 12.3253 6.93866V7.88402H12.7611C13.3134 7.88402 13.7611 8.33174 13.7611 8.88402V14.0915C13.7611 14.6437 13.3134 15.0915 12.7611 15.0915H5.10937C4.55709 15.0915 4.10937 14.6437 4.10937 14.0915V8.88402ZM10.3253 7.88402V6.93865C10.3253 6.56846 10.1787 6.21337 9.91742 5.95111C9.65663 5.6893 9.30289 5.54131 8.93341 5.53937C8.56299 5.53988 8.20784 5.68726 7.94589 5.94921C7.68347 6.21163 7.53605 6.56754 7.53605 6.93865V7.88402H10.3253ZM6.10937 9.88402V13.0915H11.7611V9.88402H6.10937Z" fill="black"/>
</svg>
