<svg width="17" height="24" viewBox="0 0 17 24" fill="none" xmlns="http://www.w3.org/2000/svg">
<path fill-rule="evenodd" clip-rule="evenodd" d="M1 0H15.5109C16.0632 0 16.5109 0.447715 16.5109 1V23C16.5109 23.5523 16.0632 24 15.5109 24H1C0.447716 24 0 23.5523 0 23V1C0 0.447716 0.447715 0 1 0ZM4.6768 7.07707C4.12452 7.07707 3.6768 7.52479 3.6768 8.07707V12.9479C3.6768 13.5002 4.12452 13.9479 4.6768 13.9479H11.834C12.3862 13.9479 12.834 13.5002 12.834 12.9479V8.07707C12.834 7.52479 12.3862 7.07707 11.834 7.07707H11.4911V6.25745V6.25744C11.4911 5.3992 11.151 4.57592 10.5453 3.96787C9.93959 3.35983 9.11764 3.01657 8.2594 3.01325V3.01325H8.25554C7.39513 3.01325 6.56994 3.35504 5.96153 3.96345C5.35313 4.57185 5.01133 5.39703 5.01133 6.25744V7.07707H4.6768ZM9.49105 6.25743V7.07707H7.01133V6.25744C7.01133 5.92746 7.14242 5.61099 7.37575 5.37766C7.60862 5.14479 7.92432 5.01376 8.2536 5.01325C8.58205 5.01502 8.8965 5.14661 9.12834 5.37935C9.36063 5.61254 9.49105 5.92828 9.49105 6.25743ZM5.6768 11.9479V9.07707H10.834V11.9479H5.6768ZM7.30568 19.7123C6.75339 19.7123 6.30568 20.16 6.30568 20.7123C6.30568 21.2646 6.75339 21.7123 7.30568 21.7123H9.20548C9.75777 21.7123 10.2055 21.2646 10.2055 20.7123C10.2055 20.16 9.75777 19.7123 9.20548 19.7123H7.30568Z" fill="black"/>
</svg>
