<svg width="21" height="26" viewBox="0 0 21 26" fill="none" xmlns="http://www.w3.org/2000/svg">
<path fill-rule="evenodd" clip-rule="evenodd" d="M14.2744 1.03971C14.2744 1.59199 13.8267 2.03971 13.2744 2.03971L11.2124 2.03971V5.25667C16.2162 5.80571 20.1094 10.0465 20.1094 15.1965C20.1094 20.7194 15.6322 25.1965 10.1094 25.1965C4.58653 25.1965 0.109375 20.7194 0.109375 15.1965C0.109375 9.976 4.1098 5.68981 9.2124 5.23621V2.03971L7.17736 2.03971C6.62507 2.03971 6.17736 1.59199 6.17736 1.03971C6.17736 0.487424 6.62507 0.0397085 7.17736 0.0397084L10.0578 0.039708C10.1082 0.0318894 10.1598 0.027832 10.2124 0.027832C10.265 0.027832 10.3166 0.0318893 10.367 0.0397079L13.2744 0.0397075C13.8267 0.0397074 14.2744 0.487423 14.2744 1.03971ZM10.2261 8.99756C9.67379 8.99756 9.22607 9.44527 9.22607 9.99756V15.2942L7.23618 17.7087C6.88493 18.1349 6.9457 18.7651 7.3719 19.1164C7.7981 19.4676 8.42834 19.4069 8.77958 18.9807L10.9978 16.2891C11.1454 16.11 11.2261 15.8852 11.2261 15.6531V9.99756C11.2261 9.44527 10.7784 8.99756 10.2261 8.99756Z" fill="black"/>
</svg>
