<svg width="21" height="26" viewBox="0 0 21 26" fill="none" xmlns="http://www.w3.org/2000/svg">
<path fill-rule="evenodd" clip-rule="evenodd" d="M11.2965 2.01212V4.57529C16.5288 5.07142 20.6219 9.47759 20.6219 14.8398C20.6219 20.5344 16.0056 25.1507 10.311 25.1507C4.61638 25.1507 0 20.5344 0 14.8398C0 9.48751 4.07805 5.08772 9.29646 4.57809V2.01212L7.26172 2.01212C6.70943 2.01212 6.26172 1.56441 6.26172 1.01212C6.26172 0.459836 6.70943 0.0121202 7.26172 0.0121202L10.1403 0.0121198C10.1912 0.00414181 10.2433 0 10.2965 0C10.3496 0 10.4017 0.00414181 10.4526 0.0121198L13.3588 0.0121193C13.9111 0.0121193 14.3588 0.459835 14.3588 1.01212C14.3588 1.5644 13.9111 2.01212 13.3588 2.01212L11.2965 2.01212ZM9.31012 9.96973C9.31012 9.41744 9.75783 8.96973 10.3101 8.96973C10.8624 8.96973 11.3101 9.41744 11.3101 9.96973V15.6253C11.3101 15.8574 11.2294 16.0822 11.0818 16.2613L8.86363 18.9528C8.51238 19.379 7.88214 19.4398 7.45594 19.0886C7.02974 18.7373 6.96898 18.1071 7.32022 17.6809L9.31012 15.2663V9.96973Z" fill="black"/>
</svg>
