<svg width="29" height="29" viewBox="0 0 29 29" fill="none" xmlns="http://www.w3.org/2000/svg">
<path fill-rule="evenodd" clip-rule="evenodd" d="M11.3133 2.13338C11.7228 1.89765 12.2414 1.98071 12.5568 2.33254L14.6761 4.69667H15.364L17.5329 2.36682C17.8503 2.02593 18.3609 1.94924 18.7644 2.18191L24.2925 5.36971C24.7011 5.60535 24.8895 6.09451 24.7445 6.54339L23.7734 9.54967L24.1332 10.1739L27.2036 10.8759C27.6583 10.9799 27.9807 11.3844 27.9807 11.8508V18.4421C27.9807 18.929 27.63 19.3452 27.1501 19.4277L23.8394 19.9965L23.7067 20.3951L24.6713 23.517C24.8092 23.9634 24.6197 24.4458 24.2148 24.6789L18.6771 27.8667C18.2682 28.1021 17.7505 28.0197 17.4349 27.669L15.3058 25.3034H14.6189L12.46 27.6401C12.1429 27.9834 11.6302 28.0612 11.2255 27.8275L5.68777 24.6301C5.27832 24.3937 5.09039 23.9028 5.23729 23.4534L6.23474 20.4019L5.90709 19.8367L2.77804 19.1244C2.32291 19.0208 2 18.6161 2 18.1493V11.7545C2 11.2813 2.33166 10.8728 2.79478 10.7757L5.93792 10.1167L6.26046 9.55326L5.31841 6.481C5.18168 6.03508 5.37137 5.55387 5.77558 5.32118L11.3133 2.13338ZM12 15C12 13.3431 13.3431 12 15 12C16.6569 12 18 13.3431 18 15C18 16.6569 16.6569 18 15 18C13.3431 18 12 16.6569 12 15ZM15 10C12.2386 10 10 12.2386 10 15C10 17.7614 12.2386 20 15 20C17.7614 20 20 17.7614 20 15C20 12.2386 17.7614 10 15 10Z" fill="black"/>
</svg>
