<svg width="27" height="26" viewBox="0 0 27 26" fill="none" xmlns="http://www.w3.org/2000/svg">
<path fill-rule="evenodd" clip-rule="evenodd" d="M10.0183 0.825725C10.8137 0.295474 11.8549 0 12.955 0C14.0551 0 15.0963 0.295474 15.8916 0.825725C16.6775 1.34965 17.3195 2.18194 17.3236 3.23572C17.3236 3.23908 17.3236 3.24244 17.3236 3.24581V6.65043C17.3236 7.7283 16.6582 8.5344 15.8572 9.02236C15.0582 9.50915 14.0262 9.75607 12.955 9.75607C11.8838 9.75607 10.8518 9.50915 10.0528 9.02236C9.25177 8.5344 8.58635 7.7283 8.58635 6.65043V3.25819C8.58633 3.25405 8.58632 3.24991 8.58632 3.24576C8.58632 2.18723 9.2299 1.35131 10.0183 0.825725ZM10.1144 11.8733C10.3923 11.396 10.2307 10.7838 9.75341 10.5059C9.27613 10.228 8.66394 10.3897 8.38605 10.867L5.24558 16.2608C4.96769 16.738 5.12933 17.3502 5.60661 17.6281C6.08389 17.906 6.69607 17.7444 6.97396 17.2671L10.1144 11.8733ZM16.1575 10.5059C16.6348 10.228 17.247 10.3897 17.5249 10.867L20.6654 16.2608C20.9432 16.738 20.7816 17.3502 20.3043 17.6281C19.827 17.906 19.2149 17.7444 18.937 17.2671L15.7965 11.8733C15.5186 11.396 15.6802 10.7838 16.1575 10.5059ZM1.56573 19.8154C2.44367 19.2302 3.59893 18.9006 4.82499 18.9006C6.05106 18.9006 7.20632 19.2302 8.08426 19.8154C8.95513 20.396 9.64998 21.3078 9.64998 22.4503C9.64998 23.5928 8.95513 24.5046 8.08426 25.0852C7.20632 25.6704 6.05106 26 4.82499 26C3.59893 26 2.44367 25.6704 1.56573 25.0852C0.694852 24.5046 0 23.5928 0 22.4503C0 21.3078 0.694852 20.396 1.56573 19.8154ZM17.9422 19.8154C18.8201 19.2302 19.9754 18.9006 21.2015 18.9006C22.4275 18.9006 23.5828 19.2302 24.4607 19.8154C25.3316 20.396 26.0264 21.3078 26.0264 22.4503C26.0264 23.5928 25.3316 24.5046 24.4607 25.0852C23.5828 25.6704 22.4275 26 21.2015 26C19.9754 26 18.8201 25.6704 17.9422 25.0852C17.0713 24.5046 16.3765 23.5928 16.3765 22.4503C16.3765 21.3079 17.0713 20.396 17.9422 19.8154ZM10.5864 6.65043V5.98551C11.282 6.31341 12.1008 6.49157 12.955 6.49157C13.8092 6.49157 14.628 6.31341 15.3236 5.98551V6.65043C15.3236 6.81284 15.235 7.05956 14.8167 7.31435C14.3966 7.57031 13.7442 7.75607 12.955 7.75607C12.1658 7.75607 11.5134 7.57031 11.0933 7.31435C10.675 7.05956 10.5864 6.81284 10.5864 6.65043Z" fill="black"/>
</svg>
