<svg width="28" height="27" viewBox="0 0 28 27" fill="none" xmlns="http://www.w3.org/2000/svg">
<path fill-rule="evenodd" clip-rule="evenodd" d="M18.127 7.19843V3.49121C18.127 1.83438 16.1122 0.491211 13.627 0.491211C11.1417 0.491211 9.12695 1.83438 9.12695 3.49121V7.19843C9.12695 8.30868 9.78181 9.16284 10.614 9.69413C11.4398 10.2214 12.5112 10.4912 13.627 10.4912C14.7427 10.4912 15.8141 10.2214 16.6399 9.69413C17.4721 9.16284 18.127 8.30868 18.127 7.19843ZM11.127 6.36651V7.19843C11.127 7.43869 11.2556 7.73093 11.6902 8.0084C12.1312 8.28993 12.8097 8.49121 13.627 8.49121C14.4442 8.49121 15.1227 8.28993 15.5637 8.0084C15.9983 7.73093 16.127 7.43869 16.127 7.19843V6.36651C15.3986 6.73462 14.5333 6.93657 13.627 6.93657C12.7207 6.93657 11.8553 6.73462 11.127 6.36651ZM10.5277 11.0443C11.005 11.3221 11.1666 11.9343 10.8887 12.4116L7.57171 18.1086C7.29382 18.5859 6.68164 18.7475 6.20436 18.4696C5.72708 18.1917 5.56544 17.5796 5.84333 17.1023L9.16033 11.4053C9.43822 10.928 10.0504 10.7664 10.5277 11.0443ZM17.3484 11.0443C17.8257 10.7664 18.4379 10.928 18.7158 11.4053L22.0328 17.1023C22.3106 17.5796 22.149 18.1917 21.6717 18.4696C21.1944 18.7475 20.5823 18.5859 20.3044 18.1086L16.9874 12.4116C16.7095 11.9343 16.8711 11.3221 17.3484 11.0443ZM27.127 23.2412C27.127 25.3119 24.8881 26.9912 22.127 26.9912C19.3658 26.9912 17.127 25.3119 17.127 23.2412C17.127 21.1706 19.3658 19.4912 22.127 19.4912C24.8881 19.4912 27.127 21.1706 27.127 23.2412ZM5.12695 26.9912C7.88809 26.9912 10.127 25.3119 10.127 23.2412C10.127 21.1706 7.88809 19.4912 5.12695 19.4912C2.36581 19.4912 0.126953 21.1706 0.126953 23.2412C0.126953 25.3119 2.36581 26.9912 5.12695 26.9912Z" fill="black"/>
</svg>
