<svg width="28" height="25" viewBox="0 0 28 25" fill="none" xmlns="http://www.w3.org/2000/svg">
<path fill-rule="evenodd" clip-rule="evenodd" d="M12.2232 0.295823C12.6138 -0.0947014 13.2469 -0.0947014 13.6375 0.295823L16.9168 3.57517C17.3071 3.96546 17.3074 4.59817 16.9174 4.98879L13.6381 8.27364C13.2479 8.6645 12.6147 8.66503 12.2238 8.27483C11.833 7.88463 11.8325 7.25147 12.2227 6.86062L13.7957 5.28494L1.95577 5.28495C1.40349 5.28495 0.955774 4.83723 0.955773 4.28495C0.955772 3.73266 1.40349 3.28495 1.95577 3.28495L13.7981 3.28494L12.2232 1.71004C11.8327 1.31951 11.8327 0.686347 12.2232 0.295823ZM23.3671 9.6733C22.9765 9.28278 22.3434 9.28278 21.9528 9.6733L13.5396 18.0866C13.4123 18.2139 13.3217 18.3732 13.2774 18.5477L12.1307 23.0666C12.0441 23.4081 12.1435 23.77 12.3925 24.0192C12.6415 24.2685 13.0033 24.3683 13.3449 24.2821L17.868 23.1397C18.043 23.0956 18.2027 23.0049 18.3303 22.8773L26.7436 14.464C27.1341 14.0735 27.1341 13.4403 26.7436 13.0498L23.3671 9.6733ZM0.289551 23.7506C0.289551 23.1984 0.737266 22.7506 1.28955 22.7506H9.31907C9.87135 22.7506 10.3191 23.1984 10.3191 23.7506C10.3191 24.3029 9.87135 24.7506 9.31907 24.7506H1.28955C0.737266 24.7506 0.289551 24.3029 0.289551 23.7506ZM5.94223 6.86006C6.33275 7.25058 6.33275 7.88375 5.94223 8.27427L4.36996 9.84654H16.2054C16.7577 9.84654 17.2054 10.2943 17.2054 10.8465C17.2054 11.3988 16.7577 11.8465 16.2054 11.8465H4.36715L5.94282 13.4249C6.33302 13.8157 6.33249 14.4489 5.94164 14.8391C5.55079 15.2293 4.91762 15.2287 4.52742 14.8379L1.24807 11.553C0.858108 11.1624 0.858373 10.5297 1.24867 10.1394L4.52802 6.86006C4.91854 6.46954 5.5517 6.46954 5.94223 6.86006Z" fill="black"/>
</svg>
