<svg width="26" height="15" viewBox="0 0 26 15" fill="none" xmlns="http://www.w3.org/2000/svg">
<path fill-rule="evenodd" clip-rule="evenodd" d="M21.0381 0.292893C21.4286 -0.0976312 22.0618 -0.0976312 22.4523 0.292893L25.7071 3.54772C26.0976 3.93824 26.0976 4.57141 25.7071 4.96193L17.281 13.388C17.1575 13.5116 17.0036 13.6006 16.8349 13.6462L12.3684 14.8538C12.0225 14.9473 11.6531 14.8486 11.3999 14.5952C11.1467 14.3417 11.0484 13.9721 11.1423 13.6264L12.3541 9.16401C12.3998 8.99571 12.4887 8.84228 12.612 8.71896L21.0381 0.292893ZM7.25182 12.2211C6.79088 11.1811 5.89499 10.5878 4.89568 10.5818H4.88361C3.89058 10.5878 2.98221 11.175 2.51858 12.2211L2.34562 12.6246C2.31641 12.6922 2.1357 12.8888 1.74895 12.8888H1C0.447715 12.8888 0 13.3365 0 13.8888C0 14.4411 0.447715 14.8888 1 14.8888H1.74895C2.7299 14.8888 3.76516 14.3871 4.1836 13.4131L4.34926 13.0267C4.43805 12.8284 4.54277 12.7226 4.62603 12.6661C4.70887 12.6098 4.79781 12.5834 4.88964 12.5818C4.98049 12.5834 5.06588 12.6093 5.14549 12.6638C5.22625 12.7191 5.33085 12.8249 5.4212 13.0267L5.58718 13.4139C6.00562 14.3879 7.04056 14.8888 8.02152 14.8888H8.77046C9.32275 14.8888 9.77046 14.4411 9.77046 13.8888C9.77046 13.3365 9.32275 12.8888 8.77046 12.8888H8.02152C7.63448 12.8888 7.45379 12.692 7.42478 12.6244L7.25677 12.2323L7.25182 12.2211Z" fill="black"/>
</svg>
