<svg width="28" height="16" viewBox="0 0 28 16" fill="none" xmlns="http://www.w3.org/2000/svg">
<path fill-rule="evenodd" clip-rule="evenodd" d="M26.2343 1.45538C25.1495 0.370587 23.3907 0.370587 22.3059 1.45538L13.6902 10.0711L12.5943 13.853C12.3752 14.6093 13.0756 15.3105 13.8321 15.0921L17.6186 13.9994L26.2343 5.38375C27.319 4.29896 27.319 2.54017 26.2343 1.45538ZM5.5736 11.0039L5.5736 11.0038L5.56152 11.0039C4.50756 11.0103 3.5389 11.6326 3.04179 12.7542L3.04172 12.7542L3.0369 12.7654L2.85093 13.1993L2.85083 13.1995C2.79783 13.3224 2.55258 13.5561 2.09317 13.5561H1.26465C0.712364 13.5561 0.264648 14.0038 0.264648 14.5561C0.264648 15.1083 0.712364 15.5561 1.26465 15.5561H2.09317C3.1468 15.5561 4.24633 15.0181 4.68853 13.9887L4.68885 13.988L4.87244 13.5597C5.07048 13.1168 5.35391 13.0072 5.56756 13.0039C5.77501 13.0071 6.05234 13.1109 6.25292 13.5597L6.43652 13.988L6.43683 13.9887C6.87904 15.0181 7.97856 15.5561 9.03219 15.5561H9.86071C10.413 15.5561 10.8607 15.1083 10.8607 14.5561C10.8607 14.0038 10.413 13.5561 9.86071 13.5561H9.03219C8.57292 13.5561 8.32769 13.3226 8.27459 13.1996L8.27444 13.1993L8.08847 12.7654L8.08853 12.7654L8.08358 12.7542C7.58917 11.6387 6.63385 11.0103 5.5736 11.0039Z" fill="black"/>
</svg>
