<svg width="23" height="21" viewBox="0 0 23 21" fill="none" xmlns="http://www.w3.org/2000/svg">
<path fill-rule="evenodd" clip-rule="evenodd" d="M12.159 0.910889V10.5318L14.9213 7.76952C15.3118 7.37899 15.945 7.37899 16.3355 7.76952C16.726 8.16004 16.726 8.79321 16.3355 9.18373L11.8699 13.6494C11.4796 14.0396 10.8469 14.0399 10.4562 13.6499L5.98313 9.18432C5.59228 8.79413 5.59174 8.16096 5.98194 7.77011C6.37214 7.37926 7.0053 7.37873 7.39615 7.76892L10.159 10.5271V0.910889H1.06982C0.51754 0.910889 0.0698242 1.3586 0.0698242 1.91089V19.0318C0.0698242 19.5841 0.517538 20.0318 1.06982 20.0318H21.7663C22.3186 20.0318 22.7663 19.5841 22.7663 19.0318V1.91089C22.7663 1.3586 22.3186 0.910889 21.7663 0.910889H12.159Z" fill="black"/>
</svg>
