<svg width="27" height="24" viewBox="0 0 27 24" fill="none" xmlns="http://www.w3.org/2000/svg">
<path fill-rule="evenodd" clip-rule="evenodd" d="M17.739 9.226L14.7202 12.2448L14.7202 0.933105H25.9941C26.5464 0.933105 26.9941 1.38082 26.9941 1.93311V22.1521C26.9941 22.7044 26.5464 23.1521 25.9941 23.1521H1.99414C1.44186 23.1521 0.994141 22.7044 0.994141 22.1521V1.93311C0.994141 1.38082 1.44186 0.933105 1.99414 0.933105H12.7202V12.24L9.70053 9.22541C9.30968 8.83521 8.67652 8.83574 8.28632 9.22659C7.89612 9.61744 7.89665 10.2506 8.2875 10.6408L13.0175 15.3629C13.4081 15.7529 14.0408 15.7526 14.4311 15.3623L19.1532 10.6402C19.5437 10.2497 19.5437 9.61652 19.1532 9.226C18.7627 8.83547 18.1295 8.83547 17.739 9.226Z" fill="black"/>
</svg>
