<svg width="21" height="26" viewBox="0 0 21 26" fill="none" xmlns="http://www.w3.org/2000/svg">
<path fill-rule="evenodd" clip-rule="evenodd" d="M20.6665 1C20.6665 0.447715 20.2188 0 19.6665 0C19.1142 0 18.6665 0.447715 18.6665 1L18.6665 25C18.6665 25.5523 19.1142 26 19.6665 26C20.2188 26 20.6665 25.5523 20.6665 25L20.6665 1ZM13.4443 6.22223C13.9966 6.22223 14.4443 6.66994 14.4443 7.22223L14.4443 25C14.4443 25.5523 13.9966 26 13.4443 26C12.8921 26 12.4443 25.5523 12.4443 25L12.4443 7.22223C12.4443 6.66994 12.8921 6.22223 13.4443 6.22223ZM8.22217 12.5555C8.22217 12.0033 7.77445 11.5555 7.22217 11.5555C6.66988 11.5555 6.22217 12.0033 6.22217 12.5555L6.22217 25C6.22217 25.5523 6.66988 26 7.22217 26C7.77445 26 8.22217 25.5523 8.22217 25L8.22217 12.5555ZM2 18.7778C2 18.2255 1.55228 17.7778 1 17.7778C0.447715 17.7778 0 18.2255 0 18.7778V25C0 25.5523 0.447716 26 1 26C1.55229 26 2 25.5523 2 25L2 18.7778Z" fill="black"/>
</svg>
