<svg width="26" height="15" viewBox="0 0 26 15" fill="none" xmlns="http://www.w3.org/2000/svg">
<path fill-rule="evenodd" clip-rule="evenodd" d="M22.4481 0.292893C22.0576 -0.0976311 21.4244 -0.0976311 21.0339 0.292893L12.5972 8.72961C12.4739 8.85293 12.385 9.00636 12.3393 9.17467L11.126 13.6427C11.0321 13.9884 11.1304 14.358 11.3835 14.6115C11.6367 14.8649 12.0062 14.9636 12.352 14.8701L16.8242 13.661C16.993 13.6154 17.1468 13.5264 17.2704 13.4028L25.7071 4.96605C26.0976 4.57552 26.0976 3.94236 25.7071 3.55184L22.4481 0.292893ZM0 13.9046C0 13.3523 0.447715 12.9046 1 12.9046H8.74995C9.30224 12.9046 9.74995 13.3523 9.74995 13.9046C9.74995 14.4569 9.30224 14.9046 8.74995 14.9046H1C0.447715 14.9046 0 14.4569 0 13.9046Z" fill="black"/>
</svg>
