<svg width="26" height="19" viewBox="0 0 26 19" fill="none" xmlns="http://www.w3.org/2000/svg">
<path fill-rule="evenodd" clip-rule="evenodd" d="M12.3825 0H24.9527C25.505 0 25.9527 0.447715 25.9527 1V5.40379V17.7331C25.9527 18.2854 25.505 18.7331 24.9527 18.7331H12.3825C11.8302 18.7331 11.3825 18.2854 11.3825 17.7331V10.4294H7.98393V17.7108C7.98393 17.976 7.87857 18.2303 7.69104 18.4179C7.5035 18.6054 7.24915 18.7108 6.98393 18.7108H4.00721C3.45493 18.7108 3.00721 18.2631 3.00721 17.7108C3.00721 17.1585 3.45493 16.7108 4.00721 16.7108H5.98393V10.4294H4.00776C3.45547 10.4294 3.00776 9.9817 3.00776 9.42941C3.00776 8.87713 3.45547 8.42941 4.00776 8.42941H5.98393L5.98393 2.02772L4.00726 2.02772C3.45498 2.02772 3.00726 1.58 3.00726 1.02772C3.00726 0.475433 3.45498 0.0277172 4.00726 0.0277173L6.98393 0.0277177C7.53622 0.0277178 7.98393 0.475434 7.98393 1.02772V8.42941H11.3825V1C11.3825 0.447716 11.8302 0 12.3825 0ZM14.1825 4.29815C14.1825 4.85043 14.6302 5.29815 15.1825 5.29815H21.3736C21.9259 5.29815 22.3736 4.85043 22.3736 4.29815C22.3736 3.74586 21.9259 3.29815 21.3736 3.29815H15.1825C14.6302 3.29815 14.1825 3.74586 14.1825 4.29815ZM15.1825 7.02605C14.6302 7.02605 14.1825 7.47376 14.1825 8.02604C14.1825 8.57833 14.6302 9.02604 15.1825 9.02604H18.794C19.3462 9.02604 19.794 8.57833 19.794 8.02604C19.794 7.47376 19.3462 7.02605 18.794 7.02605H15.1825ZM14.1825 14.2592C14.1825 13.7069 14.6302 13.2592 15.1825 13.2592H21.3736C21.9259 13.2592 22.3736 13.7069 22.3736 14.2592C22.3736 14.8114 21.9259 15.2592 21.3736 15.2592H15.1825C14.6302 15.2592 14.1825 14.8114 14.1825 14.2592ZM1.01079 2.02825C1.56308 2.02825 2.01079 1.58053 2.01079 1.02825C2.01079 0.475961 1.56308 0.0282461 1.01079 0.0282461H1C0.447715 0.0282461 2.23517e-08 0.475961 0 1.02825C-2.23517e-08 1.58053 0.447715 2.02825 1 2.02825H1.01079ZM2.01079 9.42979C2.01079 9.98208 1.56308 10.4298 1.01079 10.4298H1C0.447715 10.4298 -2.23517e-08 9.98208 0 9.42979C2.23517e-08 8.87751 0.447715 8.42979 1 8.42979H1.01079C1.56308 8.42979 2.01079 8.87751 2.01079 9.42979ZM1.01079 18.7111C1.56308 18.7111 2.01079 18.2634 2.01079 17.7111C2.01079 17.1588 1.56308 16.7111 1.01079 16.7111H1C0.447715 16.7111 2.23517e-08 17.1588 0 17.7111C-2.23517e-08 18.2634 0.447715 18.7111 1 18.7111H1.01079Z" fill="black"/>
</svg>
