<svg width="26" height="19" viewBox="0 0 26 19" fill="none" xmlns="http://www.w3.org/2000/svg">
<path fill-rule="evenodd" clip-rule="evenodd" d="M3.23253 17.4367C3.23253 16.8844 3.68025 16.4367 4.23253 16.4367H5.07606C5.62835 16.4367 6.07606 15.989 6.07606 15.4367V10.5259H4.23305C3.68077 10.5259 3.23305 10.0782 3.23305 9.5259C3.23305 8.97362 3.68077 8.5259 4.23305 8.5259H6.07606V3.50012C6.07606 2.94784 5.62835 2.50012 5.07606 2.50012H4.23258C3.68029 2.50012 3.23258 2.05241 3.23258 1.50012C3.23258 0.947838 3.6803 0.500122 4.23258 0.500122H5.07606C6.73292 0.500122 8.07606 1.84327 8.07606 3.50012V8.5259H11.2779V1.51838C11.2779 0.966097 11.7256 0.518382 12.2779 0.518382H24.1961C24.7484 0.518382 25.1961 0.966098 25.1961 1.51838V5.68039V17.4133C25.1961 17.9656 24.7484 18.4133 24.1961 18.4133H12.2779C11.7256 18.4133 11.2779 17.9656 11.2779 17.4133V10.5259H8.07606V15.4367C8.07606 17.0936 6.73292 18.4367 5.07606 18.4367H4.23253C3.68025 18.4367 3.23253 17.989 3.23253 17.4367ZM13.9078 4.62419C13.9078 5.17647 14.3555 5.62419 14.9078 5.62419H20.8219C21.3742 5.62419 21.8219 5.17647 21.8219 4.62419C21.8219 4.0719 21.3742 3.62419 20.8219 3.62419H14.9078C14.3555 3.62419 13.9078 4.0719 13.9078 4.62419ZM14.9078 7.1853C14.3555 7.1853 13.9078 7.63302 13.9078 8.1853C13.9078 8.73759 14.3555 9.1853 14.9078 9.1853H18.3577C18.91 9.1853 19.3577 8.73759 19.3577 8.1853C19.3577 7.63302 18.91 7.1853 18.3577 7.1853H14.9078ZM13.9078 14.1395C13.9078 13.5873 14.3555 13.1395 14.9078 13.1395H20.8219C21.3742 13.1395 21.8219 13.5873 21.8219 14.1395C21.8219 14.6918 21.3742 15.1395 20.8219 15.1395H14.9078C14.3555 15.1395 13.9078 14.6918 13.9078 14.1395ZM1.37019 2.50053C1.92247 2.50053 2.37019 2.05281 2.37019 1.50053C2.37019 0.948244 1.92247 0.500529 1.37019 0.500529L1.3594 0.500529C0.807111 0.500529 0.359395 0.948244 0.359395 1.50053C0.359395 2.05281 0.80711 2.50053 1.3594 2.50053H1.37019ZM2.37017 9.52615C2.37017 10.0784 1.92245 10.5261 1.37017 10.5261H1.35937C0.80709 10.5261 0.359375 10.0784 0.359375 9.52615C0.359375 8.97386 0.80709 8.52615 1.35938 8.52615H1.37017C1.92245 8.52615 2.37017 8.97386 2.37017 9.52615ZM1.37017 18.437C1.92245 18.437 2.37017 17.9893 2.37017 17.437C2.37017 16.8847 1.92245 16.437 1.37017 16.437H1.35938C0.80709 16.437 0.359375 16.8847 0.359375 17.437C0.359375 17.9893 0.80709 18.437 1.35937 18.437H1.37017Z" fill="black"/>
</svg>
