<svg width="29" height="29" viewBox="0 0 29 29" fill="none" xmlns="http://www.w3.org/2000/svg">
<path fill-rule="evenodd" clip-rule="evenodd" d="M18.2134 5.46328C18.2142 5.46349 18.2111 5.46993 18.2017 5.48199C18.208 5.46911 18.2127 5.46308 18.2134 5.46328ZM17.6796 5.5825C17.7711 5.62827 17.8477 5.67086 17.9115 5.70968C17.8477 5.74849 17.7711 5.79109 17.6796 5.83685C17.0311 6.16109 15.9953 6.41935 14.742 6.41935C13.4886 6.41935 12.4528 6.16109 11.8043 5.83685C11.7128 5.79109 11.6362 5.74849 11.5724 5.70968C11.6362 5.67086 11.7128 5.62827 11.8043 5.5825C12.4528 5.25826 13.4886 5 14.742 5C15.9953 5 17.0311 5.25826 17.6796 5.5825ZM11.2705 5.46328C11.2712 5.46308 11.2759 5.46911 11.2822 5.48199C11.2728 5.46993 11.2697 5.46349 11.2705 5.46328ZM11.2705 5.95607C11.2697 5.95586 11.2728 5.94942 11.2822 5.93736C11.2759 5.95024 11.2712 5.95627 11.2705 5.95607ZM18.2017 5.93736C18.2111 5.94942 18.2142 5.95586 18.2134 5.95607C18.2127 5.95627 18.208 5.95024 18.2017 5.93736ZM20.1613 5.70968C20.1613 7.20619 17.735 8.41935 14.742 8.41935C11.7489 8.41935 9.32261 7.20619 9.32261 5.70968C9.32261 4.21316 11.7489 3 14.742 3C17.735 3 20.1613 4.21316 20.1613 5.70968ZM17.9178 10.9174C16.1584 9.18247 13.3317 9.18247 11.5723 10.9174C9.89109 12.5753 9.76971 15.2481 11.2937 17.0515L11.8647 17.7271L11.0267 17.9565C8.05831 18.769 6 21.4665 6 24.544V26.9996C6 27.5519 6.44771 27.9996 7 27.9996H22.4839C23.0361 27.9996 23.4839 27.5519 23.4839 26.9996V24.5396C23.4839 21.4644 21.4274 18.7688 18.4614 17.9564L17.6253 17.7274L18.1964 17.0515C19.7204 15.2481 19.5991 12.5753 17.9178 10.9174Z" fill="black"/>
</svg>
