<svg width="22" height="23" viewBox="0 0 22 23" fill="none" xmlns="http://www.w3.org/2000/svg">
<path fill-rule="evenodd" clip-rule="evenodd" d="M12.3345 5.06661L12.7515 4.51025C13.4094 3.63254 13.3308 2.40668 12.5664 1.62007C11.6911 0.719389 10.2448 0.7194 9.36952 1.62008C8.60508 2.40668 8.52653 3.63254 9.18434 4.51026L9.60122 5.0665C9.8552 5.40539 9.69393 5.89363 9.28806 6.01456L8.80632 6.1581C7.28229 6.6122 6.23761 8.01355 6.23761 9.60379V11.1352C6.23761 11.2392 6.32192 11.3236 6.42593 11.3236H9.71605V13.88L6.82018 16.1967L7.07362 15.8585C7.73143 14.9808 7.65289 13.7549 6.88845 12.9683C6.01314 12.0677 4.56687 12.0676 3.69156 12.9683C2.92712 13.7549 2.8486 14.9808 3.50644 15.8585L3.92343 16.4149C4.1774 16.7537 4.0162 17.2419 3.61039 17.3629L3.12971 17.5063C1.60709 17.9603 0.563477 19.3605 0.563477 20.9494V22.4834C0.563477 22.5875 0.647813 22.6718 0.751848 22.6718H9.83204C9.93604 22.6718 10.0204 22.5875 10.0204 22.4835V20.952C10.0204 19.5885 9.25227 18.3638 8.0725 17.7561L10.966 15.4412L13.8596 17.7561C12.6798 18.3638 11.9117 19.5885 11.9117 20.952V22.4835C11.9117 22.5875 11.996 22.6718 12.1001 22.6718H21.1802C21.2843 22.6718 21.3686 22.5875 21.3686 22.4834V20.9494C21.3686 19.3605 20.325 17.9603 18.8024 17.5063L18.3217 17.3629C17.9159 17.2419 17.7547 16.7537 18.0087 16.4149L18.4257 15.8585C19.0835 14.9808 19.005 13.7549 18.2405 12.9683C17.3652 12.0676 15.9189 12.0677 15.0436 12.9683C14.2792 13.7549 14.2007 14.9808 14.8585 15.8585L15.1119 16.1967L12.216 13.88V11.3236H15.5061C15.6101 11.3236 15.6945 11.2392 15.6945 11.1352V9.6011C15.6945 8.01223 14.6509 6.61203 13.1283 6.15802L12.6476 6.01469C12.2418 5.89369 12.0806 5.40547 12.3345 5.06661Z" fill="black"/>
</svg>
