<svg width="26" height="27" viewBox="0 0 26 27" fill="none" xmlns="http://www.w3.org/2000/svg">
<path fill-rule="evenodd" clip-rule="evenodd" d="M15.4685 1.4599C14.1749 0.180021 12.0921 0.180045 10.7986 1.45991C9.60268 2.64314 9.48087 4.5339 10.5151 5.86079L10.542 5.89534C8.51982 6.47908 7.12696 8.33021 7.12696 10.4357V12.1054C7.12696 12.6577 7.57468 13.1054 8.12696 13.1054H11.9223V15.7258L9.72165 17.2042C9.70466 16.3672 9.37249 15.5393 8.73742 14.911C7.44385 13.6311 5.36104 13.6311 4.06749 14.911C2.87159 16.0942 2.74978 17.985 3.784 19.3119L3.81093 19.3464C1.78874 19.9301 0.395874 21.7813 0.395874 23.8868V25.5564C0.395874 26.1087 0.843589 26.5564 1.39587 26.5564H11.405C11.9573 26.5564 12.405 26.1087 12.405 25.5564V23.884C12.405 22.0404 11.3366 20.392 9.71284 19.6195L12.9262 17.4608L16.3129 19.7359C14.8168 20.55 13.8469 22.1298 13.8469 23.8868V25.5564C13.8469 26.1087 14.2946 26.5564 14.8469 26.5564H24.856C25.4083 26.5564 25.856 26.1087 25.856 25.5564V23.884C25.856 21.7803 24.4649 19.9307 22.4448 19.3467L22.4719 19.3119C23.5062 17.985 23.3844 16.0942 22.1885 14.911C20.8949 13.6311 18.8121 13.6311 17.5185 14.911C16.8139 15.6081 16.4822 16.5509 16.5401 17.4792L13.9223 15.7207V13.1054H18.1361C18.6884 13.1054 19.1361 12.6577 19.1361 12.1054V10.4329C19.1361 8.32925 17.7449 6.47962 15.7248 5.89559L15.7519 5.86081C16.7862 4.53393 16.6644 2.64315 15.4685 1.4599Z" fill="black"/>
</svg>
