<svg width="26" height="26" viewBox="0 0 26 26" fill="none" xmlns="http://www.w3.org/2000/svg">
<path fill-rule="evenodd" clip-rule="evenodd" d="M26 24.7583C26 25.3106 25.5523 25.7583 25 25.7583L1 25.7584C0.447718 25.7584 0 25.3106 0 24.7584V8.5127H26L26 24.7583ZM26 6.5127H0V1C0 0.447718 0.447715 2.23385e-06 1 2.18557e-06L25 0C25.5523 0 26 0.447716 26 1V6.5127ZM3.74162 3.70793C4.13215 3.31741 4.76531 3.31741 5.15584 3.70793L5.173 3.7251C5.56353 4.11562 5.56353 4.74879 5.173 5.13931C4.78248 5.52984 4.14931 5.52984 3.75879 5.13931L3.74162 5.12215C3.3511 4.73162 3.3511 4.09846 3.74162 3.70793ZM7.52696 3.70793C7.91749 3.31741 8.55065 3.31741 8.94118 3.70793L8.95834 3.7251C9.34887 4.11562 9.34887 4.74879 8.95834 5.13931C8.56782 5.52984 7.93465 5.52984 7.54413 5.13931L7.52696 5.12215C7.13644 4.73162 7.13644 4.09846 7.52696 3.70793ZM9.49454 15.1556C9.91865 14.8019 9.97566 14.1713 9.62189 13.7472C9.26811 13.3231 8.63752 13.266 8.21342 13.6198L5.35947 16.0005C5.13157 16.1906 4.99989 16.4721 5.00003 16.7689C5.00018 17.0657 5.13214 17.3471 5.36023 17.5369L8.21418 19.9128C8.63863 20.2662 9.26916 20.2086 9.62252 19.7841C9.97587 19.3597 9.91824 18.7291 9.49379 18.3758L7.56208 16.7676L9.49454 15.1556ZM16.0992 13.7379C16.4527 13.3136 17.0833 13.2561 17.5076 13.6096L20.3711 15.9951C20.5993 16.1852 20.7312 16.4669 20.7311 16.7639C20.7309 17.0609 20.5987 17.3425 20.3704 17.5324L17.5069 19.9131C17.0822 20.2661 16.4517 20.2081 16.0986 19.7834C15.7455 19.3587 15.8036 18.7282 16.2283 18.3751L18.1678 16.7626L16.2275 15.1463C15.8032 14.7928 15.7457 14.1622 16.0992 13.7379ZM15.4113 12.3181C15.5873 11.7946 15.3057 11.2275 14.7822 11.0515C14.2587 10.8754 13.6917 11.1571 13.5156 11.6805L10.31 21.2125C10.134 21.736 10.4156 22.303 10.9391 22.4791C11.4626 22.6551 12.0297 22.3735 12.2057 21.85L15.4113 12.3181Z" fill="black"/>
</svg>
