<svg width="28" height="29" viewBox="0 0 28 29" fill="none" xmlns="http://www.w3.org/2000/svg">
<path fill-rule="evenodd" clip-rule="evenodd" d="M27 26.7583C27 27.3106 26.5523 27.7583 26 27.7583L2 27.7584C1.44772 27.7584 1 27.3106 1 26.7584V10.5127H27L27 26.7583ZM27 8.5127H1V3C1 2.44772 1.44772 2 2 2L26 2C26.5523 2 27 2.44772 27 3V8.5127ZM4.74162 5.70793C5.13215 5.31741 5.76531 5.31741 6.15584 5.70793L6.173 5.7251C6.56353 6.11562 6.56353 6.74879 6.173 7.13931C5.78248 7.52984 5.14931 7.52984 4.75879 7.13931L4.74162 7.12215C4.3511 6.73162 4.3511 6.09846 4.74162 5.70793ZM8.52696 5.70793C8.91749 5.31741 9.55065 5.31741 9.94118 5.70793L9.95834 5.7251C10.3489 6.11562 10.3489 6.74879 9.95834 7.13931C9.56782 7.52984 8.93465 7.52984 8.54413 7.13931L8.52696 7.12215C8.13644 6.73162 8.13644 6.09846 8.52696 5.70793ZM10.4945 17.1556C10.9186 16.8019 10.9757 16.1713 10.6219 15.7472C10.2681 15.3231 9.63752 15.266 9.21342 15.6198L6.35947 18.0005C6.13157 18.1906 5.99989 18.4721 6.00003 18.7689C6.00018 19.0657 6.13214 19.3471 6.36023 19.5369L9.21418 21.9128C9.63863 22.2662 10.2692 22.2086 10.6225 21.7841C10.9759 21.3597 10.9182 20.7291 10.4938 20.3758L8.56208 18.7676L10.4945 17.1556ZM17.0992 15.7379C17.4527 15.3136 18.0833 15.2561 18.5076 15.6096L21.3711 17.9951C21.5993 18.1852 21.7312 18.4669 21.7311 18.7639C21.7309 19.0609 21.5987 19.3425 21.3704 19.5324L18.5069 21.9131C18.0822 22.2661 17.4517 22.2081 17.0986 21.7834C16.7455 21.3587 16.8036 20.7282 17.2283 20.3751L19.1678 18.7626L17.2275 17.1463C16.8032 16.7928 16.7457 16.1622 17.0992 15.7379ZM16.4113 14.3181C16.5873 13.7946 16.3057 13.2275 15.7822 13.0515C15.2587 12.8754 14.6917 13.1571 14.5156 13.6805L11.31 23.2125C11.134 23.736 11.4156 24.303 11.9391 24.4791C12.4626 24.6551 13.0297 24.3735 13.2057 23.85L16.4113 14.3181Z" fill="black"/>
</svg>
