<svg width="23" height="24" viewBox="0 0 23 24" fill="none" xmlns="http://www.w3.org/2000/svg">
<path fill-rule="evenodd" clip-rule="evenodd" d="M19.2532 7.34526C17.4201 6.12322 15.0109 5.34132 12.3678 5.18279L12.3678 11.9756L13.7202 10.6233C14.1107 10.2328 14.7439 10.2328 15.1344 10.6233C15.5249 11.0138 15.5249 11.647 15.1344 12.0375L12.0747 15.0972C11.6841 15.4878 11.051 15.4878 10.6605 15.0972L7.6007 12.0375C7.21017 11.647 7.21017 11.0138 7.60069 10.6233C7.99121 10.2328 8.62438 10.2328 9.0149 10.6233L10.3678 11.9762L10.3678 5.18275C7.7245 5.34119 5.31507 6.12312 3.48187 7.34526C1.42694 8.71521 0 10.7176 0 13.0646C0 13.2696 0.0108863 13.472 0.0321265 13.6715C0.0111589 13.7521 0 13.8367 0 13.9239V16.5201C0 18.8865 1.44882 20.7861 3.51637 22.0454C5.58198 23.3036 8.36363 23.9998 11.3675 23.9998C14.3714 23.9998 17.153 23.3036 19.2187 22.0454C21.2862 20.7861 22.735 18.8865 22.735 16.5201V13.9239C22.735 13.8367 22.7239 13.7521 22.7029 13.6715C22.7241 13.472 22.735 13.2696 22.735 13.0646C22.735 10.7176 21.3081 8.71521 19.2532 7.34526ZM10.3678 5.18266C10.6976 5.16289 11.0311 5.15283 11.3675 5.15283C11.7042 5.15283 12.0378 5.16291 12.3678 5.1827L12.3678 1C12.3678 0.447715 11.9201 0 11.3678 0C10.8156 0 10.3678 0.447716 10.3678 1L10.3678 5.18266ZM2.23889 17.8037C2.60358 18.7549 3.3829 19.6223 4.55678 20.3374C6.24347 21.3647 8.64558 21.9998 11.3675 21.9998C14.0895 21.9998 16.4916 21.3647 18.1783 20.3374C19.3521 19.6223 20.1314 18.7549 20.4961 17.8037C20.117 18.1584 19.6999 18.4861 19.2532 18.7839C17.1912 20.1586 14.4003 20.9763 11.3675 20.9763C8.33472 20.9763 5.5438 20.1586 3.48187 18.7839C3.03513 18.4861 2.61807 18.1584 2.23889 17.8037Z" fill="black"/>
</svg>
