<svg width="23" height="27" viewBox="0 0 23 27" fill="none" xmlns="http://www.w3.org/2000/svg">
<path fill-rule="evenodd" clip-rule="evenodd" d="M12.0972 0.94791C11.7381 0.672311 11.2387 0.672311 10.8795 0.94791L8.13989 3.0505C7.70176 3.38674 7.61917 4.0145 7.95542 4.45263C8.29167 4.89075 8.91942 4.97334 9.35755 4.6371L10.4696 3.78362V7.75075L10.4696 7.75412C4.70131 7.98096 0.12793 11.1694 0.12793 15.0688C0.12793 15.2247 0.13524 15.3795 0.149646 15.533C0.135416 15.6001 0.12793 15.6698 0.12793 15.7412V19.5026C0.12793 21.7988 1.53677 23.6381 3.53748 24.8545C5.53649 26.0699 8.22599 26.7412 11.1279 26.7412C14.0299 26.7412 16.7194 26.0699 18.7184 24.8545C20.7191 23.6381 22.1279 21.7988 22.1279 19.5026V15.7412C22.1279 15.6698 22.1204 15.6001 22.1062 15.533C22.1206 15.3795 22.1279 15.2247 22.1279 15.0688C22.1279 11.3245 17.9111 8.23573 12.4687 7.7951C12.4693 7.7804 12.4696 7.76561 12.4696 7.75075V3.75484L13.6192 4.6371C14.0573 4.97334 14.6851 4.89075 15.0213 4.45263C15.3576 4.0145 15.275 3.38674 14.8369 3.0505L12.0972 0.94791ZM3.82204 20.918C3.19766 20.5336 2.62626 20.092 2.12932 19.6004C2.16765 20.9418 2.99614 22.1847 4.5765 23.1456C6.19687 24.1307 8.50737 24.7412 11.1279 24.7412C13.7485 24.7412 16.059 24.1307 17.6794 23.1456C19.2597 22.1847 20.0882 20.9418 20.1265 19.6004C19.6296 20.092 19.0582 20.5336 18.4338 20.918C16.4769 22.1231 13.909 22.8334 11.1279 22.8334C8.34686 22.8334 5.77901 22.1231 3.82204 20.918Z" fill="black"/>
</svg>
