<svg width="22" height="26" viewBox="0 0 22 26" fill="none" xmlns="http://www.w3.org/2000/svg">
<path fill-rule="evenodd" clip-rule="evenodd" d="M22 14.3276C22 14.4835 21.9927 14.6383 21.9783 14.7917C21.9925 14.8589 22 14.9286 22 15L22 18.7614C22 21.0576 20.5912 22.8969 18.5904 24.1133C16.5914 25.3287 13.9019 26 11 26C8.09806 26 5.40856 25.3287 3.40955 24.1133C1.40884 22.8969 5.89376e-08 21.0576 8.6319e-08 18.7614L1.31174e-07 15C1.32025e-07 14.9286 0.00748613 14.8589 0.021716 14.7917C0.0073108 14.6383 1.37333e-07 14.4835 1.39192e-07 14.3276C1.8477e-07 10.5055 4.39375 7.36652 9.99989 7.02988L9.99994 3.61117L8.74419 5.01021C8.37528 5.42122 7.74304 5.45534 7.33203 5.08643C6.92103 4.71752 6.8869 4.08528 7.25581 3.67427L10.2558 0.331974C10.4455 0.120659 10.716 -5.70927e-05 11 -5.70893e-05C11.2839 -5.89932e-05 11.5545 0.120657 11.7442 0.331968L14.7442 3.67427C15.1131 4.08527 15.079 4.71752 14.668 5.08643C14.257 5.45534 13.6247 5.42122 13.2558 5.01022L11.9999 3.61106L11.9999 7.02987C17.6061 7.36643 22 10.5054 22 14.3276ZM2.00139 18.8591C2.49833 19.3508 3.06973 19.7923 3.69411 20.1768C5.65108 21.3818 8.21893 22.0922 11 22.0922C13.7811 22.0922 16.3489 21.3818 18.3059 20.1768C18.9303 19.7923 19.5017 19.3508 19.9986 18.8592C19.9603 20.2006 19.1318 21.4435 17.5514 22.4044C15.9311 23.3895 13.6206 24 11 24C8.37944 24 6.06894 23.3895 4.44857 22.4044C2.86821 21.4435 2.03972 20.2006 2.00139 18.8591Z" fill="black"/>
</svg>
