<svg width="24" height="24" viewBox="0 0 24 24" fill="none" xmlns="http://www.w3.org/2000/svg">
<path fill-rule="evenodd" clip-rule="evenodd" d="M24 12C24 18.6274 18.6274 24 12 24C5.37258 24 0 18.6274 0 12C0 5.37258 5.37258 0 12 0C18.6274 0 24 5.37258 24 12ZM17.7111 9.70307C18.0994 9.31033 18.0958 8.67718 17.7031 8.28888C17.3103 7.90059 16.6772 7.90419 16.2889 8.29693L10.5024 14.1496L7.68258 11.5159C7.27897 11.1389 6.64617 11.1605 6.26919 11.5641C5.89221 11.9677 5.9138 12.6005 6.31742 12.9775L9.84757 16.2747C10.2431 16.6441 10.8608 16.6318 11.2413 16.247L17.7111 9.70307Z" fill="black"/>
</svg>
