<svg width="26" height="27" viewBox="0 0 26 27" fill="none" xmlns="http://www.w3.org/2000/svg">
<path fill-rule="evenodd" clip-rule="evenodd" d="M8.93563 6.30602C9.39594 8.48526 11.3302 10.1208 13.6465 10.1208C16.3056 10.1208 18.4613 7.96517 18.4613 5.30602C18.4613 2.64688 16.3056 0.491211 13.6465 0.491211C11.3302 0.491211 9.39594 2.12679 8.93563 4.30602L5.70685 4.30603C4.60228 4.30602 3.70685 5.20146 3.70685 6.30602L3.70685 16.5475L1.79558 14.8335C1.38442 14.4648 0.752188 14.4992 0.383458 14.9103C0.0147282 15.3215 0.04913 15.9537 0.460295 16.3224L4.03921 19.532C4.42762 19.8803 5.01856 19.8715 5.39641 19.5117L8.85899 16.2149C9.25897 15.834 9.27449 15.201 8.89365 14.8011C8.51282 14.4011 7.87984 14.3856 7.47986 14.7664L5.70685 16.4546L5.70685 6.30603L8.93563 6.30602ZM21.3276 7.45043C20.9391 7.1021 20.3482 7.11092 19.9704 7.47069L16.5078 10.7676C16.1078 11.1484 16.0923 11.7814 16.4731 12.1813C16.8539 12.5813 17.4869 12.5968 17.8869 12.216L19.6599 10.5278V20.6764L16.4311 20.6764C15.9708 18.4972 14.0366 16.8616 11.7203 16.8616C9.06116 16.8616 6.9055 19.0172 6.9055 21.6764C6.9055 24.3355 9.06116 26.4912 11.7203 26.4912C14.0366 26.4912 15.9708 24.8556 16.4311 22.6764L19.6599 22.6764C20.7645 22.6764 21.6599 21.781 21.6599 20.6764V10.4349L23.5712 12.1489C23.9823 12.5177 24.6146 12.4833 24.9833 12.0721C25.352 11.6609 25.3176 11.0287 24.9065 10.66L21.3276 7.45043Z" fill="black"/>
</svg>
