<svg width="26" height="26" viewBox="0 0 26 26" fill="none" xmlns="http://www.w3.org/2000/svg">
<path fill-rule="evenodd" clip-rule="evenodd" d="M8.8077 5.81481C9.26801 7.99405 11.2023 9.62963 13.5185 9.62963C16.1777 9.62963 18.3333 7.47396 18.3333 4.81481C18.3333 2.15567 16.1777 0 13.5185 0C11.2023 0 9.26801 1.63558 8.8077 3.81481H4.57892C4.02664 3.81481 3.57892 4.26253 3.57892 4.81481L3.57892 16.0563L1.66765 14.3423C1.25649 13.9735 0.624258 14.0079 0.255528 14.4191C-0.113201 14.8303 -0.0787997 15.4625 0.332365 15.8312L3.91128 19.0408C4.29969 19.3891 4.89063 19.3803 5.26848 19.0205L8.73106 15.7236C9.13104 15.3428 9.14656 14.7098 8.76572 14.3099C8.38489 13.9099 7.75191 13.8944 7.35193 14.2752L5.57892 15.9634L5.57892 5.81481L8.8077 5.81481ZM21.1996 6.95922C20.8112 6.61089 20.2203 6.61971 19.8424 6.97947L16.3798 10.2763C15.9799 10.6572 15.9643 11.2902 16.3452 11.6901C16.726 12.0901 17.359 12.1056 17.759 11.7248L19.532 10.0366V20.1852L16.3032 20.1852C15.8429 18.0059 13.9086 16.3704 11.5924 16.3704C8.93323 16.3704 6.77757 18.526 6.77757 21.1852C6.77757 23.8443 8.93323 26 11.5924 26C13.9086 26 15.8429 24.3644 16.3032 22.1852L20.532 22.1852C21.0843 22.1852 21.532 21.7375 21.532 21.1852V9.94371L23.4433 11.6577C23.8544 12.0264 24.4866 11.992 24.8554 11.5809C25.2241 11.1697 25.1897 10.5375 24.7785 10.1688L21.1996 6.95922Z" fill="black"/>
</svg>
