<svg width="29" height="29" viewBox="0 0 29 29" fill="none" xmlns="http://www.w3.org/2000/svg">
<g clip-path="url(#clip0_3_8884)">
<rect width="28" height="28" transform="translate(0.773438 0.157715)" fill="white"/>
<path d="M3.10938 23.25H17.7106V18.4773L16.276 15.6136L19.1094 13.9567C18.6898 13.5921 18.1788 13.3114 17.5937 13.1525L15.3651 12.5472C14.5117 12.3156 14.1872 11.3008 14.7537 10.6349L15.6407 9.59324C17.1542 7.81409 17.0332 5.20201 15.361 3.56498C13.5708 1.81167 10.6637 1.81167 8.87352 3.56498C7.2013 5.203 7.08026 7.81508 8.5938 9.59324L9.48076 10.6349C10.0473 11.2998 9.72285 12.3147 8.86945 12.5472L7.67021 12.8732C4.38375 13.7668 2.10938 16.692 2.10938 20.0257V22.25C2.10938 22.8023 2.55709 23.25 3.10938 23.25Z" fill="black"/>
<path d="M23.3207 14.9266L27.1093 15.7435L24.5478 18.5553L24.9118 22.2802L21.3447 20.8024L17.7807 22.2883L18.1385 18.5624L15.5708 15.7557L19.3584 14.9306L21.3343 11.7114L23.3196 14.9266H23.3207Z" stroke="black" stroke-width="2" stroke-linejoin="round"/>
</g>
<defs>
<clipPath id="clip0_3_8884">
<rect width="28" height="28" fill="white" transform="translate(0.773438 0.157715)"/>
</clipPath>
</defs>
</svg>
