<svg width="26" height="25" viewBox="0 0 26 25" fill="none" xmlns="http://www.w3.org/2000/svg">
<path fill-rule="evenodd" clip-rule="evenodd" d="M16.6075 1.92667C14.7626 0.0817347 11.7713 0.0817347 9.92641 1.92667C8.96391 2.88917 8.50355 4.16365 8.54531 5.42459C5.29113 7.12712 3.06775 10.5365 3.06775 14.4671C3.06775 14.5835 3.0697 14.6994 3.07358 14.8149C2.66079 15.0314 2.27329 15.3131 1.92634 15.6601C0.0813989 17.505 0.0813989 20.4962 1.92634 22.3412C3.50088 23.9157 5.91033 24.1465 7.72961 23.0335C9.32459 24.0663 11.227 24.6662 13.2668 24.6662C15.3072 24.6662 17.2093 24.0662 18.8041 23.0334C20.6234 24.1465 23.0329 23.9157 24.6074 22.3412C26.4524 20.4962 26.4524 17.505 24.6074 15.6601C24.2605 15.3131 23.8729 15.0314 23.4601 14.8149C23.464 14.6994 23.4659 14.5835 23.4659 14.4671C23.4659 10.5366 21.2427 7.12728 17.9886 5.42472C18.0304 4.16373 17.57 2.8892 16.6075 1.92667ZM21.4639 14.2805C21.3988 11.3681 19.8151 8.82878 17.4706 7.42595C17.2518 7.85169 16.9641 8.25115 16.6075 8.60778C14.7626 10.4527 11.7713 10.4527 9.92641 8.60778C9.56975 8.25112 9.28204 7.85162 9.06328 7.42584C6.71866 8.82865 5.13488 11.368 5.06983 14.2805C6.34368 14.2276 7.63485 14.6875 8.60744 15.6601C10.2208 17.2734 10.4233 19.7634 9.21493 21.5968C10.4096 22.2775 11.7918 22.6662 13.2668 22.6662C14.7416 22.6662 16.1239 22.2776 17.3188 21.5968C16.1105 19.7634 16.313 17.2734 17.9263 15.6601C18.8989 14.6875 20.19 14.2276 21.4639 14.2805Z" fill="black"/>
</svg>
