<svg width="27" height="25" viewBox="0 0 27 25" fill="none" xmlns="http://www.w3.org/2000/svg">
<path fill-rule="evenodd" clip-rule="evenodd" d="M8.17557 5.80169C8.14418 5.58368 8.12793 5.36077 8.12793 5.13407C8.12793 2.56989 10.2066 0.491211 12.7708 0.491211C15.335 0.491211 17.4136 2.56989 17.4136 5.13407C17.4136 5.23975 17.4101 5.34461 17.4032 5.44854C20.5568 6.94213 22.8042 10.0368 23.0958 13.683C25.0144 14.2533 26.4136 16.0303 26.4136 18.1341C26.4136 20.6982 24.335 22.7769 21.7708 22.7769C20.95 22.7769 20.179 22.564 19.51 22.1903C17.7784 23.6273 15.5541 24.4912 13.128 24.4912C10.7541 24.4912 8.57344 23.664 6.85845 22.2822C6.23086 22.5987 5.52164 22.7769 4.77079 22.7769C2.20661 22.7769 0.12793 20.6982 0.12793 18.1341C0.12793 16.1389 1.38639 14.4377 3.15284 13.7809C3.39292 10.3598 5.35387 7.41333 8.17557 5.80169ZM21.0724 13.5434C18.8396 13.8802 17.1279 15.8073 17.1279 18.1341C17.1279 19.1434 17.45 20.0776 17.9971 20.8393C16.6484 21.8753 14.9601 22.4912 13.128 22.4912C11.378 22.4912 9.75932 21.9293 8.44239 20.9761C9.05123 20.1908 9.41364 19.2047 9.41364 18.1341C9.41364 15.7104 7.5565 13.7204 5.18761 13.5097C5.48766 11.0571 6.89763 8.94751 8.89985 7.69857C9.73137 8.95117 11.1546 9.77693 12.7708 9.77693C14.5139 9.77693 16.0326 8.81634 16.8265 7.39565C19.1172 8.59207 20.7563 10.8652 21.0724 13.5434Z" fill="black"/>
</svg>
