<svg width="28" height="28" viewBox="0 0 28 28" fill="none" xmlns="http://www.w3.org/2000/svg">
<path fill-rule="evenodd" clip-rule="evenodd" d="M10.5405 11.129L9.27168 9.51628C8.59699 8.66012 8.19291 7.65501 8.05433 6.62097C6.30612 6.90817 4.87265 7.31117 3.86366 7.76783C3.27338 8.03499 2.89213 8.29222 2.67652 8.50344C2.56346 8.61419 2.52074 8.68617 2.50551 8.72006C2.52802 8.77262 2.61988 8.93241 2.9712 9.18059C3.45986 9.5258 4.24817 9.88768 5.33484 10.2123C6.7383 10.6317 8.52172 10.9545 10.5405 11.129ZM16.4011 11.2024C18.835 11.0575 20.9823 10.7002 22.6152 10.2123C23.7018 9.88768 24.4901 9.5258 24.9788 9.18059C25.3301 8.93243 25.422 8.77264 25.4445 8.72007C25.4292 8.6861 25.3863 8.61389 25.2727 8.50278C25.0563 8.29109 24.6738 8.03346 24.082 7.76604C22.9046 7.23408 21.1511 6.77524 18.9956 6.48755L18.9625 6.48313C18.8424 7.5655 18.433 8.62212 17.7283 9.51628L16.4011 11.2024ZM18.705 3.92658L19.3264 4.00952C21.6138 4.31483 23.6299 4.81849 25.1113 5.48778C25.8488 5.82098 26.518 6.22367 27.0209 6.71563C27.5269 7.21056 27.95 7.88613 27.95 8.72153C27.95 9.85484 27.1871 10.6815 26.4213 11.2225C25.6221 11.787 24.5469 12.2444 23.3308 12.6077C20.8826 13.3392 17.5752 13.7735 13.975 13.7735C10.3748 13.7735 7.06735 13.3392 4.61916 12.6077C3.40308 12.2444 2.32789 11.787 1.52874 11.2225C0.762897 10.6815 0 9.85484 0 8.72153C0 7.88725 0.422021 7.2123 0.927044 6.71757C1.42899 6.22585 2.09687 5.82333 2.83284 5.49024C4.23454 4.85584 6.11599 4.37009 8.2534 4.06073C8.51069 3.19666 8.96319 2.3852 9.6076 1.70387C11.7566 -0.567957 15.2434 -0.567957 17.3924 1.70387C18.0034 2.34983 18.4418 3.11275 18.705 3.92658ZM2.59403 21.6417C2.54742 21.5892 2.52216 21.5515 2.50893 21.5281C2.53669 21.4688 2.63548 21.3124 2.9712 21.0752C3.45986 20.73 4.24817 20.3681 5.33484 20.0434C5.75546 19.9178 6.21022 19.8008 6.69521 19.6938C6.25083 20.459 6 21.3407 6 22.271V23.1778C4.91759 22.8952 4.03646 22.5674 3.40285 22.2245C2.98373 21.9977 2.72966 21.7944 2.59403 21.6417ZM6 25.7523C4.52656 25.4105 3.21554 24.9658 2.21297 24.4232C1.64651 24.1167 1.12162 23.7487 0.724696 23.3017C0.321867 22.848 0 22.251 0 21.5343C0 20.4009 0.762897 19.5743 1.52874 19.0333C2.32789 18.4688 3.40308 18.0114 4.61916 17.6481C7.06735 16.9166 10.3748 16.4823 13.975 16.4823C17.5752 16.4823 20.8826 16.9166 23.3308 17.6481C24.5469 18.0114 25.6221 18.4688 26.4213 19.0333C27.1871 19.5743 27.95 20.4009 27.95 21.5343C27.95 22.2496 27.6298 22.8463 27.2276 23.3004C26.8315 23.7477 26.3076 24.116 25.7418 24.4227C24.7502 24.9604 23.456 25.4019 22 25.7424V27C22 27.5523 21.5523 28 21 28H7C6.44772 28 6 27.5523 6 27V25.7523ZM22 23.1667C23.0621 22.8866 23.9266 22.5631 24.5501 22.225C24.968 21.9984 25.2211 21.7954 25.3561 21.6429C25.403 21.5899 25.4282 21.5521 25.4413 21.5286C25.4139 21.4697 25.3155 21.313 24.9788 21.0752C24.4901 20.73 23.7018 20.3681 22.6152 20.0434C22.2112 19.9227 21.7757 19.81 21.3122 19.7065C21.7519 20.4688 22 21.3459 22 22.271V23.1667ZM25.4543 21.4997C25.4545 21.4997 25.4541 21.5015 25.4526 21.5053C25.4534 21.5016 25.4541 21.4997 25.4543 21.4997ZM2.49725 21.5043C2.49579 21.5005 2.49537 21.4986 2.49553 21.4986C2.49569 21.4987 2.49642 21.5005 2.49725 21.5043ZM25.4523 8.74277C25.4521 8.74276 25.4514 8.74066 25.4509 8.73645C25.4522 8.74067 25.4524 8.74277 25.4523 8.74277ZM2.49774 8.74274C2.49756 8.74275 2.49783 8.74064 2.49914 8.73643C2.49859 8.74063 2.49793 8.74274 2.49774 8.74274Z" fill="black"/>
</svg>
