<svg width="27" height="23" viewBox="0 0 27 23" fill="none" xmlns="http://www.w3.org/2000/svg">
<path fill-rule="evenodd" clip-rule="evenodd" d="M26.117 9.34288C26.1243 9.22624 26.1279 9.10901 26.1279 8.99121C26.1279 4.29709 20.3072 0.491211 13.1279 0.491211C5.94868 0.491211 0.12793 4.29709 0.12793 8.99121C0.12793 9.10901 0.131595 9.22624 0.138856 9.34288C0.131659 9.39128 0.12793 9.44081 0.12793 9.49121V14.0049C0.12793 16.6686 1.76064 18.8198 4.1233 20.2563C6.48424 21.6917 9.67374 22.4912 13.1279 22.4912C16.5821 22.4912 19.7716 21.6917 22.1326 20.2563C24.4952 18.8198 26.1279 16.6686 26.1279 14.0049V9.49121C26.1279 9.44081 26.1242 9.39128 26.117 9.34288ZM15.041 11.881C15.4315 12.2715 16.0647 12.2715 16.4552 11.881C16.8457 11.4905 16.8457 10.8573 16.4552 10.4668L14.4123 8.42384L16.4552 6.38098C16.8457 5.99045 16.8457 5.35729 16.4552 4.96676C16.0647 4.57623 15.4315 4.57623 15.041 4.96675L12.9981 7.00961L10.9552 4.96673C10.5647 4.5762 9.93154 4.5762 9.54102 4.96672C9.15049 5.35724 9.15049 5.9904 9.54101 6.38093L11.5839 8.42382L9.54094 10.4667C9.15042 10.8572 9.15041 11.4904 9.54094 11.8809C9.93146 12.2715 10.5646 12.2715 10.9551 11.8809L12.9981 9.83804L15.041 11.881ZM4.46572 15.5331C3.57834 14.9867 2.78525 14.3452 2.12793 13.6235V14.0049C2.12793 15.7512 3.18172 17.3431 5.16231 18.5473C7.14462 19.7526 9.95512 20.4912 13.1279 20.4912C16.3007 20.4912 19.1112 19.7526 21.0935 18.5473C23.0741 17.3431 24.1279 15.7512 24.1279 14.0049V13.6235C23.4706 14.3452 22.6775 14.9867 21.7901 15.5331C19.477 16.9574 16.4328 17.8018 13.1279 17.8018C9.82311 17.8018 6.77888 16.9574 4.46572 15.5331Z" fill="black"/>
</svg>
