<svg width="25" height="27" viewBox="0 0 25 27" fill="none" xmlns="http://www.w3.org/2000/svg">
<path fill-rule="evenodd" clip-rule="evenodd" d="M22.5521 5.53324C24.0319 5.88205 24.9766 7.38583 24.9766 8.9177C24.9766 9.92663 24.5668 10.9234 23.8642 11.586C24.3835 12.1912 24.6972 12.9778 24.6972 13.8378C24.6972 15.7487 23.1481 17.2978 21.2372 17.2978L15.5826 17.2978L17.3933 22.1317C17.9876 23.7182 17.3051 25.4987 15.8025 26.2814C14.1296 27.1528 12.0609 26.4738 11.2448 24.7634C10.2382 22.6538 9.12367 20.2771 8.26121 18.4288C7.82988 17.5044 7.46139 16.7117 7.20071 16.1501C7.14697 16.0343 7.0978 15.9284 7.05361 15.8331L1.96921 15.7957C1.41981 15.7917 0.976564 15.3451 0.976564 14.7957L0.976564 5.65141C0.976564 5.09913 1.42428 4.65141 1.97656 4.65141L7.06443 4.65141C7.08682 4.6093 7.11051 4.56558 7.13552 4.52039C7.37573 4.08634 7.74383 3.50577 8.2574 2.92145C9.28467 1.75268 10.9517 0.511827 13.3542 0.511765L19.3533 0.511718C20.2286 0.511718 21.0834 0.918164 21.7078 1.5015C22.3401 2.0922 22.8344 2.95742 22.8344 3.97169C22.8344 4.53393 22.7399 5.06269 22.5521 5.53324Z" fill="black"/>
</svg>
