<svg width="22" height="25" viewBox="0 0 22 25" fill="none" xmlns="http://www.w3.org/2000/svg">
<path d="M12.1635 10.2139L19.2607 10.2139C20.6193 10.2139 21.7206 11.3153 21.7206 12.6739C21.7206 14.0325 20.6193 15.1339 19.2607 15.1339L18.2455 15.1339L19.9174 15.134C21.0676 15.134 22 16.2354 22 17.594C22 18.9526 21.0676 20.054 19.9174 20.054L17.8111 20.054C18.9613 20.054 19.8578 20.9821 19.8578 22.54C19.8578 23.8986 18.5269 25 17.3767 25L14.989 25L11.3777 25C7.33526 24.9998 5.71805 20.8603 5.71805 20.8603L1.85798e-06 20.8603L1.74894e-06 11.716L5.71805 11.674C5.71805 11.674 8.16128 6.39053 10.1708 2.17895C10.7412 0.98338 12.1891 0.505198 13.364 1.11719C14.4184 1.66643 14.8974 2.91593 14.4803 4.02924L12.1635 10.2139Z" fill="black"/>
</svg>
