<svg width="22" height="24" viewBox="0 0 22 24" fill="none" xmlns="http://www.w3.org/2000/svg">
<path d="M12.461 14.5499L19.1726 14.5499C20.4575 14.5499 21.499 13.5083 21.499 12.2235C21.499 10.9387 20.4575 9.89717 19.1726 9.89717L18.2126 9.89717L19.7937 9.89701C20.8814 9.89701 21.7632 8.85546 21.7632 7.57065C21.7632 6.28583 20.8814 5.24428 19.7937 5.24428L17.8018 5.24428C18.8895 5.24428 19.7373 4.36653 19.7373 2.89326C19.7373 1.60845 18.4787 0.566894 17.391 0.566894L15.133 0.566894L11.7178 0.566939C7.89491 0.567036 6.36553 4.48175 6.36553 4.48175L0.958048 4.48175L0.958047 13.1294L6.36553 13.1692C6.36553 13.1692 8.67607 18.1656 10.5764 22.1485C11.1159 23.2791 12.4852 23.7313 13.5962 23.1526C14.5933 22.6332 15.0463 21.4515 14.6519 20.3987L12.461 14.5499Z" fill="black"/>
</svg>
