<svg width="25" height="25" viewBox="0 0 25 25" fill="none" xmlns="http://www.w3.org/2000/svg">
<path fill-rule="evenodd" clip-rule="evenodd" d="M24.1094 12.25C24.1094 18.8774 18.7368 24.25 12.1094 24.25C5.48196 24.25 0.109375 18.8774 0.109375 12.25C0.109375 5.62258 5.48196 0.25 12.1094 0.25C18.7368 0.25 24.1094 5.62258 24.1094 12.25ZM13.0118 5.22316C13.0118 4.67087 12.5641 4.22316 12.0118 4.22316C11.4595 4.22317 11.0118 4.67089 11.0118 5.22317L11.0119 13.022C11.0119 13.3823 11.2057 13.7147 11.5192 13.8922C11.8327 14.0697 12.2174 14.0648 12.5263 13.8795L16.724 11.361C17.1976 11.0769 17.3512 10.4626 17.0671 9.98906C16.783 9.51547 16.1687 9.36188 15.6951 9.64602L13.0118 11.2559L13.0118 5.22316Z" fill="black"/>
</svg>
