<svg width="26" height="22" viewBox="0 0 26 22" fill="none" xmlns="http://www.w3.org/2000/svg">
<path fill-rule="evenodd" clip-rule="evenodd" d="M13 0.0800781C9.51659 0.0800781 6.31755 1.01969 3.96017 2.59128C1.60981 4.15819 0 6.43266 0 9.08008C0 9.24456 0.00621401 9.40761 0.0184336 9.56913C0.00633713 9.6313 0 9.69552 0 9.76123V13.0662C0 15.7331 1.63154 17.8878 3.99452 19.3271C6.35555 20.7653 9.54532 21.5662 13 21.5662C16.4547 21.5662 19.6445 20.7653 22.0055 19.3271C24.3685 17.8878 26 15.7331 26 13.0662V9.76123C26 9.69552 25.9937 9.6313 25.9816 9.56913C25.9938 9.40761 26 9.24456 26 9.08008C26 6.43266 24.3902 4.15819 22.0398 2.59128C19.6824 1.01969 16.4834 0.0800781 13 0.0800781ZM2.10679 14.0177C2.64643 14.5899 3.27152 15.1098 3.96017 15.5689C6.31755 17.1405 9.51659 18.0801 13 18.0801C16.4834 18.0801 19.6824 17.1405 22.0398 15.5689C22.7285 15.1098 23.3536 14.5899 23.8932 14.0177C23.5795 15.3928 22.5801 16.6353 20.9651 17.6191C18.983 18.8264 16.1727 19.5662 13 19.5662C9.82726 19.5662 7.01704 18.8264 5.03492 17.6191C3.4199 16.6353 2.42047 15.3928 2.10679 14.0177Z" fill="black"/>
</svg>
