<svg width="21" height="26" viewBox="0 0 21 26" fill="none" xmlns="http://www.w3.org/2000/svg">
<path fill-rule="evenodd" clip-rule="evenodd" d="M1 0C0.447715 0 0 0.447713 0 0.999998V5.23135H7.28319V1C7.28319 0.447715 6.83548 0 6.28319 0H1ZM7.28319 7.23135H0V19.7726C0 19.957 0.0509586 20.1377 0.147246 20.2949L2.78884 24.6077C3.17895 25.2447 4.10424 25.2447 4.49435 24.6077L7.13595 20.2949C7.23223 20.1377 7.28319 19.957 7.28319 19.7726V7.23135Z" fill="black"/>
<path fill-rule="evenodd" clip-rule="evenodd" d="M14.5259 0C13.9736 0 13.5259 0.447714 13.5259 0.999999V5.24266C13.5259 5.24266 13.5259 5.24266 13.5259 5.24266H17.1677C17.72 5.24266 18.1677 5.69037 18.1677 6.24266C18.1677 6.79494 17.72 7.24266 17.1677 7.24266H13.5259C13.5259 7.24266 13.5259 7.24266 13.5259 7.24266V11.4853C13.5259 11.4853 13.5259 11.4853 13.5259 11.4853H17.1673C17.7196 11.4853 18.1673 11.933 18.1673 12.4853C18.1673 13.0376 17.7196 13.4853 17.1673 13.4853H13.5259C13.5259 13.4853 13.5259 13.4853 13.5259 13.4853V17.3572C13.5259 17.3572 13.5259 17.3572 13.5259 17.3572H17.1677C17.72 17.3572 18.1677 17.8049 18.1677 18.3572C18.1677 18.9095 17.72 19.3572 17.1677 19.3572H13.5259C13.5259 19.3572 13.5259 19.3572 13.5259 19.3572V23.9709C13.5259 24.5232 13.9736 24.9709 14.5259 24.9709H19.8091C20.3614 24.9709 20.8091 24.5232 20.8091 23.9709V1C20.8091 0.447715 20.3614 0 19.8091 0H14.5259Z" fill="black"/>
</svg>
