<svg width="28" height="28" viewBox="0 0 28 28" fill="none" xmlns="http://www.w3.org/2000/svg">
<path fill-rule="evenodd" clip-rule="evenodd" d="M21.1858 2.24552C20.7952 1.855 20.1621 1.85501 19.7715 2.24554C19.381 2.63607 19.381 3.26923 19.7716 3.65975L23.5858 7.4739L2 7.4739C1.44772 7.4739 1 7.92161 1 8.4739C1 9.02618 1.44772 9.4739 2 9.4739L23.5887 9.4739L19.7709 13.2982C19.3808 13.689 19.3813 14.3222 19.7721 14.7124C20.163 15.1026 20.7962 15.102 21.1864 14.7112L26.7077 9.18041C27.0977 8.78978 27.0974 8.15707 26.7071 7.76679L21.1858 2.24552ZM8.22848 14.707C8.61901 14.3165 8.61901 13.6833 8.2285 13.2928C7.83798 12.9023 7.20481 12.9023 6.81428 13.2928L1.2929 18.814C0.902605 19.2043 0.902332 19.837 1.29229 20.2277L6.81367 25.7584C7.20386 26.1493 7.83703 26.1498 8.22788 25.7596C8.61874 25.3694 8.61928 24.7363 8.22909 24.3454L4.41131 20.5211H25.9918C26.5441 20.5211 26.9918 20.0734 26.9918 19.5211C26.9918 18.9689 26.5441 18.5211 25.9918 18.5211H4.41426L8.22848 14.707Z" fill="black"/>
</svg>
