<svg width="26" height="26" viewBox="0 0 26 26" fill="none" xmlns="http://www.w3.org/2000/svg">
<path fill-rule="evenodd" clip-rule="evenodd" d="M20.1858 1.24552C19.7952 0.855002 19.1621 0.855009 18.7715 1.24554C18.381 1.63607 18.381 2.26923 18.7716 2.65975L22.5858 6.4739L1 6.4739C0.447715 6.4739 0 6.92161 0 7.4739C0 8.02618 0.447715 8.4739 1 8.4739L22.5887 8.4739L18.7709 12.2982C18.3808 12.689 18.3813 13.3222 18.7721 13.7124C19.163 14.1026 19.7962 14.102 20.1864 13.7112L25.7077 8.18041C26.0977 7.78978 26.0974 7.15707 25.7071 6.76679L20.1858 1.24552ZM7.22848 13.707C7.61901 13.3165 7.61901 12.6833 7.2285 12.2928C6.83798 11.9023 6.20481 11.9023 5.81428 12.2928L0.292903 17.814C-0.0973952 18.2043 -0.0976683 18.837 0.292292 19.2277L5.81367 24.7584C6.20386 25.1493 6.83703 25.1498 7.22788 24.7596C7.61874 24.3694 7.61928 23.7363 7.22909 23.3454L3.41131 19.5211H24.9918C25.5441 19.5211 25.9918 19.0734 25.9918 18.5211C25.9918 17.9689 25.5441 17.5211 24.9918 17.5211H3.41426L7.22848 13.707Z" fill="black"/>
</svg>
