<svg width="27" height="25" viewBox="0 0 27 25" fill="none" xmlns="http://www.w3.org/2000/svg">
<path fill-rule="evenodd" clip-rule="evenodd" d="M20.2014 0.412393C19.8108 0.0218725 19.1777 0.021879 18.7872 0.412407C18.3966 0.802936 18.3966 1.4361 18.7872 1.82662L22.6014 5.64077L1.01563 5.64077C0.46334 5.64077 0.015625 6.08848 0.015625 6.64077C0.015625 7.19305 0.46334 7.64077 1.01562 7.64077L22.6043 7.64077L18.7866 11.465C18.3964 11.8559 18.3969 12.489 18.7878 12.8792C19.1786 13.2694 19.8118 13.2689 20.202 12.878L25.7234 7.34728C26.1133 6.95665 26.1131 6.32395 25.7228 5.93366L20.2014 0.412393ZM7.2441 12.8743C7.63463 12.4837 7.63464 11.8506 7.24412 11.46C6.8536 11.0695 6.22044 11.0695 5.82991 11.46L0.308528 16.9813C-0.0817702 17.3716 -0.0820433 18.0043 0.307917 18.3949L5.8293 23.9257C6.21949 24.3165 6.85265 24.3171 7.24351 23.9269C7.63437 23.5367 7.6349 22.9035 7.24471 22.5127L3.42694 18.6884H25.0074C25.5597 18.6884 26.0074 18.2407 26.0074 17.6884C26.0074 17.1361 25.5597 16.6884 25.0074 16.6884H3.42988L7.2441 12.8743Z" fill="black"/>
</svg>
