<svg width="23" height="25" viewBox="0 0 23 25" fill="none" xmlns="http://www.w3.org/2000/svg">
<path fill-rule="evenodd" clip-rule="evenodd" d="M4.86374 9.07622H4.78112V22.2818L18.0492 22.2818V9.07622H17.6884H4.86374ZM1.59425 9.07622H2.78112V22.2818H1.10937C0.55709 22.2818 0.109375 22.7296 0.109375 23.2818C0.109375 23.8341 0.55709 24.2818 1.10938 24.2818L21.5933 24.2818C22.1455 24.2818 22.5933 23.8341 22.5933 23.2818C22.5933 22.7296 22.1455 22.2818 21.5933 22.2818H20.0492V9.07622H21.0814C22.0601 9.07622 22.4561 7.81544 21.6531 7.25581L11.8586 0.429592C11.5136 0.189107 11.0549 0.190234 10.7111 0.432411L1.01844 7.25863C0.220276 7.82075 0.618001 9.07622 1.59425 9.07622ZM12.3391 11.5C12.3391 10.9477 11.8914 10.5 11.3391 10.5C10.7869 10.5 10.3391 10.9477 10.3391 11.5V11.6831C10.1865 11.7136 10.0368 11.7587 9.89193 11.8178C9.59108 11.9406 9.3175 12.1217 9.08695 12.3506C8.85639 12.5796 8.67341 12.8519 8.54854 13.1519C8.42368 13.4519 8.3594 13.7736 8.3594 14.0986H8.35938L8.35943 14.1054C8.36393 14.7585 8.62652 15.3833 9.08991 15.8435C9.55329 16.3036 10.1799 16.5619 10.8329 16.5619H10.833H11.8492H11.8492C11.9742 16.5619 12.0941 16.6113 12.1829 16.6994C12.2716 16.7875 12.3218 16.9071 12.3227 17.0321C12.3228 17.0438 12.3231 17.0554 12.3235 17.067C12.3263 17.132 12.3156 17.1968 12.2922 17.2574C12.2688 17.318 12.2331 17.3731 12.1875 17.4194C12.1418 17.4657 12.0872 17.502 12.0269 17.5262C11.9666 17.5505 11.9019 17.562 11.837 17.5602C11.8275 17.5599 11.818 17.5597 11.8085 17.5597H9.67444C9.12215 17.5597 8.67444 18.0075 8.67444 18.5597C8.67444 19.112 9.12215 19.5597 9.67444 19.5597H10.3391V19.7114C10.3391 20.2637 10.7869 20.7114 11.3391 20.7114C11.8914 20.7114 12.3391 20.2637 12.3391 19.7114V19.5116C12.4867 19.4818 12.6316 19.4386 12.7721 19.3822C13.0871 19.2558 13.3727 19.0658 13.6111 18.8242C13.8495 18.5826 14.0357 18.2944 14.1579 17.9777C14.2781 17.6665 14.3341 17.3342 14.3225 17.0009C14.3134 16.3542 14.0514 15.7364 13.5922 15.2803C13.1288 14.8201 12.5022 14.5619 11.8492 14.5619H11.8491H10.8329H10.8329C10.7079 14.5619 10.5879 14.5125 10.4992 14.4244C10.4113 14.3371 10.3612 14.2188 10.3594 14.0951C10.3599 14.0351 10.3719 13.9758 10.395 13.9204C10.4185 13.864 10.4529 13.8128 10.4963 13.7697C10.5396 13.7266 10.5911 13.6926 10.6477 13.6695C10.7043 13.6464 10.7649 13.6347 10.826 13.6351V13.6352H10.8329H12.8044C13.3567 13.6352 13.8044 13.1875 13.8044 12.6352C13.8044 12.0829 13.3567 11.6352 12.8044 11.6352H12.3391V11.5Z" fill="black"/>
</svg>
