<svg width="25" height="23" viewBox="0 0 25 23" fill="none" xmlns="http://www.w3.org/2000/svg">
<path d="M17.0818 0.0117188C14.2099 0.0117188 11.8818 2.45449 11.8818 5.46779C11.8818 6.07585 11.3825 6.61849 10.7842 6.50991C9.46754 6.27096 7.38039 5.80989 5.97273 5.09579C4.54459 4.37129 2.77416 2.8579 1.71103 1.88847C1.22804 1.44806 0.477924 1.57485 0.325947 2.21058C0.169547 2.8648 0.0812944 3.74031 0.3 4.72378C0.493414 5.59352 0.889343 6.37882 1.28775 7.00131C1.53619 7.38948 1.10998 8.02918 0.670379 7.89081C0.377807 7.79871 0.0943258 8.02732 0.151282 8.32871C0.282672 9.02398 0.602652 10.1773 1.36364 11.1719C1.75788 11.6871 2.21788 12.0932 2.6559 12.4056C2.96667 12.6272 2.81732 13.3586 2.43614 13.3786C2.2005 13.391 2.0523 13.63 2.1597 13.8401C2.45684 14.4214 3.07091 15.4552 3.96364 16.1319C4.08934 16.2272 4.21837 16.3145 4.34889 16.3945C5.14307 16.881 5.42514 18.252 4.59575 18.6757C4.25886 18.8478 3.92085 19.0004 3.60909 19.108C3.48665 19.1502 3.35826 19.189 3.2254 19.2245C2.20499 19.4973 1.936 20.8632 2.94903 21.1623C6.68449 22.2652 12.3085 22.9324 16.3727 18.984C21.8403 13.6721 22.3069 7.91193 22.3039 6.06966C22.3033 5.69688 22.478 5.34068 22.7782 5.11967C23.1083 4.87663 23.5322 4.54091 23.8182 4.22777C23.931 4.10421 24.0493 3.9547 24.1657 3.79586C24.44 3.42131 24.0219 2.96399 23.5818 3.11176C23.118 3.2675 22.7941 2.6875 23.1033 2.30828C23.1916 2.20009 23.2741 2.09425 23.3455 1.99574C23.6897 1.52054 23.1423 0.959113 22.5973 1.17647C22.5288 1.20377 22.4627 1.22907 22.4 1.25174C22.0515 1.37769 21.6136 1.47484 21.2797 1.53823C20.9623 1.5985 20.6444 1.47953 20.4007 1.26733C19.5002 0.483171 18.3435 0.0117188 17.0818 0.0117188Z" fill="black"/>
</svg>
