<svg width="26" height="26" viewBox="0 0 26 26" fill="none" xmlns="http://www.w3.org/2000/svg">
<path fill-rule="evenodd" clip-rule="evenodd" d="M26 24.7583C26 25.3106 25.5523 25.7583 25 25.7583L1 25.7584C0.447718 25.7584 0 25.3106 0 24.7584V8.51318H26L26 24.7583ZM26 6.51318H0V1C0 0.447718 0.447715 2.23385e-06 1 2.18557e-06L25 0C25.5523 0 26 0.447716 26 1V6.51318ZM8.94121 3.70842C8.55068 3.3179 7.91752 3.3179 7.52699 3.70842C7.13647 4.09894 7.13647 4.73211 7.52699 5.12263L7.54416 5.1398C7.93468 5.53032 8.56785 5.53032 8.95837 5.1398C9.3489 4.74928 9.3489 4.11611 8.95837 3.72559L8.94121 3.70842ZM14.3516 20.5034C14.3516 19.9511 14.7993 19.5034 15.3516 19.5034H20.9615C21.5138 19.5034 21.9615 19.9511 21.9615 20.5034C21.9615 21.0557 21.5138 21.5034 20.9615 21.5034H15.3516C14.7993 21.5034 14.3516 21.0557 14.3516 20.5034ZM15.3516 14.772C14.7993 14.772 14.3516 15.2197 14.3516 15.772C14.3516 16.3243 14.7993 16.772 15.3516 16.772H20.9615C21.5138 16.772 21.9615 16.3243 21.9615 15.772C21.9615 15.2197 21.5138 14.772 20.9615 14.772H15.3516ZM14.3516 11.3423C14.3516 10.79 14.7993 10.3423 15.3516 10.3423H20.9615C21.5138 10.3423 21.9615 10.79 21.9615 11.3423C21.9615 11.8946 21.5138 12.3423 20.9615 12.3423H15.3516C14.7993 12.3423 14.3516 11.8946 14.3516 11.3423ZM5.08917 19.5034C4.53689 19.5034 4.08917 19.9511 4.08917 20.5034C4.08917 21.0557 4.53689 21.5034 5.08917 21.5034H10.6991C11.2514 21.5034 11.6991 21.0557 11.6991 20.5034C11.6991 19.9511 11.2514 19.5034 10.6991 19.5034H5.08917ZM11.2535 10.6352C11.441 10.8227 11.5464 11.0771 11.5464 11.3423V15.7718C11.5464 16.3241 11.0987 16.7718 10.5464 16.7718H5.24264C4.69035 16.7718 4.24264 16.3241 4.24264 15.7718V11.3423C4.24264 10.79 4.69035 10.3423 5.24264 10.3423H10.5464C10.8116 10.3423 11.066 10.4476 11.2535 10.6352ZM9.54639 12.3423H6.24264V14.7718H9.54639V12.3423ZM3.74165 3.70842C4.13218 3.3179 4.76534 3.3179 5.15587 3.70842L5.17303 3.72559C5.56356 4.11611 5.56356 4.74928 5.17303 5.1398C4.78251 5.53032 4.14934 5.53032 3.75882 5.1398L3.74165 5.12263C3.35113 4.73211 3.35113 4.09894 3.74165 3.70842Z" fill="black"/>
</svg>
