<svg width="17" height="28" viewBox="0 0 17 28" fill="none" xmlns="http://www.w3.org/2000/svg">
<path fill-rule="evenodd" clip-rule="evenodd" d="M16.1279 5.99121C16.1279 6.13095 16.1203 6.26948 16.1055 6.4066C16.107 6.4286 16.1081 6.44769 16.1091 6.46299L16.1095 6.4706C16.1173 6.60004 16.1219 6.75583 16.1246 6.92165C16.13 7.25531 16.1282 7.66863 16.1238 8.07422C16.1181 8.58807 16.1085 9.0707 16.1019 9.40404C16.0977 9.61766 16.0946 9.76997 16.0946 9.82989C16.0946 11.5233 15.026 12.9171 13.5893 13.8385C12.1416 14.767 10.2022 15.3086 8.11128 15.3086C6.0204 15.3086 4.08094 14.767 2.63328 13.8385C1.19656 12.9171 0.12793 11.5233 0.12793 9.82989V6.43993C0.12793 6.38833 0.131841 6.33764 0.139387 6.28812C0.131781 6.18981 0.12793 6.09082 0.12793 5.99121C0.12793 2.95371 3.70917 0.491211 8.12793 0.491211C12.5467 0.491211 16.1279 2.95371 16.1279 5.99121ZM14.0903 9.95728C13.9261 10.0845 13.755 10.2049 13.5784 10.3182C12.1307 11.2467 10.1913 11.7883 8.1004 11.7883C6.04626 11.7883 4.14095 11.2652 2.70425 10.3666C2.50662 10.2431 2.3157 10.1107 2.13323 9.97008C2.18902 10.7103 2.6874 11.4972 3.71302 12.155C4.79274 12.8475 6.34496 13.3086 8.11128 13.3086C9.87761 13.3086 11.4298 12.8475 12.5095 12.155C13.5411 11.4934 14.0393 10.7012 14.0903 9.95728ZM12.6358 23.4098C13.0263 23.0193 13.0263 22.3861 12.6358 21.9956C12.2452 21.6051 11.6121 21.6051 11.2215 21.9956L9.08158 24.1356L9.08152 18.5683C9.08152 18.016 8.6338 17.5683 8.08151 17.5683C7.52923 17.5683 7.08152 18.0161 7.08152 18.5684L7.08158 24.1355L4.94166 21.9956C4.55114 21.6051 3.91797 21.6051 3.52745 21.9956C3.13693 22.3861 3.13693 23.0193 3.52745 23.4098L7.3745 27.2568C7.56204 27.4444 7.81639 27.5497 8.08161 27.5497C8.34682 27.5497 8.60118 27.4444 8.78871 27.2568L12.6358 23.4098Z" fill="black"/>
</svg>
