<svg width="16" height="26" viewBox="0 0 16 26" fill="none" xmlns="http://www.w3.org/2000/svg">
<path fill-rule="evenodd" clip-rule="evenodd" d="M2.41083 1.46786C3.80126 0.540853 5.66458 0 7.67296 0C9.68133 0 11.5447 0.540853 12.9351 1.46786C14.3185 2.39021 15.33 3.7742 15.33 5.43805C15.33 5.48658 15.3292 5.53488 15.3275 5.58294L15.328 5.5916L15.3284 5.5988C15.3357 5.72646 15.3401 5.88036 15.3427 6.04451C15.3478 6.37474 15.3462 6.78399 15.3419 7.18582C15.3365 7.69419 15.3274 8.17257 15.3211 8.50319L15.3211 8.50357L15.3211 8.50377C15.317 8.7155 15.3141 8.86653 15.3141 8.92587C15.3141 10.5897 14.3027 11.9737 12.9192 12.8961C11.5288 13.8231 9.66545 14.3639 7.65708 14.3639C5.6487 14.3639 3.78538 13.8231 2.39494 12.8961C1.01148 11.9737 0 10.5897 0 8.92587V5.56669C0 5.50518 0.00555999 5.44494 0.016209 5.38646C0.0368687 3.7456 1.04169 2.38066 2.41083 1.46786ZM7.67296 10.8761C7.58854 10.8761 7.50438 10.8751 7.4205 10.8732C5.53398 10.8349 3.79019 10.3188 2.46309 9.45602C2.30769 9.355 2.15681 9.24828 2.01132 9.13609C2.0891 9.85983 2.56944 10.6087 3.50438 11.232C4.52323 11.9113 5.98845 12.3639 7.65708 12.3639C9.3257 12.3639 10.7909 11.9113 11.8098 11.232C12.7405 10.6115 13.2207 9.86656 13.3018 9.14585C13.1828 9.23704 13.0603 9.32456 12.9347 9.40827C11.5442 10.3352 9.6809 10.8761 7.67296 10.8761ZM11.947 22.0794C12.3375 21.6888 12.3375 21.0557 11.947 20.6651C11.5565 20.2746 10.9233 20.2746 10.5328 20.6651L8.61189 22.586L8.6119 17.4734C8.6119 16.9211 8.16418 16.4734 7.6119 16.4734C7.05961 16.4734 6.6119 16.9211 6.6119 17.4734L6.6119 22.5859L4.69117 20.6651C4.30065 20.2746 3.66748 20.2746 3.27696 20.6651C2.88644 21.0557 2.88644 21.6888 3.27696 22.0794L6.90486 25.7073C7.0924 25.8948 7.34675 26.0002 7.61197 26.0002C7.87719 26.0002 8.13154 25.8948 8.31908 25.7073L11.947 22.0794Z" fill="black"/>
</svg>
