<svg width="26" height="29" viewBox="0 0 26 29" fill="none" xmlns="http://www.w3.org/2000/svg">
<path fill-rule="evenodd" clip-rule="evenodd" d="M11.5885 2.98724C13.2448 2.89803 14.4577 3.23571 15.4439 4.35799L8.14424 5.1157C8.89109 3.90573 10.1715 3.06557 11.5885 2.98724ZM8.14395 5.11617L15.4439 4.35799L15.4914 4.412C15.7837 4.74403 16.1348 5.14293 16.3847 5.7646C16.5906 6.27703 17.173 6.52546 17.6855 6.31948C18.1979 6.11349 18.4463 5.5311 18.2404 5.01867C17.8591 4.07029 17.3085 3.44764 17.0052 3.10457L16.9473 3.0389L16.9468 3.03845C15.4221 1.30292 13.5134 0.880536 11.4802 0.990175L11.479 0.990241C8.84233 1.13562 6.65367 2.99307 5.82631 5.3563L8.14424 5.1157C8.14414 5.11586 8.14405 5.11601 8.14395 5.11617ZM7.39184 9.49116C7.38804 7.51047 7.49118 6.65243 7.71361 6.01818L7.71382 6.01758C7.82486 5.70033 7.96991 5.39821 8.14395 5.11617L5.8261 5.3569C5.48478 6.33051 5.38683 7.49519 5.39162 9.49116H1.12793C0.575645 9.49116 0.12793 9.93888 0.12793 10.4912V27.4912C0.12793 28.0434 0.575645 28.4912 1.12793 28.4912H24.1279C24.6802 28.4912 25.1279 28.0434 25.1279 27.4912V10.4912C25.1279 9.93888 24.6802 9.49116 24.1279 9.49116H7.39184Z" fill="black"/>
</svg>
