<svg width="22" height="23" viewBox="0 0 22 23" fill="none" xmlns="http://www.w3.org/2000/svg">
<path fill-rule="evenodd" clip-rule="evenodd" d="M13.0182 3.07649C12.2561 2.20903 11.3218 1.93913 9.99482 2.01058C8.951 2.06833 7.99554 2.66073 7.40059 3.5315L5.08334 3.7192C5.78439 1.71688 7.64012 0.137379 9.88527 0.0135826L9.88648 0.0135166C11.5903 -0.0783567 13.2202 0.27616 14.5207 1.75648L14.5211 1.75694L14.5691 1.81134C14.8196 2.09447 15.2898 2.62596 15.6148 3.43435C15.8208 3.94678 15.5723 4.52917 15.0599 4.73516C14.5475 4.94114 13.9651 4.69271 13.7591 4.18028C13.5655 3.69858 13.2947 3.39085 13.055 3.11834L13.055 3.11833L13.0182 3.07649ZM7.40029 3.53194L7.40059 3.5315L13.0182 3.07649L7.40029 3.53194ZM6.7169 6.86182C6.72504 5.45696 6.81092 4.83654 6.97065 4.38107L6.97086 4.38048C7.07695 4.07733 7.22252 3.79221 7.40029 3.53194L5.08313 3.71979C4.81031 4.49807 4.72361 5.40866 4.7166 6.86182H1C0.447715 6.86182 0 7.30953 0 7.86182V21.8062C0 22.3585 0.447715 22.8062 1 22.8062H20.1735C20.7258 22.8062 21.1735 22.3585 21.1735 21.8062V7.86182C21.1735 7.30953 20.7258 6.86182 20.1735 6.86182H6.7169Z" fill="black"/>
</svg>
