<svg width="28" height="28" viewBox="0 0 28 28" fill="none" xmlns="http://www.w3.org/2000/svg">
<path fill-rule="evenodd" clip-rule="evenodd" d="M16.0182 6.07649C15.2561 5.20903 14.3218 4.93913 12.9948 5.01058C11.951 5.06833 10.9955 5.66073 10.4006 6.5315L8.08334 6.7192C8.78439 4.71688 10.6401 3.13738 12.8853 3.01358L12.8865 3.01352C14.5903 2.92164 16.2202 3.27616 17.5207 4.75648L17.5211 4.75694L17.5691 4.81134C17.8196 5.09447 18.2898 5.62596 18.6148 6.43435C18.8208 6.94678 18.5723 7.52917 18.0599 7.73516C17.5475 7.94114 16.9651 7.69271 16.7591 7.18028C16.5655 6.69858 16.2947 6.39085 16.055 6.11834L16.055 6.11833L16.0182 6.07649ZM10.4003 6.53194L10.4006 6.5315L16.0182 6.07649L10.4003 6.53194ZM9.7169 9.86182C9.72504 8.45696 9.81092 7.83654 9.97065 7.38107L9.97086 7.38048C10.077 7.07733 10.2225 6.79221 10.4003 6.53194L8.08313 6.71979C7.81031 7.49807 7.72361 8.40866 7.7166 9.86182H4C3.44772 9.86182 3 10.3095 3 10.8618V24.8062C3 25.3585 3.44772 25.8062 4 25.8062H23.1735C23.7258 25.8062 24.1735 25.3585 24.1735 24.8062V10.8618C24.1735 10.3095 23.7258 9.86182 23.1735 9.86182H9.7169Z" fill="black"/>
</svg>
