<svg width="23" height="26" viewBox="0 0 23 26" fill="none" xmlns="http://www.w3.org/2000/svg">
<path fill-rule="evenodd" clip-rule="evenodd" d="M15.1344 4.76683C14.7439 5.15736 14.1107 5.15736 13.7202 4.76684L12.3673 3.41392V7.18267C15.0106 7.34112 17.42 8.12304 19.2532 9.34517C21.3081 10.7151 22.735 12.7175 22.735 15.0645C22.735 15.2695 22.7241 15.4719 22.7029 15.6714C22.7239 15.7521 22.735 15.8366 22.735 15.9238V18.52C22.735 20.8864 21.2862 22.786 19.2187 24.0454C17.153 25.3035 14.3714 25.9997 11.3675 25.9997C8.36363 25.9997 5.58198 25.3035 3.51637 24.0454C1.44882 22.786 0 20.8864 0 18.52V15.9238C0 15.8366 0.0111589 15.7521 0.0321265 15.6714C0.0108863 15.4719 0 15.2695 0 15.0645C0 12.7175 1.42694 10.7151 3.48187 9.34517C5.31494 8.12312 7.72416 7.34121 10.3673 7.1827L10.3673 14.3903C10.3673 14.9426 10.815 15.3903 11.3673 15.3903C11.9195 15.3903 12.3673 14.9426 12.3673 14.3903V7.18267C12.0374 7.1629 11.704 7.15283 11.3675 7.15283C11.0309 7.15283 10.6973 7.16291 10.3673 7.1827V3.41449L9.01492 4.76683C8.6244 5.15736 7.99123 5.15736 7.60071 4.76683C7.21019 4.37631 7.21019 3.74314 7.60071 3.35262L10.6604 0.292893C11.051 -0.0976293 11.6841 -0.0976313 12.0746 0.292889L15.1344 3.35262C15.5249 3.74314 15.5249 4.3763 15.1344 4.76683ZM2.2389 19.8037C2.60358 20.7548 3.38289 21.6222 4.55678 22.3373C6.24347 23.3646 8.64558 23.9997 11.3675 23.9997C14.0895 23.9997 16.4916 23.3646 18.1783 22.3373C19.3521 21.6222 20.1314 20.7548 20.4961 19.8037C20.117 20.1583 19.6999 20.486 19.2532 20.7839C17.1912 22.1585 14.4003 22.9762 11.3675 22.9762C8.33472 22.9762 5.5438 22.1585 3.48187 20.7839C3.03513 20.486 2.61807 20.1583 2.2389 19.8037Z" fill="black"/>
</svg>
