<svg width="26" height="22" viewBox="0 0 26 22" fill="none" xmlns="http://www.w3.org/2000/svg">
<path fill-rule="evenodd" clip-rule="evenodd" d="M9.33209 3.90316C9.74309 3.53424 10.3753 3.56837 10.7443 3.97937L12.0001 5.37853L12.0002 0.0140991C5.28804 0.347946 0 4.01516 0 8.48933C0 8.60712 0.00366474 8.72434 0.0109237 8.84096C0.00372816 8.88935 0 8.93888 0 8.98928V13.503C0 16.1667 1.63271 18.3179 3.99537 19.7543C6.35631 21.1898 9.54581 21.9893 13 21.9893C16.4542 21.9893 19.6437 21.1898 22.0046 19.7543C24.3673 18.3179 26 16.1667 26 13.503V8.98928C26 8.93888 25.9963 8.88936 25.9891 8.84096C25.9963 8.72434 26 8.60712 26 8.48933C26 4.01525 20.7122 0.348099 14.0002 0.01412L14.0001 5.37841L15.2559 3.97937C15.6248 3.56837 16.257 3.53424 16.668 3.90315C17.079 4.27206 17.1132 4.90431 16.7443 5.31531L13.7443 8.65761C13.5546 8.86892 13.284 8.98964 13.0001 8.98964C12.7161 8.98964 12.4456 8.86893 12.2559 8.65761L9.25588 5.31532C8.88697 4.90431 8.92109 4.27207 9.33209 3.90316ZM4.33779 15.0312C3.45041 14.4847 2.65733 13.8433 2 13.1216V13.503C2 15.2493 3.05379 16.8412 5.03438 18.0454C7.01669 19.2506 9.82719 19.9893 13 19.9893C16.1728 19.9893 18.9833 19.2506 20.9656 18.0454C22.9462 16.8412 24 15.2493 24 13.503V13.1216C23.3427 13.8433 22.5496 14.4847 21.6622 15.0312C19.349 16.4555 16.3048 17.2999 13 17.2999C9.69518 17.2999 6.65095 16.4555 4.33779 15.0312Z" fill="black"/>
</svg>
