<svg width="26" height="26" viewBox="0 0 26 26" fill="none" xmlns="http://www.w3.org/2000/svg">
<path fill-rule="evenodd" clip-rule="evenodd" d="M0 13C0 5.8203 5.8203 0 13 0C20.1797 0 26 5.8203 26 13C26 20.1797 20.1797 26 13 26C5.8203 26 0 20.1797 0 13ZM9.0378 8.49054C8.64727 8.88106 8.64727 9.51423 9.0378 9.90475C9.42832 10.2953 10.0615 10.2953 10.452 9.90475L11.9998 8.35695V20.0571C11.9998 20.6094 12.4475 21.0571 12.9998 21.0571C13.5521 21.0571 13.9998 20.6094 13.9998 20.0571V8.35694L15.5476 9.90475C15.9382 10.2953 16.5713 10.2953 16.9618 9.90475C17.3524 9.51422 17.3524 8.88106 16.9618 8.49053L13.7069 5.23563C13.3164 4.8451 12.6832 4.84511 12.2927 5.23563L9.0378 8.49054Z" fill="black"/>
</svg>
