<svg width="25" height="27" viewBox="0 0 25 27" fill="none" xmlns="http://www.w3.org/2000/svg">
<path d="M8.94453 10.7993L7.88639 9.52906C6.06965 7.34809 6.21508 4.14181 8.22181 2.13427C10.3659 -0.0106975 13.8431 -0.0106977 15.9872 2.13427C17.9939 4.14181 18.1394 7.34809 16.3226 9.52906L15.2647 10.7991C14.5862 11.6136 14.9745 12.8568 15.9959 13.1405L17.4399 13.5415C21.3815 14.636 24.1094 18.2247 24.1094 22.3154V25.7939C24.1094 26.0458 23.9052 26.25 23.6533 26.25H0.565556C0.313614 26.25 0.109375 26.0458 0.109375 25.7938V22.3085C0.109375 18.2213 2.83456 14.6356 6.77256 13.5412L8.21355 13.1408C9.23484 12.857 9.62296 11.6138 8.94453 10.7993Z" fill="black"/>
</svg>
