<svg width="26" height="26" viewBox="0 0 26 26" fill="none" xmlns="http://www.w3.org/2000/svg">
<path fill-rule="evenodd" clip-rule="evenodd" d="M4.91705 1C4.91705 0.447715 5.36477 0 5.91705 0H20.5025C21.0548 0 21.5025 0.447715 21.5025 1V5.9637C21.5025 6.51598 21.0548 6.9637 20.5025 6.9637H13.9297V10.1343H22.3961C22.6613 10.1343 22.9156 10.2396 23.1032 10.4272C23.2907 10.6147 23.3961 10.8691 23.3961 11.1343V14.2046H24.9127C25.465 14.2046 25.9127 14.6523 25.9127 15.2046V20.1022C25.9127 20.6545 25.465 21.1022 24.9127 21.1022H19.9956C19.4433 21.1022 18.9956 20.6545 18.9956 20.1022V15.2046C18.9956 14.6523 19.4433 14.2046 19.9956 14.2046H21.3961V12.1343H13.9297V19.1025H15.3883C15.9405 19.1025 16.3883 19.5503 16.3883 20.1025V25.0002C16.3883 25.5525 15.9405 26.0002 15.3883 26.0002H10.4712C9.91891 26.0002 9.47119 25.5525 9.47119 25.0002V20.1025C9.47119 19.5503 9.91891 19.1025 10.4712 19.1025H11.9297V12.1343L4.46361 12.1343V14.2046H5.91706C6.46935 14.2046 6.91706 14.6523 6.91706 15.2046V20.1022C6.91706 20.6545 6.46935 21.1022 5.91706 21.1022H1C0.447715 21.1022 0 20.6545 0 20.1022V15.2046C0 14.6523 0.447715 14.2046 1 14.2046H2.46361V11.1343C2.46361 10.582 2.91133 10.1343 3.46361 10.1343L11.9297 10.1343V6.9637H5.91705C5.36477 6.9637 4.91705 6.51598 4.91705 5.9637V1Z" fill="black"/>
</svg>
