<svg width="26" height="26" viewBox="0 0 26 26" fill="none" xmlns="http://www.w3.org/2000/svg">
<path fill-rule="evenodd" clip-rule="evenodd" d="M6 0H20C20.5523 0 21 0.447715 21 1L21 5C21 5.55228 20.5523 6 20 6H14.0908V9.75H22.3906C22.9429 9.75 23.3906 10.1977 23.3906 10.75V13.9286H24.9999C25.5521 13.9286 25.9999 14.3764 25.9999 14.9286V20.3572C25.9999 20.9095 25.5521 21.3572 24.9999 21.3572H19.5713C19.019 21.3572 18.5713 20.9095 18.5713 20.3572V14.9286C18.5713 14.3764 19.019 13.9286 19.5713 13.9286H21.3906V11.75H14.0908V17.6431H15.7147C16.267 17.6431 16.7147 18.0908 16.7147 18.6431V24.0716C16.7147 24.6239 16.267 25.0716 15.7147 25.0716H10.2861C9.73385 25.0716 9.28613 24.6239 9.28613 24.0716V18.6431C9.28613 18.0908 9.73385 17.6431 10.2861 17.6431H12.0908V11.75H4.89062V13.9286H6.42857C6.98086 13.9286 7.42857 14.3764 7.42857 14.9286V20.3572C7.42857 20.9095 6.98086 21.3572 6.42857 21.3572H1C0.447715 21.3572 0 20.9095 0 20.3572V14.9286C0 14.3764 0.447715 13.9286 1 13.9286H2.89062V10.75C2.89062 10.1977 3.33834 9.75 3.89062 9.75H12.0908V6H6C5.44772 6 5 5.55228 5 5V1C5 0.447715 5.44772 0 6 0Z" fill="black"/>
</svg>
