<svg width="27" height="27" viewBox="0 0 27 27" fill="none" xmlns="http://www.w3.org/2000/svg">
<path fill-rule="evenodd" clip-rule="evenodd" d="M26.1279 13.4912C26.1279 20.6709 20.3076 26.4912 13.1279 26.4912C5.94823 26.4912 0.12793 20.6709 0.12793 13.4912C0.12793 6.31151 5.94823 0.491211 13.1279 0.491211C16.6073 0.491211 19.7674 1.85812 22.1006 4.08422L12.4144 16.8827L8.08755 12.8996C7.68122 12.5255 7.0486 12.5517 6.67455 12.958C6.3005 13.3644 6.32667 13.997 6.733 14.371L11.87 19.0999C12.0775 19.2909 12.3558 19.3854 12.6366 19.3602C12.9174 19.335 13.1746 19.1925 13.3447 18.9677L23.4607 5.60125C25.1339 7.78917 26.1279 10.5241 26.1279 13.4912Z" fill="black"/>
</svg>
