<svg width="28" height="28" viewBox="0 0 28 28" fill="none" xmlns="http://www.w3.org/2000/svg">
<path fill-rule="evenodd" clip-rule="evenodd" d="M14 0.749935C6.68223 0.749935 0.75 6.68216 0.75 13.9999C0.75 21.3177 6.68223 27.2499 14 27.2499C21.3178 27.2499 27.25 21.3177 27.25 13.9999C27.25 10.8982 26.1842 8.04545 24.3989 5.78782L26.3742 3.17793C26.7908 2.62746 26.6823 1.84347 26.1318 1.42686C25.5813 1.01025 24.7973 1.11877 24.3807 1.66924L22.647 3.96008C20.3262 1.95953 17.3044 0.749935 14 0.749935ZM22.6469 3.96012L12.8953 16.8451L8.88523 13.1536C8.37731 12.6861 7.58653 12.7188 7.11897 13.2267C6.65141 13.7346 6.68413 14.5254 7.19204 14.9929L12.2148 19.6166C12.4741 19.8553 12.822 19.9734 13.173 19.942C13.524 19.9105 13.8454 19.7323 14.0581 19.4513L24.3989 5.78785C23.8742 5.12426 23.2872 4.51208 22.6469 3.96012Z" fill="black"/>
</svg>
