<svg width="27" height="23" viewBox="0 0 27 23" fill="none" xmlns="http://www.w3.org/2000/svg">
<path fill-rule="evenodd" clip-rule="evenodd" d="M10.1279 11.7423V0.71875C4.39479 1.60436 0.12793 4.97225 0.12793 8.99126C0.12793 9.10905 0.131594 9.22627 0.138853 9.34289C0.131658 9.39129 0.12793 9.44081 0.12793 9.49121V14.0049C0.12793 16.6686 1.76064 18.8198 4.1233 20.2563C6.48424 21.6917 9.67374 22.4912 13.1279 22.4912C16.5821 22.4912 19.7716 21.6917 22.1326 20.2563C24.4952 18.8198 26.1279 16.6686 26.1279 14.0049V9.49121C26.1279 9.44081 26.1242 9.39129 26.117 9.34289C26.1243 9.22627 26.1279 9.10905 26.1279 8.99126C26.1279 5.00761 21.9358 1.66368 16.2789 0.742704V11.7353L13.2019 10.4273L10.1279 11.7423ZM4.46572 15.5331C3.57834 14.9867 2.78525 14.3452 2.12793 13.6235V14.0049C2.12793 15.7512 3.18172 17.3431 5.16231 18.5473C7.14462 19.7526 9.95512 20.4912 13.1279 20.4912C16.3007 20.4912 19.1112 19.7526 21.0935 18.5473C23.0741 17.3431 24.1279 15.7512 24.1279 14.0049V13.6235C23.4706 14.3452 22.6775 14.9867 21.7901 15.5331C19.477 16.9574 16.4328 17.8018 13.1279 17.8018C9.82311 17.8018 6.77888 16.9574 4.46572 15.5331Z" fill="black"/>
</svg>
