<svg width="26" height="23" viewBox="0 0 26 23" fill="none" xmlns="http://www.w3.org/2000/svg">
<path fill-rule="evenodd" clip-rule="evenodd" d="M13 0.763672H13.0051L12.9995 0.763766L12.994 0.763672H13ZM8.92401 12.0148V1.21024C7.05101 1.63362 5.35769 2.34319 3.96017 3.27487C1.60981 4.84178 0 7.11625 0 9.76367C0 9.92815 0.00621401 10.0912 0.0184336 10.2527C0.00633713 10.3149 0 10.3791 0 10.4448V13.7498C0 16.4167 1.63154 18.5714 3.99452 20.0107C6.35555 21.4488 9.54532 22.2498 13 22.2498C16.4547 22.2498 19.6445 21.4488 22.0055 20.0107C24.3685 18.5714 26 16.4167 26 13.7498V10.4448C26 10.3791 25.9937 10.3149 25.9816 10.2527C25.9938 10.0912 26 9.92815 26 9.76367C26 7.11625 24.3902 4.84178 22.0398 3.27487C20.6421 2.34303 18.9484 1.63337 17.075 1.21002V12.0078C17.075 12.3434 16.9067 12.6566 16.6267 12.8418C16.3468 13.027 15.9927 13.0594 15.6838 12.9281L12.9992 11.7869L10.3173 12.9342C10.0084 13.0663 9.65371 13.0345 9.37324 12.8494C9.09278 12.6644 8.92401 12.3508 8.92401 12.0148ZM23.8932 14.7013C23.3536 15.2735 22.7285 15.7934 22.0398 16.2525C19.6824 17.8241 16.4834 18.7637 13 18.7637C9.51659 18.7637 6.31755 17.8241 3.96017 16.2525C3.27152 15.7934 2.64643 15.2735 2.10679 14.7013C2.42047 16.0763 3.4199 17.3189 5.03492 18.3026C7.01704 19.51 9.82726 20.2498 13 20.2498C16.1727 20.2498 18.983 19.51 20.9651 18.3026C22.5801 17.3189 23.5795 16.0763 23.8932 14.7013Z" fill="black"/>
</svg>
