<svg width="27" height="23" viewBox="0 0 27 23" fill="none" xmlns="http://www.w3.org/2000/svg">
<path fill-rule="evenodd" clip-rule="evenodd" d="M17.8572 22.2701H1.10938C0.557091 22.2701 0.109375 21.8224 0.109375 21.2701V18.8957C0.109375 15.3973 2.5096 12.3267 5.97729 11.3891L7.24425 11.0473C8.14408 10.8044 8.48653 9.73987 7.88904 9.04219L6.95425 7.9497C5.35821 6.08456 5.48573 3.34582 7.24939 1.62861C9.13749 -0.209538 12.201 -0.209538 14.0891 1.62861C15.8518 3.34582 15.9803 6.08456 14.3843 7.9497L13.3867 9.11516C12.8016 9.79885 13.1009 10.8404 13.9657 11.1302L14.2477 11.2124C14.3523 11.0919 14.4614 10.9748 14.575 10.8612L14.5754 10.8608C15.8482 9.58833 17.5732 8.87466 19.3718 8.87466C21.1708 8.87466 22.8969 9.58954 24.1686 10.8612C25.4413 12.134 26.1552 13.8592 26.1552 15.658C26.1552 17.457 25.4403 19.1831 24.1686 20.4548C22.8958 21.7275 21.1706 22.4413 19.3718 22.4413C18.858 22.4413 18.3502 22.383 17.8572 22.2701ZM19.3718 11.3747C18.2355 11.3747 17.1464 11.8254 16.3428 12.629L16.3424 12.6294C15.5391 13.432 15.0875 14.5219 15.0875 15.658C15.0875 16.7938 15.5389 17.8831 16.3428 18.687C17.1455 19.4897 18.2357 19.9413 19.3718 19.9413C20.5081 19.9413 21.5973 19.4906 22.4008 18.687C23.2035 17.8843 23.6552 16.7941 23.6552 15.658C23.6552 14.5217 23.2044 13.4326 22.4008 12.629C21.5981 11.8263 20.508 11.3747 19.3718 11.3747ZM21.8898 13.6064C22.2964 13.9802 22.3231 14.6128 21.9494 15.0194L19.3854 17.8094C19.2009 18.0101 18.9426 18.1268 18.67 18.1325C18.3975 18.1382 18.1344 18.0324 17.9418 17.8396L16.574 16.4709C16.1836 16.0802 16.1838 15.4471 16.5745 15.0567C16.9651 14.6663 17.5983 14.6665 17.9887 15.0571L18.6189 15.6878L20.4768 13.6661C20.8505 13.2594 21.4831 13.2327 21.8898 13.6064Z" fill="black"/>
</svg>
