<svg width="26" height="25" viewBox="0 0 26 25" fill="none" xmlns="http://www.w3.org/2000/svg">
<path fill-rule="evenodd" clip-rule="evenodd" d="M21.7733 16.6452C21.7727 16.6457 21.7729 16.6467 21.7736 16.6469C21.7739 16.647 21.7741 16.6472 21.7742 16.6475C21.7743 16.6476 21.7743 16.6477 21.7743 16.6478L21.6452 20.3053C21.6255 20.8629 21.1533 21.2965 20.5961 21.2688L17.1778 21.0985C16.8842 21.0839 16.599 21.1992 16.3981 21.4138L14.1764 23.7865C13.8051 24.1831 13.185 24.2107 12.78 23.8485L10.2048 21.5463C9.99031 21.3545 9.70356 21.2644 9.4179 21.299L6.09292 21.7024C5.55328 21.7679 5.06018 21.3902 4.9827 20.8522L4.50521 17.5361C4.46328 17.2449 4.29525 16.9869 4.04584 16.8308L1.23363 15.0713C0.760579 14.7753 0.621293 14.1494 0.924175 13.6808L2.70654 10.9228C2.87101 10.6683 2.91122 10.353 2.81586 10.0654L1.80799 7.02534C1.63081 6.49093 1.92955 5.91566 2.46861 5.75319L5.68733 4.7831C5.97388 4.69673 6.20668 4.48656 6.32181 4.21031L7.55283 1.25636C7.76439 0.748694 8.34621 0.507159 8.85512 0.715734L12.0547 2.02708C12.3225 2.13685 12.6248 2.12519 12.8833 1.99511L15.8393 0.5081C16.3225 0.265006 16.9115 0.450246 17.1685 0.926189L18.7888 3.92593C18.9265 4.1809 19.1681 4.36359 19.4509 4.42669L22.7227 5.15669C23.26 5.27656 23.5993 5.80813 23.4819 6.34596L22.7784 9.56877C22.7145 9.86147 22.7852 10.1674 22.971 10.4024L24.9922 12.958C25.3415 13.3996 25.2575 14.0424 24.8064 14.3794L21.7733 16.6452ZM17.9252 10.256C18.3134 9.86323 18.3098 9.23008 17.9171 8.84178C17.5244 8.45348 16.8912 8.45708 16.5029 8.84982L11.6712 13.7369L9.37224 11.5897C8.96863 11.2127 8.33583 11.2343 7.95885 11.6379C7.58187 12.0415 7.60346 12.6743 8.00707 13.0513L11.0163 15.862C11.4118 16.2314 12.0295 16.2191 12.41 15.8342L17.9252 10.256Z" fill="black"/>
</svg>
