<svg width="21" height="26" viewBox="0 0 21 26" fill="none" xmlns="http://www.w3.org/2000/svg">
<path fill-rule="evenodd" clip-rule="evenodd" d="M1.73094 0.4415C3.76122 0.117189 9.17944 -0.456489 11.6357 2.12782C13.868 4.47647 17.7312 4.62868 19.6505 4.54025C20.2602 4.51216 20.8016 4.99012 20.8016 5.60042L20.8016 16.0514C20.8016 16.5474 20.4398 16.965 19.9448 16.9967C18.1546 17.1113 13.9889 17.0763 11.6357 14.6004C9.63224 12.4925 5.65822 12.4856 3.15939 12.7307L3.15939 25.1973C3.15939 25.7496 2.71167 26.1973 2.15939 26.1973C1.6071 26.1973 1.15939 25.7496 1.15939 25.1973L1.15939 12.4418C1.02401 12.2686 0.942139 12.0524 0.942139 11.8149V1.38968C0.942139 0.919774 1.26692 0.515622 1.73094 0.4415Z" fill="black"/>
</svg>
