<svg width="27" height="27" viewBox="0 0 27 27" fill="none" xmlns="http://www.w3.org/2000/svg">
<path fill-rule="evenodd" clip-rule="evenodd" d="M7.474 0.491211C8.02628 0.491211 8.474 0.938926 8.474 1.49121V3.80765L17.6168 3.80765V1.49121C17.6168 0.938926 18.0646 0.491211 18.6168 0.491211C19.1691 0.491211 19.6168 0.938926 19.6168 1.49121V3.80765H25.1279C25.6802 3.80765 26.1279 4.25537 26.1279 4.80765V25.0933C26.1279 25.6456 25.6802 26.0933 25.1279 26.0933L1.12793 26.0933C0.575643 26.0933 0.127927 25.6456 0.12793 25.0933L0.128042 4.80765C0.128045 4.25537 0.57576 3.80765 1.12804 3.80765H6.474V1.49121C6.474 0.938926 6.92171 0.491211 7.474 0.491211ZM20.7713 13.4525C20.7285 11.8558 19.7426 10.5288 18.4077 9.63883C17.0358 8.72415 15.198 8.19091 13.2178 8.19091C11.2376 8.19091 9.39985 8.72415 8.02789 9.63883C6.66291 10.5489 5.66286 11.9158 5.66286 13.5609C5.66286 13.6585 5.66638 13.7551 5.67328 13.8507V16.9955C5.67328 18.6405 6.67334 20.0075 8.03832 20.9176C9.41028 21.8322 11.2481 22.3655 13.2282 22.3655C15.2084 22.3655 17.0462 21.8322 18.4182 20.9175C19.7832 20.0075 20.7832 18.6405 20.7832 16.9955C20.7832 16.937 20.786 16.7884 20.79 16.58L20.79 16.5796C20.7962 16.2543 20.8052 15.7833 20.8106 15.2823C20.8148 14.8866 20.8164 14.4835 20.8113 14.1581C20.8088 13.9964 20.8045 13.8446 20.7972 13.7186L20.7968 13.7112V13.7112L20.7968 13.7111C20.7937 13.6582 20.7881 13.5598 20.7713 13.4525ZM7.6892 17.2419C7.79922 17.3255 7.91225 17.4058 8.02789 17.4829C9.39985 18.3976 11.2376 18.9309 13.2178 18.9309C14.6776 18.9309 16.0602 18.6409 17.2358 18.1219C17.6548 17.937 18.0475 17.723 18.408 17.4827C18.5316 17.4002 18.6523 17.314 18.7695 17.2242C18.6858 17.9239 18.2167 18.6481 17.3087 19.2535C16.3084 19.9204 14.8687 20.3655 13.2282 20.3655C11.5878 20.3655 10.1481 19.9204 9.14776 19.2535C8.24746 18.6532 7.77867 17.9361 7.6892 17.2419ZM16.4339 16.2897C15.5364 16.6868 14.4322 16.9306 13.218 16.9306C11.6078 16.9306 10.192 16.5013 9.19566 15.8535C8.19131 15.2006 7.70508 14.3989 7.67234 13.6445C7.67087 13.6104 7.6677 13.5769 7.66293 13.5438C7.6698 12.7804 8.13744 11.9695 9.13733 11.3029C10.1377 10.636 11.5774 10.1909 13.2178 10.1909C14.8582 10.1909 16.2979 10.636 17.2983 11.3029C18.3057 11.9745 18.7728 12.7925 18.7728 13.5609C18.7728 14.3291 18.3056 15.1472 17.298 15.8188C17.0382 15.9921 16.7487 16.1503 16.4339 16.2897Z" fill="black"/>
</svg>
