<svg width="26" height="25" viewBox="0 0 26 25" fill="none" xmlns="http://www.w3.org/2000/svg">
<path fill-rule="evenodd" clip-rule="evenodd" d="M6 0C4.89543 0 4 0.895433 4 2V4.08949V5H3.88593L7.89965 9.11035H11.1043L7.28453 5.19865C7.22485 5.13753 7.17458 5.07071 7.1337 5H6V4.08949V2H24V18H22V11.1104H19.4874H19.4697H13.4874H13.4697H7.48739H7.46975H0V24C0 24.5523 0.447716 25 1 25H21C21.5523 25 22 24.5523 22 24V20H24C25.1046 20 26 19.1046 26 18V2C26 0.89543 25.1046 0 24 0H6ZM9.88593 5L13.8997 9.11035H17.1043L13.2845 5.19865C13.2248 5.13753 13.1746 5.07071 13.1337 5H9.88593ZM1.1337 5H1C0.447715 5 0 5.44772 0 6V9.11035H5.10428L1.28453 5.19865C1.22485 5.13753 1.17458 5.07071 1.1337 5ZM15.8859 5L19.8997 9.11035H22V6C22 5.44772 21.5523 5 21 5H15.8859ZM10.5548 14.168C10.2479 13.9634 9.85337 13.9443 9.52819 14.1183C9.20301 14.2923 9 14.6312 9 15V20.3333C9 20.7021 9.20296 21.041 9.52809 21.215C9.85322 21.389 10.2477 21.37 10.5546 21.1654L14.5546 18.4994C14.8328 18.314 15 18.0018 15 17.6674C15 17.3331 14.833 17.0208 14.5548 16.8353L10.5548 14.168ZM11 18.4651V16.8688L12.1972 17.6671L11 18.4651Z" fill="black"/>
</svg>
