<svg width="27" height="27" viewBox="0 0 27 27" fill="none" xmlns="http://www.w3.org/2000/svg">
<path fill-rule="evenodd" clip-rule="evenodd" d="M13.9883 0.0742188C6.80858 0.0742188 0.988281 5.89452 0.988281 13.0742C0.988281 20.2539 6.80858 26.0742 13.9883 26.0742C21.168 26.0742 26.9883 20.2539 26.9883 13.0742C26.9883 5.89452 21.168 0.0742188 13.9883 0.0742188ZM16.9443 18.3023C17.4966 18.3023 17.9443 17.8546 17.9443 17.3023L17.9443 9.11767C17.9443 8.56539 17.4966 8.11767 16.9443 8.11767C16.3921 8.11766 15.9443 8.56538 15.9443 9.11766L15.9443 17.3023C15.9443 17.8546 16.392 18.3023 16.9443 18.3023ZM11.9883 17.3023C11.9883 17.8546 11.5406 18.3023 10.9883 18.3023C10.436 18.3023 9.98828 17.8546 9.98828 17.3023V9.07422C9.98828 8.52193 10.436 8.07422 10.9883 8.07422C11.5406 8.07422 11.9883 8.52193 11.9883 9.07422V17.3023Z" fill="black"/>
</svg>
