<svg width="25" height="25" viewBox="0 0 25 25" fill="none" xmlns="http://www.w3.org/2000/svg">
<path fill-rule="evenodd" clip-rule="evenodd" d="M12.4343 24.7383C19.2241 24.7383 24.7283 19.2341 24.7283 12.4443C24.7283 5.65458 19.2241 0.150391 12.4343 0.150391C5.64457 0.150391 0.140381 5.65458 0.140381 12.4443C0.140381 19.2341 5.64457 24.7383 12.4343 24.7383ZM15.2298 17.5721C15.7821 17.5721 16.2298 17.1243 16.2298 16.5721L16.2298 8.83192C16.2298 8.27963 15.7821 7.83192 15.2298 7.83191C14.6776 7.83191 14.2298 8.27962 14.2298 8.83191L14.2298 16.5721C14.2298 17.1243 14.6775 17.5721 15.2298 17.5721ZM10.5973 16.5721C10.5973 17.1243 10.1495 17.5721 9.59726 17.5721C9.04498 17.5721 8.59726 17.1243 8.59726 16.5721V8.79082C8.59726 8.23854 9.04498 7.79082 9.59726 7.79082C10.1495 7.79082 10.5973 8.23854 10.5973 8.79082V16.5721Z" fill="black"/>
</svg>
