<svg width="26" height="25" viewBox="0 0 26 25" fill="none" xmlns="http://www.w3.org/2000/svg">
<path d="M20.8333 19H24C24.5523 19 25 18.5523 25 18V2C25 1.44772 24.5523 1 24 1H6C5.44772 1 5 1.44772 5 2V4.08949" stroke="black" stroke-width="2" stroke-miterlimit="40" stroke-linecap="square"/>
<path fill-rule="evenodd" clip-rule="evenodd" d="M7.1337 5H3.88593L7.89965 9.11035H11.1043L7.28453 5.19865C7.22485 5.13753 7.17458 5.07071 7.1337 5ZM13.4697 11.1104C13.4756 11.1104 13.4815 11.1104 13.4874 11.1104H19.4697H19.4874H22V24C22 24.5523 21.5523 25 21 25H1C0.447716 25 0 24.5523 0 24V11.1104H7.46975H7.48739H13.4697ZM13.8997 9.11035L9.88593 5H13.1337C13.1746 5.07071 13.2248 5.13753 13.2845 5.19865L17.1043 9.11035H13.8997ZM1 5H1.1337C1.17458 5.07071 1.22485 5.13753 1.28453 5.19865L5.10428 9.11035H0V6C0 5.44772 0.447715 5 1 5ZM19.8997 9.11035L15.8859 5H21C21.5523 5 22 5.44772 22 6V9.11035H19.8997ZM8.73926 14.2227C8.73926 13.0246 10.0746 12.31 11.0714 12.9747L14.437 15.2189C15.3275 15.8128 15.3273 17.1214 14.4367 17.7151L11.0712 19.9582C10.0743 20.6226 8.73926 19.908 8.73926 18.7101V14.2227ZM10.7393 15.1571V17.7759L12.7034 16.4668L10.7393 15.1571Z" fill="black"/>
</svg>
