<svg width="25" height="25" viewBox="0 0 25 25" fill="none" xmlns="http://www.w3.org/2000/svg">
<path fill-rule="evenodd" clip-rule="evenodd" d="M24.6548 12.4443C24.6548 19.2341 19.1506 24.7383 12.3608 24.7383C5.57108 24.7383 0.0668945 19.2341 0.0668945 12.4443C0.0668945 5.65458 5.57108 0.150391 12.3608 0.150391C19.1506 0.150391 24.6548 5.65458 24.6548 12.4443ZM11.7424 8.38948C10.7427 7.7883 9.46946 8.50838 9.46946 9.67497V15.6863C9.46946 16.8528 10.7424 17.5728 11.7422 16.972L16.7418 13.967C17.7114 13.3843 17.7116 11.9788 16.7421 11.3959L11.7424 8.38948ZM11.4695 14.8024V10.5591L14.9987 12.6812L11.4695 14.8024Z" fill="black"/>
</svg>
