<svg width="26" height="24" viewBox="0 0 26 24" fill="none" xmlns="http://www.w3.org/2000/svg">
<path fill-rule="evenodd" clip-rule="evenodd" d="M4.13812 1C4.13812 0.447715 4.58584 0 5.13812 0H25.0002C25.5525 0 26.0002 0.447715 26.0002 1V18.4786C26.0002 19.0309 25.5525 19.4786 25.0002 19.4786H21.8621V22.6163C21.8621 23.1686 21.4144 23.6163 20.8621 23.6163H1C0.447715 23.6163 0 23.1686 0 22.6163V10.1104H21.8621V17.4786H24.0002V2H12.9996H6.13812V4.1377H6.67284L10.2 8.11035H6.8536C6.82313 8.06058 6.78786 8.0128 6.74777 7.96763L3.34736 4.1377H4.13812V1ZM0.710589 4.18021C0.29942 4.30433 0 4.68605 0 5.1377V8.11035H4.19995L0.710589 4.18021ZM9.34736 4.1377L12.7478 7.96763C12.7879 8.0128 12.8231 8.06058 12.8536 8.11035H16.2L12.6728 4.1377H9.34736ZM15.3474 4.1377L18.7478 7.96763C18.7879 8.0128 18.8231 8.06058 18.8536 8.11035H21.8621V5.1377C21.8621 4.58541 21.4144 4.1377 20.8621 4.1377H15.3474ZM10.2942 11.4561C9.98732 11.2515 9.59275 11.2324 9.26757 11.4064C8.94239 11.5804 8.73938 11.9193 8.73938 12.2881V18.6439C8.73938 19.0127 8.94234 19.3516 9.26747 19.5256C9.5926 19.6996 9.98713 19.6806 10.294 19.4761L15.0609 16.2989C15.3391 16.1135 15.5062 15.8012 15.5063 15.4669C15.5063 15.1325 15.3392 14.8203 15.0611 14.6348L10.2942 11.4561ZM10.7394 16.7757V14.1569L12.7035 15.4666L10.7394 16.7757Z" fill="black"/>
</svg>
