<svg width="28" height="28" viewBox="0 0 28 28" fill="none" xmlns="http://www.w3.org/2000/svg">
<path fill-rule="evenodd" clip-rule="evenodd" d="M3.71385 13.2075C3.32333 13.598 3.32333 14.2312 3.71385 14.6217L8.06677 18.9746H1.97656C1.42428 18.9746 0.976562 19.4223 0.976562 19.9746V26.1052C0.976562 26.6574 1.42428 27.1052 1.97656 27.1052C2.52885 27.1052 2.97656 26.6574 2.97656 26.1052V20.9746H10.4149C10.4376 20.9762 10.4604 20.977 10.4833 20.977H14.7684C14.7913 20.977 14.8142 20.9762 14.8369 20.9746H24.9766V26.1052C24.9766 26.6574 25.4243 27.1052 25.9766 27.1052C26.5288 27.1052 26.9766 26.6574 26.9766 26.1052V19.9746C26.9766 19.4223 26.5288 18.9746 25.9766 18.9746H17.185L24.6636 11.496C25.0541 11.1055 25.0541 10.4723 24.6636 10.0818L16.4587 1.87688C16.0681 1.48635 15.435 1.48635 15.0445 1.87688L3.71385 13.2075ZM14.2511 8.43168C14.2905 7.88081 14.7691 7.46621 15.32 7.50566C15.8708 7.5451 16.2854 8.02365 16.246 8.57453L15.8046 14.7383C15.7659 15.2795 15.3025 15.6911 14.7605 15.6657L12.354 15.5533C11.8023 15.5275 11.376 15.0594 11.4017 14.5077C11.4275 13.956 11.8956 13.5297 12.4473 13.5555L13.8794 13.6224L14.2511 8.43168Z" fill="black"/>
</svg>
