<svg width="26" height="25" viewBox="0 0 26 25" fill="none" xmlns="http://www.w3.org/2000/svg">
<path fill-rule="evenodd" clip-rule="evenodd" d="M14.0932 0.292893L3.95411 10.432C3.56359 10.8225 3.56359 11.4557 3.95411 11.8462L8.46925 16.3613H1C0.447715 16.3613 0 16.809 0 17.3613V23.4892C0 24.0415 0.447715 24.4892 1 24.4892C1.55228 24.4892 2 24.0415 2 23.4892V18.3613H23.9896V23.4892C23.9896 24.0415 24.4373 24.4892 24.9896 24.4892C25.5419 24.4892 25.9896 24.0415 25.9896 23.4892V17.3613C25.9896 16.809 25.5419 16.3613 24.9896 16.3613H14.7571L22.4594 8.65907C22.8499 8.26855 22.8499 7.63538 22.4594 7.24486L15.5074 0.292893C15.1169 -0.0976309 14.4837 -0.0976312 14.0932 0.292893ZM14.3302 4.89932C13.7794 4.85988 13.3008 5.27447 13.2614 5.82535L12.8899 11.0134L11.4588 10.9465C10.9072 10.9207 10.439 11.3471 10.4132 11.8987C10.3875 12.4504 10.8138 12.9185 11.3655 12.9443L13.771 13.0567C14.313 13.0821 14.7763 12.6705 14.8151 12.1292L15.2562 5.96819C15.2957 5.41732 14.8811 4.93877 14.3302 4.89932Z" fill="black"/>
</svg>
