<svg width="26" height="26" viewBox="0 0 26 26" fill="none" xmlns="http://www.w3.org/2000/svg">
<path fill-rule="evenodd" clip-rule="evenodd" d="M9.42337 1C9.42337 0.447715 8.97566 0 8.42337 0C7.87109 0 7.42337 0.447715 7.42337 1V1.88477H1C0.447715 1.88477 0 2.33248 0 2.88477V25.0002C0 25.5525 0.447715 26.0002 1 26.0002H25C25.5523 26.0002 26 25.5525 26 25.0002V2.88477C26 2.33248 25.5523 1.88477 25 1.88477H18.5764V5.34177C18.5764 5.89405 18.1287 6.34177 17.5764 6.34177C17.0241 6.34177 16.5764 5.89405 16.5764 5.34177V1.88477H9.42337V1ZM16.5764 1.88184H18.5764V1C18.5764 0.447715 18.1287 0 17.5764 0C17.0241 0 16.5764 0.447715 16.5764 1V1.88184ZM8.42337 6.34156C8.97565 6.34156 9.42337 5.89384 9.42337 5.34156V1.89014H7.42337V5.34156C7.42337 5.89384 7.87109 6.34156 8.42337 6.34156ZM4.93866 17.3521C4.54813 16.9616 4.54813 16.3284 4.93866 15.9379L13.5837 7.29291C13.9742 6.90238 14.6074 6.90238 14.9979 7.29291L21.2581 13.5531C21.6486 13.9436 21.6486 14.5768 21.2581 14.9673L16.0525 20.1729H20.5273C21.0796 20.1729 21.5273 20.6206 21.5273 21.1729C21.5273 21.7251 21.0796 22.1729 20.5273 22.1729H13.6898C13.6722 22.1738 13.6546 22.1742 13.6369 22.1742H10.175C10.1573 22.1742 10.1397 22.1738 10.1221 22.1729H5C4.44772 22.1729 4 21.7251 4 21.1729C4 20.6206 4.44772 20.1729 5 20.1729H7.75938L4.93866 17.3521ZM19.1367 14.2602L13.2241 20.1729L10.5878 20.1729L7.05998 16.645L14.2908 9.41423L19.1367 14.2602Z" fill="black"/>
</svg>
