<svg width="28" height="28" viewBox="0 0 28 28" fill="none" xmlns="http://www.w3.org/2000/svg">
<path fill-rule="evenodd" clip-rule="evenodd" d="M9.02444 1.25635C9.02444 0.704063 8.57672 0.256348 8.02444 0.256348C7.47215 0.256348 7.02444 0.704063 7.02444 1.25635V4.01172H1.00012C0.447839 4.01172 0.000125198 4.45943 0.000122132 5.01172L0 27.0117C-3.06592e-06 27.5639 0.447713 28.0117 1 28.0117H27C27.5523 28.0117 28 27.5639 28 27.0117V5.01172C28 4.45944 27.5523 4.01172 27 4.01172H21.0244V1.25635C21.0244 0.704063 20.5767 0.256348 20.0244 0.256348C19.4722 0.256348 19.0244 0.704063 19.0244 1.25635V4.01172L9.02444 4.01172V1.25635ZM9.91896 12.0886C9.91896 9.83052 11.7495 8 14.0075 8C16.2656 8 18.0961 9.83052 18.0961 12.0886L18.0961 12.3715H19.0155C20.12 12.3715 21.0155 13.2669 21.0155 14.3715V21.11C21.0155 22.2146 20.12 23.11 19.0155 23.11H9C7.89543 23.11 7 22.2146 7 21.11V14.3715C7 13.2669 7.89543 12.3715 9 12.3715H9.91895L9.91896 12.0886V12.0886ZM16.0961 12.0886L16.0961 12.3715H11.919L11.919 12.0886V12.0886C11.919 10.9351 12.854 10 14.0075 10C15.161 10 16.0961 10.9351 16.0961 12.0886ZM19.0155 14.3715H9V21.11L19.0155 21.11V14.3715Z" fill="black"/>
</svg>
