<svg width="26" height="26" viewBox="0 0 26 26" fill="none" xmlns="http://www.w3.org/2000/svg">
<path fill-rule="evenodd" clip-rule="evenodd" d="M7.34607 0C7.89835 0 8.34607 0.447715 8.34607 1V3.31644L17.4889 3.31644V1C17.4889 0.447715 17.9366 0 18.4889 0C19.0412 0 19.4889 0.447715 19.4889 1V3.31644H25C25.5523 3.31644 26 3.76416 26 4.31644V24.6021C26 25.1544 25.5523 25.6021 25 25.6021L1 25.6021C0.447713 25.6021 -3.06596e-06 25.1544 0 24.6021L0.000112615 4.31644C0.000115681 3.76415 0.44783 3.31644 1.00011 3.31644H6.34607V1C6.34607 0.447715 6.79378 0 7.34607 0ZM5.8742 16.4899C5.48367 16.0994 5.48367 15.4662 5.8742 15.0757L13.657 7.29289C14.0475 6.90237 14.6807 6.90237 15.0712 7.29289L20.707 12.9287C21.0976 13.3192 21.0976 13.9524 20.707 14.3429L16.1909 18.8591H19.9787C20.531 18.8591 20.9787 19.3068 20.9787 19.8591C20.9787 20.4114 20.531 20.8591 19.9787 20.8591H13.8249C13.8085 20.8599 13.792 20.8603 13.7754 20.8603H10.6588C10.6423 20.8603 10.6258 20.8599 10.6093 20.8591H6C5.44772 20.8591 5 20.4114 5 19.8591C5 19.3068 5.44772 18.8591 6 18.8591H8.24338L5.8742 16.4899ZM13.3625 18.8591L11.0718 18.8591L7.99552 15.7828L14.3641 9.41421L18.5857 13.6358L13.3625 18.8591Z" fill="black"/>
</svg>
