<svg width="28" height="28" viewBox="0 0 28 28" fill="none" xmlns="http://www.w3.org/2000/svg">
<path fill-rule="evenodd" clip-rule="evenodd" d="M22.5 27C23.0523 27 23.5 26.5523 23.5 26L23.5 10.0397C23.5 9.48741 23.0523 9.0397 22.5 9.0397L14.4268 9.03969L14.4268 4.48244L15.8404 5.95224C16.2233 6.3503 16.8563 6.36264 17.2544 5.9798C17.6524 5.59696 17.6648 4.96392 17.2819 4.56586L14.1476 1.30688C13.9591 1.11096 13.6991 1.00019 13.4272 1.00007C13.1554 0.999955 12.8953 1.1105 12.7067 1.30626L9.56688 4.56524C9.1837 4.96297 9.19549 5.59602 9.59322 5.9792C9.99095 6.36239 10.624 6.35059 11.0072 5.95286L12.4268 4.47935L12.4268 9.03969L3.55512 9.03969C3.00284 9.03969 2.55512 9.48741 2.55512 10.0397L2.55512 13.2938L10.2296 13.2938C12.8398 13.2938 14.9557 15.4098 14.9557 18.02C14.9557 20.6301 12.8398 22.7461 10.2296 22.7461L2.55512 22.7461L2.55512 26C2.55512 26.5523 3.00284 27 3.55512 27L22.5 27ZM2.55512 20.7461L10.2296 20.7461C11.7352 20.7461 12.9557 19.5256 12.9557 18.02C12.9557 16.5144 11.7352 15.2938 10.2296 15.2938L2.55512 15.2938L2.55512 20.7461ZM11.2071 18.7071C10.8166 19.0976 10.1834 19.0976 9.79289 18.7071L9.77475 18.689C9.38423 18.2984 9.38423 17.6653 9.77475 17.2748C10.1653 16.8842 10.7984 16.8842 11.189 17.2748L11.2071 17.2929C11.5976 17.6834 11.5976 18.3166 11.2071 18.7071Z" fill="black"/>
</svg>
