<svg width="28" height="24" viewBox="0 0 28 24" fill="none" xmlns="http://www.w3.org/2000/svg">
<path fill-rule="evenodd" clip-rule="evenodd" d="M1.23975 0.181641C0.687461 0.181641 0.239746 0.629356 0.239746 1.18164V22.6814C0.239746 23.2337 0.687461 23.6814 1.23975 23.6814H26.7599C27.3122 23.6814 27.7599 23.2337 27.7599 22.6814V17.9509L17.769 17.951C14.4445 17.9511 11.7495 15.2561 11.7495 11.9316C11.7495 8.60726 14.4444 5.9123 17.7688 5.91226L27.7599 5.91211V1.18164C27.7599 0.629356 27.3122 0.181641 26.7599 0.181641H1.23975ZM27.7599 7.91211V15.9509L17.769 15.951C15.5491 15.9511 13.7495 14.1515 13.7495 11.9316C13.7495 9.71182 15.549 7.91229 17.7688 7.91226L27.7599 7.91211ZM16 11.9316C16 10.8271 16.8954 9.93164 18 9.93164C19.1046 9.93164 20 10.8271 20 11.9316C20 13.0362 19.1046 13.9316 18 13.9316C16.8954 13.9316 16 13.0362 16 11.9316Z" fill="black"/>
</svg>
