<svg width="25" height="21" viewBox="0 0 25 21" fill="none" xmlns="http://www.w3.org/2000/svg">
<path fill-rule="evenodd" clip-rule="evenodd" d="M23.1094 0.25H1.10938C0.55709 0.25 0.109375 0.697715 0.109375 1.25V19.5577C0.109375 20.11 0.557091 20.5577 1.10938 20.5577H23.1094C23.6617 20.5577 24.1094 20.11 24.1094 19.5577V15.9602H15.4874C12.3762 15.9602 9.85412 13.438 9.85412 10.3269C9.85412 7.21569 12.3762 4.69358 15.4874 4.69358H24.1094V1.25C24.1094 0.697715 23.6617 0.25 23.1094 0.25ZM15.4874 6.69358H24.1094V13.9602H15.4874C13.4808 13.9602 11.8541 12.3335 11.8541 10.3269C11.8541 8.32026 13.4808 6.69358 15.4874 6.69358ZM17.5469 10.3273C17.5469 11.3472 16.7206 12.174 15.7012 12.174C14.6818 12.174 13.8555 11.3472 13.8555 10.3273C13.8555 9.3074 14.6818 8.48062 15.7012 8.48062C16.7206 8.48062 17.5469 9.3074 17.5469 10.3273Z" fill="black"/>
</svg>
