<svg width="22" height="26" viewBox="0 0 22 26" fill="none" xmlns="http://www.w3.org/2000/svg">
<path fill-rule="evenodd" clip-rule="evenodd" d="M1 0H21C21.5523 0 22 0.447715 22 1V4.24228H13.7251C11.1149 4.24228 8.99893 6.35824 8.99893 8.96842C8.99893 11.5786 11.1149 13.6946 13.7251 13.6946H22V17C22 17.5523 21.5523 18 21 18H12.2699V22.5207L13.8253 20.9063C14.2085 20.5085 14.8415 20.4968 15.2393 20.8799C15.637 21.2631 15.6488 21.8962 15.2656 22.2939L11.9901 25.6938C11.8015 25.8896 11.5413 26.0001 11.2695 26C10.9976 25.9999 10.7376 25.8891 10.5491 25.6932L7.27925 22.2933C6.89641 21.8952 6.90875 21.2622 7.30681 20.8793C7.70487 20.4965 8.33791 20.5088 8.72075 20.9069L10.2699 22.5176V18H1C0.447716 18 0 17.5523 0 17V1C0 0.447716 0.447715 0 1 0ZM22 6.24228H13.7251C12.2195 6.24228 10.9989 7.46281 10.9989 8.96842C10.9989 10.474 12.2195 11.6946 13.7251 11.6946H22V6.24228ZM14.8839 8.1044C14.3957 7.61624 13.6043 7.61624 13.1161 8.1044C12.628 8.59255 12.628 9.38401 13.1161 9.87216L13.1343 9.8903C13.6224 10.3785 14.4139 10.3785 14.902 9.8903C15.3902 9.40215 15.3902 8.61069 14.902 8.12254L14.8839 8.1044Z" fill="black"/>
</svg>
