<svg width="22" height="26" viewBox="0 0 22 26" fill="none" xmlns="http://www.w3.org/2000/svg">
<path fill-rule="evenodd" clip-rule="evenodd" d="M1 25.9996L21 25.9996C21.5523 25.9996 22 25.5519 22 24.9996L22 21.7549L13.7268 21.7549C11.1157 21.7549 8.99897 19.6382 8.99897 17.0271C8.99897 14.416 11.1157 12.2992 13.7268 12.2992L22 12.2992V8.99145C22 8.43917 21.5523 7.99145 21 7.99145L12.266 7.99145V3.48236L13.8151 5.0931C14.198 5.49116 14.831 5.5035 15.2291 5.12066C15.6271 4.73782 15.6395 4.10478 15.2566 3.70672L11.9867 0.306809C11.7983 0.110888 11.5382 0.000118371 11.2664 9.17858e-08C10.9946 -0.00011628 10.7344 0.11043 10.5458 0.306187L7.27028 3.7061C6.8871 4.10383 6.8989 4.73688 7.29663 5.12007C7.69436 5.50325 8.32741 5.49145 8.71059 5.09372L10.266 3.47927V7.99145L1 7.99145C0.447714 7.99145 -2.27951e-06 8.43917 0 8.99145V24.9996C0 25.5519 0.447716 25.9996 1 25.9996ZM22 14.2992V19.7549L13.7268 19.7549C12.2203 19.7549 10.999 18.5336 10.999 17.0271C10.999 15.5205 12.2203 14.2992 13.7268 14.2992H22ZM14.8744 16.1233C14.3862 15.6352 13.5948 15.6352 13.1066 16.1233C12.6184 16.6115 12.6184 17.403 13.1066 17.8911L13.1247 17.9092C13.6129 18.3974 14.4043 18.3974 14.8925 17.9092C15.3807 17.4211 15.3807 16.6296 14.8925 16.1415L14.8744 16.1233Z" fill="black"/>
</svg>
