<svg width="27" height="24" viewBox="0 0 27 24" fill="none" xmlns="http://www.w3.org/2000/svg">
<path fill-rule="evenodd" clip-rule="evenodd" d="M5 0C4.44772 0 4 0.447715 4 1V4.63672H1C0.447715 4.63672 0 5.08443 0 5.63672V22.7827C0 23.335 0.447715 23.7827 1 23.7827H21.3523C21.9046 23.7827 22.3523 23.335 22.3523 22.7827V19.2129H14.1819C11.4188 19.2129 9.17896 16.973 9.17896 14.21C9.17896 11.4469 11.4189 9.20703 14.1819 9.20703H22.3523V5.63672C22.3523 5.08443 21.9046 4.63672 21.3523 4.63672H6V2H24.3523V17.146H22.3523V11.207H14.1819C12.5234 11.207 11.179 12.5515 11.179 14.21C11.179 15.8685 12.5234 17.2129 14.1819 17.2129H22.3636V19.146H25.3523C25.9046 19.146 26.3523 18.6983 26.3523 18.146V1C26.3523 0.447715 25.9046 0 25.3523 0H5ZM13.1757 13.4296C13.5663 13.0391 14.1994 13.0391 14.5899 13.4296L14.6081 13.4478C14.9986 13.8383 14.9986 14.4714 14.6081 14.862C14.2176 15.2525 13.5844 15.2525 13.1939 14.862L13.1757 14.8438C12.7852 14.4533 12.7852 13.8201 13.1757 13.4296Z" fill="black"/>
</svg>
