<svg width="22" height="23" viewBox="0 0 22 23" fill="none" xmlns="http://www.w3.org/2000/svg">
<path fill-rule="evenodd" clip-rule="evenodd" d="M15.0252 1.00319C15.151 0.465419 15.587 0.0117188 16.1393 0.0117188H21C21.5523 0.0117188 22 0.459434 22 1.01172V21.0117C22 21.564 21.5523 22.0117 21 22.0117H1C0.447715 22.0117 0 21.564 0 21.0117V1.01172C0 0.459434 0.447715 0.0117188 1 0.0117188H5.82435C6.39063 0.0117188 6.83195 0.488853 6.96023 1.04041C7.38328 2.85942 9.06797 4.25332 11 4.25332C12.9977 4.25332 14.5956 2.83988 15.0252 1.00319ZM7.97873 9.79483C7.86542 9.2543 7.33537 8.90796 6.79483 9.02127C6.2543 9.13458 5.90796 9.66463 6.02127 10.2052L7.35461 16.5657C7.45169 17.0289 7.86012 17.3606 8.33333 17.3606H8.41723C8.82423 17.3606 9.19063 17.1139 9.34376 16.7368L11.0358 12.5698L12.7411 16.7391C12.8948 17.115 13.2606 17.3606 13.6667 17.3606H13.7194C14.1956 17.3606 14.6057 17.0248 14.6997 16.5579L15.9803 10.1974C16.0893 9.65596 15.7388 9.12868 15.1974 9.01967C14.656 8.91066 14.1287 9.2612 14.0197 9.80262L13.3748 13.0055L11.9907 9.62143C11.837 9.24557 11.4712 9 11.0651 9H11C10.593 9 10.2266 9.24667 10.0735 9.62377L8.66828 13.0843L7.97873 9.79483Z" fill="black"/>
</svg>
