<svg width="22" height="22" viewBox="0 0 22 22" fill="none" xmlns="http://www.w3.org/2000/svg">
<path fill-rule="evenodd" clip-rule="evenodd" d="M0 1C0 0.447715 0.447715 0 1 0H7.237C7.50841 0 7.76816 0.110318 7.95661 0.305627C8.14507 0.500935 8.24605 0.764457 8.23636 1.03569C8.18267 2.53906 9.47358 3.856 11 3.856C12.5402 3.856 13.763 2.57319 13.763 1C13.763 0.447715 14.2107 0 14.763 0H21C21.5523 0 22 0.447715 22 1V21C22 21.5523 21.5523 22 21 22H1C0.447715 22 0 21.5523 0 21V1ZM7.97873 9.79483C7.86542 9.2543 7.33537 8.90796 6.79483 9.02127C6.2543 9.13458 5.90796 9.66463 6.02127 10.2052L7.35461 16.5657C7.45169 17.0289 7.86012 17.3606 8.33333 17.3606H8.41723C8.82423 17.3606 9.19063 17.1139 9.34376 16.7368L11.0358 12.5698L12.7411 16.7391C12.8948 17.115 13.2606 17.3606 13.6667 17.3606H13.7194C14.1956 17.3606 14.6057 17.0248 14.6997 16.5579L15.9803 10.1974C16.0893 9.65596 15.7388 9.12868 15.1974 9.01967C14.656 8.91066 14.1287 9.2612 14.0197 9.80262L13.3748 13.0055L11.9907 9.62143C11.837 9.24557 11.4712 9 11.0651 9H11C10.593 9 10.2266 9.24667 10.0735 9.62377L8.66828 13.0843L7.97873 9.79483Z" fill="#010101"/>
</svg>
