<svg width="25" height="25" viewBox="0 0 25 25" fill="none" xmlns="http://www.w3.org/2000/svg">
<path fill-rule="evenodd" clip-rule="evenodd" d="M12.1094 0.25C18.7368 0.25 24.1094 5.62258 24.1094 12.25C24.1094 18.8774 18.7368 24.25 12.1094 24.25C5.48196 24.25 0.109375 18.8774 0.109375 12.25C0.109375 5.62258 5.48196 0.25 12.1094 0.25ZM6.1672 8.1525C6.71197 8.0617 7.2272 8.42972 7.31799 8.97449L7.60494 10.6962L8.20688 8.83166C8.34019 8.41873 8.7246 8.13889 9.15852 8.13889H9.20453C9.63767 8.13889 10.0216 8.41773 10.1555 8.82964L10.7363 10.6156L10.998 8.98082C11.0853 8.43548 11.5982 8.06416 12.1435 8.15146C12.6888 8.23876 13.0602 8.75161 12.9729 9.29695L12.0678 14.9508C11.9902 15.4359 11.5717 15.7927 11.0804 15.7927H11.0431C10.61 15.7927 10.2261 15.5139 10.0921 15.102L9.18489 12.3121L8.28483 15.1C8.15152 15.5129 7.76711 15.7927 7.33319 15.7927H7.2739C6.78506 15.7927 6.36787 15.4393 6.28751 14.9571L5.3452 9.30329C5.25441 8.75852 5.62243 8.24329 6.1672 8.1525ZM15.7543 8.13879C15.2021 8.13879 14.7543 8.58651 14.7543 9.13879C14.7543 9.69108 15.2021 10.1388 15.7543 10.1388H16.6966C16.925 10.1388 17.1101 10.3239 17.1101 10.5523C17.1101 10.7806 16.925 10.9657 16.6966 10.9657H16.5171C15.9649 10.9657 15.5171 11.4135 15.5171 11.9657C15.5171 12.518 15.9649 12.9657 16.5171 12.9657H16.6966C16.925 12.9657 17.1101 13.1509 17.1101 13.3792C17.1101 13.6075 16.925 13.7927 16.6966 13.7927H15.7543C15.2021 13.7927 14.7543 14.2404 14.7543 14.7927C14.7543 15.3449 15.2021 15.7927 15.7543 15.7927H16.6966C18.0296 15.7927 19.1101 14.7121 19.1101 13.3792C19.1101 12.8513 18.9406 12.363 18.6531 11.9657C18.9406 11.5684 19.1101 11.0801 19.1101 10.5523C19.1101 9.21934 18.0296 8.13879 16.6966 8.13879H15.7543Z" fill="black"/>
</svg>
