<svg width="28" height="28" viewBox="0 0 28 28" fill="none" xmlns="http://www.w3.org/2000/svg">
<path fill-rule="evenodd" clip-rule="evenodd" d="M15 1H4C3.44772 1 3 1.44772 3 2V26C3 26.5523 3.44772 27 4 27H22.4615C23.0138 27 23.4615 26.5523 23.4615 26V9.46176H16C15.4477 9.46176 15 9.01405 15 8.46176V1ZM22.876 7.46176L17 1.58576V7.46176H22.876ZM17.131 15.6109C17.5216 16.0015 17.5216 16.6346 17.131 17.0251L14.1691 19.9871C13.7786 20.3776 13.1454 20.3776 12.7549 19.9871L9.7929 17.0251C9.40237 16.6346 9.40237 16.0015 9.79289 15.6109C10.1834 15.2204 10.8166 15.2204 11.2071 15.6109L12.462 16.8658V12C12.462 11.4477 12.9097 11 13.462 11C14.0143 11 14.462 11.4477 14.462 12V16.8658L15.7168 15.6109C16.1074 15.2204 16.7405 15.2204 17.131 15.6109Z" fill="black"/>
</svg>
