<svg width="20" height="26" viewBox="0 0 20 26" fill="none" xmlns="http://www.w3.org/2000/svg">
<path fill-rule="evenodd" clip-rule="evenodd" d="M11.8456 0.25H1.10937C0.557089 0.25 0.109375 0.697715 0.109375 1.25V24.7225C0.109375 25.2748 0.557091 25.7225 1.10938 25.7225H18.7036C19.2559 25.7225 19.7036 25.2748 19.7036 24.7225V8.10798H14.8456C13.1888 8.10798 11.8456 6.76484 11.8456 5.10798V0.25ZM18.7036 6.10798H14.8456C14.2933 6.10798 13.8456 5.66027 13.8456 5.10798V1.25L18.7036 6.10798ZM11.1128 16.5613L11.1102 11.2495C11.1099 10.6972 10.6619 10.2497 10.1097 10.25C9.55738 10.2503 9.10988 10.6982 9.11016 11.2505L9.11279 16.5439L7.51845 14.9864C7.12339 14.6004 6.49027 14.6078 6.10434 15.0029C5.7184 15.398 5.7258 16.0311 6.12086 16.417L9.46254 19.6815C9.8576 20.0675 10.4907 20.0601 10.8767 19.665L14.1468 16.3177C14.5327 15.9226 14.5253 15.2895 14.1302 14.9036C13.7352 14.5176 13.1021 14.525 12.7161 14.9201L11.1128 16.5613Z" fill="black"/>
</svg>
