<svg width="21" height="26" viewBox="0 0 21 26" fill="none" xmlns="http://www.w3.org/2000/svg">
<path fill-rule="evenodd" clip-rule="evenodd" d="M12 0H1C0.447716 0 0 0.447715 0 1V25C0 25.5523 0.447716 26 1 26H19.4615C20.0138 26 20.4615 25.5523 20.4615 25V8.46176H13C12.4477 8.46176 12 8.01405 12 7.46176V0ZM19.876 6.46176L14 0.585765V6.46176H19.876ZM6.79289 14.6689C6.40237 14.2783 6.40237 13.6452 6.79289 13.2546L9.75485 10.2927C10.1454 9.90215 10.7785 9.90215 11.1691 10.2927L14.131 13.2546C14.5216 13.6452 14.5216 14.2783 14.1311 14.6689C13.7405 15.0594 13.1074 15.0594 12.7168 14.6689L11.462 13.414V18.2798C11.462 18.8321 11.0142 19.2798 10.462 19.2798C9.90968 19.2798 9.46196 18.8321 9.46196 18.2798V13.414L8.20711 14.6689C7.81658 15.0594 7.18342 15.0594 6.79289 14.6689Z" fill="black"/>
</svg>
