<svg width="21" height="26" viewBox="0 0 21 26" fill="none" xmlns="http://www.w3.org/2000/svg">
<path fill-rule="evenodd" clip-rule="evenodd" d="M12 0H1C0.447716 0 0 0.447715 0 1V25C0 25.5523 0.447716 26 1 26H19.4615C20.0138 26 20.4615 25.5523 20.4615 25V8.46176H13C12.4477 8.46176 12 8.01405 12 7.46176V0ZM19.876 6.46176L14 0.585756V6.46176H19.876ZM14.131 14.6109C14.5216 15.0015 14.5216 15.6346 14.131 16.0251L11.1691 18.9871C10.7786 19.3776 10.1454 19.3776 9.75488 18.9871L6.7929 16.0251C6.40237 15.6346 6.40237 15.0015 6.79289 14.6109C7.18341 14.2204 7.81658 14.2204 8.2071 14.6109L9.46198 15.8658V11C9.46198 10.4477 9.9097 10 10.462 10C11.0143 10 11.462 10.4477 11.462 11V15.8658L12.7168 14.6109C13.1074 14.2204 13.7405 14.2204 14.131 14.6109Z" fill="black"/>
</svg>
