<svg width="27" height="27" viewBox="0 0 27 27" fill="none" xmlns="http://www.w3.org/2000/svg">
<path fill-rule="evenodd" clip-rule="evenodd" d="M24.8131 24.3926C25.1863 24.7997 25.1588 25.4323 24.7517 25.8055C24.3446 26.1787 23.712 26.1512 23.3388 25.7441L14.0136 15.5711C13.7034 15.5244 13.3893 15.501 13.0738 15.5015C12.1513 15.5029 11.2406 15.7087 10.4072 16.1042C9.57382 16.4996 8.8384 17.0749 8.25386 17.7885C7.90389 18.2157 7.27383 18.2784 6.84658 17.9284C6.41933 17.5784 6.35669 16.9484 6.70665 16.5211C7.47846 15.5789 8.44948 14.8194 9.54987 14.2973C10.3758 13.9054 11.2593 13.6545 12.1636 13.5529L9.35657 10.4907C7.52932 11.1041 6.02648 12.1481 5.05039 13.4198C4.71411 13.8579 4.08635 13.9404 3.64825 13.6041C3.21014 13.2679 3.12759 12.6401 3.46387 12.202C4.54767 10.79 6.08653 9.65252 7.90011 8.90182L5.43054 6.20775C4.0791 7.02895 2.86573 8.06458 1.83954 9.27721C1.48278 9.6988 0.851796 9.75134 0.430209 9.39458C0.00862187 9.03781 -0.043925 8.40683 0.312842 7.98524C1.39282 6.70905 2.65532 5.60543 4.05597 4.70822L1.33884 1.74408C0.965648 1.33696 0.993151 0.704391 1.40027 0.331198C1.80739 -0.0419941 2.43996 -0.0144901 2.81315 0.392628L5.85209 3.70784C5.91556 3.67745 5.97924 3.64744 6.04313 3.61783C8.24802 2.59594 10.6492 2.06716 13.0794 2.06836C15.5096 2.06956 17.9103 2.6007 20.1142 3.62477C22.3181 4.64883 24.2721 6.14119 25.8402 7.99782C26.1965 8.41976 26.1434 9.05069 25.7214 9.40704C25.2995 9.76339 24.6686 9.71022 24.3122 9.28828C22.9318 7.65382 21.2116 6.34005 19.2714 5.43852C17.3313 4.537 15.2178 4.06942 13.0784 4.06836C11.0814 4.06738 9.10649 4.47295 7.2737 5.25868L10.0031 8.2362C10.9883 8.01301 12.0246 7.89461 13.09 7.89461C17.081 7.89461 20.6618 9.55598 22.686 12.1639C23.0246 12.6001 22.9454 13.2283 22.5091 13.567C22.0728 13.9056 21.4446 13.8264 21.106 13.3901C19.5175 11.3435 16.562 9.89461 13.09 9.89461C12.5833 9.89461 12.0877 9.92546 11.6057 9.9845L15.0471 13.7387C15.578 13.8689 16.0963 14.052 16.594 14.2863C17.696 14.805 18.6694 15.5614 19.4441 16.5012C19.7954 16.9274 19.7347 17.5576 19.3086 17.9089C19.2203 17.9817 19.1232 18.0368 19.0217 18.0747L24.8131 24.3926ZM13.0765 19.9163C11.5131 19.9163 10.2457 21.1837 10.2457 22.747C10.2457 24.3104 11.5131 25.5778 13.0765 25.5778C14.6399 25.5778 15.9072 24.3104 15.9072 22.747C15.9072 21.1837 14.6399 19.9163 13.0765 19.9163Z" fill="black"/>
</svg>
