<svg width="26" height="27" viewBox="0 0 26 27" fill="none" xmlns="http://www.w3.org/2000/svg">
<path fill-rule="evenodd" clip-rule="evenodd" d="M0 13.5C0 20.6797 5.8203 26.5 13 26.5C20.1797 26.5 26 20.6797 26 13.5C26 6.3203 20.1797 0.5 13 0.5C5.8203 0.5 0 6.3203 0 13.5ZM6.1824 9.53574C6.66868 9.2739 7.27514 9.45584 7.53698 9.94211L10.7176 15.849L11.9023 13.6487L10.417 10.8903C10.1552 10.404 10.3371 9.79758 10.8234 9.53574C11.3097 9.2739 11.9161 9.45584 12.178 9.94211L13.0381 11.5395L13.8982 9.94211C14.16 9.45584 14.7665 9.2739 15.2528 9.53574C15.739 9.79758 15.921 10.404 15.6591 10.8903L14.1738 13.6487L15.3586 15.849L18.5392 9.94211C18.801 9.45584 19.4075 9.2739 19.8938 9.53574C20.38 9.79758 20.562 10.404 20.3001 10.8903L16.239 18.4323C16.0646 18.7562 15.7265 18.9582 15.3586 18.9582C14.9907 18.9582 14.6525 18.7562 14.4781 18.4323L13.0381 15.758L11.5981 18.4323C11.4236 18.7562 11.0855 18.9582 10.7176 18.9582C10.3497 18.9582 10.0115 18.7562 9.83711 18.4323L5.77603 10.8903C5.5142 10.404 5.69613 9.79758 6.1824 9.53574Z" fill="black"/>
</svg>
