<svg width="28" height="28" viewBox="0 0 28 28" fill="none" xmlns="http://www.w3.org/2000/svg">
<path fill-rule="evenodd" clip-rule="evenodd" d="M28 14.0117C28 6.27973 21.732 0.0117188 14 0.0117188C6.26801 0.0117188 0 6.27973 0 14.0117C0 21.7437 6.26801 28.0117 14 28.0117C21.732 28.0117 28 21.7437 28 14.0117ZM7.18239 9.53554C7.66866 9.2737 8.27513 9.45564 8.53696 9.94191L11.7176 15.8488L12.9024 13.6484L11.4171 10.8901C11.1553 10.4038 11.3372 9.79738 11.8235 9.53554C12.3098 9.2737 12.9162 9.45564 13.1781 9.94191L14.0381 11.5392L14.8982 9.94191C15.16 9.45564 15.7665 9.2737 16.2528 9.53554C16.739 9.79738 16.921 10.4038 16.6591 10.8901L15.1739 13.6484L16.3587 15.8488L19.5393 9.94191C19.8011 9.45564 20.4076 9.2737 20.8939 9.53554C21.3801 9.79738 21.5621 10.4038 21.3002 10.8901L17.2392 18.4321C17.0647 18.756 16.7266 18.958 16.3587 18.958C15.9908 18.958 15.6526 18.756 15.4782 18.4321L14.0381 15.7577L12.598 18.4321C12.4236 18.756 12.0855 18.958 11.7176 18.958C11.3497 18.958 11.0115 18.756 10.8371 18.4321L6.77602 10.8901C6.51418 10.4038 6.69612 9.79738 7.18239 9.53554Z" fill="black"/>
</svg>
