<svg width="26" height="23" viewBox="0 0 26 23" fill="none" xmlns="http://www.w3.org/2000/svg">
<path fill-rule="evenodd" clip-rule="evenodd" d="M8.51638 5.68563L9.07068 5.03378C10.1094 3.8122 10.0269 1.99537 8.88164 0.873023C7.69384 -0.291008 5.79311 -0.291008 4.60531 0.873023C3.46005 1.99537 3.3775 3.8122 4.41627 5.03378L4.97045 5.68549C5.3476 6.12901 5.13547 6.81414 4.5737 6.96696L3.73122 7.19614C1.52858 7.79531 0 9.79525 0 12.0779V14.1851H7.24792e-05V14.1852V21.8889C7.24792e-05 22.4412 0.447788 22.8889 1.00007 22.8889C1.55236 22.8889 2.00007 22.4412 2.00007 21.8889V15.1852H24.0001V21.8889C24.0001 22.4412 24.4478 22.8889 25.0001 22.8889C25.5524 22.8889 26.0001 22.4412 26.0001 21.8889V14.1852V14.1851V13.1852V12.0779C26.0001 9.79525 24.4715 7.79531 22.2689 7.19614L21.4264 6.96696C20.8646 6.81414 20.6525 6.12901 21.0296 5.68549L21.5838 5.03378C22.6226 3.8122 22.54 1.99537 21.3948 0.873023C20.207 -0.291008 18.3062 -0.291008 17.1184 0.873023C15.9732 1.99537 15.8906 3.8122 16.9294 5.03378L17.4837 5.68563C17.8608 6.12913 17.6488 6.81422 17.0871 6.96713L16.2463 7.196C14.7824 7.5945 13.6166 8.61219 13 9.9203C12.3835 8.61219 11.2177 7.5945 9.75378 7.196L8.91301 6.96713C8.3513 6.81422 8.13925 6.12913 8.51638 5.68563Z" fill="black"/>
</svg>
