<svg width="27" height="24" viewBox="0 0 27 24" fill="none" xmlns="http://www.w3.org/2000/svg">
<path fill-rule="evenodd" clip-rule="evenodd" d="M8.64431 6.17685L9.19861 5.52499C10.2374 4.30341 10.1548 2.48658 9.00957 1.36423C7.82177 0.200203 5.92104 0.200203 4.73324 1.36423C3.58798 2.48658 3.50543 4.30341 4.5442 5.52499L5.09838 6.1767C5.47553 6.62022 5.2634 7.30535 4.70163 7.45817L3.85915 7.68735C1.65651 8.28652 0.12793 10.2865 0.12793 12.5691V14.6763H0.128002V14.6764V22.3802C0.128002 22.9324 0.575717 23.3802 1.128 23.3802C1.68029 23.3802 2.128 22.9324 2.128 22.3802V15.6764H24.128V22.3802C24.128 22.9324 24.5757 23.3802 25.128 23.3802C25.6803 23.3802 26.128 22.9324 26.128 22.3802V14.6764V14.6763V13.6764V12.5691C26.128 10.2865 24.5994 8.28652 22.3968 7.68735L21.5543 7.45817C20.9925 7.30535 20.7804 6.62022 21.1575 6.1767L21.7117 5.52499C22.7505 4.30341 22.668 2.48658 21.5227 1.36423C20.3349 0.200203 18.4342 0.200203 17.2464 1.36423C16.1011 2.48658 16.0186 4.30341 17.0573 5.52499L17.6116 6.17685C17.9887 6.62034 17.7767 7.30543 17.215 7.45834L16.3742 7.68721C14.9103 8.08571 13.7445 9.1034 13.128 10.4115C12.5114 9.1034 11.3456 8.08571 9.88171 7.68721L9.04094 7.45834C8.47923 7.30543 8.26718 6.62034 8.64431 6.17685Z" fill="black"/>
</svg>
