<svg width="28" height="28" viewBox="0 0 28 28" fill="none" xmlns="http://www.w3.org/2000/svg">
<rect width="28" height="28" fill="white"/>
<path d="M9.28937 14.0001L2.00001 14.0001M9.28937 14.0001L6.11113 17.1784M9.28937 14.0001L6.11113 10.8218" stroke="black" stroke-width="2.5" stroke-linecap="round" stroke-linejoin="round"/>
<path d="M20.1171 14.9009L20.9079 13.9502C22.2575 12.3277 22.1494 9.94424 20.6584 8.45051C19.0621 6.85118 16.4707 6.85118 14.8744 8.45051C13.3834 9.94424 13.2753 12.3277 14.6249 13.9502L15.4156 14.9007C15.9206 15.5079 15.6312 16.4339 14.8703 16.6455L13.7992 16.9434C10.8663 17.759 8.83684 20.4299 8.83684 23.4741V26.0706C8.83684 26.2583 8.989 26.4105 9.17669 26.4105H26.3488C26.5365 26.4105 26.6887 26.2583 26.6887 26.0705V23.469C26.6887 20.4274 24.6613 17.7587 21.7311 16.9432L20.6621 16.6458C19.9013 16.434 19.6121 15.5081 20.1171 14.9009Z" stroke="black" stroke-width="2.5" stroke-linecap="round" stroke-linejoin="round"/>
</svg>
