<svg width="28" height="28" viewBox="0 0 28 28" fill="none" xmlns="http://www.w3.org/2000/svg">
<g clip-path="url(#clip0_3_4191)">
<rect width="28" height="28" transform="matrix(4.37114e-08 -1 -1 -4.37114e-08 28 28)" fill="white"/>
<path d="M14 17L14 11" stroke="black" stroke-width="2.5" stroke-linecap="round"/>
<path d="M17 14L11 14" stroke="black" stroke-width="2.5" stroke-linecap="round"/>
<path d="M7.90362 25.3262C7.51913 25.6786 7.06894 25.9519 6.57875 26.1302C6.08856 26.3086 5.56798 26.3887 5.04673 26.3658C4.52549 26.343 4.01378 26.2177 3.54082 25.9971C3.06787 25.7765 2.64293 25.4649 2.29028 25.0801C1.58814 24.2957 1.22588 23.2647 1.28306 22.2138C1.34025 21.1629 1.81221 20.1779 2.59527 19.4752C2.97976 19.1227 3.42996 18.8495 3.92014 18.6711C4.41033 18.4927 4.93091 18.4127 5.45216 18.4355C5.97341 18.4584 6.48512 18.5837 6.95807 18.8043C7.43102 19.0249 7.85596 19.3365 8.20861 19.7212C8.91036 20.5059 9.27236 21.5367 9.21518 22.5875C9.158 23.6383 8.68631 24.6233 7.90362 25.3262Z" fill="white" stroke="black" stroke-width="2.5" stroke-linejoin="round"/>
<path d="M9.33908 22.1627L26.6308 22.1655" stroke="black" stroke-width="2.5" stroke-linecap="round" stroke-linejoin="round"/>
<path d="M18.1171 22.926L18.1149 25.6049C18.1145 26.157 18.5616 26.605 19.1137 26.6057L22.622 26.6099C23.1746 26.6106 23.6229 26.1629 23.6232 25.6103L23.6244 22.9339" stroke="black" stroke-width="2.5" stroke-linecap="round" stroke-linejoin="round"/>
<path d="M7.90216 8.31958C7.51766 8.67204 7.06747 8.94526 6.57729 9.12365C6.0871 9.30203 5.56652 9.38209 5.04527 9.35924C4.52402 9.3364 4.01231 9.21109 3.53936 8.99049C3.0664 8.76989 2.64147 8.45831 2.28882 8.07354C1.58668 7.28907 1.22441 6.25815 1.2816 5.20722C1.33878 4.15629 1.81074 3.17129 2.59381 2.4686C2.9783 2.11614 3.42849 1.84291 3.91868 1.66453C4.40886 1.48614 4.92944 1.40609 5.45069 1.42893C5.97194 1.45178 6.48365 1.57708 6.95661 1.79768C7.42956 2.01829 7.8545 2.32987 8.20715 2.71464C8.90889 3.49929 9.2709 4.53012 9.21372 5.58093C9.15654 6.63173 8.68485 7.61666 7.90216 8.31958Z" fill="white" stroke="black" stroke-width="2.5" stroke-linejoin="round"/>
<path d="M9.33762 5.15613L26.6293 5.15886" stroke="black" stroke-width="2.5" stroke-linecap="round" stroke-linejoin="round"/>
<path d="M18.1156 5.91939L18.1135 8.59828C18.113 9.15041 18.5601 9.59841 19.1123 9.59908L22.6205 9.60331C23.1731 9.60397 23.6215 9.15633 23.6217 8.60375L23.6229 5.92733" stroke="black" stroke-width="2.5" stroke-linecap="round" stroke-linejoin="round"/>
</g>
<defs>
<clipPath id="clip0_3_4191">
<rect width="28" height="28" fill="white" transform="matrix(4.37114e-08 -1 -1 -4.37114e-08 28 28)"/>
</clipPath>
</defs>
</svg>
