<svg width="29" height="45" viewBox="0 0 29 45" fill="none" xmlns="http://www.w3.org/2000/svg">
<path d="M14.3486 25.2568L14.3486 19.2568" stroke="black" stroke-width="2.5" stroke-linecap="round"/>
<path d="M17.3486 22.2568L11.3486 22.2568" stroke="black" stroke-width="2.5" stroke-linecap="round"/>
<path d="M8.25226 33.5829C7.86776 33.9353 7.41757 34.2086 6.92738 34.387C6.4372 34.5653 5.91662 34.6454 5.39537 34.6225C4.87412 34.5997 4.36241 34.4744 3.88946 34.2538C3.4165 34.0332 2.99157 33.7216 2.63891 33.3368C1.93677 32.5524 1.57451 31.5215 1.63169 30.4705C1.68888 29.4196 2.16084 28.4346 2.9439 27.7319C3.3284 27.3794 3.77859 27.1062 4.26877 26.9278C4.75896 26.7494 5.27954 26.6694 5.80079 26.6922C6.32204 26.7151 6.83375 26.8404 7.3067 27.061C7.77966 27.2816 8.20459 27.5932 8.55725 27.9779C9.25899 28.7626 9.62099 29.7934 9.56381 30.8442C9.50664 31.895 9.03495 32.88 8.25226 33.5829Z" fill="white" stroke="black" stroke-width="2.5" stroke-linejoin="round"/>
<path d="M9.68773 30.4194L26.9794 30.4222" stroke="black" stroke-width="2.5" stroke-linecap="round" stroke-linejoin="round"/>
<path d="M18.4657 31.1827L18.4628 34.8612L23.9714 34.8678L23.973 31.1906" stroke="black" stroke-width="2.5" stroke-linecap="round" stroke-linejoin="round"/>
<path d="M8.25079 16.5763C7.8663 16.9288 7.41611 17.202 6.92592 17.3804C6.43573 17.5587 5.91515 17.6388 5.3939 17.616C4.87265 17.5931 4.36095 17.4678 3.88799 17.2472C3.41504 17.0266 2.9901 16.715 2.63745 16.3303C1.93531 15.5458 1.57304 14.5149 1.63023 13.4639C1.68742 12.413 2.15938 11.428 2.94244 10.7253C3.32693 10.3729 3.77712 10.0996 4.26731 9.92124C4.7575 9.74286 5.27808 9.6628 5.79933 9.68565C6.32058 9.70849 6.83228 9.8338 7.30524 10.0544C7.77819 10.275 8.20313 10.5866 8.55578 10.9714C9.25753 11.756 9.61953 12.7868 9.56235 13.8376C9.50517 14.8884 9.03348 15.8734 8.25079 16.5763Z" fill="white" stroke="black" stroke-width="2.5" stroke-linejoin="round"/>
<path d="M9.68626 13.4128L26.9779 13.4156" stroke="black" stroke-width="2.5" stroke-linecap="round" stroke-linejoin="round"/>
<path d="M18.4643 14.1761L18.4613 17.8546L23.9699 17.8612L23.9716 14.184" stroke="black" stroke-width="2.5" stroke-linecap="round" stroke-linejoin="round"/>
</svg>
