<svg width="28" height="28" viewBox="0 0 28 28" fill="none" xmlns="http://www.w3.org/2000/svg">
<path d="M18.9557 22.7289H15.2495V5.42358H19.0515" stroke="black" stroke-width="2.5" stroke-linecap="round" stroke-linejoin="round"/>
<path d="M11.9375 13.9775H14.9584" stroke="black" stroke-width="2.5" stroke-linecap="round"/>
<path d="M25.7702 1.56445H20.0513C19.499 1.56445 19.0513 2.01217 19.0513 2.56445V8.28338C19.0513 8.83567 19.499 9.28338 20.0513 9.28338H25.7702C26.3225 9.28338 26.7702 8.83567 26.7702 8.28338V2.56445C26.7702 2.01217 26.3225 1.56445 25.7702 1.56445Z" stroke="black" stroke-width="2.5" stroke-linecap="round" stroke-linejoin="round"/>
<path d="M11.2307 13.2704L7.57283 9.6125C7.18231 9.22198 6.54914 9.22198 6.15862 9.6125L2.50072 13.2704C2.11019 13.6609 2.11019 14.2941 2.50072 14.6846L6.15862 18.3425C6.54914 18.733 7.18231 18.733 7.57283 18.3425L11.2307 14.6846C11.6213 14.2941 11.6213 13.6609 11.2307 13.2704Z" stroke="black" stroke-width="2.5" stroke-linecap="round" stroke-linejoin="round"/>
<path d="M22.9107 26.4355C25.0423 26.4355 26.7702 24.7075 26.7702 22.576C26.7702 20.4445 25.0423 18.7166 22.9107 18.7166C20.7792 18.7166 19.0513 20.4445 19.0513 22.576C19.0513 24.7075 20.7792 26.4355 22.9107 26.4355Z" stroke="black" stroke-width="2.5" stroke-linecap="round" stroke-linejoin="round"/>
</svg>
