<svg width="21" height="29" viewBox="0 0 21 29" fill="none" xmlns="http://www.w3.org/2000/svg">
<path d="M8.27001 10.8147L7.26485 9.65015C5.65944 7.79152 5.78669 5.00228 7.55406 3.29661C9.34586 1.5678 12.1852 1.5678 13.977 3.29661C15.7444 5.00228 15.8716 7.79152 14.2662 9.65015L13.2611 10.8134C12.8538 11.2844 17.4443 18.5385 19.5343 21.7845C19.9647 22.453 19.4833 23.3341 18.6883 23.3341H16.9089C16.3566 23.3341 15.9089 23.7818 15.9089 24.3341V25.7725C15.9089 26.3247 15.4612 26.7725 14.9089 26.7725H6.62473C6.07245 26.7725 5.62473 26.3247 5.62473 25.7725V24.3341C5.62473 23.7818 5.17702 23.3341 4.62473 23.3341H2.84955C2.0547 23.3341 1.57332 22.4533 2.00332 21.7849C4.09087 18.5395 8.67624 11.2866 8.27001 10.8147Z" fill="white" stroke="black" stroke-width="2.5" stroke-linecap="round" stroke-linejoin="round"/>
</svg>
