<svg width="29" height="28" viewBox="0 0 29 28" fill="none" xmlns="http://www.w3.org/2000/svg">
<path d="M24.5043 26.4333C26.1298 26.4333 27.4474 25.1156 27.4474 23.4902C27.4474 21.8648 26.1298 20.5471 24.5043 20.5471C22.8789 20.5471 21.5613 21.8648 21.5613 23.4902C21.5613 25.1156 22.8789 26.4333 24.5043 26.4333Z" fill="white" stroke="black" stroke-width="2.5" stroke-linecap="round" stroke-linejoin="round"/>
<path d="M4.94307 26.4331C6.56848 26.4331 7.88614 25.1155 7.88614 23.4901C7.88614 21.8647 6.56848 20.547 4.94307 20.547C3.31766 20.547 2 21.8647 2 23.4901C2 25.1155 3.31766 26.4331 4.94307 26.4331Z" fill="white" stroke="black" stroke-width="2.5" stroke-linecap="round" stroke-linejoin="round"/>
<path d="M4.94312 20.5527L4.94312 17.157L24.0954 17.157L24.0954 20.5527" stroke="black" stroke-width="2.5" stroke-miterlimit="10" stroke-linecap="round" stroke-linejoin="round"/>
<path d="M11.8333 4.943C11.8333 3.31759 13.1509 1.99993 14.7763 1.99993C16.4017 1.99993 17.7194 3.31759 17.7194 4.943C17.7194 6.56841 16.4017 7.88607 14.7763 7.88607V9.82912M14.7763 13.4983V13.5091" stroke="black" stroke-width="2.5" stroke-linecap="round" stroke-linejoin="round"/>
</svg>
