<svg width="28" height="28" viewBox="0 0 28 28" fill="none" xmlns="http://www.w3.org/2000/svg">
<path d="M23.7984 26.7328L23.7984 27.9828L23.7984 26.7328ZM20.8553 23.7897L22.1053 23.7897L20.8553 23.7897ZM23.7984 20.8467L23.7984 22.0967L23.7984 20.8467ZM26.7414 23.7897L27.9914 23.7897L26.7414 23.7897ZM4.20167 26.7328L4.20167 27.9828L4.20167 26.7328ZM1.25861 23.7897L2.50861 23.7897L1.25861 23.7897ZM4.20168 20.8467L4.20168 22.0967L4.20168 20.8467ZM7.14474 23.7897L8.39474 23.7897L7.14474 23.7897ZM14.0014 18.2676L14.0014 19.5176L14.0014 18.2676ZM5.50143 9.76758L6.75143 9.76758L5.50143 9.76758ZM14.0014 1.26758L14.0014 2.51758L14.0014 1.26758ZM22.5014 9.76758L23.7514 9.76758L22.5014 9.76758ZM11.1769 11.0864C10.6887 11.5746 10.6887 12.366 11.1769 12.8542C11.665 13.3423 12.4565 13.3423 12.9447 12.8542L11.1769 11.0864ZM17.1873 8.61153C17.6755 8.12337 17.6755 7.33192 17.1873 6.84376C16.6991 6.3556 15.9077 6.3556 15.4195 6.84376L17.1873 8.61153ZM15.4195 12.8542C15.9077 13.3423 16.6991 13.3423 17.1873 12.8542C17.6755 12.366 17.6755 11.5746 17.1873 11.0864L15.4195 12.8542ZM12.9447 6.84376C12.4565 6.3556 11.665 6.3556 11.1769 6.84376C10.6887 7.33192 10.6887 8.12337 11.1769 8.61153L12.9447 6.84376ZM23.0318 20.7472L19.8216 16.0735L17.7609 17.489L20.9711 22.1626L23.0318 20.7472ZM8.20864 16.0789L4.9565 20.7235L7.00438 22.1574L10.2565 17.5129L8.20864 16.0789ZM23.7984 25.4828C22.8633 25.4828 22.1053 24.7248 22.1053 23.7897L19.6053 23.7897C19.6053 26.1055 21.4826 27.9828 23.7984 27.9828L23.7984 25.4828ZM22.1053 23.7897C22.1053 22.8547 22.8633 22.0967 23.7984 22.0967L23.7984 19.5967C21.4826 19.5967 19.6053 21.474 19.6053 23.7897L22.1053 23.7897ZM23.7984 22.0967C24.7334 22.0967 25.4914 22.8547 25.4914 23.7897L27.9914 23.7897C27.9914 21.474 26.1141 19.5967 23.7984 19.5967L23.7984 22.0967ZM25.4914 23.7897C25.4914 24.7248 24.7334 25.4828 23.7984 25.4828L23.7984 27.9828C26.1141 27.9828 27.9914 26.1055 27.9914 23.7897L25.4914 23.7897ZM4.20167 25.4828C3.26662 25.4828 2.50861 24.7248 2.50861 23.7897L0.00860596 23.7897C0.00860586 26.1055 1.88591 27.9828 4.20167 27.9828L4.20167 25.4828ZM2.50861 23.7897C2.50861 22.8547 3.26662 22.0967 4.20168 22.0967L4.20168 19.5967C1.88591 19.5967 0.00860606 21.474 0.00860596 23.7897L2.50861 23.7897ZM4.20168 22.0967C5.13673 22.0967 5.89474 22.8547 5.89474 23.7897L8.39474 23.7897C8.39474 21.474 6.51744 19.5967 4.20168 19.5967L4.20168 22.0967ZM5.89474 23.7897C5.89474 24.7248 5.13673 25.4828 4.20167 25.4828L4.20167 27.9828C6.51744 27.9828 8.39474 26.1055 8.39474 23.7897L5.89474 23.7897ZM14.0014 17.0176C9.99737 17.0176 6.75143 13.7716 6.75143 9.76758L4.25143 9.76758C4.25143 15.1524 8.61666 19.5176 14.0014 19.5176L14.0014 17.0176ZM6.75143 9.76758C6.75143 5.76351 9.99737 2.51758 14.0014 2.51758L14.0014 0.0175781C8.61666 0.0175779 4.25143 4.3828 4.25143 9.76758L6.75143 9.76758ZM14.0014 2.51758C18.0055 2.51758 21.2514 5.76351 21.2514 9.76758L23.7514 9.76758C23.7514 4.3828 19.3862 0.0175784 14.0014 0.0175781L14.0014 2.51758ZM21.2514 9.76758C21.2514 13.7716 18.0055 17.0176 14.0014 17.0176L14.0014 19.5176C19.3862 19.5176 23.7514 15.1524 23.7514 9.76758L21.2514 9.76758ZM12.9447 12.8542L17.1873 8.61153L15.4195 6.84376L11.1769 11.0864L12.9447 12.8542ZM17.1873 11.0864L12.9447 6.84376L11.1769 8.61153L15.4195 12.8542L17.1873 11.0864Z" fill="black"/>
</svg>
