<svg width="28" height="29" viewBox="0 0 28 29" fill="none" xmlns="http://www.w3.org/2000/svg">
<path d="M11.0568 3.24854C11.0568 2.69625 10.6091 2.24854 10.0568 2.24854H2.25684C1.70455 2.24854 1.25684 2.69625 1.25684 3.24854V11.0485C1.25684 11.6008 1.70455 12.0485 2.25684 12.0485H10.0568C10.6091 12.0485 11.0568 11.6008 11.0568 11.0485V3.24854Z" stroke="black" stroke-width="2.5" stroke-linecap="round" stroke-linejoin="round"/>
<path d="M11.0567 18.9282C11.0567 18.3759 10.609 17.9282 10.0567 17.9282H2.25684C1.70455 17.9282 1.25684 18.3759 1.25684 18.9282V26.7281C1.25684 27.2804 1.70455 27.7281 2.25684 27.7281H10.0567C10.609 27.7281 11.0567 27.2804 11.0567 26.7281V18.9282Z" stroke="black" stroke-width="2.5" stroke-linecap="round" stroke-linejoin="round"/>
<path d="M26.7365 3.24854C26.7365 2.69625 26.2888 2.24854 25.7365 2.24854H17.9365C17.3842 2.24854 16.9365 2.69625 16.9365 3.24854V11.0485C16.9365 11.6008 17.3842 12.0485 17.9365 12.0485H25.7365C26.2888 12.0485 26.7365 11.6008 26.7365 11.0485V3.24854Z" stroke="black" stroke-width="2.5" stroke-linecap="round" stroke-linejoin="round"/>
<path d="M26.7364 18.9282C26.7364 18.3759 26.2887 17.9282 25.7364 17.9282H17.9365C17.3842 17.9282 16.9365 18.3759 16.9365 18.9282V26.7281C16.9365 27.2804 17.3842 27.7281 17.9365 27.7281H25.7364C26.2887 27.7281 26.7364 27.2804 26.7364 26.7281V18.9282Z" stroke="black" stroke-width="2.5" stroke-linecap="round" stroke-linejoin="round"/>
<path d="M11.1787 7.24072H16.9365" stroke="black" stroke-width="2.5" stroke-linecap="round" stroke-linejoin="round"/>
<path d="M16.7112 22.9868L11.1787 22.9868" stroke="black" stroke-width="2.5" stroke-linecap="round" stroke-linejoin="round"/>
<path d="M10.9971 17.9878L16.9971 11.9878" stroke="black" stroke-width="2.5"/>
</svg>
