<svg width="29" height="29" viewBox="0 0 29 29" fill="none" xmlns="http://www.w3.org/2000/svg">
<path d="M22.7424 22.1873L19.5322 17.5137" stroke="black" stroke-width="2.5"/>
<path d="M9.97358 17.5283L6.72144 22.1729" stroke="black" stroke-width="2.5"/>
<path d="M21.5963 24.5222C21.5963 26.1476 22.9139 27.4652 24.5394 27.4652C26.1648 27.4652 27.4824 26.1476 27.4824 24.5222C27.4824 22.8968 26.1648 21.5791 24.5394 21.5791C22.9139 21.5791 21.5963 22.8968 21.5963 24.5222Z" stroke="black" stroke-width="2.5" stroke-linecap="round" stroke-linejoin="round"/>
<path d="M1.9996 24.5222C1.9996 26.1476 3.31726 27.4652 4.94267 27.4652C6.56809 27.4652 7.88574 26.1476 7.88574 24.5222C7.88574 22.8968 6.56809 21.5791 4.94267 21.5791C3.31726 21.5791 1.9996 22.8968 1.9996 24.5222Z" stroke="black" stroke-width="2.5" stroke-linecap="round" stroke-linejoin="round"/>
<path d="M6.24243 10.5C6.24243 15.1944 10.048 19 14.7424 19C19.4369 19 23.2424 15.1944 23.2424 10.5C23.2424 5.80558 19.4369 2 14.7424 2C10.048 2 6.24243 5.80558 6.24243 10.5Z" stroke="black" stroke-width="2.5" stroke-miterlimit="10"/>
<path d="M14.7423 14.146L14.7423 6.85667M14.7423 14.146L11.5639 10.9678M14.7423 14.146L17.9205 10.9678" stroke="black" stroke-width="2.5" stroke-linecap="round" stroke-linejoin="round"/>
</svg>
