<svg width="29" height="29" viewBox="0 0 29 29" fill="none" xmlns="http://www.w3.org/2000/svg">
<path d="M24.5393 27.4652L24.5393 28.7152L24.5393 27.4652ZM21.5963 24.5222L22.8463 24.5222L21.5963 24.5222ZM24.5393 21.5791L24.5393 22.8291L24.5393 21.5791ZM27.4824 24.5222L28.7324 24.5222L27.4824 24.5222ZM4.94264 27.4652L4.94264 28.7152L4.94264 27.4652ZM1.99957 24.5222L3.24957 24.5222L1.99957 24.5222ZM4.94264 21.5791L4.94264 22.8291L4.94264 21.5791ZM7.88571 24.5222L9.13571 24.5222L7.88571 24.5222ZM14.7424 19L14.7424 20.25L14.7424 19ZM6.2424 10.5L7.4924 10.5L6.2424 10.5ZM14.7424 2L14.7424 3.25L14.7424 2ZM23.2424 10.5L24.4924 10.5L23.2424 10.5ZM14.7422 14.1461L13.8584 15.03C14.3465 15.5181 15.138 15.5181 15.6261 15.0299L14.7422 14.1461ZM15.9922 6.85671C15.9922 6.16635 15.4326 5.60671 14.7422 5.60671C14.0519 5.60671 13.4922 6.16635 13.4922 6.85671H15.9922ZM12.4477 10.0839C11.9596 9.59578 11.1681 9.59579 10.68 10.084C10.1918 10.5721 10.1918 11.3636 10.68 11.8517L12.4477 10.0839ZM18.8044 11.8517C19.2925 11.3636 19.2925 10.5721 18.8044 10.0839C18.3162 9.59579 17.5247 9.59579 17.0366 10.0839L18.8044 11.8517ZM23.7728 21.4796L20.5625 16.8059L18.5018 18.2214L21.712 22.895L23.7728 21.4796ZM8.94961 16.8113L5.69746 21.4559L7.74534 22.8898L10.9975 18.2453L8.94961 16.8113ZM24.5393 26.2152C23.6043 26.2152 22.8463 25.4572 22.8463 24.5222L20.3463 24.5222C20.3463 26.8379 22.2236 28.7152 24.5393 28.7152L24.5393 26.2152ZM22.8463 24.5222C22.8463 23.5871 23.6043 22.8291 24.5393 22.8291L24.5393 20.3291C22.2236 20.3291 20.3463 22.2064 20.3463 24.5222L22.8463 24.5222ZM24.5393 22.8291C25.4744 22.8291 26.2324 23.5871 26.2324 24.5222L28.7324 24.5222C28.7324 22.2064 26.8551 20.3291 24.5393 20.3291L24.5393 22.8291ZM26.2324 24.5222C26.2324 25.4572 25.4744 26.2152 24.5393 26.2152L24.5393 28.7152C26.8551 28.7152 28.7324 26.8379 28.7324 24.5222L26.2324 24.5222ZM4.94264 26.2152C4.00759 26.2152 3.24957 25.4572 3.24957 24.5222L0.749573 24.5222C0.749573 26.8379 2.62687 28.7152 4.94264 28.7152L4.94264 26.2152ZM3.24957 24.5222C3.24957 23.5871 4.00758 22.8291 4.94264 22.8291L4.94264 20.3291C2.62687 20.3291 0.749573 22.2064 0.749573 24.5222L3.24957 24.5222ZM4.94264 22.8291C5.8777 22.8291 6.63571 23.5871 6.63571 24.5222L9.13571 24.5222C9.13571 22.2064 7.25841 20.3291 4.94264 20.3291L4.94264 22.8291ZM6.63571 24.5222C6.63571 25.4572 5.8777 26.2152 4.94264 26.2152L4.94264 28.7152C7.25841 28.7152 9.13571 26.8379 9.13571 24.5222L6.63571 24.5222ZM14.7424 17.75C10.7383 17.75 7.4924 14.5041 7.4924 10.5L4.9924 10.5C4.9924 15.8848 9.35762 20.25 14.7424 20.25L14.7424 17.75ZM7.4924 10.5C7.4924 6.49594 10.7383 3.25 14.7424 3.25L14.7424 0.75C9.35762 0.75 4.9924 5.11522 4.9924 10.5L7.4924 10.5ZM14.7424 3.25C18.7465 3.25 21.9924 6.49594 21.9924 10.5L24.4924 10.5C24.4924 5.11522 20.1272 0.75 14.7424 0.75L14.7424 3.25ZM21.9924 10.5C21.9924 14.5041 18.7465 17.75 14.7424 17.75L14.7424 20.25C20.1272 20.25 24.4924 15.8848 24.4924 10.5L21.9924 10.5ZM15.9922 14.1461V6.85671H13.4922V14.1461H15.9922ZM10.68 11.8517L13.8584 15.03L15.6261 13.2622L12.4477 10.0839L10.68 11.8517ZM15.6261 15.0299L18.8044 11.8517L17.0366 10.0839L13.8583 13.2622L15.6261 15.0299Z" fill="black"/>
</svg>
