<svg width="26" height="15" viewBox="0 0 26 15" fill="none" xmlns="http://www.w3.org/2000/svg">
<path d="M23.9987 12.3966L23.9999 2.39663C23.9999 1.8443 23.5522 1.39652 22.9999 1.39651L3.00001 1.39648C2.44772 1.39648 2 1.84421 2.00001 2.39649L2.00008 12.3965C2.00008 12.9488 2.44779 13.3965 3.00007 13.3965L4.22654 13.3965C4.55441 13.3965 4.86081 13.2373 5.0741 12.9883C5.95902 11.9552 8.64783 9.31825 13.039 9.31825C17.4164 9.31825 20.0519 11.9386 20.9255 12.9785C21.1393 13.233 21.4493 13.3965 21.7818 13.3965L22.9987 13.3965C23.5509 13.3965 23.9986 12.9488 23.9987 12.3966Z" stroke="black" stroke-width="2.5" stroke-linecap="round" stroke-linejoin="round"/>
</svg>
