<svg width="28" height="28" viewBox="0 0 28 28" fill="none" xmlns="http://www.w3.org/2000/svg">
<path d="M14.7808 23.6137L17.2887 26.4003L23.0111 23.1061L21.9164 19.5632L22.354 18.2496L26.3849 17.5569V10.7457L22.7723 9.91973L21.9463 8.48664L23.0908 4.94373L17.3783 1.64961L14.8306 4.38642H13.2084L10.7105 1.59985L4.98805 4.89397L6.09273 8.49659L5.30652 9.86997L1.60437 10.6462V17.2544L5.27666 18.0903L6.07282 19.4637L4.89848 23.0564L10.6209 26.3605L13.1587 23.6137H14.7808Z" stroke="black" stroke-width="2.5" stroke-miterlimit="10" stroke-linejoin="round"/>
<path d="M11.2649 12.7315V10.735C11.2649 10.0097 11.553 9.31399 12.066 8.80107C12.5789 8.28816 13.2746 8 13.9999 8C14.7235 8.00279 15.4164 8.29218 15.9271 8.8048C16.4377 9.31741 16.7244 10.0115 16.7244 10.735V12.7315" stroke="black" stroke-width="2.5" stroke-linecap="round" stroke-linejoin="round"/>
<path d="M18.3612 12.9526H9.63867V18.4544H18.3612V12.9526Z" stroke="black" stroke-width="2.5" stroke-linecap="round" stroke-linejoin="round"/>
</svg>
