<svg width="28" height="28" viewBox="0 0 28 28" fill="none" xmlns="http://www.w3.org/2000/svg">
<path d="M14.0019 7.54055C15.5315 7.54055 16.7715 6.30026 16.7715 4.77028C16.7715 3.24029 15.5315 2 14.0019 2C12.4723 2 11.2323 3.24029 11.2323 4.77028C11.2323 6.30026 12.4723 7.54055 14.0019 7.54055Z" fill="white" stroke="black" stroke-width="2.5" stroke-linecap="round" stroke-linejoin="round"/>
<path d="M7.47419 25.9903C9.00379 25.9903 10.2438 24.75 10.2438 23.22C10.2438 21.6901 9.00379 20.4498 7.47419 20.4498C5.94458 20.4498 4.70459 21.6901 4.70459 23.22C4.70459 24.75 5.94458 25.9903 7.47419 25.9903Z" fill="white" stroke="black" stroke-width="2.5" stroke-linecap="round" stroke-linejoin="round"/>
<path d="M4.7696 14.9279C6.2992 14.9279 7.53919 13.6876 7.53919 12.1577C7.53919 10.6277 6.2992 9.38739 4.7696 9.38739C3.23999 9.38739 2 10.6277 2 12.1577C2 13.6876 3.23999 14.9279 4.7696 14.9279Z" fill="white" stroke="black" stroke-width="2.5" stroke-linecap="round" stroke-linejoin="round"/>
<path d="M23.2332 14.9279C24.7628 14.9279 26.0028 13.6876 26.0028 12.1577C26.0028 10.6277 24.7628 9.38739 23.2332 9.38739C21.7036 9.38739 20.4636 10.6277 20.4636 12.1577C20.4636 13.6876 21.7036 14.9279 23.2332 14.9279Z" fill="white" stroke="black" stroke-width="2.5" stroke-linecap="round" stroke-linejoin="round"/>
<path d="M20.4551 26C21.9847 26 23.2247 24.7597 23.2247 23.2297C23.2247 21.6998 21.9847 20.4595 20.4551 20.4595C18.9255 20.4595 17.6855 21.6998 17.6855 23.2297C17.6855 24.7597 18.9255 26 20.4551 26Z" fill="white" stroke="black" stroke-width="2.5" stroke-linecap="round" stroke-linejoin="round"/>
<path d="M14.0006 18.88C16.1827 18.88 17.9517 17.1106 17.9517 14.928C17.9517 12.7453 16.1827 10.976 14.0006 10.976C11.8185 10.976 10.0496 12.7453 10.0496 14.928C10.0496 17.1106 11.8185 18.88 14.0006 18.88Z" fill="white" stroke="black" stroke-width="2.5" stroke-linecap="round" stroke-linejoin="round"/>
<path d="M11.501 18.215L8.92651 20.7894" stroke="black" stroke-width="2.5" stroke-linecap="round" stroke-linejoin="round"/>
<path d="M16.4661 18.2551L19.0005 20.7894" stroke="black" stroke-width="2.5" stroke-linecap="round" stroke-linejoin="round"/>
<path d="M14.0012 10.976L14.0012 7.54065" stroke="black" stroke-width="2.5" stroke-linecap="round" stroke-linejoin="round"/>
<path d="M10.1505 14.0189L7.41382 13.0588M17.8281 14.0084L20.5886 13.0588" stroke="black" stroke-width="2.5" stroke-linecap="round" stroke-linejoin="round"/>
</svg>
