<svg width="24" height="28" viewBox="0 0 24 28" fill="none" xmlns="http://www.w3.org/2000/svg">
<path d="M2.20288 26.7496V1.2771H14.9391L21.7971 8.13508V26.7496H2.20288Z" stroke="black" stroke-width="2.5" stroke-linecap="round" stroke-linejoin="round"/>
<path d="M14.9391 8.13508V9.38508C14.2488 9.38508 13.6891 8.82544 13.6891 8.13508H14.9391ZM20.5 6.88508H21.75V9.38508H20.5V6.88508ZM13.6891 2.5C13.6891 1.80964 14.2488 1.25 14.9391 1.25C15.6295 1.25 16.1891 1.80964 16.1891 2.5H13.6891ZM20.5 9.38508H14.9391V6.88508H20.5V9.38508ZM13.6891 8.13508V2.5H16.1891V8.13508H13.6891Z" fill="black"/>
<path d="M13.7983 12.7168H11.3746C11.1372 12.7151 10.902 12.7604 10.6822 12.8501C10.4625 12.9398 10.2627 13.072 10.0943 13.2393C9.92597 13.4065 9.79233 13.6054 9.70114 13.8245C9.60995 14.0436 9.563 14.2785 9.563 14.5158C9.5663 14.9941 9.75862 15.4517 10.098 15.7887C10.4374 16.1257 10.8963 16.3149 11.3746 16.3149H12.6239C13.1022 16.3149 13.5611 16.504 13.9004 16.841C14.2398 17.1781 14.4321 17.6356 14.4354 18.1139C14.4458 18.3623 14.405 18.6102 14.3154 18.8421C14.2259 19.074 14.0896 19.2851 13.9149 19.462C13.7403 19.639 13.5312 19.7781 13.3004 19.8707C13.0697 19.9634 12.8224 20.0075 12.5739 20.0004H9.95031" stroke="black" stroke-width="2.5" stroke-linecap="round" stroke-linejoin="round"/>
<path d="M11.9742 12.6662V11.317" stroke="black" stroke-width="2.5" stroke-linecap="round" stroke-linejoin="round"/>
<path d="M11.9742 21.4124V20.1255" stroke="black" stroke-width="2.5" stroke-linecap="round" stroke-linejoin="round"/>
</svg>
