<svg width="28" height="28" viewBox="0 0 28 28" fill="none" xmlns="http://www.w3.org/2000/svg">
<g clip-path="url(#clip0_3_4196)">
<rect width="28" height="28" fill="white"/>
<path d="M11.0599 17.9404C11.0599 17.3881 10.6121 16.9404 10.0599 16.9404H2.26001C1.70773 16.9404 1.26001 17.3881 1.26001 17.9404V25.7403C1.26001 26.2926 1.70773 26.7403 2.26001 26.7403H10.0599C10.6121 26.7403 11.0599 26.2926 11.0599 25.7403V17.9404Z" stroke="black" stroke-width="2.5" stroke-linecap="round" stroke-linejoin="round"/>
<path d="M26.7398 17.9404C26.7398 17.3881 26.2921 16.9404 25.7398 16.9404H17.9399C17.3876 16.9404 16.9399 17.3881 16.9399 17.9404V25.7403C16.9399 26.2926 17.3876 26.7403 17.9399 26.7403H25.7398C26.2921 26.7403 26.7398 26.2926 26.7398 25.7403V17.9404Z" stroke="black" stroke-width="2.5" stroke-linecap="round" stroke-linejoin="round"/>
<path d="M21.8395 16.9404L21.8396 11.7362L6.16036 11.7365L6.16018 16.9407" stroke="black" stroke-width="2.5" stroke-linecap="round" stroke-linejoin="round"/>
<path d="M10.0134 5.86679L14.0859 1.76746L18.1784 5.83305" stroke="black" stroke-width="2.5" stroke-linecap="round" stroke-linejoin="round"/>
<path d="M14 2V11.4932" stroke="black" stroke-width="2.5" stroke-linecap="round" stroke-linejoin="round"/>
</g>
<defs>
<clipPath id="clip0_3_4196">
<rect width="28" height="28" fill="white"/>
</clipPath>
</defs>
</svg>
