<svg width="28" height="28" viewBox="0 0 28 28" fill="none" xmlns="http://www.w3.org/2000/svg">
<g clip-path="url(#clip0_3_4861)">
<rect width="28" height="28" fill="white"/>
<path d="M24.9812 19.797C26.8866 16.1904 26.8917 11.8427 24.9965 8.23211M19.7325 2.98492C16.0805 1.08297 11.681 1.12012 8.05818 3.09636M2.98871 8.25986C1.10811 11.8649 1.11807 16.1996 3.01858 19.797M19.747 25.0075C16.1572 26.883 11.8426 26.883 8.25277 25.0075" stroke="black" stroke-width="2.5"/>
<circle cx="22.7781" cy="5.22173" r="3.72426" transform="rotate(45 22.7781 5.22173)" stroke="black" stroke-width="2.5"/>
<circle cx="5.22205" cy="22.7779" r="3.72426" transform="rotate(45 5.22205 22.7779)" stroke="black" stroke-width="2.5"/>
<circle cx="5.22168" cy="5.22173" r="3.72426" transform="rotate(45 5.22168 5.22173)" stroke="black" stroke-width="2.5"/>
<circle cx="22.7781" cy="22.7781" r="3.72426" transform="rotate(45 22.7781 22.7781)" stroke="black" stroke-width="2.5"/>
</g>
<defs>
<clipPath id="clip0_3_4861">
<rect width="28" height="28" fill="white"/>
</clipPath>
</defs>
</svg>
