<svg width="28" height="25" viewBox="0 0 28 25" fill="none" xmlns="http://www.w3.org/2000/svg">
<path d="M9.98121 7.02889C6.01793 6.61231 2.46734 9.48747 2.05076 13.4508C1.84405 15.4173 2.44781 17.2823 3.59283 18.7132L1.59231 23.5075L5.79389 20.5539C6.60036 20.9904 7.50399 21.2794 8.47262 21.3812C11.4122 21.6902 14.1247 20.1883 15.4999 17.7747" stroke="black" stroke-width="2.5" stroke-linejoin="round"/>
<path d="M16.6032 1.37783C21.1912 0.895579 25.3014 4.22393 25.7837 8.81191C26.0229 11.0885 25.324 13.2474 23.9985 14.9038L26.3144 20.4538L21.4505 17.0347C20.5169 17.5399 19.4709 17.8745 18.3496 17.9924C17.3676 18.0956 16.4076 18.0242 15.5003 17.8034C12.1684 16.9922 9.54815 14.1643 9.16911 10.5583C9.03857 9.3164 9.18724 8.10952 9.5645 7.00012C10.581 4.01099 13.2571 1.72954 16.6032 1.37783Z" stroke="black" stroke-width="2.5" stroke-linejoin="round"/>
</svg>
