<svg width="25" height="24" viewBox="0 0 25 24" fill="none" xmlns="http://www.w3.org/2000/svg">
<path d="M7.50006 6.92727C4.61516 7.34329 2.26825 9.67032 1.94963 12.7016C1.76279 14.4791 2.30851 16.1648 3.34346 17.4581L1.53526 21.7915L5.33291 19.1218C6.06185 19.5164 6.87861 19.7776 7.75412 19.8696C10.1699 20.1236 12.4161 19.0244 13.7382 17.1829" stroke="black" stroke-width="2.5" stroke-linejoin="round"/>
<path d="M14.1031 1.78924C18.25 1.35336 21.9651 4.36173 22.4009 8.50864C22.6172 10.5663 21.9855 12.5177 20.7874 14.0149L22.8806 19.0313L18.4844 15.9409C17.6405 16.3976 16.695 16.7 15.6815 16.8065C14.794 16.8998 13.9263 16.8353 13.1062 16.6357C10.0946 15.9025 7.72625 13.3465 7.38366 10.0871C7.26567 8.96463 7.40004 7.87378 7.74104 6.87103C8.65982 4.16927 11.0786 2.10715 14.1031 1.78924Z" stroke="black" stroke-width="2.5" stroke-linejoin="round"/>
</svg>
