<svg width="24" height="23" viewBox="0 0 24 23" fill="none" xmlns="http://www.w3.org/2000/svg">
<path d="M13.5589 16.9552C12.2554 18.7707 10.0408 19.8544 7.65901 19.6041C6.79582 19.5134 5.99056 19.2558 5.27188 18.8668L1.52769 21.4989L3.31043 17.2265C2.29006 15.9514 1.75202 14.2894 1.93623 12.5369C2.23879 9.65842 4.39652 7.42401 7.09652 6.89684" stroke="black" stroke-width="2.5" stroke-linecap="round" stroke-linejoin="round"/>
<path d="M13.9185 1.77813C18.0071 1.34838 21.6699 4.31441 22.0996 8.40294C22.3128 10.4317 21.69 12.3556 20.5088 13.8317L22.5725 18.7775L18.2382 15.7306C17.4062 16.1808 16.474 16.479 15.4748 16.584C14.5998 16.676 13.7442 16.6124 12.9357 16.4156C9.96651 15.6928 7.63149 13.1727 7.29372 9.95921C7.17739 8.85252 7.30987 7.77702 7.64607 6.78839C8.55192 4.12465 10.9367 2.09156 13.9185 1.77813Z" stroke="black" stroke-width="2.5" stroke-linecap="round" stroke-linejoin="round"/>
</svg>
