<svg width="29" height="28" viewBox="0 0 29 28" fill="none" xmlns="http://www.w3.org/2000/svg">
<path d="M15.05 12.5924L15.965 11.4924C17.526 9.61542 17.401 6.85842 15.676 5.13042C13.829 3.28042 10.832 3.28042 8.985 5.13042C7.26 6.85842 7.135 9.61542 8.696 11.4924L9.611 12.5924C10.195 13.2944 9.861 14.3664 8.98 14.6104L7.741 14.9554C4.348 15.8984 2 18.9884 2 22.5104L2 25.9074H22.652V22.5044C22.652 18.9854 20.307 15.8984 16.917 14.9554L15.68 14.6114C14.8 14.3664 14.465 13.2944 15.05 12.5924Z" fill="white" stroke="black" stroke-width="2.5" stroke-linecap="round" stroke-linejoin="round"/>
<path d="M13.343 3.8525C14.198 4.0395 15.012 4.4655 15.677 5.1315C17.402 6.8595 17.527 9.6165 15.966 11.4935L15.051 12.5935C14.467 13.2955 14.801 14.3665 15.681 14.6115L16.918 14.9555C20.308 15.8985 22.653 18.9855 22.653 22.5045V24.1635H27.418V20.7605C27.418 17.2415 25.073 14.1545 21.683 13.2115L20.446 12.8675C19.566 12.6225 19.231 11.5515 19.816 10.8495L20.731 9.7495C22.292 7.8725 22.167 5.1155 20.442 3.3875C18.595 1.5375 15.598 1.5375 13.751 3.3875C13.603 3.5355 13.468 3.6905 13.343 3.8525Z" fill="white" stroke="black" stroke-width="2.5" stroke-linecap="round" stroke-linejoin="round"/>
</svg>
