<svg width="28" height="26" viewBox="0 0 28 26" fill="none" xmlns="http://www.w3.org/2000/svg">
<path d="M21.9986 19.1946L18.7884 14.521M9.22971 14.5356L5.97757 19.1802M16.9657 8.40302C15.4204 9.94827 12.9151 9.94827 11.3698 8.40302C9.82459 6.85778 9.82459 4.35244 11.3698 2.80719C12.9151 1.26194 15.4204 1.26194 16.9657 2.80719C18.5109 4.35244 18.5109 6.85778 16.9657 8.40302ZM23.7955 24.4726C22.1701 24.4726 20.8524 23.1549 20.8524 21.5295C20.8524 19.9041 22.1701 18.5864 23.7955 18.5864C25.4209 18.5864 26.7386 19.9041 26.7386 21.5295C26.7386 23.1549 25.4209 24.4726 23.7955 24.4726ZM4.19881 24.4726C2.57339 24.4726 1.25574 23.1549 1.25574 21.5295C1.25574 19.9041 2.57339 18.5864 4.19881 18.5864C5.82422 18.5864 7.14188 19.9041 7.14188 21.5295C7.14188 23.1549 5.82422 24.4726 4.19881 24.4726Z" stroke="black" stroke-width="2.5" stroke-linecap="round" stroke-linejoin="round"/>
</svg>
