<svg width="28" height="26" viewBox="0 0 28 26" fill="none" xmlns="http://www.w3.org/2000/svg">
<path d="M11.3698 8.40303C12.9151 9.94827 15.4204 9.94827 16.9656 8.40303C18.5109 6.85778 18.5109 4.35244 16.9656 2.80719C15.4204 1.26195 12.9151 1.26195 11.3698 2.80719C9.82456 4.35244 9.82456 6.85778 11.3698 8.40303Z" stroke="black" stroke-width="2.5" stroke-linecap="round" stroke-linejoin="round"/>
<path d="M21.9985 19.1946L18.7883 14.521" stroke="black" stroke-width="2.5" stroke-linecap="round"/>
<path d="M9.22968 14.5356L5.97754 19.1802" stroke="black" stroke-width="2.5" stroke-linecap="round"/>
<path d="M20.8524 21.5295C20.8524 23.1549 22.17 24.4726 23.7955 24.4726C25.4209 24.4726 26.7385 23.1549 26.7385 21.5295C26.7385 19.9041 25.4209 18.5864 23.7955 18.5864C22.17 18.5864 20.8524 19.9041 20.8524 21.5295Z" stroke="black" stroke-width="2.5" stroke-linecap="round" stroke-linejoin="round"/>
<path d="M1.25571 21.5295C1.25571 23.1549 2.57336 24.4726 4.19878 24.4726C5.82419 24.4726 7.14185 23.1549 7.14185 21.5295C7.14185 19.9041 5.82419 18.5864 4.19878 18.5864C2.57336 18.5864 1.25571 19.9041 1.25571 21.5295Z" stroke="black" stroke-width="2.5" stroke-linecap="round" stroke-linejoin="round"/>
</svg>
