<svg width="27" height="26" viewBox="0 0 27 26" fill="none" xmlns="http://www.w3.org/2000/svg">
<path d="M20.6088 6.31161L17.7289 2.1188" stroke="black" stroke-width="2.5" stroke-linecap="round"/>
<path d="M9.15359 2.13193L6.23602 6.29865" stroke="black" stroke-width="2.5" stroke-linecap="round"/>
<path d="M19.5806 8.40625C19.5806 9.86444 20.7627 11.0465 22.2209 11.0465C23.679 11.0465 24.8611 9.86444 24.8611 8.40625C24.8611 6.94806 23.679 5.76596 22.2209 5.76596C20.7627 5.76596 19.5806 6.94806 19.5806 8.40625Z" stroke="black" stroke-width="2.5" stroke-linecap="round" stroke-linejoin="round"/>
<path d="M2 8.40625C2 9.86444 3.1821 11.0465 4.64029 11.0465C6.09848 11.0465 7.28058 9.86444 7.28058 8.40625C7.28058 6.94806 6.09848 5.76596 4.64029 5.76596C3.1821 5.76596 2 6.94806 2 8.40625Z" stroke="black" stroke-width="2.5" stroke-linecap="round" stroke-linejoin="round"/>
<path d="M10.9205 23.4899C12.3067 24.8762 14.5543 24.8762 15.9406 23.4899C17.3269 22.1037 17.3269 19.8561 15.9406 18.4698C14.5543 17.0835 12.3067 17.0835 10.9205 18.4698C9.5342 19.8561 9.5342 22.1037 10.9205 23.4899Z" stroke="black" stroke-width="2.5" stroke-linecap="round" stroke-linejoin="round"/>
<path d="M13.445 13.1975L13.4451 2.00001M16.5406 10.7918L13.4215 13.9109L10.3024 10.7917" stroke="black" stroke-width="2.5" stroke-linecap="round" stroke-linejoin="round" data-nofill="true"/>
</svg>
