<svg width="29" height="29" viewBox="0 0 29 29" fill="none" xmlns="http://www.w3.org/2000/svg">
<path d="M22.7429 6.80607L19.5327 2.13245" stroke="black" stroke-width="2.5" stroke-linecap="round"/>
<path d="M9.97401 2.14709L6.72186 6.79163" stroke="black" stroke-width="2.5" stroke-linecap="round"/>
<path d="M21.5967 9.14094C21.5967 10.7664 22.9144 12.084 24.5398 12.084C26.1652 12.084 27.4828 10.7664 27.4828 9.14094C27.4828 7.51553 26.1652 6.19788 24.5398 6.19788C22.9144 6.19788 21.5967 7.51553 21.5967 9.14094Z" stroke="black" stroke-width="2.5" stroke-linecap="round" stroke-linejoin="round"/>
<path d="M2.00003 9.14094C2.00003 10.7664 3.31769 12.084 4.9431 12.084C6.56851 12.084 7.88617 10.7664 7.88617 9.14094C7.88617 7.51553 6.56851 6.19788 4.9431 6.19788C3.31769 6.19788 2.00003 7.51553 2.00003 9.14094Z" stroke="black" stroke-width="2.5" stroke-linecap="round" stroke-linejoin="round"/>
<path d="M11.9435 25.9544C13.4887 27.4996 15.9941 27.4996 17.5393 25.9544C19.0846 24.4091 19.0846 21.9038 17.5393 20.3585C15.9941 18.8133 13.4887 18.8133 11.9435 20.3585C10.3982 21.9038 10.3982 24.4091 11.9435 25.9544Z" stroke="black" stroke-width="2.5" stroke-linecap="round" stroke-linejoin="round"/>
<path d="M14.7575 14.4816L14.7577 1.99998M18.2082 11.7999L14.7313 15.2768L11.2546 11.7998" stroke="black" stroke-width="2.5" stroke-linecap="round" stroke-linejoin="round"/>
</svg>
