<svg width="29" height="29" viewBox="0 0 29 29" fill="none" xmlns="http://www.w3.org/2000/svg">
<path d="M22.7429 6.80605L19.5327 2.13243M9.97404 2.14707L6.72189 6.79161M14.7575 14.4816L14.7577 2M18.2082 11.8L14.7314 15.2768L11.2546 11.7999M24.5398 12.084C22.9144 12.084 21.5967 10.7663 21.5967 9.14093C21.5967 7.51551 22.9144 6.19786 24.5398 6.19786C26.1652 6.19786 27.4829 7.51551 27.4829 9.14093C27.4829 10.7663 26.1652 12.084 24.5398 12.084ZM4.94313 12.084C3.31772 12.084 2.00006 10.7663 2.00006 9.14093C2.00006 7.51551 3.31772 6.19786 4.94313 6.19786C6.56854 6.19786 7.8862 7.51551 7.8862 9.14093C7.8862 10.7663 6.56854 12.084 4.94313 12.084ZM17.5393 25.9543C15.9941 27.4996 13.4888 27.4996 11.9435 25.9543C10.3983 24.4091 10.3983 21.9037 11.9435 20.3585C13.4888 18.8132 15.9941 18.8132 17.5393 20.3585C19.0846 21.9037 19.0846 24.4091 17.5393 25.9543Z" stroke="black" stroke-width="2.5" stroke-linecap="round" stroke-linejoin="round"/>
</svg>
