<svg width="28" height="28" viewBox="0 0 28 28" fill="none" xmlns="http://www.w3.org/2000/svg">
<path d="M8.00463 3.69403H4.56836C4.23191 3.69169 3.89833 3.75594 3.58683 3.88308C3.27532 4.01021 2.99205 4.19772 2.75332 4.4348C2.5146 4.67189 2.32513 4.95385 2.19584 5.26447C2.06655 5.57509 1.99999 5.90822 2 6.24467C2.00468 6.92276 2.27733 7.57149 2.75849 8.04932C3.23964 8.52716 3.89025 8.79532 4.56836 8.7953H6.33963C7.01774 8.79529 7.66833 9.06345 8.14949 9.54128C8.63064 10.0191 8.9033 10.6678 8.90797 11.3459C8.9227 11.6981 8.86479 12.0495 8.73783 12.3783C8.61088 12.7072 8.41759 13.0063 8.17003 13.2572C7.92246 13.5081 7.62591 13.7053 7.29882 13.8367C6.97173 13.968 6.62111 14.0306 6.26878 14.0206H2.5491" stroke="black" stroke-width="2.5" stroke-linecap="round" stroke-linejoin="round"/>
<path d="M5.41907 3.62453V1.71155" stroke="black" stroke-width="2.5" stroke-linecap="round" stroke-linejoin="round"/>
<path d="M5.41858 16.0223V14.1979" stroke="black" stroke-width="2.5" stroke-linecap="round" stroke-linejoin="round"/>
<path d="M13.477 17.0477C13.7892 16.744 13.8615 16.2756 13.7101 15.8673C13.4463 15.1556 13.3 14.388 13.3 13.5885C13.3 9.94933 16.2492 7.00012 19.8884 7.00012C20.4825 7.00012 21.0597 7.08101 21.6089 7.2298C22.2652 7.40759 22.4 8.21801 21.9199 8.69943L19.325 11.3011C18.9353 11.6918 18.9357 12.3242 19.3259 12.7144L21.0612 14.4497C21.4521 14.8406 22.0859 14.8402 22.4763 14.4487L24.9 12.0186C25.3995 11.5178 26.2438 11.6868 26.375 12.3818C26.4487 12.7719 26.4879 13.1748 26.4879 13.5885C26.4879 17.2277 23.5387 20.177 19.8995 20.177C19.1934 20.177 18.5121 20.0653 17.874 19.856C17.4837 19.7279 17.046 19.7976 16.7513 20.0839L10.8565 25.8122C10.4644 26.1932 9.83906 26.1887 9.45249 25.8021L7.71687 24.0665C7.32255 23.6722 7.32694 23.0316 7.72662 22.6427L13.477 17.0477Z" stroke="black" stroke-width="2.5" stroke-miterlimit="10" stroke-linejoin="round"/>
</svg>
