<svg width="27" height="28" viewBox="0 0 27 28" fill="none" xmlns="http://www.w3.org/2000/svg">
<path d="M2.48125 21.0008L13.0966 26.3085C13.3781 26.4493 13.7095 26.4493 13.991 26.3085L24.6064 21.0008C24.9452 20.8314 25.1592 20.4852 25.1592 20.1064V7.79119C25.1592 7.41242 24.9452 7.06616 24.6064 6.89677L13.991 1.58909C13.7095 1.44832 13.3781 1.44832 13.0966 1.58909L2.48125 6.89677C2.14247 7.06616 1.92847 7.41242 1.92847 7.79119V20.1064C1.92847 20.4852 2.14247 20.8314 2.48125 21.0008Z" stroke="black" stroke-width="2.5" stroke-linecap="round" stroke-linejoin="round"/>
<path d="M14.8159 19.1266C14.0029 19.5127 13.1079 19.7155 12.1994 19.7194C11.2909 19.7233 10.3928 19.5282 9.57377 19.149C8.75476 18.7698 8.03651 18.2166 7.47389 17.5316C6.91127 16.8466 6.51917 16.048 6.32754 15.1967C6.13592 14.3455 6.14985 13.4641 6.36826 12.62C6.58667 11.7759 7.00378 10.9913 7.58774 10.3263C8.17169 9.66129 8.90702 9.13339 9.73756 8.78295C10.5681 8.43251 11.4718 8.2688 12.3798 8.30432C13.2907 8.33833 14.1817 8.57333 14.9834 8.99101" stroke="black" stroke-width="2.4" stroke-linecap="round" stroke-linejoin="round"/>
<path d="M12.4448 13.9994L15.5845 13.9994" stroke="black" stroke-width="2.5" stroke-miterlimit="10" stroke-linecap="round"/>
<path d="M14.0148 12.4368L14.0148 15.5625" stroke="black" stroke-width="2.5" stroke-miterlimit="10" stroke-linecap="round"/>
<path d="M18.8886 13.9994L22.0283 13.9994" stroke="black" stroke-width="2.5" stroke-miterlimit="10" stroke-linecap="round"/>
<path d="M20.4586 12.4368L20.4586 15.5625" stroke="black" stroke-width="2.5" stroke-miterlimit="10" stroke-linecap="round"/>
</svg>
