<svg width="28" height="28" viewBox="0 0 28 28" fill="none" xmlns="http://www.w3.org/2000/svg">
<path d="M6 1.25732L6 8.72362M5.99997 26.7487L5.99997 19.2324" stroke="black" stroke-width="2.5" stroke-linecap="round" stroke-linejoin="round"/>
<path d="M21.8401 1.25732L21.8401 8.72362M21.8401 26.7487L21.8401 19.2324" stroke="black" stroke-width="2.5" stroke-linecap="round" stroke-linejoin="round"/>
<path d="M11.06 10.1001C11.06 9.54781 10.6123 9.1001 10.06 9.1001H2.26013C1.70785 9.1001 1.26013 9.54781 1.26013 10.1001V17.9C1.26013 18.4522 1.70785 18.8999 2.26013 18.8999H10.06C10.6123 18.8999 11.06 18.4522 11.06 17.8999V10.1001Z" stroke="black" stroke-width="2.5" stroke-linecap="round" stroke-linejoin="round"/>
<path d="M26.7399 10.1001C26.7399 9.54781 26.2922 9.1001 25.7399 9.1001H17.94C17.3877 9.1001 16.94 9.54781 16.94 10.1001V17.9C16.94 18.4523 17.3877 18.9 17.94 18.9H25.7399C26.2922 18.9 26.7399 18.4523 26.7399 17.9V10.1001Z" stroke="black" stroke-width="2.5" stroke-linecap="round" stroke-linejoin="round"/>
<path d="M11.0599 14L16.9401 14" stroke="black" stroke-width="2.5" stroke-linecap="round" stroke-linejoin="round"/>
</svg>
