<svg width="28" height="21" viewBox="0 0 28 21" fill="none" xmlns="http://www.w3.org/2000/svg">
<path d="M11.2308 13.3633L11.2308 19.0992H2L2 9.86841L8 9.86841" stroke="black" stroke-width="2.5" stroke-linecap="round" stroke-linejoin="round"/>
<path d="M20.5 9.86853L25.9998 9.86853V19.0993H16.769V13.8633" stroke="black" stroke-width="2.5" stroke-linecap="square" stroke-linejoin="round"/>
<path d="M11.2308 14.4836L16.7694 14.4836" stroke="black" stroke-width="2.5" stroke-linecap="round" stroke-linejoin="round"/>
<path d="M14.4286 14.2889C17.9791 14.2889 20.8573 11.4107 20.8573 7.86027C20.8573 4.30984 17.9791 1.43164 14.4286 1.43164C10.8782 1.43164 8 4.30984 8 7.86027C8 11.4107 10.8782 14.2889 14.4286 14.2889Z" fill="white" stroke="black" stroke-width="2.5" stroke-linecap="round" stroke-linejoin="round"/>
<path d="M12.0362 7.54041L13.9691 9.3458L17.5117 5.7627" fill="white"/>
<path d="M12.0362 7.54041L13.9691 9.3458L17.5117 5.7627" stroke="black" stroke-width="2.5" stroke-linecap="round" stroke-linejoin="round"/>
</svg>
