<svg width="28" height="28" viewBox="0 0 28 28" fill="none" xmlns="http://www.w3.org/2000/svg">
<g clip-path="url(#clip0_3_4764)">
<rect width="28" height="28" fill="white"/>
<path d="M6 1.25732L5.99999 9.05747M5.99997 26.7487L5.99998 18.9879" stroke="black" stroke-width="2.5" stroke-linecap="round" stroke-linejoin="round"/>
<path d="M21.8401 1.25732L21.8401 8.93334M21.8401 26.7487L21.8401 19.0291" stroke="black" stroke-width="2.5" stroke-linecap="round" stroke-linejoin="round"/>
<path d="M11.06 10.1001C11.06 9.54781 10.6123 9.1001 10.06 9.1001H2.26013C1.70785 9.1001 1.26013 9.54781 1.26013 10.1001V17.9C1.26013 18.4522 1.70785 18.8999 2.26013 18.8999H10.06C10.6123 18.8999 11.06 18.4522 11.06 17.8999V10.1001Z" stroke="black" stroke-width="2.5" stroke-linecap="round" stroke-linejoin="round"/>
<path d="M26.7399 10.1001C26.7399 9.54781 26.2922 9.1001 25.7399 9.1001H17.9401C17.3878 9.1001 16.9401 9.54781 16.9401 10.1001V17.9C16.9401 18.4523 17.3878 18.9 17.9401 18.9H25.7399C26.2922 18.9 26.7399 18.4523 26.7399 17.9V10.1001Z" stroke="black" stroke-width="2.5" stroke-linecap="round" stroke-linejoin="round"/>
<path d="M11.2805 14.0029L21.84 14.0029" stroke="black" stroke-width="2.5" stroke-linecap="round" stroke-linejoin="round"/>
</g>
<defs>
<clipPath id="clip0_3_4764">
<rect width="28" height="28" fill="white"/>
</clipPath>
</defs>
</svg>
