<svg width="28" height="28" viewBox="0 0 28 28" fill="none" xmlns="http://www.w3.org/2000/svg">
<path d="M1.99997 26L26.2441 26L26.2441 2L1.99997 2L1.99997 26Z" stroke="black" stroke-width="2.5" stroke-linecap="round" stroke-linejoin="round"/>
<path d="M26.2371 8.57922H2.00026" stroke="black" stroke-width="2.5" stroke-linecap="round" stroke-linejoin="round"/>
<path d="M9.32502 5.46778L9.30768 5.45044" stroke="black" stroke-width="2.5" stroke-miterlimit="10" stroke-linecap="round"/>
<path d="M5.50117 5.46778L5.48383 5.45044" stroke="black" stroke-width="2.5" stroke-miterlimit="10" stroke-linecap="round"/>
<path d="M10.2879 9.5L10.2879 8.25L7.7879 8.25L7.7879 9.5L10.2879 9.5ZM7.78789 25L7.78789 26.25L10.2879 26.25L10.2879 25L7.78789 25ZM7.7879 13.7851C7.7879 14.4754 8.34755 15.0351 9.0379 15.0351C9.72826 15.0351 10.2879 14.4754 10.2879 13.7851L7.7879 13.7851ZM10.2879 20.52C10.2879 19.8297 9.72824 19.27 9.03789 19.27C8.34753 19.27 7.78789 19.8297 7.78789 20.52L10.2879 20.52ZM7.7879 9.5L7.7879 13.7851L10.2879 13.7851L10.2879 9.5L7.7879 9.5ZM7.78789 20.52L7.78789 25L10.2879 25L10.2879 20.52L7.78789 20.52Z" fill="black"/>
<path d="M19.1895 10L19.1895 13.7851M19.1895 25L19.1895 20.52" stroke="black" stroke-width="2.5" stroke-linecap="square" stroke-linejoin="round"/>
<path d="M12.2806 15.0264C12.2806 14.4741 11.8329 14.0264 11.2806 14.0264H7C6.44772 14.0264 6 14.4741 6 15.0264V19.307C6 19.8593 6.44772 20.307 7 20.307H11.2806C11.8329 20.307 12.2806 19.8593 12.2806 19.307V15.0264Z" stroke="black" stroke-width="2.5" stroke-linecap="round" stroke-linejoin="round"/>
<path d="M22.3295 15.0264C22.3295 14.4741 21.8818 14.0264 21.3295 14.0264H17.0489C16.4966 14.0264 16.0489 14.4741 16.0489 15.0264V19.307C16.0489 19.8593 16.4966 20.307 17.0489 20.307H21.3295C21.8818 20.307 22.3295 19.8593 22.3295 19.307V15.0264Z" stroke="black" stroke-width="2.5" stroke-linecap="round" stroke-linejoin="round"/>
<path d="M12.2808 17.1667L16.0493 17.1667" stroke="black" stroke-width="2.5" stroke-linecap="round" stroke-linejoin="round"/>
</svg>
