<svg width="28" height="28" viewBox="0 0 28 28" fill="none" xmlns="http://www.w3.org/2000/svg">
<path d="M14 4L6 4" stroke="black" stroke-width="2.5" stroke-linecap="round"/>
<path d="M17.5976 5.59753L22.5161 10.5161" stroke="black" stroke-width="2.5" stroke-linecap="round"/>
<path d="M4 17L4 6" stroke="black" stroke-width="2.5" stroke-linecap="round"/>
<path d="M24 14L24 22" stroke="black" stroke-width="2.5" stroke-linecap="round"/>
<path d="M12.5837 12.5836L5.84316 5.84309" stroke="black" stroke-width="2.5" stroke-linecap="round"/>
<path d="M22.5171 22.5168L15.426 15.4258" stroke="black" stroke-width="2.5" stroke-linecap="round"/>
<path d="M16 13.6001L22 12.2264" stroke="black" stroke-width="2.5" stroke-linecap="round"/>
<path d="M14.4 12L15.5767 6.11652" stroke="black" stroke-width="2.5" stroke-linecap="round"/>
<path d="M6 18L12 15" stroke="black" stroke-width="2.5" stroke-linecap="round"/>
<path d="M5.84326 20L22 23.9999" stroke="black" stroke-width="2.5" stroke-linecap="round"/>
<rect x="2" y="2" width="4" height="4" rx="2" stroke="black" stroke-width="2.5" stroke-linecap="round"/>
<rect x="26" y="26" width="4" height="4" rx="2" transform="rotate(-180 26 26)" stroke="black" stroke-width="2.5" stroke-linecap="round"/>
<rect x="2" y="17" width="4" height="4" rx="2" stroke="black" stroke-width="2.5" stroke-linecap="round"/>
<rect x="26" y="14" width="4" height="4" rx="2" transform="rotate(-180 26 14)" stroke="black" stroke-width="2.5" stroke-linecap="round"/>
<rect x="14" y="2" width="4" height="4" rx="2" stroke="black" stroke-width="2.5" stroke-linecap="round"/>
<rect x="16" y="16" width="4" height="4" rx="2" transform="rotate(-180 16 16)" stroke="black" stroke-width="2.5" stroke-linecap="round"/>
</svg>
