<svg width="27" height="28" viewBox="0 0 27 28" fill="none" xmlns="http://www.w3.org/2000/svg">
<path d="M13.0528 19.1297C15.8142 19.1297 18.0528 16.89 18.0528 14.1273C18.0528 11.3646 15.8142 9.125 13.0528 9.125C10.2914 9.125 8.0528 11.3646 8.0528 14.1273C8.0528 16.89 10.2914 19.1297 13.0528 19.1297Z" fill="white" stroke="black" stroke-width="2.5" stroke-linecap="round" stroke-linejoin="round"/>
<path d="M13.0527 26.125L13.0527 23.125" stroke="black" stroke-width="2.5" stroke-linecap="round" stroke-linejoin="round"/>
<path d="M13.5381 5.125L13.5381 2.125" stroke="black" stroke-width="2.5" stroke-linecap="round" stroke-linejoin="round"/>
<path d="M1.05273 14.125L4.05273 14.125" stroke="black" stroke-width="2.5" stroke-linecap="round" stroke-linejoin="round"/>
<path d="M22.0527 14.125L25.0527 14.125" stroke="black" stroke-width="2.5" stroke-linecap="round" stroke-linejoin="round"/>
<path d="M4.56722 22.6103L6.68854 20.489" stroke="black" stroke-width="2.5" stroke-linecap="round" stroke-linejoin="round"/>
<path d="M19.9019 7.76115L22.0232 5.63983" stroke="black" stroke-width="2.5" stroke-linecap="round" stroke-linejoin="round"/>
<path d="M5.05281 5.63967L7.17413 7.76099" stroke="black" stroke-width="2.5" stroke-linecap="round" stroke-linejoin="round"/>
<path d="M19.4167 20.4888L21.538 22.6102" stroke="black" stroke-width="2.5" stroke-linecap="round" stroke-linejoin="round"/>
</svg>
