<svg width="29" height="30" viewBox="0 0 29 30" fill="none" xmlns="http://www.w3.org/2000/svg">
<path d="M22.4125 13.4391V16.8098C22.4125 19.5404 19.0921 21.445 14.9961 21.445C10.9001 21.445 7.57971 19.5404 7.57971 16.8098V13.4391M9.26586 9.25369L6.575 6.55469M20.5292 9.45673L23.4245 6.55469M20.4209 20.4608L23.4252 23.4653M9.61945 20.4143L6.49256 23.5484M22.4125 12.9422C22.4125 15.6729 19.0921 17.8865 14.9961 17.8865C10.9001 17.8865 7.57971 15.6729 7.57971 12.9422C7.57971 10.2116 10.9001 7.99799 14.9961 7.99799C19.0921 7.99799 22.4125 10.2116 22.4125 12.9422ZM7.19208 25.273C7.19208 26.6407 6.08514 27.7494 4.71967 27.7494C3.35419 27.7494 2.24725 26.6407 2.24725 25.273C2.24725 23.9054 3.35419 22.7966 4.71967 22.7966C6.08514 22.7966 7.19208 23.9054 7.19208 25.273ZM27.7353 25.3039C27.7353 26.6556 26.6413 27.7514 25.2917 27.7514C23.9422 27.7514 22.8482 26.6556 22.8482 25.3039C22.8482 23.9522 23.9422 22.8564 25.2917 22.8564C26.6413 22.8564 27.7353 23.9522 27.7353 25.3039ZM7.18646 4.71624C7.18646 6.08073 6.08209 7.18687 4.71979 7.18687C3.35749 7.18687 2.25313 6.08073 2.25313 4.71624C2.25313 3.35175 3.35749 2.24561 4.71979 2.24561C6.08209 2.24561 7.18646 3.35175 7.18646 4.71624ZM27.7449 4.69693C27.7449 6.05129 26.6487 7.14922 25.2965 7.14922C23.9443 7.14922 22.8482 6.05129 22.8482 4.69693C22.8482 3.34256 23.9443 2.24463 25.2965 2.24463C26.6487 2.24463 27.7449 3.34256 27.7449 4.69693Z" stroke="black" stroke-width="2.5" stroke-linecap="round" stroke-linejoin="round"/>
</svg>
