<svg width="29" height="29" viewBox="0 0 29 29" fill="none" xmlns="http://www.w3.org/2000/svg">
<path d="M4.7197 27.7494C6.08517 27.7494 7.19211 26.6407 7.19211 25.273C7.19211 23.9053 6.08517 22.7966 4.7197 22.7966C3.35422 22.7966 2.24728 23.9053 2.24728 25.273C2.24728 26.6407 3.35422 27.7494 4.7197 27.7494Z" stroke="black" stroke-width="2.5" stroke-linecap="round" stroke-linejoin="round"/>
<path d="M25.2918 27.7513C26.6413 27.7513 27.7353 26.6555 27.7353 25.3038C27.7353 23.9521 26.6413 22.8563 25.2918 22.8563C23.9422 22.8563 22.8482 23.9521 22.8482 25.3038C22.8482 26.6555 23.9422 27.7513 25.2918 27.7513Z" stroke="black" stroke-width="2.5" stroke-linecap="round" stroke-linejoin="round"/>
<path d="M4.71982 7.18687C6.08213 7.18687 7.18649 6.08073 7.18649 4.71624C7.18649 3.35175 6.08213 2.24561 4.71982 2.24561C3.35752 2.24561 2.25316 3.35175 2.25316 4.71624C2.25316 6.08073 3.35752 7.18687 4.71982 7.18687Z" stroke="black" stroke-width="2.5" stroke-linecap="round" stroke-linejoin="round"/>
<path d="M25.2965 7.14922C26.6487 7.14922 27.7449 6.05129 27.7449 4.69693C27.7449 3.34256 26.6487 2.24463 25.2965 2.24463C23.9444 2.24463 22.8482 3.34256 22.8482 4.69693C22.8482 6.05129 23.9444 7.14922 25.2965 7.14922Z" stroke="black" stroke-width="2.5" stroke-linecap="round" stroke-linejoin="round"/>
<path d="M9.26589 9.25369L6.57503 6.55469" stroke="black" stroke-width="2.5" stroke-linecap="round" stroke-linejoin="round"/>
<path d="M20.5292 9.45673L23.4246 6.55469" stroke="black" stroke-width="2.5" stroke-linecap="round" stroke-linejoin="round"/>
<path d="M20.4209 20.4608L23.4252 23.4653" stroke="black" stroke-width="2.5" stroke-linecap="round" stroke-linejoin="round"/>
<path d="M9.61948 20.4143L6.49259 23.5484" stroke="black" stroke-width="2.5" stroke-linecap="round" stroke-linejoin="round"/>
<path d="M14.9961 17.8866C19.0921 17.8866 22.4125 15.6729 22.4125 12.9423C22.4125 10.2117 19.0921 7.99805 14.9961 7.99805C10.9002 7.99805 7.57973 10.2117 7.57973 12.9423C7.57973 15.6729 10.9002 17.8866 14.9961 17.8866Z" stroke="black" stroke-width="2.5" stroke-linecap="round" stroke-linejoin="round"/>
<path d="M22.4125 13.4391V16.8098C22.4125 19.5404 19.0921 21.445 14.9961 21.445C10.9002 21.445 7.57973 19.5404 7.57973 16.8098V13.4391" stroke="black" stroke-width="2.5" stroke-linecap="round" stroke-linejoin="round"/>
</svg>
