<svg width="28" height="28" viewBox="0 0 28 28" fill="none" xmlns="http://www.w3.org/2000/svg">
<rect width="28" height="28" fill="white"/>
<path d="M12.0001 18.3224L6.23126 9.23669" stroke="black" stroke-width="2.5" stroke-linecap="round"/>
<path d="M16.0541 18.3225L21.7666 9.4263" stroke="black" stroke-width="2.5" stroke-linecap="round"/>
<path d="M14 9.42627L14 17.5857" stroke="black" stroke-width="2.5" stroke-linecap="round"/>
<path d="M14.0316 17.5858C15.657 17.5858 16.9746 18.9034 16.9746 20.5289C16.9746 22.1543 15.657 23.4719 14.0316 23.4719C12.4062 23.4719 11.0885 22.1543 11.0885 20.5289C11.0885 18.9034 12.4062 17.5858 14.0316 17.5858Z" stroke="black" stroke-width="2.5" stroke-linecap="round" stroke-linejoin="round"/>
<path d="M6.41003 4.52783H1.51148V9.42639H6.41003V4.52783Z" stroke="black" stroke-width="2.5" stroke-miterlimit="10" stroke-linecap="round" stroke-linejoin="round"/>
<path d="M16.481 4.52783H11.5824V9.42639H16.481V4.52783Z" stroke="black" stroke-width="2.5" stroke-miterlimit="10" stroke-linecap="round" stroke-linejoin="round"/>
<path d="M26.2722 4.52783H21.3737V9.42639H26.2722V4.52783Z" stroke="black" stroke-width="2.5" stroke-miterlimit="10" stroke-linecap="round" stroke-linejoin="round"/>
</svg>
