<svg width="29" height="23" viewBox="0 0 29 23" fill="none" xmlns="http://www.w3.org/2000/svg">
<path d="M12.4886 15.7946L6.71976 6.70892" stroke="black" stroke-width="2.5" stroke-linecap="round"/>
<path d="M16.5426 15.7947L22.2552 6.89847" stroke="black" stroke-width="2.5" stroke-linecap="round"/>
<path d="M14.4885 6.89844L14.4885 15.0579" stroke="black" stroke-width="2.5" stroke-linecap="round"/>
<path d="M14.5201 15.058C16.1455 15.058 17.4632 16.3756 17.4632 18.001C17.4632 19.6264 16.1455 20.9441 14.5201 20.9441C12.8947 20.9441 11.577 19.6264 11.577 18.001C11.577 16.3756 12.8947 15.058 14.5201 15.058Z" stroke="black" stroke-width="2.5" stroke-linecap="round" stroke-linejoin="round"/>
<path d="M6.89856 2L2 2V6.89856H6.89856V2Z" stroke="black" stroke-width="2.5" stroke-miterlimit="10" stroke-linecap="round" stroke-linejoin="round"/>
<path d="M16.9695 2L12.0709 2V6.89856H16.9695V2Z" stroke="black" stroke-width="2.5" stroke-miterlimit="10" stroke-linecap="round" stroke-linejoin="round"/>
<path d="M26.7607 2L21.8622 2V6.89856H26.7607V2Z" stroke="black" stroke-width="2.5" stroke-miterlimit="10" stroke-linecap="round" stroke-linejoin="round"/>
</svg>
