<svg width="28" height="28" viewBox="0 0 28 28" fill="none" xmlns="http://www.w3.org/2000/svg">
<path d="M5.55294 18.6579L5.55294 14.3333L22.8583 14.3333L22.8583 18.7697" stroke="black" stroke-width="2.5" stroke-linecap="round" stroke-linejoin="round"/>
<path d="M14.3043 9.23041L14.3043 13.9999" stroke="black" stroke-width="2.5" stroke-linecap="round"/>
<path d="M1.84636 22.6289C1.84636 24.7605 3.5743 26.4884 5.70582 26.4884C7.83734 26.4884 9.56528 24.7605 9.56528 22.6289C9.56528 20.4974 7.83734 18.7695 5.70582 18.7695C3.5743 18.7695 1.84636 20.4974 1.84636 22.6289Z" stroke="black" stroke-width="2.5" stroke-linecap="round" stroke-linejoin="round"/>
<path d="M18.9988 22.6289C18.9988 24.7605 20.7268 26.4884 22.8583 26.4884C24.9898 26.4884 26.7178 24.7605 26.7178 22.6289C26.7178 20.4974 24.9898 18.7695 22.8583 18.7695C20.7268 18.7695 18.9988 20.4974 18.9988 22.6289Z" stroke="black" stroke-width="2.5" stroke-linecap="round" stroke-linejoin="round"/>
<path d="M10.4449 5.37112C10.4449 7.50265 12.1729 9.23059 14.3044 9.23059C16.4359 9.23059 18.1638 7.50265 18.1638 5.37112C18.1638 3.2396 16.4359 1.51166 14.3044 1.51166C12.1729 1.51166 10.4449 3.2396 10.4449 5.37112Z" stroke="black" stroke-width="2.5" stroke-linecap="round" stroke-linejoin="round"/>
</svg>
