<svg width="28" height="28" viewBox="0 0 28 28" fill="none" xmlns="http://www.w3.org/2000/svg">
<path d="M18.7143 23L26 16.5714L17.7827 17.0116M4.14286 6.28571L17.4286 2L2 17.8571L7.15792 17.5808" stroke="black" stroke-width="2.5" stroke-linecap="round" stroke-linejoin="round"/>
<path d="M16.468 8.45239C17.7918 7.12858 19.9381 7.12858 21.2619 8.45239C22.5857 9.7762 22.5857 11.9225 21.2619 13.2463L11.1359 23.3723L4.82555 24.8887L6.342 18.5784L16.468 8.45239Z" fill="white"/>
<path d="M20.2346 14.2736L15.4407 9.47968M11.1359 23.3723L21.2619 13.2463C22.5857 11.9225 22.5857 9.7762 21.2619 8.45239V8.45239C19.9381 7.12858 17.7918 7.12858 16.468 8.45239L6.342 18.5784L4.82555 24.8887L11.1359 23.3723Z" stroke="black" stroke-width="2.5" stroke-linejoin="round"/>
</svg>
