<svg width="32" height="32" viewBox="0 0 32 32" fill="none" xmlns="http://www.w3.org/2000/svg">
<path d="M21.4824 26.6191L29.9824 19.1191L1.98242 20.6191L19.9824 2.11914L4.48242 7.11914" stroke="black" stroke-width="2.5" stroke-linecap="round" stroke-linejoin="round"/>
<path d="M18.8617 9.64692C20.4061 8.10248 22.9102 8.10248 24.4546 9.64693C25.999 11.1914 25.999 13.6954 24.4546 15.2399L12.641 27.0535L5.27887 28.8227L7.04806 21.4606L18.8617 9.64692Z" fill="white"/>
<path d="M23.2561 16.4384L17.6632 10.8454M12.641 27.0535L24.4546 15.2399C25.999 13.6954 25.999 11.1914 24.4546 9.64693V9.64693C22.9102 8.10248 20.4061 8.10248 18.8617 9.64692L7.04806 21.4606L5.27887 28.8227L12.641 27.0535Z" stroke="black" stroke-width="2.5" stroke-linejoin="round"/>
</svg>
