<svg width="28" height="28" viewBox="0 0 28 28" fill="none" xmlns="http://www.w3.org/2000/svg">
<path d="M22.3374 21.1898C23.5011 19.5176 24.3292 17.2955 24.3292 15.1034C24.3292 14.9693 24.3266 14.8358 24.3216 14.7029M5.36397 9.43746C6.7065 7.39025 8.84882 5.84115 11.2533 5.14891M5.62768 21.1565C4.3986 19.4427 3.7357 16.9969 3.7357 14.736M9.88268 24.5831C11.1441 25.1321 12.5364 25.4366 13.9998 25.4366C15.4366 25.4366 16.8049 25.1431 18.0481 24.6128M16.7472 5.15009C19.1487 5.84145 21.3016 7.40211 22.6444 9.44547M16.7697 4.77028C16.7697 6.30026 15.5299 7.54055 14.0005 7.54055C12.471 7.54055 11.2312 6.30026 11.2312 4.77028C11.2312 3.24029 12.471 2 14.0005 2C15.5299 2 16.7697 3.24029 16.7697 4.77028ZM10.2428 23.2201C10.2428 24.7501 9.00297 25.9903 7.47355 25.9903C5.94412 25.9903 4.70428 24.7501 4.70428 23.2201C4.70428 21.6901 5.94412 20.4498 7.47355 20.4498C9.00297 20.4498 10.2428 21.6901 10.2428 23.2201ZM7.53854 12.1576C7.53854 13.6876 6.29869 14.9279 4.76927 14.9279C3.23984 14.9279 2 13.6876 2 12.1576C2 10.6277 3.23984 9.38736 4.76927 9.38736C6.29869 9.38736 7.53854 10.6277 7.53854 12.1576ZM26 12.1576C26 13.6876 24.7602 14.9279 23.2308 14.9279C21.7013 14.9279 20.4615 13.6876 20.4615 12.1576C20.4615 10.6277 21.7013 9.38736 23.2308 9.38736C24.7602 9.38736 26 10.6277 26 12.1576ZM23.2222 23.2297C23.2222 24.7597 21.9823 26 20.4529 26C18.9235 26 17.6836 24.7597 17.6836 23.2297C17.6836 21.6997 18.9235 20.4594 20.4529 20.4594C21.9823 20.4594 23.2222 21.6997 23.2222 23.2297Z" stroke="black" stroke-width="2.5" stroke-linecap="round" stroke-linejoin="round"/>
</svg>
