<svg width="28" height="22" viewBox="0 0 28 22" fill="none" xmlns="http://www.w3.org/2000/svg">
<path d="M21.182 5.77164C20.2215 4.47849 18.9257 3.46269 17.4263 2.83979C15.6073 2.08408 13.5899 1.94877 11.6863 2.4548C9.78259 2.96083 8.09869 4.07999 6.89499 5.63919C5.69129 7.19839 5.03486 9.11076 5.02722 11.0805L5.08337 11.9644M8.45708 9.32788L5.1379 12.7374L1.72839 9.4182" stroke="black" stroke-width="2.5" stroke-linecap="round" stroke-linejoin="round" data-nofill="true"/>
<path d="M6.78601 16.3839C7.73403 17.6646 9.01094 18.6752 10.4902 19.3024C12.3113 20.0746 14.3367 20.2226 16.2506 19.7233C18.1646 19.224 19.8596 18.1055 21.0714 16.5421C22.2831 14.9787 22.9436 13.0583 22.9498 11.0803L22.9047 10.2071M19.5096 12.7431L22.84 9.40918L26.2383 12.6764" stroke="black" stroke-width="2.5" stroke-linecap="round" stroke-linejoin="round" data-nofill="true"/>
<path d="M13.8499 7.22461L12.6312 11.0837H15.5425L14.1884 14.9428" stroke="black" stroke-width="2.5" stroke-linecap="round" stroke-linejoin="round" data-nofill="true"/>
</svg>
