<svg width="25" height="27" viewBox="0 0 25 27" fill="none" xmlns="http://www.w3.org/2000/svg">
<path d="M14.5428 24.7709V18.2742H9.90234V24.7709" stroke="black" stroke-width="2.5" stroke-linecap="round" stroke-linejoin="round"/>
<path d="M1.54956 25.5681L22.8959 25.5681" stroke="black" stroke-width="2.5" stroke-linecap="round"/>
<path d="M19.7057 1.56836L20.9557 1.56836C20.9557 0.878003 20.3961 0.318359 19.7057 0.318359L19.7057 1.56836ZM18.4557 25.5683C18.4557 26.2586 19.0154 26.8183 19.7057 26.8183C20.3961 26.8183 20.9557 26.2586 20.9557 25.5683L18.4557 25.5683ZM4.79767 1.56836L4.79767 0.318359C4.10731 0.318359 3.54767 0.878003 3.54767 1.56836L4.79767 1.56836ZM3.54767 25.5683L3.54767 26.8183L6.04767 26.8183L6.04767 25.5683L3.54767 25.5683ZM18.4557 1.56836L18.4557 25.5683L20.9557 25.5683L20.9557 1.56836L18.4557 1.56836ZM19.7057 0.318359L4.79767 0.318359L4.79767 2.81836L19.7057 2.81836L19.7057 0.318359ZM3.54767 1.56836L3.54767 25.5683L6.04767 25.5683L6.04767 1.56836L3.54767 1.56836Z" fill="black"/>
</svg>
