<svg width="24" height="28" viewBox="0 0 24 28" fill="none" xmlns="http://www.w3.org/2000/svg">
<path d="M9.46077 10.3416L8.43902 9.15876C6.80768 7.2703 6.93658 4.43617 8.7326 2.70359C10.5535 0.947027 13.4381 0.947026 15.259 2.70358C17.055 4.43617 17.1839 7.2703 15.5526 9.15876L14.5311 10.3412C13.9972 10.9592 14.1769 11.9132 14.899 12.2947L16.6894 13.2405C20.2314 15.1118 22.4476 18.789 22.4476 22.795L22.4476 23.1193H16.7335V26.5557H6.44863L6.44863 23.1193H1.55244L1.55244 22.7895C1.55239 18.7864 3.76627 15.1115 7.30518 13.2403L9.09325 12.2949C9.8151 11.9133 9.99455 10.9595 9.46077 10.3416Z" fill="white" stroke="black" stroke-width="2.5" stroke-linecap="round" stroke-linejoin="round"/>
</svg>
