<svg width="28" height="28" viewBox="0 0 28 28" fill="none" xmlns="http://www.w3.org/2000/svg">
<path d="M18.6289 26V27.25C18.9509 27.25 19.2606 27.1257 19.4932 26.903L18.6289 26ZM2 26H0.75C0.75 26.6904 1.30964 27.25 2 27.25L2 26ZM2 3.88454V2.63454C1.30964 2.63454 0.75 3.19418 0.75 3.88454H2ZM26 3.88454H27.25C27.25 3.19418 26.6904 2.63454 26 2.63454V3.88454ZM26 18.9448L26.8643 19.8478C27.1107 19.612 27.25 19.2858 27.25 18.9448H26ZM10.6734 2C10.6734 1.30964 10.1137 0.75 9.42337 0.75C8.73301 0.75 8.17337 1.30964 8.17337 2H10.6734ZM19.8264 2.00007C19.8264 1.30972 19.2668 0.750072 18.5764 0.750072C17.886 0.750072 17.3264 1.30972 17.3264 2.00007H19.8264ZM2.10099 10.0001H0.850988V12.5001H2.10099V10.0001ZM26 12.5001H27.25V10.0001H26V12.5001ZM18.4785 18.4537V17.2037C17.7881 17.2037 17.2285 17.7634 17.2285 18.4537H18.4785ZM18.6289 24.75H2V27.25H18.6289V24.75ZM3.25 26V3.88454H0.75V26H3.25ZM2 5.13454H26V2.63454H2V5.13454ZM24.75 3.88454V18.9448H27.25V3.88454H24.75ZM25.1357 18.0418L17.7646 25.097L19.4932 26.903L26.8643 19.8478L25.1357 18.0418ZM10.6734 6.34171V2H8.17337V6.34171H10.6734ZM19.8264 6.34178V2.00007H17.3264V6.34178H19.8264ZM2.10099 12.5001H26V10.0001H2.10099V12.5001ZM19.7285 25.2163V18.4537H17.2285V25.2163H19.7285ZM18.4785 19.7037H25.6593V17.2037H18.4785V19.7037Z" fill="black"/>
</svg>
