<svg width="28" height="28" viewBox="0 0 28 28" fill="none" xmlns="http://www.w3.org/2000/svg">

<path d="M2 20.5V26H26V20.5" stroke="black" stroke-width="2.5" stroke-linecap="round" stroke-linejoin="round"/>
<circle cx="14" cy="12.5" r="8" stroke="black" stroke-width="2.5"/>
<path d="M15.7943 9.02173H13.4727C13.0158 9.02295 12.578 9.20545 12.2551 9.52928C11.9322 9.85311 11.7506 10.2919 11.75 10.7495V10.7703C11.7506 11.228 11.9322 11.6667 12.2551 11.9906C12.578 12.3144 13.0158 12.4969 13.4727 12.4981H14.6243C14.8514 12.4972 15.0765 12.5412 15.2866 12.6277C15.4967 12.7141 15.6876 12.8412 15.8486 13.0017C16.0095 13.1623 16.1372 13.3531 16.2243 13.5631C16.3114 13.7732 16.3563 13.9985 16.3563 14.2259C16.3569 14.4536 16.3125 14.6792 16.2258 14.8896C16.1391 15.1001 16.0117 15.2913 15.851 15.4523C15.6903 15.6133 15.4994 15.7409 15.2892 15.8277C15.0791 15.9146 14.8539 15.959 14.6266 15.9584H12.1093" stroke="black" stroke-width="2.5" stroke-linecap="round" stroke-linejoin="round"/>
<path d="M14.0488 8.97497V7.74438" stroke="black" stroke-width="2.5" stroke-linecap="round" stroke-linejoin="round"/>
<path d="M14.0488 17.2555V16.1204" stroke="black" stroke-width="2.5" stroke-linecap="round" stroke-linejoin="round"/>
</svg>
