<svg width="28" height="27" viewBox="0 0 28 27" fill="none" xmlns="http://www.w3.org/2000/svg">
<path d="M9.44242 5.81954H1.99414V13.2678H3.64931C5.0205 13.2678 6.13208 14.3794 6.13208 15.7506C6.13208 17.1218 5.0205 18.2333 3.64931 18.2333H1.99414V25.6816H9.44242V24.0264C9.44242 22.6552 10.554 21.5437 11.9252 21.5437C13.2964 21.5437 14.4079 22.6552 14.4079 24.0264V25.6816H21.8562V17.4057H23.5114C24.8826 17.4057 25.9941 16.2943 25.9941 14.9231C25.9941 13.5519 24.8826 12.4402 23.5114 12.4402H21.8562V5.81954H14.4079V4.16437C14.4079 2.79318 13.2964 1.68164 11.9252 1.68164C10.554 1.68164 9.44242 2.79318 9.44242 4.16437V5.81954Z" stroke="black" stroke-width="2.5" stroke-linecap="square" stroke-linejoin="round"/>
</svg>
