<svg width="28" height="27" viewBox="0 0 28 27" fill="none" xmlns="http://www.w3.org/2000/svg">
<path d="M26.7473 4.79158L16.7899 4.79158M16.3153 20.6817L19.2971 16.4914M11.6846 20.6817L8.90556 16.6987M8.90556 11.3179L11.5035 7.70574" stroke="black" stroke-width="2.5" stroke-miterlimit="10" stroke-linecap="round" stroke-linejoin="round"/>
<path d="M26.7467 13.9997L24.0864 13.9997M1.24951 13.9996L4.03002 13.9996M10.3737 13.9997L17.9075 13.9997" stroke="black" stroke-width="2.5" stroke-miterlimit="10" stroke-linecap="round" stroke-linejoin="round"/>
<path d="M16.5972 2.25122L11.4028 2.25122L11.4028 7.42509L16.5972 7.42509L16.5972 2.25122Z" stroke="black" stroke-width="2.5" stroke-linecap="round" stroke-linejoin="round"/>
<path d="M11.0569 22.8032C11.0569 24.4286 12.3745 25.7462 14 25.7462C15.6254 25.7462 16.943 24.4286 16.943 22.8032C16.943 21.1778 15.6254 19.8601 14 19.8601C12.3745 19.8601 11.0569 21.1778 11.0569 22.8032Z" stroke="black" stroke-width="2.5" stroke-linecap="round" stroke-linejoin="round"/>
<path d="M18.0601 14C18.0601 15.6254 19.3777 16.943 21.0031 16.943C22.6285 16.943 23.9462 15.6254 23.9462 14C23.9462 12.3745 22.6285 11.0569 21.0031 11.0569C19.3777 11.0569 18.0601 12.3745 18.0601 14Z" stroke="black" stroke-width="2.5" stroke-linecap="round" stroke-linejoin="round"/>
<path d="M4.06006 14C4.06006 15.6254 5.37772 16.943 7.00313 16.943C8.62854 16.943 9.9462 15.6254 9.9462 14C9.9462 12.3745 8.62854 11.0569 7.00313 11.0569C5.37772 11.0569 4.06006 12.3745 4.06006 14Z" stroke="black" stroke-width="2.5" stroke-linecap="round" stroke-linejoin="round"/>
</svg>
