<svg width="28" height="27" viewBox="0 0 28 27" fill="none" xmlns="http://www.w3.org/2000/svg">
<path d="M25.5743 5.69975L16.368 5.69975M15.9292 20.3911L18.6861 16.517M11.6479 20.3911L9.07848 16.7086M9.07848 11.7338L11.4805 8.39406" stroke="black" stroke-width="2.5" stroke-miterlimit="10" stroke-linecap="round" stroke-linejoin="round"/>
<path d="M25.5737 14.2132L23.1141 14.2132M2 14.2131L4.57076 14.2131M10.4359 14.2132L17.4014 14.2132" stroke="black" stroke-width="2.5" stroke-miterlimit="10" stroke-linecap="round" stroke-linejoin="round"/>
<path d="M16.1899 3.35102L11.3874 3.35102L11.3874 8.13458L16.1899 8.13458L16.1899 3.35102Z" stroke="black" stroke-width="2.5" stroke-linecap="round" stroke-linejoin="round"/>
<path d="M11.0675 22.3526C11.0675 23.8554 12.2858 25.0736 13.7886 25.0736C15.2914 25.0736 16.5096 23.8554 16.5096 22.3526C16.5096 20.8498 15.2914 19.6315 13.7886 19.6315C12.2858 19.6315 11.0675 20.8498 11.0675 22.3526Z" stroke="black" stroke-width="2.5" stroke-linecap="round" stroke-linejoin="round"/>
<path d="M17.5424 14.2134C17.5424 15.7162 18.7606 16.9345 20.2634 16.9345C21.7662 16.9345 22.9845 15.7162 22.9845 14.2134C22.9845 12.7107 21.7662 11.4924 20.2634 11.4924C18.7606 11.4924 17.5424 12.7107 17.5424 14.2134Z" stroke="black" stroke-width="2.5" stroke-linecap="round" stroke-linejoin="round"/>
<path d="M4.59853 14.2134C4.59853 15.7162 5.81678 16.9345 7.31957 16.9345C8.82236 16.9345 10.0406 15.7162 10.0406 14.2134C10.0406 12.7107 8.82236 11.4924 7.31957 11.4924C5.81678 11.4924 4.59853 12.7107 4.59853 14.2134Z" stroke="black" stroke-width="2.5" stroke-linecap="round" stroke-linejoin="round"/>
</svg>
