<svg width="28" height="28" viewBox="0 0 28 28" fill="none" xmlns="http://www.w3.org/2000/svg">
<g clip-path="url(#clip0_3_4656)">
<rect width="28" height="28" fill="white"/>
<path d="M26.7473 4.79152L16.7899 4.79152M16.3153 20.6816L19.2971 16.4914M11.6846 20.6816L8.90558 16.6986M8.90558 11.3179L11.5036 7.70568" stroke="black" stroke-width="2.5" stroke-miterlimit="10" stroke-linecap="round" stroke-linejoin="round"/>
<path d="M26.7467 13.9996L24.0864 13.9996M1.24953 13.9995L4.03004 13.9995M10.3737 13.9996L17.9075 13.9996" stroke="black" stroke-width="2.5" stroke-miterlimit="10" stroke-linecap="round" stroke-linejoin="round"/>
<path d="M16.5972 2.2511L11.4028 2.2511L11.4028 7.42497L16.5972 7.42497L16.5972 2.2511Z" stroke="black" stroke-width="2.5" stroke-linecap="round" stroke-linejoin="round"/>
<path d="M11.0569 22.8031C11.0569 24.4285 12.3745 25.7461 13.9999 25.7461C15.6253 25.7461 16.943 24.4285 16.943 22.8031C16.943 21.1776 15.6253 19.86 13.9999 19.86C12.3745 19.86 11.0569 21.1776 11.0569 22.8031Z" stroke="black" stroke-width="2.5" stroke-linecap="round" stroke-linejoin="round"/>
<path d="M18.06 13.9998C18.06 15.6252 19.3777 16.9429 21.0031 16.9429C22.6285 16.9429 23.9462 15.6252 23.9462 13.9998C23.9462 12.3744 22.6285 11.0568 21.0031 11.0568C19.3777 11.0568 18.06 12.3744 18.06 13.9998Z" stroke="black" stroke-width="2.5" stroke-linecap="round" stroke-linejoin="round"/>
<path d="M4.06003 13.9998C4.06003 15.6252 5.37769 16.9429 7.0031 16.9429C8.62851 16.9429 9.94617 15.6252 9.94617 13.9998C9.94617 12.3744 8.62851 11.0568 7.0031 11.0568C5.37769 11.0568 4.06003 12.3744 4.06003 13.9998Z" stroke="black" stroke-width="2.5" stroke-linecap="round" stroke-linejoin="round"/>
</g>
<defs>
<clipPath id="clip0_3_4656">
<rect width="28" height="28" fill="white"/>
</clipPath>
</defs>
</svg>
