<svg width="28" height="21" viewBox="0 0 28 21" fill="none" xmlns="http://www.w3.org/2000/svg">
<path d="M10.2107 5.03351C7.14246 5.03351 4.65515 7.52082 4.65515 10.5891C4.65515 13.1173 6.34402 15.2512 8.65515 15.9239" stroke="black" stroke-width="2.5" stroke-linecap="round" stroke-linejoin="round"/>
<path d="M18.8773 5.03349V1.68164C16.4885 1.68164 14.5255 2.18164 14.5255 5.03349H10.2106" stroke="black" stroke-width="2.5" stroke-linecap="round" stroke-linejoin="round"/>
<path d="M4.65495 10.8113C3.18219 10.8113 1.98828 9.61737 1.98828 8.14461" stroke="black" stroke-width="2.5" stroke-linecap="round" stroke-linejoin="round"/>
<path d="M17.7475 16.1446L12.266 16.1446M18.8772 5.1042C21.0063 5.4466 22.7309 6.99891 23.3231 9.03348M22.9786 13.0335C22.5749 13.8561 22.0583 14.5015 21.3216 15.0335" stroke="black" stroke-width="2.5" stroke-linecap="round" stroke-linejoin="round"/>
<path d="M8.65497 16.1446V18.8113H12.229V16.1446" stroke="black" stroke-width="2.5" stroke-linecap="round" stroke-linejoin="round"/>
<path d="M17.7475 16.1446V18.8113H21.3216V15.0335" stroke="black" stroke-width="2.5" stroke-linecap="round" stroke-linejoin="round"/>
<path d="M23.0992 13.0335L25.9881 13.0335L25.9881 9.03351L23.3214 9.03351" stroke="black" stroke-width="2.5" stroke-linecap="round" stroke-linejoin="round"/>
<path d="M9.9884 8.68164H13.9884" stroke="black" stroke-width="2.5" stroke-linecap="round" stroke-linejoin="round"/>
<path d="M18.9883 8.68157L19.0064 8.69971" stroke="black" stroke-width="2.5" stroke-miterlimit="10" stroke-linecap="round"/>
</svg>
