<svg width="27" height="26" viewBox="0 0 27 26" fill="none" xmlns="http://www.w3.org/2000/svg">
<path d="M19.5727 23.5677C19.5727 21.4935 18.1899 19.6742 16.1921 19.1187L15.462 18.9154C14.9432 18.7715 14.7458 18.1407 15.09 17.727L15.6287 17.0793C16.5482 15.9742 16.4748 14.3504 15.459 13.3326C14.3718 12.2435 12.6062 12.2435 11.519 13.3326C10.5032 14.3504 10.4298 15.9742 11.3493 17.0793L11.888 17.727C12.2322 18.1407 12.0358 18.7715 11.517 18.9154L10.7889 19.1177C8.79206 19.6732 7.41125 21.4915 7.41125 23.5637" stroke="black" stroke-width="2.5" stroke-linecap="round" stroke-linejoin="round"/>
<path d="M1.99414 24.441L24.9782 24.441" stroke="black" stroke-width="2.5" stroke-linecap="round"/>
<path d="M7.75599 9.77105H2.12681C2.0624 9.77105 2.01019 9.71884 2.01019 9.65443C2.01019 9.61607 2.02906 9.58016 2.06066 9.55839L12.9262 2.07443C13.2692 1.83813 13.7229 1.83926 14.0647 2.07726L24.9703 9.66902C24.9854 9.6795 24.9943 9.69667 24.9943 9.71501C24.9943 9.74596 24.9692 9.77105 24.9383 9.77105H19.223H7.75599Z" stroke="black" stroke-width="2.5" stroke-linecap="round" stroke-linejoin="round"/>
<path d="M6.69226 9.771L6.69226 8.521L4.19226 8.521L4.19226 9.771L6.69226 9.771ZM4.19226 24.441C4.19226 25.1314 4.75191 25.691 5.44226 25.691C6.13262 25.691 6.69226 25.1314 6.69226 24.441L4.19226 24.441ZM4.19226 9.771L4.19226 24.441L6.69226 24.441L6.69226 9.771L4.19226 9.771Z" fill="black"/>
<path d="M22.7935 9.771L22.7935 8.521L20.2935 8.521L20.2935 9.771L22.7935 9.771ZM20.2935 24.441C20.2935 25.1314 20.8532 25.691 21.5435 25.691C22.2339 25.691 22.7935 25.1314 22.7935 24.441L20.2935 24.441ZM20.2935 9.771L20.2935 24.441L22.7935 24.441L22.7935 9.771L20.2935 9.771Z" fill="black"/>
</svg>
