<svg width="28" height="27" viewBox="0 0 28 27" fill="none" xmlns="http://www.w3.org/2000/svg">
<path d="M2 25.749L25.9834 25.749" stroke="black" stroke-width="2.5" stroke-linecap="round" stroke-linejoin="round"/>
<path d="M5.59839 10.4411L5.59839 25.749" stroke="black" stroke-width="2.5" stroke-linecap="round" stroke-linejoin="round"/>
<path d="M22.3994 10.4411L22.3994 25.749" stroke="black" stroke-width="2.5" stroke-linecap="round" stroke-linejoin="round"/>
<path d="M8.01234 10.4411H2.01672V10.2555L14.0024 2L26.0002 10.3521V10.4411H19.9779H8.01234Z" stroke="black" stroke-width="2.5" stroke-linecap="round" stroke-linejoin="round"/>
<path d="M20.1614 25.0519C20.1614 22.9777 18.7786 21.1585 16.7808 20.603L16.0508 20.3996C15.532 20.2558 15.3346 19.6249 15.6788 19.2113L16.2174 18.5635C17.1369 17.4585 17.0635 15.8346 16.0478 14.8169C14.9606 13.7277 13.1949 13.7277 12.1077 14.8169C11.0919 15.8346 11.0185 17.4585 11.9381 18.5635L12.4767 19.2113C12.8209 19.6249 12.6245 20.2558 12.1057 20.3996L11.3776 20.602C9.38081 21.1575 8 22.9758 8 25.048" stroke="black" stroke-width="2.5" stroke-linecap="round" stroke-linejoin="round"/>
</svg>
