<svg width="29" height="29" viewBox="0 0 29 29" fill="none" xmlns="http://www.w3.org/2000/svg">
<path d="M6.35479 19.6603H12.0116M9.18292 16.8318V22.4886M18.7461 21.3093H18.7569M21.9912 21.3093H22.002M18.7461 18.011H18.7569M21.9805 18.011H21.9913M14.7473 2V12.2818M7.48961 27.1262C4.60765 26.4412 2 24.1231 2 19.8135C2 15.654 4.43689 12.282 9.36148 12.282H20.0844C24.4203 12.282 27.4459 15.654 27.4459 19.8135C27.4459 24.1231 24.8383 26.4412 21.9563 27.1262C20.7438 27.4144 19.4937 27.0921 18.3481 26.6014C16.0331 25.6098 13.4129 25.6098 11.0978 26.6014C9.95217 27.0921 8.7021 27.4144 7.48961 27.1262Z" stroke="black" stroke-width="2.5" stroke-linecap="round" stroke-linejoin="round"/>
</svg>
