<svg width="28" height="27" viewBox="0 0 28 27" fill="none" xmlns="http://www.w3.org/2000/svg">
<path d="M10.8229 2L10.8229 0.75L10.8229 2ZM10.8229 8.23954V9.48954V8.23954ZM17.1283 2V0.75V2ZM20.281 5.11977L21.531 5.11977L20.281 5.11977ZM17.1283 8.23954V9.48954V8.23954ZM3.84618 25.0378H2.59618C2.59618 25.7282 3.15582 26.2878 3.84618 26.2878V25.0378ZM24.1539 25.0378V26.2878C24.8442 26.2878 25.4039 25.7282 25.4039 25.0378H24.1539ZM3.84618 13.8245V12.5745H2.59618V13.8245H3.84618ZM24.1539 13.8245H25.4039V12.5745H24.1539V13.8245ZM26 8.23946H27.25C27.25 7.54911 26.6904 6.98946 26 6.98946V8.23946ZM2 8.23946V6.98946C1.30964 6.98946 0.75 7.54911 0.75 8.23946H2ZM2 13.8389H0.75C0.75 14.5293 1.30964 15.0889 2 15.0889L2 13.8389ZM26 13.8389V15.0889C26.6904 15.0889 27.25 14.5293 27.25 13.8389H26ZM10.8229 3.25C11.3318 3.25 11.8172 3.45015 12.173 3.80228L13.9315 2.02524C13.1048 1.20723 11.9864 0.75 10.8229 0.75L10.8229 3.25ZM12.173 3.80228C12.5284 4.15396 12.7256 4.62814 12.7256 5.11977H15.2256C15.2256 3.95657 14.7586 2.8437 13.9315 2.02524L12.173 3.80228ZM12.7256 5.11977V8.23954H15.2256V5.11977H12.7256ZM13.9756 6.98954H10.8229V9.48954H13.9756V6.98954ZM10.8229 6.98954C10.3141 6.98954 9.82866 6.78939 9.47281 6.43727L7.71436 8.2143C8.54102 9.03231 9.65944 9.48954 10.8229 9.48954L10.8229 6.98954ZM9.47281 6.43727C9.11741 6.08558 8.92017 5.6114 8.92017 5.11977H6.42017C6.42017 6.28297 6.88726 7.39584 7.71436 8.2143L9.47281 6.43727ZM8.92017 5.11977C8.92017 4.62814 9.11741 4.15396 9.47281 3.80228L7.71436 2.02524C6.88726 2.8437 6.42017 3.95657 6.42017 5.11977H8.92017ZM9.47281 3.80228C9.82866 3.45015 10.3141 3.25 10.8229 3.25L10.8229 0.75C9.65944 0.75 8.54102 1.20723 7.71436 2.02524L9.47281 3.80228ZM17.1283 3.25C17.6371 3.25 18.1225 3.45015 18.4784 3.80228L20.2368 2.02524C19.4102 1.20723 18.2918 0.75 17.1283 0.75V3.25ZM18.4784 3.80228C18.8338 4.15396 19.031 4.62814 19.031 5.11977L21.531 5.11977C21.531 3.95657 21.0639 2.8437 20.2368 2.02524L18.4784 3.80228ZM19.031 5.11977C19.031 5.6114 18.8338 6.08558 18.4784 6.43727L20.2368 8.2143C21.0639 7.39584 21.531 6.28297 21.531 5.11977L19.031 5.11977ZM18.4784 6.43727C18.1225 6.78939 17.6371 6.98954 17.1283 6.98954V9.48954C18.2918 9.48954 19.4102 9.03232 20.2368 8.2143L18.4784 6.43727ZM17.1283 6.98954H13.9756V9.48954H17.1283V6.98954ZM15.2256 5.11977C15.2256 4.62806 15.4229 4.15391 15.7782 3.80228L14.0198 2.02524C13.1926 2.84376 12.7256 3.95665 12.7256 5.11977H15.2256ZM15.7782 3.80228C16.134 3.45015 16.6194 3.25 17.1283 3.25V0.75C15.9648 0.75 14.8464 1.20723 14.0198 2.02524L15.7782 3.80228ZM3.84618 26.2878H24.1539V23.7878H3.84618V26.2878ZM3.84618 15.0745H24.1539V12.5745H3.84618V15.0745ZM2.59618 13.8245V25.0378H5.09618V13.8245H2.59618ZM25.4039 25.0378V13.8245H22.9039V25.0378H25.4039ZM12.7256 14.955V23.8979H15.2256V14.955H12.7256ZM26 6.98946H2V9.48946H26V6.98946ZM0.75 8.23946V13.8389H3.25V8.23946H0.75ZM2 15.0889H3.2V12.5889H2V15.0889ZM24.8 15.0889H26V12.5889H24.8V15.0889ZM27.25 13.8389V8.23946H24.75V13.8389H27.25Z" fill="black"/>
</svg>
