<svg width="28" height="28" viewBox="0 0 28 28" fill="none" xmlns="http://www.w3.org/2000/svg">
<path d="M2 2L2.52866 0.867295C2.14152 0.686609 1.68891 0.716158 1.32855 0.945646C0.968196 1.17513 0.75 1.57277 0.75 2H2ZM2 19.8022H0.75C0.75 20.2698 1.01095 20.6982 1.42639 20.9128L2 19.8022ZM14 26L13.4264 27.1106C13.7862 27.2965 14.2138 27.2965 14.5736 27.1106L14 26ZM26 19.8022L26.5736 20.9128C26.9891 20.6982 27.25 20.2698 27.25 19.8022H26ZM26 2H27.25C27.25 1.57277 27.0318 1.17513 26.6714 0.945646C26.3111 0.716158 25.8585 0.686609 25.4713 0.867295L26 2ZM14 7.60066L13.4713 8.73337C13.8064 8.88976 14.1936 8.88976 14.5287 8.73337L14 7.60066ZM17.5269 8.96007C16.8365 8.96007 16.2769 9.51971 16.2769 10.2101C16.2769 10.9004 16.8365 11.4601 17.5269 11.4601L17.5269 8.96007ZM22.4815 18.7737C23.1718 18.7737 23.7315 18.214 23.7315 17.5237C23.7315 16.8333 23.1718 16.2737 22.4815 16.2737V18.7737ZM22.4886 10.2307L21.2386 10.2258L22.4886 10.2307ZM22.485 10.2422L23.5161 10.9489L23.5161 10.9489L22.485 10.2422ZM17.5195 17.4954L16.2695 17.4954L17.5195 17.4954ZM17.5244 17.4795L18.5555 18.1862L17.5244 17.4795ZM17.5477 17.5237L17.5477 18.7737H17.5477V17.5237ZM22.4681 10.2101L22.4681 8.96009L22.4681 8.96009L22.4681 10.2101ZM4.18702 17.166C3.96293 17.819 4.31061 18.53 4.96358 18.7541C5.61656 18.9781 6.32756 18.6305 6.55165 17.9775L4.18702 17.166ZM7.91236 10.1616L6.73005 9.75586L7.91236 10.1616ZM6.28654 14.8887C5.59618 14.8887 5.03654 15.4484 5.03654 16.1387C5.03654 16.8291 5.59618 17.3887 6.28654 17.3887L6.28654 14.8887ZM9.81205 17.3887C10.5024 17.3887 11.0621 16.8291 11.0621 16.1387C11.0621 15.4484 10.5024 14.8887 9.81205 14.8887L9.81205 17.3887ZM9.61989 18.0219C9.86852 18.6659 10.5922 18.9865 11.2362 18.7379C11.8802 18.4892 12.2008 17.7656 11.9521 17.1216L9.61989 18.0219ZM7.92529 10.1614L6.75913 10.6114L6.75917 10.6115L7.92529 10.1614ZM7.91874 10.157L7.94215 11.4067L7.94217 11.4067L7.91874 10.157ZM0.75 2V19.8022H3.25V2H0.75ZM1.42639 20.9128L13.4264 27.1106L14.5736 24.8894L2.57361 18.6916L1.42639 20.9128ZM14.5736 27.1106L26.5736 20.9128L25.4264 18.6916L13.4264 24.8894L14.5736 27.1106ZM27.25 19.8022V2H24.75V19.8022H27.25ZM25.4713 0.867295L13.4713 6.46796L14.5287 8.73337L26.5287 3.1327L25.4713 0.867295ZM14.5287 6.46796L2.52866 0.867295L1.47134 3.1327L13.4713 8.73337L14.5287 6.46796ZM12.75 8V25H15.25V8H12.75ZM17.5269 11.4601L22.4681 11.4601L22.4681 8.96009L17.5269 8.96007L17.5269 11.4601ZM17.5477 18.7737H22.4815V16.2737H17.5477V18.7737ZM21.454 9.5355L16.4934 16.7728L18.5555 18.1862L23.5161 10.9489L21.454 9.5355ZM21.2386 10.2258C21.2396 9.97939 21.3146 9.73887 21.454 9.5355L23.5161 10.9489C23.6601 10.7388 23.7376 10.4902 23.7386 10.2355L21.2386 10.2258ZM18.7695 17.4954C18.7695 17.742 18.6949 17.9828 18.5555 18.1862L16.4934 16.7728C16.3476 16.9855 16.2695 17.2374 16.2695 17.4954L18.7695 17.4954ZM17.5477 16.2737C18.2225 16.2737 18.7695 16.8207 18.7695 17.4954L16.2695 17.4954C16.2695 18.2014 16.8418 18.7737 17.5477 18.7737L17.5477 16.2737ZM22.4681 11.4601C21.7872 11.4601 21.236 10.9067 21.2386 10.2258L23.7386 10.2355C23.7413 9.53195 23.1717 8.96009 22.4681 8.96009L22.4681 11.4601ZM6.55165 17.9775L9.09468 10.5674L6.73005 9.75586L4.18702 17.166L6.55165 17.9775ZM6.28654 17.3887L9.81205 17.3887L9.81205 14.8887L6.28654 14.8887L6.28654 17.3887ZM11.9521 17.1216L9.09141 9.71119L6.75917 10.6115L9.61989 18.0219L11.9521 17.1216ZM9.09145 9.71129C8.90133 9.21867 8.42348 8.89728 7.89531 8.90718L7.94217 11.4067C7.41978 11.4165 6.94717 11.0987 6.75913 10.6114L9.09145 9.71129ZM9.09468 10.5674C8.92509 11.0615 8.46458 11.397 7.94215 11.4067L7.89533 8.90718C7.36712 8.91708 6.90152 9.25622 6.73005 9.75586L9.09468 10.5674Z" fill="black"/>
</svg>
