<svg width="28" height="28" viewBox="0 0 28 28" fill="none" xmlns="http://www.w3.org/2000/svg">
<path d="M2 24.7499C1.30964 24.7499 0.75 25.3096 0.75 25.9999C0.75 26.6903 1.30964 27.2499 2 27.2499L2 24.7499ZM26.2368 27.2499C26.9271 27.2499 27.4868 26.6903 27.4868 25.9999C27.4868 25.3096 26.9271 24.7499 26.2368 24.7499L26.2368 27.2499ZM2.01674 10.5303H0.766735C0.766735 11.2207 1.32638 11.7803 2.01674 11.7803L2.01674 10.5303ZM26.2536 10.5303V11.7803C26.944 11.7803 27.5036 11.2207 27.5036 10.5303H26.2536ZM14.129 2L14.8432 0.974102C14.4158 0.676599 13.8488 0.67519 13.42 0.970564L14.129 2ZM26.2536 10.4404H27.5036C27.5036 10.0313 27.3035 9.64816 26.9678 9.41446L26.2536 10.4404ZM2.01674 10.3427L1.30768 9.31329C0.969005 9.54656 0.766735 9.93149 0.766735 10.3427H2.01674ZM6.88644 10.5303L6.88644 9.28032L4.38644 9.28032L4.38644 10.5303L6.88644 10.5303ZM4.38644 25.9999C4.38644 26.6903 4.94608 27.2499 5.63644 27.2499C6.32679 27.2499 6.88644 26.6903 6.88644 25.9999L4.38644 25.9999ZM23.865 10.5303V9.28032H21.365V10.5303H23.865ZM21.365 25.9999C21.365 26.6903 21.9247 27.2499 22.615 27.2499C23.3054 27.2499 23.865 26.6903 23.865 25.9999H21.365ZM12.6745 10.5303C12.6745 9.83996 12.1149 9.28032 11.4245 9.28032C10.7341 9.28032 10.1745 9.83996 10.1745 10.5303H12.6745ZM10.1745 26C10.1745 26.6904 10.7341 27.25 11.4245 27.25C12.1149 27.25 12.6745 26.6904 12.6745 26H10.1745ZM18.2264 10.5303C18.2264 9.83996 17.6668 9.28032 16.9764 9.28032C16.2861 9.28032 15.7264 9.83996 15.7264 10.5303H18.2264ZM15.7264 26C15.7264 26.6904 16.2861 27.25 16.9764 27.25C17.6668 27.25 18.2264 26.6904 18.2264 26H15.7264ZM2 27.2499L26.2368 27.2499L26.2368 24.7499L2 24.7499L2 27.2499ZM13.4149 3.0259L25.5394 11.4663L26.9678 9.41446L14.8432 0.974102L13.4149 3.0259ZM25.0036 10.4404V10.5303H27.5036V10.4404H25.0036ZM3.26674 10.5303V10.3427H0.766735V10.5303H3.26674ZM2.72579 11.3722L14.8381 3.02944L13.42 0.970564L1.30768 9.31329L2.72579 11.3722ZM4.38644 10.5303L4.38644 25.9999L6.88644 25.9999L6.88644 10.5303L4.38644 10.5303ZM21.365 10.5303V25.9999H23.865V10.5303H21.365ZM10.1745 10.5303V26H12.6745V10.5303H10.1745ZM15.7264 10.5303V26H18.2264V10.5303H15.7264ZM2.01674 11.7803H26.2536V9.28032H2.01674V11.7803Z" fill="black"/>
</svg>
