<svg width="28" height="28" viewBox="0 0 28 28" fill="none" xmlns="http://www.w3.org/2000/svg">
<path d="M17.3071 13.8747C17.3071 15.7011 15.8265 17.1818 14.0001 17.1818C12.1736 17.1818 10.693 15.7011 10.693 13.8747C10.693 12.0482 12.1736 10.5676 14.0001 10.5676C15.8265 10.5676 17.3071 12.0482 17.3071 13.8747Z" stroke="black" stroke-width="2.5"/>
<path d="M15.8898 24.1101C15.8898 25.1538 15.0437 25.9999 14.0001 25.9999C12.9564 25.9999 12.1103 25.1538 12.1103 24.1101C12.1103 23.0664 12.9564 22.2204 14.0001 22.2204C15.0437 22.2204 15.8898 23.0664 15.8898 24.1101Z" stroke="black" stroke-width="2.5"/>
<path d="M15.8898 3.88976C15.8898 4.93345 15.0437 5.77952 14.0001 5.77952C12.9564 5.77952 12.1103 4.93345 12.1103 3.88976C12.1103 2.84608 12.9564 2 14.0001 2C15.0437 2 15.8898 2.84608 15.8898 3.88976Z" stroke="black" stroke-width="2.5"/>
<path d="M24.1102 12.1102C25.1539 12.1102 26 12.9563 26 13.9999C26 15.0436 25.1539 15.8897 24.1102 15.8897C23.0666 15.8897 22.2205 15.0436 22.2205 13.9999C22.2205 12.9563 23.0666 12.1102 24.1102 12.1102Z" stroke="black" stroke-width="2.5"/>
<path d="M3.88976 12.1102C4.93345 12.1102 5.77952 12.9563 5.77952 13.9999C5.77952 15.0436 4.93345 15.8897 3.88976 15.8897C2.84608 15.8897 2 15.0436 2 13.9999C2 12.9563 2.84608 12.1102 3.88976 12.1102Z" stroke="black" stroke-width="2.5"/>
<path d="M22.4853 19.8128C23.2233 20.5508 23.2233 21.7473 22.4853 22.4853C21.7473 23.2233 20.5507 23.2233 19.8127 22.4853C19.0747 21.7473 19.0747 20.5508 19.8127 19.8128C20.5507 19.0748 21.7473 19.0748 22.4853 19.8128Z" stroke="black" stroke-width="2.5"/>
<path d="M8.18737 5.51456C8.92537 6.25255 8.92537 7.44909 8.18737 8.18708C7.44937 8.92508 6.25284 8.92508 5.51484 8.18708C4.77684 7.44909 4.77684 6.25255 5.51484 5.51456C6.25284 4.77656 7.44937 4.77656 8.18737 5.51456Z" stroke="black" stroke-width="2.5"/>
<path d="M19.8128 5.51473C20.5508 4.77673 21.7473 4.77673 22.4853 5.51473C23.2233 6.25273 23.2233 7.44926 22.4853 8.18726C21.7473 8.92526 20.5508 8.92526 19.8128 8.18726C19.0748 7.44926 19.0748 6.25273 19.8128 5.51473Z" stroke="black" stroke-width="2.5"/>
<path d="M5.51479 19.8127C6.25278 19.0747 7.44932 19.0747 8.18731 19.8127C8.92531 20.5507 8.92531 21.7473 8.18731 22.4853C7.44932 23.2233 6.25278 23.2233 5.51479 22.4853C4.77679 21.7473 4.77679 20.5507 5.51479 19.8127Z" stroke="black" stroke-width="2.5"/>
</svg>
