<svg width="28" height="27" viewBox="0 0 28 27" fill="none" xmlns="http://www.w3.org/2000/svg">
<path d="M13.9909 21.5752C18.4194 21.5752 22.0094 17.9881 22.0094 13.5632C22.0094 9.13835 18.4194 5.55127 13.9909 5.55127C9.56233 5.55127 5.97229 9.13835 5.97229 13.5632C5.97229 17.9881 9.56233 21.5752 13.9909 21.5752Z" stroke="black" stroke-width="2.5" stroke-miterlimit="10"/>
<path d="M14.0674 16.2209V10.5654" stroke="black" stroke-width="2.5" stroke-linecap="round" fill="none" data-nofill="true"/>
<path d="M16.8975 13.3932L11.2373 13.3932" stroke="black" stroke-width="2.5" stroke-linecap="round" fill="none" data-nofill="true"/>
<path d="M20.8724 1.5851L25.9828 1.56836L25.9996 6.66591" stroke="black" stroke-width="2.5" stroke-linecap="round" stroke-linejoin="round" fill="none" data-nofill="true"/>
<path d="M25.4971 2.24304L19.7224 7.93492" stroke="black" stroke-width="2.5" stroke-miterlimit="10" stroke-linecap="round" stroke-linejoin="round" fill="none" data-nofill="true"/>
<path d="M7.12708 1.5851L2.01666 1.56836L1.99988 6.66591" stroke="black" stroke-width="2.5" stroke-linecap="round" stroke-linejoin="round" fill="none" data-nofill="true"/>
<path d="M2.50257 2.24304L8.29218 7.93514" stroke="black" stroke-width="2.5" stroke-miterlimit="10" stroke-linecap="round" stroke-linejoin="round" fill="none" data-nofill="true"/>
<path d="M2.01675 20.4453L2 25.5515L7.10175 25.5683" stroke="black" stroke-width="2.5" stroke-linecap="round" stroke-linejoin="round" fill="none" data-nofill="true"/>
<path d="M2.67505 25.0664L8.39066 19.2771" stroke="black" stroke-width="2.5" stroke-miterlimit="10" stroke-linecap="round" stroke-linejoin="round" fill="none" data-nofill="true"/>
<path d="M25.9832 20.4453L25.9999 25.5515L20.8982 25.5683" stroke="black" stroke-width="2.5" stroke-linecap="round" stroke-linejoin="round" fill="none" data-nofill="true"/>
<path d="M25.3246 25.0664L19.6092 19.2773" stroke="black" stroke-width="2.5" stroke-miterlimit="10" stroke-linecap="round" stroke-linejoin="round" fill="none" data-nofill="true"/>
</svg>
