<svg width="28" height="28" viewBox="0 0 28 28" fill="none" xmlns="http://www.w3.org/2000/svg">
<rect width="28" height="28" fill="white"/>
<path d="M14.25 1.26147L14.25 3.82147" stroke="black" stroke-width="2.5" stroke-linecap="round"/>
<path d="M14.25 24.1873L14.25 26.7473" stroke="black" stroke-width="2.5" stroke-linecap="round"/>
<path d="M19.25 1.26147L19.25 3.82147" stroke="black" stroke-width="2.5" stroke-linecap="round"/>
<path d="M9.25 1.26147L9.25 3.82147" stroke="black" stroke-width="2.5" stroke-linecap="round"/>
<path d="M12.1713 17.4448C12.1724 17.2023 12.0854 16.9677 11.9264 16.7846L5.618 9.51858C5.05593 8.87119 5.51577 7.86298 6.37311 7.86298L21.7354 7.86299C22.5745 7.86299 23.0405 8.8341 22.5155 9.48866L16.6558 16.7945C16.5135 16.9719 16.4359 17.1926 16.4359 17.4201L16.4359 19.1372C16.4359 19.6895 15.9882 20.1372 15.4359 20.1372L13.1635 20.1372C12.6094 20.1372 12.1609 19.6867 12.1635 19.1326L12.1713 17.4448Z" stroke="black" stroke-width="2.5" stroke-linejoin="round"/>
</svg>
