<svg width="28" height="27" viewBox="0 0 28 27" fill="none" xmlns="http://www.w3.org/2000/svg">
<path d="M13.9909 21.5917C18.4194 21.5917 22.0094 18.0017 22.0094 13.5731C22.0094 9.1446 18.4194 5.55457 13.9909 5.55457C9.56233 5.55457 5.97229 9.1446 5.97229 13.5731C5.97229 18.0017 9.56233 21.5917 13.9909 21.5917Z" stroke="black" stroke-width="2.5" stroke-miterlimit="10"/>
<path d="M14.0674 16.233V10.5729" stroke="black" stroke-width="2.5" stroke-linecap="round"/>
<path d="M16.8975 13.403L11.2373 13.403" stroke="black" stroke-width="2.5" stroke-linecap="round"/>
<path d="M20.8724 1.58511L25.9828 1.56836L25.9996 6.67011" stroke="black" stroke-width="2.5" stroke-linecap="round" stroke-linejoin="round"/>
<path d="M25.4971 2.24365L19.7224 7.94022" stroke="black" stroke-width="2.5" stroke-miterlimit="10" stroke-linecap="round" stroke-linejoin="round"/>
<path d="M7.12708 1.58511L2.01666 1.56836L1.99988 6.67011" stroke="black" stroke-width="2.5" stroke-linecap="round" stroke-linejoin="round"/>
<path d="M2.50257 2.24365L8.29218 7.94044" stroke="black" stroke-width="2.5" stroke-miterlimit="10" stroke-linecap="round" stroke-linejoin="round"/>
<path d="M2.01675 20.4608L2 25.5712L7.10175 25.588" stroke="black" stroke-width="2.5" stroke-linecap="round" stroke-linejoin="round"/>
<path d="M2.67505 25.0858L8.39066 19.2917" stroke="black" stroke-width="2.5" stroke-miterlimit="10" stroke-linecap="round" stroke-linejoin="round"/>
<path d="M25.9832 20.4608L25.9999 25.5712L20.8982 25.588" stroke="black" stroke-width="2.5" stroke-linecap="round" stroke-linejoin="round"/>
<path d="M25.3246 25.0858L19.6092 19.292" stroke="black" stroke-width="2.5" stroke-miterlimit="10" stroke-linecap="round" stroke-linejoin="round"/>
</svg>
