<svg width="28" height="27" viewBox="0 0 28 27" fill="none" xmlns="http://www.w3.org/2000/svg">
<path d="M14 26.9258C21.3178 26.9258 27.25 20.9936 27.25 13.6758H24.75C24.75 19.6128 19.9371 24.4258 14 24.4258V26.9258ZM0.75 13.6758C0.75 20.9936 6.68223 26.9258 14 26.9258V24.4258C8.06294 24.4258 3.25 19.6128 3.25 13.6758H0.75ZM14 0.425781C6.68223 0.425781 0.75 6.35801 0.75 13.6758H3.25C3.25 7.73872 8.06294 2.92578 14 2.92578V0.425781ZM27.25 13.6758C27.25 6.35801 21.3178 0.425781 14 0.425781V2.92578C19.9371 2.92578 24.75 7.73872 24.75 13.6758H27.25ZM14.0047 19.645C17.3013 19.645 19.9737 16.9726 19.9737 13.676H17.4737C17.4737 15.5919 15.9206 17.145 14.0047 17.145V19.645ZM8.03571 13.676C8.03571 16.9726 10.7081 19.645 14.0047 19.645V17.145C12.0888 17.145 10.5357 15.5919 10.5357 13.676H8.03571ZM14.0047 7.70705C10.7081 7.70705 8.03571 10.3795 8.03571 13.676H10.5357C10.5357 11.7602 12.0888 10.207 14.0047 10.207V7.70705ZM19.9737 13.676C19.9737 10.3795 17.3013 7.70705 14.0047 7.70705V10.207C15.9206 10.207 17.4737 11.7602 17.4737 13.676H19.9737Z" fill="black"/>
<path d="M10.8569 2.67581L13.3569 8.67581H14.6426L17.1426 2.67581" stroke="black" stroke-width="2.5" stroke-linejoin="round"/>
<path d="M17.1427 24.6758L14.6427 18.6758L13.357 18.6758L10.857 24.6758" stroke="black" stroke-width="2.5" stroke-linejoin="round"/>
<path d="M24.9997 10.533L18.9997 13.033L18.9997 14.3187L24.9997 16.8187" stroke="black" stroke-width="2.5" stroke-linejoin="round"/>
<path d="M2.99988 16.8187L8.99988 14.3187L8.99988 13.033L2.99988 10.533" stroke="black" stroke-width="2.5" stroke-linejoin="round"/>
</svg>
