<svg width="22" height="27" viewBox="0 0 22 27" fill="none" xmlns="http://www.w3.org/2000/svg">
<path d="M10.8545 19.2304C15.7322 19.2304 19.6855 15.2762 19.6855 10.3994C19.6855 5.52259 15.7322 1.56836 10.8545 1.56836C5.97671 1.56836 2.02344 5.52259 2.02344 10.3994C2.02344 15.2762 5.97767 19.2304 10.8545 19.2304Z" stroke="black" stroke-width="2.5" stroke-miterlimit="10" stroke-linejoin="round"/>
<path d="M16.7679 16.9447C15.612 17.9901 14.1845 18.7389 12.5967 19.0567L16.3551 25.5684L20.3967 23.2346L16.7679 16.9447Z" stroke="black" stroke-width="2.5" stroke-miterlimit="10" stroke-linecap="square" stroke-linejoin="round"/>
<path d="M17.0234 16.5684V15.7297C17.0234 13.8227 15.659 12.15 13.6877 11.6393L12.9673 11.4523C12.4554 11.3201 12.2606 10.74 12.6003 10.3597L13.1318 9.76414C14.0391 8.74814 13.9667 7.25515 12.9644 6.31941C11.8916 5.31801 10.1494 5.31801 9.07662 6.31941C8.07433 7.25515 8.0019 8.74814 8.90925 9.76414L9.44073 10.3597C9.78037 10.74 9.58657 11.3201 9.07466 11.4523L8.35623 11.6384C6.38592 12.1491 5.02344 13.8208 5.02344 15.7261L5.02344 16.5684" stroke="black" stroke-width="2.5" stroke-linecap="round" stroke-linejoin="round"/>
</svg>
