<svg width="27" height="26" viewBox="0 0 27 26" fill="none" xmlns="http://www.w3.org/2000/svg">
<path d="M13.7621 6.98627C15.2582 6.98627 16.471 5.77343 16.471 4.27731C16.471 2.7812 15.2582 1.56836 13.7621 1.56836C12.2659 1.56836 11.0531 2.7812 11.0531 4.27731C11.0531 5.77343 12.2659 6.98627 13.7621 6.98627Z" stroke="black" stroke-width="2.5" stroke-linecap="round" stroke-linejoin="round"/>
<path d="M13.6629 24.7104C15.159 24.7104 16.3719 23.4975 16.3719 22.0014C16.3719 20.5053 15.159 19.2925 13.6629 19.2925C12.1668 19.2925 10.954 20.5053 10.954 22.0014C10.954 23.4975 12.1668 24.7104 13.6629 24.7104Z" stroke="black" stroke-width="2.5" stroke-linecap="round" stroke-linejoin="round"/>
<path d="M13.7416 7.09327L13.7416 19.2922" stroke="black" stroke-width="2.5" stroke-linecap="round" stroke-linejoin="round"/>
<path d="M22.7742 11.3246L24.0242 11.3246C24.0242 10.6342 23.4646 10.0746 22.7742 10.0746L22.7742 11.3246ZM4.70889 11.3246L4.70889 10.0746C4.37737 10.0746 4.05943 10.2063 3.825 10.4407C3.59058 10.6751 3.45889 10.9931 3.45889 11.3246L4.70889 11.3246ZM3.45889 15.225L3.45889 16.475L5.95889 16.475L5.95889 15.225L3.45889 15.225ZM21.5242 15.225C21.5242 15.9154 22.0839 16.475 22.7742 16.475C23.4646 16.475 24.0242 15.9154 24.0242 15.225L21.5242 15.225ZM22.7742 10.0746L4.70889 10.0746L4.70889 12.5746L22.7742 12.5746L22.7742 10.0746ZM3.45889 11.3246L3.45889 15.225L5.95889 15.225L5.95889 11.3246L3.45889 11.3246ZM21.5242 11.3246L21.5242 15.225L24.0242 15.225L24.0242 11.3246L21.5242 11.3246Z" fill="black"/>
<path d="M4.70895 20.6429C6.20507 20.6429 7.41791 19.43 7.41791 17.9339C7.41791 16.4378 6.20507 15.225 4.70895 15.225C3.21284 15.225 2 16.4378 2 17.9339C2 19.43 3.21284 20.6429 4.70895 20.6429Z" stroke="black" stroke-width="2.5" stroke-linecap="round" stroke-linejoin="round"/>
<path d="M22.7499 20.6429C24.246 20.6429 25.4589 19.43 25.4589 17.9339C25.4589 16.4378 24.246 15.225 22.7499 15.225C21.2538 15.225 20.041 16.4378 20.041 17.9339C20.041 19.43 21.2538 20.6429 22.7499 20.6429Z" stroke="black" stroke-width="2.5" stroke-linecap="round" stroke-linejoin="round"/>
</svg>
