<svg width="28" height="27" viewBox="0 0 28 27" fill="none" xmlns="http://www.w3.org/2000/svg">
<path d="M14.0335 7.54287C15.5641 7.54287 16.805 6.30206 16.805 4.77144C16.805 3.24081 15.5641 2 14.0335 2C12.5029 2 11.2621 3.24081 11.2621 4.77144C11.2621 6.30206 12.5029 7.54287 14.0335 7.54287Z" stroke="black" stroke-width="2.5" stroke-linecap="round" stroke-linejoin="round"/>
<path d="M13.9317 25.6754C15.4623 25.6754 16.7031 24.4346 16.7031 22.904C16.7031 21.3734 15.4623 20.1326 13.9317 20.1326C12.401 20.1326 11.1602 21.3734 11.1602 22.904C11.1602 24.4346 12.401 25.6754 13.9317 25.6754Z" stroke="black" stroke-width="2.5" stroke-linecap="round" stroke-linejoin="round"/>
<path d="M14.0128 7.65308L14.0128 20.1334" stroke="black" stroke-width="2.5" stroke-linecap="round" stroke-linejoin="round"/>
<path d="M23.2531 11.981L24.5031 11.981C24.5031 11.2906 23.9435 10.731 23.2531 10.731L23.2531 11.981ZM4.77109 11.981L4.77109 10.731C4.43957 10.731 4.12163 10.8627 3.88721 11.0971C3.65279 11.3315 3.52109 11.6494 3.52109 11.981L4.77109 11.981ZM3.52109 15.9714L3.52109 17.2214L6.02109 17.2214L6.02109 15.9714L3.52109 15.9714ZM22.0031 15.9714C22.0031 16.6617 22.5628 17.2214 23.2531 17.2214C23.9435 17.2214 24.5031 16.6617 24.5031 15.9714L22.0031 15.9714ZM23.2531 10.731L4.77109 10.731L4.77109 13.231L23.2531 13.231L23.2531 10.731ZM3.52109 11.981L3.52109 15.9714L6.02109 15.9714L6.02109 11.981L3.52109 11.981ZM22.0031 11.981L22.0031 15.9714L24.5031 15.9714L24.5031 11.981L22.0031 11.981Z" fill="black"/>
<path d="M4.77144 21.5152C6.30206 21.5152 7.54287 20.2743 7.54287 18.7437C7.54287 17.2131 6.30206 15.9723 4.77144 15.9723C3.24081 15.9723 2 17.2131 2 18.7437C2 20.2743 3.24081 21.5152 4.77144 21.5152Z" stroke="black" stroke-width="2.5" stroke-linecap="round" stroke-linejoin="round"/>
<path d="M23.2284 21.5152C24.759 21.5152 25.9998 20.2743 25.9998 18.7437C25.9998 17.2131 24.759 15.9723 23.2284 15.9723C21.6978 15.9723 20.457 17.2131 20.457 18.7437C20.457 20.2743 21.6978 21.5152 23.2284 21.5152Z" stroke="black" stroke-width="2.5" stroke-linecap="round" stroke-linejoin="round"/>
</svg>
