<svg width="28" height="28" viewBox="0 0 28 28" fill="none" xmlns="http://www.w3.org/2000/svg">
<g clip-path="url(#clip0_40_5218)">
<path d="M14.0332 7.61878C15.5638 7.61878 16.8047 6.36097 16.8047 4.80939C16.8047 3.25781 15.5638 2 14.0332 2C12.5026 2 11.2618 3.25781 11.2618 4.80939C11.2618 6.36097 12.5026 7.61878 14.0332 7.61878Z" stroke="black" stroke-width="2.5" stroke-linecap="round" stroke-linejoin="round"/>
<path d="M13.932 26C15.4626 26 16.7034 24.7422 16.7034 23.1906C16.7034 21.639 15.4626 20.3812 13.932 20.3812C12.4013 20.3812 11.1605 21.639 11.1605 23.1906C11.1605 24.7422 12.4013 26 13.932 26Z" stroke="black" stroke-width="2.5" stroke-linecap="round" stroke-linejoin="round"/>
<path d="M14.0125 7.72992L14.0125 20.3812" stroke="black" stroke-width="2.5" stroke-linecap="round" stroke-linejoin="round"/>
<path d="M23.2534 12.1179L24.5034 12.1179C24.5034 11.4276 23.9438 10.8679 23.2534 10.8679L23.2534 12.1179ZM4.7714 12.1179L4.7714 10.8679C4.43988 10.8679 4.12193 10.9996 3.88751 11.234C3.6531 11.4685 3.5214 11.7864 3.5214 12.1179L4.7714 12.1179ZM3.5214 16.163L3.5214 17.413L6.0214 17.413L6.0214 16.163L3.5214 16.163ZM22.0034 16.163C22.0034 16.8533 22.5631 17.413 23.2534 17.413C23.9438 17.413 24.5034 16.8533 24.5034 16.163L22.0034 16.163ZM23.2534 10.8679L4.7714 10.8679L4.7714 13.3679L23.2534 13.3679L23.2534 10.8679ZM3.5214 12.1179L3.5214 16.163L6.0214 16.163L6.0214 12.1179L3.5214 12.1179ZM22.0034 12.1179L22.0034 16.163L24.5034 16.163L24.5034 12.1179L22.0034 12.1179Z" fill="black"/>
<path d="M4.77144 21.7817C6.30206 21.7817 7.54287 20.5238 7.54287 18.9723C7.54287 17.4207 6.30206 16.1629 4.77144 16.1629C3.24081 16.1629 2 17.4207 2 18.9723C2 20.5238 3.24081 21.7817 4.77144 21.7817Z" stroke="black" stroke-width="2.5" stroke-linecap="round" stroke-linejoin="round"/>
<path d="M23.2286 21.7817C24.7592 21.7817 26 20.5238 26 18.9723C26 17.4207 24.7592 16.1629 23.2286 16.1629C21.698 16.1629 20.4572 17.4207 20.4572 18.9723C20.4572 20.5238 21.698 21.7817 23.2286 21.7817Z" stroke="black" stroke-width="2.5" stroke-linecap="round" stroke-linejoin="round"/>
</g>
<defs>
<clipPath id="clip0_40_5218">
<rect width="28" height="28" fill="white"/>
</clipPath>
</defs>
</svg>
