<svg width="28" height="27" viewBox="0 0 28 27" fill="none" xmlns="http://www.w3.org/2000/svg">
<path d="M8.58282 18.7747L14.0001 15V9.75121M14.0096 15L19.6171 18.9072M14.043 2.00012C16.2283 2.00012 17.9999 3.77166 17.9999 5.95697C17.9999 8.14228 16.2283 9.91383 14.043 9.91383C11.8577 9.91383 10.0862 8.14228 10.0862 5.95697C10.0862 3.77166 11.8577 2.00012 14.043 2.00012ZM5.20954 17.0863C7.39485 17.0863 9.16639 18.8578 9.16639 21.0432C9.16639 23.2285 7.39485 25 5.20954 25C3.02423 25 1.25269 23.2285 1.25269 21.0432C1.25269 18.8578 3.02423 17.0863 5.20954 17.0863ZM22.7901 17.0863C24.9754 17.0863 26.747 18.8578 26.747 21.0432C26.747 23.2285 24.9754 25 22.7901 25C20.6048 25 18.8333 23.2285 18.8333 21.0432C18.8333 18.8578 20.6048 17.0863 22.7901 17.0863Z" stroke="black" stroke-width="2.5" stroke-linejoin="round"/>
</svg>
