<svg width="28" height="28" viewBox="0 0 28 28" fill="none" xmlns="http://www.w3.org/2000/svg">

<path d="M15.4765 7.1376C17.1019 7.1376 18.4196 5.81995 18.4196 4.19453C18.4196 2.56912 17.1019 1.25146 15.4765 1.25146C13.8511 1.25146 12.5334 2.56912 12.5334 4.19453C12.5334 5.81995 13.8511 7.1376 15.4765 7.1376Z" stroke="black" stroke-width="2.5" stroke-linecap="round" stroke-linejoin="round"/>
<path d="M5.32262 21.7737C6.94803 21.7737 8.26569 20.4561 8.26569 18.8306C8.26569 17.2052 6.94803 15.8876 5.32262 15.8876C3.6972 15.8876 2.37955 17.2052 2.37955 18.8306C2.37955 20.4561 3.6972 21.7737 5.32262 21.7737Z" stroke="black" stroke-width="2.5" stroke-linecap="round" stroke-linejoin="round"/>
<path d="M22.173 26.5761C23.7985 26.5761 25.1161 25.2584 25.1161 23.633C25.1161 22.0076 23.7985 20.6899 22.173 20.6899C20.5476 20.6899 19.23 22.0076 19.23 23.633C19.23 25.2584 20.5476 26.5761 22.173 26.5761Z" stroke="black" stroke-width="2.5" stroke-linecap="round" stroke-linejoin="round"/>
<path d="M15.4765 17.9999C17.1019 17.9999 18.4196 16.6823 18.4196 15.0568C18.4196 13.4314 17.1019 12.1138 15.4765 12.1138C13.8511 12.1138 12.5334 13.4314 12.5334 15.0568C12.5334 16.6823 13.8511 17.9999 15.4765 17.9999Z" stroke="black" stroke-width="2.5" stroke-linecap="round" stroke-linejoin="round"/>
<path d="M12.7054 16.0562L8.09879 17.7794" stroke="black" stroke-width="2.5" stroke-linecap="round" stroke-linejoin="round"/>
<path d="M17.3547 17.4773L20.3479 21.3088" stroke="black" stroke-width="2.5" stroke-linecap="round" stroke-linejoin="round"/>
<path d="M15.4758 11.9999L15.4758 7.1377" stroke="black" stroke-width="2.5" stroke-linecap="round" stroke-linejoin="round"/>
</svg>
