<svg width="28" height="17" viewBox="0 0 28 17" fill="none" xmlns="http://www.w3.org/2000/svg">
<path d="M8.8518 11.4696C8.48553 11.8059 8.05656 12.0668 7.58937 12.2373C7.12218 12.4079 6.62593 12.4846 6.12895 12.4633C5.63196 12.442 5.14399 12.323 4.69287 12.1131C4.24176 11.9032 3.83634 11.6065 3.49978 11.24C2.82966 10.4927 2.48336 9.51013 2.53694 8.50811C2.59053 7.5061 3.03962 6.56658 3.78557 5.89593C4.15184 5.55955 4.58081 5.29865 5.048 5.12814C5.51519 4.95763 6.01144 4.88084 6.50842 4.90216C7.0054 4.92348 7.49338 5.04249 7.9445 5.25239C8.39561 5.4623 8.80102 5.75898 9.13759 6.12551C9.80733 6.87297 10.1534 7.85546 10.0998 8.85735C10.0462 9.85924 9.59739 10.7987 8.8518 11.4696V11.4696Z" stroke="black" stroke-width="2.5" stroke-linejoin="round"/>
<path d="M10.2192 8.45178L25.9823 8.43956" stroke="black" stroke-width="2.5" stroke-linecap="round" stroke-linejoin="round"/>
<path d="M17.8406 9.17769L17.844 13.4968L23.0959 13.4983L23.0913 9.18035" stroke="black" stroke-width="2.5" stroke-linecap="round" stroke-linejoin="round"/>
</svg>
