<svg width="26" height="28" viewBox="0 0 26 28" fill="none" xmlns="http://www.w3.org/2000/svg">
<path d="M3.85791 23.3745C3.46137 23.2315 3.19705 22.8553 3.19705 22.4337V14.3641C3.19705 13.6845 3.86051 13.2028 4.50676 13.4133L12.6913 16.0792C12.8926 16.1448 13.1095 16.1448 13.3108 16.0792L21.4953 13.4133C22.1416 13.2028 22.8051 13.6845 22.8051 14.3641V22.4347C22.8051 22.8562 22.5407 23.2325 22.1441 23.3754L13.3402 26.5484C13.121 26.6274 12.8811 26.6274 12.662 26.5484L3.85791 23.3745Z" stroke="black" stroke-width="2.5" stroke-linejoin="round"/>
<path d="M1.50012 19.9459C2.32855 19.9459 3.00012 19.2763 3.00012 18.4503C3.00012 17.6244 2.32855 16.9548 1.50012 16.9548C0.671695 16.9548 0.00012207 17.6244 0.00012207 18.4503C0.00012207 19.2763 0.671695 19.9459 1.50012 19.9459Z" fill="black"/>
<path d="M24.5 19.9459C25.3285 19.9459 26 19.2763 26 18.4503C26 17.6244 25.3285 16.9548 24.5 16.9548C23.6716 16.9548 23 17.6244 23 18.4503C23 19.2763 23.6716 19.9459 24.5 19.9459Z" fill="black"/>
<path d="M9.81607 11.5381L8.64207 11.8641C7.40007 12.209 6.31207 12.8601 5.43607 13.7155L12.9991 16.1791L20.5601 13.7165C19.6841 12.8601 18.5941 12.208 17.3521 11.8641L16.1761 11.5381C15.3411 11.3067 15.0231 10.2928 15.5771 9.62779L16.4451 8.58691C17.9271 6.81025 17.8081 4.20108 16.1711 2.56599C14.4181 0.815244 11.5731 0.815244 9.81907 2.56599C8.18207 4.20108 8.06307 6.81124 9.54507 8.58691L10.4131 9.62779C10.9681 10.2928 10.6501 11.3058 9.81407 11.5381H9.81607Z" stroke="black" stroke-width="2.5" stroke-linecap="round" stroke-linejoin="round"/>
<path d="M13 26.6706V16.1801" stroke="black" stroke-width="2.5" stroke-linejoin="round"/>
</svg>
