<svg width="28" height="28" viewBox="0 0 28 28" fill="none" xmlns="http://www.w3.org/2000/svg">
<path d="M21.5494 21.0257L18.5239 16.621" stroke="black" stroke-width="2.5"/>
<path d="M9.51521 16.6348L6.4502 21.0121" stroke="black" stroke-width="2.5"/>
<path d="M20.4691 23.2263C20.4691 24.7582 21.711 26 23.2429 26C24.7748 26 26.0166 24.7582 26.0166 23.2263C26.0166 21.6944 24.7748 20.4525 23.2429 20.4525C21.711 20.4525 20.4691 21.6944 20.4691 23.2263Z" stroke="black" stroke-width="2.5" stroke-linecap="round" stroke-linejoin="round"/>
<path d="M2.00003 23.2263C2.00003 24.7582 3.24187 26 4.77376 26C6.30564 26 7.54749 24.7582 7.54749 23.2263C7.54749 21.6944 6.30565 20.4525 4.77376 20.4525C3.24187 20.4525 2.00003 21.6944 2.00003 23.2263Z" stroke="black" stroke-width="2.5" stroke-linecap="round" stroke-linejoin="round"/>
<path d="M5.99873 10.0109C5.99873 14.4352 9.58534 18.0218 14.0096 18.0218C18.434 18.0218 22.0206 14.4352 22.0206 10.0109C22.0206 5.58661 18.434 2 14.0096 2C9.58534 2 5.99873 5.58661 5.99873 10.0109Z" stroke="black" stroke-width="2.5" stroke-miterlimit="10"/>
<path d="M15.4352 6.69028C15.8589 6.87366 16.2557 7.13849 16.602 7.48477C16.9848 7.86752 17.268 8.3121 17.4517 8.78635M12.5722 13.6659C12.098 13.4821 11.6534 13.1989 11.2707 12.8161C10.9244 12.4699 10.6595 12.073 10.4762 11.6493M17.4161 11.6031C17.2322 12.0441 16.9609 12.4573 16.602 12.8161C16.2325 13.1856 15.8054 13.4624 15.3496 13.6464M10.4404 8.73717C10.6244 8.28137 10.9012 7.85426 11.2707 7.48477C11.6295 7.12595 12.0427 6.85458 12.4837 6.67066" stroke="black" stroke-width="2.5" stroke-linecap="round"/>
</svg>
