<svg width="29" height="29" viewBox="0 0 29 29" fill="none" xmlns="http://www.w3.org/2000/svg">
<path d="M22.7346 22.1961L19.5244 17.5225" stroke="black" stroke-width="2.5"/>
<path d="M9.96577 17.5371L6.71362 22.1816" stroke="black" stroke-width="2.5"/>
<path d="M21.5885 24.531C21.5885 26.1564 22.9061 27.474 24.5315 27.474C26.157 27.474 27.4746 26.1564 27.4746 24.531C27.4746 22.9055 26.157 21.5879 24.5315 21.5879C22.9061 21.5879 21.5885 22.9055 21.5885 24.531Z" stroke="black" stroke-width="2.5" stroke-linecap="round" stroke-linejoin="round"/>
<path d="M1.99179 24.531C1.99179 26.1564 3.30945 27.474 4.93486 27.474C6.56027 27.474 7.87793 26.1564 7.87793 24.531C7.87793 22.9055 6.56027 21.5879 4.93486 21.5879C3.30945 21.5879 1.99179 22.9055 1.99179 24.531Z" stroke="black" stroke-width="2.5" stroke-linecap="round" stroke-linejoin="round"/>
<path d="M6.23462 10.5088C6.23462 15.2032 10.0402 19.0088 14.7346 19.0088C19.429 19.0088 23.2346 15.2032 23.2346 10.5088C23.2346 5.81437 19.429 2.00879 14.7346 2.00879C10.0402 2.00879 6.23462 5.81437 6.23462 10.5088Z" stroke="black" stroke-width="2.5" stroke-miterlimit="10"/>
<path d="M16.2472 6.98543C16.6967 7.18001 17.1179 7.46101 17.4853 7.82843C17.8914 8.23454 18.1919 8.70626 18.3869 9.20947M13.2095 14.3869C12.7063 14.1919 12.2345 13.8914 11.8284 13.4853C11.461 13.1179 11.18 12.6967 10.9854 12.2472M18.3491 12.1982C18.154 12.6662 17.866 13.1045 17.4853 13.4853C17.0932 13.8773 16.6401 14.171 16.1564 14.3662M10.9475 9.15729C11.1427 8.67366 11.4364 8.22047 11.8284 7.82843C12.2092 7.44769 12.6476 7.15975 13.1155 6.96461" stroke="black" stroke-width="2.5" stroke-linecap="round"/>
</svg>
