<svg width="28" height="25" viewBox="0 0 28 25" fill="none" xmlns="http://www.w3.org/2000/svg">
<path d="M13.9884 9.12827C11.227 9.12827 8.9884 11.3679 8.9884 14.1306C8.9884 16.1819 10.2225 17.9448 11.9884 18.7167L11.9883 22.7167C11.9883 23.269 12.436 23.7167 12.9883 23.7167H14.9883C15.5406 23.7167 15.9883 23.269 15.9883 22.7167L15.9884 18.7167C17.7543 17.9448 18.9884 16.1819 18.9884 14.1306C18.9884 11.3679 16.7498 9.12827 13.9884 9.12827Z" stroke="black" stroke-width="2.5" stroke-linecap="round" stroke-linejoin="round"/>
<path d="M13.9883 5.12827L13.9883 2.12827" stroke="black" stroke-width="2.5" stroke-linecap="round" stroke-linejoin="round"/>
<path d="M1.98834 14.1283L4.98834 14.1283" stroke="black" stroke-width="2.5" stroke-linecap="round" stroke-linejoin="round"/>
<path d="M22.9883 14.1283L25.9883 14.1283" stroke="black" stroke-width="2.5" stroke-linecap="round" stroke-linejoin="round"/>
<path d="M20.3523 7.76439L22.4736 5.64307" stroke="black" stroke-width="2.5" stroke-linecap="round" stroke-linejoin="round"/>
<path d="M5.50283 5.64296L7.62415 7.76428" stroke="black" stroke-width="2.5" stroke-linecap="round" stroke-linejoin="round"/>
</svg>
