<svg width="28" height="28" viewBox="0 0 28 28" fill="none" xmlns="http://www.w3.org/2000/svg">
<g clip-path="url(#clip0_3_4582)">
<rect width="28" height="28" fill="white"/>
<path d="M25 2H3C2.44772 2 2 2.44772 2 3V25C2 25.5523 2.44772 26 3 26H25C25.5523 26 26 25.5523 26 25V3C26 2.44772 25.5523 2 25 2Z" stroke="black" stroke-width="2.5" stroke-linecap="round"/>
<path d="M8.87454 10.8805L8.87996 20.1965M13.4787 20.1965L13.4787 14M19.9888 20.1965L19.9888 14.8649C19.9888 13.208 18.6456 11.8649 16.9888 11.8649L15.6138 11.8649C14.4346 11.8649 13.4787 12.8208 13.4787 14V14M13.4787 10.8805L13.4787 14" stroke="black" stroke-width="2.5" stroke-miterlimit="10" stroke-linecap="round"/>
<path d="M8.85716 7.14287L8.87836 7.16406" stroke="black" stroke-width="2.5" stroke-miterlimit="10" stroke-linecap="round"/>
</g>
<defs>
<clipPath id="clip0_3_4582">
<rect width="28" height="28" fill="white"/>
</clipPath>
</defs>
</svg>
