<svg width="22" height="28" viewBox="0 0 22 28" fill="none" xmlns="http://www.w3.org/2000/svg">
<path d="M16.2284 21.182C17.5215 20.2215 18.5373 18.9257 19.1602 17.4263C19.9159 15.6073 20.0512 13.5899 19.5452 11.6863C19.0392 9.78259 17.92 8.09869 16.3608 6.89499C14.8016 5.69129 12.8892 5.03486 10.9195 5.02722L10.0356 5.08337M12.6721 8.45708L9.26262 5.13789L12.5818 1.72839" stroke="black" stroke-width="2.5" stroke-linecap="round" stroke-linejoin="round"/>
<path d="M5.61609 6.78564C4.33537 7.73366 3.32485 9.01057 2.69757 10.4898C1.92535 12.3109 1.77736 14.3363 2.27666 16.2503C2.77595 18.1642 3.89448 19.8592 5.45787 21.071C7.02127 22.2828 8.94166 22.9432 10.9197 22.9494L11.7929 22.9043M9.25695 19.5093L12.5908 22.8396L9.32363 26.238" stroke="black" stroke-width="2.5" stroke-linecap="round" stroke-linejoin="round"/>
</svg>
