<svg width="28" height="28" viewBox="0 0 28 28" fill="none" xmlns="http://www.w3.org/2000/svg">
<path d="M7.0197 25.4819H5.7697C5.7697 25.957 6.03908 26.3911 6.46485 26.602C6.89062 26.8129 7.39915 26.7642 7.77713 26.4762L7.0197 25.4819ZM26.7523 19.8928V21.1428C27.4426 21.1428 28.0023 20.5832 28.0023 19.8928H26.7523ZM26.7523 2.24902H28.0023C28.0023 1.55867 27.4426 0.999023 26.7523 0.999023V2.24902ZM1.25195 2.24902V0.999023C0.561597 0.999023 0.00195312 1.55867 0.00195312 2.24902L1.25195 2.24902ZM1.25195 19.8928H0.00195312C0.00195312 20.5832 0.561597 21.1428 1.25195 21.1428L1.25195 19.8928ZM14.0887 20.0973L13.3313 19.1029L14.0887 20.0973ZM5.7697 20.8928V25.4819H8.2697V20.8928H5.7697ZM7.77713 26.4762L14.8462 21.0917L13.3313 19.1029L6.26226 24.4875L7.77713 26.4762ZM14.6947 21.1428H26.7523V18.6428H14.6947V21.1428ZM28.0023 19.8928V2.24902H25.5023V19.8928H28.0023ZM26.7523 0.999023H1.25195V3.49902H26.7523V0.999023ZM0.00195312 2.24902V19.8928H2.50195V2.24902H0.00195312ZM1.25195 21.1428H6.0197V18.6428H1.25195V21.1428ZM14.8462 21.0917C14.8026 21.1248 14.7494 21.1428 14.6947 21.1428V18.6428C14.2021 18.6428 13.7231 18.8044 13.3313 19.1029L14.8462 21.0917ZM8.2697 20.8928C8.2697 19.6502 7.26234 18.6428 6.0197 18.6428V21.1428C5.88163 21.1428 5.7697 21.0309 5.7697 20.8928H8.2697ZM7.75 11.5C7.75 11.6381 7.63807 11.75 7.5 11.75V14.25C9.01878 14.25 10.25 13.0188 10.25 11.5H7.75ZM7.5 11.75C7.36193 11.75 7.25 11.6381 7.25 11.5H4.75C4.75 13.0188 5.98122 14.25 7.5 14.25V11.75ZM7.25 11.5C7.25 11.3619 7.36193 11.25 7.5 11.25V8.75C5.98122 8.75 4.75 9.98122 4.75 11.5H7.25ZM7.5 11.25C7.63807 11.25 7.75 11.3619 7.75 11.5H10.25C10.25 9.98122 9.01878 8.75 7.5 8.75V11.25ZM13.75 11.5C13.75 11.6381 13.6381 11.75 13.5 11.75V14.25C15.0188 14.25 16.25 13.0188 16.25 11.5H13.75ZM13.5 11.75C13.3619 11.75 13.25 11.6381 13.25 11.5H10.75C10.75 13.0188 11.9812 14.25 13.5 14.25V11.75ZM13.25 11.5C13.25 11.3619 13.3619 11.25 13.5 11.25V8.75C11.9812 8.75 10.75 9.98122 10.75 11.5H13.25ZM13.5 11.25C13.6381 11.25 13.75 11.3619 13.75 11.5H16.25C16.25 9.98122 15.0188 8.75 13.5 8.75V11.25ZM19.75 11.5C19.75 11.6381 19.6381 11.75 19.5 11.75V14.25C21.0188 14.25 22.25 13.0188 22.25 11.5H19.75ZM19.5 11.75C19.3619 11.75 19.25 11.6381 19.25 11.5H16.75C16.75 13.0188 17.9812 14.25 19.5 14.25V11.75ZM19.25 11.5C19.25 11.3619 19.3619 11.25 19.5 11.25V8.75C17.9812 8.75 16.75 9.98122 16.75 11.5H19.25ZM19.5 11.25C19.6381 11.25 19.75 11.3619 19.75 11.5H22.25C22.25 9.98122 21.0188 8.75 19.5 8.75V11.25Z" fill="black"/>
</svg>
