<svg width="27" height="28" viewBox="0 0 27 28" fill="none" xmlns="http://www.w3.org/2000/svg">
<path d="M2.22369 21.0518L12.839 26.3595C13.1206 26.5003 13.4519 26.5003 13.7335 26.3595L24.3488 21.0518C24.6876 20.8824 24.9016 20.5362 24.9016 20.1574V7.84222C24.9016 7.46345 24.6876 7.11718 24.3488 6.94779L13.7335 1.64011C13.4519 1.49935 13.1206 1.49935 12.839 1.64011L2.22368 6.94779C1.8849 7.11718 1.6709 7.46345 1.6709 7.84222V20.1574C1.6709 20.5362 1.8849 20.8824 2.22369 21.0518Z" stroke="black" stroke-width="2.5" stroke-linecap="round" stroke-linejoin="round"/>
<path d="M9.74259 10.0898V11.3398V10.0898ZM17.5627 10.0898L17.5627 8.83984H17.5627V10.0898ZM21.4728 13.9999H20.2228H21.4728ZM19.051 17.6168L18.5749 16.461L19.051 17.6168ZM8.73044 16.461C7.76113 16.0617 7.08252 15.1086 7.08252 13.9999H4.58252C4.58252 16.1563 5.90496 18.0009 7.77828 18.7726L8.73044 16.461ZM7.08252 13.9999C7.08252 12.5308 8.27347 11.3398 9.74259 11.3398V8.83984C6.89276 8.83984 4.58252 11.1501 4.58252 13.9999H7.08252ZM17.5627 11.3398C19.0319 11.3398 20.2228 12.5308 20.2228 13.9999L22.7228 13.9999C22.7228 11.1501 20.4126 8.83984 17.5627 8.83984L17.5627 11.3398ZM20.2228 13.9999C20.2228 15.1086 19.5442 16.0617 18.5749 16.461L19.527 18.7726C21.4004 18.0009 22.7228 16.1563 22.7228 13.9999L20.2228 13.9999ZM9.74259 11.3398L17.5627 11.3398V8.83984L9.74259 8.83984L9.74259 11.3398ZM11.7153 17.9326C12.848 17.0265 14.4574 17.0265 15.59 17.9326L17.1517 15.9804C15.1061 14.3439 12.1993 14.3439 10.1536 15.9804L11.7153 17.9326ZM18.5749 16.461C18.3068 16.5715 17.811 16.5078 17.1517 15.9804L15.59 17.9326C16.4738 18.6396 17.968 19.4148 19.527 18.7726L18.5749 16.461ZM7.77828 18.7726C9.33731 19.4148 10.8315 18.6396 11.7153 17.9326L10.1536 15.9804C9.49431 16.5078 8.99856 16.5715 8.73044 16.461L7.77828 18.7726Z" fill="black"/>
</svg>
