<svg width="28" height="29" viewBox="0 0 28 29" fill="none" xmlns="http://www.w3.org/2000/svg">
<circle r="2.16708" transform="matrix(0.709281 0.704926 -0.709281 0.704926 5.07416 14.2383)" stroke="black" stroke-width="2.5"/>
<circle r="2.16708" transform="matrix(0.709281 0.704926 -0.709281 0.704926 14.0002 14.2383)" stroke="black" stroke-width="2.5"/>
<circle r="2.16708" transform="matrix(0.709281 0.704926 -0.709281 0.704926 22.9264 14.2383)" stroke="black" stroke-width="2.5"/>
<circle r="2.16708" transform="matrix(0.709281 0.704926 -0.709281 0.704926 5.07416 23.183)" stroke="black" stroke-width="2.5"/>
<circle r="2.16708" transform="matrix(0.709281 0.704926 -0.709281 0.704926 14.0002 23.183)" stroke="black" stroke-width="2.5"/>
<circle r="2.16708" transform="matrix(0.709281 0.704926 -0.709281 0.704926 22.9264 23.183)" stroke="black" stroke-width="2.5"/>
<circle r="2.16708" transform="matrix(0.709281 0.704926 -0.709281 0.704926 5.07416 5.29354)" stroke="black" stroke-width="2.5"/>
<circle r="2.16708" transform="matrix(0.709281 0.704926 -0.709281 0.704926 14.0002 5.29354)" stroke="black" stroke-width="2.5"/>
<circle r="2.16708" transform="matrix(0.709281 0.704926 -0.709281 0.704926 22.9264 5.29354)" stroke="black" stroke-width="2.5"/>
</svg>
