<svg width="26" height="26" viewBox="0 0 26 26" fill="none" xmlns="http://www.w3.org/2000/svg">
<circle r="2.16708" transform="matrix(0.709281 0.704926 -0.709281 0.704926 4.07416 13.2383)" stroke="black" stroke-width="2.5"/>
<circle r="2.16708" transform="matrix(0.709281 0.704926 -0.709281 0.704926 13.0002 13.2383)" stroke="black" stroke-width="2.5"/>
<circle r="2.16708" transform="matrix(0.709281 0.704926 -0.709281 0.704926 21.9264 13.2383)" stroke="black" stroke-width="2.5"/>
<circle r="2.16708" transform="matrix(0.709281 0.704926 -0.709281 0.704926 4.07416 22.183)" stroke="black" stroke-width="2.5"/>
<circle r="2.16708" transform="matrix(0.709281 0.704926 -0.709281 0.704926 13.0002 22.183)" stroke="black" stroke-width="2.5"/>
<circle r="2.16708" transform="matrix(0.709281 0.704926 -0.709281 0.704926 21.9264 22.183)" stroke="black" stroke-width="2.5"/>
<circle r="2.16708" transform="matrix(0.709281 0.704926 -0.709281 0.704926 4.07416 4.29354)" stroke="black" stroke-width="2.5"/>
<circle r="2.16708" transform="matrix(0.709281 0.704926 -0.709281 0.704926 13.0002 4.29354)" stroke="black" stroke-width="2.5"/>
<circle r="2.16708" transform="matrix(0.709281 0.704926 -0.709281 0.704926 21.9264 4.29354)" stroke="black" stroke-width="2.5"/>
</svg>
