<svg width="20" height="27" viewBox="0 0 20 27" fill="none" xmlns="http://www.w3.org/2000/svg">
<path d="M2.38416 4.61884V14.3487L9.48874 18.9252L16.6905 14.2839V4.61884L9.53411 2L2.38416 4.61884Z" stroke="black" stroke-width="2.5" stroke-linecap="round" stroke-linejoin="round"/>
<path d="M7.08636 10.3792L9.22078 12.7486L13.1326 8.04602" stroke="black" stroke-width="2.5" stroke-linecap="round" stroke-linejoin="round"/>
<path d="M9.54113 22.5196V21.4346L9.54113 18.8713M8.53036 22.9447C9.09341 22.3817 10.0055 22.3809 10.5677 22.9431C11.1298 23.5052 11.1291 24.4174 10.5661 24.9804C10.003 25.5434 9.09086 25.5442 8.52872 24.982C7.96658 24.4199 7.96732 23.5077 8.53036 22.9447Z" stroke="black" stroke-width="2.5" stroke-linecap="square" stroke-linejoin="round"/>
<path d="M15.9885 20.0617L15.9885 17.3788L14.7251 16.1377M17.0037 20.4887C16.4382 19.9232 15.522 19.9224 14.9574 20.4871C14.3928 21.0517 14.3935 21.9679 14.959 22.5334C15.5246 23.0989 16.4408 23.0997 17.0054 22.535C17.57 21.9704 17.5693 21.0542 17.0037 20.4887Z" stroke="black" stroke-width="2.5" stroke-linecap="square" stroke-linejoin="round"/>
<path d="M3.08645 20.0617L3.08645 17.3788L4.49101 15.999M2.07122 20.4887C2.63675 19.9232 3.55293 19.9224 4.11755 20.4871C4.68218 21.0517 4.68144 21.9679 4.11591 22.5334C3.55037 23.0989 2.6342 23.0997 2.06957 22.535C1.50495 21.9704 1.50568 21.0542 2.07122 20.4887Z" stroke="black" stroke-width="2.5" stroke-linecap="square" stroke-linejoin="round"/>
</svg>
