<svg width="28" height="28" viewBox="0 0 28 28" fill="none" xmlns="http://www.w3.org/2000/svg">

<path d="M4.89062 16.9801C4.89062 17.6705 5.45027 18.2301 6.14062 18.2301C6.83098 18.2301 7.39062 17.6705 7.39062 16.9801H4.89062ZM6.14062 11.0425V9.79246C5.45027 9.79246 4.89062 10.3521 4.89062 11.0425H6.14062ZM9.65493 16.9801V18.2301C10.3453 18.2301 10.9049 17.6705 10.9049 16.9801H9.65493ZM10.9049 11.0424V9.7924H8.40493V11.0424H10.9049ZM9.62476 16.9801L8.5442 17.6085C8.768 17.9934 9.17958 18.2301 9.62476 18.2301V16.9801ZM6.17163 11.0425L7.25219 10.414C7.02838 10.0292 6.6168 9.79246 6.17163 9.79246V11.0425ZM19.126 16.9999V18.2499H21.626V16.9999H19.126ZM21.626 11.2902C21.626 10.5998 21.0663 10.0402 20.376 10.0402C19.6856 10.0402 19.126 10.5998 19.126 11.2902H21.626ZM21.8601 12.2721H23.1101V9.77206H21.8601V12.2721ZM18.8916 9.77206C18.2012 9.77206 17.6416 10.3317 17.6416 11.0221C17.6416 11.7124 18.2012 12.2721 18.8916 12.2721V9.77206ZM12.1055 16.9977C12.1055 17.688 12.6651 18.2477 13.3555 18.2477C14.0458 18.2477 14.6055 17.688 14.6055 16.9977H12.1055ZM13.3555 11.0005V9.75049C12.6651 9.75049 12.1055 10.3101 12.1055 11.0005H13.3555ZM15.1913 12.2505H16.4413V9.75049H15.1913V12.2505ZM15.1917 15.5347H16.4417V13.0347H15.1917V15.5347ZM13.3555 13.0347C12.6651 13.0347 12.1055 13.5943 12.1055 14.2847C12.1055 14.975 12.6651 15.5347 13.3555 15.5347V13.0347ZM13.6488 26.5946L13.0898 27.7126C13.4417 27.8886 13.8559 27.8886 14.2078 27.7126L13.6488 26.5946ZM2.03345 20.7869H0.783447C0.783447 21.2604 1.05095 21.6932 1.47443 21.905L2.03345 20.7869ZM2.03345 7.23566L1.47443 6.11763C1.05095 6.32937 0.783447 6.7622 0.783447 7.23566H2.03345ZM13.6488 1.42798L14.2078 0.309945C13.8559 0.13399 13.4417 0.13399 13.0898 0.309945L13.6488 1.42798ZM25.2642 7.23566H26.5142C26.5142 6.7622 26.2467 6.32937 25.8232 6.11763L25.2642 7.23566ZM25.2642 20.7869L25.8232 21.905C26.2467 21.6932 26.5142 21.2604 26.5142 20.7869H25.2642ZM7.39062 16.9801V11.0425H4.89062V16.9801H7.39062ZM10.9049 16.9801V11.0424H8.40493V16.9801H10.9049ZM9.62476 18.2301H9.65493V15.7301H9.62476V18.2301ZM6.14062 12.2925H6.17163V9.79246H6.14062V12.2925ZM5.09108 11.6709L8.5442 17.6085L10.7053 16.3517L7.25219 10.414L5.09108 11.6709ZM21.626 16.9999V11.2902H19.126V16.9999H21.626ZM21.8601 9.77206H18.8916V12.2721H21.8601V9.77206ZM14.6055 16.9977V11.0005H12.1055V16.9977H14.6055ZM13.3555 12.2505H15.1913V9.75049H13.3555V12.2505ZM15.1917 13.0347H13.3555V15.5347H15.1917V13.0347ZM14.2078 25.4766L2.59246 19.6689L1.47443 21.905L13.0898 27.7126L14.2078 25.4766ZM3.28345 20.7869V7.23566H0.783447V20.7869H3.28345ZM2.59246 8.35369L14.2078 2.54601L13.0898 0.309945L1.47443 6.11763L2.59246 8.35369ZM13.0898 2.54601L24.7052 8.35369L25.8232 6.11763L14.2078 0.309945L13.0898 2.54601ZM24.0142 7.23566V20.7869H26.5142V7.23566H24.0142ZM24.7052 19.6689L13.0898 25.4766L14.2078 27.7126L25.8232 21.905L24.7052 19.6689Z" fill="black"/>
</svg>
