<svg width="28" height="29" viewBox="0 0 28 29" fill="none" xmlns="http://www.w3.org/2000/svg">
<path fill-rule="evenodd" clip-rule="evenodd" d="M24.9329 18.4069C22.9658 20.0772 20.2424 20.7935 17.5563 20.0914C13.1808 18.9477 10.5608 14.4736 11.7045 10.0981C12.6333 6.54462 15.7587 4.14905 19.244 3.98692C18.5496 3.64359 17.8102 3.36529 17.0314 3.16173C10.8543 1.54715 4.53781 5.24587 2.92323 11.4231C1.30865 17.6002 5.00737 23.9167 11.1845 25.5313C16.9727 27.0442 22.8831 23.892 24.9329 18.4069Z" fill="white"/>
<path d="M24.9329 18.4069L26.1038 18.8445C26.3031 18.3114 26.1171 17.7111 25.6513 17.384C25.1856 17.0569 24.5577 17.0857 24.1239 17.4541L24.9329 18.4069ZM19.244 3.98692L19.3021 5.23557C19.8714 5.20909 20.3507 4.80089 20.4674 4.24306C20.5842 3.68524 20.3089 3.11905 19.798 2.86643L19.244 3.98692ZM17.2402 21.3008C20.3374 22.1103 23.4774 21.2826 25.742 19.3598L24.1239 17.4541C22.4542 18.8717 20.1475 19.4767 17.8724 18.882L17.2402 21.3008ZM10.4951 9.78197C9.17688 14.8254 12.1967 19.9825 17.2402 21.3008L17.8724 18.882C14.1648 17.9129 11.9448 14.1218 12.9139 10.4142L10.4951 9.78197ZM19.1859 2.73827C15.1697 2.92509 11.5662 5.68426 10.4951 9.78197L12.9139 10.4142C13.7004 7.40498 16.3477 5.373 19.3021 5.23557L19.1859 2.73827ZM19.798 2.86643C19.0281 2.48569 18.209 2.17751 17.3476 1.95236L16.7153 4.3711C17.4115 4.55307 18.0712 4.8015 18.6899 5.10742L19.798 2.86643ZM17.3476 1.95236C10.5025 0.163205 3.50301 4.26185 1.71386 11.1069L4.1326 11.7392C5.5726 6.22989 11.2061 2.93111 16.7153 4.3711L17.3476 1.95236ZM1.71386 11.1069C-0.0752996 17.952 4.02335 24.9515 10.8684 26.7406L11.5006 24.3219C5.99139 22.8819 2.6926 17.2484 4.1326 11.7392L1.71386 11.1069ZM10.8684 26.7406C17.2832 28.4173 23.8319 24.9239 26.1038 18.8445L23.762 17.9694C21.9343 22.8601 16.6622 25.671 11.5006 24.3219L10.8684 26.7406Z" fill="black"/>
</svg>
