<svg width="29" height="29" viewBox="0 0 29 29" fill="none" xmlns="http://www.w3.org/2000/svg">
<path d="M22.7429 22.1873L19.5327 17.5137" stroke="black" stroke-width="2.5" stroke-linecap="round"/>
<path d="M9.97401 17.5283L6.72186 22.1729" stroke="black" stroke-width="2.5" stroke-linecap="round"/>
<path d="M21.5967 24.5222C21.5967 26.1476 22.9144 27.4652 24.5398 27.4652C26.1652 27.4652 27.4828 26.1476 27.4828 24.5222C27.4828 22.8968 26.1652 21.5791 24.5398 21.5791C22.9144 21.5791 21.5967 22.8968 21.5967 24.5222Z" stroke="black" stroke-width="2.5" stroke-linecap="round" stroke-linejoin="round"/>
<path d="M2.00003 24.5222C2.00003 26.1476 3.31769 27.4652 4.9431 27.4652C6.56851 27.4652 7.88617 26.1476 7.88617 24.5222C7.88617 22.8968 6.56851 21.5791 4.9431 21.5791C3.31769 21.5791 2.00003 22.8968 2.00003 24.5222Z" stroke="black" stroke-width="2.5" stroke-linecap="round" stroke-linejoin="round"/>
<path d="M6.24286 10.5C6.24286 15.1944 10.0484 19 14.7429 19C19.4373 19 23.2429 15.1944 23.2429 10.5C23.2429 5.80558 19.4373 2 14.7429 2C10.0484 2 6.24286 5.80558 6.24286 10.5Z" stroke="black" stroke-width="2.5" stroke-miterlimit="10"/>
</svg>
