<svg width="29" height="29" viewBox="0 0 29 29" fill="none" xmlns="http://www.w3.org/2000/svg">
<path d="M20.563 16.8059C20.1721 16.2369 19.3939 16.0925 18.8249 16.4833C18.2559 16.8742 18.1114 17.6523 18.5023 18.2214L20.563 16.8059ZM10.9979 18.2453C11.3939 17.6798 11.2565 16.9003 10.6909 16.5044C10.1254 16.1084 9.34601 16.2458 8.95003 16.8113L10.9979 18.2453ZM24.5397 27.4652L24.5397 28.7152L24.5397 27.4652ZM21.5967 24.5222L22.8467 24.5222L21.5967 24.5222ZM24.5397 21.5791L24.5397 22.8291L24.5397 21.5791ZM27.4828 24.5222L28.7328 24.5222L27.4828 24.5222ZM4.94307 27.4652L4.94307 28.7152L4.94307 27.4652ZM2 24.5222L3.25 24.5222L2 24.5222ZM4.94307 21.5791L4.94307 22.8291L4.94307 21.5791ZM7.88614 24.5222L9.13614 24.5222L7.88614 24.5222ZM14.7428 19L14.7428 20.25L14.7428 19ZM6.24283 10.5L7.49283 10.5L6.24283 10.5ZM14.7428 2L14.7428 3.25L14.7428 2ZM23.2428 10.5L24.4928 10.5L23.2428 10.5ZM23.7732 21.4796L20.563 16.8059L18.5023 18.2214L21.7125 22.895L23.7732 21.4796ZM8.95003 16.8113L5.69789 21.4559L7.74577 22.8898L10.9979 18.2453L8.95003 16.8113ZM24.5397 26.2152C23.6047 26.2152 22.8467 25.4572 22.8467 24.5222L20.3467 24.5222C20.3467 26.8379 22.224 28.7152 24.5397 28.7152L24.5397 26.2152ZM22.8467 24.5222C22.8467 23.5871 23.6047 22.8291 24.5397 22.8291L24.5397 20.3291C22.224 20.3291 20.3467 22.2064 20.3467 24.5222L22.8467 24.5222ZM24.5397 22.8291C25.4748 22.8291 26.2328 23.5871 26.2328 24.5222L28.7328 24.5222C28.7328 22.2064 26.8555 20.3291 24.5397 20.3291L24.5397 22.8291ZM26.2328 24.5222C26.2328 25.4572 25.4748 26.2152 24.5397 26.2152L24.5397 28.7152C26.8555 28.7152 28.7328 26.8379 28.7328 24.5222L26.2328 24.5222ZM4.94307 26.2152C4.00801 26.2152 3.25 25.4572 3.25 24.5222L0.75 24.5222C0.75 26.8379 2.6273 28.7152 4.94307 28.7152L4.94307 26.2152ZM3.25 24.5222C3.25 23.5871 4.00801 22.8291 4.94307 22.8291L4.94307 20.3291C2.6273 20.3291 0.75 22.2064 0.75 24.5222L3.25 24.5222ZM4.94307 22.8291C5.87813 22.8291 6.63614 23.5871 6.63614 24.5222L9.13614 24.5222C9.13614 22.2064 7.25884 20.3291 4.94307 20.3291L4.94307 22.8291ZM6.63614 24.5222C6.63614 25.4572 5.87813 26.2152 4.94307 26.2152L4.94307 28.7152C7.25884 28.7152 9.13614 26.8379 9.13614 24.5222L6.63614 24.5222ZM14.7428 17.75C10.7388 17.75 7.49283 14.5041 7.49283 10.5L4.99283 10.5C4.99283 15.8848 9.35805 20.25 14.7428 20.25L14.7428 17.75ZM7.49283 10.5C7.49283 6.49594 10.7388 3.25 14.7428 3.25L14.7428 0.75C9.35805 0.75 4.99283 5.11522 4.99283 10.5L7.49283 10.5ZM14.7428 3.25C18.7469 3.25 21.9928 6.49594 21.9928 10.5L24.4928 10.5C24.4928 5.11522 20.1276 0.75 14.7428 0.75L14.7428 3.25ZM21.9928 10.5C21.9928 14.5041 18.7469 17.75 14.7428 17.75L14.7428 20.25C20.1276 20.25 24.4928 15.8848 24.4928 10.5L21.9928 10.5Z" fill="black"/>
</svg>
