<svg width="28" height="28" viewBox="0 0 28 28" fill="none" xmlns="http://www.w3.org/2000/svg">

<path d="M13.92 9.89227C15.2826 9.89227 21.0233 9.87301 24.3262 9.86152C25.634 9.85697 26.6931 10.9159 26.6931 12.2237V12.2237C26.6931 13.5282 25.6356 14.5857 24.3311 14.5857L15.9777 14.5857L18.6735 14.5858C19.8104 14.5858 20.7321 15.6452 20.7321 16.9521C20.7321 18.2589 19.8104 19.3183 18.6735 19.3183L15.9777 19.3183L17.5282 19.3183C18.6652 19.3183 19.5868 20.4028 19.5868 21.7096C19.5868 23.0165 18.6652 24.0759 17.5282 24.0759L15.374 24.0759L12.5545 24.0759C8.55859 24.0758 6.95997 19.8648 6.95997 19.8648L1.30767 19.8648L1.30767 11.0563L6.95997 11.0563C6.95997 11.0563 7.51045 9.61941 9.61132 6.80791C11.4861 4.29899 13.2143 3.92405 13.5646 3.87241C13.6083 3.86597 13.6511 3.86465 13.6953 3.86465V3.86465C15.4701 3.86465 16.3326 6.09722 15.1274 7.40016C13.9117 8.71448 13.0618 9.89227 13.92 9.89227Z" stroke="black" stroke-width="2.5" stroke-linecap="round" stroke-linejoin="round"/>
</svg>
