<svg width="28" height="24" viewBox="0 0 28 24" fill="none" xmlns="http://www.w3.org/2000/svg">
<path d="M13.92 7.89227C15.2826 7.89227 21.0233 7.87301 24.3262 7.86152C25.634 7.85697 26.6931 8.91587 26.6931 10.2237V10.2237C26.6931 11.5282 25.6356 12.5857 24.3311 12.5857L15.9777 12.5857L18.6735 12.5858C19.8104 12.5858 20.7321 13.6452 20.7321 14.9521C20.7321 16.2589 19.8104 17.3183 18.6735 17.3183L15.9777 17.3183L17.5282 17.3183C18.6652 17.3183 19.5868 18.4028 19.5868 19.7096C19.5868 21.0165 18.6652 22.0759 17.5282 22.0759L15.374 22.0759L12.5545 22.0759C8.55859 22.0758 6.95997 17.8648 6.95997 17.8648L1.30767 17.8648L1.30767 9.05633L6.95997 9.05633C6.95997 9.05633 7.51045 7.61941 9.61132 4.80791C11.4861 2.29899 13.2143 1.92405 13.5646 1.87241C13.6083 1.86597 13.6511 1.86465 13.6953 1.86465V1.86465C15.4701 1.86465 16.3326 4.09722 15.1274 5.40016C13.9117 6.71448 13.0618 7.89227 13.92 7.89227Z" stroke="black" stroke-width="2.5" stroke-linecap="round" stroke-linejoin="round"/>
</svg>
