<svg width="27" height="28" viewBox="0 0 27 28" fill="none" xmlns="http://www.w3.org/2000/svg">
<path d="M5.42264 22.1526H18.0673C20.1591 20.3655 21.49 17.7123 21.49 14.745C21.49 9.36324 17.1267 5 11.745 5C6.36324 5 2 9.36324 2 14.745C2 17.7123 3.33088 20.3646 5.42264 22.1526V22.1526Z" stroke="black" stroke-width="2.5" stroke-linecap="round" stroke-linejoin="round"/>
<path d="M8.5 5.22779C10.2838 3.24609 12.869 2 15.745 2C21.1267 2 25.49 6.36325 25.49 11.745C25.49 14.7123 24.1591 17.3655 22.0673 19.1526C22.7247 20.6667 23.9506 22.1823 24.6226 23.69H20" stroke="black" stroke-width="2.5" stroke-linecap="round" stroke-linejoin="round"/>
<path d="M16.7638 13.9867C16.7638 13.4083 16.5281 12.8548 16.111 12.454L14.9337 11.3227C14.5388 10.942 14.0745 10.6421 13.5666 10.4397C12.5311 10.0338 11.3827 10.0338 10.3472 10.4397C9.84976 10.6455 9.39573 10.9452 9.00952 11.3227L7.79284 12.4643C7.37327 12.858 7.13525 13.4077 7.13525 13.9831V13.9831C7.13525 14.5408 7.35895 15.0752 7.75623 15.4666L8.96542 16.6579C9.5729 17.2238 10.3257 17.606 11.1379 17.7608C11.9502 17.9156 12.7892 17.8369 13.5592 17.5335C14.0654 17.3311 14.5292 17.034 14.9263 16.6579L16.1112 15.5192C16.5282 15.1184 16.7638 14.565 16.7638 13.9867V13.9867Z" stroke="black" stroke-width="2.5" stroke-linecap="square"/>
<path d="M11.9761 14.0133L11.9495 13.9867" stroke="black" stroke-width="3.44828" stroke-miterlimit="10" stroke-linecap="round"/>
<path d="M11.9761 14.0133L11.9495 13.9867" stroke="black" stroke-width="3.44828" stroke-miterlimit="10" stroke-linecap="round"/>
<path d="M18.6392 22.1526H4.85111C4.2953 23.4328 2.8775 26.69 2.8775 26.69H20.6226C19.9506 25.1823 19.2966 23.6667 18.6392 22.1526Z" stroke="black" stroke-width="2.5" stroke-linecap="round" stroke-linejoin="round"/>
</svg>
