<svg width="27" height="29" viewBox="0 0 27 29" fill="none" xmlns="http://www.w3.org/2000/svg">
<path d="M13.656 12.5311L13.625 12.5M5.999 22.041H20.773C23.217 19.953 24.772 16.853 24.772 13.386C24.772 7.098 19.674 2 13.386 2C7.098 2 2 7.098 2 13.386C2 16.853 3.555 19.952 5.999 22.041ZM17.1116 9.38743L18.4873 10.7093C18.9746 11.1775 19.25 11.8242 19.25 12.5C19.25 13.1757 18.9746 13.8223 18.4874 14.2905L17.1031 15.6211C16.6391 16.0605 16.0972 16.4076 15.5057 16.6441C14.606 16.9986 13.6257 17.0906 12.6767 16.9097C11.7277 16.7288 10.8481 16.2823 10.1384 15.6211L8.72554 14.2291C8.26136 13.7718 8 13.1474 8 12.4958C8 11.8235 8.2781 11.1813 8.76832 10.7213L10.1899 9.38743C10.6411 8.94629 11.1716 8.59613 11.7529 8.35571C12.9627 7.88143 14.3045 7.88143 15.5143 8.35571C16.1078 8.59221 16.6502 8.94257 17.1116 9.38743ZM21.4412 22.041H5.3312C4.68179 23.5368 3.02524 27.3425 3.02524 27.3425H23.7585C22.9733 25.5809 22.2093 23.8101 21.4412 22.041Z" stroke="black" stroke-width="2.5" stroke-linecap="round" stroke-linejoin="round"/>
</svg>
