<svg width="28" height="19" viewBox="0 0 28 19" fill="none" xmlns="http://www.w3.org/2000/svg">
<path d="M6.13782 3.04807C6.13782 4.64779 4.84099 5.94462 3.24127 5.94462" stroke="black" stroke-width="2.5" stroke-linecap="round" stroke-linejoin="round"/>
<path d="M21.8622 16.2894C21.8622 14.6897 23.1591 13.3929 24.7588 13.3929" stroke="black" stroke-width="2.5" stroke-linecap="round" stroke-linejoin="round"/>
<path d="M6.13789 16.2894C6.13789 14.6897 4.84105 13.3929 3.24133 13.3929" stroke="black" stroke-width="2.5" stroke-linecap="round" stroke-linejoin="round"/>
<path d="M21.8622 3.04805C21.8622 4.64777 23.1591 5.9446 24.7588 5.9446" stroke="black" stroke-width="2.5" stroke-linecap="round" stroke-linejoin="round"/>
<path d="M26 1.80664H2V17.5308H26V1.80664Z" stroke="black" stroke-width="2.5" stroke-linejoin="round"/>
<path d="M13.9999 12.5652C15.5996 12.5652 16.8964 11.2684 16.8964 9.66868C16.8964 8.06896 15.5996 6.77213 13.9999 6.77213C12.4002 6.77213 11.1033 8.06896 11.1033 9.66868C11.1033 11.2684 12.4002 12.5652 13.9999 12.5652Z" fill="white" stroke="black" stroke-width="2.5" stroke-linecap="round" stroke-linejoin="round"/>
<path d="M13.9999 12.5652C15.5996 12.5652 16.8964 11.2684 16.8964 9.66868C16.8964 8.06896 15.5996 6.77213 13.9999 6.77213C12.4002 6.77213 11.1033 8.06896 11.1033 9.66868C11.1033 11.2684 12.4002 12.5652 13.9999 12.5652Z" fill="white" stroke="black" stroke-width="2.5" stroke-linecap="round" stroke-linejoin="round"/>
<path d="M13.9999 12.5652C15.5996 12.5652 16.8964 11.2684 16.8964 9.66868C16.8964 8.06896 15.5996 6.77213 13.9999 6.77213C12.4002 6.77213 11.1033 8.06896 11.1033 9.66868C11.1033 11.2684 12.4002 12.5652 13.9999 12.5652Z" fill="white" stroke="black" stroke-width="2.5" stroke-linecap="round" stroke-linejoin="round"/>
</svg>
