<svg width="28" height="19" viewBox="0 0 28 19" fill="none" xmlns="http://www.w3.org/2000/svg">
<path d="M5.74127 2.04807C5.74127 3.98106 4.17427 5.54807 2.24127 5.54807" stroke="black" stroke-width="2.5" stroke-linecap="round" stroke-linejoin="round"/>
<path d="M22.2588 17.2894C22.2588 15.3564 23.8258 13.7894 25.7588 13.7894" stroke="black" stroke-width="2.5" stroke-linecap="round" stroke-linejoin="round"/>
<path d="M5.74133 17.2894C5.74133 15.3564 4.17433 13.7894 2.24133 13.7894" stroke="black" stroke-width="2.5" stroke-linecap="round" stroke-linejoin="round"/>
<path d="M22.2588 2.04803C22.2588 3.98103 23.8258 5.54803 25.7588 5.54803" stroke="black" stroke-width="2.5" stroke-linecap="round" stroke-linejoin="round"/>
<path d="M26 1.80664H2V17.5308H26V1.80664Z" stroke="black" stroke-width="2.5" stroke-linecap="round" stroke-linejoin="round"/>
<path d="M13.9999 12.5652C15.5996 12.5652 16.8964 11.2684 16.8964 9.66868C16.8964 8.06896 15.5996 6.77213 13.9999 6.77213C12.4002 6.77213 11.1033 8.06896 11.1033 9.66868C11.1033 11.2684 12.4002 12.5652 13.9999 12.5652Z" fill="white" stroke="black" stroke-width="2.5" stroke-linecap="round" stroke-linejoin="round"/>
<path d="M13.9999 12.5652C15.5996 12.5652 16.8964 11.2684 16.8964 9.66868C16.8964 8.06896 15.5996 6.77213 13.9999 6.77213C12.4002 6.77213 11.1033 8.06896 11.1033 9.66868C11.1033 11.2684 12.4002 12.5652 13.9999 12.5652Z" fill="white" stroke="black" stroke-width="2.5" stroke-linecap="round" stroke-linejoin="round"/>
<path d="M13.9999 12.5652C15.5996 12.5652 16.8964 11.2684 16.8964 9.66868C16.8964 8.06896 15.5996 6.77213 13.9999 6.77213C12.4002 6.77213 11.1033 8.06896 11.1033 9.66868C11.1033 11.2684 12.4002 12.5652 13.9999 12.5652Z" fill="white" stroke="black" stroke-width="2.5" stroke-linecap="round" stroke-linejoin="round"/>
</svg>
