<svg width="28" height="26" viewBox="0 0 28 26" fill="none" xmlns="http://www.w3.org/2000/svg">
<path d="M25.7113 2H2.31885C1.76656 2 1.31885 2.44772 1.31885 3V22.98C1.31885 23.5323 1.76656 23.98 2.31885 23.98H25.7113C26.2636 23.98 26.7113 23.5323 26.7113 22.98V3C26.7113 2.44772 26.2636 2 25.7113 2Z" stroke="black" stroke-width="2.5" stroke-miterlimit="10" stroke-linecap="round"/>
<path d="M1.5769 13.0701C13.6442 7.98009 13.6442 22.6401 26.34 16.3101" stroke="black" stroke-width="2.5" stroke-linecap="round" stroke-linejoin="round"/>
<path d="M20.02 13.0701C21.6769 13.0701 23.02 11.7269 23.02 10.0701C23.02 8.41321 21.6769 7.07007 20.02 7.07007C18.3632 7.07007 17.02 8.41321 17.02 10.0701C17.02 11.7269 18.3632 13.0701 20.02 13.0701Z" fill="black"/>
</svg>
