<svg width="23" height="29" viewBox="0 0 23 29" fill="none" xmlns="http://www.w3.org/2000/svg">
<path d="M12.3864 11.7741L12.3636 23.3541M11.8378 17.3715L8.66481 17.3653L8.6532 21.2235L11.8252 21.2288M21.5739 2H2V27.446H21.5739V2ZM10.1722 10.7635C9.9258 10.4938 9.735 10.1781 9.61068 9.83458C9.48636 9.49103 9.43094 9.12631 9.4476 8.76126C9.46426 8.39621 9.55267 8.03797 9.70778 7.70699C9.86288 7.37601 10.0817 7.07878 10.3516 6.83227C10.9019 6.34149 11.6244 6.08906 12.3604 6.13044C13.0964 6.17182 13.7857 6.50362 14.2769 7.05296C14.5233 7.32271 14.7141 7.63836 14.8384 7.98191C14.9627 8.32546 15.0181 8.69018 15.0015 9.05523C14.9848 9.42028 14.8964 9.77852 14.7413 10.1095C14.5862 10.4405 14.3674 10.7377 14.0975 10.9842C13.547 11.4747 12.8246 11.727 12.0887 11.6856C11.3528 11.6442 10.6635 11.3126 10.1722 10.7635Z" stroke="black" stroke-width="2.5" stroke-linecap="round" stroke-linejoin="round"/>
</svg>
