<svg width="29" height="29" viewBox="0 0 29 29" fill="none" xmlns="http://www.w3.org/2000/svg">
<path d="M24.5046 27.5279C26.13 27.5279 27.4477 26.2102 27.4477 24.5848C27.4477 22.9594 26.13 21.6417 24.5046 21.6417C22.8792 21.6417 21.5615 22.9594 21.5615 24.5848C21.5615 26.2102 22.8792 27.5279 24.5046 27.5279Z" fill="white" stroke="black" stroke-width="2.5" stroke-linecap="round" stroke-linejoin="round"/>
<path d="M4.94307 27.5281C6.56848 27.5281 7.88614 26.2104 7.88614 24.585C7.88614 22.9596 6.56848 21.642 4.94307 21.642C3.31766 21.642 2 22.9596 2 24.585C2 26.2104 3.31766 27.5281 4.94307 27.5281Z" fill="white" stroke="black" stroke-width="2.5" stroke-linecap="round" stroke-linejoin="round"/>
<path d="M4.94336 21.6476L4.94336 20.2518C4.94336 19.1473 5.83879 18.2518 6.94336 18.2518L22.0956 18.2518C23.2002 18.2518 24.0956 19.1473 24.0956 20.2518L24.0956 21.6476" stroke="black" stroke-width="2.5" stroke-miterlimit="10" stroke-linecap="round" stroke-linejoin="round"/>
<path d="M16.3357 6.78235L16.7665 6.22967C17.5724 5.1957 17.4775 3.72231 16.5456 2.80026C15.5376 1.80292 13.9146 1.80293 12.9066 2.80027C11.9746 3.72231 11.8797 5.1957 12.6857 6.22968L13.1163 6.78223C13.4104 7.15952 13.2296 7.71451 12.7698 7.84626L12.1535 8.02283C10.3713 8.53344 9.14297 10.1631 9.14297 12.017V13.8789H20.3047V12.0139C20.3047 10.1615 19.0777 8.53324 17.2971 8.02273L16.6821 7.84641C16.2223 7.71458 16.0416 7.15961 16.3357 6.78235Z" fill="white" stroke="black" stroke-width="2.5" stroke-linecap="round" stroke-linejoin="round"/>
<path d="M14.7237 14.0588L14.7237 17.9733" stroke="black" stroke-width="2.5" stroke-linecap="round" stroke-linejoin="round"/>
</svg>
