<svg width="24" height="28" viewBox="0 0 24 28" fill="none" xmlns="http://www.w3.org/2000/svg">
<path d="M2.21326 1.2771H21.7871V26.7231H2.21326V1.2771Z" stroke="black" stroke-width="2.5" stroke-linecap="round" stroke-linejoin="round"/>
<path d="M10.4154 12.3239L9.93744 11.7584C9.0656 10.7267 9.13504 9.19771 10.0968 8.2493C11.1033 7.25678 12.7204 7.25678 13.7269 8.2493C14.6886 9.19771 14.7581 10.7267 13.8862 11.7584L13.4084 12.3238C13.0892 12.7016 13.2696 13.283 13.7467 13.4136L14.4496 13.606C16.311 14.1155 17.6017 15.807 17.6017 17.7369V19.5409H6.22656V17.7337C6.22656 15.8055 7.51601 14.1153 9.37576 13.6059L10.0772 13.4137C10.5542 13.2831 10.7346 12.7017 10.4154 12.3239Z" stroke="black" stroke-width="2.5" stroke-linecap="round" stroke-linejoin="round"/>
</svg>
