<svg width="26" height="22" viewBox="0 0 26 22" fill="none" xmlns="http://www.w3.org/2000/svg">
<path d="M4.1272 11.0303V12.2803H6.6272V11.0303H4.1272ZM8.20271 15.7979C7.791 15.2437 7.00802 15.1282 6.45386 15.5399C5.8997 15.9516 5.78421 16.7346 6.19592 17.2888L8.20271 15.7979ZM22.75 11.0303C22.75 15.4586 19.1452 19.0566 14.6886 19.0566V21.5566C20.517 21.5566 25.25 16.8482 25.25 11.0303H22.75ZM6.6272 11.0303C6.6272 6.60191 10.232 3.00397 14.6886 3.00397V0.503967C8.86014 0.503967 4.1272 5.21231 4.1272 11.0303H6.6272ZM14.6886 3.00397C19.1452 3.00397 22.75 6.60191 22.75 11.0303H25.25C25.25 5.21231 20.517 0.503967 14.6886 0.503967V3.00397ZM14.6886 19.0566C12.0296 19.0566 9.67252 17.7762 8.20271 15.7979L6.19592 17.2888C8.11847 19.8766 11.2075 21.5566 14.6886 21.5566V19.0566Z" fill="black"/>
<path d="M15.5923 6.19342V12.1934L12.7491 15.6388" stroke="black" stroke-width="2.5" stroke-linecap="round" stroke-linejoin="round"/>
<path d="M8.9231 9.25684L5.47008 12.8038L1.9231 9.3508" stroke="black" stroke-width="2.5" stroke-linecap="round" stroke-linejoin="round"/>
</svg>
