<svg width="26" height="22" viewBox="0 0 26 22" fill="none" xmlns="http://www.w3.org/2000/svg">
<path d="M5.3772 11.0303H4.1272V11.0786L4.13092 11.1267L5.3772 11.0303ZM8.20271 15.7979C7.791 15.2437 7.00802 15.1282 6.45386 15.5399C5.8997 15.9516 5.78421 16.7346 6.19592 17.2888L8.20271 15.7979ZM4.21247 12.1805C4.26573 12.8688 4.86688 13.3836 5.55518 13.3304C6.24347 13.2771 6.75827 12.676 6.70501 11.9877L4.21247 12.1805ZM16.8423 6.19342C16.8423 5.50306 16.2826 4.94342 15.5923 4.94342C14.9019 4.94342 14.3423 5.50306 14.3423 6.19342H16.8423ZM15.5923 12.1934L16.5564 12.989C16.7412 12.7651 16.8423 12.4838 16.8423 12.1934H15.5923ZM11.7849 14.8432C11.3455 15.3757 11.421 16.1635 11.9534 16.6029C12.4859 17.0423 13.2738 16.9669 13.7132 16.4344L11.7849 14.8432ZM9.81876 10.1288C10.3003 9.63411 10.2897 8.84273 9.79504 8.36117C9.30037 7.87961 8.50899 7.89023 8.02743 8.3849L9.81876 10.1288ZM5.47008 12.8038L4.59814 13.6995C5.0928 14.181 5.88418 14.1704 6.36574 13.6758L5.47008 12.8038ZM2.79504 8.45513C2.30037 7.97357 1.50899 7.98419 1.02743 8.47886C0.545869 8.97352 0.556492 9.7649 1.05116 10.2465L2.79504 8.45513ZM22.75 11.0303C22.75 15.4586 19.1452 19.0566 14.6886 19.0566V21.5566C20.517 21.5566 25.25 16.8482 25.25 11.0303H22.75ZM6.6272 11.0303C6.6272 6.60191 10.232 3.00397 14.6886 3.00397V0.503967C8.86014 0.503967 4.1272 5.21231 4.1272 11.0303H6.6272ZM14.6886 3.00397C19.1452 3.00397 22.75 6.60191 22.75 11.0303H25.25C25.25 5.21231 20.517 0.503967 14.6886 0.503967V3.00397ZM14.6886 19.0566C12.0296 19.0566 9.67252 17.7762 8.20271 15.7979L6.19592 17.2888C8.11847 19.8766 11.2075 21.5566 14.6886 21.5566V19.0566ZM4.13092 11.1267L4.21247 12.1805L6.70501 11.9877L6.62347 10.9338L4.13092 11.1267ZM14.3423 6.19342V12.1934H16.8423V6.19342H14.3423ZM14.6282 11.3978L11.7849 14.8432L13.7132 16.4344L16.5564 12.989L14.6282 11.3978ZM8.02743 8.3849L4.57441 11.9319L6.36574 13.6758L9.81876 10.1288L8.02743 8.3849ZM6.34202 11.9081L2.79504 8.45513L1.05116 10.2465L4.59814 13.6995L6.34202 11.9081Z" fill="black"/>
</svg>
