<svg width="28" height="28" viewBox="0 0 28 28" fill="none" xmlns="http://www.w3.org/2000/svg">
<g clip-path="url(#clip0_3_4408)">
<rect width="28" height="28" fill="white"/>
<path d="M6.52809 17.6235L5.43344 14.5171C5.01534 13.3309 5.26181 12.0105 6.07806 11.0564C7.47606 9.42268 9.99666 9.42268 11.3947 11.0564C12.2119 12.0115 12.4574 13.3309 12.0393 14.5171L10.9456 17.6225C10.6572 18.4413 10.9786 19.3513 11.716 19.8058L16.2153 22.5748V26.7362H1.26437V22.5738L5.75774 19.8058C6.49516 19.3513 6.81648 18.4413 6.52809 17.6225V17.6235Z" stroke="black" stroke-width="2.5" stroke-linecap="round" stroke-linejoin="round"/>
<path d="M2.58966 22.4078L14.8899 22.4081" stroke="black" stroke-width="2.5" stroke-linecap="square" stroke-linejoin="round"/>
<path d="M26.7358 8.11523H20.8924C20.3401 8.11523 19.8924 7.66752 19.8924 7.11523V1.24988" stroke="black" stroke-width="2.5" stroke-linecap="round"/>
<path d="M20.1854 1.54396C19.9978 1.3557 19.743 1.24988 19.4772 1.24988H8.18259C7.6303 1.24988 7.18259 1.69759 7.18259 2.24988V10.1948C7.18259 10.1952 7.18263 10.1957 7.18271 10.1962V10.1962C7.18365 10.2013 7.18929 10.2041 7.194 10.2018C8.57751 9.51999 10.3173 9.79689 11.3946 11.0564C12.2118 12.0114 12.4573 13.3308 12.0392 14.5171L10.9455 17.6224C10.6571 18.4413 10.9785 19.3513 11.7159 19.8058L15.7399 22.2822C16.0353 22.464 16.2154 22.786 16.2158 23.1329L16.2183 25.7512C16.2188 26.3031 16.6664 26.7502 17.2183 26.7502H25.7347C26.287 26.7502 26.7347 26.3025 26.7347 25.7502V8.52847C26.7347 8.26383 26.6298 8.00998 26.443 7.82255L20.1854 1.54396Z" stroke="black" stroke-width="2.5" stroke-linecap="round" stroke-linejoin="round"/>
</g>
<defs>
<clipPath id="clip0_3_4408">
<rect width="28" height="28" fill="white"/>
</clipPath>
</defs>
</svg>
