<svg width="28" height="28" viewBox="0 0 28 28" fill="none" xmlns="http://www.w3.org/2000/svg">
<path d="M6.52809 17.6234L5.43344 14.5171C5.01534 13.3308 5.26181 12.0104 6.07806 11.0564C7.47606 9.42266 9.99666 9.42266 11.3947 11.0564C12.2119 12.0114 12.4574 13.3308 12.0393 14.5171L10.9456 17.6224C10.6572 18.4413 10.9786 19.3513 11.716 19.8058L16.2153 22.5747V26.7362H1.26437V22.5737L5.75774 19.8058C6.49516 19.3513 6.81648 18.4413 6.52809 17.6224V17.6234Z" stroke="black" stroke-width="2.5" stroke-linecap="round" stroke-linejoin="round"/>
<path d="M2.58966 22.4078L14.8899 22.4081" stroke="black" stroke-width="2.5" stroke-linecap="square" stroke-linejoin="round"/>
<path d="M19.8924 1.24988H7.1826V10.1955L7.1846 10.2065C8.56963 9.51874 10.3149 9.79403 11.3946 11.0564C12.2118 12.0114 12.4573 13.3308 12.0392 14.5171L10.9455 17.6224C10.6572 18.4413 10.9785 19.3513 11.7159 19.8058L16.2152 22.5747L16.2192 26.7502H26.7347V8.11523L19.8924 1.24988Z" stroke="black" stroke-width="2.5" stroke-linecap="round" stroke-linejoin="round"/>
<path d="M25.5 8.11523L20.8924 8.11523C20.3401 8.11523 19.8924 7.66752 19.8924 7.11523V3" stroke="black" stroke-width="2.5" stroke-linecap="square"/>
</svg>
