<svg width="28" height="28" viewBox="0 0 28 28" fill="none" xmlns="http://www.w3.org/2000/svg">
<g clip-path="url(#clip0_3_4231)">
<rect width="28" height="28" fill="white"/>
<path d="M14.0001 27.9646C21.7125 27.9646 27.9647 21.7124 27.9647 14H25.4647C25.4647 20.3317 20.3318 25.4646 14.0001 25.4646V27.9646ZM0.0355225 14C0.0355225 21.7124 6.28768 27.9646 14.0001 27.9646V25.4646C7.66839 25.4646 2.53552 20.3317 2.53552 14H0.0355225ZM14.0001 0.0354004C6.28768 0.0354004 0.0355225 6.28756 0.0355225 14H2.53552C2.53552 7.66827 7.66839 2.5354 14.0001 2.5354V0.0354004ZM27.9647 14C27.9647 6.28756 21.7125 0.0354004 14.0001 0.0354004V2.5354C20.3318 2.5354 25.4647 7.66827 25.4647 14H27.9647ZM14.0051 20.2502C17.4569 20.2502 20.2551 17.452 20.2551 14.0002H17.7551C17.7551 16.0713 16.0762 17.7502 14.0051 17.7502V20.2502ZM7.75513 14.0002C7.75513 17.452 10.5533 20.2502 14.0051 20.2502V17.7502C11.9341 17.7502 10.2551 16.0713 10.2551 14.0002H7.75513ZM14.0051 7.75024C10.5533 7.75024 7.75513 10.5485 7.75513 14.0002H10.2551C10.2551 11.9292 11.9341 10.2502 14.0051 10.2502V7.75024ZM20.2551 14.0002C20.2551 10.5485 17.4569 7.75024 14.0051 7.75024V10.2502C16.0762 10.2502 17.7551 11.9292 17.7551 14.0002H20.2551Z" fill="black"/>
<path d="M14.0052 7.13306C14.4008 7.13306 14.7875 7.01576 15.1164 6.796C15.4453 6.57623 15.7016 6.26388 15.853 5.89842C16.0044 5.53297 16.044 5.13084 15.9668 4.74288C15.8896 4.35491 15.6992 3.99855 15.4195 3.71884C15.1398 3.43914 14.7834 3.24866 14.3954 3.17149C14.0075 3.09432 13.6053 3.13392 13.2399 3.2853C12.8744 3.43667 12.5621 3.69302 12.3423 4.02192C12.1225 4.35082 12.0052 4.73749 12.0052 5.13306C12.0052 5.66349 12.216 6.1722 12.591 6.54727C12.9661 6.92234 13.4748 7.13306 14.0052 7.13306Z" fill="black"/>
<path d="M7.75524 9.70776C8.1508 9.70776 8.53749 9.59047 8.86638 9.3707C9.19528 9.15094 9.45163 8.83858 9.60301 8.47313C9.75438 8.10768 9.79398 7.70555 9.71681 7.31758C9.63964 6.92962 9.44916 6.57326 9.16946 6.29355C8.88975 6.01385 8.53339 5.82336 8.14543 5.74619C7.75747 5.66902 7.35533 5.70863 6.98988 5.86001C6.62442 6.01138 6.31207 6.26773 6.0923 6.59662C5.87254 6.92552 5.75525 7.3122 5.75525 7.70776C5.75525 8.2382 5.96596 8.7469 6.34104 9.12198C6.71611 9.49705 7.22481 9.70776 7.75524 9.70776Z" fill="black"/>
<path d="M20.0052 9.70776C20.4008 9.70776 20.7875 9.59047 21.1164 9.3707C21.4453 9.15094 21.7016 8.83858 21.853 8.47313C22.0044 8.10768 22.044 7.70555 21.9668 7.31758C21.8896 6.92962 21.6992 6.57326 21.4195 6.29355C21.1398 6.01385 20.7834 5.82336 20.3954 5.74619C20.0075 5.66902 19.6053 5.70863 19.2399 5.86001C18.8744 6.01138 18.5621 6.26773 18.3423 6.59662C18.1225 6.92552 18.0052 7.3122 18.0052 7.70776C18.0052 8.2382 18.216 8.7469 18.591 9.12198C18.9661 9.49705 19.4748 9.70776 20.0052 9.70776Z" fill="black"/>
<path d="M22.7552 16.0002C23.1508 16.0002 23.5375 15.8829 23.8664 15.6632C24.1953 15.4434 24.4516 15.1311 24.603 14.7656C24.7544 14.4002 24.794 13.998 24.7168 13.6101C24.6396 13.2221 24.4492 12.8657 24.1695 12.586C23.8898 12.3063 23.5334 12.1158 23.1454 12.0387C22.7575 11.9615 22.3553 12.0011 21.9899 12.1525C21.6244 12.3039 21.3121 12.5602 21.0923 12.8891C20.8725 13.218 20.7552 13.6047 20.7552 14.0002C20.7552 14.5307 20.966 15.0394 21.341 15.4145C21.7161 15.7895 22.2248 16.0002 22.7552 16.0002Z" fill="black"/>
<path d="M5.25524 16.0002C5.6508 16.0002 6.03749 15.8829 6.36638 15.6632C6.69528 15.4434 6.95163 15.1311 7.10301 14.7656C7.25438 14.4002 7.29398 13.998 7.21681 13.6101C7.13964 13.2221 6.94916 12.8657 6.66946 12.586C6.38975 12.3063 6.03339 12.1158 5.64543 12.0387C5.25747 11.9615 4.85533 12.0011 4.48988 12.1525C4.12442 12.3039 3.81207 12.5602 3.5923 12.8891C3.37254 13.218 3.25525 13.6047 3.25525 14.0002C3.25525 14.5307 3.46596 15.0394 3.84104 15.4145C4.21611 15.7895 4.72481 16.0002 5.25524 16.0002Z" fill="black"/>
<path d="M14.0052 20.7502C14.4008 20.7502 14.7875 20.8675 15.1164 21.0873C15.4453 21.3071 15.7016 21.6194 15.853 21.9849C16.0044 22.3503 16.044 22.7525 15.9668 23.1404C15.8896 23.5284 15.6992 23.8848 15.4195 24.1645C15.1398 24.4442 14.7834 24.6346 14.3954 24.7118C14.0075 24.789 13.6053 24.7494 13.2399 24.598C12.8744 24.4466 12.5621 24.1903 12.3423 23.8614C12.1225 23.5325 12.0052 23.1458 12.0052 22.7502C12.0052 22.2198 12.216 21.7111 12.591 21.336C12.9661 20.961 13.4748 20.7502 14.0052 20.7502Z" fill="black"/>
<path d="M7.75524 18.2927C8.1508 18.2927 8.53749 18.41 8.86638 18.6298C9.19528 18.8495 9.45163 19.1619 9.60301 19.5274C9.75438 19.8928 9.79398 20.2949 9.71681 20.6829C9.63964 21.0709 9.44916 21.4272 9.16946 21.7069C8.88975 21.9866 8.53339 22.1771 8.14543 22.2543C7.75747 22.3315 7.35533 22.2919 6.98988 22.1405C6.62442 21.9891 6.31207 21.7328 6.0923 21.4039C5.87254 21.075 5.75525 20.6883 5.75525 20.2927C5.75525 19.7623 5.96596 19.2536 6.34104 18.8785C6.71611 18.5034 7.22481 18.2927 7.75524 18.2927Z" fill="black"/>
<path d="M20.0052 18.2927C20.4008 18.2927 20.7875 18.41 21.1164 18.6298C21.4453 18.8495 21.7016 19.1619 21.853 19.5274C22.0044 19.8928 22.044 20.2949 21.9668 20.6829C21.8896 21.0709 21.6992 21.4272 21.4195 21.7069C21.1398 21.9866 20.7834 22.1771 20.3954 22.2543C20.0075 22.3315 19.6053 22.2919 19.2399 22.1405C18.8744 21.9891 18.5621 21.7328 18.3423 21.4039C18.1225 21.075 18.0052 20.6883 18.0052 20.2927C18.0052 19.7623 18.216 19.2536 18.591 18.8785C18.9661 18.5034 19.4748 18.2927 20.0052 18.2927Z" fill="black"/>
</g>
<defs>
<clipPath id="clip0_3_4231">
<rect width="28" height="28" fill="white"/>
</clipPath>
</defs>
</svg>
