<svg width="28" height="26" viewBox="0 0 28 26" fill="none" xmlns="http://www.w3.org/2000/svg">
<path d="M26.0029 3.00293L20.0029 3.00293M15.892 9.66391L14.9827 10.7571C14.402 11.4552 14.7346 12.52 15.6094 12.7634L16.8386 13.1055C20.208 14.0432 22.5393 17.1119 22.5393 20.6094V23.9917H2.01172V20.6152C2.01172 17.1147 4.34533 14.0436 7.71784 13.1057L8.94955 12.7632C9.82447 12.5199 10.1572 11.4551 9.57647 10.7569L8.66735 9.66391C7.11543 7.79815 7.23973 5.05748 8.95417 3.33986C10.7898 1.50082 13.7696 1.50082 15.6052 3.33986C17.3196 5.05748 17.4439 7.79815 15.892 9.66391Z" stroke="black" stroke-width="2.5" stroke-linecap="round" stroke-linejoin="round"/>
</svg>
