<svg width="28" height="21" viewBox="0 0 28 21" fill="none" xmlns="http://www.w3.org/2000/svg">
<path d="M22.0015 5.96562L18.7913 1.29199M9.23264 1.30663L5.9805 5.95117M23.7984 11.2436C22.173 11.2436 20.8553 9.9259 20.8553 8.30049C20.8553 6.67508 22.173 5.35742 23.7984 5.35742C25.4238 5.35742 26.7415 6.67508 26.7415 8.30049C26.7415 9.9259 25.4238 11.2436 23.7984 11.2436ZM4.20174 11.2436C2.57632 11.2436 1.25867 9.9259 1.25867 8.30049C1.25867 6.67508 2.57632 5.35742 4.20174 5.35742C5.82715 5.35742 7.14481 6.67508 7.1448 8.30049C7.1448 9.9259 5.82715 11.2436 4.20174 11.2436ZM16.7979 17.9104C15.2527 19.4556 12.7474 19.4556 11.2021 17.9104C9.65687 16.3651 9.65687 13.8598 11.2021 12.3145C12.7474 10.7693 15.2527 10.7693 16.7979 12.3145C18.3432 13.8598 18.3432 16.3651 16.7979 17.9104Z" stroke="black" stroke-width="2.5" stroke-linecap="round" stroke-linejoin="round"/>
</svg>
