<svg width="28" height="28" viewBox="0 0 28 28" fill="none" xmlns="http://www.w3.org/2000/svg">
<g clip-path="url(#clip0_3_4790)">
<rect width="28" height="28" fill="white"/>
<path d="M14.1248 23.6137C14.4083 23.6137 14.6784 23.734 14.8681 23.9447L16.5369 25.799C16.8525 26.1497 17.3702 26.2321 17.7791 25.9967L22.1081 23.5047C22.513 23.2716 22.7025 22.7892 22.5646 22.3428L21.801 19.8716C21.7391 19.6711 21.7417 19.4562 21.8087 19.2573L21.8241 19.2115C21.9376 18.8743 22.2217 18.6228 22.5702 18.551L25.3759 17.9732C25.8407 17.8775 26.1742 17.4683 26.1742 16.9938V11.5429C26.1742 11.0765 25.8518 10.672 25.3971 10.5681L22.9871 10.017C22.7158 9.95499 22.4826 9.78269 22.3436 9.54156L21.9572 8.87112C21.8161 8.62631 21.7851 8.33324 21.872 8.06436L22.6314 5.71337C22.7764 5.2645 22.588 4.77534 22.1794 4.53969L17.8569 2.04711C17.4535 1.81445 16.9428 1.89113 16.6254 2.23203L14.9165 4.06778C14.7273 4.271 14.4622 4.38642 14.1846 4.38642H13.4443C13.1601 4.38642 12.8893 4.26551 12.6997 4.05391L11.0408 2.2034C10.7254 1.85157 10.2068 1.7685 9.79729 2.00423L5.46822 4.49627C5.064 4.72896 4.87432 5.21018 5.01105 5.65609L5.75506 8.08251C5.83607 8.34671 5.80414 8.63265 5.66685 8.87248L5.31894 9.48023C5.17702 9.72813 4.93587 9.90351 4.6563 9.96213L2.18846 10.4796C1.72534 10.5767 1.39368 10.9851 1.39368 11.4583V16.4564C1.39368 16.9232 1.71659 17.3279 2.17171 17.4315L4.64125 17.9936C4.9121 18.0553 5.14511 18.2268 5.28443 18.4672L5.63777 19.0767C5.78053 19.3229 5.81158 19.6184 5.72314 19.8889L4.93983 22.2853C4.79293 22.7347 4.98086 23.2256 5.39032 23.462L9.71804 25.9608C10.1228 26.1945 10.6354 26.1167 10.9526 25.7734L12.651 23.9351C12.8403 23.7302 13.1066 23.6137 13.3855 23.6137H14.1248Z" stroke="black" stroke-width="2.5" stroke-miterlimit="10" stroke-linejoin="round"/>
<path d="M10 18.5357V14.1329M10 14.1329V10.4644C10 9.91207 10.4477 9.46436 11 9.46436H16.11C19.3918 9.46436 19.5186 14.1329 16.11 14.1329C15.1266 14.1329 15.1527 14.1329 14.3196 14.1329M10 14.1329C10.8752 14.1329 12.9594 14.1329 14.3196 14.1329M18.5812 18.5188L14.3196 14.1329" stroke="black" stroke-width="2.5" stroke-linecap="round" stroke-linejoin="round"/>
</g>
<defs>
<clipPath id="clip0_3_4790">
<rect width="28" height="28" fill="white"/>
</clipPath>
</defs>
</svg>
