<svg width="28" height="28" viewBox="0 0 28 28" fill="none" xmlns="http://www.w3.org/2000/svg">
<path d="M13.9954 26.6344L13.9954 23.3251M13.9954 4.56043L13.9954 1.25117" stroke="black" stroke-width="2.5" stroke-linecap="round"/>
<path d="M1.3037 13.9428L4.61296 13.9428M23.3777 13.9428L26.6869 13.9428" stroke="black" stroke-width="2.5" stroke-linecap="round"/>
<path d="M13.9999 23.1771C19.0194 23.1771 23.0884 19.108 23.0884 14.0885C23.0884 9.06907 19.0194 5 13.9999 5C8.98045 5 4.91138 9.06907 4.91138 14.0885C4.91138 19.108 8.98045 23.1771 13.9999 23.1771Z" stroke="black" stroke-width="2.5" stroke-linecap="round" stroke-linejoin="round"/>
<path d="M17.3907 13.2112H10.601V17.832H17.3907V13.2112Z" stroke="black" stroke-width="2.5" stroke-linecap="round" stroke-linejoin="round"/>
<path d="M11.8669 13.0868L11.8669 11.4835C11.8669 10.9188 12.0912 10.3773 12.4905 9.97805C12.8897 9.57879 13.4312 9.35449 13.9959 9.35449C14.5591 9.35667 15.0985 9.58193 15.496 9.98095C15.8935 10.38 16.1166 10.9202 16.1166 11.4835V13.0868" stroke="black" stroke-width="2.5" stroke-linecap="round" stroke-linejoin="round"/>
</svg>
