<svg width="24" height="28" viewBox="0 0 24 28" fill="none" xmlns="http://www.w3.org/2000/svg">
<path d="M2.00837 4.99313C1.61431 5.13747 1.35229 5.51248 1.35229 5.93213V19.1714C1.35229 19.5113 1.52498 19.828 1.81076 20.012L11.386 26.1801C11.7159 26.3925 12.1395 26.3925 12.4693 26.1799L22.1895 19.9156C22.4752 19.7315 22.6478 19.4149 22.6478 19.075V5.93235C22.6478 5.51259 22.3857 5.1375 21.9915 4.99325L12.339 1.46102C12.117 1.37978 11.8734 1.37982 11.6515 1.46112L2.00837 4.99313Z" stroke="black" stroke-width="2.5" stroke-linecap="round" stroke-linejoin="round"/>
<path d="M15.3612 12.4983H8.63867C8.08639 12.4983 7.63867 12.946 7.63867 13.4983V17C7.63867 17.5523 8.08639 18 8.63867 18H15.3612C15.9135 18 16.3612 17.5523 16.3612 17V13.4983C16.3612 12.946 15.9135 12.4983 15.3612 12.4983Z" stroke="black" stroke-width="2.5" stroke-linecap="round" stroke-linejoin="round"/>
<path d="M9.26489 12.4983V11.1572C9.26489 10.4318 9.55304 9.73611 10.066 9.22319C10.5789 8.71027 11.2746 8.42212 11.9999 8.42212C12.7235 8.42491 13.4164 8.7143 13.9271 9.22691C14.4377 9.73953 14.7244 10.4336 14.7244 11.1572V12.4983" stroke="black" stroke-width="2.5" stroke-linecap="round" stroke-linejoin="round"/>
</svg>
