<svg width="28" height="28" viewBox="0 0 28 28" fill="none" xmlns="http://www.w3.org/2000/svg">
<path d="M21.6714 19.2301L22.4714 17.9014L25.9707 17.0924V10.7943L22.4714 9.99497L21.6714 8.6082L22.7794 5.17949L17.2472 1.99175L14.7794 4.64046H13.2085L10.7891 1.94336L5.24722 5.1311L6.31743 8.61788L5.55618 9.94659L1.9707 10.6976V17.0924L5.52712 17.9014L6.29806 19.2301L5.16102 22.7072L10.7029 25.9046L13.161 23.2463H14.732L17.161 25.9434L22.7794 22.7072" stroke="black" stroke-width="2.5" stroke-linejoin="round"/>
<path d="M13.6936 18.3814C16.3019 18.3814 18.4164 16.2686 18.4164 13.6624C18.4164 11.0561 16.3019 8.94338 13.6936 8.94338C11.0852 8.94338 8.97076 11.0561 8.97076 13.6624C8.97076 16.2686 11.0852 18.3814 13.6936 18.3814Z" fill="white" stroke="black" stroke-width="2.5" stroke-linecap="round" stroke-linejoin="round"/>
</svg>
