<svg width="28" height="28" viewBox="0 0 28 28" fill="none" xmlns="http://www.w3.org/2000/svg">
<path d="M13.9385 6.06944C15.9035 6.06944 17.4965 5.00744 17.4965 3.69744C17.4965 2.38744 15.9035 1.32544 13.9385 1.32544C11.9735 1.32544 10.3805 2.38744 10.3805 3.69744C10.3805 5.00744 11.9735 6.06944 13.9385 6.06944V6.06944Z" stroke="black" stroke-width="2.5" stroke-linecap="round"/>
<path d="M6.70853 17.9755L10.0255 12.2785" stroke="black" stroke-width="2.5" stroke-linecap="round" stroke-linejoin="round"/>
<path d="M21.1695 17.9755L17.8525 12.2785" stroke="black" stroke-width="2.5" stroke-linecap="round" stroke-linejoin="round"/>
<path d="M5.35152 26.6745C7.58252 26.6745 9.39152 25.4685 9.39152 23.9815C9.39152 22.4945 7.58252 21.2885 5.35152 21.2885C3.12052 21.2885 1.31152 22.4945 1.31152 23.9815C1.31152 25.4685 3.12052 26.6745 5.35152 26.6745Z" stroke="black" stroke-width="2.5" stroke-linecap="square" stroke-linejoin="round"/>
<path d="M22.6485 26.6745C24.8795 26.6745 26.6885 25.4685 26.6885 23.9815C26.6885 22.4945 24.8795 21.2885 22.6485 21.2885C20.4175 21.2885 18.6085 22.4945 18.6085 23.9815C18.6085 25.4685 20.4175 26.6745 22.6485 26.6745Z" stroke="black" stroke-width="2.5" stroke-linecap="square" stroke-linejoin="round"/>
<path d="M17.4965 3.69751C17.4965 5.00751 15.9035 6.06951 13.9385 6.06951C11.9735 6.06951 10.3805 5.00751 10.3805 3.69751V7.29351C10.3805 8.60351 11.9735 9.51751 13.9385 9.51751C15.9035 9.51751 17.4965 8.60351 17.4965 7.29351V3.69751Z" stroke="black" stroke-width="2.5" stroke-linecap="round" stroke-linejoin="round"/>
</svg>
