<svg width="28" height="28" viewBox="0 0 28 28" fill="none" xmlns="http://www.w3.org/2000/svg">
<path d="M13.669 26.5219C15.194 26.5219 16.43 25.2859 16.43 23.7609C16.43 22.2359 15.194 20.9999 13.669 20.9999C12.144 20.9999 10.908 22.2359 10.908 23.7609C10.908 25.2859 12.144 26.5219 13.669 26.5219V26.5219Z" stroke="black" stroke-width="2.5" stroke-linecap="round" stroke-linejoin="round"/>
<path d="M17.966 13.2639C17.966 12.7116 17.5183 12.2639 16.966 12.2639H10.783C10.2307 12.2639 9.78302 12.7116 9.78302 13.2639V16.4249C9.78302 16.9772 10.2307 17.4249 10.783 17.4249H16.966C17.5183 17.4249 17.966 16.9772 17.966 16.4249V13.2639Z" stroke="black" stroke-width="2.5" stroke-linecap="round" stroke-linejoin="round"/>
<path d="M11.308 11.9618V10.1829C11.308 9.50288 11.578 8.84988 12.06 8.36888C12.541 7.88788 13.194 7.61688 13.874 7.61688C14.553 7.61988 15.203 7.89088 15.682 8.37188C16.161 8.85288 16.43 9.50388 16.43 10.1829V11.9618" stroke="black" stroke-width="2.5" stroke-linecap="round" stroke-linejoin="round"/>
<path d="M23.943 8.40091C25.468 8.40091 26.704 7.16491 26.704 5.63991C26.704 4.11491 25.468 2.87891 23.943 2.87891C22.418 2.87891 21.182 4.11491 21.182 5.63991C21.182 7.16491 22.418 8.40091 23.943 8.40091Z" stroke="black" stroke-width="2.5" stroke-linecap="round" stroke-linejoin="round"/>
<path d="M4.05702 8.40091C5.58202 8.40091 6.81802 7.16491 6.81802 5.63991C6.81802 4.11491 5.58202 2.87891 4.05702 2.87891C2.53202 2.87891 1.29602 4.11491 1.29602 5.63991C1.29602 7.16491 2.53202 8.40091 4.05702 8.40091Z" stroke="black" stroke-width="2.5" stroke-linecap="round" stroke-linejoin="round"/>
<path d="M23.943 8.40087C22.418 8.40087 21.182 7.16487 21.182 5.63987C21.182 5.20087 21.294 4.79187 21.476 4.42387L13.87 1.64087L6.48203 4.34687C6.68903 4.73387 6.81803 5.16987 6.81803 5.63987C6.81803 7.16487 5.58203 8.40087 4.05703 8.40087C3.97103 8.40087 3.89003 8.38287 3.80603 8.37587V14.1139C3.80603 17.1739 5.36003 20.0229 7.93203 21.6799L10.924 23.6069C11.005 22.1549 12.197 20.9999 13.669 20.9999C15.194 20.9999 16.43 22.2359 16.43 23.7609V23.7729L19.818 21.5889C22.389 19.9319 23.943 17.0829 23.943 14.0239V8.40087Z" stroke="black" stroke-width="2.5" stroke-linecap="round" stroke-linejoin="round"/>
</svg>
