<svg width="28" height="17" viewBox="0 0 28 17" fill="none" xmlns="http://www.w3.org/2000/svg">
<path d="M2 13.6547C1.30964 13.6547 0.75 14.2144 0.75 14.9047C0.75 15.5951 1.30964 16.1547 2 16.1547V13.6547ZM22.741 2L23.6249 1.11612C23.3905 0.881696 23.0726 0.75 22.741 0.75C22.4095 0.75 22.0916 0.881696 21.8572 1.11612L22.741 2ZM26 5.25894L26.8839 6.14283C27.372 5.65467 27.372 4.86321 26.8839 4.37506L26 5.25894ZM17.5633 13.6957L17.8895 14.9023C18.1004 14.8453 18.2927 14.734 18.4471 14.5795L17.5633 13.6957ZM14.3043 10.4367L13.4204 9.55284C13.2663 9.70699 13.1551 9.89877 13.098 10.1092L14.3043 10.4367ZM13.0911 14.9048L11.8847 14.5772C11.7674 15.0094 11.8902 15.4713 12.2067 15.7881C12.5232 16.105 12.985 16.2283 13.4173 16.1114L13.0911 14.9048ZM9.74995 13.6547H2V16.1547H9.74995V13.6547ZM21.8572 2.88388L25.1161 6.14283L26.8839 4.37506L23.6249 1.11612L21.8572 2.88388ZM25.1161 4.37506L16.6794 12.8118L18.4471 14.5795L26.8839 6.14283L25.1161 4.37506ZM15.1882 11.3206L23.6249 2.88388L21.8572 1.11612L13.4204 9.55284L15.1882 11.3206ZM17.237 12.489L12.7648 13.6981L13.4173 16.1114L17.8895 14.9023L17.237 12.489ZM14.2974 15.2323L15.5106 10.7643L13.098 10.1092L11.8847 14.5772L14.2974 15.2323Z" fill="black"/>
</svg>
