<svg width="28" height="28" viewBox="0 0 28 28" fill="none" xmlns="http://www.w3.org/2000/svg">
<g clip-path="url(#clip0_3_4415)">
<rect width="28" height="28" fill="white"/>
<path d="M22.4139 6.68558C23.4082 5.69129 25.0202 5.69129 26.0145 6.68558V6.68558C27.0088 7.67987 27.0088 9.29193 26.0145 10.2862L18.4935 17.8072L13.5524 19.1431L14.8929 14.2066L22.4139 6.68558Z" stroke="black" stroke-width="2.5" stroke-linecap="round" stroke-linejoin="round"/>
<path d="M9.86096 19.1435H9.03244C8.27577 19.1435 7.60337 18.7575 7.35588 18.1814L7.16959 17.7469C6.82104 16.9604 6.20235 16.5951 5.56781 16.5913C4.93327 16.5951 4.30481 16.9604 3.95626 17.7469L3.76998 18.1814C3.52248 18.7575 2.85009 19.1435 2.09342 19.1435H1.26489" stroke="black" stroke-width="2.5" stroke-miterlimit="10" stroke-linecap="round" stroke-linejoin="round"/>
</g>
<defs>
<clipPath id="clip0_3_4415">
<rect width="28" height="28" fill="white"/>
</clipPath>
</defs>
</svg>
