<svg width="27" height="27" viewBox="0 0 27 27" fill="none" xmlns="http://www.w3.org/2000/svg">
<path d="M14.5769 5.74188L14.9633 5.24627C15.686 4.31907 15.6009 2.99783 14.7652 2.17099C13.8613 1.27664 12.4059 1.27666 11.5019 2.171C10.6663 2.99784 10.5812 4.31907 11.3038 5.24628L11.6901 5.74177C11.9538 6.0801 11.7917 6.57778 11.3793 6.69593L10.8267 6.85426C9.22845 7.31215 8.127 8.77348 8.127 10.436V12.1056H18.1361V10.4332C18.1361 8.77209 17.0358 7.31197 15.4391 6.85417L14.8876 6.69606C14.4753 6.57784 14.3132 6.08018 14.5769 5.74188Z" fill="white" stroke="black" stroke-width="2.5" stroke-linecap="round" stroke-linejoin="round"/>
<path d="M21.2969 19.1929L21.6832 18.6973C22.406 17.7701 22.3209 16.4489 21.4852 15.622C20.5813 14.7277 19.1258 14.7277 18.2219 15.6221C17.3862 16.4489 17.3011 17.7701 18.0238 18.6973L18.41 19.1928C18.6737 19.5311 18.5116 20.0288 18.0993 20.147L17.5466 20.3053C15.9484 20.7632 14.847 22.2245 14.847 23.887V25.5567H24.8561V23.8842C24.8561 22.2231 23.7558 20.763 22.159 20.3052L21.6075 20.1471C21.1952 20.0289 21.0332 19.5312 21.2969 19.1929Z" fill="white" stroke="black" stroke-width="2.5" stroke-linecap="round" stroke-linejoin="round"/>
<path d="M7.84585 19.1929L8.23217 18.6973C8.9549 17.7701 8.86982 16.4489 8.03413 15.622C7.13021 14.7277 5.67479 14.7277 4.77087 15.6221C3.93519 16.4489 3.85007 17.7701 4.57277 18.6973L4.95898 19.1928C5.22268 19.5311 5.06059 20.0288 4.64823 20.147L4.09557 20.3053C2.49737 20.7632 1.39592 22.2245 1.39592 23.887V25.5567H11.405V23.8842C11.405 22.2231 10.3047 20.763 8.70798 20.3052L8.1565 20.1471C7.74418 20.0289 7.58216 19.5312 7.84585 19.1929Z" fill="white" stroke="black" stroke-width="2.5" stroke-linecap="round" stroke-linejoin="round"/>
<path d="M12.93 16.2586L17.4675 19.3067M8.53888 19.2033L12.9224 16.2586V12.1639" stroke="black" stroke-width="2.5" stroke-linejoin="round"/>
</svg>
