<svg width="28" height="28" viewBox="0 0 28 28" fill="none" xmlns="http://www.w3.org/2000/svg">
<rect width="28" height="28" fill="white"/>
<path d="M14.0234 19.6514C20.6504 19.6514 26.0234 16.0694 26.0234 11.6514C26.0234 7.23337 20.6504 3.65137 14.0234 3.65137C7.39644 3.65137 2.02344 7.23337 2.02344 11.6514C2.02344 16.0694 7.39644 19.6514 14.0234 19.6514Z" stroke="black" stroke-width="2.5" stroke-linecap="round" stroke-linejoin="round"/>
<path d="M14.0234 19.6514C7.73844 19.6514 2.59044 16.4284 2.07444 12.3274H2.02344V16.8494C2.02344 21.2674 7.39644 24.3494 14.0234 24.3494C20.6504 24.3494 26.0234 21.2674 26.0234 16.8494V12.3274H25.9724C25.4564 16.4284 20.3084 19.6514 14.0234 19.6514Z" stroke="black" stroke-width="2.5" stroke-linecap="round" stroke-linejoin="round"/>
<path d="M17.1763 10.604L13.9983 8.16504L10.8203 10.604" stroke="black" stroke-width="2.5" stroke-linecap="round" stroke-linejoin="round"/>
<path d="M13.9766 8.93457V15.1376" stroke="black" stroke-width="2.5" stroke-linecap="round"/>
</svg>
