<svg width="28" height="28" viewBox="0 0 28 28" fill="none" xmlns="http://www.w3.org/2000/svg">
<path d="M10.6631 5.49591C10.6631 7.68122 12.4347 9.45277 14.62 9.45277C16.8053 9.45277 18.5768 7.68122 18.5768 5.49591C18.5768 3.31061 16.8053 1.53906 14.62 1.53906C12.4347 1.53906 10.6631 3.3106 10.6631 5.49591Z" stroke="black" stroke-width="2.5" stroke-linecap="round" stroke-linejoin="round"/>
<path d="M10.3922 5.49583L6.33444 5.49583C5.78215 5.49583 5.33443 5.94355 5.33443 6.49583L5.33443 20M5.33443 20L8.77661 16.453M5.33443 20L1.77661 16.547" stroke="black" stroke-width="2.5" stroke-linecap="round" stroke-linejoin="round"/>
<path d="M17.3566 22.7822C17.3566 20.5969 15.5851 18.8253 13.3998 18.8253C11.2145 18.8253 9.44293 20.5969 9.44293 22.7822C9.44293 24.9675 11.2145 26.739 13.3998 26.739C15.5851 26.739 17.3566 24.9675 17.3566 22.7822Z" stroke="black" stroke-width="2.5" stroke-linecap="round" stroke-linejoin="round"/>
<path d="M17.6276 22.7822L21.6853 22.7822C22.2376 22.7822 22.6853 22.3345 22.6853 21.7822L22.6853 8.27808M22.6853 8.27808L19.2432 11.825M22.6853 8.27808L26.2432 11.7311" stroke="black" stroke-width="2.5" stroke-linecap="round" stroke-linejoin="round"/>
</svg>
