<svg width="28" height="28" viewBox="0 0 28 28" fill="none" xmlns="http://www.w3.org/2000/svg">
<path d="M16.7096 25.9988H2.37158C1.8193 25.9988 1.37158 25.5511 1.37158 24.9988V22.7549C1.37158 19.4009 3.60758 16.4578 6.83858 15.5588L8.01758 15.2308C8.85658 14.9968 9.17558 13.9758 8.61858 13.3068L7.74658 12.2588C6.25858 10.4698 6.37758 7.84185 8.02158 6.19385C9.78158 4.42985 12.6396 4.42985 14.3996 6.19385C16.0436 7.84085 16.1626 10.4688 14.6746 12.2588L13.8026 13.3068C13.2456 13.9768 13.5646 14.9978 14.4036 15.2308L16.5946 15.8398C17.6206 16.1248 18.4146 16.7999 18.8806 17.6479" stroke="black" stroke-width="2.5" stroke-linecap="round" stroke-linejoin="round"/>
<path d="M22.0355 18.7369L25.6785 19.5429L23.2155 22.3169L23.5655 25.9919L20.1355 24.5339L16.7085 25.9999L17.0525 22.3239L14.5835 19.5549L18.2255 18.7409L20.1255 15.5649L22.0345 18.7369H22.0355Z" stroke="black" stroke-width="2.5" stroke-linejoin="round"/>
</svg>
