<svg width="29" height="29" viewBox="0 0 29 29" fill="none" xmlns="http://www.w3.org/2000/svg">
<path d="M11.549 17.8592C9.38998 18.2862 7.83398 20.1792 7.83398 22.3802V27.4332H21.627V22.3802C21.627 20.1792 20.071 18.2862 17.912 17.8592C16.98 17.7942 15.723 17.7312 14.724 17.7312C13.695 17.7312 12.507 17.7902 11.549 17.8592Z" stroke="black" stroke-width="2.5" stroke-linecap="round" stroke-linejoin="round"/>
<path d="M7.59532 24.6583C4.28932 23.9713 2 22.8283 2 21.5343C2 19.4343 7.697 17.7323 14.725 17.7323C21.753 17.7323 27.45 19.4343 27.45 21.5343C27.45 22.8283 25.1685 23.9713 21.8625 24.6583" stroke="black" stroke-width="2.5" stroke-linecap="square"/>
<path d="M9.522 5.25054C5.088 5.84453 2 7.17554 2 8.72154C2 10.8215 7.697 12.5235 14.725 12.5235C21.753 12.5235 27.45 10.8215 27.45 8.72154C27.45 7.17354 24.354 5.84154 19.911 5.24854" stroke="black" stroke-width="2.5" stroke-linecap="square"/>
<path d="M13.44 12.5042L11.114 9.70325C9.562 7.83725 9.686 5.09725 11.401 3.37925C13.237 1.54025 16.216 1.54025 18.052 3.37925C19.767 5.09725 19.891 7.83725 18.339 9.70325L16.012 12.5042C15.589 12.5172 15.16 12.5232 14.726 12.5232C14.287 12.5232 13.868 12.5172 13.44 12.5042Z" stroke="black" stroke-width="2.5" stroke-linecap="round" stroke-linejoin="round"/>
</svg>
