<svg width="26" height="27" viewBox="0 0 26 27" fill="none" xmlns="http://www.w3.org/2000/svg">
<path d="M14.1323 10.7257L21.2294 10.7257C22.588 10.7257 23.6894 11.827 23.6894 13.1856C23.6894 14.5442 22.588 15.6456 21.2294 15.6456L20.2143 15.6456L21.8862 15.6458C23.0364 15.6458 23.9687 16.7471 23.9687 18.1057C23.9687 19.4643 23.0364 20.5657 21.8862 20.5657L19.7799 20.5657C20.93 20.5657 21.8266 21.4939 21.8266 23.0517C21.8266 24.4103 20.4956 25.5117 19.3455 25.5117L16.9578 25.5117L13.3464 25.5117C9.30401 25.5116 7.6868 21.372 7.6868 21.372L1.96875 21.372L1.96875 12.2277L7.6868 12.1857C7.6868 12.1857 10.13 6.90225 12.1395 2.69067C12.71 1.4951 14.1579 1.01692 15.3327 1.62891C16.3871 2.17815 16.8661 3.42765 16.4491 4.54096L14.1323 10.7257Z" stroke="black" stroke-width="2.5" stroke-linecap="round" stroke-linejoin="round"/>
</svg>
