<svg width="23" height="26" viewBox="0 0 23 26" fill="none" xmlns="http://www.w3.org/2000/svg">
<path d="M13.189 21.2013C12.4772 21.2882 11.7446 21.2966 11.0011 21.2184C9.70468 21.0822 8.49528 20.6953 7.41591 20.1112L1.7926 24.0642L4.47006 17.6476C2.93758 15.7325 2.12952 13.2365 2.40617 10.6044C2.66242 8.16658 3.80466 6.03632 5.47931 4.5M9.57447 2.26624C10.6678 1.98112 11.8301 1.88445 13.0202 2.00954C18.3245 2.56709 22.1726 7.31913 21.6151 12.6235C21.332 15.3161 19.9682 17.6334 18 19.1897" stroke="black" stroke-width="2.5" stroke-linecap="round" stroke-linejoin="round"/>
<path d="M6.61334 7.73853L6.47209 3.24239L1.97594 3.38364" stroke="black" stroke-width="2.5" stroke-linecap="round" stroke-linejoin="round"/>
<path d="M17.0169 15.5961L16.2314 20.0253L20.6607 20.8108" stroke="black" stroke-width="2.5" stroke-linecap="round" stroke-linejoin="round"/>
</svg>
