<svg width="24" height="28" viewBox="0 0 24 28" fill="none" xmlns="http://www.w3.org/2000/svg">
<path d="M13.6531 22.0895C12.9128 22.1798 12.1509 22.1885 11.3777 22.1072C10.0294 21.9655 8.77164 21.5632 7.6491 20.9557L1.80085 25.0669L4.58542 18.3936C2.99164 16.4019 2.15125 13.806 2.43897 11.0687C2.73943 8.21026 4.21109 5.75846 6.327 4.14002M17.8017 20.604C20.3035 19.0172 22.0825 16.3437 22.4162 13.1685C22.9961 7.65197 18.9941 2.70985 13.4775 2.13C12.2398 1.9999 11.0311 2.10044 9.894 2.39697" stroke="black" stroke-width="2.5" stroke-linecap="round" stroke-linejoin="round"/>
<path d="M6.81444 8.0882L6.66755 3.41221L1.99155 3.55911" stroke="black" stroke-width="2.5" stroke-linecap="round" stroke-linejoin="round"/>
<path d="M17.6342 16.2599L16.8173 20.8663L21.4237 21.6833" stroke="black" stroke-width="2.5" stroke-linecap="round" stroke-linejoin="round"/>
</svg>
