<svg width="23" height="23" viewBox="0 0 23 23" fill="none" xmlns="http://www.w3.org/2000/svg">
<g clip-path="url(#clip0_3_4705)">
<rect width="23" height="23" fill="white"/>
<path d="M20.3382 8.01953H3.16467C2.61239 8.01953 2.16467 8.46725 2.16467 9.01953V20.9639C2.16467 21.5162 2.61239 21.9639 3.16467 21.9639H20.3382C20.8905 21.9639 21.3382 21.5162 21.3382 20.9639V9.01953C21.3382 8.46725 20.8905 8.01953 20.3382 8.01953Z" stroke="black" stroke-width="2.5" stroke-linejoin="round"/>
<path d="M6.88478 7.86882C6.8619 5.87436 6.93586 4.9374 7.19166 4.20802C7.77271 2.54781 9.30421 1.26925 11.105 1.16995C12.6205 1.08823 13.9028 1.40041 14.9341 2.57437C15.1753 2.8492 15.5762 3.28008 15.8516 3.9652" stroke="black" stroke-width="2.5" stroke-miterlimit="10" stroke-linecap="round"/>
</g>
<defs>
<clipPath id="clip0_3_4705">
<rect width="23" height="23" fill="white"/>
</clipPath>
</defs>
</svg>
