<svg width="28" height="28" viewBox="0 0 28 28" fill="none" xmlns="http://www.w3.org/2000/svg">

<path d="M19.7397 4.99992L21.2397 6.99992L26.2397 2.99992" stroke="black" stroke-width="2.5" stroke-linecap="round" stroke-linejoin="round"/>
<path d="M9.55662 12.7572L8.64731 11.664C7.09538 9.79819 7.21968 7.05753 8.93412 5.3399C10.7698 3.50087 13.7495 3.50087 15.5851 5.3399C17.2996 7.05753 17.4239 9.79819 15.872 11.664L14.9628 12.7569C14.3821 13.4551 14.7148 14.5199 15.5898 14.7632L16.8215 15.1058C20.194 16.0436 22.5276 19.1148 22.5276 22.6153V25.9918H2V22.6094C2 19.1119 4.33128 16.0433 7.70074 15.1056L8.92988 14.7635C9.80471 14.52 10.1373 13.4553 9.55662 12.7572Z" stroke="black" stroke-width="2.5" stroke-linecap="round" stroke-linejoin="round"/>
</svg>
