<svg width="28" height="26" viewBox="0 0 28 26" fill="none" xmlns="http://www.w3.org/2000/svg">
<path d="M20.0084 24.0303H1.27246V20.6543C1.27246 17.1543 3.60646 14.0822 6.97846 13.1442L8.21046 12.8022C9.08546 12.5592 9.41846 11.4942 8.83746 10.7962L7.92846 9.70325C6.37646 7.83725 6.50046 5.09725 8.21546 3.37925C10.0515 1.54025 13.0305 1.54025 14.8665 3.37925C16.5805 5.09725 16.7055 7.83725 15.1535 9.70325L14.1835 10.8692C13.6145 11.5532 13.9055 12.5952 14.7465 12.8852L16.62 13.4471" stroke="black" stroke-width="2.5" stroke-linecap="round" stroke-linejoin="round"/>
<path d="M26.7275 18.1692C26.7275 19.7242 26.1095 21.2162 25.0105 22.3152C23.9105 23.4152 22.4195 24.0322 20.8645 24.0322C19.3095 24.0322 17.8175 23.4142 16.7185 22.3152C15.6185 21.2152 15.0005 19.7242 15.0005 18.1692C15.0005 16.6142 15.6185 15.1222 16.7185 14.0232C17.8185 12.9232 19.3095 12.3062 20.8645 12.3062C22.4195 12.3062 23.9115 12.9242 25.0105 14.0232C26.1105 15.1232 26.7275 16.6142 26.7275 18.1692Z" stroke="black" stroke-width="2.5" stroke-miterlimit="10" stroke-linecap="square"/>
<path d="M22.7597 16.8242L20.1341 19.6812L18.7334 18.2796" stroke="black" stroke-width="2.5" stroke-linecap="round" stroke-linejoin="round"/>
</svg>
