<svg width="23" height="29" viewBox="0 0 23 29" fill="none" xmlns="http://www.w3.org/2000/svg">
<path d="M2 2V0.75C1.30964 0.75 0.75 1.30964 0.75 2L2 2ZM2 27.4725H0.75C0.75 28.1629 1.30964 28.7225 2 28.7225L2 27.4725ZM21.5942 27.4725V28.7225C22.2846 28.7225 22.8442 28.1629 22.8442 27.4725H21.5942ZM21.5942 8.85798H22.8442C22.8442 8.52646 22.7125 8.20852 22.4781 7.9741L21.5942 8.85798ZM14.7363 2L15.6201 1.11612C15.3857 0.881696 15.0678 0.75 14.7363 0.75V2ZM20 10.108H21.25V7.60798H20V10.108ZM15.9863 3V1.75H13.4863V3H15.9863ZM13.0479 14.1877C13.0475 13.4974 12.4876 12.938 11.7972 12.9383C11.1069 12.9387 10.5475 13.4986 10.5479 14.189L13.0479 14.1877ZM10.5512 20.9291C10.5516 21.6194 11.1115 22.1788 11.8018 22.1785C12.4922 22.1781 13.0516 21.6182 13.0512 20.9278L10.5512 20.9291ZM7.58579 15.6861C7.10337 16.1799 7.1126 16.9713 7.60642 17.4537C8.10024 17.9361 8.89164 17.9269 9.37407 17.4331L7.58579 15.6861ZM11.75 13.2123L12.6235 12.3181C12.1297 11.8357 11.3383 11.8449 10.8559 12.3388L11.75 13.2123ZM14.2182 17.3709C14.712 17.8533 15.5034 17.8441 15.9859 17.3503C16.4683 16.8564 16.459 16.065 15.9652 15.5826L14.2182 17.3709ZM0.75 2V27.4725H3.25V2H0.75ZM21.5942 26.2225H2V28.7225H21.5942V26.2225ZM22.8442 27.4725V8.85798H20.3442V27.4725H22.8442ZM14.7363 0.75H2V3.25H14.7363V0.75ZM22.4781 7.9741L15.6201 1.11612L13.8524 2.88388L20.7104 9.74187L22.4781 7.9741ZM20 7.60798H15.7363V10.108H20V7.60798ZM15.9863 7.85798V3H13.4863V7.85798H15.9863ZM15.7363 7.60798C15.8743 7.60798 15.9863 7.71991 15.9863 7.85798H13.4863C13.4863 9.10062 14.4936 10.108 15.7363 10.108V7.60798ZM10.5479 14.189L10.5512 20.9291L13.0512 20.9278L13.0479 14.1877L10.5479 14.189ZM9.37407 17.4331L12.6442 14.0858L10.8559 12.3388L7.58579 15.6861L9.37407 17.4331ZM10.8765 14.1064L14.2182 17.3709L15.9652 15.5826L12.6235 12.3181L10.8765 14.1064Z" fill="black"/>
</svg>
