<svg width="28" height="28" viewBox="0 0 28 28" fill="none" xmlns="http://www.w3.org/2000/svg">
<g clip-path="url(#clip0_3_4814)">
<rect width="28" height="28" transform="translate(0 -0.000244141)" fill="white"/>
<path d="M22.8458 10.1229H5.99994C5.44765 10.1229 4.99994 10.5706 4.99994 11.1229V24.9998C4.99994 25.552 5.44765 25.9998 5.99994 25.9998H22.8458C23.3981 25.9998 23.8458 25.552 23.8458 24.9998V11.1229C23.8458 10.5706 23.3981 10.1229 22.8458 10.1229Z" stroke="black" stroke-width="2.5" stroke-linecap="round"/>
<path d="M22.9147 14.3546H17.2061C15.159 14.3546 13.4995 16.0141 13.4995 18.0613C13.4995 20.1084 15.159 21.7679 17.2061 21.7679H22.9147C23.4347 21.7679 23.8562 21.3464 23.8562 20.8264V15.2961C23.8562 14.7761 23.4347 14.3546 22.9147 14.3546Z" stroke="black" stroke-width="2.5" stroke-linecap="round"/>
<path d="M17.3771 19.5391C18.1926 19.5391 18.8537 18.8777 18.8537 18.0618C18.8537 17.2459 18.1926 16.5844 17.3771 16.5844C16.5616 16.5844 15.9005 17.2459 15.9005 18.0618C15.9005 18.8777 16.5616 19.5391 17.3771 19.5391Z" fill="black"/>
<path d="M14.7695 1.99976L14.7695 9.62805M14.7695 1.99976L11.6461 5.24169M14.7695 1.99976L17.8875 5.24169" stroke="black" stroke-width="2.5" stroke-linecap="round" stroke-linejoin="round"/>
</g>
<defs>
<clipPath id="clip0_3_4814">
<rect width="28" height="28" fill="white" transform="translate(0 -0.000244141)"/>
</clipPath>
</defs>
</svg>
