<svg width="28" height="28" viewBox="0 0 28 28" fill="none" xmlns="http://www.w3.org/2000/svg">
<rect width="28" height="28" transform="translate(0 -0.000244141)" fill="white"/>
<path d="M24 5.39975H4C3.44772 5.39975 3 5.84747 3 6.39975V21.9997C3 22.552 3.44772 22.9997 4 22.9997H24C24.5523 22.9997 25 22.552 25 21.9997V6.39975C25 5.84747 24.5523 5.39975 24 5.39975Z" stroke="black" stroke-width="2.5" stroke-miterlimit="40" stroke-linecap="round"/>
<path d="M17.8226 14.5713C18.1534 14.3784 18.1535 13.9005 17.8227 13.7076L12.7151 10.7274C12.3817 10.5329 11.9631 10.7733 11.9631 11.1592V17.1182C11.9631 17.5041 12.3816 17.7445 12.715 17.5501L17.8226 14.5713Z" fill="white" stroke="black" stroke-width="2.5" stroke-linecap="round"/>
</svg>
